<svg width="140" height="100" viewBox="0 0 140 100" fill="none" xmlns="http://www.w3.org/2000/svg">
<path d="M0 8C0 3.58172 3.58172 0 8 0H132C136.418 0 140 3.58172 140 8V100H0V8Z" fill="#59AAB8"/>
<path d="M70.5 25C56.475 25 45 36.475 45 50.5C45 64.525 56.475 76 70.5 76C84.525 76 96 64.525 96 50.5C96 36.475 84.525 25 70.5 25ZM80.7 65.8H60.3C58.8975 65.8 57.75 64.6525 57.75 63.25C57.75 61.8475 58.8975 60.7 60.3 60.7H80.7C82.1025 60.7 83.25 61.8475 83.25 63.25C83.25 64.6525 82.1025 65.8 80.7 65.8ZM64.3545 53.7895L59.535 48.97C58.5405 47.9755 58.5405 46.3945 59.535 45.4C60.5295 44.4055 62.1105 44.4055 63.105 45.4L66.165 48.46L77.895 36.73C78.8895 35.7355 80.4705 35.7355 81.465 36.73C82.4595 37.7245 82.4595 39.3055 81.465 40.3L67.9755 53.7895C66.981 54.784 65.349 54.784 64.3545 53.7895Z" fill="white"/>
</svg>
