<svg width="140" height="100" viewBox="0 0 140 100" fill="none" xmlns="http://www.w3.org/2000/svg">
<path d="M0 8C0 3.58172 3.58172 0 8 0H132C136.418 0 140 3.58172 140 8V100H0V8Z" fill="#59AAB8"/>
<g clip-path="url(#clip0_7891_10147)">
<path d="M69.3759 42.5013C60.7436 42.5013 53.7545 49.5008 53.7545 58.1227C53.7545 66.7447 60.7436 73.7545 69.3759 73.7545C78.0083 73.7545 84.9974 66.755 84.9974 58.1331C84.9974 49.5112 78.0083 42.5013 69.3759 42.5013ZM69.3759 71.6744C61.9084 71.6744 55.8346 65.6006 55.8346 58.1331C55.8346 50.6656 61.9084 44.5918 69.3759 44.5918C76.8434 44.5918 82.9173 50.6656 82.9173 58.1331C82.9173 65.6006 76.8434 71.6744 69.3759 71.6744Z" fill="white"/>
<path fill-rule="evenodd" clip-rule="evenodd" d="M53.6818 43.3541C54.3266 42.6677 55.0234 42.0125 55.7723 41.4404L54.233 39.4644C53.3906 40.13 52.5793 40.858 51.8513 41.6484L53.6818 43.3541Z" fill="white"/>
<path fill-rule="evenodd" clip-rule="evenodd" d="M58.7468 90H77.4987C78.1852 90 78.7468 89.4384 78.7468 88.7519V80.0052C78.7468 79.3188 79.3084 78.7571 79.9948 78.7571C85.5071 78.7571 90 74.2746 90 68.7519H90.4889C92.2881 68.7519 93.7442 67.2855 93.7442 65.4862C93.7442 64.9662 93.6194 64.4566 93.3802 63.9885L89.9896 57.1971V56.2402C89.9896 51.2896 88.4504 46.703 85.5279 42.9693L83.5622 44.5086C86.1311 47.7951 87.4935 51.8513 87.4935 56.2402V57.4883C87.4935 57.6859 87.5351 57.8731 87.6287 58.0499L91.1545 65.1222C91.2169 65.247 91.2481 65.3614 91.2481 65.4862C91.2481 65.9022 90.9049 66.2454 90.4889 66.2454H88.752C88.0656 66.2454 87.5039 66.8071 87.5039 67.4935V68.7415C87.5039 72.8809 84.1446 76.2402 80.0052 76.2402C77.9356 76.2402 76.2507 77.9251 76.2507 79.9948V87.4935H59.9948V78.7571C59.9948 77.5715 59.4228 76.4378 58.466 75.741L56.2611 74.1185C51.2689 69.4696 48.7416 63.8845 48.7416 57.4987V56.2506C48.7416 52.1321 49.9584 48.2631 52.2569 45.0806L50.2288 43.6141C47.6183 47.2231 46.2455 51.6016 46.2455 56.2506V57.4987C46.2455 64.5294 49.1368 70.9256 54.6178 76.001C54.649 76.0322 54.6906 76.0634 54.7322 76.0946L56.9891 77.7587C57.3115 77.9875 57.4987 78.3723 57.4987 78.7675V88.7519C57.4987 89.4384 58.0604 90 58.7468 90Z" fill="white"/>
<path fill-rule="evenodd" clip-rule="evenodd" d="M71.248 45.9646C71.248 45.3822 71.6537 44.8726 72.2257 44.7478C73.3177 44.4982 74.3578 44.0614 75.3146 43.4581C75.8138 43.1461 76.4482 43.2189 76.8643 43.635L77.9563 44.727L79.7244 42.9589L78.6323 41.8669C78.2163 41.4509 78.1435 40.8164 78.4555 40.3172C79.0587 39.3604 79.4956 38.3203 79.7452 37.2283C79.87 36.6563 80.3796 36.2507 80.962 36.2507H82.5013V33.7546H80.962C80.3796 33.7546 79.87 33.3489 79.7452 32.7769C79.4956 31.6849 79.0691 30.6448 78.4555 29.688C78.1435 29.1888 78.2163 28.5544 78.6323 28.1383L79.7244 27.0463L77.9563 25.2782L76.8643 26.3703C76.4482 26.7863 75.8034 26.8591 75.3146 26.5471C74.3578 25.9439 73.3177 25.5174 72.2257 25.2574C71.6537 25.1326 71.248 24.623 71.248 24.0406V22.5013H68.7519V24.0406C68.7519 24.623 68.3463 25.1326 67.7743 25.2574C66.6823 25.507 65.6422 25.9439 64.6854 26.5471C64.1862 26.8591 63.5413 26.7863 63.1357 26.3703L62.0437 25.2782L60.2756 27.0463L61.3676 28.1383C61.7837 28.5544 61.8565 29.1888 61.5444 29.688C60.9412 30.6448 60.5044 31.6849 60.2548 32.7769C60.13 33.3489 59.6204 33.7546 59.038 33.7546H57.4987V36.2507H59.038C59.6204 36.2507 60.13 36.6563 60.2548 37.2283C60.5044 38.3203 60.9308 39.3604 61.5444 40.3172C61.8565 40.8164 61.7837 41.4509 61.3676 41.8669L60.2756 42.9589L62.0437 44.727L63.1357 43.635C63.5517 43.2189 64.1862 43.1461 64.6854 43.4581C65.6422 44.0614 66.6823 44.4878 67.7743 44.7478C68.3463 44.8726 68.7519 45.3822 68.7519 45.9646V47.5039H71.248V45.9646ZM66.2454 48.752V46.9215C65.5486 46.7031 64.8726 46.4223 64.2174 46.0791L62.9173 47.3791C62.4285 47.8679 61.6381 47.8679 61.1492 47.3791L57.6131 43.843C57.3843 43.6142 57.2491 43.2917 57.2491 42.9589C57.2491 42.6261 57.3843 42.3141 57.6131 42.0749L58.9131 40.7748C58.5699 40.13 58.2891 39.4436 58.0707 38.7468H56.2402C55.5538 38.7468 54.9922 38.1851 54.9922 37.4987V32.4961C54.9922 31.8097 55.5538 31.2481 56.2402 31.2481H58.0811C58.2995 30.5512 58.5803 29.8752 58.9235 29.22L57.6235 27.9199C57.3947 27.6807 57.2595 27.3687 57.2595 27.0359C57.2595 26.7031 57.3947 26.3911 57.6235 26.1519L61.1596 22.6157C61.6485 22.1269 62.4389 22.1269 62.9277 22.6157L64.2278 23.9158C64.8726 23.5726 65.559 23.2917 66.2558 23.0733V21.2429C66.2558 20.5564 66.8175 19.9948 67.5039 19.9948H72.5065C73.1929 19.9948 73.7545 20.5564 73.7545 21.2429V23.0733C74.4514 23.2917 75.1274 23.5726 75.7826 23.9158L77.0827 22.6157C77.5715 22.1269 78.3619 22.1269 78.8507 22.6157L82.3869 26.1519C82.6157 26.3807 82.7509 26.7031 82.7509 27.0359C82.7509 27.3687 82.6157 27.6807 82.3869 27.9199L81.0868 29.22C81.43 29.8648 81.7109 30.5512 81.9293 31.2481H83.7597C84.4462 31.2481 85.0078 31.8097 85.0078 32.4961V37.4987C85.0078 38.1851 84.4462 38.7468 83.7597 38.7468H81.9293C81.7109 39.4436 81.43 40.1196 81.0868 40.7748L82.3869 42.0749C82.6157 42.3037 82.7509 42.6261 82.7509 42.9589C82.7509 43.2917 82.6157 43.6038 82.3869 43.843L78.8507 47.3791C78.3619 47.8679 77.5715 47.8679 77.0827 47.3791L75.7826 46.0791C75.1378 46.4223 74.4514 46.7031 73.7545 46.9215V48.752C73.7545 49.4384 73.1929 50 72.5065 50H67.5039C66.8071 50 66.2454 49.4384 66.2454 48.752Z" fill="white"/>
<path fill-rule="evenodd" clip-rule="evenodd" d="M63.7494 35.0026C63.7494 31.5497 66.5471 28.752 70 28.752C73.453 28.752 76.2507 31.5497 76.2507 35.0026C76.2507 38.4555 73.453 41.2533 70 41.2533C66.5471 41.2533 63.7494 38.4555 63.7494 35.0026Z" fill="white"/>
<path fill-rule="evenodd" clip-rule="evenodd" d="M32.4961 22.5013C32.4961 28.0135 36.9787 32.4961 42.5013 32.4961C48.0239 32.4961 52.5065 28.0135 52.5065 22.4909C52.5065 16.9683 48.0135 12.4961 42.5013 12.4961C36.9891 12.4961 32.4961 16.9891 32.4961 22.5013ZM30 22.5013C30 15.6058 35.6058 10 42.5013 10C49.3968 10 55.0026 15.6058 55.0026 22.5013C55.0026 29.3968 49.3968 35.0026 42.5013 35.0026C35.6058 35.0026 30 29.3968 30 22.5013Z" fill="white"/>
<path fill-rule="evenodd" clip-rule="evenodd" d="M87.5039 22.5013C87.5039 28.0135 91.9865 32.4961 97.5091 32.4961C103.032 32.4961 107.514 28.0135 107.514 22.4909C107.514 16.9683 103.011 12.4961 97.4987 12.4961C91.9865 12.4961 87.5039 16.9891 87.5039 22.5013ZM84.9974 22.5013C84.9974 15.6058 90.6137 10 97.4987 10C104.384 10 110 15.6058 110 22.5013C110 29.3968 104.394 35.0026 97.4987 35.0026C90.6033 35.0026 84.9974 29.3968 84.9974 22.5013Z" fill="white"/>
<path d="M43.7494 36.2507H41.2533V38.7468H43.7494V36.2507Z" fill="white"/>
<path fill-rule="evenodd" clip-rule="evenodd" d="M42.5013 57.4987H57.4987C58.0084 57.4987 58.4556 57.1971 58.6532 56.7291C58.8508 56.261 58.7364 55.7202 58.3828 55.3666L53.3802 50.364L51.6121 52.1321L54.4826 55.0026H43.7494V41.2532H41.2533V56.2506C41.2533 56.9371 41.8045 57.4987 42.5013 57.4987Z" fill="white"/>
<path d="M56.6163 55.3633L51.6155 60.3641L53.3805 62.1291L58.3813 57.1283L56.6163 55.3633Z" fill="white"/>
<path fill-rule="evenodd" clip-rule="evenodd" d="M93.3905 43.3853L97.5091 39.2668L101.628 43.3853L103.396 41.6173L98.3931 36.6147C97.9043 36.1258 97.1139 36.1258 96.625 36.6147L91.6224 41.6173L93.3905 43.3853Z" fill="white"/>
<path fill-rule="evenodd" clip-rule="evenodd" d="M80.0052 57.4987H97.4988C98.1852 57.4987 98.7468 56.9371 98.7468 56.2507V37.4987H96.2507V55.0026H80.0052V57.4987Z" fill="white"/>
<path d="M77.4987 55.0026H75.0026V57.4987H77.4987V55.0026Z" fill="white"/>
<path fill-rule="evenodd" clip-rule="evenodd" d="M41.2532 17.4987H47.5039L43.7493 21.2533H47.5039L41.2532 27.5039V22.5013H37.4987L41.2532 17.4987Z" fill="white"/>
<path fill-rule="evenodd" clip-rule="evenodd" d="M93.7545 19.9948L96.2506 22.5013L101.253 17.4987L103.749 19.9948L96.2506 27.5039L91.248 22.5013L93.7545 19.9948Z" fill="white"/>
</g>
<defs>
<clipPath id="clip0_7891_10147">
<rect width="80" height="80" fill="white" transform="translate(30 10)"/>
</clipPath>
</defs>
</svg>
