<svg width="100" height="100" viewBox="0 0 100 100" fill="none" xmlns="http://www.w3.org/2000/svg">
<path d="M49.3758 42.5013C40.7435 42.5013 33.7544 49.5008 33.7544 58.1227C33.7544 66.7447 40.7435 73.7545 49.3758 73.7545C58.0082 73.7545 64.9973 66.755 64.9973 58.1331C64.9973 49.5112 58.0082 42.5013 49.3758 42.5013ZM49.3758 71.6744C41.9083 71.6744 35.8345 65.6006 35.8345 58.1331C35.8345 50.6656 41.9083 44.5918 49.3758 44.5918C56.8433 44.5918 62.9172 50.6656 62.9172 58.1331C62.9172 65.6006 56.8433 71.6744 49.3758 71.6744Z" fill="white"/>
<path fill-rule="evenodd" clip-rule="evenodd" d="M33.6816 43.3541C34.3264 42.6677 35.0232 42.0125 35.7721 41.4404L34.2328 39.4644C33.3904 40.13 32.5791 40.858 31.8511 41.6484L33.6816 43.3541Z" fill="white"/>
<path fill-rule="evenodd" clip-rule="evenodd" d="M38.7469 90H57.4988C58.1853 90 58.7469 89.4384 58.7469 88.7519V80.0052C58.7469 79.3188 59.3085 78.7571 59.9949 78.7571C65.5072 78.7571 70.0001 74.2746 70.0001 68.7519H70.489C72.2882 68.7519 73.7443 67.2855 73.7443 65.4862C73.7443 64.9662 73.6195 64.4566 73.3803 63.9885L69.9897 57.1971V56.2402C69.9897 51.2896 68.4505 46.703 65.528 42.9693L63.5623 44.5086C66.1312 47.7951 67.4936 51.8513 67.4936 56.2402V57.4883C67.4936 57.6859 67.5352 57.8731 67.6288 58.0499L71.1546 65.1222C71.217 65.247 71.2482 65.3614 71.2482 65.4862C71.2482 65.9022 70.905 66.2454 70.489 66.2454H68.7521C68.0657 66.2454 67.504 66.8071 67.504 67.4935V68.7415C67.504 72.8809 64.1447 76.2402 60.0053 76.2402C57.9357 76.2402 56.2508 77.9251 56.2508 79.9948V87.4935H39.9949V78.7571C39.9949 77.5715 39.4229 76.4378 38.4661 75.741L36.2612 74.1185C31.269 69.4696 28.7417 63.8845 28.7417 57.4987V56.2506C28.7417 52.1321 29.9585 48.2631 32.257 45.0806L30.2289 43.6141C27.6184 47.2231 26.2456 51.6016 26.2456 56.2506V57.4987C26.2456 64.5294 29.1369 70.9256 34.6179 76.001C34.6491 76.0322 34.6907 76.0634 34.7323 76.0946L36.9892 77.7587C37.3116 77.9875 37.4988 78.3723 37.4988 78.7675V88.7519C37.4988 89.4384 38.0605 90 38.7469 90Z" fill="white"/>
<path fill-rule="evenodd" clip-rule="evenodd" d="M51.248 45.9646C51.248 45.3822 51.6537 44.8726 52.2257 44.7478C53.3177 44.4982 54.3578 44.0614 55.3146 43.4581C55.8138 43.1461 56.4482 43.2189 56.8643 43.635L57.9563 44.727L59.7244 42.9589L58.6323 41.8669C58.2163 41.4509 58.1435 40.8164 58.4555 40.3172C59.0587 39.3604 59.4956 38.3203 59.7452 37.2283C59.87 36.6563 60.3796 36.2507 60.962 36.2507H62.5013V33.7546H60.962C60.3796 33.7546 59.87 33.3489 59.7452 32.7769C59.4956 31.6849 59.0691 30.6448 58.4555 29.688C58.1435 29.1888 58.2163 28.5544 58.6323 28.1383L59.7244 27.0463L57.9563 25.2782L56.8643 26.3703C56.4482 26.7863 55.8034 26.8591 55.3146 26.5471C54.3578 25.9439 53.3177 25.5174 52.2257 25.2574C51.6537 25.1326 51.248 24.623 51.248 24.0406V22.5013H48.7519V24.0406C48.7519 24.623 48.3463 25.1326 47.7743 25.2574C46.6823 25.507 45.6422 25.9439 44.6854 26.5471C44.1862 26.8591 43.5413 26.7863 43.1357 26.3703L42.0437 25.2782L40.2756 27.0463L41.3676 28.1383C41.7837 28.5544 41.8565 29.1888 41.5444 29.688C40.9412 30.6448 40.5044 31.6849 40.2548 32.7769C40.13 33.3489 39.6204 33.7546 39.038 33.7546H37.4987V36.2507H39.038C39.6204 36.2507 40.13 36.6563 40.2548 37.2283C40.5044 38.3203 40.9308 39.3604 41.5444 40.3172C41.8565 40.8164 41.7837 41.4509 41.3676 41.8669L40.2756 42.9589L42.0437 44.727L43.1357 43.635C43.5517 43.2189 44.1862 43.1461 44.6854 43.4581C45.6422 44.0614 46.6823 44.4878 47.7743 44.7478C48.3463 44.8726 48.7519 45.3822 48.7519 45.9646V47.5039H51.248V45.9646ZM46.2454 48.752V46.9215C45.5486 46.7031 44.8726 46.4223 44.2174 46.0791L42.9173 47.3791C42.4285 47.8679 41.6381 47.8679 41.1492 47.3791L37.6131 43.843C37.3843 43.6142 37.2491 43.2917 37.2491 42.9589C37.2491 42.6261 37.3843 42.3141 37.6131 42.0749L38.9131 40.7748C38.5699 40.13 38.2891 39.4436 38.0707 38.7468H36.2402C35.5538 38.7468 34.9922 38.1851 34.9922 37.4987V32.4961C34.9922 31.8097 35.5538 31.2481 36.2402 31.2481H38.0811C38.2995 30.5512 38.5803 29.8752 38.9235 29.22L37.6235 27.9199C37.3947 27.6807 37.2595 27.3687 37.2595 27.0359C37.2595 26.7031 37.3947 26.3911 37.6235 26.1519L41.1596 22.6157C41.6485 22.1269 42.4389 22.1269 42.9277 22.6157L44.2278 23.9158C44.8726 23.5726 45.559 23.2917 46.2558 23.0733V21.2429C46.2558 20.5564 46.8175 19.9948 47.5039 19.9948H52.5065C53.1929 19.9948 53.7545 20.5564 53.7545 21.2429V23.0733C54.4514 23.2917 55.1274 23.5726 55.7826 23.9158L57.0827 22.6157C57.5715 22.1269 58.3619 22.1269 58.8507 22.6157L62.3869 26.1519C62.6157 26.3807 62.7509 26.7031 62.7509 27.0359C62.7509 27.3687 62.6157 27.6807 62.3869 27.9199L61.0868 29.22C61.43 29.8648 61.7109 30.5512 61.9293 31.2481H63.7597C64.4462 31.2481 65.0078 31.8097 65.0078 32.4961V37.4987C65.0078 38.1851 64.4462 38.7468 63.7597 38.7468H61.9293C61.7109 39.4436 61.43 40.1196 61.0868 40.7748L62.3869 42.0749C62.6157 42.3037 62.7509 42.6261 62.7509 42.9589C62.7509 43.2917 62.6157 43.6038 62.3869 43.843L58.8507 47.3791C58.3619 47.8679 57.5715 47.8679 57.0827 47.3791L55.7826 46.0791C55.1378 46.4223 54.4514 46.7031 53.7545 46.9215V48.752C53.7545 49.4384 53.1929 50 52.5065 50H47.5039C46.8071 50 46.2454 49.4384 46.2454 48.752Z" fill="white"/>
<path fill-rule="evenodd" clip-rule="evenodd" d="M43.7495 35.0026C43.7495 31.5497 46.5472 28.752 50.0001 28.752C53.4531 28.752 56.2508 31.5497 56.2508 35.0026C56.2508 38.4555 53.4531 41.2533 50.0001 41.2533C46.5472 41.2533 43.7495 38.4555 43.7495 35.0026Z" fill="white"/>
<path fill-rule="evenodd" clip-rule="evenodd" d="M12.4961 22.5013C12.4961 28.0135 16.9787 32.4961 22.5013 32.4961C28.0239 32.4961 32.5065 28.0135 32.5065 22.4909C32.5065 16.9683 28.0135 12.4961 22.5013 12.4961C16.9891 12.4961 12.4961 16.9891 12.4961 22.5013ZM10 22.5013C10 15.6058 15.6058 10 22.5013 10C29.3968 10 35.0026 15.6058 35.0026 22.5013C35.0026 29.3968 29.3968 35.0026 22.5013 35.0026C15.6058 35.0026 10 29.3968 10 22.5013Z" fill="white"/>
<path fill-rule="evenodd" clip-rule="evenodd" d="M67.5041 22.5013C67.5041 28.0135 71.9867 32.4961 77.5093 32.4961C83.0322 32.4961 87.5142 28.0135 87.5142 22.4909C87.5142 16.9683 83.0112 12.4961 77.4989 12.4961C71.9867 12.4961 67.5041 16.9891 67.5041 22.5013ZM64.9976 22.5013C64.9976 15.6058 70.6139 10 77.4989 10C84.3842 10 90.0002 15.6058 90.0002 22.5013C90.0002 29.3968 84.3942 35.0026 77.4989 35.0026C70.6035 35.0026 64.9976 29.3968 64.9976 22.5013Z" fill="white"/>
<path d="M23.7495 36.2507H21.2534V38.7468H23.7495V36.2507Z" fill="white"/>
<path fill-rule="evenodd" clip-rule="evenodd" d="M22.5014 57.4987H37.4988C38.0085 57.4987 38.4557 57.1971 38.6533 56.7291C38.8509 56.261 38.7365 55.7202 38.3829 55.3666L33.3803 50.364L31.6122 52.1321L34.4827 55.0026H23.7495V41.2532H21.2534V56.2506C21.2534 56.9371 21.8046 57.4987 22.5014 57.4987Z" fill="white"/>
<path d="M36.6165 55.3633L31.6157 60.3641L33.3807 62.1291L38.3815 57.1283L36.6165 55.3633Z" fill="white"/>
<path fill-rule="evenodd" clip-rule="evenodd" d="M73.3907 43.3853L77.5093 39.2668L81.6282 43.3853L83.3962 41.6173L78.3933 36.6147C77.9045 36.1258 77.1141 36.1258 76.6252 36.6147L71.6226 41.6173L73.3907 43.3853Z" fill="white"/>
<path fill-rule="evenodd" clip-rule="evenodd" d="M60.0054 57.4987H77.499C78.1854 57.4987 78.747 56.9371 78.747 56.2507V37.4987H76.2509V55.0026H60.0054V57.4987Z" fill="white"/>
<path d="M57.4985 55.0026H55.0024V57.4987H57.4985V55.0026Z" fill="white"/>
<path fill-rule="evenodd" clip-rule="evenodd" d="M21.253 17.4987H27.5037L23.7491 21.2533H27.5037L21.253 27.5039V22.5013H17.4985L21.253 17.4987Z" fill="white"/>
<path fill-rule="evenodd" clip-rule="evenodd" d="M73.7545 19.9948L76.2506 22.5013L81.253 17.4987L83.749 19.9948L76.2506 27.5039L71.248 22.5013L73.7545 19.9948Z" fill="white"/>
</svg>
