<?xml version="1.0" encoding="UTF-8"?>
<!DOCTYPE svg PUBLIC "-//W3C//DTD SVG 1.1//EN" "http://www.w3.org/Graphics/SVG/1.1/DTD/svg11.dtd">
<!-- Creator: CorelDRAW 2018 (64 Bit Versão de avaliação) -->
<svg xmlns="http://www.w3.org/2000/svg" xml:space="preserve" width="140px" height="100px" version="1.1" style="shape-rendering:geometricPrecision; text-rendering:geometricPrecision; image-rendering:optimizeQuality; fill-rule:evenodd; clip-rule:evenodd"
viewBox="0 0 140 100"
 xmlns:xlink="http://www.w3.org/1999/xlink">
 <defs>
  <style type="text/css">
   <![CDATA[
    .fil1 {fill:#FEFEFE}
    .fil0 {fill:#2DAFE6}
   ]]>
  </style>
 </defs>
 <g id="Camada_x0020_1">
  <metadata id="CorelCorpID_0Corel-Layer"/>
  <path d="M0 8C0 3.58172 3.58172 0 8 0H132C136.418 0 140 3.58172 140 8V100H0V8Z" fill="#2DAFE6"/>
  <path class="fil1" d="M68.06 57.88c2.29,-1.07 13.23,-6 14.97,-6.4l-0.03 2.44c-2.06,0.53 -25.37,10.93 -26.35,11.72 -3.91,3.19 -2.29,11.07 2.93,11.77 5.22,0.7 13.04,0.1 18.69,0.3l0.16 2.26c-3.89,-0.01 -18.36,0.39 -20.87,-0.79 -4.88,-2.28 -7.57,-8.33 -3.61,-13.85 1.8,-2.51 10.13,-5.6 14.11,-7.45zm3.02 3.62c3.41,-1.46 6.85,-2.9 10.16,-4.52 2.69,-1.32 3.31,-0.76 3.28,-4.02l0.07 -21.59 -0.01 -0.95 4.85 0.07 0 35.71c-5.82,0.36 -21.27,0.07 -28.45,-0.04 1.28,-1.13 7.94,-3.74 10.1,-4.66zm-13.74 6.94l32.02 0.22 -0.04 2.12 -32.52 -0.03 0.54 -2.31zm29.39 7.02l0.13 -2.36 2.54 0.04 -0.07 2.17 -2.6 0.15zm-28.93 -2.29l20.59 -0.06 -0.08 2.21c-3.56,0.22 -7.66,0.04 -11.29,0.04 -2.89,0 -8.25,0.84 -9.22,-2.19zm3.53 8.89c5.54,0.03 11.33,-0.05 16.85,0.16l0.34 5.66c1.2,-0.95 2.84,-3.09 4.08,-4.38 1.31,0.96 2.83,3.72 4.07,4.41l0.12 -5.79 4.76 0c0.01,-3.26 0.37,-51.89 -0.13,-53.87l-6.83 0 -0.04 -16.15c-1.32,-0.35 -21.03,8.56 -23.78,9.72 -2.15,0.91 -10.46,4.31 -11.59,5.5 -1.38,1.45 -0.69,29.47 -0.67,33.41 0.02,5.11 -0.49,11.16 1.77,15.25 2.56,4.63 6.15,6.05 11.05,6.08zm6.54 -49.42l-14.07 5.88 0.1 -2.05c0.85,-0.67 12.84,-5.79 13.99,-5.96l-0.02 2.13zm0.02 -6.96l-0.03 2.12 -14.04 5.91 0.03 -2.15 14.04 -5.88zm18.86 54.27l-0.02 -0.35 0.13 -2c2.69,0.11 2.48,-0.39 2.57,2.32l-2.68 0.03zm-25.92 -40.08c-2.54,0.86 -4.31,3.32 -4.19,5.76 0.12,2.36 2.11,3.41 3.72,4.67 1.53,1.2 3.05,2.47 4.61,3.63 1.21,0.9 2.17,-0.32 3.03,-1.29 1.46,-1.66 6.35,-7.03 6.98,-8.12 1.37,-2.4 0.82,-5 -1.21,-6.15 -2.08,-1.17 -4.94,-0.2 -6.75,1.88 -0.41,0.46 -0.67,1.1 -1.22,0.64 -0.4,-0.32 -0.74,-0.65 -1.22,-0.9 -1.06,-0.53 -2.46,-0.57 -3.75,-0.12zm-2.35 6.43c-0.85,-1.85 0.44,-4.25 2.67,-4.98 2.88,-0.96 3.94,1.82 4.98,1.71 1.09,-0.12 2.11,-3.3 5,-3.56 2.24,-0.2 3.57,1.75 2.77,3.91 -0.43,1.16 -2.77,3.58 -3.72,4.67 -0.4,0.45 -3.93,4.43 -4.04,4.47 -0.34,0.12 -3.47,-2.55 -3.93,-2.92 -0.91,-0.72 -3.29,-2.37 -3.73,-3.3z"/>
 </g>
</svg>
