<svg width="140" height="100" viewBox="0 0 140 100" fill="none" xmlns="http://www.w3.org/2000/svg">
<path d="M0 8C0 3.58172 3.58172 0 8 0H132C136.418 0 140 3.58172 140 8V100H0V8Z" fill="#2DAFE6"/>
<g clip-path="url(#clip0)">
<path d="M86.6702 20H60.1856C59.7 20 59.3066 20.3934 59.3066 20.8789C59.3066 21.3644 59.7 21.7578 60.1856 21.7578H86.6702C87.6816 21.7578 88.5044 22.5806 88.5044 23.5921V65.1972H54.082C53.1138 65.1972 52.2187 65.5159 51.4956 66.0535V23.5921C51.4956 22.5806 52.3184 21.7578 53.3299 21.7578H56.6715C57.157 21.7578 57.5504 21.3644 57.5504 20.8789C57.5504 20.3934 57.157 20 56.6715 20H53.3299C51.3493 20 49.7378 21.6115 49.7378 23.5921V73.3128C49.7378 75.7082 51.6866 77.6569 54.082 77.6569H68.4939V78.4812C68.4939 78.9608 68.7241 79.4173 69.1095 79.7024C69.3734 79.8977 69.6928 79.9997 70.015 79.9997C70.1636 79.9997 70.3127 79.9781 70.4572 79.9339L72.6871 79.252L74.917 79.9339C75.3755 80.0743 75.8791 79.9877 76.2647 79.7024C76.6502 79.4173 76.8803 78.9608 76.8803 78.4812V77.657H79.5336C80.0191 77.657 80.4125 77.2636 80.4125 76.7781C80.4125 76.2926 80.0191 75.8992 79.5336 75.8992H76.8803V73.9994H84.0753C84.5608 73.9994 84.9542 73.606 84.9542 73.1205C84.9542 72.635 84.5608 72.2416 84.0753 72.2416H55.9248C55.4393 72.2416 55.0459 72.635 55.0459 73.1205C55.0459 73.606 55.4393 73.9994 55.9248 73.9994H68.494V75.8992H54.0821C52.6559 75.8992 51.4957 74.739 51.4957 73.3129V69.5416C51.4957 68.1154 52.6559 66.9552 54.0821 66.9552H88.5045V74.0651C88.5045 75.0764 87.6818 75.8992 86.6703 75.8992H83.048C82.5625 75.8992 82.1691 76.2926 82.1691 76.7781C82.1691 77.2636 82.5625 77.657 83.048 77.657H86.6703C88.6509 77.657 90.2624 76.0457 90.2624 74.0651V23.5921C90.2624 21.6115 88.6509 20 86.6702 20V20ZM75.1226 73.9994V78.1586L73.1314 77.5497C72.9862 77.5053 72.8367 77.483 72.6873 77.483C72.5379 77.483 72.3882 77.5053 72.2429 77.5497L70.2519 78.1586V73.9994H75.1226Z" fill="white"/>
<path d="M55.9248 68.8551C55.4393 68.8551 55.0459 69.2485 55.0459 69.734C55.0459 70.2195 55.4393 70.6129 55.9248 70.6129H84.0755C84.561 70.6129 84.9544 70.2195 84.9544 69.734C84.9544 69.2485 84.561 68.8551 84.0755 68.8551H55.9248Z" fill="white"/>
<path d="M79.9308 25.5888H83.3694C83.8549 25.5888 84.2483 25.1954 84.2483 24.7099C84.2483 24.2244 83.8549 23.831 83.3694 23.831H79.9308C79.4453 23.831 79.0519 24.2244 79.0519 24.7099C79.0519 25.1954 79.4453 25.5888 79.9308 25.5888Z" fill="white"/>
<path d="M61.5683 57.308H67.6158C68.1013 57.308 68.4947 56.9146 68.4947 56.429C68.4947 55.9435 68.1013 55.5501 67.6158 55.5501H61.5683C60.5419 55.5501 59.7068 56.3203 59.7068 57.2669V60.2794C59.7068 61.2262 60.5419 61.9963 61.5683 61.9963H78.4317C79.4582 61.9963 80.2933 61.2262 80.2933 60.2794V57.2669C80.2933 56.3203 79.4582 55.5501 78.4317 55.5501H71.1298C70.6443 55.5501 70.2509 55.9435 70.2509 56.429C70.2509 56.9146 70.6443 57.308 71.1298 57.308H78.4317C78.4796 57.308 78.5144 57.3196 78.5355 57.33V60.2165C78.5144 60.227 78.4797 60.2385 78.4317 60.2385H61.5683C61.5205 60.2385 61.4857 60.2269 61.4646 60.2165V57.33C61.4857 57.3196 61.5205 57.308 61.5683 57.308Z" fill="white"/>
<path d="M59.658 42.7155L60.7053 43.296L62.3469 46.1393L62.3259 47.3365C62.315 47.9639 62.6457 48.5484 63.1893 48.8623L65.5792 50.2421C66.1224 50.5558 66.7942 50.55 67.3323 50.2268L68.3587 49.6101H71.6416L72.6682 50.2269C72.9416 50.391 73.2496 50.4734 73.5576 50.4734C73.8557 50.4734 74.1539 50.3964 74.4211 50.2421L76.8112 48.8623C77.3546 48.5486 77.6853 47.9639 77.6744 47.3366L77.6536 46.139L79.295 43.296L80.3423 42.7155C80.8913 42.4112 81.2322 41.8324 81.2322 41.2049V38.4452C81.2322 37.8178 80.8913 37.2389 80.3423 36.9346L79.295 36.3541L77.6536 33.5111L77.6744 32.3136C77.6853 31.6862 77.3546 31.1015 76.8112 30.7878L74.4211 29.408C73.8777 29.0943 73.2061 29.1001 72.6681 29.4233L71.6418 30.04H68.3586L67.332 29.4232C66.7942 29.0998 66.1223 29.0942 65.5792 29.408L63.1893 30.7878C62.6457 31.1017 62.315 31.6862 62.3259 32.3136L62.3469 33.5108L60.7053 36.3541L59.6581 36.9346C59.1092 37.2389 58.7683 37.8177 58.7683 38.4452V41.2049C58.7684 41.8324 59.1093 42.4112 59.658 42.7155ZM60.5263 38.4634L61.5651 37.8875C61.8392 37.7355 62.0668 37.5118 62.2234 37.2405L63.8732 34.383C64.0301 34.1115 64.1101 33.8022 64.1046 33.4889L64.0839 32.3012L66.4426 30.9395L67.4609 31.5516C67.7295 31.7128 68.0369 31.798 68.35 31.798H71.6501C71.9632 31.798 72.2706 31.7128 72.5397 31.5514L73.5578 30.9396L75.9163 32.3013L75.8957 33.4887C75.8901 33.8021 75.97 34.1112 76.1268 34.3826L77.7771 37.2411C77.9339 37.5123 78.1615 37.7359 78.4351 37.8876H78.4352L79.4741 38.4635V41.187L78.4351 41.7628C78.1615 41.9146 77.9339 42.1381 77.7768 42.4098L76.1268 45.2678C75.97 45.5392 75.8901 45.8485 75.8957 46.1614L75.9163 47.3491L73.5578 48.7109L72.5397 48.0991C72.2711 47.9378 71.9634 47.8524 71.6501 47.8524H68.35C68.0367 47.8524 67.7291 47.9379 67.4606 48.0991L66.4424 48.7109L64.0838 47.3491L64.1045 46.1619C64.1101 45.8482 64.03 45.5389 63.8733 45.2678L62.2233 42.4098C62.0667 42.1387 61.8391 41.9148 61.565 41.7628L60.5261 41.187V38.4634H60.5263Z" fill="white"/>
<path d="M70 44.7077C72.6923 44.7077 74.8826 42.5174 74.8826 39.8251C74.8826 37.1328 72.6923 34.9425 70 34.9425C67.3077 34.9425 65.1174 37.1328 65.1174 39.8251C65.1174 42.5174 67.3078 44.7077 70 44.7077ZM70 36.7004C71.7229 36.7004 73.1247 38.1022 73.1247 39.8251C73.1247 41.548 71.7229 42.9498 70 42.9498C68.2771 42.9498 66.8753 41.548 66.8753 39.8251C66.8753 38.1022 68.2771 36.7004 70 36.7004Z" fill="white"/>
</g>
<defs>
<clipPath id="clip0">
<rect width="60" height="60" fill="white" transform="translate(40 20)"/>
</clipPath>
</defs>
</svg>
