<?xml version="1.0" encoding="UTF-8"?>
<!DOCTYPE svg PUBLIC "-//W3C//DTD SVG 1.1//EN" "http://www.w3.org/Graphics/SVG/1.1/DTD/svg11.dtd">
<!-- Creator: CorelDRAW 2018 (64 Bit Versão de avaliação) -->
<svg xmlns="http://www.w3.org/2000/svg" xml:space="preserve" width="140px" height="100px" version="1.1" style="shape-rendering:geometricPrecision; text-rendering:geometricPrecision; image-rendering:optimizeQuality; fill-rule:evenodd; clip-rule:evenodd"
viewBox="0 0 140 100"
 xmlns:xlink="http://www.w3.org/1999/xlink">
 <defs>
  <style type="text/css">
   <![CDATA[
    .fil1 {fill:#FEFEFE}
    .fil0 {fill:#2DAFE6}
   ]]>
  </style>
 </defs>
 <g id="Camada_x0020_1">
  <metadata id="CorelCorpID_0Corel-Layer"/>
  <path d="M0 8C0 3.58172 3.58172 0 8 0H132C136.418 0 140 3.58172 140 8V100H0V8Z" fill="#2DAFE6"/>
  <g id="_2078690801504">
   <g>
    <path class="fil1" d="M37.56 23.63c0.51,0.16 -0.86,-0.14 0,0zm16.48 2.95c1.51,0.01 2.4,0.05 2.63,-1.42 -0.17,-1.96 -1.96,-1.51 -3.81,-1.51l-14.53 0c-0.18,0 -0.58,0.01 -0.74,-0.01 -0.01,-0.01 -0.02,-0.01 -0.03,-0.01 -0.06,-0.02 -0.13,-0.04 -0.22,-0.06l-0.23 -0.12c-0.19,-0.24 -0.44,-4.63 0.49,-6.18 0.99,-1.64 2.38,-1.91 4.99,-1.91l27.3 0c4.43,0 9.26,-0.19 13.64,0.01 -2.34,4.59 -0.57,5.5 -1.33,8.19 -1.19,0.25 -10.17,0.09 -12.61,0.09 -1.49,-0.01 -2.4,-0.04 -2.62,1.43 0.17,1.74 1.58,1.5 3.21,1.5 3.03,0 12.1,0.4 13.58,-0.57 2.65,-1.75 0.81,-4.93 1.64,-7.77 0.63,-2.15 3.33,-3.8 5.84,-2.36 0.88,0.51 1.72,1.52 1.94,2.75 0.21,1.2 0.07,24.3 0.07,27.99 0,0.64 0.18,3.89 -0.16,4.37 -0.66,0.06 -0.33,0.27 -0.73,-0.56 -0.17,-0.35 -0.28,-0.53 -0.5,-0.82 -1.63,-2.1 -3.62,-1.71 -5.47,-1.43 -0.09,-2.07 -0.01,-4.31 -0.01,-6.4 0,-2.23 0.07,-3.74 -1.19,-5.17 -2.37,-2.68 -6.79,-1.77 -7.97,1.49 -0.73,2 -0.28,21.16 -0.3,24.98 -0.54,-0.36 -2.84,-3.03 -3.34,-3.56 -4.69,-4.98 -11.76,1.59 -8.19,7.16 0.47,0.74 1.01,1.34 1.52,2.01l8.99 11.55c0.44,0.54 1.21,1.32 1.5,1.87 -2.06,0 -34.42,0.18 -35.55,-0.1 -0.27,-1.4 -0.08,-5.19 -0.08,-6.91 0,-4.93 -0.15,-47 0.04,-48.48 1.66,-0.2 9.53,-0.05 12.23,-0.04zm-19.97 -7.55c0,3.06 -0.48,5.25 1.06,6.72 1.05,1 2.28,0.91 3.64,0.91l0 54.9c0,0.52 0.08,0.96 0.25,1.37 0.5,1.27 1.73,2.14 3.12,2.16 6.63,0.11 14.28,-0.01 21,-0.01l17.33 -0.01c1.69,0.03 2.59,2.51 9.53,2.51 4.56,0 8.72,-2.9 11.41,-6.06 2.74,-3.22 4.59,-8.61 4.59,-12.88l0 -10.71c0,-0.61 -0.18,-1.37 -0.39,-1.81 -0.94,-1.98 -3.16,-3.1 -5.35,-2.62 -0.58,0.13 -0.52,0.2 -1.01,0.32 -0.67,-1.27 -1.3,-2.52 -3.08,-2.94 0,-7.49 0,-14.97 0,-22.46 0,-2.59 0.33,-9.17 -0.24,-11.06 -0.82,-2.72 -3.4,-4.94 -6.37,-4.94l-48.88 0c-3.45,0 -6.61,3.16 -6.61,6.61zm45.72 46.47c0.2,-1.22 0.05,-18.69 0.05,-21.52 0,-2.93 -0.53,-5.4 1.36,-5.92 1.04,-0.29 1.97,0.38 2.17,1.25 0.19,0.86 0.07,15.99 0.07,18.03 0,1.68 -0.62,5.79 1.91,5.04 1.49,-0.45 1.03,-3.9 1.03,-6.21 0,-1.93 -0.66,-5.39 1.86,-5.33 2.36,0.05 1.74,3.53 1.74,5.47 0,1.23 0.01,2.45 0,3.67 0,1.15 -0.04,2.17 1.13,2.42 2.51,0.53 1.81,-3.52 1.81,-5.35 -0.01,-1.19 -0.18,-2.42 0.64,-3.05 0.82,-0.64 2.11,-0.43 2.59,0.27 0.73,1.05 0.19,5.24 0.39,6.84 0.12,0.94 1.06,1.69 2.08,1.19 1.77,-0.86 -0.07,-4.44 1.59,-5.61 0.93,-0.66 2.15,-0.18 2.56,0.51 0.52,0.85 0.29,5.52 0.29,6.89 0,5.02 0.04,8.22 -1.96,12.42 -4.64,9.73 -15.98,10.68 -22.39,2.55l-7.92 -10.14c-1.76,-2.39 -4.42,-4.58 -2.93,-7 0.37,-0.62 1.18,-1.49 2.42,-1.15 0.62,0.16 2.32,1.99 2.85,2.57l2.56 2.73c1.96,2.03 3.77,1.45 4.1,-0.57z"/>
    <path class="fil1" d="M69.6 48.67c-3.21,0 -20.47,-0.14 -21.15,0.1 -0.96,0.34 -1.29,1.41 -0.72,2.24 0.54,0.78 1.79,0.6 2.93,0.6 3.34,-0.01 20.31,0.17 21.18,-0.11 0.83,-0.26 1.31,-1.36 0.69,-2.23 -0.61,-0.86 -1.94,-0.6 -2.93,-0.6z"/>
    <path class="fil1" d="M61.73 57.28c-0.72,-0.41 -12.79,-0.23 -13.11,-0.14 -1.25,0.34 -1.63,1.86 -0.53,2.62 0.76,0.52 3.21,0.26 4.33,0.26 1.85,0 7.52,0.25 8.94,-0.05 1.29,-0.28 1.51,-2.05 0.37,-2.69z"/>
    <path class="fil1" d="M60.42 65.78c-0.84,-0.61 -11.72,-0.29 -12.09,-0.1 -1.14,0.6 -1.15,1.95 -0.18,2.54 0.81,0.49 11.74,0.2 12.01,0.09 0.95,-0.41 1.18,-1.86 0.26,-2.53z"/>
    <path class="fil1" d="M64.6 73.93c-1.39,-0.15 -15.7,-0.05 -16.07,0.05 -1.51,0.4 -1.44,2.63 0.24,2.85l16.09 -0.02c1.54,-0.32 1.62,-2.67 -0.26,-2.88z"/>
    <rect class="fil1" x="53.1" y="23.64" width="21.83" height="3.01"/>
    <path class="fil1" d="M69.6 41.62c-3.21,0 -20.47,-0.14 -21.15,0.11 -0.96,0.34 -1.29,1.4 -0.72,2.24 0.54,0.77 1.79,0.59 2.93,0.59 3.34,0 20.31,0.17 21.18,-0.1 0.83,-0.27 1.31,-1.37 0.69,-2.24 -0.61,-0.86 -1.94,-0.6 -2.93,-0.6z"/>
    <path class="fil1" d="M69.6 34.38c-3.21,0 -20.47,-0.14 -21.15,0.1 -0.96,0.35 -1.29,1.41 -0.72,2.25 0.54,0.77 1.79,0.59 2.93,0.58 3.34,0 20.31,0.18 21.18,-0.1 0.83,-0.26 1.31,-1.36 0.69,-2.23 -0.61,-0.86 -1.94,-0.6 -2.93,-0.6z"/>
   </g>
   <path class="fil1" d="M69.12 63.7c-0.55,-0.86 0.33,-1.81 1.13,-1.33 0.19,0.11 0.24,0.3 0.45,0.3 0.56,0.01 0.18,-0.92 -0.85,-0.96 -0.85,-0.04 -1.52,0.72 -1.43,1.55 0.1,0.96 0.78,1.4 0.92,0.93 0.07,-0.21 -0.11,-0.32 -0.22,-0.49z"/>
   <path class="fil1" d="M80.79 40.17c0.21,-1.01 1.51,-1.05 1.73,-0.15 0.05,0.22 -0.04,0.38 0.11,0.54 0.39,0.4 0.78,-0.53 0.08,-1.28 -0.58,-0.63 -1.58,-0.57 -2.11,0.08 -0.61,0.76 -0.44,1.54 -0.01,1.31 0.2,-0.1 0.15,-0.3 0.2,-0.5z"/>
  </g>
 </g>
</svg>
