<?xml version="1.0" encoding="UTF-8"?>
<!DOCTYPE svg PUBLIC "-//W3C//DTD SVG 1.1//EN" "http://www.w3.org/Graphics/SVG/1.1/DTD/svg11.dtd">
<!-- Creator: CorelDRAW 2018 (64 Bit Versão de avaliação) -->
<svg xmlns="http://www.w3.org/2000/svg" xml:space="preserve" width="140px" height="100px" version="1.1" style="shape-rendering:geometricPrecision; text-rendering:geometricPrecision; image-rendering:optimizeQuality; fill-rule:evenodd; clip-rule:evenodd"
viewBox="0 0 140 100"
 xmlns:xlink="http://www.w3.org/1999/xlink">
 <defs>
  <style type="text/css">
   <![CDATA[
    .fil1 {fill:#FEFEFE}
    .fil0 {fill:#2DAFE6}
   ]]>
  </style>
 </defs>
 <g id="Camada_x0020_1">
  <metadata id="CorelCorpID_0Corel-Layer"/>
  <path d="M0 8C0 3.58172 3.58172 0 8 0H132C136.418 0 140 3.58172 140 8V100H0V8Z" fill="#2DAFE6"/>
  <g id="_2078691019584">
   <path class="fil1" d="M85.22 82.66c-0.85,-0.65 -5.87,-5.8 -7.06,-6.99 -1.86,-1.85 -1.71,-2.47 -4.47,-2.47 -2.36,0 -4.72,0 -7.09,0 -8.82,0 -15.67,0.73 -22.93,-5.3 -4.16,-3.45 -6.72,-7.8 -7.96,-13.02 -0.54,-2.32 -0.33,-2.89 -0.56,-4.76 -0.17,-1.29 0.71,-5.95 1.2,-7.47 0.36,-1.15 2.06,-4.24 1.83,-5.14 -0.25,-0.97 -1.39,-1.43 -2.22,-0.86 -0.55,0.37 -1.1,1.56 -1.38,2.17 -1.41,3.09 -2.2,6.24 -2.41,9.36l0 3.31c0.34,5.1 2.23,10.06 5.51,14.58 4,5.5 11.31,9.35 18.16,10.06l17.41 0.17c1.65,-0.02 1.31,0.06 2.4,1.15 1.79,1.78 9.72,10.13 10.75,10.38l0.58 0c1.8,-0.33 1.2,-3.83 1.2,-5.32 0,-2.37 0,-4.73 0,-7.09 3.64,-1.28 5.49,-1.89 8.71,-4.14 6.67,-4.67 10.53,-12.12 10.94,-19.9l0 -2.76c-0.39,-7.29 -3.84,-14.62 -10.87,-19.96 -3.8,-2.88 -9.64,-4.96 -14.4,-4.96 -1.22,0 -5.15,-0.51 -4.29,1.91 0.4,1.1 1.09,1.05 2.07,1.04 1.11,-0.01 2.11,0.15 3.1,0.15 1.4,0.01 4.12,0.57 5.43,1.08 4.7,1.81 8.12,3.95 11.19,8.02 0.88,1.16 1.92,2.67 2.49,4.01 0.75,1.77 1.18,2.96 1.67,4.83 1.39,5.26 0.32,11.17 -2.05,16 -2.66,5.38 -8.48,10.05 -14.29,11.57 -3.03,0.8 -2.66,0.73 -2.66,3.84 0,2.17 0,4.34 0,6.51z"/>
   <path class="fil1" d="M49.31 12.32c-4.08,0 -7.22,3.16 -8.44,6.78 -0.77,2.3 -0.72,4.4 -0.72,6.96 0,1.52 -0.3,6.34 0.29,7.39 0.99,1.76 4.58,1.18 6.36,1.18 2.19,0 5.16,0.62 5.94,-1.74 0.29,-0.87 0.14,-6.24 0.13,-7.57 -0.04,-3.36 -3.57,-2.54 -5.02,-2.69 1.04,-4.84 3.93,-1.71 4.13,-4.54 0.08,-1.16 0.04,-3.1 0,-4.3 -0.04,-1.15 -0.63,-1.53 -1.24,-1.62l-0.65 0c-0.4,0.05 -0.71,0.15 -0.78,0.15zm-0.39 3.15l0 1.61c-2.39,0.63 -3.73,2.59 -4.16,5.68l0 1.99c0.09,0.59 0.44,1.03 1.21,1.2l3.87 0 0 5.86 -6.74 0 0 -7.89c0.13,-5.46 2.49,-7.68 5.82,-8.45z"/>
   <path class="fil1" d="M62.92 22.63c0.29,-0.64 0.32,-2.41 1.96,-2.87 2.08,-0.58 2.17,-0.24 2.16,-2.71 0,-1.04 0.33,-3.83 -0.4,-4.47 -0.87,-0.75 -3.11,-0.29 -4.16,0.05 -5.87,1.91 -7.26,6.64 -7.26,12.4 0,1.62 0,3.25 0,4.87 0,1.34 -0.33,3.14 0.77,4.11 1.09,0.95 2.88,0.62 4.26,0.62 1.67,0 3.36,0.03 5.03,0.01 3.52,-0.04 2.65,-3.73 2.65,-7.1 0,-1.36 0.34,-3.14 -0.69,-4.18 -1.01,-1.01 -2.97,-0.59 -4.32,-0.73zm0.96 -7.16l0 1.61c-2.39,0.63 -3.73,2.59 -4.16,5.68l0 1.99c0.09,0.59 0.44,1.03 1.21,1.2l3.87 0 0 5.86 -6.74 0 0 -7.89c0.13,-5.46 2.49,-7.68 5.82,-8.45z"/>
   <path class="fil1" d="M51.53 38.47c-0.22,0.07 -1.15,0.11 -1.19,1.34 -0.03,0.73 0.47,1.35 1.12,1.54 0.77,0.23 23.9,0.08 26.52,0.08 1.65,0 9.62,0.2 10.56,-0.08 1.51,-0.45 1.5,-2.5 0,-2.94 -0.88,-0.26 -30.35,-0.03 -35.83,-0.08 -1.07,-0.01 -0.55,-0.05 -1.18,0.14z"/>
   <path class="fil1" d="M51.38 54.29c-1.91,0.79 -1,2.72 0.29,2.81 2.35,0.16 13.07,-0.01 15.97,-0.01 2.3,0 20.48,0.13 21.08,-0.05 1.35,-0.39 1.32,-2.68 -0.4,-2.9 -1.3,-0.16 -29.88,0.05 -35.76,0 -1.04,-0.01 -0.62,-0.09 -1.18,0.15z"/>
   <path class="fil1" d="M51.23 46.45c-1.56,0.68 -1.03,2.7 0.59,2.82 2.18,0.15 13.21,-0.01 15.96,-0.01 2.53,0 20.12,0.24 21,-0.14 1.45,-0.62 1.11,-2.77 -0.6,-2.82 -4.52,-0.14 -11.26,0.01 -15.96,0.01l-19.8 0c-1.05,-0.01 -0.65,-0.09 -1.19,0.14z"/>
   <path class="fil1" d="M51.38 62.13c-1.91,0.8 -1,2.73 0.29,2.82 2.35,0.16 13.07,-0.01 15.97,-0.01 2.3,0 20.48,0.13 21.08,-0.05 1.35,-0.4 1.32,-2.68 -0.4,-2.9 -1.3,-0.16 -29.88,0.05 -35.76,0 -1.04,-0.01 -0.62,-0.09 -1.18,0.14z"/>
  </g>
 </g>
</svg>
