<?xml version="1.0" encoding="UTF-8"?>
<!DOCTYPE svg PUBLIC "-//W3C//DTD SVG 1.1//EN" "http://www.w3.org/Graphics/SVG/1.1/DTD/svg11.dtd">
<!-- Creator: CorelDRAW 2018 (64 Bit Versão de avaliação) -->
<svg xmlns="http://www.w3.org/2000/svg" xml:space="preserve" width="140px" height="100px" version="1.1" style="shape-rendering:geometricPrecision; text-rendering:geometricPrecision; image-rendering:optimizeQuality; fill-rule:evenodd; clip-rule:evenodd"
viewBox="0 0 140 100"
 xmlns:xlink="http://www.w3.org/1999/xlink">
 <defs>
  <style type="text/css">
   <![CDATA[
    .fil1 {fill:#FEFEFE}
    .fil0 {fill:#2DAFE6}
   ]]>
  </style>
 </defs>
 <g id="Camada_x0020_1">
  <metadata id="CorelCorpID_0Corel-Layer"/>
    <path d="M0 8C0 3.58172 3.58172 0 8 0H132C136.418 0 140 3.58172 140 8V100H0V8Z" fill="#2DAFE6"/>

  <g id="_2078691021824">
   <path class="fil1" d="M43.87 18.4c-0.28,-3.94 -3.67,-6.79 -7.62,-6.04 -4.66,0.88 -5.32,4.49 -5.29,8.52l0 27.75c-0.03,11.16 6.39,13.33 14.64,20.02 1.31,1.07 3.14,1.81 3.3,3.69 0.25,2.88 -0.38,11.97 0.05,13.9 0.45,2.08 3.86,1.42 5.56,1.42 2.31,0.01 4.63,-0.01 6.95,0 6.15,0.03 5.26,0.62 5.24,-8.64 -0.01,-4.65 -0.02,-9.3 0.01,-13.95 0.05,-9.65 -3.22,-12.3 -10.79,-17.05 -7.12,-4.46 -12.09,-6.1 -12.02,-15.67 0.03,-4.3 0.27,-9.76 -0.03,-13.95zm-9.31 4.65c0,-1.69 -0.41,-4.99 0.74,-6.24 1.31,-1.43 3.65,-1.28 4.6,0.41 0.79,1.41 0.4,11.03 0.4,13.3 0,5.79 -0.11,6.41 2.27,11.63 -3.59,1.81 -5.1,5.81 -2.24,9.01 1.23,1.37 6.54,4.46 8.41,5.72 0.99,0.66 3.44,2.58 4.54,2.48 1.04,-0.1 1.64,-0.9 1.57,-1.92 -0.07,-1.1 -0.8,-1.38 -1.62,-1.9 -2.83,-1.79 -5.61,-3.71 -8.43,-5.53 -1.3,-0.84 -3.74,-2.54 -1.52,-4.14 1.55,-1.12 3.44,0.57 4.75,1.41 2.85,1.8 5.72,3.58 8.54,5.41 3.3,2.14 5.28,3.83 6.24,7.88 0.63,2.67 0.35,10.49 0.28,13.61l-10.61 0c-0.07,-2.28 0.63,-4.28 -1.24,-5.7l-11.68 -9.07c-2.9,-2.16 -4.74,-5.13 -4.97,-8.8 -0.26,-4.31 -0.03,-9.38 -0.03,-13.78 0,-4.59 0,-9.19 0,-13.78zm27.74 53.27l0.81 0.05 0 7.71 -10.65 0 0 -7.75 9.84 -0.01z"/>
   <path class="fil1" d="M57.82 13.01c-5.69,0.95 -9.64,5.92 -9.32,11.69 0.32,5.56 4.82,8.87 8.46,12.49 3.47,3.46 6.93,7.08 10.47,10.46 2.73,2.6 4.86,0.17 6.78,-1.74 3.27,-3.25 14.17,-13.71 15.55,-15.99 3.04,-5.01 1.76,-11.32 -2.85,-14.88 -4.69,-3.63 -11.11,-2.56 -15.15,1.51 -0.9,0.91 -1.49,2.29 -2.74,0.99 -0.9,-0.93 -1.66,-1.85 -2.75,-2.62 -2.4,-1.71 -5.55,-2.38 -8.45,-1.91zm-5.16 14.03c-1.95,-4.67 0.91,-9.73 5.91,-10.5 6.46,-0.99 8.9,5.94 11.24,6.12 2.45,0.19 4.69,-6.8 11.2,-6.17 5.04,0.49 8.07,5.61 6.3,10.31 -0.95,2.52 -6.16,7.19 -8.28,9.32 -0.89,0.89 -8.75,8.67 -9.01,8.72 -0.75,0.14 -7.85,-7.44 -8.9,-8.49 -2.07,-2.08 -7.46,-6.94 -8.46,-9.31z"/>
   <path class="fil1" d="M62.3 21.48c-3.2,-2.57 -7.32,0.56 -5.75,3.92 0.37,0.8 1.08,1.08 1,1.94 -0.21,2.23 -3.73,0.31 -3.47,-3.8 0.22,-3.38 3.5,-5.72 6.77,-5.02 3.79,0.8 5.23,3.67 3.33,4.04 -0.89,0.17 -1.23,-0.56 -1.88,-1.08z"/>
   <path class="fil1" d="M101.22 12.38c-4.69,0.89 -5.28,4.68 -5.24,8.68 0.04,4.28 0.27,9.72 -0.04,13.89 -0.55,7.47 -8.06,10.59 -13.61,14.11 -8.58,5.45 -9.13,8.76 -9.15,18.66 -0.01,4.65 -0.02,9.3 0.01,13.95 0.05,6.85 -0.94,6.03 8.04,6 12.05,-0.03 9.58,1.88 9.78,-10.98 0.03,-1.75 -0.51,-5.03 0.8,-6.19 4.63,-4.1 11.67,-7.5 14.94,-12.8 2.4,-3.89 2.16,-7.22 2.17,-11.57 0,-4.65 0,-9.3 0,-13.95 0,-4.3 0.29,-9.74 -0.03,-13.9 -0.3,-3.94 -3.75,-6.65 -7.67,-5.9zm-3.91 29.77c2.41,-5.29 2.27,-5.93 2.27,-11.8 0,-2.24 -0.39,-11.87 0.46,-13.24 1.04,-1.68 3.46,-1.69 4.69,-0.12 0.95,1.19 0.59,4.65 0.59,6.22 0,4.6 0,9.19 0,13.79 0,4.32 0.27,9.56 -0.04,13.77 -0.27,3.7 -2.14,6.53 -5.05,8.71l-11.68 9.08c-1.73,1.32 -1.08,3.5 -1.15,5.62l-10.6 -0.03c-0.08,-3.11 -0.35,-11.04 0.31,-13.71 1,-4.07 2.99,-5.66 6.3,-7.81 2.86,-1.86 5.8,-3.62 8.64,-5.48 1.3,-0.85 3.26,-2.51 4.74,-1.13 1.89,1.77 -0.52,3.22 -1.81,4.06 -2.84,1.84 -5.67,3.8 -8.53,5.59 -2.32,1.45 -1.55,3.78 0.41,3.69 1.08,-0.04 12.14,-7.55 12.77,-8.29 2.74,-3.23 1.23,-7.13 -2.32,-8.92zm-10.1 34.18l0.21 0 0 7.5 0.01 0.25 -10.65 -0.04 0 -7.71 10.43 0z"/>
   <path class="fil1" d="M55.25 79.35c0.64,2.85 4.32,2.93 4.93,0.37 0.15,-0.61 -0.12,-1.08 0.31,-1.52 1.1,-1.15 2.21,1.48 0.25,3.64 -1.63,1.79 -4.49,1.63 -6,-0.2 -1.75,-2.13 -1.28,-4.36 -0.06,-3.72 0.58,0.3 0.44,0.85 0.57,1.43z"/>
   <path class="fil1" d="M45.26 46.79c-0.8,-0.64 -1.83,0.14 -1.44,0.98 0.09,0.2 0.27,0.27 0.25,0.49 -0.05,0.56 -0.93,0.07 -0.87,-0.95 0.06,-0.85 0.88,-1.43 1.7,-1.26 0.94,0.2 1.3,0.92 0.83,1.01 -0.23,0.05 -0.31,-0.14 -0.47,-0.27z"/>
   <path class="fil1" d="M84.82 79.35c-0.63,2.85 -4.31,2.93 -4.93,0.37 -0.14,-0.61 0.13,-1.08 -0.3,-1.52 -1.1,-1.15 -2.21,1.48 -0.25,3.64 1.62,1.79 4.48,1.63 5.99,-0.2 1.75,-2.13 1.28,-4.36 0.07,-3.72 -0.58,0.3 -0.44,0.85 -0.58,1.43z"/>
   <path class="fil1" d="M94.53 46.79c0.8,-0.64 1.83,0.14 1.43,0.98 -0.09,0.2 -0.27,0.27 -0.24,0.49 0.05,0.56 0.93,0.07 0.86,-0.95 -0.05,-0.85 -0.87,-1.43 -1.69,-1.26 -0.95,0.2 -1.31,0.92 -0.83,1.01 0.22,0.05 0.3,-0.14 0.47,-0.27z"/>
  </g>
 </g>
</svg>
