<svg width="140" height="100" viewBox="0 0 140 100" fill="none" xmlns="http://www.w3.org/2000/svg">
<path d="M0 8C0 3.58172 3.58172 0 8 0H132C136.418 0 140 3.58172 140 8V100H0V8Z" fill="#2DAFE6"/>
<path d="M52.9478 33.6746H88.052C88.6629 33.6746 89.1582 34.1699 89.1582 34.7809C89.1582 35.3918 88.6629 35.8871 88.052 35.8871H52.9478C52.3369 35.8871 51.8416 35.3918 51.8416 34.7809C51.8416 34.1699 52.3369 33.6746 52.9478 33.6746Z" fill="white"/>
<path d="M52.9478 42.1311H88.052C88.6629 42.1311 89.1582 42.6264 89.1582 43.2373C89.1582 43.8482 88.6629 44.3435 88.052 44.3435H52.9478C52.3369 44.3435 51.8416 43.8482 51.8416 43.2373C51.8416 42.6264 52.3369 42.1311 52.9478 42.1311Z" fill="white"/>
<path d="M52.9478 50.5875H88.052C88.6629 50.5875 89.1582 51.0828 89.1582 51.6937C89.1582 52.3046 88.6629 52.7999 88.052 52.7999H52.9478C52.3369 52.7999 51.8416 52.3046 51.8416 51.6937C51.8416 51.0828 52.3369 50.5875 52.9478 50.5875Z" fill="white"/>
<path d="M49.4341 24H91.5659C95.1136 24 98 26.8862 98 30.4341V56.927C98 60.4747 95.1138 63.3611 91.5659 63.3611H62.0355C61.7197 63.3611 61.4263 63.5031 61.2304 63.751L51.694 75.8241C51.3182 76.2999 50.7698 76.5592 50.1956 76.5592C49.9822 76.5592 49.7651 76.5234 49.5521 76.4493C48.7664 76.1764 48.2587 75.4627 48.2587 74.631V63.2512C45.2756 62.6939 43 60.0566 43 56.927V30.4339C43 26.8862 45.8862 24 49.4341 24ZM45.2124 56.927C45.2124 59.2245 47.0817 61.1176 49.3792 61.1469C49.9846 61.1547 50.4713 61.6476 50.4713 62.2531V73.8028L59.4942 62.3796C60.1121 61.5972 61.0384 61.1485 62.0355 61.1485H91.5659C93.8937 61.1485 95.7876 59.2546 95.7876 56.9268V30.4339C95.7876 28.1062 93.8938 26.2123 91.5659 26.2123H49.4341C47.1063 26.2123 45.2124 28.1062 45.2124 30.4339V56.927Z" fill="white"/>
</svg>
