<svg width="140" height="100" viewBox="0 0 140 100" fill="none" xmlns="http://www.w3.org/2000/svg">
<path d="M0 8C0 3.58172 3.58172 0 8 0H132C136.418 0 140 3.58172 140 8V100H0V8Z" fill="#2DAFE6"/>
<g clip-path="url(#clip0)">
<path d="M91.6681 31.7798H48.3319C47.342 31.7798 46.5367 32.5851 46.5367 33.575V51.946C46.5367 52.4639 46.9565 52.8835 47.4742 52.8835C47.992 52.8835 48.4117 52.4639 48.4117 51.946V33.6548H91.5882V58.8257H48.4117V56.3288C48.4117 55.8109 47.992 55.3913 47.4742 55.3913C46.9565 55.3913 46.5367 55.8109 46.5367 56.3288V58.9055C46.5367 59.8954 47.342 60.7006 48.3319 60.7006H91.668C92.6579 60.7006 93.4631 59.8954 93.4631 58.9055V33.5751C93.4632 32.5853 92.658 31.7798 91.6681 31.7798Z" fill="white"/>
<path d="M99.5094 63.2266H97.864V31.5666C97.864 29.2576 95.9856 27.3793 93.6766 27.3793H46.3234C44.0145 27.3793 42.136 29.2576 42.136 31.5666V63.2266H40.4906C39.1172 63.2266 38 64.3439 38 65.7171C38 69.5239 41.097 72.6208 44.9036 72.6208H95.0964C98.903 72.6208 102 69.5239 102 65.7171C102 64.3439 100.883 63.2266 99.5094 63.2266ZM44.011 31.5665C44.011 30.2915 45.0482 29.2541 46.3234 29.2541H93.6766C94.9516 29.2541 95.989 30.2915 95.989 31.5665V63.2265H44.011V31.5665ZM60.9625 65.1016H79.0375V66.0439C79.0375 66.5635 78.6147 66.9863 78.0951 66.9863H61.9049C61.3853 66.9863 60.9625 66.5635 60.9625 66.0439V65.1016ZM95.0964 70.7459H44.9036C42.1309 70.7459 39.875 68.49 39.875 65.7171C39.875 65.3776 40.1511 65.1015 40.4906 65.1015H59.0875V66.0438C59.0875 67.5973 60.3514 68.8611 61.9049 68.8611H78.0951C79.6486 68.8611 80.9125 67.5973 80.9125 66.0438V65.1015H99.5094C99.8489 65.1015 100.125 65.3776 100.125 65.7171C100.125 68.49 97.8691 70.7459 95.0964 70.7459Z" fill="white"/>
<path d="M71.3974 37.9689C71.8786 38.1599 72.4236 37.9244 72.6144 37.443C72.8052 36.9616 72.5698 36.4168 72.0884 36.226L70.6171 35.6426C70.1962 35.4755 69.7327 35.4755 69.3118 35.6425L55.0666 41.2909C53.5781 41.881 53.5781 43.9919 55.0666 44.5819L60.0239 46.5475L59.1372 51.59C58.9919 52.4161 59.5557 53.1984 60.3869 53.3213C61.5908 53.4994 64.8699 54.1486 69.3059 56.3286C69.7199 56.5321 70.2121 56.5307 70.6227 56.3287C75.0588 54.1487 78.3379 53.4994 79.5421 53.3213C80.3719 53.1984 80.9371 52.4174 80.7916 51.59L79.9049 46.5474L82.2299 45.6255V50C82.2299 50.5179 82.6497 50.9375 83.1674 50.9375C83.6852 50.9375 84.1049 50.5179 84.1049 50V44.882L84.8622 44.5818C86.3509 43.9916 86.3508 41.8809 84.8622 41.2908L76.1629 37.8414C75.6819 37.6504 75.1368 37.8858 74.9458 38.3673C74.7551 38.8486 74.9904 39.3935 75.4718 39.5843L83.9253 42.9361L69.9644 48.4718L56.0034 42.9363L69.9643 37.4008L71.3974 37.9689ZM70.6168 50.2303L78.1251 47.2531L78.8769 51.5291C77.3717 51.7878 74.1453 52.531 69.9643 54.5634C65.7831 52.5309 62.5567 51.7876 61.0517 51.529L61.8036 47.2533L69.3119 50.2305C69.7327 50.3971 70.1959 50.397 70.6168 50.2303Z" fill="white"/>
</g>
<defs>
<clipPath id="clip0">
<rect width="64" height="64" fill="white" transform="translate(38 18)"/>
</clipPath>
</defs>
</svg>
