<svg width="56" height="56" viewBox="0 0 56 56" fill="none" xmlns="http://www.w3.org/2000/svg">
<g clip-path="url(#clip0)">
<path fill-rule="evenodd" clip-rule="evenodd" d="M28.1617 52.4689L28.4375 53.0017L28.7133 52.4689C29.388 51.1628 31.0201 50.0505 32.2447 49.2945C34.0832 48.1614 36.0536 47.1961 37.9598 46.1737C39.7914 45.1911 41.6802 44.1289 43.3072 42.8332C44.7034 41.7209 46.0303 40.3231 46.5628 38.5828C46.7276 38.0465 46.8108 37.493 46.8108 36.9307C46.8108 34.3185 45.902 31.971 44.9254 29.5941C44.197 27.8227 43.158 25.5582 43.3748 23.6103C43.5951 21.6261 44.9844 20.2629 46.5905 19.2284L46.875 19.045L41.512 12.1582L41.3993 12.1357C40.5893 11.98 39.7775 11.8399 38.964 11.7171L36.9399 7.0584L37.6562 7.16912L38.4073 6.52905L38.9467 5.37346C39.0404 5.18489 38.9831 4.30955 38.9831 4.0293C38.5669 3.94627 36.2583 3.474 36.0761 3.49822L34.4353 4.24209V3.28544L31.5301 3.0519V3.06228L30.531 4.00682L29.8893 3.99125V3L26.9857 3.00519V3.9999L26.3544 4.0172L25.3449 3.06401L22.4414 3.29928V4.24555L20.8006 3.51033C20.6098 3.48611 18.3203 3.94627 17.8953 4.0293C17.8953 4.30955 17.8381 5.18316 17.93 5.37173C18.603 6.76604 18.1156 6.25572 19.3141 7.15182L19.8726 7.06532L17.8953 11.7621C17.0905 11.8762 16.2857 12.0008 15.4827 12.1375L15.3647 12.1582L10 19.0468L10.2845 19.2301C11.8888 20.2646 13.2799 21.6278 13.5002 23.612C13.717 25.5599 12.678 27.8227 11.9496 29.5959C10.973 31.9745 10.0642 34.3203 10.0642 36.9325C10.0642 37.4947 10.1474 38.0465 10.3122 38.5845C10.8447 40.3231 12.1716 41.7209 13.5678 42.835C15.1948 44.1307 17.0836 45.1928 18.9152 46.1754C20.8197 47.1978 22.7918 48.1631 24.6303 49.2962C25.8549 50.0505 27.487 51.1628 28.1617 52.4689ZM32.432 22.0309L31.2196 22.2835C30.668 22.2143 30.4807 22.9166 30.4304 23.209C30.5865 23.1657 30.8831 23.1034 31.0392 23.0602C31.3289 23.0844 31.5509 23.1277 31.7018 23.1882C31.9897 23.2885 32.2516 23.4148 32.484 23.5636C33.0547 24.3732 33.0668 26.5495 33.2854 27.7812C33.3617 28.2085 33.2975 28.1271 33.3634 27.7569C33.4415 27.3175 33.6028 26.8781 33.7554 26.4318L33.2038 24.56L33.4068 24.5012L33.8699 26.0876C33.9393 25.8661 34.0034 25.6447 34.0468 25.4198L33.4553 24.1985L33.6461 24.1085L34.1006 25.0617C34.1075 24.9943 34.111 24.9285 34.1144 24.8611C34.1353 24.2141 33.7277 23.4996 33.5716 22.8734C33.9826 22.69 34.4995 22.6796 34.888 22.427C34.9539 22.3838 34.9609 22.2904 34.9401 22.2073L34.0607 22.4167L34.0138 22.2125L34.8464 22.0101C34.8585 21.934 34.8065 21.7974 34.7163 21.7264L33.9393 22.0966L33.8491 21.9063L34.5654 21.569C34.5238 21.4842 34.4076 21.4064 34.3313 21.4202C33.9913 21.4842 33.1483 22.0793 32.432 22.0309ZM31.1641 22.7592C31.0982 22.754 31.0479 22.6935 31.0514 22.6225C31.0566 22.5533 31.1138 22.4997 31.1814 22.5049C31.2491 22.5101 31.2977 22.5706 31.2942 22.6416C31.289 22.7108 31.2317 22.7644 31.1641 22.7592ZM28.9405 20.8943C28.4514 20.903 28.4323 20.8909 28.9127 21.031C29.7973 21.2888 30.6628 21.4514 31.4225 21.9703L32.4129 21.7645L32.4493 21.7662C32.4667 21.7679 32.4858 21.7679 32.5031 21.7679C32.1666 21.5482 31.8215 21.3787 31.4694 21.2507C30.6559 20.9566 29.8077 20.8788 28.9405 20.8943ZM34.8117 21.4756C34.7267 21.2784 34.4978 21.1192 34.2827 21.1607C34.1075 21.1953 33.8994 21.3026 33.7381 21.3787C33.5265 21.479 33.3131 21.5811 33.0911 21.6572C33.0269 21.6797 32.9593 21.7005 32.8916 21.7178C32.6505 21.5413 32.3973 21.3856 32.1302 21.2524L34.4301 18.9309C35.0736 19.5104 35.6391 20.1833 36.1264 20.9272L35.0181 21.6763C34.9643 21.5932 34.8932 21.5223 34.8117 21.4756ZM35.1083 21.9046L36.2548 21.1296C36.2374 21.1002 36.2184 21.0725 36.1993 21.0431C36.619 21.7022 36.9798 22.4132 37.2799 23.1623C37.2539 23.1605 37.2278 23.1605 37.2018 23.1605C36.0362 23.1726 35.4535 23.7954 35.025 24.4753L34.3781 24.7486C34.359 24.1501 34.0711 23.5982 33.8924 23.0325C34.2723 22.9132 34.6608 22.8872 35.0337 22.6467C35.2627 22.4997 35.2575 22.1589 35.1152 21.9548C35.1135 21.9375 35.1118 21.9219 35.1083 21.9046ZM34.3694 25.0133L34.8169 24.8247C34.6244 25.1603 34.4509 25.4873 34.2445 25.7381C34.2862 25.5755 34.3208 25.4094 34.3451 25.2399C34.3555 25.1655 34.3642 25.0894 34.3694 25.0133ZM34.0936 26.2433C35.1066 25.5426 35.1794 23.446 37.2053 23.4252C37.266 23.4252 37.3267 23.4304 37.3874 23.4391C37.7603 24.4286 38.0326 25.4786 38.2026 26.5564C38.1627 26.5512 38.1228 26.5443 38.0812 26.5373C37.8245 26.4941 37.5695 26.4422 37.3146 26.392C37.0197 26.3332 36.7196 26.2744 36.4213 26.2398C36.3068 26.226 36.1924 26.2294 36.0796 26.2519C35.5385 26.3557 35.0788 26.8903 34.7215 27.2743C34.1699 27.8677 33.6513 28.3832 32.9575 28.8191L32.543 29.044L28.4254 28.9956C28.9596 27.7933 30.5744 25.88 31.4243 26.0184C31.8388 26.0858 32.3938 26.2571 32.8465 26.3661C32.8951 26.8557 32.9419 27.3504 33.0269 27.8296C33.0581 28.0009 33.0443 28.3451 33.3374 28.3347C33.6253 28.3244 33.5924 27.9784 33.6236 27.8054C33.719 27.2674 33.9219 26.7622 34.0936 26.2433ZM32.8188 26.0893C32.6176 26.0391 32.4268 25.9838 32.3193 25.9544L32.2083 25.925L32.7754 25.6862C32.7876 25.7848 32.798 25.8765 32.8067 25.9578L32.8188 26.0893ZM32.7425 25.4371L31.818 25.8263C31.7001 25.7987 31.5838 25.7744 31.4659 25.7554C31.0514 25.688 30.6073 25.9578 30.2934 26.1983C30.0939 26.3505 29.9031 26.5235 29.721 26.7086L27.4055 27.6843C27.3378 27.539 27.2598 27.3988 27.1731 27.2639L32.3175 23.7885C32.5447 24.1795 32.6696 24.8749 32.7425 25.4371ZM32.1025 23.6449L27.0378 27.0667C26.9424 26.9387 26.84 26.8159 26.729 26.7017L30.1841 23.2159L30.1269 23.5463L30.5275 23.4356C30.6941 23.3906 30.8953 23.3664 31.0635 23.3249C31.2369 23.3404 31.4503 23.3681 31.6047 23.4304L31.6099 23.4321L31.6168 23.4339C31.7816 23.4944 31.9446 23.5636 32.1025 23.6449ZM30.3073 22.7471L26.5556 26.5339C26.4376 26.4266 26.3145 26.328 26.1844 26.2363L29.3672 21.4323C29.95 21.5915 30.5067 21.7437 31.0115 22.0257C30.7183 22.0741 30.5085 22.2887 30.3801 22.5793C30.3524 22.6329 30.3298 22.69 30.3073 22.7471ZM29.1192 21.3631L25.9797 26.1031C25.8913 26.0495 25.8011 25.9993 25.7074 25.9544V25.5184L29.3134 16.7148C30.2119 16.7944 31.0462 16.9934 31.8111 17.2978L29.5996 20.64C29.3793 20.6297 29.1573 20.6279 28.9353 20.6331C28.7289 20.6366 28.3421 20.5864 28.3022 20.8805C28.2623 21.1746 28.6422 21.2282 28.8399 21.2853C28.9336 21.3112 29.0272 21.3372 29.1192 21.3631ZM29.8771 20.6573L32.04 17.3912C32.8535 17.7407 33.5889 18.2095 34.248 18.7717L31.8978 21.1434C31.7885 21.095 31.6758 21.05 31.5613 21.0068C31.0132 20.8061 30.4495 20.7023 29.8771 20.6573ZM32.0747 34.3307L32.073 34.3341L32.0556 34.3791L32.0209 34.4154L31.5648 34.8963L31.4746 33.9726L31.4728 33.9034L31.485 33.848C31.7018 33.5764 31.9481 33.355 32.2325 33.1872L31.844 33.5747L31.9932 33.7235L32.4806 33.2373C32.2828 33.5799 32.177 33.9172 32.0747 34.3307ZM33.3461 33.675C33.4328 33.9086 33.4935 34.1507 33.5646 34.4189L33.5733 34.4327V34.4587L33.3825 34.8998C33.3686 34.4915 33.3565 34.0833 33.3461 33.675ZM33.3981 35.3946L33.5854 34.9621L33.5785 35.5658L33.7884 35.5693L33.7953 34.9949L34 35.5364L34.1977 35.462L33.9809 34.8877L34.3885 35.3167L34.5411 35.1714L34.4717 35.0987L34.5325 34.4794L34.692 35.0832L34.8967 35.0295L34.7406 34.4414L35.0858 34.9361L35.2592 34.8168L34.8759 34.2666L35.4049 34.6074L35.5194 34.431L35.0216 34.111L35.1898 34.1456L35.2505 34.2528L35.3737 34.1836L35.5992 34.2303L35.6425 34.0245L35.5818 34.0123L35.7084 33.8913L35.1968 33.3584L35.8229 33.7235L35.9287 33.5418L35.2419 33.1422L36.0085 33.3152L36.0553 33.1111L35.4222 32.9692L36.0692 32.9467L36.0623 32.7374L35.3407 32.7616L36.0345 32.535L35.9686 32.3361L35.28 32.5609L35.6304 32.3239H35.6321V32.3222L35.8906 32.1475L35.7726 31.9728L35.5801 32.1025L35.0667 32.0212L35.7344 31.9485L35.7119 31.7392L34.9539 31.8223L35.6373 31.5247L35.5523 31.3327L34.8637 31.632L35.4309 31.1424L35.2939 30.9833L34.7285 31.4711L35.1308 30.8258L34.9522 30.7151L34.9435 30.729L34.9158 30.6615L34.7146 30.7445L34.7441 30.6338L34.6695 30.6148L34.8065 30.5127L34.6816 30.3432L34.0243 30.8293L34.5116 30.1961L34.3451 30.0681L33.8144 30.7584L34.1058 29.9488L33.908 29.8778L33.6617 30.5594L33.7259 29.8398L33.5161 29.8207L33.4467 30.6148L33.2906 29.8259L33.0842 29.8675L33.2385 30.6494L32.9905 30.1702L33.0824 29.992L32.8951 29.8951L32.8726 29.9401L32.8656 29.9263L32.6783 30.0231L32.7546 30.1719L32.5222 30.6217L32.6766 29.8398L32.4702 29.7983L32.3141 30.5871L32.2447 29.7931L32.0348 29.8121L32.099 30.5317L31.8527 29.8502L31.655 29.9211L31.9463 30.729L31.4156 30.0387L31.2491 30.1667L31.7365 30.7999L31.0791 30.3138L30.9542 30.4833L31.1277 30.6113L31.0392 30.6355L31.0618 30.722L30.8467 30.6338L30.8051 30.7324L30.6524 30.8276L31.0548 31.4728L30.4894 30.985L30.3506 31.1441L30.9178 31.6337L30.2292 31.3344L30.146 31.5264L30.8293 31.824L30.0714 31.741L30.0488 31.9503L30.7166 32.0229L30.257 32.0956L30.0783 31.9745L29.9604 32.1492L30.1442 32.2738L30.1529 32.3257L30.2084 32.317L30.5709 32.5627L29.8823 32.3378L29.8164 32.5367L30.5102 32.7633L29.7887 32.7391L29.7817 32.9484L30.4287 32.9709L29.7956 33.1128L29.8424 33.3169L30.6091 33.1439L29.9222 33.5435L30.028 33.7252L30.6542 33.3602L30.1425 33.893L30.2691 34.0141L30.2084 34.0262L30.2518 34.232L30.4772 34.1853L30.6004 34.2545L30.6611 34.1473L30.8293 34.1127L30.3315 34.4327L30.446 34.6092L30.9768 34.2684L30.5935 34.8185L30.7669 34.9379L31.1121 34.4431L30.956 35.0313L31.1589 35.0849L31.3202 34.4812L31.3809 35.1005L31.3115 35.1731L31.4642 35.3184L31.87 34.8912L31.6532 35.4655L31.851 35.5399L32.0556 34.9984L32.0626 35.5727L32.2724 35.5693L32.2638 34.9655L32.4303 35.3513L32.3852 36.6955C31.1017 36.2664 29.8841 35.7734 29.0342 34.8756C27.0863 32.8187 27.4142 30.9331 28.2242 29.5163L28.2259 29.5128L28.2276 29.5094L28.2294 29.5059L28.2311 29.5024L28.2328 29.499L28.2346 29.4955L28.2363 29.4921L28.238 29.4886L28.2398 29.4851L28.2415 29.4817L28.2432 29.4782L28.245 29.4748L28.2467 29.4713V29.4696L28.2814 29.4108L28.2831 29.4073L28.2849 29.4056L28.2883 29.4004V29.3986L28.2901 29.3952L28.3265 29.3364V29.3346L28.3282 29.3312L28.3594 29.2793L28.3629 29.2758L28.3647 29.2724L28.3664 29.2689L28.8416 29.2741L38.4107 29.3865V29.3831V29.3865C38.3951 32.5281 37.5504 35.6575 35.8715 37.9946C35.1274 37.6054 34.2914 37.3217 33.4467 37.0501C33.4345 36.4913 33.4155 35.9429 33.3981 35.3946ZM33.4605 37.3165C34.2515 37.5725 35.0268 37.8407 35.7171 38.1988C34.0572 40.394 31.6307 41.8403 28.4323 41.8403H28.382H28.3941H28.4011H28.4028H28.4045H28.4167H28.4184C29.2839 39.9979 28.6248 38.1399 27.742 36.3789C27.2355 35.3651 26.6545 34.3843 26.2486 33.4553C25.9832 32.8481 25.7005 32.0662 25.8098 31.3811C25.8878 30.8916 26.1584 30.4677 26.5747 30.2065C26.932 29.9834 27.2893 29.781 27.683 29.6339L27.6865 29.6322L27.7264 29.6183C27.7784 29.5993 27.8304 29.582 27.8825 29.5647C26.8557 31.5126 27.2407 33.374 28.8295 35.052C29.7349 36.0087 31.0253 36.5207 32.3626 36.9636L32.2915 39.107H33.4987L33.4952 38.8925C33.49 38.3666 33.4762 37.8407 33.4605 37.3165ZM32.4407 34.8548L32.269 34.4587L32.2672 34.4137C32.2742 34.3912 32.2811 34.3687 32.2863 34.3462C32.3435 34.1196 32.4025 33.9172 32.4788 33.7217L32.4407 34.8548ZM34.2168 32.1319L34.2723 32.106L34.3503 32.1164L35.3234 32.2703L34.6122 32.7512L34.5828 32.7599L34.5567 32.7512C34.3 32.6647 34.0312 32.6232 33.7589 32.6146L34.3295 32.5177L34.2931 32.3101L33.6219 32.4243C33.8231 32.3032 34.0364 32.2028 34.2168 32.1319ZM33.2628 32.4156L33.9237 31.6579L33.7641 31.5195L33.183 32.1873C33.2663 31.9416 33.379 31.7064 33.5265 31.4797L33.5577 31.4365L33.6045 31.4175L34.4041 31.0922L34.196 31.8811L34.1908 31.914L34.1595 31.9295C33.8786 32.0385 33.5386 32.2028 33.2628 32.4156ZM34.3607 33.8376L34.3781 33.8982L34.3694 33.9708L34.2792 34.8946L33.8231 34.4137L33.7728 34.3791L33.7519 34.303C33.6565 33.9449 33.5785 33.6335 33.4276 33.329L33.8231 33.7373L33.9757 33.592L33.5334 33.1353C33.8543 33.3065 34.1283 33.5366 34.3607 33.8376ZM33.0235 32.0091V31.2445H32.8136V32.1734C32.7199 31.8845 32.5916 31.6095 32.4164 31.3448L32.4077 31.2912L32.8726 30.3933L33.353 31.3223L33.3565 31.3517L33.3461 31.3759C33.2108 31.5801 33.105 31.7911 33.0235 32.0091ZM34.477 32.9467L34.522 32.9692L34.5481 33.0142L35.0476 33.8999L34.5966 33.8065L34.5949 33.8048L34.588 33.7944C34.3659 33.4865 34.1092 33.2425 33.8074 33.054L34.2255 33.1906L34.2914 32.9917L33.7866 32.8256C34.0243 32.836 34.2567 32.8741 34.477 32.9467ZM34.4717 30.8362L34.2237 30.9365L34.4995 30.7324L34.4717 30.8362ZM34.6487 30.9902L34.8204 30.921L34.5533 31.3483L34.6487 30.9902ZM32.2308 31.4486C32.3834 31.677 32.4979 31.9122 32.5846 32.1579L32.0088 31.5662L31.8579 31.7133L32.6159 32.4935L32.6089 32.4917C32.3193 32.2409 31.9307 32.0506 31.6168 31.9278L31.5804 31.8776L31.3653 31.0663L32.1493 31.3863L32.1996 31.4105L32.2308 31.4486ZM31.5387 32.1215L32.1319 32.4104L31.5405 32.3101L31.5041 32.5177L32.0747 32.6146C31.8059 32.6267 31.5405 32.6717 31.2872 32.753L31.2595 32.7564L31.23 32.7495L30.5067 32.2617L31.426 32.1164L31.485 32.1042L31.5387 32.1215ZM32.04 33.0574C31.7538 33.2408 31.5075 33.4743 31.2855 33.7598L31.263 33.7823L31.2456 33.8048L30.7929 33.8982L31.2925 33.0125L31.3254 32.9709L31.3653 32.9467C31.5925 32.8758 31.8301 32.836 32.0695 32.8239L31.5405 33.0021L31.6081 33.201L32.04 33.0574ZM30.7409 33.5643L30.5189 33.957L30.3263 33.9968L30.7409 33.5643ZM31.1225 30.9677L31.2231 31.3483L30.9386 30.8916L31.1225 30.9677ZM31.2994 30.812L31.2734 30.7151L31.5318 30.9071L31.2994 30.812ZM35.3234 33.957L35.1014 33.5643L35.5159 33.9968L35.3234 33.957ZM24.1533 21.0327L24.1412 17.7217C24.8142 17.3584 25.5479 17.0781 26.3423 16.9017L25.0119 23.7228V22.8993H24.7673V22.5793H24.9616V22.2506C24.9616 21.9271 24.7431 21.6953 24.4673 21.5725C24.4742 21.5413 24.4777 21.5085 24.4777 21.4739C24.476 21.268 24.3407 21.0933 24.1533 21.0327ZM24.9755 23.9044L24.8714 24.4407H24.7621L24.7292 23.9044H24.9755ZM25.1177 24.4389L26.5972 16.8463C27.1783 16.7339 27.7888 16.6751 28.4306 16.6751C28.552 16.6751 29.1035 16.6975 29.0619 16.6941L25.7092 24.8801V24.4389H25.1177V24.4389ZM25.7092 26.2606C26.7256 26.7968 27.4315 27.8123 27.4991 28.9921H27.428H27.3413H26.9996H26.7446H26.5695H26.4463H26.1983H26.1046H26.0994H25.7092V26.2606V26.2606ZM22.3425 28.9956L20.6306 28.9973C20.6948 27.8452 21.3678 26.8505 22.3425 26.3038V28.9956ZM22.3425 25.9924C22.2697 26.0305 22.1986 26.072 22.1292 26.1135L19.7981 22.6519C20.027 22.1399 20.2872 21.6486 20.5751 21.1832L22.3425 25.406V25.9924ZM22.3425 24.7815L20.7329 20.9359C21.0955 20.3805 21.5013 19.8668 21.9506 19.398L22.9739 24.4389H22.3425V24.7815ZM23.2202 24.4389L23.1109 23.9027H23.3225L23.2896 24.4389H23.2202ZM23.0207 23.4564L22.1552 19.1921C22.6808 18.6766 23.2636 18.2268 23.9001 17.8566L23.9122 21.0189C23.6989 21.0639 23.5393 21.2507 23.5393 21.4756C23.5393 21.5119 23.5428 21.5465 23.5515 21.5794C23.2826 21.7022 23.071 21.934 23.071 22.2506V22.5793H23.2653V22.8993H23.0207V23.4564ZM24.495 22.8993H24.162L24.1603 22.5793H24.495V22.8993ZM23.881 22.8993H23.5376V22.5793H23.881V22.8993ZM18.5371 27.9766L20.4849 28.3624C20.5231 28.2085 20.5699 28.0562 20.6271 27.9109L18.5874 27.0702C18.5492 27.3677 18.5198 27.667 18.4972 27.968L18.5371 27.9766ZM18.4816 28.2102L20.4346 28.5977C20.4121 28.7292 20.3965 28.8624 20.3878 28.9973C19.7426 28.9973 19.0973 28.9973 18.4521 28.9973C18.4556 28.7344 18.466 28.4714 18.4816 28.2102ZM18.6204 26.8228L18.6238 26.7934C18.6672 26.4716 18.7244 26.1533 18.7886 25.8385L20.9498 27.2743C20.8648 27.4075 20.7885 27.5459 20.7225 27.6877L18.6204 26.8228ZM38.416 29.0405H38.4142H38.3951C36.6312 29.0405 34.8637 29.0405 33.098 29.0405C34.888 27.9213 35.4205 26.3851 36.3901 26.501C36.9416 26.5668 37.7274 26.7605 38.2425 26.828V26.8262H38.2442V26.828V26.8262H38.246C38.3483 27.5494 38.4055 28.2846 38.416 29.0198V29.0371V29.0405V29.0405ZM28.1392 28.9938H27.9848H27.742C27.7333 28.8606 27.7177 28.7292 27.6951 28.6011L28.4011 28.4558C28.3005 28.634 28.2103 28.8157 28.1392 28.9938ZM28.5676 28.1739L27.6448 28.3641C27.6067 28.2067 27.5581 28.0545 27.4991 27.9057L29.3325 27.1342C29.2753 27.2016 29.2197 27.2691 29.166 27.3366C28.97 27.5822 28.7584 27.8711 28.5676 28.1739ZM18.4452 29.2706C18.4452 29.2689 18.4452 29.2672 18.4452 29.2654L18.4434 29.2585H18.4556H18.5215H18.7071H18.6949H18.6932H18.6759C21.458 29.2585 25.0813 29.2568 27.9831 29.2585C27.657 29.3606 27.3691 29.4713 27.1176 29.5907C27.0915 29.6028 27.0673 29.6149 27.043 29.627C26.9649 29.665 26.8903 29.7048 26.8192 29.7446C26.7342 29.7913 26.6545 29.8398 26.5799 29.8899C25.8306 30.3847 25.5375 30.9884 25.5305 31.6735C25.527 31.9814 25.5808 32.3049 25.6779 32.6423L25.6797 32.6474C25.6901 32.682 25.7005 32.7184 25.7109 32.753L25.7144 32.7651C25.7525 32.8862 25.7942 33.0073 25.841 33.1318C25.9936 33.5366 26.1809 33.9276 26.3735 34.3151C26.514 34.5936 26.6597 34.8704 26.8054 35.1472C27.4436 36.3529 28.1496 37.6158 28.434 38.9651C28.6023 39.7643 28.6109 40.5843 28.3334 41.3697L28.3317 41.3732L28.3282 41.3836C28.297 41.4701 28.2641 41.5548 28.2276 41.6396C28.1981 41.7053 28.1687 41.7693 28.1357 41.8333H28.1305H28.1253H28.1201C27.8721 41.8264 27.6258 41.8091 27.3795 41.7832C26.0526 41.643 24.7621 41.2209 23.6226 40.503C19.9472 38.1797 18.3203 33.4294 18.4452 29.2706ZM18.7886 25.8385C18.832 25.6291 18.832 25.6291 18.7886 25.8385V25.8385ZM18.8424 25.5842C18.9256 25.207 19.021 24.8334 19.1286 24.4666L21.3886 26.7121C21.2793 26.8262 21.1787 26.9473 21.085 27.0736L18.8424 25.5842ZM19.2083 24.2071C19.3471 23.766 19.5067 23.3335 19.6836 22.9149L21.928 26.2467C21.7997 26.3384 21.6765 26.437 21.562 26.5443L19.2083 24.2071ZM38.4107 29.7412L38.4125 29.6979L38.4107 29.7412ZM28.2207 50.0557L28.4375 50.265L28.6543 50.0557C29.4782 49.2547 30.453 48.5887 31.4295 47.9867C33.3044 46.8311 35.2852 45.8606 37.2244 44.8192C40.0169 43.3211 45.2619 40.5757 45.2619 36.9325C45.2619 34.5573 44.3791 32.3412 43.491 30.1771C42.6359 28.0943 41.6057 25.7433 41.8624 23.4425C42.0705 21.5673 43.0782 20.1038 44.4988 18.9101L44.7277 18.7181L40.6534 13.5629L40.539 13.5422C32.5222 12.0769 24.358 12.2464 16.3326 13.556L16.2146 13.575L12.149 18.7198L12.378 18.9118C13.7968 20.1055 14.8045 21.569 15.0144 23.4442C15.2711 25.745 14.2408 28.0943 13.3857 30.1788C12.4942 32.343 11.6131 34.5573 11.6131 36.9325C11.6131 37.3407 11.6738 37.7438 11.7935 38.1348C12.6954 41.0756 17.0767 43.4387 19.6506 44.8192C21.5898 45.8589 23.5706 46.8311 25.4455 47.9867C26.422 48.5887 27.3968 49.2547 28.2207 50.0557ZM17.0819 20.339L17.3941 21.3545L18.4122 21.3528L17.5866 21.979L17.9023 22.9945L17.0801 22.3648L16.258 22.9945L16.5737 21.979L15.7481 21.3528L16.7662 21.3545L17.0819 20.339ZM16.225 27.2449L16.5372 28.2604L17.5554 28.2586L16.7298 28.8849L17.0454 29.9003L16.2233 29.2706L15.4012 29.9003L15.7168 28.8849L14.8912 28.2586L15.9094 28.2604L16.225 27.2449ZM15.115 33.4328L15.4272 34.4483L16.4453 34.4466L15.6197 35.0728L15.9371 36.0883L15.115 35.4586L14.2928 36.0883L14.6085 35.0728L13.7829 34.4466L14.801 34.4483L15.115 33.4328ZM28.3699 44.1999L28.6821 45.2153L29.7002 45.2136L28.8746 45.8398L29.192 46.8553L28.3699 46.2256L27.5477 46.8553L27.8651 45.8398L27.0395 45.2136L28.0576 45.2153L28.3699 44.1999ZM34.5116 41.688L34.8238 42.7035L35.842 42.7018L35.0164 43.328L35.3338 44.3435L34.5116 43.7138L33.6895 44.3435L34.0069 43.328L33.1813 42.7018L34.1994 42.7035L34.5116 41.688ZM22.1708 41.688L21.8586 42.7035L20.8405 42.7018L21.6661 43.328L21.3504 44.3435L22.1726 43.7138L22.9947 44.3435L22.679 43.328L23.5046 42.7018L22.4865 42.7035L22.1708 41.688ZM17.2883 38.3908L16.9761 39.4063L15.9579 39.4045L16.7818 40.0308L16.4661 41.0462L17.2883 40.4165L18.1104 41.0462L17.7947 40.0308L18.6204 39.4045L17.6022 39.4063L17.2883 38.3908ZM18.2457 11.7119L18.2284 11.7136L18.6672 10.6722L18.6828 10.6705L20.5352 10.4491L20.282 11.4559L20.2508 11.4593L20.2195 11.4628L20.1727 11.468L20.1224 11.4766L20.0895 11.4801L20.0582 11.4835L20.0461 11.4853L20.0062 11.4905L19.8328 11.5112L19.8015 11.5147L19.746 11.5216L19.7374 11.5233L19.7061 11.5268L19.6992 11.5285L19.3835 11.5666L19.3523 11.57L19.3193 11.5735L19.2881 11.577L19.2743 11.5787L19.243 11.5822L19.0002 11.6133H18.9985C18.8493 11.6323 18.7001 11.6514 18.551 11.6721L18.5198 11.6756L18.4868 11.679L18.4799 11.6808L18.2457 11.7119ZM20.6306 11.4195L20.5612 11.4265L20.8145 10.4214C21.2724 10.3747 21.7303 10.3331 22.1899 10.2968L22.157 10.6688L22.9461 10.603C23.241 10.5788 23.5376 10.5736 23.8325 10.5442L24.3632 10.4923L24.4066 10.1498C24.8541 10.1273 25.3016 10.1083 25.7491 10.0944L25.6589 11.0372L25.6259 11.039L25.5791 11.0407L25.4993 11.0441L25.4195 11.0476L25.2998 11.0528L25.083 11.0632L24.9408 11.0701L24.861 11.0736L24.7275 11.0805L24.6234 11.0874L24.5436 11.0926L24.4638 11.0978L24.384 11.103L24.3042 11.1082L24.28 11.1099L24.0371 11.1255L23.9088 11.1341H23.9036L23.8238 11.1393L23.6902 11.1479L23.4266 11.167H23.4179C23.3156 11.1739 23.215 11.1825 23.1127 11.1895H23.1057L23.0259 11.1964L22.9461 11.2033C22.2593 11.2569 21.5742 11.3209 20.8873 11.3919L20.8682 11.3936L20.6306 11.4195ZM25.9242 11.0268L26.0127 10.0858L26.6926 10.0667L26.7342 9.80379L24.4361 9.9024C24.476 9.58755 24.5158 9.27443 24.5575 8.95959L27.0187 8.84714C26.7221 9.48895 26.6614 10.3314 26.5955 10.9611L26.5903 11.0026C26.3683 11.0095 26.1463 11.0182 25.9242 11.0268ZM29.6881 10.9732C29.6031 10.1048 29.5996 8.50808 28.4306 8.50808C27.2927 8.50808 27.291 10.1342 27.2147 10.9836C27.095 10.9853 26.9753 10.9871 26.8574 10.9905C26.9684 9.92662 27.0395 8.16209 28.441 8.16209C29.8736 8.16209 29.9118 9.89721 30.0245 10.9801C29.9118 10.9767 29.8008 10.975 29.6881 10.9732ZM30.2917 10.9836C30.2656 10.6947 30.2396 10.3764 30.1945 10.0581L30.8536 10.0719L30.9421 10.9992C30.7253 10.994 30.5085 10.9888 30.2917 10.9836ZM31.2144 11.0078H31.2075L31.119 10.0788C31.5145 10.091 31.9099 10.1065 32.3054 10.1256L32.3522 10.494L32.883 10.5459C33.1778 10.5736 33.4744 10.5805 33.7693 10.6047L34.5585 10.6705L34.522 10.2605C35.032 10.2985 35.5402 10.3435 36.0484 10.3954L36.2964 11.3728L36.2479 11.3676L36.0102 11.3417L35.9304 11.333C35.2627 11.2638 34.5949 11.205 33.9271 11.1549L33.8942 11.1514L33.5924 11.1306L33.5126 11.1255L33.4328 11.1203C32.6939 11.0701 31.9533 11.0338 31.2144 11.0078ZM36.8619 11.4351C36.7665 11.423 36.6693 11.4126 36.5722 11.4005L36.3242 10.4214L38.1818 10.648L38.6258 11.6686L38.6015 11.6652L38.5113 11.6514L38.4645 11.6444L38.4333 11.6392L38.4021 11.6341H38.3986L38.3049 11.6202L38.2737 11.615L38.2425 11.6098L38.1211 11.5925L38.1142 11.5908L38.0812 11.5873L38.05 11.5822L37.9997 11.5752L37.9841 11.5735L37.9528 11.57L37.9216 11.5666L37.8644 11.5579L37.8505 11.5562L37.7308 11.5406L37.6979 11.5372L37.6667 11.5337L37.5071 11.513H37.5019L37.4568 11.5078L37.344 11.4939L37.3111 11.4905L37.2799 11.487L37.0544 11.4593L37.0232 11.4559L36.9902 11.4524L36.9607 11.4489H36.959L36.926 11.4455L36.8948 11.442L36.8619 11.4351ZM27.1627 8.58073L26.1376 8.60841L26.2208 7.61717C27.6951 7.567 29.1729 7.56008 30.6472 7.61025L30.7287 8.59284L29.7297 8.57209C29.7852 8.65512 29.8338 8.74335 29.8771 8.83676L32.151 8.93018C32.1909 9.24503 32.2325 9.55987 32.2724 9.87299L30.1529 9.79341C30.1598 9.82974 30.165 9.8678 30.1702 9.90586C30.0072 8.88174 29.6291 7.89741 28.4392 7.89741C27.8218 7.89741 27.4246 8.1742 27.1627 8.58073ZM23.7995 10.2155L24.0649 10.1896L24.0978 9.92662C24.1759 9.30038 24.2591 8.67415 24.3372 8.04792L24.3476 7.95796L24.3112 7.87493C24.2175 7.65869 24.0475 7.48742 23.8169 7.42515C23.4197 7.31962 23.0381 7.57219 22.8282 7.89223L22.7831 7.96142L22.7762 8.04446C22.7189 8.66896 22.6166 9.28654 22.5611 9.91278L22.5247 10.3055L22.9201 10.2726C23.2115 10.2484 23.5064 10.2432 23.7995 10.2155ZM23.7666 9.88337C23.4925 9.90932 23.2445 9.91278 22.8906 9.94046C22.9531 9.24503 23.0433 8.76757 23.1057 8.07214C23.3763 7.65869 23.8307 7.60333 24.0059 8.00467C23.9209 8.69145 23.8533 9.19832 23.7666 9.88337ZM35.0302 4.33031C35.3789 4.37356 35.7275 4.41854 36.0744 4.46698V3.86842L35.0302 4.33031ZM30.9421 4.02066C31.1381 4.02757 31.3341 4.03449 31.5318 4.04314V3.45497L30.9421 4.02066ZM25.9468 4.03103C25.7456 4.03795 25.5461 4.0466 25.3467 4.05525V3.45497L25.9468 4.03103ZM20.8023 3.86842L21.876 4.34242C21.5169 4.38567 21.1596 4.43065 20.8023 4.47909V3.86842ZM20.4849 4.84237V3.88226C19.7252 4.00509 18.969 4.14175 18.2128 4.28879C18.2128 5.37346 18.1122 5.04131 18.5839 5.95298L18.5891 5.94606C21.7546 5.43919 24.9287 5.14684 28.1374 5.13646C31.5439 5.12608 34.914 5.43746 38.2789 5.96855C38.768 5.01709 38.6657 5.40286 38.6657 4.28706C37.9077 4.13656 37.148 3.99644 36.3918 3.87015V4.8268C35.6321 4.71781 34.8759 4.62267 34.1196 4.53963V3.5726C33.3617 3.49822 32.6037 3.43767 31.8475 3.38923V4.37183C31.0878 4.33896 30.3315 4.31474 29.5753 4.30263V3.31312C28.8156 3.30793 28.0594 3.30793 27.3032 3.31658V4.30782C26.5435 4.32512 25.7872 4.35107 25.031 4.38567V3.39961C24.2713 3.44805 23.5151 3.51033 22.7588 3.58471V4.56039C21.9991 4.6417 21.2429 4.73511 20.4849 4.84237ZM34.2515 6.39757C29.3099 5.87513 24.5939 6.00661 19.3974 6.8214C19.1095 6.60689 18.9291 6.47542 18.6412 6.25918C25.4559 5.16932 31.341 5.19527 38.2165 6.28167L37.573 6.84043L34.2515 6.39757ZM32.9142 10.2155L32.6488 10.1896L32.6159 9.92662C32.5378 9.30038 32.4545 8.67415 32.3765 8.04792L32.3661 7.95796L32.4025 7.87493C32.4962 7.65869 32.6662 7.48742 32.8986 7.42515C33.2958 7.31962 33.6774 7.57219 33.8872 7.89223L33.9323 7.96142L33.9393 8.04446C33.9948 8.66896 34.0988 9.28654 34.1543 9.91278L34.189 10.3055L33.7936 10.2726C33.5022 10.2484 33.2056 10.2432 32.9142 10.2155ZM32.9454 9.88337C33.2195 9.90932 33.4675 9.91278 33.8213 9.94046C33.7589 9.24503 33.6687 8.76757 33.6062 8.07214C33.3357 7.65869 32.8795 7.60333 32.7061 8.00467C32.791 8.69145 32.8587 9.19832 32.9454 9.88337ZM34.496 9.99408C35.672 10.0858 36.8445 10.2017 38.0153 10.3591L38.0621 10.366L37.6562 9.43359C36.5739 9.27616 35.4847 9.15334 34.3937 9.06165C34.4284 9.33498 34.4631 9.60658 34.4874 9.88164L34.496 9.99408ZM34.359 8.79698C34.7978 8.8333 35.2367 8.87482 35.6755 8.92153L35.4326 7.95969C35.0372 7.91298 34.6435 7.87147 34.2463 7.83341L34.2567 7.84898L34.2723 8.01332C34.2931 8.27627 34.3261 8.53749 34.359 8.79698ZM34.0659 7.57738L36.9382 7.88704L36.985 7.89396L36.6017 7.01169C35.4379 6.84216 34.2705 6.7055 33.0998 6.60516L33.1778 7.07397C33.5247 7.10511 33.8421 7.30405 34.0659 7.57738ZM32.9125 7.08262L32.8292 6.58094C31.4225 6.46677 30.0055 6.40449 28.5919 6.40103V7.3127C29.8268 7.31616 31.0618 7.35422 32.295 7.42515C32.4303 7.27118 32.6037 7.15874 32.8101 7.10338C32.8448 7.09473 32.8778 7.08781 32.9125 7.08262ZM32.1267 7.67598C31.7226 7.6535 31.3167 7.63447 30.9126 7.62063L30.9941 8.60149C31.3688 8.6136 31.7434 8.6309 32.1163 8.6482C32.092 8.46137 32.0678 8.27454 32.0452 8.08598L32.0227 7.90606L32.0938 7.73999C32.1042 7.71923 32.1146 7.69847 32.1267 7.67598ZM22.2142 10.0321C21.0694 10.1238 19.9264 10.2449 18.7869 10.3937L19.1789 9.46127L19.1927 9.45954C20.23 9.31595 21.2706 9.20005 22.3148 9.10663C22.2818 9.36439 22.2506 9.62388 22.2263 9.88337L22.2142 10.0321ZM22.3495 8.84022C21.961 8.87482 21.5742 8.91115 21.1856 8.95094L21.4354 7.96661C21.7754 7.92855 22.1171 7.89396 22.457 7.86109L22.4431 8.01505C22.4189 8.29011 22.3842 8.56517 22.3495 8.84022ZM22.6253 7.60506L19.8362 7.90087L20.2091 7.01688C21.3955 6.84562 22.5836 6.70723 23.7752 6.60516L23.6972 7.07051C23.2774 7.04456 22.8837 7.27464 22.6253 7.60506ZM23.9556 7.12068L24.0458 6.58267C25.4681 6.4685 26.8955 6.40449 28.3282 6.40103V7.31443C27.0291 7.32308 25.73 7.36287 24.4326 7.44418C24.3077 7.2954 24.1464 7.18123 23.9556 7.12068ZM24.5956 7.69501C25.0483 7.66734 25.501 7.64485 25.9555 7.62755L25.8722 8.61879C25.4455 8.63436 25.0188 8.65512 24.5922 8.67934C24.6164 8.48213 24.6425 8.28492 24.6667 8.08771L24.6893 7.90779L24.6182 7.74172C24.6112 7.72615 24.6043 7.71058 24.5956 7.69501ZM19.7322 8.18112L19.7183 8.18285L19.2968 9.17929L20.9064 8.98035L21.1544 7.99775L19.7322 8.18112ZM37.4863 9.14469L37.5331 9.15161L37.1099 8.17593L35.7119 7.99256L35.9547 8.95267L37.4863 9.14469ZM28.4375 52.3271C31.0184 47.3414 46.5021 44.4109 46.5021 36.9325C46.5021 29.454 38.6813 23.958 46.4223 18.9724L41.3403 12.4402C33.2385 10.8815 24.6477 10.8902 15.5347 12.4402L10.4527 18.9724C18.1937 23.958 10.3729 29.454 10.3729 36.9325C10.3729 44.4109 25.8566 47.3414 28.4375 52.3271ZM23.0103 25.1032V24.7002H22.6045V25.1032V25.5807H25.4473V25.1032V24.7002H25.0414V25.1032H24.6355V24.7002H24.2297V25.1032H23.8238V24.7002H23.4179V25.1032H23.0103ZM24.0076 21.268C23.8932 21.268 23.7995 21.3597 23.7995 21.4739C23.7995 21.4825 23.7995 21.4894 23.8012 21.4981C23.8724 21.4842 23.9435 21.4773 24.0146 21.4773C24.0805 21.4773 24.1464 21.4842 24.2123 21.4963C24.2123 21.4894 24.214 21.4825 24.214 21.4756C24.2158 21.3614 24.1221 21.268 24.0076 21.268ZM24.0163 21.7368C23.6399 21.7368 23.3329 21.9669 23.3329 22.2489V22.3181H24.6997V22.2489C24.6997 21.9686 24.3927 21.7368 24.0163 21.7368ZM23.2826 23.6449H24.75V23.1588H23.2826V23.6449V23.6449ZM23.5515 24.4389H24.5002L24.4673 23.9027H23.5844L23.5515 24.4389ZM25.4473 25.8523H22.6045V27.0944H25.4473V25.8523ZM25.4473 27.3677H22.6045V28.9696H23.6295V28.096C23.6295 27.8556 23.7908 27.6376 24.0111 27.6376C24.2314 27.6376 24.3927 27.8556 24.3927 28.096V28.9696H25.4473V27.3677ZM24.3788 26.1671H23.6729V26.8574H24.3788V26.1671ZM32.7217 32.7893L32.7355 32.772L33.1206 33.0609L33.1275 33.3965L32.7113 33.0851L32.7217 32.7893ZM32.5274 38.5482L32.9905 38.8959H32.5534L32.517 38.8682L32.5274 38.5482ZM32.5499 37.9047L33.2802 38.4548L33.2871 38.7887L32.5378 38.2247L32.5499 37.9047ZM32.5708 37.2611L33.2628 37.7819L33.2715 38.1175L32.5604 37.5829L32.5708 37.2611ZM32.5933 36.6193L33.2437 37.1072L33.2541 37.4445L32.5829 36.9394L32.5933 36.6193ZM32.6141 35.9758L33.2212 36.4325L33.2316 36.7698L32.602 36.2976L32.6141 35.9758ZM32.6367 35.334L33.2004 35.7578L33.2108 36.0952L32.6263 35.6558L32.6367 35.334ZM32.6575 34.6905L33.1761 35.0814L33.1865 35.4188L32.6453 35.0122L32.6575 34.6905ZM32.68 34.0487L33.1553 34.4068L33.1657 34.7441L32.6679 34.3704L32.68 34.0487ZM22.5004 36.4308C21.2394 33.8636 21.7892 32.1025 23.6365 31.0611C22.7952 32.5627 23.9955 33.7684 25.7681 35.1679C24.5176 35.4274 23.3815 35.8028 22.5004 36.4308ZM25.3432 36.4861H24.7691C24.7725 36.4758 24.7725 36.4637 24.7725 36.4533V36.1384C24.7725 36.0658 24.7118 36.0052 24.639 36.0052H24.3216C24.2487 36.0052 24.188 36.0658 24.188 36.1384V36.4533C24.188 36.4654 24.1898 36.4758 24.1915 36.4861H22.8872C23.7596 35.9378 24.8263 35.6316 25.8202 35.4257L26.3717 35.3115L25.9294 34.9621C25.1455 34.3428 23.7388 33.2477 23.6295 32.1769C23.5948 31.824 23.692 31.4936 23.8637 31.1891L24.3216 30.3726L23.5046 30.8327C21.1926 32.1354 21.1683 34.2822 22.2315 36.4861H21.8968V36.2872H21.4493V36.4861H20.9463C20.8162 36.5882 20.8162 36.7162 20.9463 36.8685C22.3582 37.1037 23.8221 37.1037 25.3397 36.8685C25.4733 36.7404 25.4733 36.6124 25.3432 36.4861ZM32.7008 33.4051L33.1362 33.7321L33.1449 34.0677L32.6887 33.7252L32.7008 33.4051Z" fill="#FF9800"/>
</g>
<defs>
<clipPath id="clip0">
<rect x="10" y="3" width="36.875" height="50" fill="white"/>
</clipPath>
</defs>
</svg>
