<svg width="35" height="35" viewBox="0 0 35 35" fill="none" xmlns="http://www.w3.org/2000/svg">
<path d="M13.2617 22.5518V28.5605C13.2617 29.9141 12.6396 31.1582 11.5596 31.9648C10.8145 32.5254 9.93262 32.8125 9.03711 32.8125C8.63379 32.8125 8.22363 32.751 7.82715 32.6348L4.4502 31.6367C2.86426 31.1719 1.64062 29.8867 1.25781 28.2871C0.745117 26.1475 0 20.918 0 17.0693C0 9.56348 3.85547 5.63281 6.15234 3.96484C6.94531 3.38379 7.86816 3.07617 8.81836 3.07617C11.1836 3.07617 12.8857 4.5459 13.248 6.9043C13.3643 7.64941 12.8516 8.34668 12.1064 8.46289C11.3613 8.5791 10.6641 8.06641 10.5479 7.32129C10.3906 6.2959 9.84375 5.81738 8.8252 5.81738C8.45605 5.81738 8.10059 5.94043 7.76562 6.17969C5.46875 7.84082 2.73438 11.0879 2.73438 17.0693C2.73438 20.7129 3.43164 25.6348 3.91699 27.6445C4.07422 28.3008 4.57324 28.8271 5.21582 29.0117L8.59277 30.0098C9.05078 30.1465 9.53613 30.0576 9.91895 29.7705C10.3086 29.4834 10.5273 29.0391 10.5273 28.5537V22.5449C10.5273 21.793 11.1426 21.1777 11.8945 21.1777C12.6465 21.1777 13.2617 21.793 13.2617 22.5518ZM22.9004 8.46289C23.6455 8.5791 24.3428 8.06641 24.459 7.32129C24.6162 6.2959 25.1631 5.81738 26.1816 5.81738C26.5508 5.81738 26.9062 5.94043 27.2412 6.17969C29.5312 7.84082 32.2656 11.0879 32.2656 17.0693C32.2656 17.8213 32.8809 18.4365 33.6328 18.4365C34.3848 18.4365 35 17.8213 35 17.0693C35 9.55664 31.1445 5.63281 28.8477 3.95801C28.0547 3.37695 27.1318 3.06934 26.1816 3.06934C23.8164 3.06934 22.1143 4.53906 21.752 6.89746C21.6426 7.64941 22.1484 8.34668 22.9004 8.46289ZM35 26.3184C35 27.0703 34.3848 27.6855 33.6328 27.6855H32.6689C32.498 28.4648 32.1973 29.1895 31.7734 29.8389L32.4844 30.5498C33.0176 31.083 33.0176 31.9512 32.4844 32.4844C32.2178 32.751 31.8691 32.8877 31.5205 32.8877C31.1719 32.8877 30.8232 32.751 30.5566 32.4844L29.8457 31.7734C29.1963 32.1904 28.4717 32.498 27.6924 32.6689V33.6328C27.6924 34.3848 27.0771 35 26.3252 35C25.5732 35 24.958 34.3848 24.958 33.6328V32.6689C24.1787 32.498 23.4541 32.1973 22.8047 31.7734L22.0938 32.4844C21.8271 32.751 21.4785 32.8877 21.1299 32.8877C20.7812 32.8877 20.4326 32.751 20.166 32.4844C19.6328 31.9512 19.6328 31.083 20.166 30.5498L20.877 29.8389C20.46 29.1895 20.1523 28.4648 19.9814 27.6855H19.0039C18.252 27.6855 17.6367 27.0703 17.6367 26.3184C17.6367 25.5664 18.252 24.9512 19.0039 24.9512H19.9678C20.1387 24.1719 20.4395 23.4473 20.8633 22.7979L20.1523 22.0869C19.6191 21.5537 19.6191 20.6855 20.1523 20.1523C20.6855 19.6191 21.5537 19.6191 22.0869 20.1523L22.7979 20.8633C23.4473 20.4463 24.1719 20.1387 24.9512 19.9678V19.0039C24.9512 18.252 25.5664 17.6367 26.3184 17.6367C27.0703 17.6367 27.6855 18.252 27.6855 19.0039V19.9678C28.4648 20.1387 29.1895 20.4395 29.8389 20.8633L30.5498 20.1523C31.083 19.6191 31.9512 19.6191 32.4844 20.1523C33.0176 20.6855 33.0176 21.5537 32.4844 22.0869L31.7734 22.7979C32.1904 23.4473 32.498 24.1719 32.6689 24.9512H33.6328C34.3848 24.9512 35 25.5664 35 26.3184ZM30.0781 26.3184C30.0781 24.2471 28.3896 22.5586 26.3184 22.5586C24.2471 22.5586 22.5586 24.2471 22.5586 26.3184C22.5586 28.3896 24.2471 30.0781 26.3184 30.0781C28.3896 30.0781 30.0781 28.3896 30.0781 26.3184ZM28.0273 26.3184C28.0273 27.2617 27.2617 28.0273 26.3184 28.0273C25.375 28.0273 24.6094 27.2617 24.6094 26.3184C24.6094 25.375 25.375 24.6094 26.3184 24.6094C27.2617 24.6094 28.0273 25.375 28.0273 26.3184ZM28.1709 13.1387C26.6396 12.8994 24.1992 12.1953 22.21 11.1562C20.959 10.5068 18.8672 9.17383 18.8672 7.58105V1.36719C18.8672 0.615234 18.252 0 17.5 0C16.748 0 16.1328 0.615234 16.1328 1.36719V7.58105C16.1328 9.18066 14.041 10.5068 12.79 11.1562C10.8008 12.1953 8.36035 12.8994 6.8291 13.1387C6.08398 13.2549 5.57129 13.9521 5.6875 14.6973C5.79004 15.374 6.37109 15.8525 7.03418 15.8525C7.64941 15.8525 8.46973 15.6064 9.2627 15.3945C8.90039 16.4883 8.28516 17.6572 7.30762 18.2178C6.65137 18.5938 6.42578 19.4277 6.80176 20.084C7.05469 20.5215 7.5127 20.7676 7.99121 20.7676C8.22363 20.7676 8.45605 20.7061 8.6748 20.583C11.2246 19.1133 12.0654 15.8799 12.3252 14.3623C14.2666 13.5693 16.2354 12.4551 17.4932 10.9854C20.043 13.959 26.7217 15.8457 27.9521 15.8457C28.6152 15.8457 29.1963 15.3604 29.2988 14.6904C29.4287 13.959 28.916 13.2549 28.1709 13.1387Z" fill="black" fill-opacity="0.54"/>
</svg>
