<svg width="128" height="128" viewBox="0 0 128 128" fill="none" xmlns="http://www.w3.org/2000/svg">
<path fill-rule="evenodd" clip-rule="evenodd" d="M128 64C128 80.9739 121.257 97.2525 109.255 109.255C97.2525 121.257 80.9739 128 64 128C47.0261 128 30.7475 121.257 18.7452 109.255C6.74284 97.2525 0 80.9739 0 64C0 47.0261 6.74284 30.7475 18.7452 18.7452C30.7475 6.74284 47.0261 0 64 0C80.9739 0 97.2525 6.74284 109.255 18.7452C121.257 30.7475 128 47.0261 128 64ZM96.24 39.76C95.6686 39.1905 94.9881 38.7422 94.2394 38.4417C93.4908 38.1413 92.6892 37.9949 91.8826 38.0113C91.076 38.0277 90.281 38.2066 89.5452 38.5373C88.8094 38.868 88.1478 39.3438 87.6 39.936L59.816 75.336L43.072 58.584C41.9346 57.5242 40.4302 56.9472 38.8758 56.9746C37.3214 57.002 35.8383 57.6317 34.739 58.731C33.6397 59.8303 33.01 61.3134 32.9826 62.8678C32.9552 64.4222 33.5322 65.9266 34.592 67.064L55.76 88.24C56.3303 88.8092 57.0093 89.2577 57.7567 89.5588C58.504 89.8599 59.3044 90.0074 60.11 89.9925C60.9156 89.9775 61.7099 89.8005 62.4456 89.4719C63.1813 89.1433 63.8432 88.67 64.392 88.08L96.328 48.16C97.4167 47.028 98.0182 45.5142 98.0033 43.9437C97.9883 42.3731 97.3581 40.8711 96.248 39.76H96.24Z" fill="white"/>
</svg>
