<svg width="60" height="36" viewBox="0 0 60 36" fill="none" xmlns="http://www.w3.org/2000/svg">
<path d="M58.3439 8.36251L32.1933 0.328131C30.7683 -0.109682 29.2308 -0.109682 27.8067 0.328131L1.65516 8.36251C-0.551719 9.04032 -0.551719 11.9588 1.65516 12.6366L6.21422 14.0372C5.21391 15.2738 4.59891 16.7822 4.53797 18.4341C3.63516 18.9516 2.99953 19.8853 2.99953 21C2.99953 22.0106 3.53203 22.8609 4.29891 23.4047L1.90547 34.1747C1.69734 35.1113 2.40984 36 3.36891 36H8.62922C9.58922 36 10.3017 35.1113 10.0936 34.1747L7.70016 23.4047C8.46703 22.8609 8.99953 22.0106 8.99953 21C8.99953 19.9153 8.39297 19.0078 7.53141 18.4809C7.60266 17.0728 8.32266 15.8278 9.47109 15.0384L27.8058 20.6719C28.6552 20.9325 30.2845 21.2578 32.1923 20.6719L58.3439 12.6375C60.5517 11.9588 60.5517 9.04126 58.3439 8.36251ZM33.0736 23.5397C30.3989 24.3609 28.1198 23.9072 26.9245 23.5397L13.3289 19.3631L11.9995 30C11.9995 33.3141 20.0583 36 29.9995 36C39.9408 36 47.9995 33.3141 47.9995 30L46.6702 19.3622L33.0736 23.5397Z" fill="#4CAF50"/>
</svg>
