<svg width="42" height="42" viewBox="0 0 42 42" fill="none" xmlns="http://www.w3.org/2000/svg">
<path d="M21.07 4.375L16.6775 8.75H25.4275L21.07 4.375ZM7 12.25V35H35V12.25H7ZM21 0L29.75 8.75H35C35.9283 8.75 36.8185 9.11875 37.4749 9.77513C38.1312 10.4315 38.5 11.3217 38.5 12.25V35C38.5 35.9283 38.1312 36.8185 37.4749 37.4749C36.8185 38.1312 35.9283 38.5 35 38.5H7C6.07174 38.5 5.1815 38.1312 4.52513 37.4749C3.86875 36.8185 3.5 35.9283 3.5 35V12.25C3.5 11.3217 3.86875 10.4315 4.52513 9.77513C5.1815 9.11875 6.07174 8.75 7 8.75H12.25L21 0ZM12.25 31.5V24.5H21V31.5H12.25ZM24.5 29.75V17.5H31.5V29.75H24.5ZM10.5 21V15.75H19.25V21H10.5Z" fill="black" fill-opacity="0.6"/>
</svg>
