<svg width="42" height="42" viewBox="0 0 42 42" fill="none" xmlns="http://www.w3.org/2000/svg">
<path d="M33.25 5.25H8.75C6.81975 5.25 5.25 6.81975 5.25 8.75V33.25C5.25 35.1803 6.81975 36.75 8.75 36.75H22.75C22.9799 36.7503 23.2075 36.7052 23.4198 36.6172C23.6322 36.5292 23.825 36.4001 23.9872 36.2373L36.2373 23.9872C36.3811 23.8381 36.4973 23.6644 36.5802 23.4745C36.6047 23.422 36.6188 23.3678 36.638 23.3118C36.6878 23.1653 36.7178 23.0129 36.7272 22.8585C36.7307 22.8218 36.75 22.7868 36.75 22.75V8.75C36.75 6.81975 35.1803 5.25 33.25 5.25ZM8.75 8.75H33.25V21H22.75C22.2859 21 21.8408 21.1844 21.5126 21.5126C21.1844 21.8408 21 22.2859 21 22.75V33.25H8.75V8.75ZM24.5 30.7755V24.5H30.7755L24.5 30.7755Z" fill="black" fill-opacity="0.6"/>
</svg>
