<svg width="200" height="154" viewBox="0 0 200 154" fill="none" xmlns="http://www.w3.org/2000/svg">
<path d="M199.5 91.5L139 53L133.5 61L194.5 99.5L199.5 91.5Z" fill="#C4C4C4"/>
<path d="M119.577 147.699C119.577 150.618 92.7753 150.929 59.7885 152.984C26.8325 155.038 0 150.618 0 147.699C0 144.78 26.9561 138.906 59.7885 142.413C92.7753 145.937 119.577 144.78 119.577 147.699Z" fill="#E6E6E6"/>
<path d="M163 80L109.5 80.5L112 147.5H160.5L163 80Z" fill="#C4C4C4"/>
<path d="M160.953 148H111.597L111.588 147.722L109.231 80.0664H163.319L160.953 148ZM112.151 147.424H160.4L162.726 80.6418H109.824L112.151 147.424Z" fill="#3F3D56"/>
<path d="M123.371 92.6025H119.617V139.234H123.371V92.6025Z" fill="#3F3D56"/>
<path d="M138.152 92.6025H134.398V139.234H138.152V92.6025Z" fill="#3F3D56"/>
<path d="M152.934 92.6025H149.18V139.234H152.934V92.6025Z" fill="#3F3D56"/>
<path d="M194.682 99.9337L194.44 99.78L133.134 60.891L138.451 52.4443L138.694 52.598L200 91.4868L194.682 99.9337ZM133.924 60.7121L194.504 99.1398L199.209 91.6661L138.63 53.238L133.924 60.7121Z" fill="#3F3D56"/>
<path d="M179.881 57.7569C178.099 56.6249 176.03 56.0298 173.922 56.0422C171.813 56.0546 169.752 56.6741 167.983 57.827C166.214 58.98 164.812 60.6181 163.943 62.5469C163.074 64.4757 162.775 66.6142 163.08 68.7088L166.004 70.5631C165.269 68.8509 165.1 66.9475 165.521 65.1318C165.942 63.316 166.931 61.6832 168.343 60.4724C169.755 59.2617 171.517 58.5366 173.369 58.4033C175.222 58.27 177.068 58.7356 178.638 59.7318C180.208 60.728 181.419 62.2025 182.093 63.9395C182.768 65.6764 182.871 67.5846 182.387 69.3845C181.903 71.1844 180.858 72.7815 179.404 73.942C177.951 75.1025 176.165 75.7654 174.309 75.8336L177.232 77.688C179.248 77.0668 181.045 75.878 182.408 74.2628C183.771 72.6475 184.644 70.6737 184.923 68.5754C185.202 66.4771 184.876 64.3425 183.982 62.4249C183.089 60.5073 181.666 58.8873 179.883 57.7569H179.881Z" fill="#3F3D56"/>
<path d="M48.379 46.7096L54.7817 59.3469L73.9261 68.024C75.9706 71.4687 82.4671 71.7324 82.9396 69.5048C83.4696 67.0057 75.0505 62.9835 75.0505 62.9835L59.0378 52.1854L57.6367 42.8896L48.379 46.7096Z" fill="#A0616A"/>
<path d="M49.1342 131.517L47.9535 140.934L54.8021 141.405L55.5104 131.517H49.1342Z" fill="#A0616A"/>
<path d="M50.079 139.522C49.4668 138.876 48.902 138.188 48.389 137.461C47.4075 136.107 46.5367 143.054 46.5367 143.054C46.5367 143.054 45.592 145.879 45.8282 147.292C46.0643 148.704 51.496 148.704 52.4406 148.469C53.3852 148.233 58.1083 148.469 58.1083 148.469H65.193C71.3331 145.643 65.193 143.76 65.193 143.76C63.3038 143.524 56.9275 137.638 56.9275 137.638L55.5106 135.048C54.566 134.813 53.6213 138.345 53.6213 138.345L50.079 139.522Z" fill="#2F2E41"/>
<path d="M31.4226 131.634L30.2416 141.052L37.0902 141.523L37.7988 131.634H31.4226Z" fill="#A0616A"/>
<path d="M32.3673 139.639C31.7551 138.994 31.1903 138.305 30.6774 137.579C29.6959 136.224 28.825 143.171 28.825 143.171C28.825 143.171 27.8804 145.761 28.1165 147.173C28.3527 148.586 33.7843 148.586 34.7289 148.35C35.6735 148.115 40.3966 148.586 40.3966 148.586H47.4813C53.6214 145.761 47.4813 143.877 47.4813 143.877C45.5921 143.642 39.2159 137.755 39.2159 137.755L37.7989 135.166C36.8543 134.93 35.9097 138.462 35.9097 138.462L32.3673 139.639Z" fill="#2F2E41"/>
<path d="M39.2159 70.8894C38.2712 72.0666 38.7435 76.0692 38.7435 76.0692C38.7435 76.0692 37.0904 89.0187 37.7989 90.1959C38.5074 91.3731 37.3266 92.3149 36.6181 93.963C35.9096 95.6111 35.2012 99.6137 35.2012 99.6137C31.1865 102.91 31.4227 117.978 31.4227 117.978L30.0057 131.399C30.478 132.811 37.0904 133.047 38.0351 132.811C38.9797 132.576 41.8136 111.386 41.8136 111.386L48.1898 99.3782C48.1898 99.3782 47.7175 131.399 47.7175 132.811C47.7175 134.224 54.0937 133.518 55.5106 133.518C56.9276 133.518 56.9276 109.973 56.9276 109.973L58.3445 103.852L65.9015 75.8338V72.5375L64.7207 70.8894C64.7207 70.8894 40.1605 69.7122 39.2159 70.8894Z" fill="#2F2E41"/>
<path d="M49.6067 17.4433C53.6499 17.4433 56.9276 14.1755 56.9276 10.1445C56.9276 6.11348 53.6499 2.8457 49.6067 2.8457C45.5635 2.8457 42.2859 6.11348 42.2859 10.1445C42.2859 14.1755 45.5635 17.4433 49.6067 17.4433Z" fill="#A0616A"/>
<path d="M53.2671 13.5586C51.7832 16.853 52.6619 21.4546 55.6287 26.508L43.5847 20.8574L45.474 19.2093L45.0017 14.5004L53.2671 13.5586Z" fill="#A0616A"/>
<path d="M53.2672 21.0926C54.8443 22.0274 55.7878 23.745 56.3294 25.4928C57.3321 28.7286 57.9356 32.0742 58.1267 35.4556L58.6988 45.5788L65.7835 72.4195C59.6434 77.5992 56.101 76.422 47.8356 72.184C39.5701 67.946 38.6255 73.5967 38.6255 73.5967C38.6255 73.5967 37.917 73.3612 38.6255 72.6549C39.334 71.9486 38.6255 72.6549 37.917 71.9486C37.2086 71.2422 37.917 71.9486 38.1532 71.2422C38.3894 70.5359 38.1532 71.0068 37.917 70.7713C37.6809 70.5359 38.8617 68.4169 38.8617 68.4169L36.9724 50.7585L34.6108 25.8014C37.4447 22.2698 45.474 19.209 45.474 19.209L52.7949 24.3887C55.1564 25.3305 53.2672 21.5634 53.2672 21.5634L53.2672 21.0926Z" fill="#1A237E"/>
<path d="M30.7141 40.752L29.7695 54.8786L41.8135 72.0661C41.8135 76.0686 43.9389 77.0104 43.9389 77.0104C44.7439 75.7295 45.4543 74.3917 46.0643 73.0078C47.2451 70.418 45.3558 68.299 45.3558 68.299L37.0904 50.8761L40.6327 42.1646L30.7141 40.752Z" fill="#A0616A"/>
<path d="M34.7289 25.9192C30.7142 27.3318 30.0057 42.6357 30.0057 42.6357C34.7289 40.0459 40.3966 44.2839 40.3966 44.2839C40.3966 44.2839 41.5773 40.2813 42.9943 35.1015C43.4221 33.6445 43.4733 32.1033 43.1429 30.6213C42.8126 29.1393 42.1116 27.7647 41.1051 26.6255C41.1051 26.6255 38.7435 24.5065 34.7289 25.9192Z" fill="#1A237E"/>
<path d="M42.8762 12.3817C43.8082 11.6384 45.0796 12.9896 45.0796 12.9896L45.8252 6.29956C45.8252 6.29956 50.4851 6.85708 53.4674 6.11373C56.4498 5.37039 56.9157 8.80832 56.9157 8.80832C57.0695 7.41997 57.1007 6.02085 57.0089 4.62706C56.8225 2.95456 54.3994 1.28205 50.1123 0.16705C45.8252 -0.947946 43.5885 3.88373 43.5885 3.88373C40.6061 5.3704 41.9442 13.1251 42.8762 12.3817Z" fill="#2F2E41"/>
<path d="M98.3794 92.2131L74.3051 75.2767C74.0814 75.1187 73.9292 74.8782 73.8818 74.6078C73.8345 74.3374 73.8958 74.0592 74.0523 73.8341L92.9478 46.7716C93.1052 46.5471 93.3448 46.3943 93.6142 46.3467C93.8836 46.2992 94.1607 46.3607 94.385 46.5178L118.459 63.4542C118.683 63.6122 118.835 63.8527 118.883 64.1231C118.93 64.3935 118.869 64.6717 118.712 64.8968L99.8171 91.9586C99.6598 92.1834 99.4201 92.3364 99.1506 92.3841C98.8811 92.4318 98.6038 92.3703 98.3794 92.2131Z" fill="#1A237E"/>
<path d="M103.793 73.8355L89.667 63.8976C89.5037 63.7827 89.3644 63.6366 89.2573 63.4676C89.1502 63.2987 89.0773 63.1102 89.0427 62.913C89.0082 62.7158 89.0127 62.5137 89.0559 62.3182C89.0992 62.1227 89.1804 61.9377 89.2949 61.7737C89.4094 61.6097 89.5549 61.47 89.7232 61.3625C89.8915 61.255 90.0793 61.1818 90.2758 61.1471C90.4722 61.1124 90.6736 61.1169 90.8683 61.1603C91.0631 61.2037 91.2474 61.2852 91.4108 61.4002L105.537 71.3381C105.867 71.5702 106.092 71.9244 106.161 72.3227C106.231 72.721 106.141 73.1308 105.909 73.462C105.678 73.7932 105.325 74.0186 104.928 74.0886C104.532 74.1587 104.123 74.0677 103.793 73.8355Z" fill="white"/>
<path d="M100.551 78.4799L86.4249 68.5419C86.2614 68.4271 86.122 68.281 86.0147 68.112C85.9074 67.9431 85.8344 67.7545 85.7997 67.5572C85.765 67.3599 85.7694 67.1577 85.8127 66.9621C85.8559 66.7665 85.9372 66.5814 86.0517 66.4173C86.1663 66.2532 86.3119 66.1134 86.4803 66.0059C86.6488 65.8983 86.8366 65.8251 87.0332 65.7905C87.2298 65.7559 87.4313 65.7605 87.6261 65.8041C87.821 65.8477 88.0053 65.9294 88.1687 66.0445L102.295 75.9824C102.625 76.2147 102.849 76.5688 102.918 76.9669C102.988 77.365 102.897 77.7746 102.666 78.1056C102.435 78.4366 102.082 78.6619 101.686 78.7321C101.289 78.8023 100.881 78.7116 100.551 78.4799Z" fill="white"/>
<path d="M97.2745 83.1725L83.1481 73.2345C82.9847 73.1196 82.8455 72.9735 82.7384 72.8046C82.6313 72.6356 82.5584 72.4472 82.5238 72.2499C82.4893 72.0527 82.4937 71.8506 82.537 71.6551C82.5803 71.4596 82.6615 71.2746 82.776 71.1106C82.8904 70.9467 83.036 70.8069 83.2043 70.6994C83.3726 70.5919 83.5604 70.5187 83.7568 70.484C83.9533 70.4493 84.1547 70.4538 84.3494 70.4972C84.5442 70.5407 84.7285 70.6222 84.8919 70.7371L99.0183 80.675C99.3482 80.9072 99.5727 81.2613 99.6425 81.6596C99.7123 82.0579 99.6216 82.4678 99.3904 82.7989C99.1592 83.1301 98.8063 83.3555 98.4095 83.4256C98.0127 83.4956 97.6044 83.4046 97.2745 83.1725V83.1725Z" fill="white"/>
<path d="M103.754 64.65L98.2822 60.8007C98.1187 60.6859 97.9793 60.5398 97.872 60.3708C97.7647 60.2019 97.6917 60.0133 97.657 59.816C97.6223 59.6187 97.6267 59.4165 97.67 59.2209C97.7132 59.0253 97.7945 58.8401 97.909 58.6761C98.0236 58.512 98.1692 58.3722 98.3377 58.2646C98.5061 58.1571 98.6939 58.0839 98.8905 58.0493C99.0871 58.0147 99.2886 58.0193 99.4834 58.0629C99.6783 58.1065 99.8626 58.1881 100.026 58.3033L105.498 62.1525C105.827 62.3846 106.052 62.7388 106.122 63.1371C106.192 63.5354 106.101 63.9452 105.87 64.2764C105.638 64.6076 105.286 64.833 104.889 64.9031C104.492 64.9731 104.084 64.8821 103.754 64.65Z" fill="white"/>
</svg>
