<svg width="116" height="48" viewBox="0 0 116 48" fill="none" xmlns="http://www.w3.org/2000/svg">
<path fill-rule="evenodd" clip-rule="evenodd" d="M58.2969 24.3943C58.3991 24.6269 58.5466 24.8292 58.7269 24.9984C58.9102 25.1736 59.1327 25.3095 59.3853 25.4091C59.6408 25.5117 59.9173 25.5602 60.2179 25.5602C60.5306 25.5602 60.8192 25.5117 61.0807 25.4091C61.3394 25.3095 61.5648 25.1736 61.7542 24.9923C61.9405 24.8141 62.0878 24.6057 62.19 24.3671C62.2922 24.1255 62.3494 23.8597 62.3494 23.5698C62.3494 23.301 62.2922 23.0443 62.19 22.8088C62.0878 22.5731 61.9405 22.3737 61.7572 22.2046C61.5738 22.0354 61.3574 21.8966 61.1048 21.7938C60.8523 21.6912 60.5757 21.6338 60.2751 21.6338C59.9535 21.6338 59.6618 21.6912 59.4003 21.7938C59.1356 21.8966 58.9102 22.0385 58.7269 22.2107C58.5466 22.3828 58.3991 22.5912 58.2969 22.8358C58.1918 23.0835 58.1406 23.3463 58.1406 23.6242C58.1406 23.9081 58.1918 24.1617 58.2969 24.3943ZM58.5825 41.6187C58.5825 42.0807 58.7178 42.4402 58.9914 42.6938C59.265 42.9505 59.6768 43.0774 60.2361 43.0774C60.7892 43.0774 61.207 42.9505 61.4806 42.6938C61.7542 42.4402 61.8895 42.0807 61.8895 41.6187V29.42C61.8895 28.9579 61.7542 28.6046 61.4806 28.3539C61.207 28.1032 60.7892 27.9764 60.2361 27.9764C59.6768 27.9764 59.265 28.1032 58.9914 28.3539C58.7178 28.6046 58.5825 28.9579 58.5825 29.42V41.6187Z" fill="#333333"/>
<path fill-rule="evenodd" clip-rule="evenodd" d="M64.6886 30.7006C64.9532 31.2986 65.3049 31.809 65.7409 32.2318C66.1798 32.6576 66.6758 33.0019 67.2409 33.2767C67.8001 33.5486 68.3714 33.7992 68.9545 34.0228C69.5377 34.2432 70.106 34.4516 70.6681 34.6479C71.2273 34.8473 71.7263 35.0678 72.1623 35.3245C72.6011 35.5782 72.9529 35.8802 73.2144 36.2306C73.479 36.5779 73.6143 37.0189 73.6143 37.5474C73.6143 37.9159 73.539 38.2511 73.3978 38.5561C73.2565 38.8673 73.04 39.1331 72.7605 39.3505C72.472 39.5709 72.1111 39.7461 71.6753 39.8669C71.2333 39.9968 70.7162 40.0572 70.121 40.0572C69.4115 40.0572 68.8282 40.0089 68.3714 39.9152C67.9113 39.8216 67.5266 39.7159 67.2109 39.6041C66.8983 39.4955 66.6307 39.3928 66.4083 39.2961C66.1888 39.2025 65.9543 39.1512 65.7077 39.1512C65.2959 39.1512 64.9563 39.275 64.6947 39.5197C64.4271 39.7642 64.2949 40.1086 64.2949 40.5526C64.2949 40.8304 64.3369 41.072 64.4271 41.2714C64.5143 41.4677 64.6647 41.67 64.872 41.8695C65.0224 42.0386 65.2448 42.2076 65.5365 42.3888C65.825 42.5671 66.1888 42.7332 66.6156 42.878C67.0396 43.0262 67.5326 43.144 68.0917 43.2375C68.648 43.3312 69.2792 43.3795 69.9737 43.3795C71.2693 43.3795 72.4118 43.2195 73.3948 42.9083C74.3718 42.5973 75.1865 42.1562 75.8449 41.5945C76.4972 41.0388 76.9902 40.3743 77.324 39.5981C77.6547 38.831 77.823 37.9914 77.823 37.0733C77.823 36.1823 77.6877 35.4242 77.4232 34.7959C77.1616 34.1677 76.8099 33.6331 76.3679 33.1952C75.9261 32.7603 75.424 32.398 74.8678 32.1051C74.3086 31.8181 73.7406 31.5674 73.1632 31.3499C72.5801 31.1325 72.0119 30.9362 71.4588 30.7459C70.8996 30.5585 70.4006 30.3443 69.9586 30.1086C69.5198 29.873 69.162 29.5951 68.8975 29.2659C68.6358 28.9338 68.5036 28.523 68.5036 28.0337C68.5036 27.7226 68.5607 27.4297 68.6809 27.1608C68.8043 26.895 68.9936 26.6655 69.2491 26.4723C69.5047 26.2759 69.8293 26.1249 70.2141 26.0222C70.5989 25.9196 71.0589 25.8621 71.594 25.8621C72.1713 25.8621 72.6613 25.9105 73.061 26.004C73.4549 26.0977 73.7977 26.2004 74.0832 26.3151C74.3659 26.4268 74.6183 26.5326 74.8348 26.6262C75.0512 26.7198 75.2827 26.7683 75.5262 26.7683C75.9291 26.7683 76.2627 26.6504 76.5273 26.4057C76.7888 26.1582 76.9211 25.8138 76.9211 25.3669C76.9211 25.101 76.8851 24.8715 76.8099 24.6721C76.7347 24.4758 76.5934 24.2675 76.3769 24.05C76.2178 23.8717 76.0012 23.6875 75.7186 23.5032C75.436 23.3191 75.1024 23.153 74.7085 23.011C74.3147 22.8691 73.8667 22.7574 73.3707 22.6728C72.8686 22.5881 72.3126 22.5398 71.7083 22.5398C70.4848 22.5398 69.4145 22.6909 68.4946 22.9869C67.5687 23.289 66.7931 23.7057 66.1739 24.2433C65.5485 24.7809 65.0795 25.4151 64.7638 26.1461C64.4511 26.877 64.2949 27.6682 64.2949 28.52C64.2949 29.3778 64.4271 30.1056 64.6886 30.7006V30.7006Z" fill="#333333"/>
<path fill-rule="evenodd" clip-rule="evenodd" d="M79.9268 35.1494C79.9268 36.5023 80.1011 37.6923 80.459 38.7223C80.8107 39.7492 81.3307 40.61 82.0162 41.2985C82.7016 41.9871 83.5523 42.5066 84.5685 42.8569C85.5815 43.2013 86.7509 43.3795 88.0827 43.3795C89.4025 43.3795 90.5809 43.1952 91.6241 42.8329C92.6612 42.4644 93.539 41.9176 94.2545 41.1899C94.967 40.462 95.5111 39.5559 95.893 38.4716C96.2686 37.3873 96.4612 36.1157 96.4612 34.6721V24.3671C96.4612 23.7812 96.2868 23.3312 95.941 23.0171C95.5923 22.7 95.0602 22.5398 94.3478 22.5398C93.6323 22.5398 93.1031 22.7 92.7634 23.0171C92.4208 23.3312 92.2523 23.7812 92.2523 24.361V35.0798C92.2523 35.9376 92.1531 36.6775 91.9577 37.2998C91.7594 37.925 91.4827 38.4444 91.131 38.8491C90.7764 39.26 90.3584 39.5619 89.8804 39.7613C89.3964 39.9575 88.8703 40.0572 88.3021 40.0572C87.6919 40.0572 87.1326 39.9546 86.6246 39.7461C86.1136 39.5377 85.6716 39.2115 85.3019 38.7676C84.9262 38.3266 84.6377 37.7589 84.4362 37.0702C84.2347 36.3845 84.1356 35.5631 84.1356 34.6026V24.361C84.1356 23.7812 83.9612 23.3312 83.6245 23.0171C83.2818 22.7 82.7558 22.5398 82.0403 22.5398C81.3277 22.5398 80.7956 22.7 80.4469 23.0171C80.1011 23.3312 79.9268 23.7812 79.9268 24.3671V35.1494V35.1494Z" fill="#333333"/>
<path fill-rule="evenodd" clip-rule="evenodd" d="M99.2602 30.7006C99.5246 31.2986 99.8764 31.809 100.312 32.2318C100.751 32.6576 101.247 33.0019 101.812 33.2767C102.372 33.5486 102.943 33.7992 103.526 34.0228C104.109 34.2432 104.677 34.4516 105.24 34.6479C105.799 34.8473 106.298 35.0678 106.734 35.3245C107.173 35.5782 107.524 35.8802 107.786 36.2306C108.05 36.5779 108.186 37.0189 108.186 37.5474C108.186 37.9159 108.111 38.2511 107.969 38.5561C107.828 38.8673 107.611 39.1331 107.332 39.3505C107.043 39.5709 106.683 39.7461 106.247 39.8669C105.805 39.9968 105.288 40.0572 104.692 40.0572C103.983 40.0572 103.4 40.0089 102.943 39.9152C102.483 39.8216 102.098 39.7159 101.782 39.6041C101.47 39.4955 101.202 39.3928 100.98 39.2961C100.76 39.2025 100.526 39.1512 100.279 39.1512C99.8674 39.1512 99.5277 39.275 99.2661 39.5197C98.9986 39.7642 98.8662 40.1086 98.8662 40.5526C98.8662 40.8304 98.9083 41.072 98.9986 41.2714C99.0858 41.4677 99.2361 41.67 99.4436 41.8695C99.5938 42.0386 99.8163 42.2076 100.108 42.3888C100.397 42.5671 100.76 42.7332 101.187 42.878C101.611 43.0262 102.104 43.144 102.663 43.2375C103.219 43.3312 103.851 43.3795 104.545 43.3795C105.841 43.3795 106.983 43.2195 107.966 42.9083C108.943 42.5973 109.758 42.1562 110.416 41.5945C111.069 41.0388 111.562 40.3743 111.895 39.5981C112.226 38.831 112.394 37.9914 112.394 37.0733C112.394 36.1823 112.259 35.4242 111.995 34.7959C111.733 34.1677 111.381 33.6331 110.939 33.1952C110.498 32.7603 109.995 32.398 109.439 32.1051C108.88 31.8181 108.312 31.5674 107.735 31.3499C107.152 31.1325 106.583 30.9362 106.03 30.7459C105.471 30.5585 104.972 30.3443 104.53 30.1086C104.091 29.873 103.733 29.5951 103.469 29.2659C103.207 28.9338 103.075 28.523 103.075 28.0337C103.075 27.7226 103.132 27.4297 103.252 27.1608C103.376 26.895 103.565 26.6655 103.821 26.4723C104.076 26.2759 104.401 26.1249 104.786 26.0222C105.17 25.9196 105.63 25.8621 106.166 25.8621C106.743 25.8621 107.233 25.9105 107.632 26.004C108.026 26.0977 108.369 26.2004 108.655 26.3151C108.937 26.4268 109.19 26.5326 109.406 26.6262C109.623 26.7198 109.854 26.7683 110.098 26.7683C110.5 26.7683 110.834 26.6504 111.099 26.4057C111.36 26.1582 111.493 25.8138 111.493 25.3669C111.493 25.101 111.456 24.8715 111.381 24.6721C111.306 24.4758 111.165 24.2675 110.948 24.05C110.789 23.8717 110.573 23.6875 110.29 23.5032C110.007 23.3191 109.674 23.153 109.28 23.011C108.886 22.8691 108.438 22.7574 107.942 22.6728C107.44 22.5881 106.884 22.5398 106.28 22.5398C105.056 22.5398 103.986 22.6909 103.066 22.9869C102.14 23.289 101.365 23.7057 100.745 24.2433C100.12 24.7809 99.6509 25.4151 99.3353 26.1461C99.0227 26.877 98.8662 27.6682 98.8662 28.52C98.8662 29.3778 98.9986 30.1056 99.2602 30.7006V30.7006Z" fill="#333333"/>
<path fill-rule="evenodd" clip-rule="evenodd" d="M48.3828 11.3125L43.3129 14.2532C43.8645 15.4717 44.1794 16.82 44.1794 18.2458C44.1794 20.4425 43.4454 22.4625 42.2163 24.0822C41.8188 24.6059 41.3702 25.0908 40.8767 25.5236L36.475 29.9457L36.4746 29.9461L41.7184 32.9877L41.7192 32.9869L44.8881 29.8032C46.6555 28.2097 47.9968 26.2429 48.8726 24.0831C49.6163 22.2462 50.0282 20.2721 50.0282 18.2458C50.0282 15.7526 49.4262 13.4028 48.3828 11.3125V11.3125Z" fill="#FB6B00"/>
<path fill-rule="evenodd" clip-rule="evenodd" d="M26.3658 5.05317V13.198C24.6727 10.4326 21.642 8.58125 18.1725 8.58125C17.9375 8.58125 17.7078 8.59922 17.4772 8.61644C13.8831 8.87506 10.8416 11.1122 9.41951 14.2534L4.34863 11.3121C6.33767 7.32625 9.97579 4.32304 14.3648 3.20088C15.5859 2.88816 16.8563 2.70422 18.1725 2.70422C21.136 2.70422 23.9558 3.53706 26.3658 5.05317V5.05317Z" fill="#B702FF"/>
<path fill-rule="evenodd" clip-rule="evenodd" d="M48.3827 11.3126L43.3129 14.2532L43.3126 14.2527C41.8896 11.1115 38.8472 8.87506 35.2539 8.61644C35.0233 8.59922 34.7936 8.58125 34.5585 8.58125C31.0892 8.58125 28.0591 10.4326 26.3662 13.198V13.198V5.05317V5.05324C28.7761 3.53706 31.5951 2.70422 34.5585 2.70422C35.8748 2.70422 37.1451 2.88816 38.3663 3.20088C42.7555 4.3231 46.3935 7.32644 48.3826 11.3124L48.3827 11.3126V11.3126Z" fill="#E40603"/>
<path fill-rule="evenodd" clip-rule="evenodd" d="M41.7184 32.9876L36.4746 29.9461L32.2024 34.238L27.2437 39.2204C27.0113 39.4529 26.6954 39.5845 26.3671 39.5845H26.3662V45.4615H26.3671C28.2565 45.4615 30.034 44.7224 31.3798 43.3756L35.2307 39.507L41.7184 32.9876Z" fill="#FFC024"/>
<path fill-rule="evenodd" clip-rule="evenodd" d="M26.3664 45.4615V39.5845C26.0371 39.5845 25.7213 39.4529 25.4879 39.2204L20.5309 34.2389L16.2585 29.9465L16.2581 29.9461L11.0137 32.988L11.0144 32.9886L17.503 39.5088L21.3582 43.3811C22.6977 44.7224 24.4759 45.4615 26.3664 45.4615V45.4615Z" fill="#019205"/>
<path fill-rule="evenodd" clip-rule="evenodd" d="M9.41984 14.2534L4.34895 11.3121L4.34883 11.3124C3.30615 13.4036 2.7041 15.7526 2.7041 18.2458C2.7041 20.2721 3.11586 22.247 3.86062 24.0831C4.73543 26.2429 6.07666 28.2097 7.8433 29.8032L11.0134 32.9881L16.2578 29.9461L11.8557 25.5235C11.3622 25.0908 10.9144 24.6077 10.517 24.0831C9.28687 22.4625 8.55297 20.4433 8.55297 18.2458C8.55297 16.8207 8.86791 15.4714 9.41971 14.2535L9.41984 14.2534V14.2534Z" fill="#0089C7"/>
<path d="M12.2347 22.2009L14.9515 19.5035C15.301 19.1566 15.8409 19.1864 16.1572 19.5696C16.2363 19.6657 16.2939 19.7747 16.3304 19.8897L16.3312 19.8892L17.7878 24.4557L20.4954 14.0538C20.6249 13.5547 21.0987 13.2652 21.5536 13.4072C21.8849 13.5106 22.1148 13.8143 22.1654 14.1643L24.9113 27.3589L27.2 18.1064C27.3239 17.6054 27.7947 17.3094 28.2516 17.4453C28.4966 17.5181 28.6877 17.7004 28.7932 17.9311L31.0624 22.2009H33.4247C33.6959 21.5541 34.2918 21.1049 34.9833 21.1049C35.9302 21.1049 36.6979 21.9471 36.6979 22.9859C36.6979 24.0248 35.9302 24.8668 34.9833 24.8668C34.409 24.8668 33.9008 24.5572 33.5896 24.0819H30.5721V24.0797C30.2771 24.0794 29.9904 23.9117 29.8319 23.6116L28.3188 20.7642L25.6682 31.4794L25.6659 31.4787C25.5856 31.8031 25.3483 32.0691 25.0285 32.148C24.568 32.2617 24.1108 31.9443 24.0071 31.4389L21.2278 18.0842L18.6953 27.8138L18.6935 27.8133C18.6197 28.0966 18.4257 28.3376 18.1528 28.442C17.707 28.6124 17.2198 28.3541 17.0644 27.8652L15.1425 21.8399L13.1914 23.7769C13.0346 23.9643 12.8096 24.0819 12.5595 24.0819L3.86619 24.0957L3.8611 24.0831C3.61243 23.4701 3.40096 22.8416 3.22949 22.2009H12.2347V22.2009Z" fill="#0089C7"/>
</svg>
