<svg viewBox="0 0 60 60" fill="none" xmlns="http://www.w3.org/2000/svg">
<path d="M51.6329 48.1641L38.7892 23.3086V12.4219H40.9806V8.02734H19.0079V12.4219H21.211V23.3086L8.36729 48.1641C7.45322 49.8164 8.49619 51.9727 10.2306 51.9727H49.7696C51.504 51.9727 52.547 49.8164 51.6329 48.1641ZM19.4532 36.5859L25.5938 24.5391V12.4219H34.3829V24.5391L40.5235 36.5977H19.4532V36.5859Z" fill="currentColor"/>
<path d="M32.1914 34.3828C33.4017 34.3828 34.3828 33.4017 34.3828 32.1914C34.3828 30.9811 33.4017 30 32.1914 30C30.9811 30 30 30.9811 30 32.1914C30 33.4017 30.9811 34.3828 32.1914 34.3828Z" fill="currentColor"/>
<path d="M30.0005 21.5977C31.2108 21.5977 32.1919 20.6166 32.1919 19.4063C32.1919 18.196 31.2108 17.2149 30.0005 17.2149C28.7902 17.2149 27.8091 18.196 27.8091 19.4063C27.8091 20.6166 28.7902 21.5977 30.0005 21.5977Z" fill="currentColor"/>
</svg>
