<svg width="170" height="170" viewBox="0 0 170 170" fill="none" xmlns="http://www.w3.org/2000/svg">
<rect width="170" height="170" fill="white"/>
<path d="M162.846 63.7503C135.646 36.5503 97.7502 26.6336 62.6168 33.8586L80.4668 51.7086C105.046 50.5044 129.979 59.1461 148.679 77.9169L162.846 63.7503ZM134.513 92.0836C125.375 82.9461 114.396 76.9961 102.708 73.9503L127.713 98.9544L134.513 92.0836ZM14.1668 21.6044L35.9127 43.2086C25.5002 48.3086 15.7252 55.1086 7.0835 63.7503L21.1793 77.9169C29.9627 69.1336 40.0918 62.6169 50.9293 58.2961L66.796 74.1628C55.321 77.1378 44.4127 83.0878 35.4168 92.0836V92.1544L49.5127 106.25C59.146 96.6169 71.7543 91.8003 84.3627 91.6586L134.442 141.667L143.438 132.742L23.3043 12.6794L14.1668 21.6044ZM63.7502 120.417L85.0002 141.667L106.25 120.417C94.5627 108.659 75.5085 108.659 63.7502 120.417Z" fill="#F2453D"/>
</svg>
