<svg width="170" height="170" viewBox="0 0 170 170" fill="none" xmlns="http://www.w3.org/2000/svg">
<rect width="170" height="170" fill="white"/>
<path d="M162.846 63.7505C135.646 36.5505 97.7497 26.6339 62.6163 33.8589L80.4663 51.7089C105.046 50.5047 129.979 59.1464 148.679 77.9172L162.846 63.7505ZM134.512 92.0839C125.375 82.9464 114.396 76.9963 102.708 73.9505L127.712 98.9547L134.512 92.0839ZM14.1663 21.6047L35.9122 43.2089C25.4997 48.3089 15.7247 55.1089 7.08301 63.7505L21.1788 77.9172C29.9622 69.1339 40.0913 62.6172 50.9288 58.2963L66.7955 74.163C55.3205 77.138 44.4122 83.088 35.4163 92.0839V92.1547L49.5122 106.251C59.1455 96.6172 71.7538 91.8005 84.3622 91.6589L134.441 141.667L143.437 132.742L23.3038 12.6797L14.1663 21.6047ZM63.7497 120.417L84.9997 141.667L106.25 120.417C94.5622 108.659 75.508 108.659 63.7497 120.417Z" fill="#FF9800"/>
</svg>
