<svg width="18" height="20" viewBox="0 0 18 20" fill="none" xmlns="http://www.w3.org/2000/svg">
<path d="M14.5912 13.5625C13.9197 13.5625 13.3 13.7969 12.8146 14.1883L7.93263 10.675C8.01437 10.2287 8.01437 9.77133 7.93263 9.325L12.8146 5.81172C13.3 6.20312 13.9197 6.4375 14.5912 6.4375C16.151 6.4375 17.4186 5.17656 17.4186 3.625C17.4186 2.07344 16.151 0.8125 14.5912 0.8125C13.0314 0.8125 11.7638 2.07344 11.7638 3.625C11.7638 3.89687 11.8015 4.15703 11.8745 4.40547L7.23755 7.74531C6.54955 6.83828 5.45628 6.25 4.224 6.25C2.14113 6.25 0.454102 7.92812 0.454102 10C0.454102 12.0719 2.14113 13.75 4.224 13.75C5.45628 13.75 6.54955 13.1617 7.23755 12.2547L11.8745 15.5945C11.8015 15.843 11.7638 16.1055 11.7638 16.375C11.7638 17.9266 13.0314 19.1875 14.5912 19.1875C16.151 19.1875 17.4186 17.9266 17.4186 16.375C17.4186 14.8234 16.151 13.5625 14.5912 13.5625ZM14.5912 2.40625C15.2674 2.40625 15.8164 2.95234 15.8164 3.625C15.8164 4.29766 15.2674 4.84375 14.5912 4.84375C13.915 4.84375 13.366 4.29766 13.366 3.625C13.366 2.95234 13.915 2.40625 14.5912 2.40625ZM4.224 12.0625C3.08125 12.0625 2.15055 11.1367 2.15055 10C2.15055 8.86328 3.08125 7.9375 4.224 7.9375C5.36674 7.9375 6.29744 8.86328 6.29744 10C6.29744 11.1367 5.36674 12.0625 4.224 12.0625ZM14.5912 17.5938C13.915 17.5938 13.366 17.0477 13.366 16.375C13.366 15.7023 13.915 15.1562 14.5912 15.1562C15.2674 15.1562 15.8164 15.7023 15.8164 16.375C15.8164 17.0477 15.2674 17.5938 14.5912 17.5938Z" fill="black" fill-opacity="0.54"/>
</svg>
