<svg width="62" height="62" viewBox="0 0 62 62" fill="none" xmlns="http://www.w3.org/2000/svg">
<path fill-rule="evenodd" clip-rule="evenodd" d="M37.7402 41.0361C37.7402 41.0361 29.3394 41.613 22.2034 40.9642C22.3352 49.6174 23.3972 54.0482 23.5708 55H39.1747C38.4245 50.4531 37.8403 43.1139 37.7402 41.0361ZM11.2618 23.0833C12.3099 23.1692 21.5115 23.9644 22.1249 23.9644C22.1249 23.9266 36.6871 38.7147 36.6871 38.7147H55.406V23.0833H11.2618ZM23.4568 22.1656H39.1747V7H23.4568V22.1656V22.1656ZM23.3529 26.532L21.3062 24.4542C18.593 24.4845 9.82348 23.5693 7 23.0833V38.7147C21.0819 40.0995 28.4625 40.4529 36.7112 40.1904H36.848L23.3529 26.532V26.532ZM37.6642 39.5239H39.5841V51.6801C39.3433 50.4089 38.6298 43.0104 38.7147 40.6461C38.4853 40.3936 37.6642 39.5239 37.6642 39.5239" fill="#FF9800"/>
</svg>
