<svg width="255" height="191" viewBox="0 0 255 191" fill="none" xmlns="http://www.w3.org/2000/svg">
<g clip-path="url(#clip0)">
<path d="M119.577 185.188C119.577 188.107 92.7753 188.418 59.7885 190.474C26.8325 192.527 0 188.107 0 185.188C0 182.269 26.9561 176.396 59.7885 179.903C92.7753 183.427 119.577 182.269 119.577 185.188Z" fill="#E6E6E6"/>
<path d="M245.646 0.000318429H174.779C171.359 0.000314724 168.041 1.16029 165.371 3.28956C162.7 5.41883 160.835 8.39068 160.083 11.7166L124.275 170.065C123.885 171.793 123.878 173.584 124.255 175.314C124.632 177.044 125.385 178.671 126.459 180.081C127.534 181.49 128.905 182.648 130.476 183.474C132.047 184.3 133.78 184.772 135.554 184.86L208.406 188.438C212.307 188.63 216.144 187.4 219.202 184.978C222.261 182.556 224.331 179.107 225.026 175.275L245.338 63.3208L246.849 63.7512L250.736 42.5317L249.18 42.144L254.85 10.8935C255.093 9.55496 255.037 8.17951 254.685 6.86518C254.334 5.55084 253.696 4.33 252.817 3.28968C251.938 2.24936 250.839 1.41518 249.6 0.846604C248.361 0.278031 247.011 -0.0109315 245.646 0.000316189L245.646 0.000318429Z" fill="#3F3D56"/>
<path d="M184.109 3.41394H175.836C173.461 3.41394 171.156 4.22398 169.306 5.70957C167.456 7.19516 166.171 9.26695 165.665 11.581L131.294 168.638C131.096 169.542 131.096 170.478 131.295 171.383C131.493 172.287 131.885 173.138 132.443 173.877C133.001 174.616 133.713 175.227 134.53 175.667C135.346 176.107 136.249 176.366 137.175 176.427L209.791 181.172C211.84 181.306 213.866 180.683 215.484 179.422C217.101 178.161 218.196 176.351 218.56 174.337L247.889 12.0029C248.078 10.9522 248.035 9.87276 247.76 8.84078C247.486 7.8088 246.988 6.84941 246.301 6.03032C245.614 5.21123 244.756 4.55241 243.786 4.10033C242.815 3.64825 241.758 3.41394 240.687 3.41394H232.839C232.08 3.41395 231.341 3.66358 230.738 4.12421C230.136 4.58483 229.702 5.23075 229.504 5.96196C229.33 6.60749 228.947 7.17772 228.415 7.58437C227.883 7.99102 227.231 8.2114 226.56 8.2114H189.305C187.992 8.2114 186.727 7.71728 185.764 6.82783C184.801 5.93838 184.209 4.71916 184.109 3.41394V3.41394Z" fill="white"/>
<path d="M106.379 84.1989L112.782 96.8362L131.926 105.513C133.971 108.958 140.467 109.222 140.94 106.994C141.47 104.495 133.051 100.473 133.051 100.473L117.038 89.6746L115.637 80.3789L106.379 84.1989Z" fill="#A0616A"/>
<path d="M107.134 169.005L105.953 178.423L112.802 178.894L113.51 169.005H107.134Z" fill="#A0616A"/>
<path d="M108.079 177.011C107.467 176.365 106.902 175.677 106.389 174.95C105.408 173.596 104.537 180.542 104.537 180.542C104.537 180.542 103.592 183.368 103.828 184.78C104.064 186.193 109.496 186.193 110.441 185.958C111.385 185.722 116.108 185.958 116.108 185.958H123.193C129.333 183.132 123.193 181.249 123.193 181.249C121.304 181.013 114.928 175.127 114.928 175.127L113.511 172.537C112.566 172.302 111.621 175.833 111.621 175.833L108.079 177.011Z" fill="#2F2E41"/>
<path d="M89.4226 169.123L88.2416 178.541L95.0902 179.012L95.7988 169.123H89.4226Z" fill="#A0616A"/>
<path d="M90.3673 177.128C89.7551 176.483 89.1903 175.794 88.6774 175.068C87.6959 173.714 86.825 180.66 86.825 180.66C86.825 180.66 85.8804 183.25 86.1165 184.662C86.3527 186.075 91.7843 186.075 92.7289 185.84C93.6735 185.604 98.3966 186.075 98.3966 186.075H105.481C111.621 183.25 105.481 181.366 105.481 181.366C103.592 181.131 97.2159 175.245 97.2159 175.245L95.7989 172.655C94.8543 172.419 93.9097 175.951 93.9097 175.951L90.3673 177.128Z" fill="#2F2E41"/>
<path d="M97.2159 108.378C96.2712 109.556 96.7435 113.558 96.7435 113.558C96.7435 113.558 95.0904 126.508 95.7989 127.685C96.5074 128.862 95.3266 129.804 94.6181 131.452C93.9096 133.1 93.2012 137.103 93.2012 137.103C89.1865 140.399 89.4227 155.467 89.4227 155.467L88.0057 168.888C88.478 170.3 95.0904 170.536 96.0351 170.3C96.9797 170.065 99.8136 148.875 99.8136 148.875L106.19 136.867C106.19 136.867 105.717 168.888 105.717 170.3C105.717 171.713 112.094 171.007 113.511 171.007C114.928 171.007 114.928 147.462 114.928 147.462L116.345 141.341L123.902 113.323V110.027L122.721 108.378C122.721 108.378 98.1605 107.201 97.2159 108.378Z" fill="#2F2E41"/>
<path d="M107.607 54.9326C111.65 54.9326 114.928 51.6649 114.928 47.6339C114.928 43.6029 111.65 40.3351 107.607 40.3351C103.564 40.3351 100.286 43.6029 100.286 47.6339C100.286 51.6649 103.564 54.9326 107.607 54.9326Z" fill="#A0616A"/>
<path d="M111.267 51.0479C109.783 54.3423 110.662 58.9438 113.629 63.9973L101.585 58.3466L103.474 56.6985L103.002 51.9896L111.267 51.0479Z" fill="#A0616A"/>
<path d="M111.267 58.5821C112.844 59.5169 113.788 61.2345 114.329 62.9823C115.332 66.2181 115.936 69.5637 116.127 72.9451L116.699 83.0683L123.783 109.909C117.643 115.089 114.101 113.912 105.836 109.674C97.5701 105.435 96.6255 111.086 96.6255 111.086C96.6255 111.086 95.917 110.851 96.6255 110.144C97.334 109.438 96.6255 110.144 95.917 109.438C95.2086 108.732 95.917 109.438 96.1532 108.732C96.3894 108.025 96.1532 108.496 95.917 108.261C95.6809 108.025 96.8617 105.906 96.8617 105.906L94.9724 88.248L92.6108 63.2909C95.4447 59.7593 103.474 56.6985 103.474 56.6985L110.795 61.8782C113.156 62.82 111.267 59.0529 111.267 59.0529L111.267 58.5821Z" fill="#1A237E"/>
<path d="M88.7141 78.2417L87.7695 92.3684L99.8135 109.556C99.8135 113.558 101.939 114.5 101.939 114.5C102.744 113.219 103.454 111.881 104.064 110.498C105.245 107.908 103.356 105.789 103.356 105.789L95.0904 88.3658L98.6327 79.6544L88.7141 78.2417Z" fill="#A0616A"/>
<path d="M92.7289 63.4087C88.7142 64.8213 88.0057 80.1252 88.0057 80.1252C92.7289 77.5354 98.3966 81.7734 98.3966 81.7734C98.3966 81.7734 99.5773 77.7708 100.994 72.591C101.422 71.134 101.473 69.5928 101.143 68.1108C100.813 66.6288 100.112 65.2542 99.1051 64.115C99.1051 64.115 96.7435 61.996 92.7289 63.4087Z" fill="#1A237E"/>
<path d="M100.876 49.8706C101.808 49.1273 103.08 50.4785 103.08 50.4785L103.825 43.7885C103.825 43.7885 108.485 44.346 111.467 43.6026C114.45 42.8593 114.916 46.2972 114.916 46.2972C115.07 44.9089 115.101 43.5097 115.009 42.116C114.823 40.4435 112.399 38.7709 108.112 37.6559C103.825 36.5409 101.588 41.3726 101.588 41.3726C98.6061 42.8593 99.9442 50.614 100.876 49.8706Z" fill="#2F2E41"/>
<path d="M225.318 113.21C225.461 113.216 225.6 113.17 225.711 113.082C225.823 112.994 225.899 112.869 225.926 112.729L242.209 24.3691C242.225 24.285 242.222 24.1985 242.2 24.1157C242.179 24.0329 242.139 23.9558 242.085 23.8898C242.03 23.8237 241.962 23.7704 241.884 23.7334C241.807 23.6964 241.723 23.6767 241.637 23.6757L167.556 22.8153H167.549C167.416 22.8158 167.286 22.8614 167.182 22.9447C167.077 23.028 167.004 23.1441 166.975 23.2741L147.779 108.766C147.76 108.85 147.76 108.936 147.779 109.02C147.797 109.104 147.833 109.182 147.885 109.25C147.937 109.318 148.004 109.374 148.08 109.414C148.156 109.454 148.24 109.477 148.325 109.481L225.318 113.21Z" fill="#E6E6E6"/>
<path d="M160.849 118.854C160.782 118.854 160.718 118.877 160.666 118.918C160.614 118.959 160.577 119.017 160.562 119.082L159.878 122.005C159.869 122.046 159.868 122.089 159.877 122.131C159.885 122.173 159.903 122.212 159.928 122.246C159.953 122.28 159.986 122.308 160.023 122.329C160.06 122.349 160.102 122.362 160.144 122.365L198.795 125.103C198.866 125.108 198.937 125.086 198.994 125.043C199.051 124.999 199.091 124.937 199.105 124.867L199.763 121.484C199.771 121.443 199.77 121.401 199.76 121.36C199.75 121.32 199.732 121.281 199.706 121.248C199.681 121.215 199.648 121.188 199.611 121.169C199.574 121.149 199.533 121.138 199.491 121.135L160.867 118.855C160.861 118.855 160.855 118.854 160.849 118.854Z" fill="#E6E6E6"/>
<path d="M207.807 135.966C207.876 135.971 207.946 135.952 208.002 135.911C208.059 135.87 208.099 135.811 208.116 135.743L208.954 132.354C208.964 132.312 208.965 132.269 208.957 132.227C208.948 132.185 208.931 132.145 208.906 132.11C208.88 132.076 208.848 132.047 208.81 132.026C208.773 132.006 208.731 131.993 208.688 131.99L159.33 128.549C159.263 128.543 159.196 128.561 159.141 128.6C159.086 128.638 159.045 128.694 159.027 128.758L158.156 131.687C158.144 131.729 158.141 131.773 158.148 131.816C158.155 131.859 158.171 131.9 158.196 131.937C158.221 131.973 158.253 132.003 158.291 132.024C158.329 132.046 158.372 132.059 158.415 132.063L207.807 135.966Z" fill="#E6E6E6"/>
<path d="M205.156 146.83C205.226 146.836 205.295 146.816 205.352 146.776C205.409 146.735 205.449 146.675 205.466 146.608L206.303 143.218C206.313 143.177 206.314 143.133 206.306 143.091C206.298 143.049 206.28 143.01 206.255 142.975C206.23 142.94 206.197 142.912 206.159 142.891C206.122 142.87 206.08 142.858 206.037 142.855L156.679 139.413C156.612 139.408 156.545 139.426 156.49 139.464C156.435 139.502 156.395 139.558 156.376 139.623L155.506 142.552C155.493 142.593 155.49 142.638 155.497 142.681C155.504 142.724 155.52 142.765 155.545 142.801C155.57 142.837 155.602 142.867 155.64 142.889C155.678 142.911 155.721 142.924 155.764 142.927L205.156 146.83Z" fill="#E6E6E6"/>
<path d="M182.423 165.469C182.494 165.476 182.564 165.458 182.622 165.417C182.68 165.376 182.721 165.316 182.737 165.247L184.508 158.185C184.518 158.144 184.519 158.101 184.511 158.059C184.504 158.017 184.487 157.978 184.462 157.943C184.437 157.908 184.405 157.88 184.368 157.858C184.331 157.837 184.289 157.825 184.247 157.821L153.935 155.279C153.865 155.274 153.794 155.295 153.737 155.337C153.68 155.379 153.64 155.439 153.623 155.508L152.113 162.286C152.103 162.327 152.103 162.369 152.112 162.41C152.12 162.45 152.137 162.489 152.162 162.523C152.187 162.556 152.218 162.584 152.254 162.605C152.291 162.626 152.331 162.638 152.373 162.642L182.423 165.469Z" fill="#1A237E"/>
</g>
<defs>
<clipPath id="clip0">
<rect width="255" height="191" fill="white"/>
</clipPath>
</defs>
</svg>
