<svg width="100" height="100" viewBox="0 0 100 100" fill="none" xmlns="http://www.w3.org/2000/svg">
<path fill-rule="evenodd" clip-rule="evenodd" d="M27.9785 76.9182L74.2475 23.452C75.5894 24.5228 78.3582 29.5549 79.2073 31.2441C81.7083 36.2173 83.6178 45.1465 83.0693 50.8603C82.9181 52.4335 83.052 52.9531 82.6791 55.6266C81.9153 61.1061 79.5349 67.4952 76.8277 71.6364L75.4839 73.5636C74.8108 74.4536 74.0988 75.5372 73.3044 76.2649C72.5672 76.9398 71.5338 78.3598 70.0915 79.5124C65.3724 83.284 61.2657 85.7445 55.1109 86.728C51.5995 87.2891 47.2556 87.3024 43.9778 86.4356C40.9383 85.6323 37.7866 84.5795 35.0581 82.8176C33.7554 81.9761 32.5078 81.1596 31.3239 80.1715C30.7448 79.6881 28.3619 77.5786 27.9785 76.9182V76.9182ZM48.8178 8.79121H52.057C56.7472 9.04249 61.427 10.3844 65.7882 12.9009C66.5848 13.3607 67.228 13.7648 68.0224 14.2748L71.2325 16.7357C72.8394 18.1441 71.5144 20.1713 69.8395 18.8173C67.2971 16.7623 65.8055 15.6359 62.7563 14.1864C61.013 13.3578 58.9336 12.6293 56.988 12.1483C55.334 11.7397 52.1182 11.3206 50.308 11.3206L47.3139 11.5013C38.5882 12.5782 29.9529 17.5365 24.6882 25.5437C24.4686 25.8776 24.2865 26.1687 24.0449 26.54C17.6089 36.427 15.6098 49.4652 19.4321 62.1212C20.1643 64.5455 21.2463 66.9561 22.3877 69.1432C22.8146 69.9618 23.1497 70.5026 23.5939 71.229C24.0075 71.9056 25.7245 74.55 26.3346 75.0214L73.0143 21.2391C74.0398 20.0442 74.3789 19.717 75.5516 21.0776C77.3402 23.1526 79.7195 27.0098 80.9013 29.4474C84.2802 36.4175 85.9349 45.0547 85.1286 53.2368C84.2802 61.85 81.0985 70.7223 75.8227 76.7999C74.5038 78.3191 74.0178 78.96 72.5957 80.3472C66.9501 85.852 60.4357 88.6053 53.0282 89.5406C52.3565 89.6257 51.6708 89.5082 50.9969 89.5759C50.5711 89.6183 50.5232 89.7047 50.0927 89.6556C46.1465 89.2087 45.8802 89.6233 41.704 88.4271C35.8022 86.7367 32.2019 84.2302 27.6448 80.1487C25.4992 78.2269 23.2077 75.0899 21.6188 72.5593C20.6387 70.9985 19.1438 68.1443 18.4865 66.3738C15.9262 59.4743 15.2383 55.4738 15.2383 47.8341C15.2383 37.6319 19.7165 27.2552 25.4783 20.607C31.7624 13.3561 40.1871 9.24849 48.8178 8.79121V8.79121Z" fill="#FEFEFE"/>
<path fill-rule="evenodd" clip-rule="evenodd" d="M28.3896 59.3729C26.5762 59.3729 24.5536 58.5693 24.5536 56.5275C24.5536 55.2283 25.2112 54.6913 25.8185 54.0355C28.8252 50.7888 37.8528 47.2477 41.307 45.6674C41.7789 45.4514 42.1388 45.2807 42.6366 45.147L40.1166 49.8265L37.1239 54.1185C34.8875 56.6699 31.9215 59.3729 28.3896 59.3729ZM50.308 29.0241C55.5032 29.0241 53.1329 34.6145 52.5358 35.3879C51.5776 36.6289 50.2018 36.9308 48.9751 36.2526C47.8711 35.6425 47.3222 34.1182 47.1472 32.6704C46.8139 29.9138 47.9467 29.0241 50.308 29.0241ZM41.5406 20.1722C41.5406 21.8306 43.1406 21.1864 45.5087 22.8648C46.653 23.6759 47.1609 24.35 47.9219 25.4548C48.2185 25.8846 48.4118 26.0807 48.5273 26.653C46.6804 27.1493 44.8284 28.6188 44.8284 30.921C44.8284 32.6243 44.7647 33.6107 45.3763 35.1889C45.9205 36.5928 46.4227 36.8698 46.4723 37.5596C45.4429 37.877 44.5221 39.4419 44.1391 40.5575C43.5596 42.2446 44.5811 41.6415 41.1471 42.954C36.057 44.8994 31.8272 46.9923 27.1564 49.8884C26.2022 50.4802 25.0352 51.3769 24.2447 52.2196C22.8769 53.6787 22.3618 54.1235 22.3618 56.844C22.3618 59.8643 25.0399 61.9019 27.7046 61.9019C30.2679 61.9019 32.0882 61.5597 34.2231 60.0973C37.9101 57.5708 41.2073 53.15 43.4023 48.8754C43.732 48.2329 43.6308 48.0721 44.1434 47.6759C44.2881 49.6786 46.4723 49.4677 46.4723 47.8342C46.4723 46.7339 45.9245 47.749 45.9245 43.2501C45.9245 39.0357 49.0262 39.1404 51.1301 39.1404C52.5599 39.1404 53.9065 40.6722 54.454 38.8501C54.6897 38.0651 54.2995 37.9164 54.144 37.2436C54.5861 36.4819 54.8773 36.1247 55.2401 35.1889C55.8092 33.7203 55.788 32.8319 55.788 31.237C55.788 28.5768 53.9896 27.1639 52.0891 26.653C52.4739 24.7475 55.3438 22.4013 57.2764 21.7317C58.0683 21.4572 59.0758 21.4082 59.0758 20.1722C59.0758 16.4001 51.0956 21.9456 50.4451 24.7562H50.1712C49.5154 21.922 41.5406 16.4217 41.5406 20.1722V20.1722Z" fill="#FEFEFE"/>
<path fill-rule="evenodd" clip-rule="evenodd" d="M59.3499 44.6726C59.3499 45.4402 59.4795 45.6607 60.0284 45.9444C62.3728 47.1576 65.2794 48.0842 68.4388 49.834C70.1835 50.8005 76.0626 53.6721 76.0626 56.5275C76.0626 59.6711 71.8864 59.7475 69.3322 58.7615C66.2826 57.5841 63.5599 54.4583 61.5996 51.5609L59.4053 47.928C59.0116 47.2315 58.5915 45.9344 57.4814 46.4536C57.2517 46.5607 57.1257 46.6471 56.9951 46.8548C56.8979 47.0093 56.7471 47.4612 56.7471 47.6759C56.7471 48.7375 61.0046 55.2171 62.5182 56.6654L64.3392 58.5161C70.2349 63.8407 78.2547 62.6233 78.2547 56.844C78.2547 53.7992 77.2911 52.9461 75.22 51.1772C73.4087 49.63 70.3836 47.97 68.1641 46.8315C66.846 46.1558 61.0593 43.4079 60.3088 43.4079C59.7721 43.4079 59.3499 43.9961 59.3499 44.6726V44.6726Z" fill="#FEFEFE"/>
<path fill-rule="evenodd" clip-rule="evenodd" d="M53.7332 50.9952C53.7332 51.9571 53.9142 52.5573 54.0463 53.4793C54.8451 59.0602 55.1496 64.7868 53.402 70.0553C52.9028 71.56 51.1764 75.5522 50.3082 76.2861C49.4123 75.5285 47.5294 71.1875 47.0686 69.5918C46.1781 66.5046 46.2843 65.8641 46.0481 63.0241C45.8566 60.7211 43.7329 61.0342 43.7329 62.8505C43.7329 68.7615 45.744 73.7953 48.7417 78.2519C49.76 79.7657 50.4911 80.3115 51.7581 78.4329C52.1785 77.8099 52.4921 77.3481 52.892 76.738C55.0675 73.422 56.8839 67.9192 56.8839 63.3244C56.8839 58.3952 56.8806 56.4847 56.0531 51.6378C55.542 48.644 53.7332 50.0915 53.7332 50.9952V50.9952Z" fill="#FEFEFE"/>
<path fill-rule="evenodd" clip-rule="evenodd" d="M59.0757 59.3729C59.0757 60.4947 61.1098 62.8268 61.2548 63.8132C61.4445 65.1053 61.2728 69.1839 61.2671 70.7543C61.2581 73.1022 61.1515 72.438 63.4934 75.1402C64.304 76.0755 65.9681 78.3412 66.747 78.3412C67.4097 78.3412 67.8431 77.8411 67.8431 77.0765C67.8431 75.8022 64.0539 72.6158 63.5715 71.5725C63.236 70.8469 63.4592 69.1694 63.4592 68.2245C63.4592 67.0657 63.4581 65.9061 63.4592 64.7469C63.4614 63.0652 63.614 62.9419 62.969 61.8354C62.14 60.4146 61.1483 58.1082 60.1714 58.1082C59.5087 58.1082 59.0757 58.6083 59.0757 59.3729Z" fill="#FEFEFE"/>
<path fill-rule="evenodd" clip-rule="evenodd" d="M34.9653 23.9658C34.9653 25.2376 36.8933 26.2015 37.124 27.1655C37.5127 28.7903 36.6528 31.3496 37.4616 32.466L41.1641 36.7298C41.5558 37.1834 41.9402 37.8757 42.6367 37.8757C43.2994 37.8757 43.7328 37.3757 43.7328 36.611C43.7328 35.7388 42.2753 34.3765 41.5064 33.4894L39.6458 31.3687C39.103 30.6921 39.3384 29.0914 39.351 27.4409C39.3654 25.4913 39.3179 25.9133 37.534 23.8474C37.1423 23.3939 36.7576 22.7015 36.061 22.7015C35.3984 22.7015 34.9653 23.2012 34.9653 23.9658Z" fill="#FEFEFE"/>
<path fill-rule="evenodd" clip-rule="evenodd" d="M33.8691 76.7604C33.8691 78.0504 34.1207 78.3412 35.2391 78.3412C35.6704 78.3412 38.7789 74.4931 39.3145 73.8755C40.8152 72.1452 40.4448 72.7288 40.4448 68.2245C40.4448 67.4603 40.0114 66.9602 39.3487 66.9602C38.1044 66.9602 38.2458 68.2237 38.2527 69.6474C38.2638 71.9646 38.338 71.3681 37.2596 72.6112C36.7801 73.1636 33.8691 76.2861 33.8691 76.7604Z" fill="#FEFEFE"/>
<path fill-rule="evenodd" clip-rule="evenodd" d="M61.2674 26.4948C61.2674 28.3945 60.9305 30.2884 62.3634 30.2884C64.1783 30.2884 62.8785 27.9073 63.6884 26.7593C64.2024 26.0313 65.6509 25.0249 65.6509 23.9658C65.6509 23.2012 65.2179 22.7015 64.5552 22.7015C63.8029 22.7015 61.2674 25.6271 61.2674 26.4948V26.4948Z" fill="#FEFEFE"/>
</svg>
