<?xml version="1.0" encoding="UTF-8"?>
<!DOCTYPE svg PUBLIC "-//W3C//DTD SVG 1.1//EN" "http://www.w3.org/Graphics/SVG/1.1/DTD/svg11.dtd">
<!-- Creator: CorelDRAW -->
<svg xmlns="http://www.w3.org/2000/svg" xml:space="preserve" width="35.9832mm" height="35.9832mm" version="1.1" style="shape-rendering:geometricPrecision; text-rendering:geometricPrecision; image-rendering:optimizeQuality; fill-rule:evenodd; clip-rule:evenodd"
viewBox="0 0 3598.32 3598.32"
 xmlns:xlink="http://www.w3.org/1999/xlink"
 xmlns:xodm="http://www.corel.com/coreldraw/odm/2003">
 <defs>
  <style type="text/css">
   <![CDATA[
    .fil1 {fill:#FEFEFE}
    .fil0 {fill:#9C28AF}
   ]]>
  </style>
 </defs>
 <g id="Camada_x0020_1">
  <metadata id="CorelCorpID_0Corel-Layer"/>
  <rect class="fil0" x="-7.14" y="0.54" width="3598.33" height="3598.33"/>
  <g id="_2964117787392">
   <path class="fil1" d="M1175.25 2470.02l1285.41 -1287.31c37.28,25.78 114.2,146.94 137.79,187.61 69.48,119.74 122.53,334.73 107.29,472.3 -4.2,37.88 -0.48,50.39 -10.84,114.76 -21.22,131.93 -87.35,285.76 -162.56,385.47l-37.33 46.4c-18.7,21.43 -38.48,47.52 -60.55,65.04 -20.48,16.25 -49.19,50.44 -89.26,78.19 -131.1,90.81 -245.19,150.05 -416.18,173.73 -97.55,13.51 -218.23,13.83 -309.29,-7.04 -84.44,-19.34 -172,-44.69 -247.8,-87.11 -36.19,-20.26 -70.85,-39.92 -103.74,-63.71 -16.09,-11.64 -82.29,-62.43 -92.94,-78.33zm578.94 -1640.3l89.99 0c130.3,6.05 260.31,38.36 381.47,98.95 22.13,11.07 40,20.8 62.07,33.08l89.18 59.25c44.64,33.91 7.83,82.72 -38.7,50.12 -70.63,-49.48 -112.07,-76.6 -196.78,-111.5 -48.43,-19.95 -106.2,-37.49 -160.25,-49.07 -45.95,-9.84 -135.29,-19.93 -185.58,-19.93l-83.18 4.35c-242.41,25.93 -482.31,145.31 -628.57,338.1 -6.1,8.04 -11.16,15.05 -17.87,23.99 -178.8,238.05 -234.34,551.97 -128.15,856.69 20.34,58.37 50.4,116.41 82.11,169.07 11.86,19.71 21.17,32.73 33.51,50.22 11.49,16.29 59.19,79.96 76.14,91.31l1296.82 -1294.92c28.49,-28.77 37.91,-36.65 70.49,-3.89 49.69,49.96 115.79,142.83 148.62,201.52 93.87,167.82 139.84,375.78 117.44,572.78 -23.57,207.38 -111.96,421 -258.53,567.33 -36.64,36.58 -50.14,52.01 -89.65,85.41 -156.84,132.54 -337.82,198.83 -543.61,221.35 -18.66,2.05 -37.71,-0.78 -56.43,0.85 -11.83,1.02 -13.16,3.1 -25.12,1.92 -109.63,-10.76 -117.03,-0.78 -233.05,-29.58 -163.96,-40.7 -263.98,-101.05 -390.58,-199.32 -59.61,-46.27 -123.27,-121.8 -167.41,-182.73 -27.23,-37.58 -68.76,-106.3 -87.02,-148.93 -71.13,-166.12 -90.24,-262.44 -90.24,-446.38 0,-245.64 124.41,-495.48 284.48,-655.55 174.58,-174.58 408.63,-273.48 648.4,-284.49z"/>
   <path class="fil1" d="M1186.67 2047.58c-50.38,0 -106.57,-19.35 -106.57,-68.51 0,-31.28 18.27,-44.21 35.14,-60 83.53,-78.17 334.33,-163.43 430.29,-201.48 13.11,-5.2 23.11,-9.31 36.94,-12.53l-70.01 112.67 -83.14 103.34c-62.13,61.43 -144.53,126.51 -242.65,126.51zm608.92 -730.71c144.33,0 78.48,134.6 61.89,153.22 -26.62,29.88 -64.84,37.15 -98.92,20.82 -30.67,-14.69 -45.92,-51.39 -50.78,-86.25 -9.26,-66.37 22.21,-87.79 87.81,-87.79zm-243.57 -213.13c0,39.93 44.45,24.42 110.24,64.83 31.79,19.53 45.9,35.76 67.04,62.36 8.24,10.35 13.61,15.07 16.82,28.85 -51.31,11.95 -102.76,47.33 -102.76,102.76 0,41.01 -1.77,64.76 15.22,102.76 15.12,33.8 29.07,40.47 30.45,57.08 -28.6,7.64 -54.18,45.32 -64.82,72.18 -16.1,40.62 12.28,26.1 -83.12,57.7 -141.41,46.84 -258.92,97.23 -388.68,166.96 -26.51,14.25 -58.93,35.84 -80.89,56.13 -38,35.13 -52.31,45.84 -52.31,111.34 0,72.72 74.4,121.78 148.43,121.78 71.21,0 121.78,-8.24 181.09,-43.45 102.43,-60.83 194.03,-167.27 255.01,-270.19 9.16,-15.47 6.35,-19.34 20.59,-28.88 4.02,48.22 64.7,43.14 64.7,3.81 0,-26.49 -15.22,-2.05 -15.22,-110.37 0,-101.47 86.17,-98.95 144.62,-98.95 39.72,0 77.13,36.88 92.34,-6.99 6.55,-18.9 -4.29,-22.48 -8.61,-38.68 12.28,-18.34 20.37,-26.94 30.45,-49.47 15.81,-35.36 15.22,-56.75 15.22,-95.15 0,-64.05 -49.96,-98.07 -102.76,-110.37 10.69,-45.88 90.42,-102.37 144.11,-118.49 22,-6.61 49.99,-7.79 49.99,-37.55 0,-90.82 -221.7,42.7 -239.77,110.37l-7.61 0c-18.22,-68.24 -239.77,-200.67 -239.77,-110.37z"/>
   <path class="fil1" d="M2046.78 1693.64c0,18.48 3.6,23.79 18.85,30.62 65.13,29.21 145.88,51.52 233.65,93.65 48.47,23.27 211.8,92.41 211.8,161.16 0,75.69 -116.02,77.53 -186.98,53.79 -84.72,-28.35 -160.36,-103.61 -214.82,-173.37l-60.96 -87.47c-10.94,-16.77 -22.61,-48 -53.45,-35.5 -6.38,2.58 -9.88,4.66 -13.51,9.66 -2.7,3.72 -6.89,14.6 -6.89,19.77 0,25.56 118.28,181.57 160.33,216.44l50.59 44.56c163.79,128.2 386.59,98.89 386.59,-40.26 0,-73.31 -26.77,-93.85 -84.31,-136.44 -50.32,-37.25 -134.36,-77.22 -196.02,-104.63 -36.62,-16.27 -197.38,-82.43 -218.23,-82.43 -14.91,0 -26.64,14.16 -26.64,30.45z"/>
   <path class="fil1" d="M1890.74 1845.87c0,23.16 5.03,37.61 8.7,59.81 22.19,134.37 30.65,272.25 -17.9,399.1 -13.87,36.23 -61.83,132.35 -85.95,150.02 -24.89,-18.24 -77.2,-122.76 -90,-161.18 -24.74,-74.33 -21.79,-89.75 -28.35,-158.13 -5.32,-55.45 -64.32,-47.91 -64.32,-4.18 0,142.32 55.87,263.52 139.15,370.82 28.29,36.45 48.6,49.59 83.8,4.36 11.68,-15 20.39,-26.12 31.5,-40.81 60.44,-79.84 110.9,-212.33 110.9,-322.96 0,-118.68 -0.09,-164.68 -23.08,-281.38 -14.2,-72.08 -64.45,-37.23 -64.45,-15.47z"/>
   <path class="fil1" d="M2039.17 2047.58c0,27.01 56.51,83.16 60.54,106.91 5.27,31.11 0.5,129.31 0.34,167.12 -0.25,56.53 -3.21,40.54 61.85,105.6 22.52,22.52 68.75,77.07 90.39,77.07 18.41,0 30.45,-12.04 30.45,-30.45 0,-30.68 -105.27,-107.4 -118.67,-132.52 -9.32,-17.47 -3.12,-57.86 -3.12,-80.61 0,-27.9 -0.03,-55.82 0,-83.73 0.06,-40.49 4.3,-43.46 -13.62,-70.1 -23.03,-34.21 -50.58,-89.74 -77.72,-89.74 -18.41,0 -30.44,12.04 -30.44,30.45z"/>
   <path class="fil1" d="M1369.35 1195.08c0,30.62 53.56,53.83 59.97,77.04 10.8,39.12 -13.09,100.74 9.38,127.62l102.86 102.66c10.88,10.92 21.56,27.59 40.91,27.59 18.41,0 30.45,-12.04 30.45,-30.45 0,-21 -40.49,-53.8 -61.85,-75.16l-51.69 -51.06c-15.08,-16.29 -8.54,-54.83 -8.19,-94.57 0.4,-46.94 -0.92,-36.78 -50.48,-86.52 -10.88,-10.92 -21.57,-27.59 -40.92,-27.59 -18.41,0 -30.44,12.03 -30.44,30.44z"/>
   <path class="fil1" d="M1338.9 2466.22c0,31.06 6.99,38.06 38.06,38.06 11.98,0 98.34,-92.65 113.22,-107.52 41.69,-41.66 31.4,-27.61 31.4,-136.06 0,-18.4 -12.04,-30.44 -30.45,-30.44 -34.57,0 -30.64,30.42 -30.45,64.7 0.31,55.79 2.37,41.43 -27.59,71.36 -13.32,13.3 -94.19,88.48 -94.19,99.9z"/>
   <path class="fil1" d="M2100.06 1255.97c0,45.74 -9.36,91.34 30.45,91.34 50.42,0 14.31,-57.33 36.81,-84.97 14.28,-17.53 54.52,-41.76 54.52,-67.26 0,-18.41 -12.03,-30.44 -30.44,-30.44 -20.9,0 -91.34,70.44 -91.34,91.33z"/>
  </g>
 </g>
</svg>
