<svg width="136" height="136" viewBox="0 0 136 136" fill="none" xmlns="http://www.w3.org/2000/svg">
<path d="M0 8C0 3.58172 3.58172 0 8 0H128C132.418 0 136 3.58172 136 8V136H0V8Z" fill="#9C27B0"/>
<g clip-path="url(#clip0)">
<path d="M100.45 67.4023C99.6223 67.2401 98.7813 67.4097 98.0812 67.88C97.5015 68.2696 97.076 68.827 96.8547 69.4772L93.2574 67.9063C93.2648 67.6601 93.2685 67.4175 93.2685 67.1812C93.2685 65.0661 93.0037 62.966 92.4812 60.9315L94.0949 59.837C95.1177 60.7328 96.6042 61.0006 97.9056 60.4352C99.6568 59.6742 100.496 57.6477 99.815 55.8215L99.0554 53.7829C98.3667 51.9345 96.3857 50.9606 94.5457 51.5645C93.6146 51.8702 92.8652 52.5226 92.4359 53.4013C92.1916 53.901 92.0685 54.4371 92.0682 54.9757L90.2375 55.2314C89.9867 54.7716 89.7127 54.3057 89.4201 53.8416C89.1175 53.3616 88.4828 53.2179 88.0031 53.5203C87.5229 53.8229 87.379 54.4574 87.6817 54.9374C88.027 55.4852 88.3435 56.0342 88.6223 56.5693C88.9021 57.1057 89.4923 57.41 90.0896 57.3267L93.3909 56.8658C93.6972 56.8231 93.968 56.6446 94.128 56.3799C94.288 56.1153 94.3204 55.7925 94.216 55.5014C94.0742 55.1063 94.0977 54.6809 94.282 54.3037C94.4658 53.9275 94.7871 53.6481 95.1867 53.5169C95.9618 53.2626 96.833 53.7039 97.1298 54.5007L97.8894 56.5393C98.1834 57.3282 97.8233 58.2306 97.0865 58.5509C96.3813 58.8572 95.5508 58.5946 95.154 57.9401C95.0081 57.6994 94.7696 57.5292 94.4946 57.4692C94.2197 57.409 93.9318 57.4648 93.6988 57.6227L90.9607 59.4799C90.4528 59.8244 90.2215 60.4541 90.3854 61.047C90.935 63.0371 91.2136 65.1011 91.2136 67.1813C91.2136 67.5221 91.205 67.8783 91.1883 68.2401C91.161 68.8295 91.5053 69.3837 92.0448 69.6192L97.1782 71.861C97.4637 71.9858 97.7904 71.9741 98.0662 71.8296C98.3422 71.6851 98.5376 71.4232 98.5976 71.1174L98.7603 70.2886C98.817 69.9997 98.9829 69.7501 99.2273 69.5858C99.4716 69.4215 99.7653 69.3622 100.054 69.4191C100.651 69.5361 101.041 70.1167 100.924 70.7131L100.082 75.0033C100.024 75.302 99.8501 75.5567 99.5934 75.7205C99.3369 75.8842 99.032 75.9338 98.7348 75.8612C98.1732 75.7232 97.8122 75.1217 97.9301 74.52L97.9526 74.4054C98.0131 74.0959 97.9284 73.7757 97.7225 73.537C97.5166 73.2979 97.2101 73.1658 96.8975 73.1813L91.3446 73.4346C90.7568 73.4613 90.2369 73.8556 90.0511 74.4162C89.5367 75.9694 88.8539 77.4702 88.0215 78.8766C87.7115 79.4001 87.7659 80.064 88.1568 80.5284L90.6133 83.4468C90.7958 83.6636 91.0598 83.7953 91.3425 83.8111C91.6254 83.8264 91.9024 83.7247 92.1075 83.5295C92.6582 83.0058 93.4953 82.961 94.098 83.4223C94.4243 83.6719 94.6337 84.0335 94.6879 84.4407C94.7422 84.8478 94.6343 85.2517 94.3849 85.5779L93.6731 86.5082C93.1617 87.1763 92.2066 87.3481 91.5439 86.8915C90.9807 86.5034 90.7399 85.7801 90.9583 85.1325C91.1284 84.6282 90.8853 84.0775 90.3978 83.8635L86.859 82.3092C86.2963 82.0616 85.6394 82.2015 85.224 82.6573C83.6461 84.39 81.824 85.8662 79.8081 87.045C79.2989 87.3423 79.021 87.9322 79.116 88.5127L80.022 94.0368C80.0724 94.3442 80.2595 94.6121 80.5309 94.7653C80.8023 94.9185 81.1282 94.9401 81.4176 94.8245L82.2015 94.5108C82.4841 94.3978 82.7924 94.4051 83.0694 94.5317C83.3462 94.658 83.5536 94.887 83.6539 95.1763C83.8433 95.7228 83.5341 96.3528 82.9647 96.5805L78.9615 98.1819C78.6789 98.2951 78.3708 98.2875 78.0936 98.1611C77.8169 98.0348 77.6094 97.8059 77.5091 97.5167C77.3198 96.9702 77.6288 96.3402 78.1978 96.1125L78.3061 96.0692C78.599 95.9521 78.8218 95.707 78.9105 95.4044C78.9992 95.1018 78.9441 94.7752 78.7608 94.5184L75.5312 89.9933C75.1895 89.5142 74.5759 89.2919 74.0055 89.4398C72.1225 89.9279 70.176 90.1755 68.2197 90.1755C66.6707 90.1755 65.1179 90.019 63.6047 89.7105C63.027 89.5928 62.4267 89.8467 62.1098 90.3428L58.8772 95.4127C58.7096 95.6754 58.6705 95.9999 58.7706 96.295C58.8705 96.5901 59.099 96.8238 59.3917 96.9305L59.5061 96.9723C59.8986 97.1153 60.2119 97.4027 60.3882 97.7815C60.5645 98.1601 60.5827 98.5849 60.4397 98.9774C60.3985 99.0902 60.3775 99.2094 60.3775 99.3294C60.3775 99.718 60.2629 100.012 60.0546 100.158C59.8465 100.304 59.5309 100.311 59.1656 100.177L55.1944 98.7295C54.3991 98.4396 53.9758 97.5528 54.2505 96.7528C54.3816 96.3714 54.6638 96.0613 55.0452 95.8793C55.4481 95.6871 55.9165 95.6633 56.3298 95.814L56.4208 95.8471C56.7168 95.9554 57.0464 95.9213 57.3144 95.7549C57.5825 95.5886 57.7592 95.3085 57.7938 94.995L58.452 89.0532C58.5168 88.4685 58.2082 87.8941 57.6844 87.6237C55.2822 86.3831 53.1329 84.7422 51.2968 82.7472C50.8927 82.3077 50.251 82.1643 49.7 82.3904L44.8539 84.3778C44.5849 84.4881 44.3753 84.707 44.277 84.9804C44.1785 85.2539 44.2005 85.5562 44.3374 85.8125C44.6449 86.3879 44.4648 87.0927 43.9185 87.4519C43.3553 87.8225 42.5668 87.6492 42.1613 87.0656L40.92 85.2788C40.5219 84.7058 40.6167 83.9365 41.1357 83.5275C41.4041 83.316 41.7371 83.2233 42.0728 83.2665C42.411 83.3101 42.7102 83.4835 42.9155 83.755C43.1013 84.0008 43.3876 84.1502 43.6956 84.1622C44.0024 84.1739 44.3004 84.0471 44.5045 83.8163L47.9179 79.9583C48.3184 79.5055 48.3902 78.8452 48.0964 78.3145C47.7294 77.6525 47.388 76.9555 47.0819 76.2426C46.8578 75.7213 46.2538 75.4801 45.7323 75.7041C45.2109 75.928 44.9698 76.5322 45.1936 77.0536C45.468 77.6921 45.7684 78.3195 46.0893 78.9238L43.6445 81.6874C43.2513 81.4463 42.8077 81.289 42.3352 81.2282C41.4466 81.1141 40.5695 81.3574 39.8639 81.9133C38.4927 82.9939 38.2154 84.9871 39.2326 86.451L40.4739 88.2377C41.5097 89.7287 43.5613 90.1462 45.0478 89.1686C46.1595 88.4375 46.6953 87.1622 46.5083 85.9199L50.0811 84.4546C51.916 86.3813 54.0257 87.9917 56.3628 89.2494L55.874 93.6629C55.2874 93.6462 54.6972 93.7681 54.1605 94.0242C53.2772 94.4456 52.6189 95.1772 52.3071 96.0848C51.6712 97.9366 52.6507 99.9889 54.4905 100.66L58.4617 102.108C58.8602 102.253 59.2606 102.325 59.6463 102.325C60.2271 102.325 60.7747 102.162 61.2329 101.841C61.9519 101.338 62.3817 100.495 62.4283 99.5091C62.6948 98.6499 62.6337 97.7349 62.2512 96.9136C62.0061 96.387 61.6465 95.9369 61.2015 95.5895L63.6141 91.8054C67.0787 92.45 70.6913 92.3552 74.1055 91.5324L76.45 94.8174C75.5272 95.6525 75.1439 96.9666 75.5673 98.1892C75.8534 99.0143 76.4474 99.668 77.24 100.03C78.0217 100.387 78.927 100.409 79.7247 100.09L83.728 98.4882C85.3276 97.8483 86.148 96.098 85.5957 94.5035C85.3098 93.6784 84.7158 93.0245 83.9231 92.6625C83.2728 92.3655 82.5363 92.3004 81.8478 92.4711L81.2128 88.5998C83.136 87.4308 84.891 86.0102 86.4391 84.3692L88.8299 85.4192C88.7631 86.6474 89.3326 87.8632 90.378 88.5836C91.9548 89.6701 94.119 89.3068 95.3051 87.757L96.0169 86.8267C96.6001 86.0646 96.8516 85.121 96.725 84.1697C96.5984 83.2184 96.1091 82.3733 95.3469 81.7901C94.2349 80.9393 92.7833 80.8247 91.588 81.4137L90.0115 79.5407C90.7484 78.2434 91.3698 76.8769 91.8637 75.4679L95.8936 75.284C96.0935 76.5125 96.9886 77.5481 98.2451 77.8566C99.0931 78.065 99.9648 77.9212 100.699 77.4524C101.423 76.99 101.933 76.2416 102.099 75.3987L102.941 71.1085C103.276 69.4 102.159 67.7375 100.45 67.4023Z" fill="white"/>
<path d="M39.6198 70.1776L43.4709 71.0671C43.5548 71.6026 43.6585 72.1464 43.7804 72.6887C43.8877 73.1665 44.3118 73.4914 44.782 73.4912C44.8565 73.4912 44.9323 73.483 45.008 73.466C45.5616 73.3416 45.9097 72.7921 45.7853 72.2384C45.6438 71.6077 45.5289 70.976 45.4439 70.3609C45.363 69.7756 44.9227 69.2931 44.3485 69.1606L38.8941 67.9009C38.591 67.8309 38.2715 67.9023 38.027 68.0951C37.7823 68.2879 37.6383 68.5814 37.6356 68.8929L37.63 69.5314C37.6235 70.2463 37.0368 70.8279 36.3218 70.8279C35.9814 70.8279 35.6618 70.6948 35.4222 70.453C35.1824 70.2111 35.0522 69.8905 35.0552 69.5501L35.0908 65.5877C35.0939 65.2244 35.2483 64.8689 35.5142 64.6124C35.7641 64.3713 36.0799 64.242 36.4135 64.2518C37.1075 64.2702 37.6691 64.8505 37.6653 65.5455C37.6635 65.8601 37.8061 66.1584 38.0523 66.3546C38.2985 66.5509 38.6212 66.6235 38.9273 66.5514L44.3433 65.2815C44.917 65.147 45.3554 64.6632 45.4345 64.0777C45.8341 61.1142 46.7956 58.2969 48.2923 55.7039C48.5942 55.1803 48.5348 54.5197 48.1436 54.06L45.5609 51.0267C45.359 50.7897 45.0621 50.6565 44.749 50.6657C44.4376 50.6747 44.147 50.8245 43.9591 51.0728L43.7352 51.3687C43.5679 51.5898 43.3241 51.7289 43.0485 51.7605C42.7738 51.792 42.5038 51.7112 42.2896 51.5329C41.885 51.1957 41.8304 50.5581 42.1681 50.1117L43.8885 47.837C44.2225 47.3955 44.8535 47.3078 45.295 47.642C45.7085 47.9546 45.8144 48.5419 45.5363 48.979C45.3749 49.2329 45.3328 49.5445 45.4212 49.8321C45.5095 50.1196 45.7194 50.354 45.9953 50.4733L49.6069 52.0353C50.1668 52.2777 50.8204 52.1371 51.2333 51.685C52.8774 49.884 54.7833 48.3628 56.8985 47.1639C57.4108 46.8732 57.6965 46.2874 57.6093 45.7057L56.7774 40.1701C56.7311 39.862 56.5474 39.5916 56.2782 39.4348C56.0087 39.278 55.6827 39.252 55.3924 39.3637L54.6042 39.6669C54.3201 39.776 54.0122 39.7646 53.7369 39.6344C53.4619 39.5044 53.2575 39.2728 53.1612 38.9822C52.9791 38.4331 53.2965 37.8075 53.869 37.5874L57.8933 36.0395C58.1774 35.9301 58.4854 35.9418 58.7606 36.0719C59.0357 36.2019 59.2402 36.4336 59.3365 36.7242C59.5185 37.2732 59.2011 37.8989 58.6286 38.1192L58.5198 38.1611C58.2255 38.2744 57.9995 38.5164 57.9067 38.8178C57.8141 39.1192 57.8648 39.4465 58.0447 39.7055L61.2128 44.2726C61.5479 44.7557 62.1576 44.9862 62.7301 44.8461C64.5157 44.4088 66.3627 44.187 68.2219 44.187H68.2225C68.8287 44.187 69.3721 43.8049 69.5747 43.2368L70.6237 40.3016C70.7178 40.0383 70.7006 39.7479 70.5757 39.4977C70.4511 39.2474 70.2298 39.0587 69.9628 38.9752C69.199 38.7363 68.7131 37.9861 68.8073 37.1916C68.8576 36.7688 69.0796 36.384 69.4325 36.108C69.8031 35.8181 70.2772 35.6848 70.7341 35.7425L72.1747 35.9238C73.1085 36.0414 73.7887 36.8673 73.691 37.7649C73.6155 38.4578 73.1304 39.0198 72.4552 39.1965C71.9606 39.3259 71.6363 39.7994 71.6946 40.3074L72.0591 43.4881C72.1286 44.0951 72.5771 44.5913 73.1756 44.7229C75.4705 45.2271 77.6697 46.0815 79.7113 47.2621C80.2227 47.558 80.8734 47.507 81.3308 47.1358L85.6775 43.6075C85.9194 43.4112 86.059 43.1157 86.0574 42.8042C86.0556 42.4928 85.9127 42.1988 85.6688 42.0051L85.0076 41.48C84.7692 41.2908 84.6226 41.0196 84.595 40.7161C84.5674 40.4132 84.663 40.1195 84.8646 39.889C85.245 39.4532 85.9452 39.4091 86.4257 39.7903L89.8026 42.4714C90.041 42.6606 90.1876 42.9319 90.2152 43.2352C90.2428 43.5381 90.1472 43.8318 89.9456 44.0625C89.5651 44.498 88.8645 44.5421 88.3847 44.1612L88.2936 44.0889C88.0465 43.8926 87.7229 43.8208 87.4165 43.894C87.1096 43.9671 86.8534 44.1771 86.7215 44.4636L84.3933 49.5175C84.1471 50.0521 84.2588 50.6949 84.6707 51.1169C84.8167 51.2665 84.961 51.4213 85.1327 51.6078C85.5169 52.0253 86.167 52.0522 86.5845 51.6678C87.0019 51.2834 87.0288 50.6335 86.6445 50.2159C86.5719 50.1369 86.5035 50.0629 86.4372 49.9921L88.1282 46.3215C89.3111 46.7084 90.6421 46.389 91.4933 45.4146C92.0678 44.7569 92.3407 43.9167 92.2615 43.0489C92.1836 42.1932 91.753 41.3963 91.0802 40.8623L87.7033 38.1814C86.3541 37.1102 84.4274 37.2662 83.3169 38.5374C82.7424 39.1951 82.4695 40.0353 82.5487 40.9031C82.6136 41.6152 82.9225 42.2868 83.4124 42.7998L80.3676 45.2719C78.3785 44.1665 76.2573 43.3416 74.0511 42.8154L73.8254 40.8445C74.8697 40.2669 75.6022 39.2033 75.7346 37.9875C75.9529 35.9822 74.4713 34.142 72.4321 33.8851L70.9915 33.7037C69.9961 33.5785 68.9664 33.8648 68.1675 34.4894C67.3801 35.1052 66.8828 35.9788 66.7676 36.9494C66.5999 38.3604 67.2509 39.7087 68.3815 40.4712L67.7866 42.1358C66.0552 42.1654 64.3345 42.3721 62.6592 42.7517L60.3599 39.437C61.2935 38.6145 61.6945 37.3056 61.2875 36.0776C61.0125 35.2486 60.4273 34.5869 59.6396 34.2143C58.8628 33.847 57.9578 33.8132 57.156 34.1216L53.1318 35.6693C51.5237 36.2877 50.6799 38.027 51.2111 39.6288C51.4859 40.4578 52.071 41.1194 52.8588 41.4921C53.5052 41.7977 54.2401 41.8726 54.9314 41.7111L55.5144 45.5905C53.4857 46.7866 51.6401 48.2587 50.0184 49.9741L47.6987 48.9709C47.8872 47.8727 47.4676 46.7084 46.5349 46.0028C45.8833 45.5099 45.079 45.2999 44.2693 45.4127C43.46 45.5249 42.7428 45.9457 42.2501 46.5974L40.5296 48.872C39.5228 50.2028 39.7183 52.0651 40.9745 53.1116C41.6245 53.6531 42.4442 53.8984 43.2831 53.802C43.8121 53.7413 44.3145 53.5414 44.7395 53.2314L46.2959 55.0596C44.8577 57.6538 43.9047 60.4485 43.4589 63.3782L39.4832 64.3105C39.0006 63.106 37.8328 62.2337 36.4678 62.1976C35.5792 62.1753 34.7371 62.5067 34.0872 63.1337C33.4274 63.7705 33.0441 64.658 33.0358 65.569L33.0001 69.5317C32.9922 70.4245 33.334 71.2655 33.9624 71.8996C34.5908 72.5338 35.4288 72.883 36.3217 72.883C37.945 72.8831 39.3116 71.7166 39.6198 70.1776Z" fill="white"/>
<path d="M63.1334 64.569C63.6346 64.3034 63.8257 63.6814 63.56 63.18C63.2943 62.6789 62.6726 62.4874 62.1708 62.7534C59.7155 64.0549 56.9169 63.7109 55.5172 61.9349C54.7318 60.9387 54.4617 59.6185 54.7565 58.2177C55.0655 56.7489 55.9494 55.3774 57.2452 54.3562C58.5408 53.3347 60.0809 52.7964 61.5811 52.838C63.012 52.8784 64.2325 53.4494 65.018 54.4458C66.1972 55.9419 66.1823 58.175 64.9798 60.1349C64.683 60.6187 64.8344 61.2513 65.3183 61.548C65.8018 61.8448 66.4345 61.6932 66.7312 61.2097C68.3891 58.5076 68.3499 55.3533 66.6316 53.1736C65.4627 51.6905 63.6895 50.8419 61.6392 50.7841C59.6577 50.7265 57.6461 51.4235 55.9731 52.7424C54.2999 54.0612 53.1538 55.8555 52.7456 57.7946C52.3231 59.8018 52.7343 61.7241 53.9033 63.207C55.1342 64.7685 57.0615 65.5899 59.1351 65.5897C60.4561 65.5897 61.8363 65.2566 63.1334 64.569Z" fill="white"/>
<path d="M83.0697 55.3547C83.0697 53.2246 81.0874 51.4916 78.6509 51.4916C76.2143 51.4916 74.2319 53.2246 74.2319 55.3547C74.2319 57.4848 76.2143 59.2178 78.6509 59.2178C81.0874 59.2178 83.0697 57.4848 83.0697 55.3547ZM76.2869 55.3547C76.2869 54.3577 77.3474 53.5465 78.651 53.5465C79.9545 53.5465 81.015 54.3577 81.015 55.3547C81.015 56.3517 79.9545 57.1629 78.651 57.1629C77.3474 57.1629 76.2869 56.3517 76.2869 55.3547Z" fill="white"/>
<path d="M71.1464 73.0133C71.1464 70.4027 69.0226 68.2789 66.4121 68.2789C63.8014 68.2789 61.6776 70.4027 61.6776 73.0133C61.6776 75.6238 63.8014 77.7476 66.4121 77.7476C69.0226 77.7476 71.1464 75.6238 71.1464 73.0133ZM63.7326 73.0133C63.7326 71.5358 64.9346 70.3338 66.4122 70.3338C67.8896 70.3338 69.0917 71.5358 69.0917 73.0133C69.0917 74.4907 67.8897 75.6927 66.4122 75.6927C64.9346 75.6927 63.7326 74.4907 63.7326 73.0133Z" fill="white"/>
<path d="M84.5408 71.0821C84.5408 69.052 82.8892 67.4004 80.8591 67.4004C78.8292 67.4004 77.1776 69.052 77.1776 71.0821C77.1776 73.1122 78.8292 74.7638 80.8591 74.7638C82.8892 74.7636 84.5408 73.1122 84.5408 71.0821ZM79.2323 71.0821C79.2323 70.1851 79.9621 69.4553 80.859 69.4553C81.756 69.4553 82.4858 70.1851 82.4858 71.0821C82.4858 71.9791 81.756 72.7089 80.859 72.7089C79.9622 72.7087 79.2323 71.9791 79.2323 71.0821Z" fill="white"/>
<path d="M71.0571 87.6423C73.0463 87.6423 74.6649 86.0239 74.6649 84.0345C74.6649 82.0452 73.0465 80.4266 71.0571 80.4266C69.0676 80.4266 67.4491 82.0451 67.4491 84.0345C67.4491 86.0239 69.0675 87.6423 71.0571 87.6423ZM71.0571 82.4815C71.9134 82.4815 72.61 83.1781 72.61 84.0345C72.61 84.8908 71.9134 85.5874 71.0571 85.5874C70.2007 85.5874 69.504 84.8908 69.504 84.0345C69.504 83.1781 70.2007 82.4815 71.0571 82.4815Z" fill="white"/>
<path d="M54.9107 81.5775C56.9595 81.5775 58.6263 79.9108 58.6263 77.862C58.6263 75.8133 56.9595 74.1465 54.9107 74.1465C52.862 74.1465 51.1952 75.8133 51.1952 77.862C51.1952 79.9108 52.862 81.5775 54.9107 81.5775ZM54.9107 76.2014C55.8265 76.2014 56.5714 76.9464 56.5714 77.862C56.5714 78.7777 55.8264 79.5226 54.9107 79.5226C53.9951 79.5226 53.2501 78.7777 53.2501 77.862C53.2501 76.9464 53.9951 76.2014 54.9107 76.2014Z" fill="white"/>
<path d="M75.8327 65.0034C75.8327 64.436 75.3728 63.976 74.8053 63.976H73.897C73.3294 63.976 72.8695 64.436 72.8695 65.0034C72.8695 65.5708 73.3294 66.0309 73.897 66.0309H74.8053C75.3728 66.0309 75.8327 65.5708 75.8327 65.0034Z" fill="white"/>
<path d="M61.772 83.9907H62.7052C63.2728 83.9907 63.7327 83.5307 63.7327 82.9632C63.7327 82.3958 63.2728 81.9358 62.7052 81.9358H61.772C61.2045 81.9358 60.7446 82.3958 60.7446 82.9632C60.7446 83.5307 61.2046 83.9907 61.772 83.9907Z" fill="white"/>
<path d="M53.1216 69.028C53.6892 69.028 54.149 68.568 54.149 68.0005C54.149 67.4331 53.6892 66.9731 53.1216 66.9731H52.2226C51.6551 66.9731 51.1952 67.4331 51.1952 68.0005C51.1952 68.568 51.6551 69.028 52.2226 69.028H53.1216Z" fill="white"/>
<path d="M71.37 51.0521C71.9376 51.0521 72.3975 50.5921 72.3975 50.0247C72.3975 49.4573 71.9376 48.9973 71.37 48.9973H70.119C69.5514 48.9973 69.0916 49.4573 69.0916 50.0247C69.0916 50.5921 69.5514 51.0521 70.119 51.0521H71.37Z" fill="white"/>
<path d="M78.2049 78.5909C77.6373 78.5909 77.1775 79.051 77.1775 79.6184C77.1775 80.1858 77.6373 80.6458 78.2049 80.6458H79.5864C80.1539 80.6458 80.6138 80.1858 80.6138 79.6184C80.6138 79.051 80.1539 78.5909 79.5864 78.5909H78.2049Z" fill="white"/>
</g>
<defs>
<clipPath id="clip0">
<rect width="70" height="70" fill="white" transform="translate(33 33)"/>
</clipPath>
</defs>
</svg>
