<svg width="100" height="100" viewBox="0 0 100 100" fill="none" xmlns="http://www.w3.org/2000/svg">
<path d="M82.4502 49.7274C81.6225 49.5652 80.7815 49.7348 80.0814 50.2051C79.5017 50.5947 79.0762 51.1521 78.8549 51.8023L75.2576 50.2314C75.265 49.9852 75.2687 49.7426 75.2687 49.5063C75.2687 47.3912 75.0039 45.2911 74.4814 43.2566L76.0951 42.1621C77.1179 43.0579 78.6044 43.3257 79.9058 42.7603C81.657 41.9993 82.4962 39.9728 81.8152 38.1466L81.0556 36.108C80.3669 34.2596 78.3859 33.2857 76.5459 33.8896C75.6148 34.1953 74.8654 34.8477 74.4361 35.7264C74.1918 36.2261 74.0687 36.7622 74.0684 37.3008L72.2377 37.5565C71.9869 37.0967 71.7129 36.6308 71.4203 36.1667C71.1177 35.6867 70.483 35.543 70.0033 35.8454C69.5231 36.148 69.3792 36.7825 69.6819 37.2625C70.0272 37.8103 70.3437 38.3593 70.6225 38.8944C70.9023 39.4308 71.4925 39.7351 72.0898 39.6518L75.3911 39.1909C75.6974 39.1482 75.9682 38.9697 76.1282 38.705C76.2882 38.4404 76.3206 38.1176 76.2162 37.8265C76.0744 37.4314 76.0979 37.006 76.2822 36.6288C76.466 36.2526 76.7873 35.9732 77.1869 35.842C77.962 35.5877 78.8332 36.029 79.13 36.8258L79.8896 38.8644C80.1836 39.6533 79.8235 40.5557 79.0867 40.876C78.3815 41.1823 77.551 40.9197 77.1542 40.2652C77.0083 40.0245 76.7698 39.8543 76.4948 39.7943C76.2199 39.7341 75.932 39.7899 75.699 39.9478L72.9609 41.805C72.453 42.1495 72.2217 42.7792 72.3856 43.3721C72.9352 45.3622 73.2138 47.4262 73.2138 49.5064C73.2138 49.8472 73.2052 50.2034 73.1885 50.5652C73.1612 51.1546 73.5055 51.7088 74.045 51.9443L79.1784 54.1861C79.4639 54.3109 79.7906 54.2992 80.0664 54.1547C80.3424 54.0102 80.5378 53.7483 80.5978 53.4425L80.7605 52.6137C80.8172 52.3248 80.9831 52.0752 81.2275 51.9109C81.4718 51.7466 81.7655 51.6873 82.0542 51.7442C82.6512 51.8612 83.0412 52.4418 82.9242 53.0382L82.0822 57.3284C82.0242 57.6271 81.8503 57.8818 81.5936 58.0456C81.3371 58.2093 81.0322 58.2589 80.735 58.1863C80.1734 58.0483 79.8124 57.4468 79.9303 56.8451L79.9528 56.7305C80.0133 56.421 79.9286 56.1008 79.7227 55.8621C79.5168 55.623 79.2103 55.4909 78.8977 55.5064L73.3448 55.7597C72.757 55.7864 72.2371 56.1807 72.0513 56.7413C71.5369 58.2945 70.8541 59.7953 70.0217 61.2017C69.7117 61.7252 69.7661 62.3891 70.157 62.8535L72.6135 65.7719C72.796 65.9887 73.06 66.1204 73.3427 66.1362C73.6256 66.1515 73.9026 66.0498 74.1077 65.8546C74.6584 65.3309 75.4955 65.2861 76.0982 65.7474C76.4245 65.997 76.6339 66.3586 76.6881 66.7658C76.7424 67.1729 76.6345 67.5768 76.3851 67.903L75.6733 68.8333C75.1619 69.5014 74.2068 69.6732 73.5441 69.2166C72.9809 68.8285 72.7401 68.1052 72.9585 67.4576C73.1286 66.9533 72.8855 66.4026 72.398 66.1886L68.8592 64.6343C68.2965 64.3867 67.6396 64.5266 67.2242 64.9824C65.6463 66.7151 63.8242 68.1913 61.8083 69.3701C61.2991 69.6674 61.0212 70.2573 61.1162 70.8378L62.0222 76.3619C62.0726 76.6693 62.2597 76.9372 62.5311 77.0904C62.8025 77.2436 63.1284 77.2652 63.4178 77.1496L64.2017 76.8359C64.4843 76.7229 64.7926 76.7302 65.0696 76.8568C65.3464 76.9831 65.5538 77.2121 65.6541 77.5014C65.8435 78.0479 65.5343 78.6779 64.9649 78.9056L60.9617 80.507C60.6791 80.6202 60.371 80.6126 60.0938 80.4862C59.8171 80.3599 59.6096 80.131 59.5093 79.8418C59.32 79.2953 59.629 78.6653 60.198 78.4376L60.3063 78.3943C60.5992 78.2772 60.822 78.0321 60.9107 77.7295C60.9994 77.4269 60.9443 77.1003 60.761 76.8435L57.5314 72.3184C57.1897 71.8393 56.5761 71.617 56.0057 71.7649C54.1227 72.253 52.1762 72.5006 50.2199 72.5006C48.6709 72.5006 47.1181 72.3441 45.6049 72.0356C45.0272 71.9179 44.4269 72.1718 44.11 72.6679L40.8774 77.7378C40.7098 78.0005 40.6707 78.325 40.7708 78.6201C40.8707 78.9152 41.0992 79.1489 41.3919 79.2556L41.5063 79.2974C41.8988 79.4404 42.2121 79.7278 42.3884 80.1066C42.5647 80.4852 42.5829 80.91 42.4399 81.3025C42.3987 81.4153 42.3777 81.5345 42.3777 81.6545C42.3777 82.0431 42.2631 82.3371 42.0548 82.4831C41.8467 82.6291 41.5311 82.6361 41.1658 82.5021L37.1946 81.0546C36.3993 80.7647 35.976 79.8779 36.2507 79.0779C36.3818 78.6965 36.664 78.3864 37.0454 78.2044C37.4483 78.0122 37.9167 77.9884 38.33 78.1391L38.421 78.1722C38.717 78.2805 39.0466 78.2464 39.3146 78.08C39.5827 77.9137 39.7594 77.6336 39.794 77.3201L40.4522 71.3783C40.517 70.7936 40.2084 70.2192 39.6846 69.9488C37.2824 68.7082 35.1331 67.0673 33.297 65.0723C32.8929 64.6328 32.2512 64.4894 31.7002 64.7155L26.8541 66.7029C26.5851 66.8132 26.3755 67.0321 26.2772 67.3055C26.1787 67.579 26.2007 67.8813 26.3376 68.1376C26.6451 68.713 26.465 69.4178 25.9187 69.777C25.3555 70.1476 24.567 69.9743 24.1615 69.3907L22.9202 67.6039C22.5221 67.0309 22.6169 66.2616 23.1359 65.8526C23.4043 65.6411 23.7373 65.5484 24.073 65.5916C24.4112 65.6352 24.7104 65.8086 24.9157 66.0801C25.1015 66.3259 25.3878 66.4753 25.6958 66.4873C26.0026 66.499 26.3006 66.3722 26.5047 66.1414L29.9181 62.2834C30.3186 61.8306 30.3904 61.1703 30.0966 60.6396C29.7296 59.9776 29.3882 59.2806 29.0821 58.5677C28.858 58.0464 28.254 57.8052 27.7325 58.0292C27.2111 58.2531 26.97 58.8573 27.1938 59.3787C27.4682 60.0172 27.7686 60.6446 28.0895 61.2489L25.6447 64.0125C25.2515 63.7714 24.8079 63.6141 24.3354 63.5533C23.4468 63.4392 22.5697 63.6825 21.8641 64.2384C20.4929 65.319 20.2156 67.3122 21.2328 68.7761L22.4741 70.5628C23.5099 72.0538 25.5615 72.4713 27.048 71.4937C28.1597 70.7626 28.6955 69.4873 28.5085 68.245L32.0813 66.7797C33.9162 68.7064 36.0259 70.3168 38.363 71.5745L37.8742 75.988C37.2876 75.9713 36.6974 76.0932 36.1607 76.3493C35.2774 76.7707 34.6191 77.5023 34.3073 78.4099C33.6714 80.2617 34.6509 82.314 36.4907 82.9851L40.4619 84.4331C40.8604 84.5781 41.2608 84.6501 41.6465 84.6501C42.2273 84.6501 42.7749 84.4871 43.2331 84.1661C43.9521 83.6631 44.3819 82.8201 44.4285 81.8342C44.695 80.975 44.6339 80.06 44.2514 79.2387C44.0063 78.7121 43.6467 78.262 43.2017 77.9146L45.6143 74.1305C49.0789 74.7751 52.6915 74.6803 56.1057 73.8575L58.4502 77.1425C57.5274 77.9776 57.1441 79.2917 57.5675 80.5143C57.8536 81.3394 58.4476 81.9931 59.2402 82.3551C60.0219 82.7121 60.9272 82.7341 61.7249 82.4151L65.7282 80.8133C67.3278 80.1734 68.1482 78.4231 67.5959 76.8286C67.31 76.0035 66.716 75.3496 65.9233 74.9876C65.273 74.6906 64.5365 74.6255 63.848 74.7962L63.213 70.9249C65.1362 69.7559 66.8912 68.3353 68.4393 66.6943L70.8301 67.7443C70.7633 68.9725 71.3328 70.1883 72.3782 70.9087C73.955 71.9952 76.1192 71.6319 77.3053 70.0821L78.0171 69.1518C78.6003 68.3897 78.8518 67.4461 78.7252 66.4948C78.5986 65.5435 78.1093 64.6984 77.3471 64.1152C76.2351 63.2644 74.7835 63.1498 73.5882 63.7388L72.0117 61.8658C72.7486 60.5685 73.37 59.202 73.8639 57.793L77.8938 57.6091C78.0937 58.8376 78.9888 59.8732 80.2453 60.1817C81.0933 60.3901 81.965 60.2463 82.6992 59.7775C83.4232 59.3151 83.9332 58.5667 84.0992 57.7238L84.9412 53.4336C85.2762 51.7251 84.1592 50.0626 82.4502 49.7274Z" fill="white"/>
<path d="M21.6198 52.5027L25.4709 53.3922C25.5548 53.9277 25.6585 54.4715 25.7804 55.0138C25.8877 55.4916 26.3118 55.8165 26.782 55.8163C26.8565 55.8163 26.9323 55.8081 27.008 55.7911C27.5616 55.6667 27.9097 55.1172 27.7853 54.5635C27.6438 53.9328 27.5289 53.3011 27.4439 52.686C27.363 52.1007 26.9227 51.6182 26.3485 51.4857L20.8941 50.226C20.591 50.156 20.2715 50.2274 20.027 50.4202C19.7823 50.613 19.6383 50.9065 19.6356 51.218L19.63 51.8565C19.6235 52.5714 19.0368 53.153 18.3218 53.153C17.9814 53.153 17.6618 53.0199 17.4222 52.7781C17.1824 52.5362 17.0522 52.2156 17.0552 51.8752L17.0908 47.9128C17.0939 47.5495 17.2483 47.194 17.5142 46.9375C17.7641 46.6964 18.0799 46.5671 18.4135 46.5769C19.1075 46.5953 19.6691 47.1756 19.6653 47.8706C19.6635 48.1852 19.8061 48.4835 20.0523 48.6797C20.2985 48.876 20.6212 48.9486 20.9273 48.8765L26.3433 47.6066C26.917 47.4721 27.3554 46.9883 27.4345 46.4028C27.8341 43.4393 28.7956 40.622 30.2923 38.029C30.5942 37.5054 30.5348 36.8448 30.1436 36.3851L27.5609 33.3518C27.359 33.1148 27.0621 32.9816 26.749 32.9908C26.4376 32.9998 26.147 33.1496 25.9591 33.3979L25.7352 33.6938C25.5679 33.9149 25.3241 34.054 25.0485 34.0856C24.7738 34.1171 24.5038 34.0363 24.2896 33.858C23.885 33.5208 23.8304 32.8832 24.1681 32.4368L25.8885 30.1621C26.2225 29.7206 26.8535 29.6329 27.295 29.9671C27.7085 30.2797 27.8144 30.867 27.5363 31.3041C27.3749 31.558 27.3328 31.8696 27.4212 32.1572C27.5095 32.4447 27.7194 32.6791 27.9953 32.7984L31.6069 34.3604C32.1668 34.6028 32.8204 34.4622 33.2333 34.0101C34.8774 32.2091 36.7833 30.6879 38.8985 29.489C39.4108 29.1983 39.6965 28.6125 39.6093 28.0308L38.7774 22.4952C38.7311 22.1871 38.5474 21.9167 38.2782 21.7599C38.0087 21.6031 37.6827 21.5771 37.3924 21.6888L36.6042 21.992C36.3201 22.1011 36.0122 22.0897 35.7369 21.9595C35.4619 21.8295 35.2575 21.5979 35.1612 21.3073C34.9791 20.7582 35.2965 20.1326 35.869 19.9125L39.8933 18.3646C40.1774 18.2552 40.4854 18.2669 40.7606 18.397C41.0357 18.527 41.2402 18.7587 41.3365 19.0493C41.5185 19.5983 41.2011 20.224 40.6286 20.4443L40.5198 20.4862C40.2255 20.5995 39.9995 20.8415 39.9067 21.1429C39.8141 21.4443 39.8648 21.7716 40.0447 22.0306L43.2128 26.5977C43.5479 27.0808 44.1576 27.3113 44.7301 27.1712C46.5157 26.7339 48.3627 26.5121 50.2219 26.5121H50.2225C50.8287 26.5121 51.3721 26.13 51.5747 25.5619L52.6237 22.6267C52.7178 22.3634 52.7006 22.073 52.5757 21.8228C52.4511 21.5725 52.2298 21.3838 51.9628 21.3003C51.199 21.0614 50.7131 20.3112 50.8073 19.5167C50.8576 19.0939 51.0796 18.7091 51.4325 18.4331C51.8031 18.1432 52.2772 18.0099 52.7341 18.0676L54.1747 18.2489C55.1085 18.3665 55.7887 19.1924 55.691 20.09C55.6155 20.7829 55.1304 21.3449 54.4552 21.5216C53.9606 21.651 53.6363 22.1245 53.6946 22.6325L54.0591 25.8132C54.1286 26.4202 54.5771 26.9164 55.1756 27.048C57.4705 27.5522 59.6697 28.4066 61.7113 29.5872C62.2227 29.8831 62.8734 29.8321 63.3308 29.4609L67.6775 25.9326C67.9194 25.7363 68.059 25.4408 68.0574 25.1293C68.0556 24.8179 67.9127 24.5239 67.6688 24.3302L67.0076 23.8051C66.7692 23.6159 66.6226 23.3447 66.595 23.0412C66.5674 22.7383 66.663 22.4446 66.8646 22.2141C67.245 21.7783 67.9452 21.7342 68.4257 22.1154L71.8026 24.7965C72.041 24.9857 72.1876 25.257 72.2152 25.5603C72.2428 25.8632 72.1472 26.1569 71.9456 26.3876C71.5651 26.8231 70.8645 26.8672 70.3847 26.4863L70.2936 26.414C70.0465 26.2177 69.7229 26.1459 69.4165 26.2191C69.1096 26.2922 68.8534 26.5022 68.7215 26.7887L66.3933 31.8426C66.1471 32.3772 66.2588 33.02 66.6707 33.442C66.8167 33.5916 66.961 33.7464 67.1327 33.9329C67.5169 34.3504 68.167 34.3773 68.5845 33.9929C69.0019 33.6085 69.0288 32.9586 68.6445 32.541C68.5719 32.462 68.5035 32.388 68.4372 32.3172L70.1282 28.6466C71.3111 29.0335 72.6421 28.7141 73.4933 27.7397C74.0678 27.082 74.3407 26.2418 74.2615 25.374C74.1836 24.5183 73.753 23.7214 73.0802 23.1874L69.7033 20.5065C68.3541 19.4353 66.4274 19.5913 65.3169 20.8625C64.7424 21.5202 64.4695 22.3604 64.5487 23.2282C64.6136 23.9403 64.9225 24.6119 65.4124 25.1249L62.3676 27.597C60.3785 26.4916 58.2573 25.6667 56.0511 25.1405L55.8254 23.1696C56.8697 22.592 57.6022 21.5284 57.7346 20.3126C57.9529 18.3073 56.4713 16.4671 54.4321 16.2102L52.9915 16.0288C51.9961 15.9036 50.9664 16.1899 50.1675 16.8145C49.3801 17.4303 48.8828 18.3039 48.7676 19.2745C48.5999 20.6855 49.2509 22.0338 50.3815 22.7963L49.7866 24.4609C48.0552 24.4905 46.3345 24.6972 44.6592 25.0768L42.3599 21.7621C43.2935 20.9396 43.6945 19.6307 43.2875 18.4027C43.0125 17.5737 42.4273 16.912 41.6396 16.5394C40.8628 16.1721 39.9578 16.1383 39.156 16.4467L35.1318 17.9944C33.5237 18.6128 32.6799 20.3521 33.2111 21.9539C33.4859 22.7829 34.071 23.4445 34.8588 23.8172C35.5052 24.1228 36.2401 24.1977 36.9314 24.0362L37.5144 27.9156C35.4857 29.1117 33.6401 30.5838 32.0184 32.2992L29.6987 31.296C29.8872 30.1978 29.4676 29.0335 28.5349 28.3279C27.8833 27.835 27.079 27.625 26.2693 27.7378C25.46 27.85 24.7428 28.2708 24.2501 28.9225L22.5296 31.1971C21.5228 32.5279 21.7183 34.3902 22.9745 35.4367C23.6245 35.9782 24.4442 36.2235 25.2831 36.1271C25.8121 36.0664 26.3145 35.8665 26.7395 35.5565L28.2959 37.3847C26.8577 39.9789 25.9047 42.7736 25.4589 45.7033L21.4832 46.6356C21.0006 45.4311 19.8328 44.5588 18.4678 44.5227C17.5792 44.5004 16.7371 44.8318 16.0872 45.4588C15.4274 46.0956 15.0441 46.9831 15.0358 47.8941L15.0001 51.8568C14.9922 52.7496 15.334 53.5906 15.9624 54.2247C16.5908 54.8589 17.4288 55.2081 18.3217 55.2081C19.945 55.2082 21.3116 54.0417 21.6198 52.5027Z" fill="white"/>
<path d="M45.1336 46.8941C45.6348 46.6285 45.8259 46.0065 45.5602 45.5051C45.2945 45.004 44.6728 44.8125 44.171 45.0785C41.7157 46.38 38.9171 46.036 37.5174 44.26C36.732 43.2638 36.4619 41.9436 36.7567 40.5428C37.0657 39.074 37.9496 37.7025 39.2454 36.6813C40.541 35.6598 42.0811 35.1215 43.5813 35.1631C45.0122 35.2035 46.2327 35.7745 47.0182 36.7709C48.1974 38.267 48.1825 40.5001 46.98 42.46C46.6832 42.9438 46.8346 43.5764 47.3185 43.8731C47.802 44.1699 48.4347 44.0183 48.7314 43.5348C50.3893 40.8327 50.3501 37.6784 48.6318 35.4987C47.4629 34.0156 45.6897 33.167 43.6394 33.1092C41.6579 33.0516 39.6463 33.7486 37.9733 35.0675C36.3001 36.3863 35.154 38.1806 34.7458 40.1197C34.3233 42.1269 34.7345 44.0492 35.9035 45.5321C37.1344 47.0936 39.0617 47.915 41.1353 47.9148C42.4563 47.9148 43.8365 47.5817 45.1336 46.8941Z" fill="white"/>
<path d="M65.0697 37.6798C65.0697 35.5497 63.0874 33.8167 60.6509 33.8167C58.2143 33.8167 56.2319 35.5497 56.2319 37.6798C56.2319 39.8099 58.2143 41.5429 60.6509 41.5429C63.0874 41.5429 65.0697 39.8099 65.0697 37.6798ZM58.2869 37.6798C58.2869 36.6828 59.3474 35.8716 60.651 35.8716C61.9545 35.8716 63.015 36.6828 63.015 37.6798C63.015 38.6768 61.9545 39.488 60.651 39.488C59.3474 39.488 58.2869 38.6768 58.2869 37.6798Z" fill="white"/>
<path d="M53.1465 55.3384C53.1465 52.7278 51.0227 50.604 48.4122 50.604C45.8015 50.604 43.6777 52.7278 43.6777 55.3384C43.6777 57.9489 45.8015 60.0727 48.4122 60.0727C51.0227 60.0727 53.1465 57.9489 53.1465 55.3384ZM45.7327 55.3384C45.7327 53.8609 46.9347 52.6589 48.4123 52.6589C49.8897 52.6589 51.0918 53.8609 51.0918 55.3384C51.0918 56.8158 49.8898 58.0178 48.4123 58.0178C46.9347 58.0178 45.7327 56.8158 45.7327 55.3384Z" fill="white"/>
<path d="M66.5409 53.4072C66.5409 51.3771 64.8893 49.7255 62.8592 49.7255C60.8293 49.7255 59.1777 51.3771 59.1777 53.4072C59.1777 55.4373 60.8293 57.0889 62.8592 57.0889C64.8893 57.0887 66.5409 55.4373 66.5409 53.4072ZM61.2324 53.4072C61.2324 52.5102 61.9622 51.7804 62.8591 51.7804C63.7561 51.7804 64.4859 52.5102 64.4859 53.4072C64.4859 54.3042 63.7561 55.034 62.8591 55.034C61.9623 55.0338 61.2324 54.3042 61.2324 53.4072Z" fill="white"/>
<path d="M53.0572 69.9674C55.0464 69.9674 56.665 68.349 56.665 66.3596C56.665 64.3703 55.0466 62.7517 53.0572 62.7517C51.0677 62.7517 49.4492 64.3702 49.4492 66.3596C49.4492 68.349 51.0676 69.9674 53.0572 69.9674ZM53.0572 64.8066C53.9135 64.8066 54.6101 65.5032 54.6101 66.3596C54.6101 67.2159 53.9135 67.9125 53.0572 67.9125C52.2008 67.9125 51.5041 67.2159 51.5041 66.3596C51.5041 65.5032 52.2008 64.8066 53.0572 64.8066Z" fill="white"/>
<path d="M36.9108 63.9026C38.9596 63.9026 40.6264 62.2359 40.6264 60.1871C40.6264 58.1384 38.9596 56.4716 36.9108 56.4716C34.8621 56.4716 33.1953 58.1384 33.1953 60.1871C33.1953 62.2359 34.8621 63.9026 36.9108 63.9026ZM36.9108 58.5265C37.8266 58.5265 38.5715 59.2715 38.5715 60.1871C38.5715 61.1028 37.8265 61.8477 36.9108 61.8477C35.9952 61.8477 35.2502 61.1028 35.2502 60.1871C35.2502 59.2715 35.9952 58.5265 36.9108 58.5265Z" fill="white"/>
<path d="M57.8328 47.3285C57.8328 46.7611 57.3729 46.3011 56.8054 46.3011H55.8971C55.3295 46.3011 54.8696 46.7611 54.8696 47.3285C54.8696 47.8959 55.3295 48.356 55.8971 48.356H56.8054C57.3729 48.356 57.8328 47.8959 57.8328 47.3285Z" fill="white"/>
<path d="M43.772 66.3158H44.7052C45.2728 66.3158 45.7327 65.8558 45.7327 65.2883C45.7327 64.7209 45.2728 64.2609 44.7052 64.2609H43.772C43.2045 64.2609 42.7446 64.7209 42.7446 65.2883C42.7446 65.8558 43.2046 66.3158 43.772 66.3158Z" fill="white"/>
<path d="M35.1217 51.3531C35.6893 51.3531 36.1491 50.8931 36.1491 50.3256C36.1491 49.7582 35.6893 49.2982 35.1217 49.2982H34.2227C33.6552 49.2982 33.1953 49.7582 33.1953 50.3256C33.1953 50.8931 33.6552 51.3531 34.2227 51.3531H35.1217Z" fill="white"/>
<path d="M53.3702 33.3772C53.9378 33.3772 54.3977 32.9172 54.3977 32.3498C54.3977 31.7824 53.9378 31.3224 53.3702 31.3224H52.1192C51.5516 31.3224 51.0918 31.7824 51.0918 32.3498C51.0918 32.9172 51.5516 33.3772 52.1192 33.3772H53.3702Z" fill="white"/>
<path d="M60.2051 60.916C59.6375 60.916 59.1777 61.3761 59.1777 61.9435C59.1777 62.5109 59.6375 62.9709 60.2051 62.9709H61.5866C62.1541 62.9709 62.614 62.5109 62.614 61.9435C62.614 61.3761 62.1541 60.916 61.5866 60.916H60.2051Z" fill="white"/>
</svg>
