<svg width="136" height="136" viewBox="0 0 136 136" fill="none" xmlns="http://www.w3.org/2000/svg">
<path d="M0 8C0 3.58172 3.58172 0 8 0H128C132.418 0 136 3.58172 136 8V136H0V8Z" fill="#9C27B0"/>
<path fill-rule="evenodd" clip-rule="evenodd" d="M62.7818 35.8942C61.1986 35.8942 59.8966 37.2032 59.8966 38.7953C59.8966 40.3872 61.1985 41.6961 62.7818 41.6961H73.2182C74.8067 41.6961 76.1077 40.3861 76.1077 38.7953C76.1077 37.2041 74.8066 35.8942 73.2182 35.8942H62.7818ZM57.2008 37.3482C57.8432 34.8533 60.1053 33 62.7818 33H73.2182C75.8976 33 78.1609 34.8528 78.8035 37.3482H85.9258C90.9211 37.3482 95 41.4495 95 46.472V93.8763C95 98.8987 90.9211 103 85.9258 103H50.0741C45.079 103 41 98.8986 41 93.8763V46.472C41 41.4494 45.0791 37.3482 50.0741 37.3482H57.2008ZM57.2008 40.2424H50.0741C46.6688 40.2424 43.8785 43.0478 43.8785 46.472V93.8763C43.8785 97.3003 46.6688 100.106 50.0741 100.106H85.9258C89.3313 100.106 92.1215 97.3003 92.1215 93.8763V46.472C92.1215 43.0479 89.3313 40.2424 85.9258 40.2424H78.8035C78.1608 42.7376 75.8975 44.5903 73.2182 44.5903H62.7818C60.1054 44.5903 57.8433 42.7372 57.2008 40.2424ZM63.1477 51.2348C63.1477 50.4356 63.7921 49.7877 64.587 49.7877H71.4133C72.2082 49.7877 72.8525 50.4356 72.8525 51.2348V54.368H75.9686C76.7635 54.368 77.4079 55.0159 77.4079 55.8151V62.679C77.4079 63.4782 76.7635 64.1261 75.9686 64.1261H72.8525V67.2594C72.8525 68.0586 72.2082 68.7065 71.4133 68.7065H64.587C63.7921 68.7065 63.1477 68.0586 63.1477 67.2594V64.1261H60.0316C59.2368 64.1261 58.5924 63.4782 58.5924 62.679V55.8151C58.5924 55.0159 59.2368 54.368 60.0316 54.368H63.1477V51.2348ZM66.0262 52.6819V55.8151C66.0262 56.6143 65.3818 57.2622 64.587 57.2622H61.4709V61.232H64.587C65.3818 61.232 66.0262 61.8798 66.0262 62.679V65.8123H69.9741V62.679C69.9741 61.8798 70.6184 61.232 71.4133 61.232H74.5294V57.2622H71.4133C70.6184 57.2622 69.9741 56.6143 69.9741 55.8151V52.6819H66.0262ZM49.9609 76.9402C49.9609 76.141 50.6053 75.4931 51.4002 75.4931H77.6282C78.4231 75.4931 79.0674 76.141 79.0674 76.9402C79.0674 77.7394 78.4231 78.3873 77.6282 78.3873H51.4002C50.6053 78.3873 49.9609 77.7394 49.9609 76.9402ZM49.9609 85.3051C49.9609 84.5059 50.6053 83.858 51.4002 83.858H71.3193C72.1142 83.858 72.7585 84.5059 72.7585 85.3051C72.7585 86.1043 72.1142 86.7522 71.3193 86.7522H51.4002C50.6053 86.7522 49.9609 86.1043 49.9609 85.3051ZM49.9609 93.6743C49.9609 92.8751 50.6053 92.2272 51.4002 92.2272H71.3193C72.1142 92.2272 72.7585 92.8751 72.7585 93.6743C72.7585 94.4735 72.1142 95.1214 71.3193 95.1214H51.4002C50.6053 95.1214 49.9609 94.4735 49.9609 93.6743Z" fill="white"/>
</svg>
