<svg width="100" height="100" viewBox="0 0 100 100" fill="none" xmlns="http://www.w3.org/2000/svg">
<path d="M37.5807 28.5484H35.3226C35.3226 29.7937 34.3099 30.8065 33.0645 30.8065V33.0645C35.5552 33.0645 37.5807 31.039 37.5807 28.5484Z" fill="white"/>
<path fill-rule="evenodd" clip-rule="evenodd" d="M82.7421 41.6508V42.4468C84.0701 43.0519 85.0001 44.3842 85.0001 45.9355C85.0001 47.2655 84.7741 48.5729 84.3261 49.8227L80.3563 60.9369C79.5694 63.1408 77.9831 64.9303 75.8899 65.9781L67.4402 70.2029C66.7323 70.5574 66.1068 71.0553 65.5739 71.639C66.3732 71.9868 66.9355 72.7839 66.9355 73.7097V85H51.129V73.7097C51.129 72.4644 52.1418 71.4516 53.3871 71.4516V64.394C53.3871 63.3745 53.5519 62.3832 53.8399 61.4371C52.3337 62.075 50.6921 62.4194 49.0019 62.4194H46.3961C46.5249 63.0652 46.6129 63.7211 46.6129 64.394V71.4516C47.8582 71.4516 48.871 72.4644 48.871 73.7097V85H33.0645V73.7097C33.0645 72.7839 33.6268 71.9868 34.4261 71.639C33.8932 71.0553 33.2678 70.5574 32.5598 70.2029L24.1102 65.9781C22.0181 64.9303 20.4307 63.1408 19.6437 60.9381L15.674 49.8216C15.2258 48.5729 15 47.2655 15 45.9355C15 44.1539 16.2261 42.6647 17.8757 42.2334C17.5674 41.7603 17.2773 41.2715 17.0199 40.7566L16.4497 39.6197C15.5013 37.7218 15 35.5969 15 33.4744C15 28.5439 17.6815 23.9837 21.9142 21.5563C21.8318 21.265 21.7742 20.9624 21.7742 20.6452C21.7742 17.5324 24.3066 15 27.4194 15C30.5321 15 33.0645 17.5324 33.0645 20.6452C33.0645 21.0968 33.0295 21.5427 32.9753 21.9842C34.6361 22.2823 36.2315 22.9044 37.6382 23.8426L38.7763 24.6013C40.4337 25.7055 42.3632 26.2903 44.3549 26.2903H45.4839V29.2089C47.6686 31.4048 48.871 34.3177 48.871 37.4158C48.871 38.3326 48.7569 39.2471 48.5413 40.139C49.3316 39.946 50.149 39.8387 50.9845 39.8387C51.9329 39.8387 52.8779 39.9708 53.7936 40.2305L58.9645 41.7084L59.0797 41.189C59.8463 37.7353 62.8518 35.3226 66.3913 35.3226C68.5319 35.3226 70.4536 36.1152 71.8942 37.5547L74.6637 40.3242L75.2847 39.3927C76.0423 38.2581 77.3079 37.5806 78.6718 37.5806C80.9163 37.5806 82.7421 39.4063 82.7421 41.6508ZM66.4828 37.5806C63.9187 37.5806 61.8198 39.2652 61.2847 41.679L60.5045 45.1915C61.6595 46.01 62.4194 47.3502 62.4194 48.871C62.4194 50.5408 61.9903 52.1937 61.1797 53.6513L60.8139 54.3106L65.7907 51.5965C66.3518 51.2905 66.9863 51.129 67.6231 51.129C67.6641 51.129 67.7036 51.1347 67.7432 51.1403C67.7722 51.1444 67.8012 51.1486 67.8308 51.1505C67.9799 50.6627 68.0645 50.1558 68.0645 49.6455C68.0645 48.6226 67.7653 47.6335 67.1986 46.7845C66.2886 45.4195 65.8065 43.8298 65.8065 42.1871L68.0645 42.0968V42.1871C68.0645 42.7798 68.1515 43.3624 68.3186 43.9202L73.2807 47.2282C74.1782 47.8266 75.384 47.9034 76.3482 47.419L76.3945 47.3953L77.6184 44.4576C78.1276 43.236 79.2137 42.3892 80.4839 42.1623V41.6508C80.4839 40.6516 79.671 39.8387 78.6718 39.8387C78.0632 39.8387 77.4998 40.1413 77.1634 40.6471L75.0148 43.8694L70.2978 39.1523C69.2839 38.1384 67.929 37.5806 66.4828 37.5806ZM70.3226 49.6455C70.3226 50.4223 70.1894 51.1979 69.9489 51.9374C70.8566 52.6385 71.4516 53.7247 71.4516 54.9576C71.4516 55.3144 71.4087 55.6632 71.3478 56.0065C72.4553 55.5571 73.354 54.6911 73.8237 53.5644L75.3174 49.9797C75.2873 49.9818 75.2572 49.9842 75.2271 49.9866C75.1443 49.9933 75.0615 50 74.9787 50C73.9242 50 72.9047 49.6918 72.0286 49.1081L70.0753 47.8052C70.2278 48.4035 70.3226 49.0177 70.3226 49.6455ZM58.4734 43.9179L53.1737 42.4027C52.4602 42.1995 51.7229 42.0968 50.9845 42.0968C48.6034 42.0968 46.386 43.1456 44.8686 44.9724C45.4861 45.2908 46.0473 45.7221 46.5102 46.2629L50.3974 50.7994C50.4031 50.7965 50.4084 50.7934 50.4138 50.7903C50.4192 50.7872 50.4245 50.7841 50.4302 50.7813L53.3871 49.3023V48.871C53.3871 46.3803 55.4126 44.3548 57.9032 44.3548C58.0097 44.3548 58.1126 44.3687 58.2157 44.3825C58.2657 44.3892 58.3157 44.396 58.3661 44.4011L58.4734 43.9179ZM43.5048 37.5793C42.9152 37.8575 44.176 38.7586 46.5 38.5C46.5007 38.5458 46.5012 38.5911 46.5013 38.6358L46.5328 38.6148C46.5229 38.6922 46.5121 38.7694 46.5004 38.8466C46.4644 41.4294 45.5433 42.064 44.2347 42.3885C43.7904 42.7762 43.3767 43.2055 43 43.6763L42.4524 44.3605C42.4372 44.3605 42.4219 44.3594 42.4067 44.3582C42.3915 44.3571 42.3762 44.356 42.361 44.356H41.9139C40.7555 44.356 39.6852 44.724 38.8 45.3405C37.7116 43.0294 35.8803 41.1134 33.5692 39.9584L32.9821 39.6648L29.9236 41.705C29.5397 41.9613 29.0903 42.0968 28.6274 42.0968C27.3392 42.0968 26.2903 41.0479 26.2903 39.7224C26.2903 38.8316 26.7849 38.0311 27.5831 37.6315L29.3263 36.761L27.084 34.5187C26.5794 34.0152 26.2903 33.3174 26.2903 32.6039C26.2903 31.7977 26.6449 31.039 27.2647 30.5231L29.1874 28.9198C30.7116 27.6508 31.8305 26.0115 32.465 24.1881C33.8616 24.4218 35.2052 24.9332 36.3861 25.7213L37.5242 26.48C39.2403 27.6237 41.1913 28.3113 43.2269 28.4965V30.1448L43.3478 30.2656C44.8264 31.4205 46.0359 32.7513 46.5 36C46.6181 36.502 46.0105 37.4831 44.0508 37.4998C43.8966 37.5532 43.7337 37.5806 43.5679 37.5806C43.5468 37.5806 43.5257 37.5802 43.5048 37.5793ZM28.6523 56.0065C28.5913 55.6632 28.5484 55.3155 28.5484 54.9576C28.5484 52.8463 30.2657 51.129 32.3769 51.129C33.0137 51.129 33.6482 51.2905 34.2094 51.5965L37.8652 53.5903L37.3695 52.8474C36.7689 51.9453 36.4516 50.8976 36.4516 49.8171C36.4516 49.7912 36.4553 49.7663 36.459 49.7413C36.4624 49.7183 36.4658 49.6953 36.4663 49.6715C35.0753 49.1498 33.6211 48.871 32.124 48.871H30.1471C27.8089 48.871 25.5734 48.3211 23.5761 47.3242L26.1763 53.5644C26.646 54.6911 27.5447 55.5571 28.6523 56.0065ZM25.1613 24.0323C24.4478 24.0323 23.7884 23.8087 23.2419 23.4305C19.5952 25.43 17.2581 29.2811 17.2581 33.4744C17.2581 35.2492 17.6769 37.024 18.4695 38.6092L19.0397 39.7461C21.1566 43.9823 25.4131 46.6129 30.1471 46.6129H32.124C33.8029 46.6129 35.4378 46.9076 37.006 47.4631C37.0319 47.4098 37.0612 47.3579 37.0904 47.3062C37.1057 47.2791 37.121 47.252 37.1358 47.2248C36.4279 45.1565 35.0042 43.3963 33.1244 42.2853L31.1768 43.5826C30.4192 44.0884 29.5386 44.3548 28.6274 44.3548C26.0939 44.3548 24.0323 42.2932 24.0323 39.7597C24.0323 38.3698 24.6205 37.1087 25.6186 36.2473L25.4865 36.1152C24.5629 35.1916 24.0323 33.9113 24.0323 32.6039C24.0323 31.126 24.6826 29.7361 25.8184 28.7889L27.7423 27.1845C29.6899 25.5621 30.8065 23.1798 30.8065 20.6452C30.8065 18.7777 29.2868 17.2581 27.4194 17.2581C25.5519 17.2581 24.0323 18.7777 24.0323 20.6452C24.0323 21.2684 24.5381 21.7742 25.1613 21.7742C25.7845 21.7742 26.2903 21.2684 26.2903 20.6452V19.5161H28.5484V20.6452C28.5484 22.5126 27.0287 24.0323 25.1613 24.0323ZM35.3226 82.742H46.6129V73.7097H35.3226V82.742ZM33.5692 68.1831C35.0234 68.9113 36.2349 70.0663 37.0828 71.4516H44.3549V64.394C44.3549 61.5003 42.7776 58.8414 40.2373 57.4561L33.1289 53.579C32.8986 53.4537 32.6378 53.3871 32.3769 53.3871C31.511 53.3871 30.8065 54.0916 30.8065 54.9576C30.8065 56.344 31.5776 57.5916 32.8173 58.2103L34.0999 58.8516C36.1039 59.8542 37.925 61.1661 39.5079 62.749L37.9115 64.3455C36.5002 62.9342 34.8766 61.7656 33.0894 60.8715L31.8068 60.2302C31.0221 59.8384 30.3594 59.2885 29.8355 58.6337L29.0158 58.47C26.7995 58.0263 24.9603 56.5168 24.091 54.4326L20.2974 45.3269C20.0513 44.7365 19.4778 44.3548 18.8387 44.3548C17.9671 44.3548 17.2581 45.0639 17.2581 45.9355C17.2581 47.0058 17.4399 48.0569 17.7989 49.0629L21.7686 60.1782C22.3602 61.83 23.549 63.1735 25.1195 63.9582L33.5692 68.1831ZM42.2142 56.0437C43.735 57.0926 44.9205 58.5185 45.6747 60.1613H49.0019C52.6905 60.1613 56.0934 58.1595 57.884 54.935L59.2061 52.555C59.8316 51.4316 60.1613 50.1581 60.1613 48.871C60.1613 47.6256 59.1486 46.6129 57.9032 46.6129C56.6579 46.6129 55.6452 47.6256 55.6452 48.871V50.6977L51.4384 52.8C49.6489 53.6942 48.3166 55.2319 47.6821 57.131L45.5415 56.4163C46.1173 54.69 47.1458 53.2008 48.5029 52.0582L44.794 47.7306C44.1844 47.0205 43.2981 46.6129 42.361 46.6129H41.9139C40.1469 46.6129 38.7097 48.0502 38.7097 49.8171C38.7097 50.4505 38.896 51.0658 39.2482 51.5953L42.2142 56.0437ZM53.3871 82.742H64.6774V73.7097H53.3871V82.742ZM78.2315 60.1782L82.2011 49.064C82.5601 48.0569 82.7421 47.0058 82.7421 45.9355C82.7421 45.0639 82.0331 44.3548 81.1613 44.3548C80.5211 44.3548 79.9476 44.7365 79.7026 45.3281L75.909 54.4337C75.0408 56.5179 73.2005 58.0263 70.9853 58.4711L70.1645 58.6348C69.6407 59.2897 68.9768 59.8395 68.1932 60.2313L66.9107 60.8726C65.1234 61.7668 63.4999 62.9353 62.0886 64.3466L60.4921 62.7502C62.075 61.1673 63.8961 59.8553 65.9002 58.8527L67.1828 58.2114C68.4224 57.5916 69.1936 56.3452 69.1936 54.9576C69.1936 54.0916 68.489 53.3871 67.6231 53.3871C67.3623 53.3871 67.1015 53.4537 66.8711 53.579L59.7628 57.4561C57.2224 58.8426 55.6452 61.5014 55.6452 64.3952V71.4527H62.9173C63.7652 70.0674 64.9766 68.9124 66.4308 68.1842L74.8805 63.9594C76.451 63.1735 77.641 61.8311 78.2315 60.1782Z" fill="white"/>
</svg>
