<svg width="137" height="136" viewBox="0 0 137 136" fill="none" xmlns="http://www.w3.org/2000/svg">
<path d="M0.534912 8C0.534912 3.58172 4.11663 0 8.53491 0H128.535C132.953 0 136.535 3.58172 136.535 8V136H0.534912V8Z" fill="#9C27B0"/>
<path d="M56.1154 46.5484H53.8573C53.8573 47.7937 52.8446 48.8065 51.5992 48.8065V51.0645C54.0899 51.0645 56.1154 49.039 56.1154 46.5484Z" fill="white"/>
<path fill-rule="evenodd" clip-rule="evenodd" d="M101.277 59.6508V60.4468C102.605 61.0519 103.535 62.3842 103.535 63.9355C103.535 65.2655 103.309 66.5729 102.861 67.8227L98.8912 78.9369C98.1043 81.1408 96.518 82.9303 94.4248 83.9781L85.9751 88.2029C85.2672 88.5574 84.6417 89.0553 84.1088 89.639C84.9081 89.9868 85.4704 90.7839 85.4704 91.7097V103H69.6639V91.7097C69.6639 90.4644 70.6767 89.4516 71.922 89.4516V82.394C71.922 81.3745 72.0868 80.3832 72.3748 79.4371C70.8686 80.075 69.227 80.4194 67.5368 80.4194H64.931C65.0598 81.0652 65.1478 81.7211 65.1478 82.394V89.4516C66.3931 89.4516 67.4059 90.4644 67.4059 91.7097V103H51.5994V91.7097C51.5994 90.7839 52.1617 89.9868 52.961 89.639C52.4281 89.0553 51.8027 88.5574 51.0947 88.2029L42.6451 83.9781C40.553 82.9303 38.9656 81.1408 38.1786 78.9381L34.2089 67.8216C33.7607 66.5729 33.5349 65.2655 33.5349 63.9355C33.5349 62.1539 34.761 60.6647 36.4106 60.2334C36.1023 59.7603 35.8122 59.2715 35.5548 58.7566L34.9846 57.6197C34.0362 55.7218 33.5349 53.5969 33.5349 51.4744C33.5349 46.5439 36.2164 41.9837 40.4491 39.5563C40.3667 39.265 40.3091 38.9624 40.3091 38.6452C40.3091 35.5324 42.8415 33 45.9543 33C49.067 33 51.5994 35.5324 51.5994 38.6452C51.5994 39.0968 51.5644 39.5427 51.5102 39.9842C53.171 40.2823 54.7664 40.9044 56.1731 41.8426L57.3112 42.6013C58.9686 43.7055 60.8981 44.2903 62.8898 44.2903H64.0188V47.2089C66.2035 49.4048 67.4059 52.3177 67.4059 55.4158C67.4059 56.3326 67.2918 57.2471 67.0762 58.139C67.8665 57.946 68.6839 57.8387 69.5194 57.8387C70.4678 57.8387 71.4128 57.9708 72.3285 58.2305L77.4994 59.7084L77.6146 59.189C78.3812 55.7353 81.3867 53.3226 84.9262 53.3226C87.0668 53.3226 88.9885 54.1152 90.4291 55.5547L93.1986 58.3242L93.8196 57.3927C94.5772 56.2581 95.8428 55.5806 97.2067 55.5806C99.4512 55.5806 101.277 57.4063 101.277 59.6508ZM85.0177 55.5806C82.4536 55.5806 80.3547 57.2652 79.8196 59.679L79.0394 63.1915C80.1944 64.01 80.9543 65.3502 80.9543 66.871C80.9543 68.5408 80.5252 70.1937 79.7146 71.6513L79.3488 72.3106L84.3256 69.5965C84.8867 69.2905 85.5212 69.129 86.158 69.129C86.199 69.129 86.2385 69.1347 86.2781 69.1403C86.3071 69.1444 86.3361 69.1486 86.3657 69.1505C86.5148 68.6627 86.5994 68.1558 86.5994 67.6455C86.5994 66.6226 86.3002 65.6335 85.7335 64.7845C84.8235 63.4195 84.3414 61.8298 84.3414 60.1871L86.5994 60.0968V60.1871C86.5994 60.7798 86.6864 61.3624 86.8535 61.9202L91.8156 65.2282C92.7131 65.8266 93.9189 65.9034 94.8831 65.419L94.9294 65.3953L96.1533 62.4576C96.6625 61.236 97.7486 60.3892 99.0188 60.1623V59.6508C99.0188 58.6516 98.2059 57.8387 97.2067 57.8387C96.5981 57.8387 96.0347 58.1413 95.6983 58.6471L93.5497 61.8694L88.8327 57.1523C87.8188 56.1384 86.4639 55.5806 85.0177 55.5806ZM88.8575 67.6455C88.8575 68.4223 88.7243 69.1979 88.4838 69.9374C89.3915 70.6385 89.9865 71.7247 89.9865 72.9576C89.9865 73.3144 89.9436 73.6632 89.8827 74.0065C90.9902 73.5571 91.8889 72.6911 92.3586 71.5644L93.8523 67.9797C93.8222 67.9818 93.7921 67.9842 93.762 67.9866C93.6792 67.9933 93.5964 68 93.5136 68C92.4591 68 91.4396 67.6918 90.5635 67.1081L88.6102 65.8052C88.7627 66.4035 88.8575 67.0177 88.8575 67.6455ZM77.0083 61.9179L71.7086 60.4027C70.9951 60.1995 70.2578 60.0968 69.5194 60.0968C67.1383 60.0968 64.9209 61.1456 63.4035 62.9724C64.021 63.2908 64.5822 63.7221 65.0451 64.2629L68.9323 68.7994C68.938 68.7965 68.9433 68.7934 68.9487 68.7903C68.9541 68.7872 68.9594 68.7841 68.9651 68.7813L71.922 67.3023V66.871C71.922 64.3803 73.9475 62.3548 76.4381 62.3548C76.5446 62.3548 76.6475 62.3687 76.7506 62.3825C76.8006 62.3892 76.8506 62.396 76.901 62.4011L77.0083 61.9179ZM62.0397 55.5793C61.4501 55.8575 62.7109 56.7586 65.0349 56.5C65.0356 56.5458 65.0361 56.5911 65.0362 56.6358L65.0677 56.6148C65.0578 56.6922 65.047 56.7694 65.0353 56.8466C64.9993 59.4294 64.0782 60.064 62.7696 60.3885C62.3253 60.7762 61.9116 61.2055 61.5349 61.6763L60.9873 62.3605C60.9721 62.3605 60.9568 62.3594 60.9416 62.3582C60.9264 62.3571 60.9111 62.356 60.8959 62.356H60.4488C59.2904 62.356 58.2201 62.724 57.3349 63.3405C56.2465 61.0294 54.4152 59.1134 52.1041 57.9584L51.517 57.6648L48.4585 59.705C48.0746 59.9613 47.6252 60.0968 47.1623 60.0968C45.8741 60.0968 44.8252 59.0479 44.8252 57.7224C44.8252 56.8316 45.3198 56.0311 46.118 55.6315L47.8612 54.761L45.6189 52.5187C45.1143 52.0152 44.8252 51.3174 44.8252 50.6039C44.8252 49.7977 45.1798 49.039 45.7996 48.5231L47.7223 46.9198C49.2465 45.6508 50.3654 44.0115 50.9999 42.1881C52.3965 42.4218 53.7401 42.9332 54.921 43.7213L56.0591 44.48C57.7752 45.6237 59.7262 46.3113 61.7618 46.4965V48.1448L61.8827 48.2656C63.3613 49.4205 64.5708 50.7513 65.0349 54C65.153 54.502 64.5454 55.4831 62.5857 55.4998C62.4315 55.5532 62.2686 55.5806 62.1028 55.5806C62.0817 55.5806 62.0606 55.5802 62.0397 55.5793ZM47.1872 74.0065C47.1262 73.6632 47.0833 73.3155 47.0833 72.9576C47.0833 70.8463 48.8006 69.129 50.9118 69.129C51.5486 69.129 52.1831 69.2905 52.7443 69.5965L56.4001 71.5903L55.9044 70.8474C55.3038 69.9453 54.9865 68.8976 54.9865 67.8171C54.9865 67.7912 54.9902 67.7663 54.9939 67.7413C54.9973 67.7183 55.0007 67.6953 55.0012 67.6715C53.6102 67.1498 52.156 66.871 50.6589 66.871H48.682C46.3438 66.871 44.1083 66.3211 42.111 65.3242L44.7112 71.5644C45.1809 72.6911 46.0796 73.5571 47.1872 74.0065ZM43.6962 42.0323C42.9827 42.0323 42.3233 41.8087 41.7768 41.4305C38.1301 43.43 35.793 47.2811 35.793 51.4744C35.793 53.2492 36.2118 55.024 37.0044 56.6092L37.5746 57.7461C39.6915 61.9823 43.948 64.6129 48.682 64.6129H50.6589C52.3378 64.6129 53.9727 64.9076 55.5409 65.4631C55.5668 65.4098 55.5961 65.3579 55.6253 65.3062C55.6406 65.2791 55.6559 65.252 55.6707 65.2248C54.9628 63.1565 53.5391 61.3963 51.6593 60.2853L49.7117 61.5826C48.9541 62.0884 48.0735 62.3548 47.1623 62.3548C44.6288 62.3548 42.5672 60.2932 42.5672 57.7597C42.5672 56.3698 43.1554 55.1087 44.1535 54.2473L44.0214 54.1152C43.0978 53.1916 42.5672 51.9113 42.5672 50.6039C42.5672 49.126 43.2175 47.7361 44.3533 46.7889L46.2772 45.1845C48.2248 43.5621 49.3414 41.1798 49.3414 38.6452C49.3414 36.7777 47.8217 35.2581 45.9543 35.2581C44.0868 35.2581 42.5672 36.7777 42.5672 38.6452C42.5672 39.2684 43.073 39.7742 43.6962 39.7742C44.3194 39.7742 44.8252 39.2684 44.8252 38.6452V37.5161H47.0833V38.6452C47.0833 40.5126 45.5636 42.0323 43.6962 42.0323ZM53.8575 100.742H65.1478V91.7097H53.8575V100.742ZM52.1041 86.1831C53.5583 86.9113 54.7698 88.0663 55.6177 89.4516H62.8898V82.394C62.8898 79.5003 61.3125 76.8414 58.7722 75.4561L51.6638 71.579C51.4335 71.4537 51.1727 71.3871 50.9118 71.3871C50.0459 71.3871 49.3414 72.0916 49.3414 72.9576C49.3414 74.344 50.1125 75.5916 51.3522 76.2103L52.6348 76.8516C54.6388 77.8542 56.4599 79.1661 58.0428 80.749L56.4464 82.3455C55.0351 80.9342 53.4115 79.7656 51.6243 78.8715L50.3417 78.2302C49.557 77.8384 48.8943 77.2885 48.3704 76.6337L47.5507 76.47C45.3344 76.0263 43.4952 74.5168 42.6259 72.4326L38.8323 63.3269C38.5862 62.7365 38.0127 62.3548 37.3736 62.3548C36.502 62.3548 35.793 63.0639 35.793 63.9355C35.793 65.0058 35.9748 66.0569 36.3338 67.0629L40.3035 78.1782C40.8951 79.83 42.0839 81.1735 43.6544 81.9582L52.1041 86.1831ZM60.7491 74.0437C62.2699 75.0926 63.4554 76.5185 64.2096 78.1613H67.5368C71.2254 78.1613 74.6283 76.1595 76.4189 72.935L77.741 70.555C78.3665 69.4316 78.6962 68.1581 78.6962 66.871C78.6962 65.6256 77.6835 64.6129 76.4381 64.6129C75.1928 64.6129 74.1801 65.6256 74.1801 66.871V68.6977L69.9733 70.8C68.1838 71.6942 66.8515 73.2319 66.217 75.131L64.0764 74.4163C64.6522 72.69 65.6807 71.2008 67.0378 70.0582L63.3289 65.7306C62.7193 65.0205 61.833 64.6129 60.8959 64.6129H60.4488C58.6818 64.6129 57.2446 66.0502 57.2446 67.8171C57.2446 68.4505 57.4309 69.0658 57.7831 69.5953L60.7491 74.0437ZM71.922 100.742H83.2123V91.7097H71.922V100.742ZM96.7664 78.1782L100.736 67.064C101.095 66.0569 101.277 65.0058 101.277 63.9355C101.277 63.0639 100.568 62.3548 99.6962 62.3548C99.056 62.3548 98.4825 62.7365 98.2375 63.3281L94.4439 72.4337C93.5757 74.5179 91.7354 76.0263 89.5202 76.4711L88.6994 76.6348C88.1756 77.2897 87.5117 77.8395 86.7281 78.2313L85.4456 78.8726C83.6583 79.7668 82.0348 80.9353 80.6235 82.3466L79.027 80.7502C80.6099 79.1673 82.431 77.8553 84.4351 76.8527L85.7177 76.2114C86.9573 75.5916 87.7285 74.3452 87.7285 72.9576C87.7285 72.0916 87.0239 71.3871 86.158 71.3871C85.8972 71.3871 85.6364 71.4537 85.406 71.579L78.2977 75.4561C75.7573 76.8426 74.1801 79.5014 74.1801 82.3952V89.4527H81.4522C82.3001 88.0674 83.5115 86.9124 84.9657 86.1842L93.4154 81.9594C94.9859 81.1735 96.1759 79.8311 96.7664 78.1782Z" fill="white"/>
</svg>
