<svg width="380" height="178" viewBox="0 0 380 178" fill="none" xmlns="http://www.w3.org/2000/svg">
  <rect width="380" height="178" rx="5" fill="#9C27B0"/>
  <path d="M41.9593 29.5664H38.861C38.861 31.2751 37.4714 32.6646 35.7627 32.6646V35.7629C39.1801 35.7629 41.9593 32.9838 41.9593 29.5664Z" fill="white" transform="translate(132, 30)"/>
  <path transform="translate(132, 30)" fill-rule="evenodd" clip-rule="evenodd" d="M103.925 47.5441V48.6363C105.747 49.4666 107.023 51.2946 107.023 53.4231C107.023 55.248 106.713 57.0419 106.098 58.7568L100.652 74.0065C99.5719 77.0304 97.3954 79.4858 94.5233 80.9234L82.9295 86.7203C81.9582 87.2067 81.1 87.8899 80.3688 88.6908C81.4656 89.1679 82.2371 90.2616 82.2371 91.5319V107.023H60.5491V91.5319C60.5491 89.8232 61.9387 88.4336 63.6474 88.4336V78.7499C63.6474 77.3511 63.8736 75.9909 64.2686 74.6928C62.2021 75.568 59.9496 76.0405 57.6306 76.0405H54.0552C54.2318 76.9266 54.3526 77.8267 54.3526 78.7499V88.4336C56.0613 88.4336 57.4509 89.8232 57.4509 91.5319V107.023H35.7629V91.5319C35.7629 90.2616 36.5344 89.1679 37.6312 88.6908C36.9 87.8899 36.0418 87.2067 35.0705 86.7203L23.4767 80.9234C20.6062 79.4858 18.4281 77.0304 17.3483 74.008L11.9016 58.7552C11.2866 57.0419 10.9767 55.248 10.9767 53.4231C10.9767 50.9786 12.6591 48.9353 14.9224 48.3435C14.4995 47.6944 14.1014 47.0236 13.7482 46.3172L12.9658 44.7572C11.6646 42.1531 10.9767 39.2377 10.9767 36.3253C10.9767 29.5602 14.6559 23.3032 20.4637 19.9726C20.3506 19.5729 20.2716 19.1577 20.2716 18.7224C20.2716 14.4515 23.7463 10.9767 28.0173 10.9767C32.2882 10.9767 35.7629 14.4515 35.7629 18.7224C35.7629 19.3421 35.7149 19.954 35.6406 20.5597C37.9193 20.9687 40.1083 21.8223 42.0385 23.1096L43.6 24.1506C45.8742 25.6657 48.5216 26.4681 51.2543 26.4681H52.8035V30.4726C55.801 33.4857 57.4509 37.4825 57.4509 41.7333C57.4509 42.9912 57.2944 44.246 56.9985 45.4698C58.0829 45.2049 59.2045 45.0578 60.3508 45.0578C61.6521 45.0578 62.9488 45.239 64.2051 45.5953L71.3001 47.6231L71.4582 46.9105C72.51 42.1717 76.6338 38.8612 81.4904 38.8612C84.4275 38.8612 87.0642 39.9487 89.0409 41.9239L92.8409 45.7239L93.6929 44.4459C94.7324 42.889 96.469 41.9595 98.3403 41.9595C101.42 41.9595 103.925 44.4644 103.925 47.5441ZM81.6159 41.9595C78.0978 41.9595 75.2179 44.2708 74.4836 47.5829L73.4132 52.4022C74.9979 53.5253 76.0405 55.3642 76.0405 57.4509C76.0405 59.742 75.4518 62.01 74.3396 64.0099L73.8376 64.9146L80.6662 61.1905C81.4361 60.7707 82.3068 60.5491 83.1805 60.5491C83.2368 60.5491 83.291 60.5569 83.3452 60.5646C83.385 60.5703 83.4249 60.576 83.4655 60.5786C83.67 59.9093 83.7862 59.2138 83.7862 58.5136C83.7862 57.1101 83.3757 55.753 82.598 54.5881C81.3494 52.7151 80.6879 50.534 80.6879 48.28L83.7862 48.156V48.28C83.7862 49.0933 83.9055 49.8926 84.1347 50.6579L90.9432 55.1969C92.1748 56.0179 93.8293 56.1233 95.1522 55.4587L95.2157 55.4261L96.895 51.3953C97.5937 49.7191 99.0839 48.5573 100.827 48.2459V47.5441C100.827 46.1731 99.7113 45.0578 98.3403 45.0578C97.5054 45.0578 96.7323 45.4729 96.2707 46.1669L93.3227 50.5882L86.8504 44.1159C85.4593 42.7248 83.6003 41.9595 81.6159 41.9595ZM86.8845 58.5136C86.8845 59.5794 86.7017 60.6436 86.3717 61.6583C87.6172 62.6203 88.4336 64.1106 88.4336 65.8023C88.4336 66.2918 88.3747 66.7705 88.2911 67.2414C89.8108 66.6249 91.0439 65.4367 91.6883 63.8906L93.7378 58.9721C93.6966 58.975 93.6553 58.9783 93.614 58.9817C93.5004 58.9908 93.3867 59 93.2731 59C91.8262 59 90.4273 58.5771 89.2252 57.7762L86.5452 55.9885C86.7543 56.8095 86.8845 57.6523 86.8845 58.5136ZM70.6263 50.6548L63.3546 48.5759C62.3756 48.297 61.364 48.156 60.3508 48.156C57.0837 48.156 54.0412 49.5952 51.9592 52.1017C52.8065 52.5386 53.5765 53.1303 54.2116 53.8724L59.5453 60.0968C59.5608 60.089 59.5747 60.0798 59.5902 60.072L63.6474 58.0426V57.4509C63.6474 54.0335 66.4266 51.2543 69.844 51.2543C69.9901 51.2543 70.1312 51.2733 70.2727 51.2923C70.3412 51.3015 70.4098 51.3107 70.4791 51.3178L70.6263 50.6548ZM50.088 41.9577C49.2789 42.3394 51.0089 43.5757 54.1977 43.221C54.1986 43.2838 54.1992 43.3459 54.1995 43.4072L54.2426 43.3785C54.229 43.4846 54.2142 43.5906 54.1982 43.6965C54.1488 47.2404 52.885 48.1111 51.0894 48.5564C50.4798 49.0883 49.9121 49.6773 49.3953 50.3233L48.644 51.2621C48.6231 51.2621 48.6022 51.2605 48.5813 51.259C48.5604 51.2574 48.5395 51.2559 48.5185 51.2559H47.9051C46.3157 51.2559 44.8471 51.7609 43.6326 52.6067C42.1392 49.4356 39.6265 46.8067 36.4554 45.222L35.6499 44.8192L31.4532 47.6185C30.9265 47.9701 30.31 48.156 29.6748 48.156C27.9073 48.156 26.4681 46.7169 26.4681 44.8982C26.4681 43.6759 27.1466 42.5776 28.2419 42.0292L30.6337 40.8348L27.5572 37.7582C26.8647 37.0673 26.4681 36.1099 26.4681 35.1309C26.4681 34.0248 26.9545 32.9838 27.805 32.2758L30.4432 30.0761C32.5345 28.3348 34.0697 26.0855 34.9403 23.5836C36.8566 23.9043 38.7001 24.6061 40.3205 25.6874L41.882 26.7284C44.2367 28.2976 46.9136 29.2411 49.7067 29.4951V31.7569L49.8726 31.9227C51.9013 33.5072 53.5609 35.3333 54.1977 39.7907C54.3598 40.4795 53.526 41.8257 50.837 41.8486C50.6255 41.9218 50.4021 41.9595 50.1746 41.9595C50.1456 41.9595 50.1167 41.9589 50.088 41.9577ZM29.7089 67.2414C29.6253 66.7705 29.5664 66.2933 29.5664 65.8023C29.5664 62.9054 31.9226 60.5491 34.8195 60.5491C35.6932 60.5491 36.5638 60.7707 37.3338 61.1905L42.3499 63.9263L41.6698 62.9069C40.8457 61.6692 40.4104 60.2316 40.4104 58.749C40.4104 58.7135 40.4154 58.6793 40.4205 58.645C40.4251 58.6134 40.4298 58.5819 40.4305 58.5492C38.522 57.8335 36.5267 57.4509 34.4725 57.4509H31.76C28.5517 57.4509 25.4844 56.6964 22.744 55.3285L26.3117 63.8906C26.9561 65.4367 28.1892 66.6249 29.7089 67.2414ZM24.919 23.3698C23.9399 23.3698 23.0352 23.0631 22.2854 22.5442C17.2817 25.2877 14.075 30.5718 14.075 36.3253C14.075 38.7605 14.6497 41.1958 15.7372 43.3708L16.5196 44.9307C19.4242 50.7431 25.2644 54.3526 31.76 54.3526H34.4725C36.7761 54.3526 39.0192 54.7569 41.171 55.5191C41.2065 55.4459 41.2468 55.3748 41.2868 55.3039C41.3079 55.2667 41.3289 55.2295 41.3491 55.1922C40.3778 52.3542 38.4244 49.9391 35.845 48.4147L33.1728 50.1947C32.1333 50.8887 30.925 51.2543 29.6748 51.2543C26.1986 51.2543 23.3698 48.4256 23.3698 44.9493C23.3698 43.0423 24.1769 41.312 25.5464 40.13L25.3651 39.9487C24.0979 38.6815 23.3698 36.9248 23.3698 35.1309C23.3698 33.1031 24.2621 31.1961 25.8206 29.8964L28.4603 27.695C31.1326 25.4689 32.6647 22.2002 32.6647 18.7224C32.6647 16.1602 30.5795 14.075 28.0173 14.075C25.455 14.075 23.3698 16.1602 23.3698 18.7224C23.3698 19.5776 24.0639 20.2716 24.919 20.2716C25.7741 20.2716 26.4681 19.5776 26.4681 18.7224V17.1733H29.5664V18.7224C29.5664 21.2847 27.4813 23.3698 24.919 23.3698ZM38.8612 103.925H54.3526V91.5319H38.8612V103.925ZM36.4554 83.9489C38.4507 84.948 40.1129 86.5328 41.2763 88.4336H51.2543V78.7499C51.2543 74.7795 49.0902 71.1313 45.6046 69.2305L35.8512 63.9108C35.5352 63.7388 35.1774 63.6474 34.8195 63.6474C33.6313 63.6474 32.6647 64.6141 32.6647 65.8023C32.6647 67.7046 33.7227 69.4164 35.4237 70.2653L37.1835 71.1452C39.9332 72.5209 42.432 74.321 44.6039 76.4929L42.4134 78.6833C40.477 76.7469 38.2493 75.1436 35.797 73.9166L34.0372 73.0367C32.9606 72.4992 32.0512 71.7448 31.3324 70.8463L30.2077 70.6216C27.1668 70.0128 24.6432 67.9416 23.4504 65.0819L18.2453 52.5881C17.9076 51.7779 17.1206 51.2543 16.2438 51.2543C15.0479 51.2543 14.075 52.2272 14.075 53.4231C14.075 54.8917 14.3244 56.3339 14.8171 57.7142L20.2638 72.9655C21.0756 75.2319 22.7068 77.0753 24.8617 78.152L36.4554 83.9489ZM48.3171 67.2925C50.4038 68.7317 52.0304 70.6882 53.0653 72.9422H57.6306C62.6916 72.9422 67.3607 70.1956 69.8176 65.7713L71.6317 62.5057C72.4899 60.9643 72.9422 59.2169 72.9422 57.4509C72.9422 55.7422 71.5527 54.3526 69.844 54.3526C68.1353 54.3526 66.7457 55.7422 66.7457 57.4509V59.9574L60.9736 62.8419C58.5182 64.0688 56.6902 66.1787 55.8196 68.7844L52.8825 67.8037C53.6725 65.4351 55.0838 63.3918 56.9458 61.8241L51.8569 55.8862C51.0204 54.9118 49.8043 54.3526 48.5185 54.3526H47.9051C45.4807 54.3526 43.5086 56.3246 43.5086 58.749C43.5086 59.6181 43.7642 60.4624 44.2476 61.1889L48.3171 67.2925ZM63.6474 103.925H79.1388V91.5319H63.6474V103.925ZM97.7362 72.9655L103.183 57.7158C103.676 56.3339 103.925 54.8917 103.925 53.4231C103.925 52.2272 102.952 51.2543 101.756 51.2543C100.878 51.2543 100.091 51.7779 99.7547 52.5897L94.5496 65.0835C93.3583 67.9432 90.8332 70.0128 87.7938 70.6232L86.6676 70.8478C85.9488 71.7463 85.0379 72.5007 83.9628 73.0383L82.203 73.9182C79.7507 75.1451 77.523 76.7485 75.5866 78.6849L73.3961 76.4944C75.568 74.3225 78.0668 72.5224 80.8165 71.1468L82.5763 70.2669C84.2773 69.4164 85.3353 67.7062 85.3353 65.8023C85.3353 64.6141 84.3687 63.6474 83.1805 63.6474C82.8226 63.6474 82.4648 63.7388 82.1488 63.9108L72.3954 69.2305C68.9098 71.1328 66.7457 74.7811 66.7457 78.7515V88.4352H76.7237C77.8871 86.5344 79.5493 84.9496 81.5446 83.9504L93.1383 78.1535C95.2932 77.0753 96.926 75.2334 97.7362 72.9655Z" fill="white"/>
</svg>
