<svg width="100" height="100" viewBox="0 0 100 100" fill="none" xmlns="http://www.w3.org/2000/svg">
<path d="M52.5368 13C52.778 13.0934 53.0195 13.1867 53.2602 13.2812C54.8423 13.901 55.8262 15.3596 55.8307 17.1529C55.8405 20.9858 55.8341 24.8182 55.8341 28.651C55.8341 28.9129 55.8341 29.1752 55.8341 29.4375C55.8734 29.4451 55.9123 29.4527 55.9516 29.4606C56.2944 28.0924 56.6395 26.7254 56.98 25.3564C57.5111 23.2217 58.033 21.0848 58.5697 18.9512C59.1374 16.6945 61.1731 15.3354 63.2975 15.7817C65.5985 16.2648 66.9157 18.28 66.4886 20.6777C65.9224 23.8571 65.3479 27.0349 64.7806 30.2142C64.7417 30.4319 64.7334 30.6553 64.8486 30.9153C65.5263 29.4753 66.1953 28.0312 66.8843 26.5965C67.5869 25.1327 68.7635 24.3087 70.377 24.2256C73.147 24.0831 75.2174 26.6951 74.4513 29.3778C74.1104 30.5706 73.6455 31.7295 73.2082 32.8928C72.9633 33.544 72.4122 33.8165 71.8551 33.6271C71.2474 33.42 70.9666 32.8592 71.1914 32.1769C71.5286 31.1557 71.9145 30.1504 72.2652 29.1337C72.6681 27.9658 72.2905 26.9661 71.3026 26.5413C70.2893 26.1059 69.2953 26.5511 68.7495 27.7111C66.9274 31.5836 65.114 35.4598 63.2968 39.3346C63.2155 39.5077 63.1305 39.6793 63.0488 39.852C62.7801 40.4193 62.3447 40.7247 61.7226 40.538C61.1054 40.3536 60.8737 39.8698 60.9829 39.2424C61.294 37.4509 61.6122 35.6609 61.9335 33.8717C62.7537 29.3037 63.5806 24.7369 64.3959 20.1683C64.5856 19.1058 63.9722 18.1696 62.9642 17.9277C61.9452 17.6832 60.9841 18.2732 60.7014 19.3953C59.498 24.1719 58.3169 28.9538 57.1271 33.7337C56.7053 35.4277 56.285 37.1217 55.856 38.8138C55.6527 39.6154 55.2101 39.9745 54.5808 39.877C53.9889 39.7855 53.6783 39.338 53.6779 38.539C53.6756 31.4724 53.6798 24.4059 53.6737 17.3397C53.6726 15.6759 52.3868 14.7556 50.8081 15.2651C50.0488 15.51 49.5744 16.1011 49.5132 16.8971C49.4932 17.159 49.4989 17.4236 49.4989 17.687C49.4981 24.6096 49.4985 31.5325 49.4985 38.4551C49.4985 38.6229 49.5004 38.7907 49.4977 38.9582C49.4849 39.8074 49.1697 40.2617 48.5453 40.3347C47.8978 40.4103 47.49 40.0754 47.2788 39.25C46.2065 35.0573 45.1418 30.8624 44.0726 26.6687C43.6591 25.0469 43.2524 23.4232 42.8219 21.8059C42.506 20.6195 41.58 19.9906 40.561 20.231C39.5156 20.4778 38.971 21.394 39.1781 22.6155C39.4264 24.0778 39.7016 25.5352 39.9627 26.9952C40.1056 27.7935 39.7851 28.3589 39.1237 28.4825C38.5087 28.5974 38.0132 28.2043 37.8613 27.4166C37.5574 25.8428 37.2623 24.2672 36.9981 22.6866C36.6488 20.5935 37.9603 18.65 40.0338 18.1394C42.0694 17.6379 44.2015 18.7842 44.7812 20.8323C45.5625 23.5921 46.2265 26.3852 46.9424 29.1635C47.0252 29.4837 47.1155 29.8011 47.3366 30.1103C47.3366 29.8979 47.3366 29.6855 47.3366 29.4731C47.3366 25.6164 47.3978 21.7587 47.3135 17.9039C47.2636 15.6328 47.9663 13.816 50.6716 13C51.2934 13 51.9151 13 52.5368 13V13Z" fill="#FEFEFE"/>
<path d="M63.4401 86.5995C62.8656 86.3039 62.6672 85.8353 62.6695 85.1905C62.6857 80.0904 62.6683 74.9903 62.6955 69.8906C62.6982 69.4401 62.872 68.9525 63.0886 68.5477C64.0811 66.6935 65.2131 64.894 65.433 62.7374C65.6156 60.9524 65.7362 59.1605 65.8696 57.3705C66.1772 53.2414 66.4724 49.1111 66.7842 44.982C66.8111 44.629 66.8859 44.2692 67.0031 43.9347C67.8228 41.5887 68.6566 39.2473 69.493 36.9074C69.798 36.054 70.3321 35.7339 70.9893 35.9844C71.6432 36.2339 71.8201 36.791 71.5128 37.6705C71.1106 38.821 70.7796 40.0043 70.2795 41.1106C69.0822 43.7593 68.7821 46.5603 68.6029 49.4146C68.3217 53.8809 67.9638 58.3426 67.5957 62.8028C67.44 64.6915 66.7903 66.4523 65.7906 68.0484C65.0498 69.2311 64.7954 70.4488 64.817 71.8401C64.8839 76.2205 64.8329 80.6029 64.8506 84.9845C64.8533 85.6489 64.7304 86.2079 64.1574 86.5995C63.9182 86.5995 63.6793 86.5995 63.4401 86.5995V86.5995Z" fill="#FEFEFE"/>
<path d="M44.9325 86.5995C44.3626 86.2544 44.1868 85.751 44.2004 85.0888C44.236 83.3419 44.2084 81.5939 44.2144 79.8463C44.2171 79.0012 44.6116 78.5283 45.2897 78.528C45.9674 78.528 46.3642 79.0012 46.3672 79.8447C46.3733 81.5924 46.3461 83.3404 46.3812 85.0877C46.3944 85.7487 46.2176 86.2522 45.6503 86.5995C45.411 86.5995 45.1718 86.5995 44.9325 86.5995Z" fill="#FEFEFE"/>
<path d="M44.2131 73.0684C44.6417 71.3922 43.7993 70.3271 42.6178 69.2609C40.2567 67.13 37.9353 64.9424 35.7481 62.635C34.2597 61.0654 32.8594 59.3574 31.715 57.5263C29.5497 54.0604 27.5722 50.4748 25.5634 46.9126C24.1015 44.3198 25.6205 41.2467 28.553 40.8166C30.0104 40.6027 31.2263 41.1378 32.2052 42.2252C34.3028 44.5553 36.3989 46.8865 38.4951 49.2177C39.1656 49.9634 39.3674 49.929 39.7506 48.9955C39.9135 48.5971 40.0254 48.1693 40.242 47.803C41.1506 46.2652 41.1007 44.6895 40.7375 42.9838C40.0001 39.5225 39.4241 36.0264 38.7827 32.5451C38.7653 32.451 38.757 32.355 38.7472 32.2597C38.6701 31.4989 38.9667 31.0238 39.5923 30.9052C40.2208 30.7857 40.7352 31.1833 40.8818 31.9445C41.1215 33.1895 41.3384 34.4386 41.5656 35.6859C42.1227 38.7454 42.707 41.8004 43.2146 44.8679C43.3106 45.4476 43.2062 46.1128 43.0139 46.6767C42.6132 47.8514 42.1019 48.9887 41.6181 50.1335C40.7669 52.148 38.5725 52.5286 37.1027 50.9064C34.9654 48.548 32.842 46.1767 30.7213 43.8032C30.2334 43.2574 29.6759 42.8813 28.9177 42.9509C27.6274 43.0692 26.8239 44.3822 27.3152 45.5833C27.4774 45.979 27.7174 46.3438 27.9313 46.7164C29.6226 49.6618 31.3223 52.6023 33.0064 55.5518C34.3217 57.8554 35.9427 59.9123 37.8605 61.7419C40.3882 64.1537 42.8929 66.5892 45.4278 68.993C46.0794 69.6113 46.4132 70.2984 46.3803 71.2097C46.3376 72.3817 46.3746 73.5567 46.3678 74.7307C46.3629 75.5569 45.9419 76.0648 45.2854 76.0618C44.6292 76.0584 44.2229 75.5538 44.2142 74.7208C44.2086 74.1702 44.2131 73.6191 44.2131 73.0684V73.0684Z" fill="#FEFEFE"/>
<path d="M59.8778 56.6414C59.8634 55.7355 59.1226 55.0083 58.2265 55.02C57.3425 55.0314 56.59 55.7914 56.5885 56.6743C56.5873 57.6014 57.3519 58.3358 58.2942 58.3116C59.2088 58.2886 59.8925 57.5678 59.8778 56.6414V56.6414ZM62.0431 56.6917C62.037 58.8234 60.3396 60.5037 58.2091 60.4875C56.1311 60.4712 54.4334 58.7716 54.4224 56.6955C54.4111 54.605 56.1523 52.8506 58.2413 52.8472C60.3446 52.8438 62.0487 54.5676 62.0431 56.6917V56.6917Z" fill="#FEFEFE"/>
<path d="M51.4052 48.5744C51.3394 48.0154 51.0106 47.6877 50.4713 47.6945C49.9263 47.7013 49.6009 48.0562 49.5687 48.6061C49.5389 49.1205 50.017 49.5593 50.5386 49.5155C51.1028 49.4682 51.3693 49.1251 51.4052 48.5744V48.5744ZM53.5599 48.6262C53.5531 50.3527 52.1834 51.7012 50.4505 51.6872C48.7701 51.674 47.405 50.3058 47.3936 48.625C47.3827 46.9375 48.8011 45.5088 50.4883 45.5081C52.1914 45.5073 53.5667 46.9035 53.5599 48.6262Z" fill="#FEFEFE"/>
<path d="M54.8901 77.0086C54.3791 77.0717 53.9989 77.3181 53.974 77.8892C53.9498 78.4478 54.2502 78.7853 54.8096 78.8428C55.3361 78.8972 55.8138 78.4731 55.7953 77.9535C55.7757 77.4001 55.4495 77.0955 54.8901 77.0086V77.0086ZM54.8742 81.0171C53.1478 81.0168 51.7947 79.6508 51.8038 77.9176C51.8124 76.23 53.1629 74.8633 54.8444 74.8403C56.5251 74.8168 57.9606 76.233 57.9704 77.9244C57.9803 79.6301 56.5917 81.0171 54.8742 81.0171V81.0171Z" fill="#FEFEFE"/>
<path d="M50.7179 63.7655C50.6563 63.225 50.3509 62.8901 49.796 62.8992C49.2427 62.9083 48.929 63.2466 48.9078 63.8067C48.8882 64.3335 49.3478 64.7867 49.8584 64.7293C50.4038 64.6673 50.699 64.34 50.7179 63.7655ZM49.7839 60.723C51.4953 60.7124 52.8869 62.0915 52.8911 63.8025C52.8952 65.5105 51.5017 66.9074 49.7991 66.9021C48.1247 66.8968 46.7569 65.5381 46.7289 63.8532C46.7006 62.1456 48.0786 60.7339 49.7839 60.723Z" fill="#FEFEFE"/>
<path d="M60.6987 47.0551C60.6042 46.5199 60.3321 46.179 59.7598 46.1722C59.225 46.1654 58.8002 46.608 58.8558 47.1341C58.9151 47.6901 59.253 47.9939 59.8078 47.975C60.3748 47.9554 60.6333 47.5865 60.6987 47.0551V47.0551ZM56.689 47.0899C56.6837 45.3675 58.0534 43.9903 59.7693 43.9929C61.4773 43.9956 62.8685 45.3951 62.8557 47.097C62.8428 48.7687 61.4739 50.1433 59.7976 50.1675C58.098 50.1917 56.6946 48.8027 56.689 47.0899V47.0899Z" fill="#FEFEFE"/>
<path d="M47.9898 56.2889C47.7989 56.2889 47.6065 56.3051 47.4175 56.2858C46.8359 56.2254 46.5006 55.8822 46.4579 55.3107C46.4118 54.698 46.738 54.2948 47.328 54.1806C47.6969 54.1092 48.0899 54.1228 48.4686 54.1493C49.1448 54.1973 49.5518 54.6361 49.5405 55.2529C49.5295 55.8705 49.1168 56.2575 48.4191 56.2994C48.2766 56.3081 48.133 56.3009 47.9898 56.3009C47.9898 56.2968 47.9898 56.293 47.9898 56.2889V56.2889Z" fill="#FEFEFE"/>
<path d="M50.6623 73.0759C49.7061 73.0771 49.172 72.6337 49.2344 71.8903C49.2919 71.2062 49.7877 70.8944 50.7874 70.9133C51.5758 70.928 52.057 71.3101 52.0853 71.9428C52.1174 72.6454 51.5781 73.0748 50.6623 73.0759V73.0759Z" fill="#FEFEFE"/>
<path d="M41.4931 59.7233C40.6378 59.7218 40.1408 59.3756 40.1181 58.7202C40.0977 58.1192 40.4125 57.7269 40.995 57.5894C41.9085 57.3735 42.6432 57.677 42.8575 58.3328C43.1176 59.1284 42.5317 59.7259 41.4931 59.7233Z" fill="#FEFEFE"/>
<path d="M57.3983 70.0198C56.5778 70.0206 56.0966 69.6196 56.0947 68.9317C56.0925 68.2393 56.5585 67.8523 57.3953 67.8511C58.2158 67.8504 58.7079 68.2548 58.7075 68.9294C58.7068 69.6045 58.2094 70.0187 57.3983 70.0198Z" fill="#FEFEFE"/>
</svg>
