<svg width="136" height="136" viewBox="0 0 136 136" fill="none" xmlns="http://www.w3.org/2000/svg">
<path d="M0 8C0 3.58172 3.58172 0 8 0H128C132.418 0 136 3.58172 136 8V136H0V8Z" fill="#9C27B0"/>
<g clip-path="url(#clip0)">
<path d="M97.5485 51.517C97.5485 51.4469 97.4784 51.3768 97.4784 51.3768C97.4083 51.2365 97.3381 51.0962 97.268 51.0261L97.1978 50.9559L78.6107 33.4208C78.4704 33.2806 78.3301 33.2104 78.1898 33.1403C78.1197 33.1403 78.1197 33.1403 78.0495 33.0701C77.9093 33 77.769 33 77.6287 33H77.5586H46.4864C41.9974 33 38.4203 36.6473 38.4203 41.0661V94.9339C38.4203 99.4228 42.0676 103 46.4864 103H89.4824C93.9714 103 97.5485 99.3527 97.5485 94.9339V52.008C97.5485 51.9379 97.5485 51.9379 97.5485 51.9379C97.6187 51.7976 97.5485 51.6573 97.5485 51.517ZM79.1017 38.1904L92.1477 50.4649H79.1017V38.1904ZM94.4624 95.004C94.5325 97.7395 92.288 99.984 89.5525 99.984H46.4864C43.7509 99.984 41.5065 97.7395 41.5065 95.004V41.1363C41.5065 38.4008 43.7509 36.1563 46.4864 36.1563H75.9453V52.008C75.9453 52.8497 76.6467 53.5511 77.4884 53.5511H94.4624V95.004Z" fill="white"/>
<path d="M63.3902 48.5712H49.2219C48.3802 48.5712 47.6788 49.2726 47.6788 50.1143C47.6788 50.9559 48.3802 51.6573 49.2219 51.6573H63.3902C64.2319 51.6573 64.9333 50.9559 64.9333 50.1143C64.9333 49.2726 64.2319 48.5712 63.3902 48.5712Z" fill="white"/>
<path d="M84.3621 60.7755H49.2219C48.3802 60.7755 47.6788 61.4769 47.6788 62.3186C47.6788 63.1603 48.3802 63.8617 49.2219 63.8617H84.3621C85.2038 63.8617 85.9052 63.1603 85.9052 62.3186C85.9052 61.4769 85.2038 60.7755 84.3621 60.7755Z" fill="white"/>
<path d="M84.3621 71.0161H49.2219C48.3802 71.0161 47.6788 71.7175 47.6788 72.5591C47.6788 73.4008 48.3802 74.1022 49.2219 74.1022H84.3621C85.2038 74.1022 85.9052 73.4008 85.9052 72.5591C85.9052 71.7175 85.2038 71.0161 84.3621 71.0161Z" fill="white"/>
<path d="M84.3621 81.1864H49.2219C48.3802 81.1864 47.6788 81.8878 47.6788 82.7295C47.6788 83.5711 48.3802 84.2725 49.2219 84.2725H84.3621C85.2038 84.2725 85.9052 83.5711 85.9052 82.7295C85.9052 81.8878 85.2038 81.1864 84.3621 81.1864Z" fill="white"/>
</g>
<defs>
<clipPath id="clip0">
<rect width="70" height="70" fill="white" transform="translate(33 33)"/>
</clipPath>
</defs>
</svg>
