<svg width="100" height="100" viewBox="0 0 100 100" fill="none" xmlns="http://www.w3.org/2000/svg">
<path d="M79.1282 33.517C79.1282 33.4469 79.0581 33.3768 79.0581 33.3768C78.988 33.2365 78.9178 33.0962 78.8477 33.0261L78.7775 32.9559L60.1904 15.4208C60.0501 15.2806 59.9098 15.2104 59.7695 15.1403C59.6994 15.1403 59.6994 15.1403 59.6292 15.0701C59.489 15 59.3487 15 59.2084 15H59.1383H28.0661C23.5771 15 20 18.6473 20 23.0661V76.9339C20 81.4228 23.6473 85 28.0661 85H71.0621C75.5511 85 79.1282 81.3527 79.1282 76.9339V34.008C79.1282 33.9379 79.1282 33.9379 79.1282 33.9379C79.1984 33.7976 79.1282 33.6573 79.1282 33.517ZM60.6814 20.1904L73.7274 32.4649H60.6814V20.1904ZM76.0421 77.004C76.1122 79.7395 73.8677 81.984 71.1322 81.984H28.0661C25.3306 81.984 23.0862 79.7395 23.0862 77.004V23.1363C23.0862 20.4008 25.3306 18.1563 28.0661 18.1563H57.525V34.008C57.525 34.8497 58.2264 35.5511 59.0681 35.5511H76.0421V77.004Z" fill="white"/>
<path d="M44.9697 30.5712H30.8014C29.9597 30.5712 29.2583 31.2726 29.2583 32.1143C29.2583 32.9559 29.9597 33.6573 30.8014 33.6573H44.9697C45.8114 33.6573 46.5128 32.9559 46.5128 32.1143C46.5128 31.2726 45.8114 30.5712 44.9697 30.5712Z" fill="white"/>
<path d="M65.9416 42.7755H30.8014C29.9597 42.7755 29.2583 43.4769 29.2583 44.3186C29.2583 45.1603 29.9597 45.8617 30.8014 45.8617H65.9416C66.7833 45.8617 67.4847 45.1603 67.4847 44.3186C67.4847 43.4769 66.7833 42.7755 65.9416 42.7755Z" fill="white"/>
<path d="M65.9416 53.0161H30.8014C29.9597 53.0161 29.2583 53.7175 29.2583 54.5591C29.2583 55.4008 29.9597 56.1022 30.8014 56.1022H65.9416C66.7833 56.1022 67.4847 55.4008 67.4847 54.5591C67.4847 53.7175 66.7833 53.0161 65.9416 53.0161Z" fill="white"/>
<path d="M65.9416 63.1864H30.8014C29.9597 63.1864 29.2583 63.8878 29.2583 64.7295C29.2583 65.5711 29.9597 66.2725 30.8014 66.2725H65.9416C66.7833 66.2725 67.4847 65.5711 67.4847 64.7295C67.4847 63.8878 66.7833 63.1864 65.9416 63.1864Z" fill="white"/>
</svg>
