<svg width="100" height="100" viewBox="0 0 100 100" fill="none" xmlns="http://www.w3.org/2000/svg">
<path fill-rule="evenodd" clip-rule="evenodd" d="M49.341 87.9702L49.7714 88.7883L50.2017 87.9702C51.2546 85.9644 53.8016 84.2561 55.7124 83.0952C58.5815 81.3551 61.6562 79.8726 64.6308 78.3026C67.489 76.7936 70.4365 75.1624 72.9753 73.1725C75.1541 71.4643 77.2247 69.3177 78.0556 66.6451C78.3127 65.8215 78.4427 64.9713 78.4427 64.1079C78.4427 60.0963 77.0244 56.4913 75.5006 52.841C74.3638 50.1205 72.7425 46.643 73.0808 43.6516C73.4246 40.6044 75.5926 38.5109 78.0989 36.9222L78.5428 36.6406L70.1739 26.0644L69.998 26.0299C68.734 25.7908 67.4673 25.5755 66.1979 25.3869L63.0393 18.2325L64.1571 18.4025L65.3291 17.4197L66.1708 15.6449C66.317 15.3554 66.2277 14.0111 66.2277 13.5807C65.5781 13.4532 61.9756 12.7279 61.6914 12.7651L59.1309 13.9075V12.4383L54.5973 12.0797V12.0956L53.0383 13.5462L52.0368 13.5223V12L47.5059 12.008V13.5356L46.5207 13.5621L44.9455 12.0983L40.4146 12.4596V13.9128L37.8541 12.7837C37.5564 12.7465 33.9837 13.4532 33.3205 13.5807C33.3205 14.0111 33.2312 15.3527 33.3747 15.6423C34.4248 17.7835 33.6643 16.9999 35.5345 18.376L36.4061 18.2431L33.3205 25.456C32.0647 25.6313 30.8088 25.8226 29.5556 26.0325L29.3716 26.0644L21 36.6432L21.4439 36.9249C23.9475 38.5136 26.1182 40.6071 26.4619 43.6543C26.8003 46.6457 25.179 50.1206 24.0422 52.8437C22.5184 56.4966 21.1001 60.0989 21.1001 64.1105C21.1001 64.9739 21.23 65.8215 21.4872 66.6477C22.3181 69.3177 24.3887 71.4643 26.5675 73.1752C29.1063 75.165 32.0538 76.7961 34.912 78.3051C37.8839 79.8752 40.9613 81.3576 43.8304 83.0977C45.7412 84.256 48.2882 85.9644 49.341 87.9702ZM56.0047 41.2261L54.1128 41.6138C53.2521 41.5076 52.9598 42.5863 52.8813 43.0353C53.1249 42.9688 53.5877 42.8732 53.8313 42.8068C54.2833 42.844 54.6298 42.9103 54.8653 43.0033C55.3146 43.1574 55.7233 43.3513 56.0859 43.5798C56.9764 44.8231 56.9954 48.1653 57.3364 50.0568C57.4555 50.713 57.3554 50.5881 57.4582 50.0196C57.58 49.3448 57.8317 48.6701 58.0699 47.9846L57.2092 45.1101L57.5259 45.0197L58.2485 47.456C58.3568 47.1159 58.457 46.7759 58.5246 46.4305L57.6017 44.5549L57.8994 44.4166L58.6085 45.8806C58.6193 45.7769 58.6248 45.6759 58.6302 45.5723C58.6627 44.5787 58.0266 43.4816 57.783 42.5199C58.4245 42.2383 59.231 42.2222 59.8373 41.8344C59.9402 41.7679 59.951 41.6246 59.9185 41.4971L58.5463 41.8185L58.4732 41.505L59.7724 41.1941C59.7913 41.0772 59.7101 40.8673 59.5694 40.7584L58.3568 41.327L58.2161 41.0347L59.3339 40.5167C59.2689 40.3866 59.0876 40.2669 58.9685 40.2882C58.438 40.3865 57.1226 41.3005 56.0047 41.2261ZM54.0262 42.3444C53.9234 42.3365 53.8449 42.2436 53.8503 42.1347C53.8584 42.0284 53.9477 41.9459 54.0533 41.9539C54.1588 41.9619 54.2346 42.0549 54.2292 42.1638C54.2211 42.27 54.1318 42.3524 54.0262 42.3444ZM50.5563 39.4805C49.793 39.4938 49.7633 39.4752 50.513 39.6904C51.8934 40.0863 53.244 40.336 54.4295 41.133L55.975 40.8168L56.0318 40.8195C56.0589 40.8222 56.0887 40.8223 56.1157 40.8223C55.5906 40.4849 55.052 40.2245 54.5026 40.0279C53.2332 39.5763 51.9096 39.4566 50.5563 39.4805ZM59.7182 40.3732C59.5856 40.0703 59.2283 39.826 58.8927 39.8898C58.6193 39.9429 58.2946 40.1075 58.0428 40.2244C57.7126 40.3785 57.3797 40.5352 57.0333 40.6521C56.9331 40.6867 56.8276 40.7186 56.722 40.7452C56.3458 40.4742 55.9506 40.235 55.5338 40.0305L59.1228 36.4653C60.1269 37.3553 61.0093 38.3887 61.7699 39.5311L60.0403 40.6814C59.9564 40.5538 59.8455 40.4449 59.7182 40.3732ZM60.1811 41.0321L61.9701 39.8419C61.9431 39.7967 61.9133 39.7542 61.8835 39.709C62.5385 40.7212 63.1015 41.8132 63.5698 42.9635C63.5292 42.9609 63.4886 42.9608 63.448 42.9608C61.6291 42.9794 60.7197 43.9359 60.0512 44.9799L59.0416 45.3997C59.0118 44.4805 58.5625 43.6329 58.2837 42.7642C58.8765 42.5809 59.4828 42.541 60.0647 42.1717C60.422 41.9459 60.4138 41.4226 60.1919 41.1091C60.1892 41.0825 60.1865 41.0587 60.1811 41.0321ZM59.028 45.8061L59.7264 45.5165C59.4259 46.0319 59.1553 46.5341 58.8332 46.9193C58.8981 46.6696 58.9523 46.4144 58.9902 46.1541C59.0064 46.0399 59.0199 45.923 59.028 45.8061ZM58.5977 47.695C60.1784 46.619 60.292 43.3991 63.4534 43.3672C63.5481 43.3672 63.6428 43.3752 63.7376 43.3885C64.3195 44.9081 64.7444 46.5207 65.0097 48.1758C64.9474 48.1679 64.8852 48.1572 64.8202 48.1466C64.4196 48.0802 64.0218 48.0006 63.6239 47.9235C63.1638 47.8332 62.6955 47.7429 62.23 47.6897C62.0513 47.6685 61.8727 47.6737 61.6968 47.7082C60.8523 47.8676 60.1351 48.6887 59.5775 49.2784C58.7168 50.1897 57.9075 50.9813 56.8249 51.6507L56.178 51.9962L49.7524 51.9217C50.5861 50.0753 53.106 47.1372 54.4322 47.3497C55.0791 47.4533 55.9452 47.7162 56.6516 47.8836C56.7274 48.6354 56.8005 49.3952 56.9331 50.1311C56.9818 50.3941 56.9602 50.9228 57.4176 50.9069C57.8669 50.8909 57.8155 50.3596 57.8642 50.0939C58.0131 49.2677 58.3297 48.492 58.5977 47.695ZM56.6083 47.4585C56.2944 47.3815 55.9966 47.2966 55.8288 47.2514L55.6556 47.2062L56.5407 46.8396C56.5596 46.991 56.5758 47.1318 56.5894 47.2566L56.6083 47.4585ZM56.4892 46.4571L55.0466 47.0547C54.8626 47.0122 54.6812 46.9751 54.4972 46.9459C53.8503 46.8423 53.1574 47.2566 52.6675 47.6259C52.3562 47.8597 52.0585 48.1253 51.7743 48.4096L48.1609 49.9081C48.0554 49.6849 47.9336 49.4697 47.7983 49.2625L55.8261 43.9251C56.1807 44.5256 56.3756 45.5936 56.4892 46.4571ZM55.4905 43.7047L47.5871 48.9595C47.4383 48.7629 47.2786 48.5744 47.1054 48.3991L52.497 43.0458L52.4076 43.5532L53.0329 43.3833C53.2927 43.3142 53.6067 43.2769 53.8692 43.2132C54.1399 43.2371 54.4728 43.2796 54.7137 43.3752L54.7218 43.3779L54.7326 43.3806C54.9898 43.4736 55.2442 43.5799 55.4905 43.7047ZM52.6891 42.3259L46.8347 48.1413C46.6507 47.9766 46.4585 47.8251 46.2555 47.6843L51.2221 40.3069C52.1316 40.5513 53.0004 40.785 53.788 41.218C53.3306 41.2924 53.0031 41.6218 52.8028 42.0681C52.7595 42.1505 52.7243 42.2383 52.6891 42.3259ZM50.8351 40.2006L45.9361 47.4799C45.7981 47.3975 45.6573 47.3205 45.5112 47.2514V46.5818L51.1382 33.062C52.5403 33.1842 53.8422 33.4898 55.0358 33.9573L51.5848 39.09C51.2411 39.0741 50.8946 39.0715 50.5482 39.0795C50.2261 39.0848 49.6225 39.0078 49.5603 39.4594C49.498 39.911 50.0908 39.9934 50.3993 40.081C50.5455 40.1209 50.6916 40.1608 50.8351 40.2006ZM52.0179 39.1166L55.3931 34.1008C56.6625 34.6374 57.8101 35.3575 58.8386 36.2208L55.1711 39.8632C55.0006 39.7888 54.8247 39.7197 54.646 39.6533C53.7907 39.3452 52.9111 39.1857 52.0179 39.1166ZM55.4472 60.1149L55.4445 60.1203L55.4174 60.1894L55.3633 60.2452L54.6514 60.9837L54.5107 59.565L54.508 59.4588L54.5269 59.3737C54.8653 58.9566 55.2496 58.6165 55.6935 58.3588L55.0872 58.9539L55.32 59.1824L56.0805 58.436C55.772 58.962 55.6069 59.4799 55.4472 60.1149ZM57.4311 59.1081C57.5665 59.4668 57.6612 59.8387 57.7722 60.2505L57.7857 60.2716V60.3116L57.488 60.9889C57.4663 60.362 57.4474 59.7351 57.4311 59.1081ZM57.5123 61.7487L57.8047 61.0846L57.7938 62.0118L58.1213 62.0172L58.1322 61.1352L58.4515 61.9666L58.7601 61.8525L58.4218 60.9703L59.0578 61.6292L59.296 61.4061L59.1877 61.2945L59.2825 60.3434L59.5315 61.2705L59.8509 61.1883L59.6073 60.285L60.1459 61.0448L60.4165 60.8615L59.8184 60.0167L60.6439 60.5401L60.8225 60.2691L60.0457 59.7775L60.3083 59.8307L60.403 59.9953L60.5952 59.8891L60.947 59.9608L61.0147 59.6447L60.92 59.6261L61.1176 59.4402L60.3191 58.6218L61.2962 59.1824L61.4613 58.9035L60.3895 58.2898L61.5858 58.5555L61.6589 58.242L60.671 58.0242L61.6805 57.9897L61.6697 57.6681L60.5438 57.7053L61.6264 57.3573L61.5236 57.0518L60.449 57.3971L60.9958 57.0332H60.9985V57.0305L61.4018 56.7622L61.2177 56.4939L60.9173 56.6931L60.1161 56.5682L61.1582 56.4567L61.123 56.1353L59.9402 56.2627L61.0066 55.8059L60.874 55.5109L59.7994 55.9706L60.6845 55.2187L60.4707 54.9743L59.5883 55.7234L60.2163 54.7326L59.9375 54.5625L59.9239 54.5838L59.8806 54.4801L59.5667 54.6077L59.6127 54.4376L59.4963 54.4085L59.7101 54.2516L59.5152 53.9913L58.4894 54.7379L59.25 53.7655L58.9902 53.569L58.1619 54.6289L58.6166 53.3856L58.3081 53.2766L57.9237 54.3234L58.0239 53.2183L57.6964 53.189L57.5881 54.4085L57.3445 53.1969L57.0224 53.2607L57.2633 54.4616L56.8763 53.7257L57.0197 53.452L56.7274 53.3032L56.6922 53.3723L56.6814 53.3511L56.3891 53.4999L56.5082 53.7284L56.1455 54.419L56.3864 53.2183L56.0643 53.1544L55.8207 54.366L55.7124 53.1465L55.3849 53.1758L55.4851 54.2808L55.1007 53.2341L54.7922 53.343L55.2469 54.5838L54.4187 53.5238L54.1588 53.7203L54.9194 54.6926L53.8936 53.9461L53.6987 54.2066L53.9694 54.4031L53.8313 54.4403L53.8665 54.5732L53.5309 54.4376L53.4659 54.5891L53.2278 54.7351L53.8557 55.7262L52.9733 54.977L52.7568 55.2214L53.6419 55.9731L52.5673 55.5135L52.4374 55.8084L53.5038 56.2654L52.321 56.138L52.2858 56.4594L53.3279 56.5709L52.6106 56.6825L52.3319 56.4966L52.1478 56.7649L52.4347 56.9562L52.4482 57.0359L52.5349 57.0225L53.1005 57.3998L52.026 57.0545L51.9232 57.36L53.0058 57.708L51.8799 57.6708L51.869 57.9922L52.8786 58.0267L51.8907 58.2446L51.9638 58.5582L53.1601 58.2924L52.0883 58.9062L52.2534 59.1852L53.2305 58.6245L52.432 59.4428L52.6296 59.6287L52.5349 59.6474L52.6025 59.9636L52.9544 59.8918L53.1466 59.9981L53.2413 59.8334L53.5038 59.7803L52.727 60.2716L52.9057 60.5426L53.7339 60.0193L53.1357 60.8642L53.4064 61.0475L53.945 60.2877L53.7014 61.1908L54.0181 61.2733L54.2698 60.3461L54.3645 61.2971L54.2563 61.4087L54.4945 61.632L55.1278 60.9757L54.7895 61.8577L55.098 61.972L55.4174 61.1404L55.4282 62.0224L55.7557 62.0172L55.7422 61.09L56.002 61.6824L55.9317 63.7467C53.9288 63.0878 52.0287 62.3306 50.7025 60.9517C47.6629 57.793 48.1745 54.8973 49.4385 52.7215L49.4412 52.7161L49.4439 52.7108L49.4466 52.7054L49.4493 52.7001L49.452 52.6949L49.4547 52.6895L49.4574 52.6842L49.4601 52.679L49.4628 52.6736L49.4655 52.6683L49.4682 52.6629L49.471 52.6576L49.4737 52.6524V52.6497L49.5278 52.5593L49.5305 52.5541L49.5332 52.5514L49.5386 52.5434V52.5407L49.5413 52.5354L49.5982 52.4451V52.4425L49.6009 52.4371L49.6496 52.3574L49.655 52.3521L49.6577 52.3469L49.6604 52.3415L50.402 52.3494L65.3345 52.5221V52.5168V52.5221C65.3101 57.3466 63.992 62.1526 61.372 65.7417C60.2108 65.144 58.9062 64.7083 57.5881 64.2912C57.5692 63.4331 57.5394 62.5909 57.5123 61.7487ZM57.6098 64.7003C58.844 65.0935 60.0539 65.5053 61.1311 66.0552C58.5409 69.4265 54.7543 71.6475 49.7633 71.6475H49.6848H49.7037H49.7146H49.7173H49.72H49.7389H49.7416C51.0922 68.8181 50.0637 65.9649 48.686 63.2604C47.8957 61.7036 46.989 60.1973 46.3556 58.7706C45.9415 57.8381 45.5003 56.6374 45.6709 55.5854C45.7927 54.8335 46.2149 54.1826 46.8645 53.7814C47.422 53.4387 47.9796 53.128 48.594 52.9021L48.5994 52.8994L48.6617 52.8782C48.7429 52.849 48.8241 52.8223 48.9053 52.7958C47.3029 55.7872 47.9038 58.6459 50.3831 61.2228C51.7959 62.692 53.8097 63.4782 55.8965 64.1583L55.7855 67.4501H57.6693L57.6639 67.1205C57.6558 66.3129 57.6341 65.5053 57.6098 64.7003ZM56.0183 60.9199L55.7503 60.3116L55.7476 60.2425C55.7584 60.208 55.7693 60.1734 55.7774 60.1389C55.8667 59.7909 55.9587 59.4799 56.0778 59.1797L56.0183 60.9199ZM58.7899 56.7383L58.8765 56.6984L58.9983 56.7145L60.5167 56.9509L59.407 57.6894L59.361 57.7026L59.3204 57.6894C58.9198 57.5566 58.5003 57.4928 58.0753 57.4795L58.9658 57.3307L58.909 57.012L57.8615 57.1872C58.1755 57.0013 58.5084 56.8472 58.7899 56.7383ZM57.3012 57.174L58.3324 56.0103L58.0834 55.7979L57.1767 56.8233C57.3066 56.446 57.4826 56.0848 57.7126 55.7368L57.7613 55.6703L57.8344 55.6412L59.0822 55.1417L58.7574 56.3531L58.7493 56.4035L58.7005 56.4274C58.2621 56.5948 57.7316 56.8472 57.3012 57.174ZM59.0145 59.3577L59.0416 59.4507L59.028 59.5624L58.8873 60.981L58.1755 60.2425L58.097 60.1894L58.0645 60.0724C57.9156 59.5225 57.7938 59.0443 57.5584 58.5767L58.1755 59.2038L58.4136 58.9805L57.7235 58.2791C58.2242 58.5421 58.6518 58.8955 59.0145 59.3577ZM56.9277 56.5496V55.3755H56.6002V56.8021C56.454 56.3585 56.2538 55.936 55.9804 55.5295L55.9669 55.4472L56.6922 54.0683L57.442 55.4949L57.4474 55.5401L57.4311 55.5774C57.22 55.8909 57.0549 56.2149 56.9277 56.5496ZM59.1959 57.9897L59.2662 58.0242L59.3068 58.0933L60.0863 59.4534L59.3826 59.3099L59.3799 59.3074L59.3691 59.2914C59.0226 58.8185 58.6221 58.4439 58.1511 58.1544L58.8034 58.3642L58.9062 58.0587L58.1186 57.8036C58.4894 57.8195 58.8521 57.8781 59.1959 57.9897ZM59.1877 54.7485L58.8007 54.9025L59.231 54.5891L59.1877 54.7485ZM59.4638 54.985L59.7318 54.8787L59.3149 55.5349L59.4638 54.985ZM55.6908 55.6889C55.929 56.0396 56.1076 56.4009 56.2429 56.7781L55.3443 55.8695L55.1089 56.0955L56.2917 57.2935L56.2808 57.291C55.8288 56.9057 55.2225 56.6135 54.7326 56.4249L54.6758 56.3478L54.3402 55.1018L55.5636 55.5933L55.6421 55.6305L55.6908 55.6889ZM54.6108 56.7224L55.5365 57.166L54.6135 57.012L54.5567 57.3307L55.4472 57.4795C55.0277 57.4981 54.6135 57.5672 54.2184 57.6921L54.1751 57.6973L54.1291 57.6867L53.0004 56.9375L54.4349 56.7145L54.5269 56.6959L54.6108 56.7224ZM55.3931 58.1596C54.9465 58.4412 54.5621 58.7999 54.2157 59.2383L54.1805 59.2728L54.1534 59.3074L53.447 59.4507L54.2265 58.0905L54.2779 58.0267L54.3402 57.9897C54.6947 57.8807 55.0655 57.8195 55.4391 57.8009L54.6135 58.0746L54.7191 58.3801L55.3931 58.1596ZM53.3658 58.938L53.0193 59.541L52.7189 59.6022L53.3658 58.938ZM53.9612 54.9503L54.1182 55.5349L53.6743 54.8335L53.9612 54.9503ZM54.2373 54.7113L54.1967 54.5625L54.6 54.8573L54.2373 54.7113ZM60.5167 59.541L60.1702 58.938L60.8171 59.6022L60.5167 59.541ZM43.086 39.6931L43.0671 34.6082C44.1173 34.0503 45.2622 33.6199 46.5018 33.3489L44.4258 43.8242V42.5597H44.0442V42.0681H44.3473V41.5634C44.3473 41.0666 44.0063 40.7106 43.5759 40.522C43.5868 40.4741 43.5922 40.4237 43.5922 40.3705C43.5895 40.0544 43.3783 39.7861 43.086 39.6931ZM44.369 44.1031L44.2066 44.9268H44.0361L43.9846 44.1031H44.369ZM44.5909 44.9241L46.8997 33.264C47.8064 33.0914 48.7591 33.0009 49.7606 33.0009C49.95 33.0009 50.8107 33.0355 50.7458 33.0301L45.5139 45.6016V44.9241H44.5909ZM45.5139 47.7215C47.1 48.5451 48.2015 50.1047 48.3071 51.9165H48.1961H48.0608H47.5276H47.1297H46.8564H46.6642H46.2771H46.131H46.1229H45.5139V47.7215ZM40.2603 51.9217L37.5889 51.9244C37.689 50.155 38.7392 48.6275 40.2603 47.7879V51.9217ZM40.2603 47.3097C40.1466 47.3682 40.0357 47.4321 39.9274 47.4958L36.2897 42.1797C36.647 41.3933 37.053 40.6389 37.5023 39.9243L40.2603 46.4091V47.3097ZM40.2603 45.4501L37.7486 39.5443C38.3143 38.6915 38.9476 37.9026 39.6486 37.1826L41.2455 44.9241H40.2603V45.4501ZM41.6299 44.9241L41.4593 44.1006H41.7896L41.7381 44.9241H41.6299ZM41.3186 43.4151L39.968 36.8664C40.7881 36.0747 41.6975 35.3841 42.6909 34.8155L42.7098 39.6718C42.3769 39.7409 42.1279 40.0278 42.1279 40.3732C42.1279 40.429 42.1333 40.4821 42.1468 40.5326C41.7273 40.7212 41.3971 41.0772 41.3971 41.5634V42.0681H41.7002V42.5597H41.3186V43.4151ZM43.6192 42.5597H43.0996L43.0969 42.0681H43.6192V42.5597ZM42.6611 42.5597H42.1252V42.0681H42.6611V42.5597ZM34.322 50.3569L37.3615 50.9495C37.4211 50.713 37.4941 50.4793 37.5835 50.2561L34.4005 48.965C34.3409 49.4219 34.2949 49.8814 34.2597 50.3438L34.322 50.3569ZM34.2354 50.7156L37.283 51.3107C37.2478 51.5126 37.2235 51.7172 37.2099 51.9244C36.2031 51.9244 35.1962 51.9244 34.1894 51.9244C34.1948 51.5206 34.211 51.1168 34.2354 50.7156ZM34.4519 48.5849L34.4573 48.5398C34.525 48.0456 34.6143 47.5568 34.7144 47.0733L38.0869 49.2784C37.9543 49.483 37.8352 49.6954 37.7323 49.9133L34.4519 48.5849ZM65.3426 51.9908H65.3399H65.3101C62.5575 51.9908 59.7994 51.9908 57.0441 51.9908C59.8373 50.2719 60.6683 47.9129 62.1813 48.0909C63.042 48.1919 64.2681 48.4893 65.0719 48.5929V48.5904H65.0746V48.5929V48.5904H65.0774C65.237 49.7008 65.3264 50.8299 65.3426 51.959V51.9855V51.9908ZM49.3059 51.9192H49.065H48.686C48.6725 51.7146 48.6481 51.5127 48.613 51.3161L49.7146 51.0928C49.5576 51.3665 49.4168 51.6455 49.3059 51.9192ZM49.9744 50.6599L48.5345 50.952C48.4749 50.7103 48.3991 50.4766 48.3071 50.2481L51.168 49.0631C51.0787 49.1668 50.9921 49.2705 50.9082 49.3741C50.6023 49.7513 50.2721 50.195 49.9744 50.6599ZM34.1785 52.3442C34.1785 52.3416 34.1785 52.3389 34.1785 52.3363L34.1758 52.3256H34.1948H34.2976H34.5872H34.5683H34.5656H34.5385C38.8799 52.3256 44.5341 52.323 49.0623 52.3256C48.5534 52.4824 48.1041 52.6524 47.7117 52.8357C47.6711 52.8543 47.6332 52.8728 47.5953 52.8914C47.4735 52.9499 47.3571 53.0111 47.2461 53.0722C47.1135 53.1439 46.989 53.2182 46.8726 53.2952C45.7033 54.055 45.2459 54.9822 45.2351 56.0342C45.2297 56.5071 45.3136 57.0039 45.4652 57.522L45.4679 57.53C45.4841 57.5831 45.5003 57.639 45.5166 57.6921L45.522 57.7107C45.5815 57.8967 45.6465 58.0825 45.7196 58.2738C45.9578 58.8955 46.2501 59.4959 46.5505 60.091C46.7697 60.5187 46.9971 60.9439 47.2245 61.3689C48.2205 63.2206 49.3221 65.16 49.766 67.2322C50.0285 68.4596 50.0421 69.7188 49.609 70.9249L49.6063 70.9302L49.6009 70.9461C49.5522 71.079 49.5007 71.2092 49.4439 71.3394C49.3979 71.4404 49.3519 71.5387 49.3004 71.637H49.2923H49.2842H49.2761C48.889 71.6263 48.5047 71.5997 48.1203 71.5598C46.0498 71.3446 44.0361 70.6964 42.2578 69.5939C36.5225 66.026 33.9837 58.7309 34.1785 52.3442ZM34.7144 47.0733C34.7821 46.7518 34.7821 46.7518 34.7144 47.0733V47.0733ZM34.7983 46.6828C34.9283 46.1036 35.0771 45.5298 35.2449 44.9666L38.7717 48.415C38.6012 48.5904 38.4442 48.7762 38.298 48.9702L34.7983 46.6828ZM35.3694 44.5681C35.586 43.8906 35.835 43.2264 36.1111 42.5835L39.6134 47.7003C39.4131 47.8411 39.221 47.9925 39.0423 48.1572L35.3694 44.5681ZM65.3345 53.0667L65.3372 53.0004L65.3345 53.0667ZM49.4331 84.2641L49.7714 84.5856L50.1097 84.2641C51.3954 83.0341 52.9165 82.0113 54.4403 81.0867C57.3662 79.3121 60.4571 77.8217 63.4832 76.2224C67.8408 73.9217 76.0256 69.7055 76.0256 64.1105C76.0256 60.4629 74.648 57.0597 73.2622 53.7362C71.9278 50.5376 70.3201 46.9272 70.7207 43.3938C71.0455 40.514 72.618 38.2664 74.8347 36.4333L75.192 36.1385L68.8341 28.2216L68.6555 28.1898C56.1455 25.9396 43.4054 26.1999 30.8819 28.2111L30.6978 28.2402L24.3535 36.1411L24.7108 36.4361C26.9248 38.2692 28.4973 40.5166 28.8248 43.3965C29.2254 46.9298 27.6177 50.5376 26.2833 53.7389C24.8921 57.0624 23.5171 60.4629 23.5171 64.1105C23.5171 64.7375 23.6119 65.3566 23.7986 65.957C25.2061 70.4733 32.043 74.1024 36.0596 76.2224C39.0856 77.819 42.1766 79.3121 45.1025 81.0867C46.6263 82.0113 48.1474 83.0341 49.4331 84.2641ZM32.0511 38.6278L32.5383 40.1872L34.1271 40.1847L32.8387 41.1464L33.3314 42.7057L32.0484 41.7388L30.7655 42.7057L31.2581 41.1464L29.9697 40.1847L31.5585 40.1872L32.0511 38.6278ZM30.714 49.2332L31.2012 50.7926L32.79 50.7901L31.5017 51.7518L31.9943 53.3112L30.7113 52.3442L29.4284 53.3112L29.921 51.7518L28.6327 50.7901L30.2214 50.7926L30.714 49.2332ZM28.9818 58.7361L29.469 60.2956L31.0578 60.2929L29.7694 61.2547L30.2647 62.8141L28.9818 61.847L27.6989 62.8141L28.1915 61.2547L26.9031 60.2929L28.4919 60.2956L28.9818 58.7361ZM49.6658 75.2713L50.153 76.8307L51.7418 76.828L50.4535 77.7897L50.9488 79.3492L49.6658 78.3822L48.3829 79.3492L48.8782 77.7897L47.5899 76.828L49.1786 76.8307L49.6658 75.2713ZM59.25 71.4138L59.7372 72.9732L61.326 72.9705L60.0376 73.9322L60.5329 75.4917L59.25 74.5248L57.9671 75.4917L58.4624 73.9322L57.174 72.9705L58.7628 72.9732L59.25 71.4138ZM39.9924 71.4138L39.5052 72.9732L37.9164 72.9705L39.2047 73.9322L38.7121 75.4917L39.9951 74.5248L41.278 75.4917L40.7854 73.9322L42.0738 72.9705L40.485 72.9732L39.9924 71.4138ZM32.3732 66.3502L31.886 67.9096L30.2972 67.9069L31.5829 68.8686L31.0903 70.4282L32.3732 69.4612L33.6561 70.4282L33.1635 68.8686L34.4519 67.9069L32.8631 67.9096L32.3732 66.3502ZM33.8673 25.379L33.8402 25.3816L34.525 23.7824L34.5493 23.7796L37.44 23.4396L37.0448 24.9858L36.9961 24.9911L36.9474 24.9965L36.8743 25.0044L36.7958 25.0177L36.7444 25.0229L36.6957 25.0283L36.6767 25.031L36.6145 25.0389L36.3438 25.0709L36.2951 25.0761L36.2085 25.0868L36.195 25.0894L36.1462 25.0947L36.1354 25.0973L35.6428 25.1558L35.5941 25.1611L35.5427 25.1665L35.4939 25.1717L35.4723 25.1744L35.4236 25.1798L35.0446 25.2276H35.0419C34.8092 25.2568 34.5764 25.2861 34.3436 25.3179L34.2949 25.3232L34.2435 25.3286L34.2327 25.3312L33.8673 25.379ZM37.5889 24.93L37.4806 24.9406L37.8758 23.3972C38.5903 23.3254 39.3049 23.2616 40.0221 23.2058L39.9707 23.7771L41.2022 23.6761C41.6623 23.6389 42.1252 23.631 42.5853 23.5858L43.4135 23.5061L43.4812 22.9801C44.1795 22.9455 44.8778 22.9163 45.5761 22.8951L45.4354 24.3428L45.384 24.3456L45.3109 24.3482L45.1864 24.3535L45.0619 24.3589L44.8751 24.3668L44.5368 24.3827L44.3148 24.3934L44.1903 24.3986L43.9819 24.4093L43.8195 24.42L43.695 24.4279L43.5705 24.4359L43.446 24.4438L43.3215 24.4518L43.2836 24.4545L42.9047 24.4783L42.7044 24.4916H42.6963L42.5718 24.4996L42.3634 24.5129L41.952 24.5422H41.9384C41.7787 24.5528 41.6217 24.5661 41.4621 24.5767H41.4512L41.3267 24.5873L41.2022 24.5979C40.1304 24.6802 39.0613 24.7786 37.9895 24.8876L37.9597 24.8902L37.5889 24.93ZM45.8495 24.327L45.9875 22.8818L47.0485 22.8524L47.1135 22.4486L43.5272 22.6002C43.5895 22.1167 43.6517 21.6357 43.7167 21.1522L47.5574 20.9795C47.0945 21.9651 46.9998 23.259 46.897 24.226L46.8888 24.2897C46.5424 24.3003 46.1959 24.3137 45.8495 24.327ZM51.7229 24.2446C51.5902 22.911 51.5848 20.4588 49.7606 20.4588C47.985 20.4588 47.9823 22.9561 47.8632 24.2605C47.6765 24.2631 47.4897 24.2659 47.3057 24.2712C47.4789 22.6374 47.5899 19.9275 49.7768 19.9275C52.0125 19.9275 52.072 22.5921 52.248 24.2552C52.072 24.2499 51.8988 24.2473 51.7229 24.2446ZM52.6648 24.2605C52.6242 23.8168 52.5836 23.328 52.5132 22.8392L53.5417 22.8604L53.6798 24.2845C53.3414 24.2765 53.0031 24.2685 52.6648 24.2605ZM54.1047 24.2978H54.0939L53.9558 22.871C54.5729 22.8896 55.1901 22.9137 55.8072 22.9429L55.8802 23.5086L56.7085 23.5884C57.1686 23.631 57.6314 23.6415 58.0916 23.6787L59.3231 23.7796L59.2662 23.1501C60.062 23.2085 60.855 23.2776 61.6481 23.3573L62.0351 24.8582L61.9593 24.8503L61.5885 24.8104L61.464 24.7971C60.422 24.6909 59.3799 24.6006 58.3379 24.5236L58.2864 24.5182L57.8155 24.4863L57.691 24.4783L57.5665 24.4704C56.4135 24.3933 55.2577 24.3376 54.1047 24.2978ZM62.9175 24.9539C62.7686 24.9353 62.617 24.9193 62.4655 24.9007L62.0784 23.3972L64.9772 23.7451L65.6701 25.3125L65.6322 25.3072L65.4915 25.286L65.4184 25.2754L65.3697 25.2675L65.3209 25.2594H65.3155L65.1694 25.2381L65.1207 25.2302L65.0719 25.2222L64.8825 25.1957L64.8717 25.1931L64.8202 25.1877L64.7715 25.1798L64.693 25.1691L64.6687 25.1665L64.6199 25.1611L64.5712 25.1558L64.4819 25.1425L64.4602 25.1399L64.2735 25.1159L64.2221 25.1106L64.1733 25.1054L63.9243 25.0735H63.9162L63.8458 25.0655L63.6699 25.0443L63.6185 25.0389L63.5698 25.0336L63.2179 24.9911L63.1692 24.9858L63.1178 24.9804L63.0717 24.9751H63.069L63.0176 24.9699L62.9689 24.9646L62.9175 24.9539ZM47.782 20.5704L46.1824 20.6129L46.3123 19.0906C48.613 19.0136 50.919 19.0029 53.2196 19.08L53.3468 20.589L51.7878 20.5571C51.8744 20.6846 51.9502 20.8201 52.0179 20.9636L55.5663 21.107C55.6285 21.5905 55.6935 22.074 55.7557 22.5549L52.4482 22.4327C52.4591 22.4885 52.4672 22.5469 52.4753 22.6054C52.2209 21.0326 51.6308 19.521 49.7741 19.521C48.8105 19.521 48.1907 19.9461 47.782 20.5704ZM42.5339 23.0809L42.948 23.0412L42.9994 22.6374C43.1212 21.6756 43.2511 20.7138 43.3729 19.7521L43.3892 19.614L43.3323 19.4865C43.1862 19.1545 42.9209 18.8914 42.5609 18.7957C41.9411 18.6337 41.3457 19.0216 41.0182 19.5131L40.9478 19.6193L40.937 19.7469C40.8477 20.706 40.688 21.6543 40.6013 22.616L40.5445 23.2191L41.1616 23.1686C41.6163 23.1314 42.0765 23.1234 42.5339 23.0809ZM42.4825 22.5708C42.0548 22.6107 41.6678 22.6161 41.1156 22.6586C41.213 21.5906 41.3538 20.8573 41.4512 19.7893C41.8735 19.1544 42.5826 19.0695 42.856 19.6858C42.7233 20.7405 42.6178 21.5188 42.4825 22.5708ZM60.0593 14.043C60.6033 14.1094 61.1473 14.1785 61.6887 14.2529V13.3336L60.0593 14.043ZM53.6798 13.5674C53.9856 13.5781 54.2915 13.5887 54.6 13.602V12.6987L53.6798 13.5674ZM45.8847 13.5834C45.5707 13.594 45.2595 13.6073 44.9482 13.6206V12.6987L45.8847 13.5834ZM37.8568 13.3336L39.5322 14.0616C38.972 14.128 38.4144 14.1971 37.8568 14.2715V13.3336ZM37.3615 14.8294V13.3549C36.176 13.5435 34.9959 13.7534 33.8158 13.9792C33.8158 15.6449 33.6589 15.1349 34.3951 16.5349L34.4032 16.5243C39.3428 15.7459 44.2959 15.2969 49.3031 15.281C54.619 15.265 59.8779 15.7432 65.1288 16.5588C65.892 15.0977 65.7324 15.6901 65.7324 13.9766C64.5496 13.7454 63.3641 13.5302 62.184 13.3363V14.8054C60.9985 14.6381 59.8184 14.492 58.6383 14.3644V12.8794C57.4555 12.7651 56.2727 12.6721 55.0926 12.5977V14.1067C53.9071 14.0563 52.727 14.0191 51.5469 14.0005V12.4809C50.3614 12.4729 49.1813 12.4729 48.0013 12.4862V14.0084C46.8158 14.035 45.6357 14.0749 44.4556 14.128V12.6137C43.2701 12.6881 42.09 12.7837 40.9099 12.898V14.3963C39.7244 14.5212 38.5443 14.6646 37.3615 14.8294ZM58.844 17.2177C51.1328 16.4154 43.7735 16.6173 35.6645 17.8685C35.2152 17.5391 34.9337 17.3372 34.4844 17.0052C45.1187 15.3315 54.3023 15.3713 65.0313 17.0397L64.0272 17.8979L58.844 17.2177ZM56.7572 23.0809L56.3431 23.0412L56.2917 22.6374C56.1699 21.6756 56.0399 20.7138 55.9181 19.7521L55.9019 19.614L55.9587 19.4865C56.1049 19.1545 56.3701 18.8914 56.7328 18.7957C57.3526 18.6337 57.9481 19.0216 58.2756 19.5131L58.346 19.6193L58.3568 19.7469C58.4434 20.706 58.6058 21.6543 58.6924 22.616L58.7466 23.2191L58.1294 23.1686C57.6747 23.1314 57.2119 23.1234 56.7572 23.0809ZM56.8059 22.5708C57.2336 22.6107 57.6206 22.6161 58.1728 22.6586C58.0753 21.5906 57.9346 20.8573 57.8371 19.7893C57.4149 19.1544 56.7031 19.0695 56.4324 19.6858C56.565 20.7405 56.6706 21.5188 56.8059 22.5708ZM59.2256 22.7409C61.0607 22.8817 62.8904 23.0597 64.7174 23.3014L64.7905 23.3122L64.1571 21.8801C62.4682 21.6384 60.7684 21.4497 59.0659 21.3089C59.1201 21.7287 59.1742 22.1458 59.2121 22.5682L59.2256 22.7409ZM59.0118 20.9025C59.6966 20.9582 60.3814 21.0221 61.0661 21.0938L60.6872 19.6166C60.0701 19.5449 59.4557 19.4811 58.8359 19.4227L58.8521 19.4466L58.8765 19.699C58.909 20.1028 58.9604 20.504 59.0118 20.9025ZM58.5544 19.0295L63.0366 19.505L63.1096 19.5157L62.5115 18.1608C60.6953 17.9004 58.8738 17.6905 57.0468 17.5365L57.1686 18.2564C57.7099 18.3042 58.2052 18.6097 58.5544 19.0295ZM56.7545 18.2697L56.6246 17.4993C54.4295 17.324 52.2182 17.2283 50.0123 17.223V18.623C51.9394 18.6283 53.8665 18.6868 55.7909 18.7957C56.002 18.5593 56.2727 18.3867 56.5948 18.3017C56.6489 18.2884 56.7004 18.2777 56.7545 18.2697ZM55.5284 19.181C54.8977 19.1465 54.2644 19.1173 53.6337 19.096L53.761 20.6023C54.3456 20.6209 54.9302 20.6474 55.5121 20.674C55.4743 20.3871 55.4364 20.1001 55.4012 19.8106L55.366 19.5343L55.477 19.2793C55.4932 19.2474 55.5094 19.2156 55.5284 19.181ZM40.06 22.7993C38.2737 22.9401 36.49 23.1261 34.7117 23.3546L35.3234 21.9226L35.3451 21.92C36.9636 21.6995 38.5876 21.5215 40.217 21.378C40.1656 21.7738 40.1169 22.1723 40.079 22.5708L40.06 22.7993ZM40.2711 20.9689C39.6649 21.022 39.0613 21.0778 38.455 21.1389L38.8447 19.6273C39.3752 19.5688 39.9085 19.5158 40.439 19.4653L40.4173 19.7016C40.3794 20.124 40.3253 20.5465 40.2711 20.9689ZM40.7015 19.0721L36.3492 19.5264L36.9312 18.1687C38.7825 17.9057 40.6365 17.6932 42.496 17.5365L42.3742 18.2512C41.7192 18.2113 41.1048 18.5647 40.7015 19.0721ZM42.7775 18.3281L42.9182 17.5019C45.1377 17.3266 47.3652 17.2283 49.6009 17.223V18.6257C47.5736 18.639 45.5463 18.7002 43.5218 18.825C43.3269 18.5966 43.0752 18.4211 42.7775 18.3281ZM43.7762 19.2102C44.4826 19.1676 45.1891 19.1332 45.8982 19.1066L45.7683 20.6288C45.1025 20.6527 44.4366 20.6846 43.7708 20.7218C43.8087 20.4189 43.8493 20.1161 43.8872 19.8132L43.9224 19.537L43.8114 19.2819C43.8006 19.258 43.7898 19.2341 43.7762 19.2102ZM36.1868 19.9567L36.1652 19.9593L35.5075 21.4896L38.0192 21.1841L38.4063 19.6751L36.1868 19.9567ZM63.8919 21.4365L63.9649 21.4472L63.3045 19.9487L61.123 19.6671L61.5019 21.1417L63.8919 21.4365ZM49.7714 87.7522C53.7989 80.0957 77.9609 75.5954 77.9609 64.1105C77.9609 52.6257 65.7567 44.1855 77.8364 36.529L69.906 26.4974C57.2633 24.1037 43.8574 24.117 29.6368 26.4974L21.7064 36.529C33.7861 44.1855 21.5819 52.6257 21.5819 64.1105C21.5819 75.5954 45.7439 80.0957 49.7714 87.7522ZM41.3024 45.9442V45.3252H40.669V45.9442V46.6776H45.1052V45.9442V45.3252H44.4718V45.9442H43.8385V45.3252H43.2051V45.9442H42.5718V45.3252H41.9384V45.9442H41.3024ZM42.8587 40.0545C42.68 40.0545 42.5339 40.1952 42.5339 40.3705C42.5339 40.3838 42.5339 40.3944 42.5366 40.4077C42.6476 40.3865 42.7585 40.3759 42.8695 40.3759C42.9724 40.3759 43.0752 40.3866 43.1781 40.4052C43.1781 40.3945 43.1808 40.3838 43.1808 40.3732C43.1835 40.1978 43.0373 40.0545 42.8587 40.0545ZM42.8722 40.7743C42.2849 40.7743 41.8058 41.1277 41.8058 41.5607V41.667H43.9386V41.5607C43.9386 41.1303 43.4595 40.7743 42.8722 40.7743ZM41.7273 43.7047H44.0171V42.9581H41.7273V43.7047ZM42.1468 44.9241H43.6274L43.5759 44.1006H42.1983L42.1468 44.9241ZM45.1052 47.0947H40.669V49.002H45.1052V47.0947ZM45.1052 49.4218H40.669V51.882H42.2686V50.5403C42.2686 50.171 42.5203 49.8363 42.8641 49.8363C43.2078 49.8363 43.4595 50.171 43.4595 50.5403V51.882H45.1052V49.4218ZM43.4379 47.5781H42.3363V48.6381H43.4379V47.5781ZM56.4568 57.7478L56.4784 57.7212L57.0793 58.165L57.0901 58.6804L56.4405 58.2021L56.4568 57.7478ZM56.1536 66.5919L56.8763 67.1259H56.1942L56.1374 67.0834L56.1536 66.5919ZM56.1888 65.6036L57.3283 66.4484L57.3391 66.9612L56.1699 66.0951L56.1888 65.6036ZM56.2213 64.6153L57.3012 65.415L57.3148 65.9304L56.205 65.1095L56.2213 64.6153ZM56.2565 63.6297L57.2714 64.3788L57.2877 64.8969L56.2402 64.1213L56.2565 63.6297ZM56.2889 62.6414L57.2363 63.3428L57.2525 63.8609L56.27 63.1356L56.2889 62.6414ZM56.3241 61.6558L57.2038 62.3066L57.22 62.8247L56.3079 62.1499L56.3241 61.6558ZM56.3566 60.6675L57.1659 61.2679L57.1821 61.7859L56.3377 61.1617L56.3566 60.6675ZM56.3918 59.6819L57.1334 60.2318L57.1496 60.7499L56.3729 60.176L56.3918 59.6819ZM40.5066 63.3401C38.5389 59.3976 39.3969 56.6931 42.2795 55.0938C40.9667 57.3998 42.8397 59.2515 45.6059 61.4007C43.6544 61.7992 41.8816 62.3757 40.5066 63.3401ZM44.9428 63.4251H44.0469C44.0523 63.4092 44.0523 63.3906 44.0523 63.3746V62.8912C44.0523 62.7796 43.9576 62.6866 43.8439 62.6866H43.3486C43.2349 62.6866 43.1402 62.7796 43.1402 62.8912V63.3746C43.1402 63.3932 43.1429 63.4092 43.1456 63.4251H41.1102C42.4716 62.5829 44.1362 62.1127 45.6871 61.7966L46.5478 61.6213L45.8576 61.0846C44.6342 60.1335 42.4391 58.4519 42.2686 56.8074C42.2145 56.2655 42.3661 55.7581 42.634 55.2905L43.3486 54.0364L42.0738 54.7431C38.4658 56.7436 38.4279 60.0405 40.0871 63.4251H39.5647V63.1196H38.8664V63.4251H38.0815C37.8785 63.5818 37.8785 63.7784 38.0815 64.0122C40.2847 64.3735 42.5691 64.3735 44.9374 64.0122C45.1458 63.8156 45.1458 63.619 44.9428 63.4251ZM56.4243 58.6936L57.1036 59.1958L57.1172 59.7112L56.4053 59.1852L56.4243 58.6936Z" fill="white"/>
</svg>
