<svg width="100" height="100" viewBox="0 0 100 100" fill="none" xmlns="http://www.w3.org/2000/svg">
<path d="M39.1931 62.3119C37.449 62.3119 35.8664 61.6061 34.7202 60.467C33.5745 59.3275 32.8642 57.7548 32.8642 56.0198V44.5805H29.9878V56.0198C29.9878 58.5472 31.0179 60.8353 32.6845 62.4917C34.3494 64.1477 36.6512 65.1721 39.1931 65.1721H42.0695V62.3119H39.1931Z" fill="white"/>
<path d="M18.9448 62.3119C17.4719 62.3119 16.1133 61.8299 15.0243 61.0205C14.7953 60.8499 14.576 60.6656 14.3721 60.467C14.0385 60.1423 13.7424 59.7811 13.4874 59.3927C12.8975 58.4927 12.5354 57.4383 12.483 56.3062H24.2377V53.4462H12.483C12.5354 52.314 12.8975 51.2597 13.4874 50.3597C13.7424 49.9706 14.0386 49.6095 14.3721 49.2853C14.5093 49.1523 14.6521 49.0257 14.8003 48.9055C15.9235 47.9915 17.3692 47.4405 18.9448 47.4405H24.8261V44.5805H18.9448C18.7205 44.5805 18.4995 44.5909 18.2786 44.6058C17.8608 44.6338 17.4494 44.6865 17.0485 44.7662C17.0296 44.7698 17.0101 44.7748 16.9916 44.7787C15.177 45.1515 13.5549 46.0315 12.2908 47.2606C10.5878 48.9171 9.53467 51.2051 9.53467 53.7325V56.0197C9.53467 58.5471 10.5878 60.8352 12.2908 62.4916C13.5549 63.7204 15.177 64.6005 16.9916 64.9731C17.0101 64.9767 17.0296 64.9823 17.0485 64.9856C17.4494 65.0656 17.8608 65.1178 18.2786 65.1467C18.4995 65.1613 18.7206 65.1714 18.9448 65.1714H25.4139V62.3118H18.9448V62.3119Z" fill="white"/>
<path d="M62.2216 37.8492C60.5427 36.1773 58.2239 35.1429 55.6619 35.1429C53.0998 35.1429 50.7804 36.1773 49.1021 37.8492C47.4234 39.5217 46.3848 41.8312 46.3848 44.3824V65.1717H49.2078V44.3816C49.2078 42.6308 49.999 40.9687 51.1542 39.8179C52.3091 38.6682 53.903 37.9549 55.6619 37.9549C57.4201 37.9549 59.0147 38.6683 60.1694 39.8179C61.3242 40.9687 62.1154 42.6308 62.1154 44.3816V65.1717H64.9388V44.3824C64.9388 41.8312 63.9009 39.5217 62.2217 37.8492H62.2216Z" fill="white"/>
<path d="M54.3871 49.0052H56.8002L56.9359 65.1725H59.3292V49.3723V44.5809L55.6617 47.5755L51.9937 44.5809V49.3723V65.1725H54.3871V49.0052Z" fill="white"/>
<path d="M78.9628 44.3659C72.7277 44.3659 67.7537 49.7312 68.4577 56.0718C68.9924 60.8916 72.9109 64.7877 77.7588 65.3204C84.1368 66.0208 89.5348 61.0749 89.5348 54.8764C89.5348 49.0713 84.8019 44.366 78.9628 44.366V44.3659ZM78.9628 47.1321C84.3369 47.1321 88.4571 52.5701 86.0484 58.2013C85.3344 59.8719 83.9882 61.2104 82.3078 61.9207C76.643 64.3153 71.1732 60.2185 71.1732 54.8763C71.1732 50.6059 74.6673 47.1321 78.9627 47.1321H78.9628Z" fill="white"/>
</svg>
