<svg width="100" height="100" viewBox="0 0 100 100" fill="none" xmlns="http://www.w3.org/2000/svg">
<g opacity="0.86">
<path fill-rule="evenodd" clip-rule="evenodd" d="M71.3663 40.0262L71.7927 40.2785C71.9861 40.3602 72.0959 40.3802 72.2757 40.4577C74.1375 41.2662 76.4833 42.8061 77.5182 44.9048C78.2173 46.3226 78.474 48.4602 77.9085 49.9097C77.456 51.0694 76.0286 52.053 75.0763 52.6579C70.5835 55.5065 63.4408 56.4025 58.5296 57.1939C55.4192 57.6943 50.1529 58.1214 46.7438 58.0957C45.7903 58.0886 45.3548 58.2648 44.3719 58.2576L34.2419 58.2634C33.4469 58.2504 32.8394 58.0971 31.8723 58.0986L26.9963 57.9422C25.2815 57.9552 21.618 57.4649 19.7495 57.4649C20.1182 57.8705 21.0638 58.1214 21.5083 58.2448C27.8616 60.0168 29.6566 60.4669 36.0076 61.4131L40.3691 61.9062C41.9446 61.9535 43.3857 62.2246 44.9952 62.2203C46.6545 62.2144 47.9982 62.378 49.7446 62.378C51.3699 62.378 52.9942 62.378 54.6195 62.378C56.3184 62.378 57.6496 62.2088 59.2445 62.2216C60.5656 62.2331 66.4405 61.4346 68.0828 61.0675C70.2624 60.5787 73.883 59.6282 75.8239 58.5215C79.0577 56.6764 83.0322 53.7847 81.9894 48.1118C83.2845 49.3147 84.0434 52.4902 83.0775 54.7224C81.1615 59.1479 73.5877 61.9134 69.9196 62.9212C69.6674 62.9901 69.3733 63.0818 69.2116 63.1334L68.4922 63.4875C68.9933 63.4875 69.293 63.3843 69.8552 63.3155C70.2872 63.2625 70.8008 63.2095 71.3324 63.1278C73.8524 62.7364 76.9606 62.0295 79.2556 61.1292C80.9024 60.4841 82.3039 59.8174 83.591 58.7035C84.8103 57.647 86.0591 56.3007 85.9979 53.6556C85.8882 48.8401 79.3664 43.5731 76.2243 41.9487C75.2436 41.4411 72.3367 40.0535 71.3663 40.0262Z" fill="white"/>
<path fill-rule="evenodd" clip-rule="evenodd" d="M43.1212 45.4168C43.2806 45.6505 43.1697 45.4598 43.3258 45.791L44.5995 48.1378C45.0417 49.0912 44.6312 49.4855 45.4512 50.0704C46.8356 51.0583 46.4668 51.2977 48.1206 51.1241C48.8218 52.4517 49.6225 51.8109 50.3193 52.6138C50.55 52.879 50.489 52.9077 50.6983 53.2431C51.058 53.8194 51.8067 54.2868 52.37 54.453C52.4854 53.904 52.4379 53.9642 52.8699 53.818C53.0317 54.2064 53.0996 54.5448 53.2444 54.9276C54.898 54.9276 59.3216 54.1348 60.2434 54.1348C60.1563 53.7248 60.0252 53.5613 59.8679 53.1842C57.9134 53.1842 58.7459 52.8517 57.5356 52.3384C56.9101 52.0718 56.0664 52.3571 55.3843 52.2137C54.8934 52.109 55.2407 52.0847 54.7441 51.9155C54.2577 52.3284 53.6583 53.2817 53.138 53.3204C52.7387 53.3491 52.0872 53.603 51.7445 53.3419C51.1632 52.803 51.551 52.3084 51.387 51.5857C51.1745 50.6454 50.6225 51.1241 49.8703 51.1241C49.8861 50.1664 50.1905 49.7292 50.2446 48.9035C49.9314 48.8705 49.894 48.8175 49.756 48.839C49.307 48.9035 49.4676 48.9652 49.3817 49.0655C49.2606 49.2089 48.979 49.8067 48.8704 50.0131H47.745C47.2168 48.7458 46.9227 48.5994 47.288 47.0555C47.6161 45.6663 48.3943 45.9216 49.3704 46.2096C49.6815 45.4641 49.7017 45.4771 50.4076 45.6677C51.2513 45.897 50.9471 45.9846 51.3498 46.72C51.5647 47.1115 51.9855 47.7179 51.999 46.7129C52.0091 45.8827 51.6382 46.0089 51.6201 44.9408C51.8655 44.4736 52.2591 44.1739 52.4502 43.7753C52.7659 43.1173 52.6223 42.23 53.2194 41.2636C53.5667 40.7016 53.4163 40.111 53.863 39.8458C54.0564 39.7311 53.9762 39.7554 54.1741 39.8185C54.2058 39.8286 54.3042 39.8901 54.3324 39.906L54.4942 40.0263C54.6514 39.6494 54.7826 39.4859 54.8685 39.076C53.8721 39.0473 54.5168 38.7261 53.8697 38.1239C53.3971 38.2845 53.5056 38.4308 53.1199 38.7591C53.3325 37.7455 54.3019 37.8129 54.8685 37.3311V36.5398C54.1729 35.9476 53.3936 35.5119 52.7443 34.7951C52.2523 35.0216 52.7308 34.8194 52.2444 35.271C52.1347 35.1778 50.446 33.4518 50.4902 35.0846C50.5094 35.7828 50.878 35.7684 50.9414 36.2445C50.9935 36.6358 50.8385 36.957 50.9946 37.8072C49.9166 37.6938 50.8815 36.9427 49.6282 36.5298C48.4678 36.147 48.755 36.6316 48.1206 35.4302C48.4135 34.7262 48.5084 34.7464 48.8863 34.1814C49.2573 33.6252 49.5728 33.6167 49.6203 32.8927L49.0198 32.8597C48.2178 33.0747 47.08 32.8983 46.6773 33.0015C45.8617 33.2081 46.572 33.3629 45.5337 32.5284C45.0293 32.1214 44.5464 32.213 44.0091 32.084C43.0906 31.8633 43.7829 30.9903 42.2457 30.9903C42.7366 30.4497 43.5498 30.186 44.138 29.9036C49.2052 27.4749 55.4217 28.9832 59.6552 33.0045C60.6608 33.9592 61.7806 35.2252 62.5814 36.4266L64.2441 39.5504C65.1444 41.645 65.779 43.7194 66.0832 46.2526C66.5006 49.7493 66.2427 50.0102 66.2427 53.0252C67.945 52.846 67.618 52.5191 67.617 50.3313C67.6136 44.832 66.841 40.9755 64.2781 36.6531L63.0881 34.8338C61.7806 32.9672 60.3815 31.4389 58.6735 30.1286C56.4294 28.4098 53.2862 27.2097 50.4958 27.0261C47.3955 26.8241 44.112 27.8105 41.6202 29.4046C40.16 30.3393 38.8558 31.4089 37.6434 32.7622L36.5462 34.0654C35.6594 35.2882 34.836 36.5756 34.1607 38.0151C32.109 42.389 31.1227 47.1945 31.6 52.5793C31.6723 53.3936 31.6713 53.7778 31.8092 54.5333C31.9438 55.276 31.7414 54.9849 32.1542 55.2115C33.4674 55.9311 33.2118 54.7642 33.0862 53.8667C33.0217 53.4064 32.8939 52.3112 32.8736 51.7564C32.7559 48.5351 32.8951 46.505 33.4697 43.7954C34.1584 40.5439 35.6945 37.6322 37.4658 35.39C37.7779 34.9943 38.2156 34.2818 38.563 34.2703C40.0627 34.2173 40.5569 33.5363 41.1033 33.8504C41.4834 34.0683 41.7401 34.4997 41.912 35.0603C42.0986 35.6696 42.136 36.1929 42.0986 36.9972C42.0512 37.9906 42.3226 37.6552 42.4957 38.5999C41.9415 38.6774 42.0794 38.8838 41.8645 39.5432C41.4177 40.9123 41.1259 42.2026 41.8679 43.5172C42.6947 44.9795 42.2887 45.3553 43.077 47.216C43.3022 47.7464 43.3814 47.9673 43.871 48.112C43.7138 47.259 43.1766 46.2613 43.1212 45.4168Z" fill="white"/>
<path fill-rule="evenodd" clip-rule="evenodd" d="M13 43.5144C13 46.4477 15.5303 48.7185 17.3716 49.8582L19.4144 51.0724C20.0579 51.4839 20.844 51.8309 21.5748 52.1362C23.1514 52.7971 27.6804 53.9771 29.248 53.9771C29.1485 53.8895 29.196 53.8939 29.0094 53.8035C28.5897 53.6 28.3861 53.6803 27.9462 53.567C26.1409 53.1025 23.3144 52.0373 21.9107 50.6008C17.8796 46.4777 23.5598 44.1452 26.2586 43.3695L30.9967 42.0879C31.7024 38.2471 33.7949 37.8285 30.6596 38.4895C27.0537 39.2478 17.3683 41.004 16.4996 45.7337C15.4409 44.8003 17.349 42.0019 18.4982 40.9769C21.8496 37.9877 26.4 37.0859 30.3237 36.0022C30.3576 35.9935 30.5544 35.9276 30.6166 35.899C30.9254 35.7569 30.7388 35.8545 30.8722 35.7469C27.4338 35.7469 19.0886 37.8715 16.0223 39.7381C15.3889 40.1238 14.7216 40.5811 14.1605 41.1819C13.7295 41.6448 13 42.6127 13 43.5144Z" fill="white"/>
<path fill-rule="evenodd" clip-rule="evenodd" d="M49.4938 73C55.4569 73 59.212 70.2559 62.8982 65.5881C63.2738 65.1135 63.9796 64.3007 64.1165 63.6469C63.5384 63.6469 62.6449 63.6871 62.2704 64.0011L60.0785 66.6103C57.9339 68.9098 55.8313 70.0639 52.8689 70.9384C52.9164 70.388 52.7524 70.613 53.5352 70.0396C54.1131 69.6166 53.9107 69.5593 54.3201 69.1335C55.1244 68.2977 55.2262 68.7393 57.0279 66.8612C57.5459 66.3206 58.6386 65.8705 59.367 64.123C57.6636 64.123 56.3482 64.2807 54.7431 64.2807C54.6334 65.9565 53.43 67.5192 53.0634 68.4912C52.472 70.0639 51.9301 70.0037 51.8691 70.9384C51.938 70.9384 52.0727 70.9356 52.1101 70.9499C52.3317 71.0303 52.2491 71.0014 52.369 71.0976L48.7439 71.2566C45.345 71.2566 41.5706 69.2124 39.3989 66.9401C39.1206 66.6504 38.9872 66.5343 38.7135 66.2246C37.6084 64.976 37.8052 65.3774 36.7714 63.7731C36.3008 63.0419 35.56 63.2526 34.7456 63.0133C34.878 63.7287 34.9492 63.6182 35.2614 64.1028L36.052 65.3186C36.0758 65.3544 36.1425 65.4563 36.1663 65.4921C37.3449 67.2368 38.9962 68.768 40.5345 69.9377C42.8069 71.6652 45.915 73 49.4938 73Z" fill="white"/>
<path fill-rule="evenodd" clip-rule="evenodd" d="M71.366 40.0263C71.1987 39.8658 71.6296 39.8686 70.9917 39.8686V40.0263H71.366Z" fill="white"/>
</g>
</svg>
