<svg width="100" height="100" viewBox="0 0 100 100" fill="none" xmlns="http://www.w3.org/2000/svg">
<path fill-rule="evenodd" clip-rule="evenodd" d="M47.0658 74.4086C44.7877 72.1631 43.3412 69.4145 42.3651 66.4278C41.1765 62.796 40.719 59.0197 41.1327 55.2409C41.4956 51.9144 42.077 48.581 42.9249 45.3457C44.5073 39.3059 47.1277 33.6618 50.1515 28.2102C50.4852 27.6082 50.8257 27.0097 51.1689 26.412C51.5413 25.7661 52.8158 23.5284 53.0454 23.3547C51.8302 26.1798 50.3536 29.4796 49.2253 32.3382C46.9953 37.9901 45.2263 43.7883 44.2803 49.7997C43.6275 53.9517 43.3059 58.1451 43.7187 62.3436C44.0335 65.5463 44.632 68.687 45.8214 71.6634C46.1284 72.434 47.0005 74.252 47.0658 74.4086Z" fill="white"/>
<path fill-rule="evenodd" clip-rule="evenodd" d="M14.7393 80.2599C18.9851 78.2407 23.3703 76.7021 27.9704 75.8043C30.8763 75.2393 33.8055 74.8342 36.7639 74.9546C41.1946 75.1378 45.394 76.1302 48.9174 78.9614C50.2341 78.2286 51.4991 77.4263 52.845 76.7959C56.1732 75.2367 59.7345 74.8359 63.3568 74.9796C70.2411 75.2548 76.7126 77.2216 82.9898 79.9297C83.1454 79.9959 83.2899 80.0888 83.5393 80.2247C81.2603 79.6081 79.1017 78.9837 76.9216 78.4445C71.7444 77.1648 66.4915 76.4708 61.1535 76.7193C59.0542 76.8182 56.992 77.1038 54.9778 77.5965C53.103 78.0549 48.9372 79.6794 48.9372 79.6794C46.0313 78.2493 42.6429 77.2345 39.4445 76.9498C36.7751 76.7125 34.0661 76.7486 31.382 76.8561C26.4542 77.0522 21.6855 78.2106 16.9624 79.553C16.2151 79.7655 15.4797 80.0234 14.7393 80.2599Z" fill="white"/>
<path fill-rule="evenodd" clip-rule="evenodd" d="M50.9655 33.8793C51.0068 53.4116 60.9071 66.2755 77.8336 74.5986C76.75 74.2219 75.6501 73.8831 74.5845 73.4617C70.1426 71.709 65.945 69.5014 62.2779 66.4131C57.5462 62.4296 54.0778 57.5353 52.1652 51.6271C50.5905 46.7647 50.1261 41.7612 50.6413 36.67C50.7359 35.7395 50.8563 34.8098 50.9655 33.8793Z" fill="white"/>
<path fill-rule="evenodd" clip-rule="evenodd" d="M58.9341 22.7991V19.7401H57.8221V21.6862H55.5981V22.7991H58.9341Z" fill="white"/>
<path fill-rule="evenodd" clip-rule="evenodd" d="M61.1578 23.3547H57.8218V26.412H58.9338V24.4666H61.1578V23.3547Z" fill="white"/>
</svg>
