<svg width="100" height="100" viewBox="0 0 100 100" fill="none" xmlns="http://www.w3.org/2000/svg">
<path fill-rule="evenodd" clip-rule="evenodd" d="M12.5725 42.7793C12.5725 24.8347 33.0493 15.5748 48.2349 15.5748C60.1593 15.5748 68.524 17.8674 76.6523 23.9205C87.9095 32.3041 95.8229 52.3262 75.3189 62.5097C68.2948 65.9975 61.031 67.7787 50.8085 67.7787C46.6049 67.7787 45.0093 66.7145 41.173 72.848C40.2577 74.3126 36.6092 81.9177 36.4698 83.5866C34.7643 82.3382 33.5289 73.2685 25.332 66.4168C24.3717 65.6125 24.0717 65.505 23.1375 64.5672C18.491 59.9042 12.5725 51.8479 12.5725 42.7793V42.7793ZM48.3211 13H52.031C59.7991 13.261 67.3558 15.1437 73.3913 18.726C83.7449 24.8737 90.515 32.604 90.515 47.1907C90.515 58.84 75.2327 66.9294 64.5696 69.0389C44.9455 72.92 46.7313 64.0452 38.6206 84.6355C37.7986 86.7248 37.0722 87.7406 36.4061 87.9993H35.7092C33.7072 87.2185 32.1765 79.8886 29.9265 76.161C23.6643 65.7885 21.9977 70.0133 14.1103 57.0507C10.9768 51.9034 10 47.225 10 40.9415C10 36.2135 12.3693 31.6651 14.3311 28.73C20.9489 18.8264 34.6391 13.4406 48.3211 13V13Z" fill="white"/>
<path fill-rule="evenodd" clip-rule="evenodd" d="M36.1026 41.6773C37.4656 41.3124 38.0254 40.3108 38.9526 39.3789C39.8951 38.4316 40.8754 37.5824 41.6727 36.5844C43.9711 33.7013 56.1472 21.5276 57.4263 19.6189C49.3901 18.9493 47.5227 18.1248 38.6361 19.9461C33.3766 21.0256 34.39 20.9855 33.0329 29.8096C32.7223 31.8245 32.9112 31.9993 33.5727 33.9104C34.3581 36.184 35.5463 39.288 36.1026 41.6773V41.6773Z" fill="white"/>
<path fill-rule="evenodd" clip-rule="evenodd" d="M51.9116 46.8234L65.8818 53.4412C66.5113 50.74 76.0039 29.7741 76.1763 27.7072C74.1661 28.1749 57.2715 42.4108 54.901 44.2982C54.086 44.9455 52.4384 46.1053 51.9116 46.8234Z" fill="white"/>
<path fill-rule="evenodd" clip-rule="evenodd" d="M67.3525 54.5432C69.312 55.0002 74.2715 58.22 75.4408 58.22C76.8463 58.22 80.7014 54.7451 81.5837 53.7022C86.2574 48.1793 84.2719 44.7151 83.8975 40.2057C82.5629 40.3167 74.6341 43.6935 72.6923 44.4423C70.4187 45.3187 71.1156 45.0742 69.4561 48.9258C68.7214 50.6266 67.7612 52.7939 67.3525 54.5432V54.5432Z" fill="white"/>
<path fill-rule="evenodd" clip-rule="evenodd" d="M37.2056 43.8813C37.2056 45.3955 40.9426 54.9601 41.617 57.8514L48.7781 47.7341C49.5907 46.3923 49.3698 46.2128 49.3485 44.2604L49.3379 31.0155C48.3328 31.6875 37.2056 43.6321 37.2056 43.8813Z" fill="white"/>
<path fill-rule="evenodd" clip-rule="evenodd" d="M20.6606 31.0155C20.6606 32.5391 23.3571 39.6482 24.0174 41.6289C24.4744 43.0049 26.9323 51.177 28.0142 51.9695L32.4257 22.1926C29.8804 23.539 28.2528 24.23 25.9083 25.9686C25.0237 26.6241 20.6606 30.2088 20.6606 31.0155V31.0155Z" fill="white"/>
<path fill-rule="evenodd" clip-rule="evenodd" d="M51.1759 33.5891L73.6205 26.291C71.7838 23.7186 62.7803 20.8048 59.2641 19.9863C57.8243 22.1359 56.0739 23.7422 54.2078 25.5918C50.6703 29.0973 51.1759 28.8777 51.1759 33.5891V33.5891Z" fill="white"/>
<path fill-rule="evenodd" clip-rule="evenodd" d="M15.8818 43.1466C15.8818 45.7888 17.2531 50.0112 18.3102 51.7475C19.6295 53.9136 23.4752 53.44 26.5437 54.9117C26.5071 53.2581 22.1842 41.1069 21.2878 38.8439C20.7586 37.5045 19.6756 34.6297 19.5586 33.2206H18.8228C18.3137 35.4045 15.8818 38.4435 15.8818 43.1466V43.1466Z" fill="white"/>
<path fill-rule="evenodd" clip-rule="evenodd" d="M29.1177 55.6475L40.1469 58.5873C39.7004 56.6715 38.8984 54.6601 38.2618 52.7514L34.311 41.2616C33.9626 40.2175 33.7535 39.6269 33.3933 38.5037C32.9504 37.1194 33.0012 36.484 32.0586 35.7942C31.9972 38.4978 29.1177 53.3869 29.1177 55.6475V55.6475Z" fill="white"/>
<path fill-rule="evenodd" clip-rule="evenodd" d="M42.7202 59.6916C45.2549 60.281 45.7876 61.2389 50.4577 61.8802C53.5675 62.3066 56.4211 62.2641 59.9998 62.2641C58.8849 60.1581 50.9809 49.2695 50.0738 48.6612C47.6147 52.3333 45.1781 56.0195 42.7202 59.6916V59.6916Z" fill="white"/>
<path fill-rule="evenodd" clip-rule="evenodd" d="M51.1923 35.4765L51.1758 44.9856C52.9959 43.7655 54.3683 42.5608 56.1636 41.1505L70.6605 29.1765L51.1923 35.4765V35.4765Z" fill="white"/>
<path fill-rule="evenodd" clip-rule="evenodd" d="M62.2062 62.2641C63.085 61.8424 66.6389 61.5082 67.8023 61.2424C69.8823 60.7664 71.3917 60.1204 73.2343 59.6916V58.9558C71.2488 58.4916 54.9601 49.8506 53.0137 49.3971L59.896 59.0585C60.6873 60.118 61.5401 61.2696 62.2062 62.2641V62.2641Z" fill="white"/>
<path fill-rule="evenodd" clip-rule="evenodd" d="M72.1323 42.7793C73.6359 42.4297 75.8268 41.375 77.4355 40.7301C78.8139 40.1773 81.834 38.8462 83.1615 38.7352C83.1166 36.7096 81.8115 34.8623 80.9611 33.582C80.4521 32.8155 79.9938 32.1918 79.4398 31.4277C78.6828 30.3871 78.6639 29.9147 77.2784 29.545C76.7493 31.8151 75.5386 34.0639 74.7048 36.1604C73.9902 37.9604 72.5481 40.9958 72.1323 42.7793V42.7793Z" fill="white"/>
<path fill-rule="evenodd" clip-rule="evenodd" d="M32.7931 63.3672C35.6089 63.3672 36.64 61.6322 37.9416 59.6916C31.977 58.3014 26.3431 56.3207 20.2935 54.9117C22.2187 58.5495 27.2774 63.3672 32.7931 63.3672V63.3672Z" fill="white"/>
</svg>
