<svg width="100" height="100" viewBox="0 0 100 100" fill="none" xmlns="http://www.w3.org/2000/svg">
<path d="M52.8469 87.1569C52.6182 86.6614 51.6461 86.0896 51.2077 86.1849C51.0553 86.2421 50.8075 86.1277 50.6741 85.9752C50.5216 85.8037 50.2929 85.6703 50.1404 85.6703C49.6829 85.6703 48.9777 85.0985 48.5584 84.3933L48.1582 83.7071L48.6156 82.8113C48.8824 82.3157 49.7401 80.8672 50.5597 79.5711L52.0464 77.2458L52.5038 77.9701C52.7325 78.3894 53.5521 79.9142 54.3145 81.4009L55.6868 84.0692L54.6195 85.7846C54.0477 86.7186 53.4568 87.5 53.3043 87.5381C53.1518 87.5572 52.9422 87.4047 52.8469 87.1569Z" fill="white"/>
<path d="M58.279 84.927C58.1837 84.7174 58.0884 84.4505 58.0884 84.3362C58.0884 83.8978 61.1761 79.7237 61.3667 79.9143C61.5954 80.143 60.5852 82.6208 60.2612 82.6208C60.1278 82.6208 59.9753 82.9638 59.8991 83.4022C59.8038 83.955 59.6322 84.2218 59.3082 84.3743C59.0604 84.4886 58.8508 84.7364 58.8508 84.9461C58.8508 85.4035 58.5267 85.3845 58.279 84.927Z" fill="white"/>
<path d="M35.1594 79.7046C34.2445 78.4276 33.3106 77.1506 33.0819 76.8647L32.6816 76.3691L34.1302 73.6054C34.9307 72.0997 35.7312 70.594 35.9409 70.2509L36.303 69.66L36.6842 70.0984C37.3132 70.7655 40.5534 75.2255 40.5534 75.3971C40.5534 75.4733 40.3056 75.9689 40.0197 76.4644C39.7147 76.96 38.9333 78.4276 38.2471 79.7046C37.58 81.0007 36.9892 82.049 36.932 82.049C36.8748 82.049 36.0743 80.9816 35.1594 79.7046Z" fill="white"/>
<path d="M56.2013 80.772C55.8583 80.0478 55.0578 78.542 54.4478 77.4175L53.3042 75.359L54.9625 73.0909C55.8773 71.8329 56.8494 70.5369 57.1353 70.1938L57.6499 69.5839L58.6029 71.3564C59.6512 73.3006 59.6893 73.7008 58.8125 74.1583C58.3361 74.406 58.2789 74.5204 58.3361 75.1303C58.3932 75.6259 58.5457 75.8736 58.8888 76.0642C60.0133 76.6551 59.7655 78.3324 58.2026 80.4671C57.5737 81.3438 57.0019 82.049 56.9447 82.049C56.8875 82.049 56.5444 81.4773 56.2013 80.772Z" fill="white"/>
<path d="M31.7098 81.1722C31.8051 80.8291 31.7289 80.5814 31.443 80.2764C31.0808 79.8952 31.0808 79.7999 31.3095 79.2472C31.462 78.9041 31.6526 78.6182 31.7289 78.6182C31.9385 78.6182 33.8826 81.2103 33.8826 81.4772C33.8826 81.5915 33.3871 81.6678 32.739 81.6678C31.5954 81.6678 31.5954 81.6678 31.7098 81.1722Z" fill="white"/>
<path d="M39.6001 81.4772C39.6001 81.1341 41.6776 77.5699 41.8682 77.5699C42.0016 77.5699 42.5162 78.218 43.0118 78.9994C44.0601 80.6195 44.041 80.6767 42.3447 80.6958C41.7348 80.7148 41.0486 80.8864 40.4959 81.1723C40.0003 81.42 39.6001 81.5535 39.6001 81.4772Z" fill="white"/>
<path d="M46.3668 80.6006C46.0809 80.086 45.185 78.6755 44.4036 77.4747L42.9741 75.2829L43.4125 74.5205C43.6602 74.1011 44.537 72.6907 45.3756 71.3946L46.9195 69.0312L47.2626 69.4696C47.72 70.0414 50.4074 74.2917 50.6743 74.8826C50.8649 75.3019 50.7315 75.6069 49.1686 78.0847C46.6908 81.9919 47.0148 81.706 46.3668 80.6006Z" fill="white"/>
<path d="M39.5623 70.5369C38.4187 69.0311 37.5039 67.7351 37.5039 67.6398C37.5039 67.4492 41.1062 61.6931 41.3158 61.5597C41.4493 61.4834 43.8699 64.533 45.2994 66.5724L45.7377 67.2014L44.232 69.5267C43.3934 70.8037 42.5166 72.176 42.2879 72.5763C42.0401 72.9575 41.7923 73.2815 41.7352 73.2815C41.6589 73.2815 40.6869 72.0426 39.5623 70.5369Z" fill="white"/>
<path d="M51.7224 72.6713C51.5127 72.3283 50.636 70.9369 49.7592 69.6027L48.1772 67.144L50.3119 64.285L52.4466 61.426L52.885 61.9787C53.2281 62.4171 54.8863 64.9711 56.2967 67.2964C56.5255 67.6776 56.4302 67.8492 55.2866 69.2977C54.6004 70.1745 53.6474 71.4324 53.19 72.0805C52.7135 72.7476 52.2751 73.2812 52.1989 73.2812C52.1226 73.2812 51.913 72.9954 51.7224 72.6713Z" fill="white"/>
<path d="M31.3665 71.8137C30.9853 71.7756 30.566 71.6041 30.4516 71.4516C30.3182 71.2991 29.9751 71.1847 29.6702 71.1847C28.9459 71.1847 28.5266 70.7273 28.66 70.0793C28.7362 69.6981 28.66 69.4503 28.3741 69.2025C28.1645 69.0119 27.9358 68.5735 27.8595 68.2305C27.7452 67.5634 27.8405 67.3156 29.4415 64.3613L30.2992 62.7793L30.871 63.313C31.9002 64.2851 34.8354 67.754 34.8354 68.0017C34.8354 68.1161 34.378 69.05 33.8252 70.0412C32.7769 71.9471 32.7579 71.9662 31.3665 71.8137ZM33.0819 69.4312C33.9777 67.8302 34.073 68.097 31.824 65.6574L30.5088 64.247L29.6321 65.9433C28.6791 67.773 28.5457 68.4401 29.0412 68.8023C29.2127 68.9166 29.3652 69.2597 29.3652 69.5456C29.3652 69.984 29.4986 70.1365 30.1467 70.4224C30.566 70.613 31.2522 70.7845 31.6334 70.7845C32.3005 70.8036 32.3576 70.7464 33.0819 69.4312Z" fill="white"/>
<path d="M59.4417 68.8024C59.2321 68.4212 59.0415 68.04 59.0415 67.9637C59.0415 67.8875 59.4227 67.3729 59.8992 66.8201C60.5853 66.0196 60.7759 65.8862 60.8712 66.134C60.9475 66.3246 60.8903 66.5342 60.7378 66.6295C60.5472 66.7439 60.6616 66.8011 61.0999 66.8011C61.6527 66.8011 61.9386 67.0489 61.5764 67.2204C61.3477 67.3157 60.3757 68.6499 60.3757 68.8596C60.3757 68.9549 60.2613 69.1455 60.1088 69.2598C59.8992 69.4313 59.7658 69.336 59.4417 68.8024Z" fill="white"/>
<path d="M33.711 63.4466L31.3857 60.8735L31.805 60.1683C32.0528 59.7871 32.9295 58.3576 33.7491 57.0043L35.2739 54.5456L36.7225 56.0513C37.523 56.8709 38.5903 58.0526 39.1049 58.6435L40.0198 59.7489L38.0757 62.8367C36.9893 64.552 36.0935 65.9625 36.0744 65.9815C36.0744 66.0197 35.0071 64.8761 33.711 63.4466Z" fill="white"/>
<path d="M57.1543 64.857C56.7349 64.1899 55.8391 62.7794 55.1339 61.693L53.8569 59.7489L55.7629 57.5952C56.8112 56.4325 57.8785 55.2508 58.1454 55.003L58.6409 54.5646L59.5367 55.956C60.8138 57.9573 62.472 60.7019 62.472 60.8163C62.472 60.9306 62.0717 61.4071 59.4605 64.2852L57.8976 66.0387L57.1543 64.857Z" fill="white"/>
<path d="M44.9181 62.6841C43.8317 61.2546 42.8597 59.9776 42.7644 59.8442C42.631 59.6726 43.2027 58.7768 44.6704 56.8137C45.8139 55.2889 46.8432 54.0309 46.9575 54.0309C47.1863 54.0309 51.227 59.3486 51.227 59.6536C51.227 59.7489 50.4455 60.8353 49.4925 62.0361C48.5586 63.2369 47.6246 64.4567 47.4531 64.7616C47.2816 65.0475 47.091 65.2763 47.0147 65.2763C46.9575 65.2763 46.0045 64.1136 44.9181 62.6841Z" fill="white"/>
<path d="M27.0211 63.4465C27.0211 63.0653 26.8305 62.4172 26.6018 62.017C26.2396 61.3689 26.2206 61.2165 26.4493 60.7971C26.6399 60.435 26.6589 60.2254 26.4874 59.8442C25.9918 58.7768 26.2777 58.7768 27.4976 59.8823C28.1647 60.4922 28.7174 61.1021 28.7365 61.2546C28.7365 61.6167 27.3832 64.1326 27.1926 64.1326C27.0973 64.1326 27.0211 63.8277 27.0211 63.4465Z" fill="white"/>
<path d="M65.2168 61.5595C65.1215 61.3308 65.4455 60.8733 66.3032 60.0156C66.9512 59.3485 67.5421 58.853 67.5992 58.8911C67.7327 59.0436 66.9703 60.3206 66.7415 60.3206C66.4747 60.3206 65.7123 61.1402 65.7123 61.4261C65.7123 61.7882 65.3311 61.8835 65.2168 61.5595Z" fill="white"/>
<path d="M27.8975 57.5571C26.8492 56.566 26.0869 55.6892 26.144 55.5749C26.2203 55.4605 26.144 55.0793 25.9534 54.6981C25.7057 54.1644 25.6866 53.9167 25.8581 53.4402C26.0869 52.7731 28.5075 48.7324 28.7743 48.5799C28.9649 48.4655 29.8226 49.2089 32.2813 51.5914L33.8442 53.0971L32.3195 55.5177C31.4808 56.8519 30.6231 58.2623 30.3944 58.6626C30.1847 59.0438 29.956 59.3678 29.8988 59.3678C29.8417 59.3487 28.9459 58.5482 27.8975 57.5571Z" fill="white"/>
<path d="M63.7493 58.9482C61.5003 55.384 60.1851 53.2112 60.1851 53.0778C60.1851 52.9825 61.1191 52.0485 62.2436 51.0003C64.283 49.0943 65.1026 48.4081 65.2169 48.5225C65.2551 48.5606 66.1318 49.9901 67.161 51.7055L69.0289 54.8122L68.5524 55.2506C68.3046 55.4793 67.1801 56.5086 66.0556 57.5378C64.0352 59.3866 64.0162 59.3866 63.7493 58.9482Z" fill="white"/>
<path d="M40.2485 56.9471C39.7338 56.3371 38.6855 55.1745 37.9041 54.374L36.4937 52.8873L37.0273 52.0677C37.3132 51.6294 38.2853 50.2952 39.1811 49.1135L40.8012 46.9406L41.7351 47.8746C42.7644 48.8847 45.3756 51.8581 45.4709 52.144C45.528 52.2774 42.0401 57.0995 41.3349 57.9001C41.2586 57.9763 40.7821 57.5379 40.2485 56.9471ZM42.7453 54.5646C43.5649 53.4782 44.251 52.468 44.251 52.2965C44.2701 51.9534 41.2205 48.5035 40.9155 48.5035C40.7059 48.5035 37.6754 52.5442 37.7516 52.7158C37.8278 52.9445 41.0299 56.5087 41.1443 56.5087C41.2014 56.5087 41.9257 55.6319 42.7453 54.5646Z" fill="white"/>
<path d="M50.5601 55.2125C49.4165 53.6687 48.4445 52.3345 48.4254 52.2201C48.3682 51.9914 52.7711 47.093 53.0379 47.093C53.2285 47.093 56.7165 51.6102 57.1358 52.4107C57.3645 52.83 57.212 53.0206 55.0392 55.4413C53.7431 56.8707 52.6758 58.0334 52.6758 58.0334C52.6567 58.0334 51.7228 56.7564 50.5601 55.2125Z" fill="white"/>
<path d="M70.0963 52.7349C69.982 52.5633 69.1814 51.2101 68.2856 49.7615L66.6846 47.0932L68.3428 45.7971C69.2577 45.0919 70.4585 44.177 71.0303 43.7958L72.0404 43.0906L72.3644 43.5099C72.536 43.7386 72.9744 44.4819 73.3365 45.149L73.9845 46.3689L73.2603 47.9699C72.86 48.8276 72.4216 49.8187 72.3073 50.1237C72.1929 50.4477 71.8117 51.1148 71.4877 51.6103C71.1446 52.1059 70.8587 52.6015 70.8587 52.6777C70.8587 53.0208 70.2869 53.0589 70.0963 52.7349Z" fill="white"/>
<path d="M33.7871 50.2571C33.1582 49.6472 32.0146 48.618 31.2712 47.9318L29.8799 46.6929L31.9002 43.8721C33.0057 42.3091 34.0349 40.994 34.1874 40.9368C34.4733 40.8415 35.1595 41.4133 37.9231 44.0627L39.3907 45.4731L37.3704 48.1796C36.2649 49.6663 35.2738 50.9814 35.1595 51.1148C34.9879 51.2864 34.6639 51.0958 33.7871 50.2571ZM36.5318 47.8556C37.3895 46.731 38.0756 45.7209 38.0756 45.6446C38.0756 45.4921 35.9409 43.3765 34.9117 42.5188L34.3208 42.0232L32.7388 44.2151C31.8812 45.4159 31.2141 46.4833 31.2522 46.5786C31.3094 46.7692 34.8926 50.0284 34.9498 49.9712C34.9689 49.9522 35.6931 48.9992 36.5318 47.8556Z" fill="white"/>
<path d="M56.7924 48.4844C55.6107 46.9215 54.6577 45.5682 54.6577 45.492C54.6577 45.168 59.3274 40.8795 59.6705 40.8795C59.8611 40.8795 63.33 45.5682 63.8827 46.5403C63.9589 46.6927 63.7302 47.0358 63.2918 47.398C62.9106 47.741 61.748 48.7703 60.7378 49.6852L58.9081 51.3434L56.7924 48.4844Z" fill="white"/>
<path d="M45.261 48.7514C44.3652 47.7221 43.336 46.5785 42.9548 46.2355C42.5736 45.8733 42.2686 45.4731 42.2686 45.3778C42.2686 45.149 43.3741 43.8339 45.566 41.3942C47.1289 39.6407 46.6905 39.4692 49.721 42.9381L51.7986 45.3015L49.378 47.9509C48.0628 49.3994 46.9574 50.6002 46.9383 50.6002C46.9192 50.6002 46.1759 49.7615 45.261 48.7514Z" fill="white"/>
<path d="M25.4959 48.8848C25.3816 48.6751 24.6764 47.9889 23.914 47.3409C22.2748 45.9305 21.1693 44.1388 21.5505 43.5289C21.6649 43.3383 21.8555 43.1668 21.9508 43.1668C22.1414 43.1668 27.2113 46.9407 27.2113 47.0931C27.2113 47.2456 25.8962 49.266 25.7818 49.266C25.7437 49.266 25.6103 49.0944 25.4959 48.8848ZM26.0677 47.1503C26.0677 47.0169 22.7513 44.501 22.5607 44.501C22.2367 44.501 23.1897 45.7018 24.1618 46.5404C24.7335 47.036 25.2863 47.5506 25.3625 47.703C25.4959 47.9127 25.5722 47.8936 25.8009 47.6077C25.9343 47.4172 26.0677 47.2075 26.0677 47.1503Z" fill="white"/>
<path d="M27.0211 44.4819C26.335 43.9482 25.1533 43.0715 24.4099 42.5378C23.6475 42.0041 23.0186 41.4895 23.0186 41.3752C23.0186 41.0702 26.8877 35.3522 27.0974 35.3522C27.4595 35.3522 32.5104 39.1261 32.5295 39.412C32.5485 39.5454 30.147 42.9571 28.5841 45.0347L28.26 45.454L27.0211 44.4819ZM29.8611 41.8707C30.7188 40.6699 31.3477 39.6217 31.2906 39.5073C31.0618 39.1452 27.3642 36.4958 27.2117 36.5911C27.0211 36.7055 24.3909 40.5556 24.2384 40.9368C24.1812 41.1083 24.7911 41.6992 26.1063 42.6712C27.1736 43.4718 28.1076 44.1007 28.1838 44.0817C28.26 44.0435 29.0034 43.0524 29.8611 41.8707Z" fill="white"/>
<path d="M63.4634 42.4425L61.3096 39.4501L62.0339 38.8211C63.0631 37.9062 66.5892 35.3522 66.8179 35.3522C66.9513 35.3522 70.2487 40.041 70.9158 41.1845C71.0111 41.3561 67.485 44.196 65.8077 45.3015C65.6934 45.3777 64.6642 44.1198 63.4634 42.4425Z" fill="white"/>
<path d="M74.9562 43.9864C74.6703 43.4718 74.2701 42.8047 74.0604 42.4616L73.7173 41.8708L74.6894 41.2609C75.2231 40.9368 75.7949 40.7081 75.9473 40.7653C76.0998 40.8225 76.3667 40.8034 76.5382 40.7081C76.7669 40.5938 76.9956 40.6319 77.2434 40.8034C77.4531 40.9559 77.9296 41.1656 78.3298 41.2609C79.2828 41.5277 80.0834 42.2329 80.3311 43.0525C80.5408 43.7386 80.5408 43.7386 79.8546 43.9292C78.4823 44.2914 75.9092 44.8822 75.6805 44.8822C75.5662 44.8822 75.2421 44.482 74.9562 43.9864Z" fill="white"/>
<path d="M38.171 41.6229C36.8178 40.365 35.6551 39.2595 35.6361 39.1451C35.5979 39.0498 36.3794 38.0015 37.3896 36.8198C39.7721 34.0371 40.1342 33.6368 40.2867 33.6368C40.4392 33.6368 41.3921 34.4754 43.7556 36.7245L45.5472 38.4018L44.8039 39.2214C41.5065 42.9952 40.6869 43.9292 40.6679 43.9101C40.6488 43.9101 39.5433 42.8809 38.171 41.6229Z" fill="white"/>
<path d="M52.4465 43.0143C52.0463 42.5187 50.9599 41.2798 50.045 40.2697L48.3677 38.4399L50.8836 36.0384C52.275 34.7232 53.5139 33.6368 53.6283 33.6368C53.8189 33.6368 58.4885 38.9545 58.4504 39.1642C58.4504 39.2214 58.0311 39.6026 57.5355 40.0219C57.0209 40.4412 55.8392 41.4895 54.9053 42.3472L53.1899 43.9101L52.4465 43.0143ZM55.153 40.7462C56.1442 39.8313 56.9447 39.0308 56.9447 38.9736C56.9447 38.8973 56.2013 37.9825 55.3055 36.9151L53.6664 34.971L52.9802 35.5237C52.58 35.8287 51.7223 36.6483 51.0552 37.3154L49.8544 38.5543L51.5317 40.4793C52.4656 41.5276 53.2471 42.4044 53.2852 42.4044C53.3233 42.4044 54.1619 41.661 55.153 40.7462Z" fill="white"/>
<path d="M71.1254 37.868C70.2296 36.5338 69.4291 35.314 69.3719 35.1615C69.3147 35.009 69.6959 35.2759 70.2296 35.7524C71.2017 36.6672 72.1547 37.2581 72.6121 37.2581C72.7646 37.2581 72.9742 37.544 73.1077 37.9061C73.2411 38.2492 73.5079 38.6876 73.7176 38.8782C74.2322 39.3356 74.2131 39.45 73.4317 39.9074L72.7646 40.2886L71.1254 37.868Z" fill="white"/>
<path d="M21.8367 38.6877C21.8748 38.4208 22.0844 38.1159 22.275 38.0015C22.58 37.849 22.6372 37.6013 22.6372 36.553C22.6372 35.8478 22.7515 34.9901 22.8659 34.6279C23.0756 34.0561 23.0565 33.8846 22.5991 33.046C22.3322 32.5313 22.1416 32.112 22.1797 32.112C22.3322 32.112 25.115 33.8655 25.2103 34.0371C25.2865 34.1324 24.7338 35.0472 24.0286 36.0765C23.3043 37.0867 22.5419 38.2112 22.3513 38.5543C21.9129 39.2785 21.7033 39.3357 21.8367 38.6877ZM23.9714 34.0942C23.6664 33.7321 23.4758 33.7512 23.4568 34.1705C23.4568 34.342 23.3805 34.7995 23.3043 35.1616L23.1709 35.8287L23.6855 35.1044C24.0857 34.5136 24.1429 34.323 23.9714 34.0942Z" fill="white"/>
<path d="M32.5482 36.858C31.8621 36.3243 30.6422 35.4285 29.8417 34.8376C29.0221 34.2658 28.355 33.7322 28.355 33.6369C28.355 33.4844 31.1187 29.9583 32.3195 28.605C32.9485 27.8808 32.9485 27.8808 33.4631 28.2239C34.2827 28.7385 38.4377 31.9405 38.5521 32.1311C38.6093 32.2074 37.8469 33.2175 36.8557 34.3611C35.8456 35.4857 34.7973 36.7246 34.5114 37.1248C34.2255 37.506 33.9396 37.811 33.8824 37.83C33.8252 37.83 33.2344 37.3917 32.5482 36.858ZM34.5686 35.6C34.9879 35.1045 35.7693 34.1896 36.303 33.5797C36.8557 32.9507 37.256 32.3789 37.2179 32.2836C37.0463 32.0358 33.3106 29.2531 33.1391 29.2531C32.9103 29.2531 29.6511 33.2747 29.7273 33.4653C29.7845 33.6369 33.5393 36.4768 33.7109 36.4768C33.7871 36.4958 34.1683 36.0956 34.5686 35.6Z" fill="white"/>
<path d="M58.6413 36.1718C57.8598 35.2569 56.7734 33.9799 56.2207 33.3509L55.1914 32.2264L55.7442 31.7689C56.9068 30.816 60.5663 28.0904 60.8141 28.0141C61.0619 27.8998 61.3668 28.2429 64.0733 31.5974L65.7316 33.6749L64.912 34.2658C64.4545 34.5898 63.2728 35.4666 62.2817 36.2099C61.2906 36.9532 60.3757 37.6203 60.2614 37.6966C60.1279 37.7728 59.4799 37.1629 58.6413 36.1718Z" fill="white"/>
<path d="M45.3182 35.4856C44.5368 34.7232 43.3741 33.6559 42.7451 33.1031L41.6016 32.0929L44.2128 29.5199C46.195 27.5948 46.9193 26.9849 47.1289 27.0992C47.5101 27.328 52.1798 31.9214 52.1798 32.0739C52.1798 32.2645 47.0908 36.877 46.9002 36.877C46.824 36.877 46.0997 36.248 45.3182 35.4856ZM49.1874 30.3394C48.2725 29.4246 47.3767 28.5669 47.1861 28.4716C46.9383 28.3381 46.4809 28.6812 44.937 30.1488L43.012 31.9786L44.9752 33.8274L46.9383 35.6762L48.9015 33.8655L50.8647 32.0358L49.1874 30.3394Z" fill="white"/>
<path d="M23.6854 30.8539C21.7604 29.6913 20.9789 29.1195 20.9027 28.7954C20.7883 28.4143 21.0742 27.9568 22.4465 26.2795C23.3614 25.1359 24.3716 23.9161 24.6575 23.573L25.2102 22.9631L28.0692 24.6976C29.6511 25.6315 31.0044 26.4892 31.0997 26.5845C31.1759 26.6607 30.6232 27.4994 29.8417 28.4333C29.0793 29.3482 28.031 30.6443 27.5355 31.3114C27.0209 31.9594 26.5635 32.4931 26.4872 32.474C26.411 32.474 25.153 31.7497 23.6854 30.8539ZM28.2216 29.0242L29.8798 26.9848L29.3462 26.6226C27.9167 25.6315 25.4771 24.2783 25.3055 24.3926C25.2102 24.4498 24.4288 25.3647 23.5901 26.413C22.4084 27.8425 22.0844 28.3761 22.2178 28.6048C22.4275 29.0051 26.3157 31.3495 26.4682 31.1779C26.5444 31.1208 27.3259 30.1487 28.2216 29.0242Z" fill="white"/>
<path d="M37.1227 28.5669L34.2065 26.375L36.894 23.6876L39.5624 20.9811L41.0681 22.1056C43.0122 23.5732 45.3184 25.4601 45.3184 25.6126C45.3184 25.6698 44.1367 26.8515 42.6882 28.2429L40.0579 30.7397L37.1227 28.5669ZM42.0592 27.5567L44.0414 25.6698L41.9639 24.0306C40.8394 23.1348 39.8101 22.3915 39.6958 22.3915C39.3146 22.3915 35.6932 26.1844 35.8838 26.375C36.2078 26.699 39.8864 29.4246 39.9817 29.4246C40.0388 29.4246 40.9728 28.586 42.0592 27.5567Z" fill="white"/>
<path d="M51.1317 28.1666L48.4824 25.5744L49.0351 25.117C49.3591 24.8501 50.3693 24.0496 51.2842 23.3253C52.8471 22.1055 52.9996 22.0293 53.3617 22.2961C53.5904 22.4486 53.9716 22.5248 54.2766 22.4677C54.6768 22.3724 54.8865 22.4867 55.2867 22.9632C55.5726 23.2872 55.8014 23.6494 55.8014 23.7447C55.8014 23.84 55.9157 23.9162 56.0682 23.9162C56.2016 23.9162 56.4303 24.0496 56.5638 24.2021C56.6972 24.3546 56.945 24.488 57.1165 24.488C57.288 24.488 57.5358 24.6595 57.6692 24.8692C57.7836 25.0789 58.241 25.4601 58.6603 25.7269C59.0797 25.9937 59.4227 26.3178 59.4227 26.4512C59.4037 26.5655 58.7938 27.1183 58.0504 27.6329C57.3071 28.1666 56.0682 29.0814 55.3058 29.6914C54.5243 30.2822 53.8763 30.7778 53.8573 30.7778C53.8191 30.7587 52.5993 29.5961 51.1317 28.1666Z" fill="white"/>
<path d="M18.9585 25.3076C18.6917 24.6977 18.4248 23.7066 18.3486 23.1157C18.2152 22.1437 18.2724 21.934 18.7298 21.1144C19.0348 20.6189 19.2825 20.1614 19.3207 20.1424C19.4159 20.028 23.2089 21.8768 23.2089 22.0293C23.2089 22.239 19.74 26.394 19.5684 26.394C19.5112 26.394 19.2254 25.8985 18.9585 25.3076ZM20.8836 21.7815C20.3308 21.4956 19.8353 21.2669 19.7781 21.2479C19.7209 21.2479 19.5303 21.4956 19.3397 21.8006C19.0538 22.2771 19.0348 22.5058 19.2063 23.2682C19.6065 25.0217 19.6637 25.0408 20.8454 23.5922L21.8937 22.3152L20.8836 21.7815Z" fill="white"/>
<path d="M29.537 23.4589C27.9169 22.4678 26.6208 21.6101 26.6399 21.5148C26.697 21.248 30.2231 17.4932 31.119 16.7689L31.9385 16.0827L33.349 16.9214C34.1114 17.3788 35.4456 18.1984 36.3033 18.7702L37.8662 19.7994L35.274 22.4678C33.8445 23.9545 32.6247 25.1743 32.5675 25.1934C32.5103 25.2124 31.138 24.431 29.537 23.4589ZM34.3401 22.0294C35.3693 21.0002 36.1698 20.0663 36.1127 19.971C35.9602 19.7422 32.2816 17.436 32.0529 17.436C31.9576 17.436 31.0046 18.3128 29.9372 19.3801L27.9931 21.3242L30.1278 22.6012C31.3096 23.3255 32.3007 23.8973 32.3579 23.9164C32.415 23.9164 33.3108 23.0587 34.3401 22.0294Z" fill="white"/>
<path d="M45.4706 23.0966C44.6701 22.4486 43.374 21.4384 42.5735 20.8666C41.792 20.2948 41.125 19.7611 41.125 19.6849C41.125 19.4371 44.4033 16.7687 44.7082 16.7496C44.8988 16.7496 45.2038 16.8831 45.4134 17.0546C46.1377 17.6645 48.5392 18.9797 49.0348 19.0559C49.5494 19.1321 51.3792 20.1042 51.4745 20.371C51.5507 20.5616 50.9408 21.1525 49.4732 22.3342C48.2915 23.2491 47.2432 24.0687 47.1288 24.1449C47.0145 24.2211 46.2711 23.7446 45.4706 23.0966ZM48.5964 21.8005C49.416 21.1525 50.0259 20.5616 49.9878 20.4854C49.9306 20.3901 49.4922 20.1423 48.9776 19.9136C47.0907 19.0368 45.3181 18.1029 45.3181 17.9695C45.3181 17.5502 44.3461 17.9314 43.5074 18.6938L42.5544 19.5514L43.2025 20.0661C43.5646 20.352 44.5176 21.1144 45.2991 21.7624C46.0996 22.4104 46.8429 22.9441 46.9382 22.9441C47.0526 22.9441 47.7959 22.4295 48.5964 21.8005Z" fill="white"/>
<path d="M22.3133 19.5134C21.2268 18.9988 20.3501 18.5033 20.3501 18.408C20.3501 18.3127 20.4645 18.1411 20.6169 18.0268C20.7885 17.8743 20.8456 17.5122 20.8075 16.9022C20.7504 16.1017 20.8266 15.9111 21.3221 15.3774C21.8558 14.8057 21.9511 14.7675 22.8851 14.8819C23.514 14.9581 24.3527 14.8819 25.1532 14.6913C25.8584 14.5198 26.697 14.4435 27.002 14.5007C27.2879 14.5579 27.7263 14.5198 27.955 14.4054C28.279 14.2339 28.5077 14.2529 29.1176 14.5769C29.537 14.7866 29.88 15.0344 29.88 15.1106C29.88 15.3393 24.6576 20.4855 24.448 20.4664C24.3336 20.4664 23.3806 20.0281 22.3133 19.5134ZM26.1252 17.5884C27.6882 15.9683 27.8025 15.8158 27.4785 15.5871C27.2879 15.4537 27.002 15.3774 26.8305 15.4537C26.5255 15.5871 25.2294 15.7205 23.6475 15.7777C22.3895 15.8349 21.913 16.2351 22.0274 17.131C22.0655 17.5122 22.0083 17.8362 21.8558 17.9124C21.7033 18.0077 22.0464 18.2746 22.8469 18.6939C23.514 19.0369 24.143 19.3228 24.2574 19.3419C24.3527 19.3419 25.2104 18.5604 26.1252 17.5884Z" fill="white"/>
<path d="M38.3617 17.8742C37.8471 17.5312 36.532 16.6925 35.4646 16.0445C34.3782 15.3965 33.5015 14.7865 33.5015 14.6722C33.5015 14.5769 33.7302 14.3291 33.997 14.1194C34.4354 13.8145 34.7403 13.7764 36.9132 13.8717C39.5816 14.0051 41.0873 14.4053 42.0403 15.263L42.5549 15.7205L41.7925 16.4066C41.3732 16.7878 40.6489 17.4168 40.1724 17.8171L39.3147 18.5223L38.3617 17.8742ZM40.1915 16.5401L40.9539 15.8348L40.2677 15.4155C39.6387 15.0343 38.9526 14.8628 37.3134 14.6531C37.0466 14.615 36.4367 14.5388 35.9411 14.4625C35.4265 14.3863 35.0262 14.4053 35.0262 14.5006C35.0453 14.6722 38.9716 17.2072 39.2575 17.2262C39.3528 17.2453 39.7531 16.9213 40.1915 16.5401Z" fill="white"/>
</svg>
