<svg width="56" height="56" viewBox="0 0 56 56" fill="none" xmlns="http://www.w3.org/2000/svg">
<path d="M30.5053 51.7508C30.3563 51.4281 29.7234 51.0557 29.4379 51.1178C29.3386 51.155 29.1773 51.0806 29.0904 50.9813C28.9911 50.8696 28.8422 50.7827 28.7429 50.7827C28.445 50.7827 27.9858 50.4104 27.7128 49.9512L27.4521 49.5044L27.75 48.921C27.9238 48.5983 28.4823 47.6551 29.0159 46.8112L29.984 45.297L30.2819 45.7686C30.4308 46.0417 30.9645 47.0346 31.4609 48.0026L32.3545 49.7402L31.6595 50.8572C31.2872 51.4653 30.9024 51.9742 30.8031 51.999C30.7039 52.0114 30.5673 51.9121 30.5053 51.7508Z" fill="#FF9800"/>
<path d="M34.0421 50.2986C33.98 50.1621 33.918 49.9884 33.918 49.9139C33.918 49.6284 35.9286 46.9104 36.0527 47.0345C36.2016 47.1835 35.5438 48.7969 35.3328 48.7969C35.246 48.7969 35.1467 49.0203 35.097 49.3057C35.035 49.6657 34.9233 49.8394 34.7123 49.9387C34.5509 50.0132 34.4144 50.1745 34.4144 50.311C34.4144 50.6089 34.2034 50.5965 34.0421 50.2986Z" fill="#FF9800"/>
<path d="M18.9875 46.8981C18.3917 46.0665 17.7836 45.235 17.6347 45.0488L17.374 44.7261L18.3173 42.9265C18.8385 41.946 19.3598 40.9656 19.4963 40.7422L19.7321 40.3574L19.9804 40.6429C20.3899 41.0773 22.4998 43.9815 22.4998 44.0932C22.4998 44.1428 22.3385 44.4655 22.1523 44.7882C21.9537 45.1109 21.4449 46.0665 20.9981 46.8981C20.5637 47.742 20.1789 48.4246 20.1417 48.4246C20.1045 48.4246 19.5832 47.7296 18.9875 46.8981Z" fill="#FF9800"/>
<path d="M32.6892 47.5931C32.4658 47.1214 31.9446 46.141 31.5474 45.4087L30.8027 44.0683L31.8825 42.5914C32.4782 41.7722 33.1112 40.9283 33.2974 40.7049L33.6325 40.3077L34.253 41.462C34.9356 42.7279 34.9605 42.9885 34.3895 43.2864C34.0793 43.4477 34.042 43.5222 34.0793 43.9194C34.1165 44.2421 34.2158 44.4034 34.4392 44.5275C35.1714 44.9123 35.0101 46.0044 33.9924 47.3945C33.5828 47.9654 33.2105 48.4246 33.1733 48.4246C33.136 48.4246 32.9126 48.0523 32.6892 47.5931Z" fill="#FF9800"/>
<path d="M16.7413 47.8536C16.8033 47.6302 16.7537 47.4689 16.5675 47.2703C16.3317 47.0221 16.3317 46.96 16.4806 46.6001C16.5799 46.3767 16.704 46.1906 16.7537 46.1906C16.8902 46.1906 18.1561 47.8785 18.1561 48.0522C18.1561 48.1267 17.8334 48.1763 17.4115 48.1763C16.6668 48.1763 16.6668 48.1763 16.7413 47.8536Z" fill="#FF9800"/>
<path d="M21.8794 48.0522C21.8794 47.8288 23.2322 45.5079 23.3563 45.5079C23.4432 45.5079 23.7783 45.9299 24.101 46.4388C24.7836 47.4937 24.7712 47.5309 23.6666 47.5434C23.2694 47.5558 22.8226 47.6675 22.4627 47.8536C22.14 48.015 21.8794 48.1019 21.8794 48.0522Z" fill="#FF9800"/>
<path d="M26.2853 47.4813C26.0992 47.1462 25.5159 46.2278 25.007 45.4459L24.0762 44.0186L24.3616 43.5221C24.523 43.2491 25.0939 42.3307 25.64 41.4867L26.6453 39.9478L26.8687 40.2332C27.1665 40.6055 28.9165 43.3732 29.0903 43.758C29.2144 44.031 29.1275 44.2296 28.1098 45.843C26.4963 48.3873 26.7073 48.2011 26.2853 47.4813Z" fill="#FF9800"/>
<path d="M21.8546 40.9282C21.1099 39.9477 20.5142 39.1038 20.5142 39.0417C20.5142 38.9176 22.8599 35.1695 22.9964 35.0826C23.0833 35.0329 24.6595 37.0187 25.5903 38.3467L25.8758 38.7563L24.8953 40.2704C24.3492 41.102 23.7783 41.9956 23.6293 42.2562C23.468 42.5044 23.3067 42.7154 23.2694 42.7154C23.2198 42.7154 22.5868 41.9087 21.8546 40.9282Z" fill="#FF9800"/>
<path d="M29.7728 42.3183C29.6363 42.0949 29.0654 41.1889 28.4945 40.3201L27.4644 38.7191L28.8544 36.8574L30.2444 34.9957L30.5299 35.3556C30.7533 35.6411 31.8331 37.3042 32.7515 38.8183C32.9004 39.0666 32.8384 39.1783 32.0937 40.1215C31.6469 40.6924 31.0263 41.5116 30.7285 41.9335C30.4182 42.3679 30.1327 42.7154 30.0831 42.7154C30.0335 42.7154 29.8969 42.5293 29.7728 42.3183Z" fill="#FF9800"/>
<path d="M16.5176 41.7598C16.2694 41.735 15.9963 41.6233 15.9219 41.524C15.835 41.4247 15.6116 41.3502 15.413 41.3502C14.9414 41.3502 14.6683 41.0524 14.7552 40.6304C14.8049 40.3822 14.7552 40.2208 14.569 40.0595C14.4325 39.9354 14.2836 39.6499 14.2339 39.4265C14.1595 38.9921 14.2215 38.8308 15.2641 36.9071L15.8226 35.877L16.1949 36.2245C16.8651 36.8574 18.7764 39.1162 18.7764 39.2776C18.7764 39.3521 18.4785 39.9602 18.1186 40.6056C17.436 41.8467 17.4236 41.8591 16.5176 41.7598ZM17.6346 40.2084C18.2179 39.1659 18.28 39.3396 16.8155 37.751L15.9591 36.8326L15.3882 37.9372C14.7676 39.1287 14.6807 39.563 15.0034 39.7989C15.1151 39.8733 15.2144 40.0967 15.2144 40.2829C15.2144 40.5683 15.3013 40.6676 15.7233 40.8538C15.9963 40.9779 16.4431 41.0896 16.6913 41.0896C17.1257 41.102 17.163 41.0648 17.6346 40.2084Z" fill="#FF9800"/>
<path d="M34.7992 39.7989C34.6627 39.5507 34.5386 39.3025 34.5386 39.2528C34.5386 39.2032 34.7868 38.8681 35.0971 38.5082C35.5439 37.9869 35.668 37.9 35.73 38.0614C35.7797 38.1855 35.7425 38.322 35.6432 38.3841C35.5191 38.4585 35.5935 38.4958 35.879 38.4958C36.2389 38.4958 36.4251 38.6571 36.1893 38.7688C36.0403 38.8309 35.4074 39.6996 35.4074 39.8362C35.4074 39.8982 35.3329 40.0223 35.2336 40.0968C35.0971 40.2085 35.0102 40.1464 34.7992 39.7989Z" fill="#FF9800"/>
<path d="M18.0444 36.3114L16.5303 34.6359L16.8033 34.1767C16.9647 33.9284 17.5356 32.9976 18.0692 32.1164L19.0621 30.5154L20.0054 31.4959C20.5266 32.0295 21.2217 32.799 21.5568 33.1838L22.1525 33.9036L20.8866 35.9142C20.1791 37.0312 19.5958 37.9496 19.5834 37.962C19.5834 37.9869 18.8884 37.2422 18.0444 36.3114Z" fill="#FF9800"/>
<path d="M33.3097 37.2298C33.0367 36.7954 32.4534 35.877 31.9941 35.1696L31.1626 33.9036L32.4037 32.5012C33.0863 31.7441 33.7813 30.9746 33.9551 30.8133L34.2778 30.5278L34.8611 31.4338C35.6926 32.737 36.7724 34.5242 36.7724 34.5987C36.7724 34.6731 36.5118 34.9834 34.8115 36.8575L33.7937 37.9993L33.3097 37.2298Z" fill="#FF9800"/>
<path d="M25.3419 35.8149C24.6345 34.8841 24.0015 34.0526 23.9395 33.9657C23.8526 33.854 24.2249 33.2707 25.1806 31.9923C25.9252 30.9994 26.5954 30.1803 26.6699 30.1803C26.8188 30.1803 29.45 33.643 29.45 33.8416C29.45 33.9036 28.9411 34.6111 28.3206 35.393C27.7124 36.1749 27.1043 36.9692 26.9926 37.1677C26.8809 37.3539 26.7568 37.5028 26.7071 37.5028C26.6699 37.5028 26.0494 36.7458 25.3419 35.8149Z" fill="#FF9800"/>
<path d="M13.6879 36.3113C13.6879 36.0631 13.5638 35.6411 13.4149 35.3805C13.179 34.9585 13.1666 34.8592 13.3156 34.5861C13.4397 34.3503 13.4521 34.2138 13.3404 33.9656C13.0177 33.2706 13.2039 33.2706 13.9982 33.9904C14.4326 34.3876 14.7925 34.7847 14.8049 34.884C14.8049 35.1198 13.9237 36.7581 13.7996 36.7581C13.7375 36.7581 13.6879 36.5595 13.6879 36.3113Z" fill="#FF9800"/>
<path d="M38.5598 35.0826C38.4977 34.9337 38.7087 34.6358 39.2672 34.0773C39.6892 33.643 40.0739 33.3203 40.1112 33.3451C40.1981 33.4444 39.7016 34.2759 39.5527 34.2759C39.3789 34.2759 38.8825 34.8096 38.8825 34.9958C38.8825 35.2316 38.6343 35.2936 38.5598 35.0826Z" fill="#FF9800"/>
<path d="M14.2592 32.4763C13.5766 31.831 13.0801 31.2601 13.1174 31.1856C13.167 31.1111 13.1174 30.8629 12.9932 30.6147C12.8319 30.2672 12.8195 30.1058 12.9312 29.7955C13.0801 29.3612 14.6563 26.73 14.8301 26.6307C14.9542 26.5562 15.5127 27.0403 17.1137 28.5917L18.1314 29.5721L17.1385 31.1484C16.5925 32.0171 16.034 32.9356 15.885 33.1962C15.7485 33.4444 15.5996 33.6554 15.5623 33.6554C15.5251 33.643 14.9418 33.1217 14.2592 32.4763Z" fill="#FF9800"/>
<path d="M37.6041 33.3823C36.1396 31.0614 35.2832 29.6466 35.2832 29.5597C35.2832 29.4976 35.8913 28.8895 36.6236 28.2069C37.9516 26.9658 38.4853 26.519 38.5597 26.5935C38.5846 26.6183 39.1555 27.5491 39.8257 28.6661L41.042 30.6891L40.7317 30.9746C40.5703 31.1235 39.8381 31.7937 39.1058 32.4639C37.7902 33.6678 37.7778 33.6678 37.6041 33.3823Z" fill="#FF9800"/>
<path d="M22.3014 32.0792C21.9663 31.682 21.2837 30.9249 20.7749 30.4037L19.8564 29.4356L20.204 28.9019C20.3901 28.6165 21.0231 27.7477 21.6064 26.9782L22.6614 25.5634L23.2695 26.1715C23.9397 26.8293 25.64 28.7654 25.7021 28.9516C25.7393 29.0385 23.4681 32.1785 23.0089 32.6997C22.9592 32.7494 22.6489 32.4639 22.3014 32.0792ZM23.9273 30.5278C24.461 29.8204 24.9078 29.1626 24.9078 29.0509C24.9202 28.8275 22.9344 26.5811 22.7358 26.5811C22.5993 26.5811 20.6259 29.2122 20.6756 29.3239C20.7252 29.4728 22.8103 31.7937 22.8848 31.7937C22.922 31.7937 23.3936 31.2228 23.9273 30.5278Z" fill="#FF9800"/>
<path d="M29.0159 30.9497C28.2712 29.9444 27.6383 29.0756 27.6258 29.0012C27.5886 28.8522 30.4556 25.6626 30.6293 25.6626C30.7534 25.6626 33.0247 28.604 33.2977 29.1253C33.4467 29.3983 33.3474 29.5224 31.9325 31.0987C31.0885 32.0295 30.3935 32.7866 30.3935 32.7866C30.3811 32.7866 29.773 31.955 29.0159 30.9497Z" fill="#FF9800"/>
<path d="M41.7372 29.3363C41.6627 29.2246 41.1415 28.3434 40.5582 27.4002L39.5156 25.6626L40.5954 24.8186C41.1911 24.3594 41.973 23.7637 42.3454 23.5155L43.0031 23.0563L43.2141 23.3293C43.3258 23.4783 43.6113 23.9623 43.8471 24.3967L44.2691 25.191L43.7975 26.2335C43.5368 26.792 43.2514 27.4374 43.1769 27.636C43.1024 27.847 42.8542 28.2813 42.6432 28.604C42.4198 28.9267 42.2337 29.2494 42.2337 29.2991C42.2337 29.5225 41.8613 29.5473 41.7372 29.3363Z" fill="#FF9800"/>
<path d="M18.0941 27.7228C17.6845 27.3257 16.9398 26.6555 16.4558 26.2087L15.5498 25.402L16.8654 23.5651C17.5852 22.5474 18.2554 21.691 18.3547 21.6538C18.5409 21.5918 18.9877 21.9641 20.7873 23.6892L21.7429 24.6076L20.4274 26.37C19.7075 27.3381 19.0621 28.1945 18.9877 28.2813C18.876 28.393 18.665 28.2689 18.0941 27.7228ZM19.8813 26.159C20.4398 25.4268 20.8866 24.769 20.8866 24.7193C20.8866 24.6201 19.4965 23.2424 18.8263 22.6839L18.4416 22.3612L17.4115 23.7885C16.853 24.5704 16.4186 25.2654 16.4434 25.3275C16.4806 25.4516 18.8139 27.5739 18.8512 27.5367C18.8636 27.5243 19.3352 26.9037 19.8813 26.159Z" fill="#FF9800"/>
<path d="M33.0741 26.5686C32.3046 25.5509 31.6841 24.6697 31.6841 24.6201C31.6841 24.4091 34.7248 21.6166 34.9482 21.6166C35.0723 21.6166 37.3311 24.6697 37.6911 25.3027C37.7407 25.402 37.5918 25.6254 37.3063 25.8612C37.0581 26.0846 36.301 26.7548 35.6432 27.3505L34.4518 28.4303L33.0741 26.5686Z" fill="#FF9800"/>
<path d="M25.5652 26.7424C24.9819 26.0722 24.3117 25.3276 24.0635 25.1042C23.8153 24.8683 23.6167 24.6077 23.6167 24.5457C23.6167 24.3967 24.3365 23.5404 25.7638 21.9517C26.7815 20.8099 26.4961 20.6982 28.4694 22.957L29.8222 24.496L28.246 26.2212C27.3897 27.1644 26.6698 27.9463 26.6574 27.9463C26.645 27.9463 26.161 27.4002 25.5652 26.7424Z" fill="#FF9800"/>
<path d="M12.6949 26.8293C12.6204 26.6928 12.1612 26.246 11.6648 25.824C10.5974 24.9056 9.87757 23.7389 10.1258 23.3418C10.2003 23.2177 10.3244 23.106 10.3864 23.106C10.5105 23.106 13.8119 25.5634 13.8119 25.6626C13.8119 25.7619 12.9555 27.0775 12.8811 27.0775C12.8562 27.0775 12.7694 26.9658 12.6949 26.8293ZM13.0672 25.6999C13.0672 25.613 10.9077 23.9747 10.7836 23.9747C10.5726 23.9747 11.1931 24.7566 11.8261 25.3027C12.1984 25.6254 12.5584 25.9605 12.608 26.0598C12.6949 26.1963 12.7445 26.1839 12.8935 25.9977C12.9803 25.8736 13.0672 25.7371 13.0672 25.6999Z" fill="#FF9800"/>
<path d="M13.6879 23.9622C13.2411 23.6147 12.4716 23.0438 11.9876 22.6963C11.4911 22.3488 11.0815 22.0137 11.0815 21.9392C11.0815 21.7407 13.601 18.0173 13.7375 18.0173C13.9733 18.0173 17.2623 20.4747 17.2747 20.6609C17.2871 20.7478 15.7233 22.9694 14.7056 24.3222L14.4946 24.5952L13.6879 23.9622ZM15.5371 22.2619C16.0956 21.48 16.5052 20.7974 16.468 20.723C16.319 20.4871 13.9113 18.762 13.812 18.8241C13.6879 18.8985 11.9751 21.4056 11.8759 21.6538C11.8386 21.7655 12.2358 22.1502 13.0921 22.7832C13.7872 23.3045 14.3953 23.714 14.4449 23.7016C14.4946 23.6768 14.9786 23.0314 15.5371 22.2619Z" fill="#FF9800"/>
<path d="M37.4181 22.6343L36.0156 20.6857L36.4872 20.2762C37.1574 19.6804 39.4535 18.0173 39.6024 18.0173C39.6893 18.0173 41.8364 21.0705 42.2708 21.8151C42.3329 21.9268 40.0368 23.7761 38.9446 24.4959C38.8702 24.5456 38.2 23.7264 37.4181 22.6343Z" fill="#FF9800"/>
<path d="M44.9019 23.6397C44.7158 23.3046 44.4551 22.8702 44.3186 22.6468L44.0952 22.262L44.7282 21.8649C45.0757 21.6539 45.448 21.505 45.5473 21.5422C45.6466 21.5794 45.8204 21.567 45.9321 21.505C46.081 21.4305 46.2299 21.4553 46.3913 21.567C46.5278 21.6663 46.8381 21.8028 47.0987 21.8649C47.7193 22.0386 48.2405 22.4979 48.4019 23.0315C48.5384 23.4783 48.5384 23.4783 48.0916 23.6024C47.198 23.8383 45.5225 24.223 45.3736 24.223C45.2991 24.223 45.0881 23.9624 44.9019 23.6397Z" fill="#FF9800"/>
<path d="M20.9484 22.1006C20.0672 21.2815 19.3102 20.5617 19.2977 20.4872C19.2729 20.4251 19.7818 19.7425 20.4396 18.973C21.991 17.161 22.2268 16.9004 22.3261 16.9004C22.4253 16.9004 23.0459 17.4465 24.5849 18.911L25.7515 20.0032L25.2675 20.5368C23.1204 22.9942 22.5867 23.6024 22.5743 23.59C22.5619 23.59 21.842 22.9198 20.9484 22.1006Z" fill="#FF9800"/>
<path d="M30.2444 23.0066C29.9837 22.684 29.2763 21.8772 28.6806 21.2195L27.5884 20.028L29.2266 18.4642C30.1327 17.6078 30.9394 16.9004 31.0138 16.9004C31.138 16.9004 34.1787 20.3631 34.1538 20.4996C34.1538 20.5368 33.8808 20.7851 33.5581 21.0581C33.223 21.3312 32.4535 22.0138 31.8454 22.5723L30.7284 23.59L30.2444 23.0066ZM32.0067 21.5297C32.6521 20.934 33.1734 20.4127 33.1734 20.3755C33.1734 20.3259 32.6893 19.7301 32.106 19.0351L31.0387 17.7692L30.5919 18.1291C30.3312 18.3277 29.7727 18.8613 29.3383 19.2957L28.5564 20.1025L29.6486 21.356C30.2568 22.0386 30.7656 22.6095 30.7904 22.6095C30.8153 22.6095 31.3614 22.1255 32.0067 21.5297Z" fill="#FF9800"/>
<path d="M42.4072 19.6556C41.8239 18.7868 41.3026 17.9925 41.2654 17.8932C41.2282 17.7939 41.4764 17.9677 41.8239 18.2779C42.4569 18.8737 43.0774 19.2584 43.3753 19.2584C43.4746 19.2584 43.6111 19.4446 43.698 19.6804C43.7849 19.9038 43.9586 20.1892 44.0951 20.3134C44.4302 20.6112 44.4178 20.6857 43.909 20.9836L43.4746 21.2318L42.4072 19.6556Z" fill="#FF9800"/>
<path d="M10.3125 20.1893C10.3374 20.0155 10.4739 19.817 10.598 19.7425C10.7966 19.6432 10.8338 19.4819 10.8338 18.7993C10.8338 18.34 10.9083 17.7815 10.9827 17.5457C11.1193 17.1734 11.1068 17.0617 10.809 16.5156C10.6352 16.1805 10.5111 15.9075 10.5359 15.9075C10.6352 15.9075 12.4472 17.0493 12.5093 17.161C12.5589 17.223 12.199 17.8188 11.7398 18.489C11.2682 19.1468 10.7717 19.879 10.6476 20.1024C10.3622 20.574 10.2257 20.6113 10.3125 20.1893ZM11.7026 17.1982C11.504 16.9624 11.3799 16.9748 11.3675 17.2479C11.3675 17.3596 11.3178 17.6574 11.2682 17.8932L11.1813 18.3276L11.5164 17.856C11.777 17.4713 11.8143 17.3472 11.7026 17.1982Z" fill="#FF9800"/>
<path d="M17.2871 18.9978C16.8403 18.6503 16.046 18.067 15.5247 17.6823C14.991 17.3099 14.5566 16.9624 14.5566 16.9004C14.5566 16.8011 16.3562 14.505 17.1381 13.6238C17.5477 13.1522 17.5477 13.1522 17.8828 13.3756C18.4165 13.7107 21.1221 15.7958 21.1966 15.9199C21.2338 15.9695 20.7374 16.6273 20.092 17.372C19.4342 18.1042 18.7516 18.911 18.5654 19.1716C18.3793 19.4198 18.1931 19.6184 18.1559 19.6308C18.1186 19.6308 17.7339 19.3453 17.2871 18.9978ZM18.6027 18.1787C18.8757 17.856 19.3846 17.2603 19.7321 16.8631C20.092 16.4536 20.3526 16.0812 20.3278 16.0192C20.2161 15.8578 17.7835 14.0458 17.6718 14.0458C17.5229 14.0458 15.4006 16.6645 15.4502 16.7887C15.4875 16.9004 17.9325 18.7496 18.0442 18.7496C18.0938 18.762 18.342 18.5014 18.6027 18.1787Z" fill="#FF9800"/>
<path d="M34.2781 18.551C33.7693 17.9553 33.0619 17.1237 32.7019 16.7141L32.0317 15.9819L32.3917 15.684C33.1487 15.0635 35.5317 13.2887 35.693 13.239C35.8544 13.1646 36.0529 13.388 37.8153 15.5723L38.8951 16.9251L38.3614 17.3099C38.0635 17.5209 37.294 18.0918 36.6487 18.5758C36.0033 19.0598 35.4076 19.4942 35.3331 19.5439C35.2462 19.5935 34.8242 19.1964 34.2781 18.551Z" fill="#FF9800"/>
<path d="M25.6028 18.1043C25.0939 17.6078 24.3368 16.9128 23.9273 16.5529L23.1826 15.8951L24.8829 14.2196C26.1737 12.9661 26.6453 12.5689 26.7818 12.6434C27.0301 12.7923 30.0708 15.7834 30.0708 15.8827C30.0708 16.0068 26.757 19.0103 26.6329 19.0103C26.5833 19.0103 26.1116 18.6007 25.6028 18.1043ZM28.1222 14.7533C27.5265 14.1576 26.9432 13.5991 26.8191 13.537C26.6577 13.4501 26.3599 13.6735 25.3546 14.6292L24.101 15.8206L25.3794 17.0245L26.6577 18.2284L27.9361 17.0493L29.2144 15.8579L28.1222 14.7533Z" fill="#FF9800"/>
<path d="M11.5163 15.0884C10.2628 14.3313 9.75395 13.959 9.7043 13.748C9.62983 13.4998 9.816 13.2019 10.7096 12.1097C11.3053 11.3651 11.9631 10.5708 12.1493 10.3474L12.5092 9.9502L14.3709 11.0796C15.401 11.6877 16.2822 12.2462 16.3442 12.3083C16.3939 12.3579 16.034 12.904 15.5251 13.5122C15.0287 14.1079 14.3461 14.9519 14.0234 15.3863C13.6883 15.8082 13.3904 16.1557 13.3408 16.1433C13.2911 16.1433 12.472 15.6717 11.5163 15.0884ZM14.4702 13.8969L15.5499 12.5689L15.2024 12.3331C14.2716 11.6877 12.683 10.8066 12.5713 10.881C12.5092 10.9183 12.0004 11.514 11.4543 12.1966C10.6848 13.1274 10.4738 13.4749 10.5607 13.6239C10.6972 13.8845 13.2291 15.4111 13.3283 15.2994C13.378 15.2621 13.8868 14.6292 14.4702 13.8969Z" fill="#FF9800"/>
<path d="M20.2661 13.599L18.3672 12.1718L20.1172 10.4218L21.8547 8.65942L22.8352 9.39168C24.1011 10.3473 25.6029 11.576 25.6029 11.6753C25.6029 11.7126 24.8334 12.482 23.8901 13.3881L22.1774 15.0139L20.2661 13.599ZM23.4806 12.9413L24.7713 11.7126L23.4185 10.6452C22.6862 10.0619 22.016 9.57784 21.9416 9.57784C21.6934 9.57784 19.3353 12.0477 19.4594 12.1718C19.6704 12.3828 22.0657 14.1575 22.1277 14.1575C22.165 14.1575 22.7731 13.6115 23.4806 12.9413Z" fill="#FF9800"/>
<path d="M29.3882 13.3384L27.6631 11.6505L28.023 11.3526C28.234 11.1789 28.8918 10.6576 29.4875 10.186C30.5052 9.3917 30.6045 9.34205 30.8403 9.51581C30.9893 9.6151 31.2375 9.66474 31.4361 9.62751C31.6967 9.56545 31.8332 9.63992 32.0938 9.95019C32.28 10.1612 32.4289 10.397 32.4289 10.459C32.4289 10.5211 32.5034 10.5707 32.6027 10.5707C32.6896 10.5707 32.8385 10.6576 32.9254 10.7569C33.0123 10.8562 33.1736 10.9431 33.2853 10.9431C33.397 10.9431 33.5584 11.0548 33.6452 11.1913C33.7197 11.3278 34.0176 11.576 34.2906 11.7498C34.5637 11.9236 34.7871 12.1345 34.7871 12.2214C34.7746 12.2959 34.3775 12.6558 33.8935 12.9909C33.4094 13.3384 32.6027 13.9342 32.1063 14.3313C31.5974 14.7161 31.1754 15.0387 31.163 15.0387C31.1382 15.0263 30.3439 14.2693 29.3882 13.3384Z" fill="#FF9800"/>
<path d="M8.43815 11.4767C8.26439 11.0796 8.09064 10.4342 8.04099 10.0494C7.95412 9.41647 7.99135 9.27994 8.28922 8.74627C8.48779 8.42358 8.64914 8.12571 8.67396 8.1133C8.73602 8.03883 11.2058 9.24271 11.2058 9.342C11.2058 9.47852 8.947 12.1841 8.8353 12.1841C8.79807 12.1841 8.6119 11.8615 8.43815 11.4767ZM9.69167 9.18065C9.33175 8.99449 9.00906 8.84555 8.97183 8.83314C8.93459 8.83314 8.81048 8.99449 8.68637 9.19307C8.5002 9.50334 8.48779 9.65228 8.59949 10.1487C8.86013 11.2905 8.89736 11.303 9.66685 10.3597L10.3495 9.52816L9.69167 9.18065Z" fill="#FF9800"/>
<path d="M15.3266 10.2728C14.2716 9.62744 13.4277 9.06894 13.4401 9.00689C13.4773 8.83313 15.7734 6.38815 16.3567 5.91653L16.8904 5.46973L17.8088 6.01581C18.3052 6.31368 19.174 6.84736 19.7325 7.21969L20.7502 7.88989L19.0623 9.62744C18.1315 10.5955 17.3372 11.3898 17.2999 11.4022C17.2627 11.4146 16.3691 10.9058 15.3266 10.2728ZM18.4542 9.34199C19.1244 8.67179 19.6456 8.06365 19.6084 8.00159C19.5091 7.85266 17.1138 6.35091 16.9648 6.35091C16.9028 6.35091 16.2822 6.92182 15.5872 7.61685L14.3213 8.88278L15.7113 9.71432C16.4808 10.1859 17.1262 10.5583 17.1634 10.5707C17.2006 10.5707 17.784 10.0122 18.4542 9.34199Z" fill="#FF9800"/>
<path d="M25.7018 10.0371C25.1805 9.61509 24.3366 8.9573 23.8153 8.58497C23.3065 8.21264 22.8721 7.86513 22.8721 7.81548C22.8721 7.65414 25.0068 5.91659 25.2054 5.90417C25.3295 5.90417 25.528 5.99105 25.6646 6.10275C26.1362 6.49991 27.7 7.35627 28.0227 7.40592C28.3578 7.45556 29.5492 8.08853 29.6113 8.26228C29.6609 8.38639 29.2638 8.77114 28.3081 9.54063C27.5386 10.1364 26.856 10.67 26.7816 10.7197C26.7071 10.7693 26.2231 10.459 25.7018 10.0371ZM27.7372 9.19312C28.2709 8.77114 28.6681 8.38639 28.6432 8.33675C28.606 8.27469 28.3205 8.11335 27.9854 7.96442C26.7567 7.39351 25.6025 6.78536 25.6025 6.69848C25.6025 6.42544 24.9695 6.67366 24.4235 7.17011L23.8029 7.72861L24.2249 8.06371C24.4607 8.24987 25.0812 8.74632 25.5901 9.16829C26.1114 9.59027 26.5954 9.93778 26.6575 9.93778C26.7319 9.93778 27.216 9.60268 27.7372 9.19312Z" fill="#FF9800"/>
<path d="M10.6226 7.70374C9.91515 7.36864 9.34424 7.04595 9.34424 6.98389C9.34424 6.92184 9.4187 6.81014 9.51799 6.73567C9.62969 6.63638 9.66693 6.40057 9.6421 6.00342C9.60487 5.48215 9.65452 5.35804 9.9772 5.01053C10.3247 4.6382 10.3868 4.61337 10.9949 4.68784C11.4045 4.73749 11.9506 4.68784 12.4718 4.56373C12.931 4.45203 13.4771 4.40239 13.6757 4.43962C13.8619 4.47685 14.1473 4.45203 14.2963 4.37756C14.5073 4.26586 14.6562 4.27827 15.0533 4.48926C15.3264 4.62579 15.5498 4.78713 15.5498 4.83677C15.5498 4.98571 12.1491 8.3367 12.0126 8.32429C11.9382 8.32429 11.3176 8.03884 10.6226 7.70374ZM13.1048 6.45022C14.1225 5.39527 14.197 5.29598 13.986 5.14705C13.8619 5.06017 13.6757 5.01053 13.564 5.06017C13.3654 5.14705 12.5215 5.23393 11.4914 5.27116C10.6722 5.3084 10.3619 5.56903 10.4364 6.15235C10.4612 6.40057 10.424 6.61156 10.3247 6.66121C10.2254 6.72326 10.4488 6.89702 10.9701 7.17006C11.4045 7.39346 11.814 7.57963 11.8885 7.59204C11.9506 7.59204 12.5091 7.08318 13.1048 6.45022Z" fill="#FF9800"/>
<path d="M21.0725 6.63641C20.7374 6.41301 19.8811 5.86692 19.1861 5.44494C18.4786 5.02296 17.9077 4.62581 17.9077 4.55134C17.9077 4.48929 18.0566 4.32794 18.2304 4.19142C18.5159 3.99284 18.7144 3.96802 20.1293 4.03008C21.8669 4.11695 22.8473 4.37759 23.4679 4.93609L23.803 5.23395L23.3065 5.68075C23.0335 5.92897 22.5619 6.33854 22.2516 6.59917L21.6931 7.05838L21.0725 6.63641ZM22.264 5.76763L22.7605 5.30842L22.3137 5.03538C21.9041 4.78715 21.4573 4.67545 20.3899 4.53893C20.2162 4.51411 19.819 4.46447 19.4963 4.41482C19.1612 4.36518 18.9006 4.37759 18.9006 4.43964C18.913 4.55134 21.4697 6.20202 21.6559 6.21443C21.7179 6.22684 21.9786 6.01585 22.264 5.76763Z" fill="#FF9800"/>
</svg>
