<svg width="136" height="136" viewBox="0 0 136 136" fill="none" xmlns="http://www.w3.org/2000/svg">
<path d="M0 8C0 3.58172 3.58172 0 8 0H128C132.418 0 136 3.58172 136 8V136H0V8Z" fill="#FF9800"/>
<path d="M71.8471 105.157C71.6184 104.661 70.6463 104.09 70.208 104.185C70.0555 104.242 69.8077 104.128 69.6743 103.975C69.5218 103.804 69.2931 103.67 69.1406 103.67C68.6832 103.67 67.978 103.099 67.5586 102.393L67.1584 101.707L67.6158 100.811C67.8827 100.316 68.7403 98.8672 69.5599 97.5712L71.0466 95.2458L71.504 95.9701C71.7327 96.3894 72.5523 97.9142 73.3147 99.4009L74.687 102.069L73.6197 103.785C73.0479 104.719 72.457 105.5 72.3045 105.538C72.1521 105.557 71.9424 105.405 71.8471 105.157Z" fill="white"/>
<path d="M77.2791 102.927C77.1838 102.717 77.0885 102.451 77.0885 102.336C77.0885 101.898 80.1762 97.7237 80.3668 97.9143C80.5955 98.143 79.5853 100.621 79.2613 100.621C79.1279 100.621 78.9754 100.964 78.8992 101.402C78.8039 101.955 78.6323 102.222 78.3083 102.374C78.0605 102.489 77.8509 102.736 77.8509 102.946C77.8509 103.404 77.5269 103.384 77.2791 102.927Z" fill="white"/>
<path d="M54.1596 97.7045C53.2447 96.4275 52.3108 95.1505 52.0821 94.8646L51.6818 94.369L53.1304 91.6053C53.9309 90.0996 54.7314 88.5938 54.9411 88.2508L55.3032 87.6599L55.6844 88.0983C56.3134 88.7654 59.5536 93.2254 59.5536 93.3969C59.5536 93.4732 59.3058 93.9687 59.0199 94.4643C58.7149 94.9599 57.9335 96.4275 57.2473 97.7045C56.5802 99.0005 55.9894 100.049 55.9322 100.049C55.875 100.049 55.0745 98.9815 54.1596 97.7045Z" fill="white"/>
<path d="M75.2016 98.7719C74.8585 98.0476 74.058 96.5419 73.4481 95.4174L72.3045 93.3589L73.9627 91.0908C74.8776 89.8328 75.8496 88.5367 76.1355 88.1937L76.6501 87.5837L77.6031 89.3563C78.6514 91.3004 78.6895 91.7007 77.8128 92.1581C77.3363 92.4059 77.2791 92.5203 77.3363 93.1302C77.3935 93.6257 77.5459 93.8735 77.889 94.0641C79.0136 94.655 78.7658 96.3322 77.2029 98.4669C76.5739 99.3437 76.0021 100.049 75.9449 100.049C75.8877 100.049 75.5447 99.4771 75.2016 98.7719Z" fill="white"/>
<path d="M50.7098 99.1722C50.8051 98.8291 50.7289 98.5813 50.443 98.2764C50.0808 97.8952 50.0808 97.7999 50.3095 97.2471C50.462 96.9041 50.6526 96.6182 50.7289 96.6182C50.9385 96.6182 52.8826 99.2103 52.8826 99.4771C52.8826 99.5915 52.3871 99.6677 51.739 99.6677C50.5954 99.6677 50.5954 99.6677 50.7098 99.1722Z" fill="white"/>
<path d="M58.6003 99.4771C58.6003 99.134 60.6778 95.5698 60.8684 95.5698C61.0018 95.5698 61.5165 96.2179 62.012 96.9993C63.0603 98.6194 63.0412 98.6766 61.3449 98.6956C60.735 98.7147 60.0488 98.8862 59.4961 99.1721C59.0006 99.4199 58.6003 99.5533 58.6003 99.4771Z" fill="white"/>
<path d="M65.3668 98.6006C65.0809 98.086 64.1851 96.6756 63.4036 95.4748L61.9741 93.2829L62.4125 92.5205C62.6603 92.1012 63.537 90.6908 64.3757 89.3947L65.9195 87.0312L66.2626 87.4696C66.72 88.0414 69.4075 92.2918 69.6743 92.8826C69.8649 93.302 69.7315 93.6069 68.1686 96.0847C65.6908 99.992 66.0148 99.7061 65.3668 98.6006Z" fill="white"/>
<path d="M58.5624 88.5367C57.4188 87.031 56.504 85.7349 56.504 85.6396C56.504 85.449 60.1063 79.6929 60.3159 79.5595C60.4494 79.4833 62.87 82.5329 64.2995 84.5723L64.7378 85.2012L63.2321 87.5265C62.3935 88.8036 61.5167 90.1759 61.288 90.5761C61.0402 90.9573 60.7924 91.2813 60.7353 91.2813C60.659 91.2813 59.687 90.0424 58.5624 88.5367Z" fill="white"/>
<path d="M70.7226 90.6714C70.5129 90.3283 69.6362 88.9369 68.7594 87.6027L67.1774 85.144L69.3121 82.285L71.4468 79.426L71.8852 79.9788C72.2283 80.4171 73.8865 82.9712 75.2969 85.2965C75.5257 85.6777 75.4304 85.8492 74.2868 87.2978C73.6006 88.1745 72.6476 89.4325 72.1902 90.0805C71.7137 90.7476 71.2753 91.2813 71.1991 91.2813C71.1228 91.2813 70.9132 90.9954 70.7226 90.6714Z" fill="white"/>
<path d="M50.3664 89.8137C49.9852 89.7756 49.5659 89.604 49.4516 89.4515C49.3181 89.2991 48.9751 89.1847 48.6701 89.1847C47.9458 89.1847 47.5265 88.7273 47.6599 88.0792C47.7362 87.698 47.6599 87.4503 47.374 87.2025C47.1644 87.0119 46.9356 86.5735 46.8594 86.2304C46.7451 85.5633 46.8403 85.3155 48.4414 82.3613L49.2991 80.7793L49.8709 81.313C50.9001 82.285 53.8353 85.7539 53.8353 86.0017C53.8353 86.1161 53.3779 87.05 52.8252 88.0411C51.7769 89.9471 51.7578 89.9662 50.3664 89.8137ZM52.0818 87.4312C52.9776 85.8302 53.0729 86.097 50.8239 83.6573L49.5087 82.2469L48.632 83.9432C47.679 85.773 47.5456 86.4401 48.0411 86.8022C48.2127 86.9166 48.3651 87.2597 48.3651 87.5456C48.3651 87.9839 48.4986 88.1364 49.1466 88.4223C49.5659 88.6129 50.2521 88.7844 50.6333 88.7844C51.3004 88.8035 51.3575 88.7463 52.0818 87.4312Z" fill="white"/>
<path d="M78.4417 86.8023C78.232 86.4211 78.0414 86.0399 78.0414 85.9637C78.0414 85.8874 78.4226 85.3728 78.8991 84.8201C79.5853 84.0196 79.7759 83.8861 79.8712 84.1339C79.9474 84.3245 79.8902 84.5342 79.7377 84.6295C79.5471 84.7438 79.6615 84.801 80.0999 84.801C80.6526 84.801 80.9385 85.0488 80.5764 85.2203C80.3477 85.3156 79.3756 86.6498 79.3756 86.8595C79.3756 86.9548 79.2612 87.1454 79.1088 87.2597C78.8991 87.4313 78.7657 87.336 78.4417 86.8023Z" fill="white"/>
<path d="M52.7109 81.4466L50.3856 78.8735L50.8049 78.1683C51.0527 77.7871 51.9294 76.3576 52.749 75.0044L54.2738 72.5457L55.7224 74.0514C56.5229 74.871 57.5902 76.0527 58.1048 76.6435L59.0197 77.749L57.0756 80.8367C55.9892 82.5521 55.0934 83.9625 55.0743 83.9816C55.0743 84.0197 54.007 82.8761 52.7109 81.4466Z" fill="white"/>
<path d="M76.1545 82.857C75.7351 82.1899 74.8393 80.7795 74.1341 79.6931L72.8571 77.749L74.7631 75.5952C75.8114 74.4326 76.8787 73.2509 77.1456 73.0031L77.6411 72.5647L78.537 73.9561C79.814 75.9574 81.4722 78.702 81.4722 78.8163C81.4722 78.9307 81.0719 79.4072 78.4607 82.2852L76.8978 84.0387L76.1545 82.857Z" fill="white"/>
<path d="M63.9183 80.684C62.8318 79.2545 61.8598 77.9775 61.7645 77.844C61.6311 77.6725 62.2029 76.7767 63.6705 74.8135C64.8141 73.2887 65.8433 72.0308 65.9577 72.0308C66.1864 72.0308 70.2271 77.3485 70.2271 77.6534C70.2271 77.7487 69.4456 78.8351 68.4926 80.0359C67.5587 81.2367 66.6248 82.4565 66.4532 82.7615C66.2817 83.0474 66.0911 83.2761 66.0148 83.2761C65.9577 83.2761 65.0047 82.1135 63.9183 80.684Z" fill="white"/>
<path d="M46.021 81.4465C46.021 81.0653 45.8304 80.4172 45.6017 80.017C45.2396 79.3689 45.2205 79.2165 45.4492 78.7971C45.6398 78.435 45.6589 78.2254 45.4873 77.8442C44.9918 76.7768 45.2777 76.7768 46.4975 77.8823C47.1646 78.4922 47.7173 79.1021 47.7364 79.2546C47.7364 79.6167 46.3831 82.1326 46.1925 82.1326C46.0972 82.1326 46.021 81.8277 46.021 81.4465Z" fill="white"/>
<path d="M84.2169 79.5594C84.1216 79.3306 84.4456 78.8732 85.3033 78.0155C85.9513 77.3484 86.5422 76.8529 86.5994 76.891C86.7328 77.0435 85.9704 78.3205 85.7417 78.3205C85.4748 78.3205 84.7124 79.14 84.7124 79.4259C84.7124 79.7881 84.3312 79.8834 84.2169 79.5594Z" fill="white"/>
<path d="M46.8978 75.557C45.8495 74.5659 45.0871 73.6892 45.1443 73.5748C45.2205 73.4604 45.1443 73.0792 44.9537 72.698C44.7059 72.1644 44.6868 71.9166 44.8584 71.4401C45.0871 70.773 47.5077 66.7323 47.7745 66.5798C47.9651 66.4655 48.8228 67.2088 51.2815 69.5913L52.8445 71.097L51.3197 73.5176C50.481 74.8518 49.6233 76.2622 49.3946 76.6625C49.185 77.0437 48.9562 77.3677 48.8991 77.3677C48.8419 77.3487 47.9461 76.5481 46.8978 75.557Z" fill="white"/>
<path d="M82.7493 76.9481C80.5003 73.3839 79.1851 71.2111 79.1851 71.0777C79.1851 70.9824 80.1191 70.0484 81.2436 69.0001C83.283 67.0942 84.1026 66.408 84.2169 66.5224C84.2551 66.5605 85.1318 67.99 86.1611 69.7054L88.0289 72.8121L87.5524 73.2505C87.3046 73.4792 86.1801 74.5085 85.0556 75.5377C83.0352 77.3865 83.0162 77.3865 82.7493 76.9481Z" fill="white"/>
<path d="M59.2485 74.9471C58.7338 74.3372 57.6855 73.1745 56.9041 72.374L55.4937 70.8874L56.0273 70.0678C56.3132 69.6294 57.2853 68.2952 58.1811 67.1135L59.8012 64.9407L60.7351 65.8746C61.7644 66.8848 64.3756 69.8581 64.4709 70.144C64.528 70.2774 61.0401 75.0996 60.3349 75.9001C60.2586 75.9763 59.7821 75.538 59.2485 74.9471ZM61.7453 72.5646C62.5649 71.4782 63.251 70.468 63.251 70.2965C63.2701 69.9534 60.2205 66.5036 59.9155 66.5036C59.7059 66.5036 56.6754 70.5443 56.7516 70.7158C56.8278 70.9445 60.0299 74.5087 60.1443 74.5087C60.2014 74.5087 60.9257 73.632 61.7453 72.5646Z" fill="white"/>
<path d="M69.56 73.2125C68.4164 71.6687 67.4444 70.3345 67.4253 70.2201C67.3681 69.9914 71.771 65.093 72.0378 65.093C72.2284 65.093 75.7164 69.6102 76.1357 70.4107C76.3644 70.83 76.2119 71.0206 74.0391 73.4413C72.743 74.8707 71.6757 76.0334 71.6757 76.0334C71.6566 76.0334 70.7227 74.7564 69.56 73.2125Z" fill="white"/>
<path d="M89.0964 70.7349C88.9821 70.5633 88.1816 69.2101 87.2857 67.7615L85.6847 65.0932L87.3429 63.7971C88.2578 63.0919 89.4586 62.177 90.0304 61.7958L91.0406 61.0906L91.3646 61.5099C91.5361 61.7386 91.9745 62.4819 92.3366 63.149L92.9847 64.3689L92.2604 65.9699C91.8601 66.8276 91.4218 67.8187 91.3074 68.1237C91.193 68.4477 90.8118 69.1148 90.4878 69.6103C90.1447 70.1059 89.8588 70.6015 89.8588 70.6777C89.8588 71.0208 89.287 71.0589 89.0964 70.7349Z" fill="white"/>
<path d="M52.7874 68.257C52.1584 67.6471 51.0148 66.6179 50.2715 65.9317L48.8801 64.6928L50.9004 61.872C52.0059 60.3091 53.0351 58.9939 53.1876 58.9367C53.4735 58.8414 54.1597 59.4132 56.9234 62.0626L58.391 63.473L56.3706 66.1795C55.2651 67.6662 54.274 68.9813 54.1597 69.1147C53.9881 69.2863 53.6641 69.0957 52.7874 68.257ZM55.532 65.8555C56.3897 64.731 57.0758 63.7208 57.0758 63.6445C57.0758 63.4921 54.9411 61.3764 53.9119 60.5187L53.321 60.0232L51.7391 62.2151C50.8814 63.4158 50.2143 64.4832 50.2524 64.5785C50.3096 64.7691 53.8928 68.0283 53.95 67.9711C53.9691 67.9521 54.6933 66.9991 55.532 65.8555Z" fill="white"/>
<path d="M75.7926 66.4843C74.6109 64.9214 73.6579 63.5681 73.6579 63.4919C73.6579 63.1679 78.3276 58.8794 78.6707 58.8794C78.8613 58.8794 82.3302 63.5681 82.8829 64.5402C82.9592 64.6927 82.7304 65.0357 82.2921 65.3979C81.9109 65.741 80.7482 66.7702 79.738 67.6851L77.9083 69.3433L75.7926 66.4843Z" fill="white"/>
<path d="M64.261 66.7514C63.3652 65.7221 62.336 64.5785 61.9548 64.2354C61.5736 63.8733 61.2686 63.4731 61.2686 63.3778C61.2686 63.149 62.3741 61.8339 64.566 59.3942C66.1289 57.6407 65.6905 57.4692 68.721 60.9381L70.7986 63.3015L68.378 65.9508C67.0628 67.3994 65.9574 68.6002 65.9383 68.6002C65.9192 68.6002 65.1759 67.7615 64.261 66.7514Z" fill="white"/>
<path d="M44.496 66.8847C44.3817 66.6751 43.6764 65.9889 42.9141 65.3409C41.2749 63.9304 40.1694 62.1388 40.5506 61.5289C40.665 61.3383 40.8556 61.1667 40.9509 61.1667C41.1415 61.1667 46.2114 64.9406 46.2114 65.0931C46.2114 65.2456 44.8963 67.2659 44.7819 67.2659C44.7438 67.2659 44.6104 67.0944 44.496 66.8847ZM45.0678 65.1503C45.0678 65.0168 41.7514 62.5009 41.5608 62.5009C41.2368 62.5009 42.1898 63.7017 43.1618 64.5403C43.7336 65.0359 44.2864 65.5505 44.3626 65.703C44.496 65.9127 44.5723 65.8936 44.801 65.6077C44.9344 65.4171 45.0678 65.2074 45.0678 65.1503Z" fill="white"/>
<path d="M46.0209 62.482C45.3348 61.9483 44.1531 61.0716 43.4097 60.5379C42.6473 60.0042 42.0184 59.4896 42.0184 59.3752C42.0184 59.0703 45.8875 53.3523 46.0972 53.3523C46.4593 53.3523 51.5102 57.1262 51.5293 57.4121C51.5483 57.5455 49.1468 60.9572 47.5839 63.0347L47.2598 63.454L46.0209 62.482ZM48.8609 59.8708C49.7186 58.67 50.3475 57.6217 50.2904 57.5074C50.0616 57.1452 46.364 54.4959 46.2115 54.5912C46.0209 54.7055 43.3907 58.5556 43.2382 58.9368C43.181 59.1084 43.7909 59.6992 45.1061 60.6713C46.1734 61.4718 47.1074 62.1008 47.1836 62.0817C47.2598 62.0436 48.0032 61.0525 48.8609 59.8708Z" fill="white"/>
<path d="M82.4633 60.4426L80.3095 57.4502L81.0338 56.8212C82.0631 55.9063 85.5891 53.3523 85.8179 53.3523C85.9513 53.3523 89.2486 58.041 89.9157 59.1846C90.011 59.3562 86.4849 62.1961 84.8077 63.3016C84.6933 63.3778 83.6641 62.1198 82.4633 60.4426Z" fill="white"/>
<path d="M93.9563 61.9865C93.6704 61.4719 93.2702 60.8048 93.0605 60.4617L92.7175 59.8708L93.6895 59.2609C94.2232 58.9369 94.795 58.7082 94.9475 58.7654C95.0999 58.8226 95.3668 58.8035 95.5383 58.7082C95.767 58.5938 95.9958 58.632 96.2435 58.8035C96.4532 58.956 96.9297 59.1656 97.33 59.2609C98.2829 59.5278 99.0835 60.233 99.3312 61.0526C99.5409 61.7387 99.5409 61.7387 98.8547 61.9293C97.4824 62.2914 94.9093 62.8823 94.6806 62.8823C94.5663 62.8823 94.2422 62.482 93.9563 61.9865Z" fill="white"/>
<path d="M57.1708 59.6228C55.8176 58.3649 54.6549 57.2594 54.6359 57.145C54.5978 57.0497 55.3792 56.0014 56.3894 54.8197C58.7719 52.037 59.134 51.6367 59.2865 51.6367C59.439 51.6367 60.392 52.4754 62.7554 54.7244L64.547 56.4017L63.8037 57.2213C60.5063 60.9951 59.6867 61.9291 59.6677 61.91C59.6486 61.91 58.5432 60.8808 57.1708 59.6228Z" fill="white"/>
<path d="M71.4468 61.0142C71.0465 60.5186 69.9601 59.2797 69.0452 58.2696L67.3679 56.4398L69.8838 54.0383C71.2752 52.7231 72.5141 51.6367 72.6285 51.6367C72.8191 51.6367 77.4887 56.9544 77.4506 57.1641C77.4506 57.2213 77.0313 57.6025 76.5358 58.0218C76.0211 58.4411 74.8394 59.4894 73.9055 60.3471L72.1901 61.91L71.4468 61.0142ZM74.1533 58.7461C75.1444 57.8312 75.9449 57.0307 75.9449 56.9735C75.9449 56.8973 75.2016 55.9824 74.3057 54.915L72.6666 52.9709L71.9804 53.5236C71.5802 53.8286 70.7225 54.6482 70.0554 55.3153L68.8546 56.5542L70.5319 58.4792C71.4658 59.5275 72.2473 60.4043 72.2854 60.4043C72.3235 60.4043 73.1622 59.6609 74.1533 58.7461Z" fill="white"/>
<path d="M90.1254 55.8681C89.2296 54.5339 88.4291 53.3141 88.3719 53.1616C88.3147 53.0091 88.6959 53.276 89.2296 53.7524C90.2017 54.6673 91.1547 55.2582 91.6121 55.2582C91.7646 55.2582 91.9742 55.5441 92.1077 55.9062C92.2411 56.2493 92.5079 56.6877 92.7176 56.8783C93.2322 57.3357 93.2131 57.4501 92.4317 57.9075L91.7646 58.2887L90.1254 55.8681Z" fill="white"/>
<path d="M40.8368 56.6877C40.8749 56.4209 41.0846 56.1159 41.2752 56.0016C41.5802 55.8491 41.6373 55.6013 41.6373 54.553C41.6373 53.8478 41.7517 52.9901 41.8661 52.628C42.0757 52.0562 42.0567 51.8846 41.5992 51.046C41.3324 50.5314 41.1418 50.1121 41.1799 50.1121C41.3324 50.1121 44.1151 51.8656 44.2104 52.0371C44.2867 52.1324 43.7339 53.0473 43.0287 54.0765C42.3044 55.0867 41.542 56.2112 41.3514 56.5543C40.9131 57.2786 40.7034 57.3358 40.8368 56.6877ZM42.9715 52.0943C42.6666 51.7322 42.476 51.7512 42.4569 52.1705C42.4569 52.3421 42.3807 52.7995 42.3044 53.1616L42.171 53.8287L42.6856 53.1045C43.0859 52.5136 43.1431 52.323 42.9715 52.0943Z" fill="white"/>
<path d="M51.5483 54.8578C50.8622 54.3241 49.6423 53.4283 48.8418 52.8375C48.0222 52.2657 47.3551 51.732 47.3551 51.6367C47.3551 51.4842 50.1188 47.9581 51.3196 46.6049C51.9486 45.8806 51.9486 45.8806 52.4632 46.2237C53.2828 46.7383 57.4378 49.9404 57.5522 50.131C57.6094 50.2072 56.847 51.2174 55.8558 52.361C54.8457 53.4855 53.7974 54.7244 53.5115 55.1247C53.2256 55.5059 52.9397 55.8108 52.8825 55.8299C52.8253 55.8299 52.2345 55.3915 51.5483 54.8578ZM53.5687 53.5999C53.988 53.1043 54.7694 52.1894 55.3031 51.5795C55.8558 50.9505 56.2561 50.3787 56.218 50.2834C56.0464 50.0357 52.3107 47.2529 52.1392 47.2529C51.9104 47.2529 48.6512 51.2746 48.7274 51.4652C48.7846 51.6367 52.5394 54.4766 52.711 54.4766C52.7872 54.4957 53.1684 54.0954 53.5687 53.5999Z" fill="white"/>
<path d="M77.6414 54.1718C76.8599 53.2569 75.7735 51.9799 75.2208 51.3509L74.1915 50.2264L74.7443 49.7689C75.9069 48.8159 79.5664 46.0904 79.8142 46.0141C80.062 45.8998 80.3669 46.2429 83.0734 49.5974L84.7317 51.6749L83.9121 52.2658C83.4546 52.5898 82.2729 53.4666 81.2818 54.2099C80.2907 54.9532 79.3758 55.6203 79.2615 55.6966C79.128 55.7728 78.48 55.1629 77.6414 54.1718Z" fill="white"/>
<path d="M64.3183 53.4856C63.5369 52.7232 62.3742 51.6558 61.7453 51.1031L60.6017 50.0929L63.2129 47.5198C65.1951 45.5948 65.9194 44.9848 66.129 45.0992C66.5102 45.3279 71.1799 49.9214 71.1799 50.0738C71.1799 50.2644 66.0909 54.8769 65.9003 54.8769C65.8241 54.8769 65.0998 54.2479 64.3183 53.4856ZM68.1875 48.3394C67.2726 47.4245 66.3768 46.5668 66.1862 46.4715C65.9384 46.3381 65.481 46.6812 63.9372 48.1488L62.0121 49.9785L63.9753 51.8273L65.9384 53.6762L67.9016 51.8655L69.8648 50.0357L68.1875 48.3394Z" fill="white"/>
<path d="M42.6856 48.8539C40.7605 47.6913 39.9791 47.1195 39.9029 46.7955C39.7885 46.4143 40.0744 45.9568 41.4467 44.2796C42.3616 43.136 43.3718 41.9161 43.6577 41.5731L44.2104 40.9631L47.0694 42.6976C48.6513 43.6315 50.0046 44.4892 50.0999 44.5845C50.1761 44.6608 49.6234 45.4994 48.8419 46.4333C48.0795 47.3482 47.0313 48.6443 46.5357 49.3114C46.0211 49.9594 45.5636 50.4931 45.4874 50.474C45.4112 50.474 44.1532 49.7497 42.6856 48.8539ZM47.2219 47.0242L48.8801 44.9848L48.3464 44.6226C46.9169 43.6315 44.4772 42.2783 44.3057 42.3926C44.2104 42.4498 43.4289 43.3647 42.5903 44.413C41.4086 45.8425 41.0846 46.3761 41.218 46.6049C41.4276 47.0051 45.3159 49.3495 45.4683 49.178C45.5446 49.1208 46.326 48.1487 47.2219 47.0242Z" fill="white"/>
<path d="M56.1226 46.5668L53.2064 44.3749L55.8939 41.6875L58.5623 38.981L60.068 40.1055C62.0121 41.5731 64.3184 43.46 64.3184 43.6125C64.3184 43.6697 63.1366 44.8514 61.6881 46.2428L59.0578 48.7396L56.1226 46.5668ZM61.0591 45.5566L63.0413 43.6697L60.9638 42.0305C59.8393 41.1347 58.81 40.3914 58.6957 40.3914C58.3145 40.3914 54.6931 44.1843 54.8837 44.3749C55.2077 44.6989 58.8863 47.4245 58.9816 47.4245C59.0388 47.4245 59.9727 46.5859 61.0591 45.5566Z" fill="white"/>
<path d="M70.1317 46.1664L67.4824 43.5743L68.0351 43.1169C68.3591 42.85 69.3693 42.0495 70.2842 41.3252C71.8471 40.1054 71.9996 40.0292 72.3617 40.296C72.5904 40.4485 72.9716 40.5247 73.2766 40.4675C73.6768 40.3722 73.8865 40.4866 74.2868 40.9631C74.5727 41.2871 74.8014 41.6492 74.8014 41.7445C74.8014 41.8398 74.9157 41.9161 75.0682 41.9161C75.2016 41.9161 75.4304 42.0495 75.5638 42.202C75.6972 42.3545 75.945 42.4879 76.1165 42.4879C76.2881 42.4879 76.5358 42.6594 76.6692 42.8691C76.7836 43.0787 77.241 43.4599 77.6604 43.7268C78.0797 43.9936 78.4228 44.3176 78.4228 44.451C78.4037 44.5654 77.7938 45.1181 77.0504 45.6328C76.3071 46.1664 75.0682 47.0813 74.3058 47.6912C73.5244 48.2821 72.8763 48.7776 72.8573 48.7776C72.8191 48.7586 71.5993 47.5959 70.1317 46.1664Z" fill="white"/>
<path d="M37.9586 43.3075C37.6918 42.6976 37.4249 41.7065 37.3487 41.1156C37.2153 40.1436 37.2724 39.9339 37.7299 39.1144C38.0348 38.6188 38.2826 38.1614 38.3207 38.1423C38.416 38.0279 42.209 39.8767 42.209 40.0292C42.209 40.2389 38.74 44.3939 38.5685 44.3939C38.5113 44.3939 38.2254 43.8984 37.9586 43.3075ZM39.8836 39.7814C39.3309 39.4955 38.8353 39.2668 38.7782 39.2478C38.721 39.2478 38.5304 39.4955 38.3398 39.8005C38.0539 40.277 38.0348 40.5057 38.2064 41.2681C38.6066 43.0216 38.6638 43.0407 39.8455 41.5921L40.8938 40.3151L39.8836 39.7814Z" fill="white"/>
<path d="M48.537 41.4589C46.9169 40.4678 45.6208 39.6101 45.6399 39.5148C45.6971 39.248 49.2231 35.4932 50.119 34.7689L50.9385 34.0828L52.349 34.9214C53.1114 35.3788 54.4456 36.1984 55.3033 36.7702L56.8662 37.7994L54.274 40.4678C52.8445 41.9545 51.6247 43.1743 51.5675 43.1934C51.5103 43.2125 50.138 42.431 48.537 41.4589ZM53.3401 40.0295C54.3693 39.0002 55.1698 38.0663 55.1127 37.971C54.9602 37.7423 51.2816 35.436 51.0529 35.436C50.9576 35.436 50.0046 36.3128 48.9372 37.3801L46.9931 39.3242L49.1278 40.6012C50.3096 41.3255 51.3007 41.8973 51.3579 41.9164C51.415 41.9164 52.3108 41.0587 53.3401 40.0295Z" fill="white"/>
<path d="M64.4708 41.0965C63.6703 40.4484 62.3742 39.4382 61.5737 38.8664C60.7923 38.2947 60.1252 37.761 60.1252 37.6847C60.1252 37.437 63.4035 34.7686 63.7084 34.7495C63.899 34.7495 64.204 34.8829 64.4136 35.0545C65.1379 35.6644 67.5395 36.9795 68.035 37.0558C68.5496 37.132 70.3794 38.1041 70.4747 38.3709C70.5509 38.5615 69.941 39.1523 68.4734 40.3341C67.2917 41.2489 66.2434 42.0685 66.129 42.1448C66.0147 42.221 65.2713 41.7445 64.4708 41.0965ZM67.5966 39.8004C68.4162 39.1523 69.0261 38.5615 68.988 38.4853C68.9308 38.39 68.4925 38.1422 67.9778 37.9135C66.0909 37.0367 64.3183 36.1028 64.3183 35.9693C64.3183 35.55 63.3463 35.9312 62.5077 36.6936L61.5547 37.5513L62.2027 38.0659C62.5648 38.3518 63.5178 39.1142 64.2993 39.7623C65.0998 40.4103 65.8431 40.944 65.9384 40.944C66.0528 40.944 66.7961 40.4294 67.5966 39.8004Z" fill="white"/>
<path d="M41.3133 37.5134C40.2269 36.9988 39.3501 36.5033 39.3501 36.408C39.3501 36.3127 39.4645 36.1411 39.617 36.0268C39.7885 35.8743 39.8457 35.5121 39.8076 34.9022C39.7504 34.1017 39.8266 33.9111 40.3222 33.3774C40.8559 32.8056 40.9512 32.7675 41.8851 32.8819C42.5141 32.9581 43.3527 32.8819 44.1532 32.6913C44.8584 32.5197 45.6971 32.4435 46.002 32.5007C46.2879 32.5579 46.7263 32.5197 46.955 32.4054C47.279 32.2338 47.5078 32.2529 48.1177 32.5769C48.537 32.7866 48.8801 33.0344 48.8801 33.1106C48.8801 33.3393 43.6577 38.4855 43.448 38.4664C43.3336 38.4664 42.3807 38.0281 41.3133 37.5134ZM45.1253 35.5884C46.6882 33.9683 46.8025 33.8158 46.4785 33.5871C46.2879 33.4537 46.002 33.3774 45.8305 33.4537C45.5255 33.5871 44.2295 33.7205 42.6475 33.7777C41.3895 33.8349 40.913 34.2351 41.0274 35.1309C41.0655 35.5121 41.0083 35.8362 40.8559 35.9124C40.7034 36.0077 41.0465 36.2745 41.847 36.6939C42.5141 37.0369 43.143 37.3228 43.2574 37.3419C43.3527 37.3419 44.2104 36.5604 45.1253 35.5884Z" fill="white"/>
<path d="M57.3615 35.8742C56.8469 35.5311 55.5318 34.6925 54.4644 34.0445C53.378 33.3964 52.5013 32.7865 52.5013 32.6721C52.5013 32.5768 52.73 32.3291 52.9968 32.1194C53.4352 31.8144 53.7401 31.7763 55.913 31.8716C58.5814 32.005 60.0871 32.4053 61.0401 33.263L61.5547 33.7204L60.7923 34.4066C60.373 34.7878 59.6487 35.4168 59.1722 35.817L58.3145 36.5222L57.3615 35.8742ZM59.1913 34.54L59.9537 33.8348L59.2675 33.4155C58.6385 33.0343 57.9524 32.8627 56.3132 32.6531C56.0464 32.615 55.4365 32.5387 54.9409 32.4625C54.4263 32.3862 54.026 32.4053 54.026 32.5006C54.0451 32.6721 57.9714 35.2071 58.2573 35.2262C58.3526 35.2452 58.7529 34.9212 59.1913 34.54Z" fill="white"/>
</svg>
