<svg width="100" height="100" viewBox="0 0 100 100" fill="none" xmlns="http://www.w3.org/2000/svg">
<path d="M62.1026 54.9228C60.8565 54.4208 59.5643 54.3501 58.5111 54.6759C58.0376 54.118 57.4338 53.6487 56.7201 53.2994C55.3141 52.6115 53.7294 52.4925 52.4235 52.9198C51.7381 52.1686 50.8105 51.6092 49.7065 51.3236C48.8566 51.1039 48.0183 51.0771 47.267 51.2193L47.0913 43.1415C47.0613 41.7566 46.481 40.532 45.5698 39.6912C47.8142 37.0017 49.078 33.561 49.078 30.039C49.078 21.7465 42.3316 15 34.039 15C32.3636 15 30.7165 15.2745 29.1434 15.8159C28.4294 16.0616 28.0498 16.8397 28.2956 17.5536C28.5413 18.2676 29.3192 18.6474 30.0333 18.4014C31.3194 17.9589 32.6672 17.7344 34.039 17.7344C40.8238 17.7344 46.3436 23.2542 46.3436 30.039C46.3436 33.1882 45.1081 36.2574 42.9407 38.5323C42.819 38.5224 42.6964 38.5158 42.572 38.5158C40.6262 38.5158 38.9639 39.7888 38.3283 41.5687C36.953 42.0811 35.5127 42.3436 34.039 42.3436C27.2542 42.3436 21.7344 36.8238 21.7344 30.039C21.7344 28.6674 21.9587 27.32 22.4011 26.0341C22.6468 25.3202 22.2671 24.5421 21.5531 24.2966C20.839 24.0509 20.0611 24.4305 19.8155 25.1446C19.2744 26.7174 19 28.3642 19 30.0391C19 38.3316 25.7465 45.0781 34.039 45.0781C35.4056 45.0781 36.7493 44.8952 38.0522 44.5336V60.1591C36.7416 60.7121 35.6763 61.3234 34.787 63.1645C33.8849 65.0318 33.0662 68.7729 33.8752 70.9403C35.0344 74.0465 36.488 75.8109 37.656 77.2285C39.1703 79.0666 40.1707 80.2809 40.199 83.644C40.2053 84.395 40.8154 85 41.5661 85H61.442C62.1943 85 62.8053 84.392 62.8092 83.64C62.8175 81.9733 63.5902 79.6208 64.3375 77.3457C65.1581 74.8474 66.0066 72.2643 66.0066 70.1491V60.9007C66.0067 58.1428 64.5472 55.908 62.1026 54.9228ZM63.2724 70.149C63.2724 71.8265 62.4932 74.1984 61.7397 76.4922C61.0953 78.4545 60.4333 80.47 60.181 82.266H42.8681C42.5579 78.878 41.1974 77.2266 39.7665 75.4897C38.621 74.0992 37.4363 72.6613 36.437 69.984C35.9893 68.7843 36.5094 65.8853 37.2491 64.3535C37.5037 63.8264 37.739 63.5022 38.0522 63.2515V67.3676C38.0522 68.1227 38.6643 68.7348 39.4194 68.7348C40.1745 68.7348 40.7866 68.1227 40.7866 67.3676V43.1713C40.7866 42.112 41.5875 41.2502 42.572 41.2502C43.5331 41.2502 44.3341 42.1253 44.3575 43.201L44.6728 57.697C44.6892 58.4518 45.3176 59.0547 46.0694 59.0341C46.8242 59.0177 47.4229 58.3924 47.4065 57.6375L47.3285 54.0511C47.631 53.8873 48.2526 53.7721 49.0218 53.971C49.6157 54.1246 50.9971 54.6647 50.9971 56.3588C50.9971 57.1139 51.6092 57.7259 52.3643 57.7259C53.1194 57.7259 53.7315 57.1139 53.7315 56.3588C53.7315 56.0409 53.7044 55.7308 53.6518 55.4304C54.2239 55.3516 54.9142 55.4601 55.5181 55.7557C56.0592 56.0205 56.9672 56.6565 56.9672 57.9411C56.9672 58.6962 57.5793 59.3083 58.3344 59.3083C59.0895 59.3083 59.7015 58.6962 59.7015 57.9411C59.7015 57.6972 59.6849 57.457 59.6522 57.222C60.0335 57.1871 60.541 57.2417 61.0803 57.4591C61.7393 57.7247 63.2722 58.5918 63.2722 60.9007V70.149H63.2724Z" fill="white"/>
<path d="M66.8515 15C58.559 15 51.8125 21.7465 51.8125 30.0391C51.8125 38.3316 58.559 45.0781 66.8515 45.0781C75.1441 45.0781 81.8901 38.3316 81.8901 30.0391C81.8901 21.7465 75.1441 15 66.8515 15ZM66.8515 42.3438C60.0667 42.3438 54.5468 36.8239 54.5468 30.0391C54.5468 23.2543 60.0667 17.7344 66.8515 17.7344C73.6363 17.7344 79.1562 23.2543 79.1562 30.0391C79.1561 36.8239 73.6363 42.3438 66.8515 42.3438Z" fill="white"/>
<path d="M72.6521 30.0391L73.6189 29.0723C75.2179 27.4731 75.2179 24.8711 73.6189 23.2718C72.0198 21.6726 69.4176 21.6726 67.8183 23.2718L66.8516 24.2385L65.8848 23.2718C64.2856 21.6727 61.6836 21.6727 60.0842 23.2718C58.485 24.871 58.485 27.473 60.0842 29.0723L61.051 30.0391L60.0842 31.0058C58.485 32.605 58.485 35.2072 60.0842 36.8064C60.8839 37.6059 61.9342 38.0057 62.9845 38.0057C64.0347 38.0057 65.0851 37.6059 65.8847 36.8064L66.8514 35.8396L67.8182 36.8064C69.4174 38.4054 72.0194 38.4056 73.6187 36.8064C75.2179 35.2072 75.2179 32.605 73.6187 31.0058L72.6521 30.0391ZM71.6854 34.8727C71.1525 35.4059 70.285 35.4058 69.7519 34.8727L67.8184 32.9393C67.5514 32.6723 67.2016 32.5388 66.8517 32.5388C66.5018 32.5388 66.1518 32.6723 65.885 32.9393L63.9515 34.8727C63.6954 35.1288 63.3521 35.2699 62.9847 35.2699C62.6174 35.2699 62.2741 35.129 62.018 34.8727C61.7618 34.6167 61.6208 34.2734 61.6208 33.906C61.6208 33.5386 61.7619 33.1953 62.018 32.9393L63.9515 31.0058C64.4854 30.4719 64.4854 29.6062 63.9515 29.0722L62.018 27.1387C61.4849 26.6056 61.4849 25.7383 62.018 25.2052C62.5509 24.6722 63.4184 24.6722 63.9515 25.2052L65.885 27.1387C66.4188 27.6726 67.2845 27.6726 67.8186 27.1387L69.752 25.2052C70.2852 24.6722 71.1526 24.6722 71.6857 25.2052C72.2187 25.7383 72.2187 26.6058 71.6857 27.1387L69.7522 29.0722C69.2183 29.6061 69.2183 30.4718 69.7522 31.0058L71.6857 32.9393C72.2185 33.4723 72.2184 34.3398 71.6854 34.8727Z" fill="white"/>
<path d="M26.0318 32.7347L29.5731 36.2759C30.3477 37.0506 31.3776 37.4772 32.4732 37.4772C33.5687 37.4772 34.5986 37.0505 35.3732 36.2759L42.0468 29.6024C43.6457 28.0034 43.6457 25.4015 42.0468 23.8024C41.2721 23.0278 40.2422 22.6012 39.1467 22.6012C38.0512 22.6012 37.0213 23.0279 36.2467 23.8024L32.4732 27.5758L31.832 26.9346C30.2329 25.3356 27.631 25.3357 26.0318 26.9346C24.4327 28.5337 24.4327 31.1356 26.0318 32.7347ZM27.9653 28.8681C28.2319 28.6016 28.5817 28.4683 28.9319 28.4683C29.2819 28.4683 29.632 28.6016 29.8983 28.8681L31.5063 30.4761C32.0402 31.0099 32.9059 31.0099 33.4399 30.4761L38.1801 25.7359C38.4382 25.4776 38.7815 25.3356 39.1465 25.3356C39.5116 25.3356 39.8549 25.4778 40.113 25.7359C40.6459 26.2688 40.6459 27.136 40.113 27.669L33.4395 34.3425C33.1814 34.6006 32.8382 34.7428 32.473 34.7428C32.108 34.7428 31.7647 34.6006 31.5066 34.3425L27.9653 30.8012C27.4324 30.2681 27.4324 29.401 27.9653 28.8681Z" fill="white"/>
<path d="M24.3708 21.7389C24.7428 21.7389 25.1135 21.588 25.3833 21.2912C25.8912 20.7325 25.8501 19.8678 25.2913 19.3599C24.7327 18.852 23.8679 18.8933 23.36 19.4519L23.3593 19.4526C22.8514 20.0112 22.893 20.8755 23.4516 21.3835C23.7136 21.6216 24.0427 21.7389 24.3708 21.7389Z" fill="white"/>
</svg>
