<svg width="136" height="136" viewBox="0 0 136 136" fill="none" xmlns="http://www.w3.org/2000/svg">
<path d="M0 8C0 3.58172 3.58172 0 8 0H128C132.418 0 136 3.58172 136 8V136H0V8Z" fill="#FF9800"/>
<g clip-path="url(#clip0)">
<path d="M81.6573 72.9228C80.4112 72.4208 79.119 72.3501 78.0658 72.6759C77.5923 72.118 76.9885 71.6487 76.2748 71.2994C74.8688 70.6115 73.2841 70.4925 71.9782 70.9198C71.2928 70.1686 70.3652 69.6092 69.2612 69.3236C68.4113 69.1039 67.573 69.0771 66.8217 69.2193L66.646 61.1415C66.616 59.7566 66.0357 58.532 65.1245 57.6912C67.3689 55.0017 68.6327 51.561 68.6327 48.039C68.6327 39.7465 61.8863 33 53.5937 33C51.9183 33 50.2712 33.2745 48.6981 33.8159C47.9841 34.0616 47.6045 34.8397 47.8503 35.5536C48.096 36.2676 48.8739 36.6474 49.588 36.4014C50.8741 35.9589 52.2219 35.7344 53.5937 35.7344C60.3785 35.7344 65.8983 41.2542 65.8983 48.039C65.8983 51.1882 64.6628 54.2574 62.4954 56.5323C62.3737 56.5224 62.2511 56.5158 62.1267 56.5158C60.1809 56.5158 58.5186 57.7888 57.883 59.5687C56.5077 60.0811 55.0674 60.3436 53.5937 60.3436C46.8089 60.3436 41.2891 54.8238 41.2891 48.039C41.2891 46.6674 41.5134 45.32 41.9558 44.0341C42.2015 43.3202 41.8218 42.5421 41.1078 42.2966C40.3937 42.0509 39.6158 42.4305 39.3702 43.1446C38.8291 44.7174 38.5547 46.3642 38.5547 48.0391C38.5547 56.3316 45.3012 63.0781 53.5937 63.0781C54.9603 63.0781 56.304 62.8952 57.6069 62.5336V78.1591C56.2963 78.7121 55.231 79.3234 54.3417 81.1645C53.4396 83.0318 52.6209 86.7729 53.4299 88.9403C54.5891 92.0465 56.0427 93.8109 57.2107 95.2285C58.725 97.0666 59.7254 98.2809 59.7537 101.644C59.76 102.395 60.3701 103 61.1208 103H80.9967C81.749 103 82.36 102.392 82.3639 101.64C82.3722 99.9733 83.1449 97.6208 83.8922 95.3457C84.7128 92.8474 85.5613 90.2643 85.5613 88.1491V78.9007C85.5614 76.1428 84.1019 73.908 81.6573 72.9228V72.9228ZM82.8271 88.149C82.8271 89.8265 82.0479 92.1984 81.2944 94.4922C80.65 96.4545 79.988 98.47 79.7357 100.266H62.4228C62.1126 96.878 60.7521 95.2266 59.3212 93.4897C58.1757 92.0992 56.991 90.6613 55.9917 87.984C55.544 86.7843 56.0641 83.8853 56.8038 82.3535C57.0584 81.8264 57.2937 81.5022 57.6069 81.2515V85.3676C57.6069 86.1227 58.219 86.7348 58.9741 86.7348C59.7292 86.7348 60.3413 86.1227 60.3413 85.3676V61.1713C60.3413 60.112 61.1422 59.2502 62.1267 59.2502C63.0878 59.2502 63.8888 60.1253 63.9122 61.201L64.2275 75.697C64.2439 76.4518 64.8723 77.0547 65.6241 77.0341C66.3789 77.0177 66.9776 76.3924 66.9612 75.6375L66.8832 72.0511C67.1857 71.8873 67.8073 71.7721 68.5765 71.971C69.1704 72.1246 70.5518 72.6647 70.5518 74.3588C70.5518 75.1139 71.1639 75.7259 71.919 75.7259C72.6741 75.7259 73.2862 75.1139 73.2862 74.3588C73.2862 74.0409 73.2591 73.7308 73.2065 73.4304C73.7786 73.3516 74.4689 73.4601 75.0728 73.7557C75.6139 74.0205 76.5219 74.6565 76.5219 75.9411C76.5219 76.6962 77.134 77.3083 77.8891 77.3083C78.6442 77.3083 79.2562 76.6962 79.2562 75.9411C79.2562 75.6972 79.2396 75.457 79.2069 75.222C79.5882 75.1871 80.0957 75.2417 80.635 75.4591C81.294 75.7247 82.8269 76.5918 82.8269 78.9007V88.149H82.8271Z" fill="white"/>
<path d="M86.4064 33C78.1139 33 71.3674 39.7465 71.3674 48.0391C71.3674 56.3316 78.1139 63.0781 86.4064 63.0781C94.699 63.0781 101.445 56.3316 101.445 48.0391C101.445 39.7465 94.699 33 86.4064 33ZM86.4064 60.3438C79.6216 60.3438 74.1017 54.8239 74.1017 48.0391C74.1017 41.2543 79.6216 35.7344 86.4064 35.7344C93.1912 35.7344 98.7111 41.2543 98.7111 48.0391C98.711 54.8239 93.1912 60.3438 86.4064 60.3438Z" fill="white"/>
<path d="M92.2068 48.0391L93.1736 47.0723C94.7726 45.4731 94.7726 42.8711 93.1736 41.2718C91.5745 39.6726 88.9723 39.6726 87.373 41.2718L86.4063 42.2385L85.4395 41.2718C83.8403 39.6727 81.2383 39.6727 79.6389 41.2718C78.0397 42.871 78.0397 45.473 79.6389 47.0723L80.6057 48.0391L79.6389 49.0058C78.0397 50.605 78.0397 53.2072 79.6389 54.8064C80.4386 55.6059 81.4889 56.0057 82.5392 56.0057C83.5894 56.0057 84.6398 55.6059 85.4394 54.8064L86.4061 53.8396L87.3729 54.8064C88.9721 56.4054 91.5741 56.4056 93.1734 54.8064C94.7726 53.2072 94.7726 50.605 93.1734 49.0058L92.2068 48.0391ZM91.2401 52.8727C90.7072 53.4059 89.8397 53.4058 89.3066 52.8727L87.3731 50.9393C87.1061 50.6723 86.7563 50.5388 86.4064 50.5388C86.0565 50.5388 85.7065 50.6723 85.4397 50.9393L83.5062 52.8727C83.2501 53.1288 82.9068 53.2699 82.5394 53.2699C82.1721 53.2699 81.8288 53.129 81.5727 52.8727C81.3165 52.6167 81.1755 52.2734 81.1755 51.906C81.1755 51.5386 81.3166 51.1953 81.5727 50.9393L83.5062 49.0058C84.0401 48.4719 84.0401 47.6062 83.5062 47.0722L81.5727 45.1387C81.0396 44.6056 81.0396 43.7383 81.5727 43.2052C82.1056 42.6722 82.9731 42.6722 83.5062 43.2052L85.4397 45.1387C85.9735 45.6726 86.8392 45.6726 87.3733 45.1387L89.3067 43.2052C89.8399 42.6722 90.7073 42.6722 91.2404 43.2052C91.7734 43.7383 91.7734 44.6058 91.2404 45.1387L89.3069 47.0722C88.773 47.6061 88.773 48.4718 89.3069 49.0058L91.2404 50.9393C91.7732 51.4723 91.7731 52.3398 91.2401 52.8727V52.8727Z" fill="white"/>
<path d="M45.5865 50.7347L49.1278 54.2759C49.9024 55.0506 50.9323 55.4772 52.0279 55.4772C53.1234 55.4772 54.1533 55.0505 54.9279 54.2759L61.6015 47.6024C63.2004 46.0034 63.2004 43.4015 61.6015 41.8024C60.8268 41.0278 59.7969 40.6012 58.7014 40.6012C57.6059 40.6012 56.576 41.0279 55.8014 41.8024L52.0279 45.5758L51.3867 44.9346C49.7876 43.3356 47.1857 43.3357 45.5865 44.9346C43.9874 46.5337 43.9874 49.1356 45.5865 50.7347V50.7347ZM47.52 46.8681C47.7866 46.6016 48.1364 46.4683 48.4866 46.4683C48.8366 46.4683 49.1867 46.6016 49.453 46.8681L51.061 48.4761C51.5949 49.0099 52.4606 49.0099 52.9946 48.4761L57.7348 43.7359C57.9929 43.4776 58.3362 43.3356 58.7012 43.3356C59.0663 43.3356 59.4096 43.4778 59.6677 43.7359C60.2006 44.2688 60.2006 45.136 59.6677 45.669L52.9942 52.3425C52.7361 52.6006 52.3929 52.7428 52.0277 52.7428C51.6627 52.7428 51.3194 52.6006 51.0613 52.3425L47.52 48.8012C46.9871 48.2681 46.9871 47.401 47.52 46.8681V46.8681Z" fill="white"/>
<path d="M43.9254 39.7389C44.2974 39.7389 44.6681 39.588 44.9379 39.2912C45.4458 38.7325 45.4047 37.8678 44.8459 37.3599C44.2873 36.852 43.4225 36.8933 42.9146 37.4519L42.9139 37.4526C42.406 38.0112 42.4476 38.8755 43.0062 39.3835C43.2682 39.6216 43.5973 39.7389 43.9254 39.7389V39.7389Z" fill="white"/>
</g>
<defs>
<clipPath id="clip0">
<rect width="70" height="70" fill="white" transform="translate(35 33)"/>
</clipPath>
</defs>
</svg>
