<svg width="100" height="100" viewBox="0 0 100 100" fill="none" xmlns="http://www.w3.org/2000/svg">
<path fill-rule="evenodd" clip-rule="evenodd" d="M71.7843 62.8633C71.7843 61.6347 72.5294 59.0267 72.8039 57.8196C73.1667 56.2246 76.1961 43.4645 76.2157 42.473C76.8039 42.5269 76.6569 42.5162 77.1078 42.8071L82.7549 46.6977C84.4706 47.9909 86.2549 51.1486 86.2549 54.2632V73.9098H71.7843V62.8633ZM13.7451 54.6404C13.7451 48.5405 17.5294 46.6546 20.3137 44.6392C21.4216 43.8417 22.4804 43.1412 23.6176 42.473L25.9706 52.6143C28.7745 64.9756 28.2157 59.8673 28.2157 73.9098H13.7451V54.6404V54.6404ZM37.2353 71.8514C37.2353 77.0998 44.549 77.5956 44.549 71.6574C44.549 69.4589 42.8529 68.8661 42.8529 68.1117V55.2008C42.8529 54.4787 42.7941 55.1253 43.0196 54.6404C43.5196 55.0391 43.5294 55.9229 43.8039 57.1407C44.4608 60.0505 48.1274 75.4078 48.1274 76.7119V85.8832H33.6569V67.3573C33.6569 62.1089 35.9902 59.253 39.1078 57.4424V68.4782C38.0294 69.1032 37.2353 70.3534 37.2353 71.8514V71.8514ZM53.5784 71.8514V77.6495C53.5784 80.5377 56.8137 80.5593 57.2647 78.3284C57.7157 76.0976 56.2843 69.9762 58.8529 69.9762C63.549 69.9762 58.2059 79.8911 62.9314 79.8911C65.2255 79.8911 64.6373 75.4833 64.6373 72.789C64.6373 70.5258 63.9804 68.4889 62.549 67.2172C62.2745 66.9801 62.1667 66.9155 61.8235 66.7107C61.402 66.4521 61.2745 66.4413 60.8922 66.2365V57.4424C64.0098 59.253 66.3431 62.1089 66.3431 67.3573V85.8832H51.8725V76.7119C51.8725 75.4509 55 62.3783 55.549 59.9858C55.7745 58.9836 55.9412 58.2723 56.1569 57.2915C56.4118 56.1923 56.5 55.0176 56.9804 54.6404C57.3725 55.3948 57.1471 64.2751 57.1471 65.8593C57.1471 66.6999 53.5784 67.519 53.5784 71.8514V71.8514ZM48.8039 61.9365H51.1961C51.0686 63.5207 50.2059 65.4067 50.1667 66.9801H49.8333C49.8039 65.4929 48.9902 63.5207 48.8039 61.9365V61.9365ZM46.9314 53.5088C48.3137 53.6381 47.9118 53.886 50.3431 53.886C51.5392 53.886 52.0882 53.6058 53.0686 53.5088C53.0392 54.9314 52.3137 56.4186 52.2157 57.8196H47.7843C47.6765 56.4078 46.9706 54.9421 46.9314 53.5088ZM57.8333 50.3295C58.1372 49.8338 58.5686 49.3273 58.951 48.7561C60.1274 46.9886 60.8922 44.5746 60.8922 42.0959C61.9314 41.557 62.7647 41.945 62.7647 39.1106L67.0196 57.4424C66.3235 56.9359 65.7549 56.1061 64.9314 55.4379C64.1176 54.7697 63.4216 54.3278 62.5588 53.7351L59.0098 51.2779C58.5588 50.9762 58.1274 50.7822 57.8333 50.3295V50.3295ZM32.9804 57.6256L37.1569 39.089C37.3627 41.9019 37.7941 41.4061 39.1078 42.0959C39.1078 46.439 40.5294 47.8293 42.1667 50.5235C40.598 51.6767 38.9706 52.6358 37.3333 53.8105C35.451 55.1685 34.5882 55.5888 32.9804 57.6256ZM42.8529 41.3522C44.0098 41.2445 46.0882 39.768 46.7647 38.3562C49.402 40.2961 50.7941 40.8457 54.1569 41.46C55.1471 41.6432 56.2843 41.6971 57.1471 41.9126C57.1471 44.1435 56.5196 46.0942 55.1569 47.5814C51.5784 51.4935 45.3823 50.3727 43.3039 44.9626C42.8431 43.7555 42.8529 42.9903 42.8529 41.3522V41.3522ZM67.3627 41.7294C68.098 41.7402 69.2353 42.0851 69.9118 42.0851C70.5294 42.0743 71.8235 41.7833 72.4706 41.7294C72.4706 42.7425 72.1373 43.7555 71.9216 44.6824L69.9706 53.1963C69.9608 53.2286 69.9412 53.2825 69.9118 53.3256L67.3627 41.7294V41.7294ZM27.3627 41.7294C28.0588 41.7402 29.2941 42.042 29.9314 42.0635C30.6078 42.0851 31.902 41.7402 32.6373 41.7294L30.0882 53.3256L27.3627 41.7294V41.7294ZM40.9804 37.7958C40.9804 35.6943 40.951 34.5411 41.4216 32.8599C41.7647 31.6421 42.5392 30.2411 43.2353 29.422C47.049 24.9064 52.951 24.9064 56.7647 29.422C58.8922 31.9331 59.0196 34.5303 59.0196 37.979C55.902 37.6988 50.7059 37.2893 48.6667 34.7674C47.8137 33.7113 48.5 31.9977 46.2549 31.9977C44.2647 31.9977 44.7059 34.3687 44.1471 35.4787C43.2745 37.2354 42.4608 37.0198 40.9804 37.7958V37.7958ZM62.7647 29.5621C65.2451 29.3358 68.8333 26.9972 70.9314 25.4453C73.2157 29.1849 76.4902 29.3573 77.2353 29.7561C77.2353 36.7612 69.7255 40.8457 64.8529 35.5111C63.5392 34.0669 62.7647 32.3965 62.7647 29.5621V29.5621ZM22.7647 29.5621C26.049 29.2603 29.1373 26.5876 31.1078 25.4453C31.2745 26.1458 31.7451 26.426 32.1667 26.9002C33.4118 28.2688 35.2549 29.5621 37.2353 29.5621C37.2353 31.114 37.1274 32.0732 36.5 33.4311C35.7353 35.1015 34.451 36.5564 32.8627 37.2893C28.0784 39.5201 22.7647 35.802 22.7647 29.5621V29.5621ZM60.8922 25.8225C60.8922 20.0567 62.8627 15.7567 67.6961 14.3987C70.6961 13.5581 73.7647 14.4095 76.0196 16.6835C77.0392 17.7073 78.1274 19.3023 78.5294 20.8434C79.0196 22.7187 78.9314 23.7101 78.9314 26.0057C78.4706 25.7686 78.2647 25.844 77.6765 25.7147C71.7451 24.3568 74.9804 20.0244 71.7843 20.0244C71.1078 20.0244 70.8333 20.283 70.4608 20.6171C67.1667 23.57 65.6569 24.6046 60.8922 25.8225V25.8225ZM21.0686 25.8225C21.0686 21.4577 21.3431 19.0868 24.5196 16.1446C26.9706 13.8707 30.951 13.4611 34.049 15.0993C37.8922 17.1469 39.1078 20.8111 39.1078 26.0057C38.3431 25.6069 36.4804 26.0164 34.6373 24.0011C33.049 22.2876 34.1667 20.0244 31.7843 20.0244C30.6667 20.0244 29.3039 22.0289 26.9118 23.4515C26.0098 24.0011 25.2745 24.4322 24.2353 24.8202L21.0686 25.8225V25.8225ZM17.3235 23.0096V28.2581C17.3235 29.8962 18.6176 29.5729 19.0098 30.3273C19.2255 30.7368 19.1667 31.3295 19.2353 31.9438C19.6373 35.3602 21.1667 36.7612 22.2549 38.5502C21.0098 39.2723 15.3137 43.0766 14.2157 44.2944C11.7549 47.021 10 50.1248 10 54.4464V75.9682C10 76.6256 10.3824 77.2292 10.7745 77.5417C11.2353 77.9081 11.8333 78.0267 12.5588 78.0267H29.9118V87.3812C29.9118 89.0193 30.8137 90 32.2941 90H67.7059C69.1863 90 70.0882 89.0193 70.0882 87.3812V78.0267H87.4412C88.7647 78.0267 90 77.4124 90 75.9682V54.4464C90 50.2541 88.2647 47.0533 85.8725 44.3914C84.7647 43.1628 79.2941 39.4447 77.7451 38.5502L79.2745 36.2978C79.7549 35.5218 80.098 34.6489 80.4118 33.6143C80.8725 32.0839 80.7451 30.8015 80.9902 30.3273C81.3824 29.5729 82.6765 29.8962 82.6765 28.2581C82.6765 21.5978 83.098 18.7635 78.549 13.709C73.8529 8.48212 65.2255 8.9132 60.7647 14.2586C59.8431 15.3687 58.7745 17.0284 58.2647 18.4401C57.6667 20.089 57.1471 22.1259 57.1471 24.3244C55.5196 23.3761 54.1765 22.5462 52.1471 22.1582C50.0098 21.7379 48.1961 21.9211 46.1078 22.6648C44.7647 23.1282 43.9902 23.6563 42.8529 24.3244C42.8529 17.9013 39.0686 12.1894 33.4608 10.519C27.451 8.71922 21.5588 11.7368 18.7353 17.4594C18.098 18.7635 17.3235 21.1236 17.3235 23.0096V23.0096Z" fill="white"/>
</svg>
