<?xml version="1.0" encoding="UTF-8"?>
<!DOCTYPE svg PUBLIC "-//W3C//DTD SVG 1.1//EN" "http://www.w3.org/Graphics/SVG/1.1/DTD/svg11.dtd">
<!-- Creator: CorelDRAW 2018 (64 Bit Versão de avaliação) -->
<svg xmlns="http://www.w3.org/2000/svg" xml:space="preserve" width="136px" height="136px" version="1.1" style="shape-rendering:geometricPrecision; text-rendering:geometricPrecision; image-rendering:optimizeQuality; fill-rule:evenodd; clip-rule:evenodd"
viewBox="0 0 136 136"
 xmlns:xlink="http://www.w3.org/1999/xlink">
 <defs>
  <style type="text/css">
   <![CDATA[
    .fil0 {fill:#FF9400}
    .fil1 {fill:white}
   ]]>
  </style>
 </defs>
 <g id="Camada_x0020_1">
  <metadata id="CorelCorpID_0Corel-Layer"/>
  <rect class="fil0" width="136" height="136"/>
  <path class="fil1" d="M90.22 79.97c0,-1.14 0.76,-3.56 1.04,-4.68 0.37,-1.48 3.46,-13.32 3.48,-14.24 0.6,0.05 0.45,0.04 0.91,0.31l5.76 3.61c1.75,1.2 3.57,4.13 3.57,7.02l0 18.23 -14.76 0 0 -10.25zm-59.2 -7.63c0,-5.66 3.86,-7.41 6.7,-9.28 1.13,-0.74 2.21,-1.39 3.37,-2.01l2.4 9.41c2.86,11.47 2.29,6.73 2.29,19.76l-14.76 0 0 -17.88zm23.96 15.97c0,4.87 7.46,5.33 7.46,-0.18 0,-2.04 -1.73,-2.59 -1.73,-3.29l0 -11.98c0,-0.67 -0.06,-0.07 0.17,-0.52 0.51,0.37 0.52,1.19 0.8,2.32 0.67,2.7 4.41,16.95 4.41,18.16l0 8.51 -14.76 0 0 -17.19c0,-4.87 2.38,-7.52 5.56,-9.2l0 10.24c-1.1,0.58 -1.91,1.74 -1.91,3.13zm16.67 0l0 5.38c0,2.68 3.3,2.7 3.76,0.63 0.46,-2.07 -1,-7.75 1.62,-7.75 4.79,0 -0.66,9.2 4.16,9.2 2.34,0 1.74,-4.09 1.74,-6.59 0,-2.1 -0.67,-3.99 -2.13,-5.17 -0.28,-0.22 -0.39,-0.28 -0.74,-0.47 -0.43,-0.24 -0.56,-0.25 -0.95,-0.44l0 -8.16c3.18,1.68 5.56,4.33 5.56,9.2l0 17.19 -14.76 0 0 -8.51c0,-1.17 3.19,-13.3 3.75,-15.52 0.23,-0.93 0.4,-1.59 0.62,-2.5 0.26,-1.02 0.35,-2.11 0.84,-2.46 0.4,0.7 0.17,8.94 0.17,10.41 0,0.78 -3.64,1.54 -3.64,5.56zm-4.87 -9.2l2.44 0c-0.13,1.47 -1.01,3.22 -1.05,4.68l-0.34 0c-0.03,-1.38 -0.86,-3.21 -1.05,-4.68zm-1.91 -7.82c1.41,0.12 1,0.35 3.48,0.35 1.22,0 1.78,-0.26 2.78,-0.35 -0.03,1.32 -0.77,2.7 -0.87,4l-4.52 0c-0.11,-1.31 -0.83,-2.67 -0.87,-4zm11.12 -2.95c0.31,-0.46 0.75,-0.93 1.14,-1.46 1.2,-1.64 1.98,-3.88 1.98,-6.18 1.06,-0.5 1.91,-0.14 1.91,-2.77l4.34 17.01c-0.71,-0.47 -1.29,-1.24 -2.13,-1.86 -0.83,-0.62 -1.54,-1.03 -2.42,-1.58l-3.62 -2.28c-0.46,-0.28 -0.9,-0.46 -1.2,-0.88zm-25.35 6.77l4.26 -17.2c0.21,2.61 0.65,2.15 1.99,2.79 0,4.03 1.45,5.32 3.12,7.82 -1.6,1.07 -3.26,1.96 -4.93,3.05 -1.92,1.26 -2.8,1.65 -4.44,3.54zm10.07 -15.1c1.18,-0.1 3.3,-1.47 3.99,-2.78 2.69,1.8 4.11,2.31 7.54,2.88 1.01,0.17 2.17,0.22 3.05,0.42 0,2.07 -0.64,3.88 -2.03,5.26 -3.65,3.63 -9.97,2.59 -12.09,-2.43 -0.47,-1.12 -0.46,-1.83 -0.46,-3.35zm25 0.35c0.75,0.01 1.91,0.33 2.6,0.33 0.63,-0.01 1.95,-0.28 2.61,-0.33 0,0.94 -0.34,1.88 -0.56,2.74l-1.99 7.9c-0.01,0.03 -0.03,0.08 -0.06,0.12l-2.6 -10.76zm-40.8 0c0.71,0.01 1.97,0.29 2.62,0.31 0.69,0.02 2.01,-0.3 2.76,-0.31l-2.6 10.76 -2.78 -10.76zm13.89 -3.65c0,-1.95 -0.03,-3.02 0.45,-4.58 0.35,-1.13 1.14,-2.43 1.85,-3.19 3.89,-4.19 9.91,-4.19 13.8,0 2.17,2.33 2.3,4.74 2.3,7.94 -3.18,-0.26 -8.48,-0.64 -10.56,-2.98 -0.87,-0.98 -0.17,-2.57 -2.46,-2.57 -2.03,0 -1.58,2.2 -2.15,3.23 -0.89,1.63 -1.72,1.43 -3.23,2.15zm22.22 -7.64c2.53,-0.21 6.19,-2.38 8.33,-3.82 2.33,3.47 5.67,3.63 6.43,4 0,6.5 -7.66,10.29 -12.63,5.34 -1.34,-1.34 -2.13,-2.89 -2.13,-5.52zm-40.8 0c3.35,-0.28 6.5,-2.76 8.51,-3.82 0.17,0.65 0.65,0.91 1.08,1.35 1.27,1.27 3.15,2.47 5.17,2.47 0,1.44 -0.11,2.33 -0.75,3.59 -0.78,1.55 -2.09,2.9 -3.71,3.58 -4.88,2.07 -10.3,-1.38 -10.3,-7.17zm38.89 -3.47c0,-5.35 2.01,-9.34 6.94,-10.6 3.06,-0.78 6.19,0.01 8.49,2.12 1.04,0.95 2.15,2.43 2.56,3.86 0.5,1.74 0.41,2.66 0.41,4.79 -0.47,-0.22 -0.68,-0.15 -1.28,-0.27 -6.05,-1.26 -2.75,-5.28 -6.01,-5.28 -0.69,0 -0.97,0.24 -1.35,0.55 -3.36,2.74 -4.9,3.7 -9.76,4.83zm-40.62 0c0,-4.05 0.28,-6.25 3.52,-8.98 2.5,-2.11 6.56,-2.49 9.72,-0.97 3.92,1.9 5.16,5.3 5.16,10.12 -0.78,-0.37 -2.68,0.01 -4.56,-1.86 -1.62,-1.59 -0.48,-3.69 -2.91,-3.69 -1.14,0 -2.53,1.86 -4.97,3.18 -0.92,0.51 -1.67,0.91 -2.73,1.27l-3.23 0.93zm-3.82 -2.61l0 4.87c0,1.52 1.32,1.22 1.72,1.92 0.22,0.38 0.16,0.93 0.23,1.5 0.41,3.17 1.97,4.47 3.08,6.13 -1.27,0.67 -7.08,4.2 -8.2,5.33 -2.51,2.53 -4.3,5.41 -4.3,9.42l0 19.97c0,0.61 0.39,1.17 0.79,1.46 0.47,0.34 1.08,0.45 1.82,0.45l17.7 0 0 8.68c0,1.52 0.92,2.43 2.43,2.43l36.12 0c1.51,0 2.43,-0.91 2.43,-2.43l0 -8.68 17.7 0c1.35,0 2.61,-0.57 2.61,-1.91l0 -19.97c0,-3.89 -1.77,-6.86 -4.21,-9.33 -1.13,-1.14 -6.71,-4.59 -8.29,-5.42l1.56 -2.09c0.49,-0.72 0.84,-1.53 1.16,-2.49 0.47,-1.42 0.34,-2.61 0.59,-3.05 0.4,-0.7 1.72,-0.4 1.72,-1.92 0,-6.18 0.43,-8.81 -4.21,-13.5 -4.79,-4.85 -13.59,-4.45 -18.14,0.51 -0.94,1.03 -2.03,2.57 -2.55,3.88 -0.61,1.53 -1.14,3.42 -1.14,5.46 -1.66,-0.88 -3.03,-1.65 -5.1,-2.01 -2.18,-0.39 -4.03,-0.22 -6.16,0.47 -1.37,0.43 -2.16,0.92 -3.32,1.54 0,-5.96 -3.86,-11.26 -9.58,-12.81 -6.13,-1.67 -12.14,1.13 -15.02,6.44 -0.65,1.21 -1.44,3.4 -1.44,5.15z"/>
 </g>
</svg>
