<svg width="137" height="136" viewBox="0 0 137 136" fill="none" xmlns="http://www.w3.org/2000/svg">
<path d="M0.604645 8C0.604645 3.58172 4.18637 0 8.60464 0H128.605C133.023 0 136.605 3.58172 136.605 8V136H0.604645V8Z" fill="#FF9800"/>
<g clip-path="url(#clip0)">
<path fill-rule="evenodd" clip-rule="evenodd" d="M68.5505 105.577L68.9809 106.396L69.4112 105.577C70.4641 103.572 73.0111 101.863 74.9219 100.702C77.791 98.9622 80.8657 97.4798 83.8403 95.9097C86.6985 94.4007 89.646 92.7695 92.1848 90.7796C94.3636 89.0714 96.4342 86.9248 97.2651 84.2522C97.5222 83.4286 97.6522 82.5785 97.6522 81.7151C97.6522 77.7035 96.2339 74.0984 94.7101 70.4482C93.5733 67.7277 91.952 64.2501 92.2903 61.2587C92.6341 58.2115 94.8021 56.1181 97.3084 54.5294L97.7523 54.2478L89.3834 43.6716L89.2075 43.637C87.9435 43.3979 86.6768 43.1828 85.4074 42.9941L82.2488 35.8397L83.3666 36.0098L84.5386 35.0268L85.3803 33.2521C85.5265 32.9626 85.4372 31.6183 85.4372 31.1879C84.7876 31.0604 81.1851 30.3351 80.9009 30.3723L78.3404 31.5147V30.0455L73.8068 29.6869V29.7028L72.2478 31.1534L71.2463 31.1294V29.6072L66.7154 29.6151V31.1427L65.7302 31.1693L64.155 29.7055L59.6241 30.0668V31.52L57.0636 30.3909C56.7659 30.3537 53.1932 31.0604 52.53 31.1879C52.53 31.6183 52.4407 32.9599 52.5842 33.2495C53.6343 35.3907 52.8738 34.607 54.744 35.9832L55.6156 35.8504L52.53 43.0632C51.2742 43.2385 50.0183 43.4298 48.7651 43.6397L48.5811 43.6716L40.2095 54.2504L40.6534 54.532C43.157 56.1207 45.3277 58.2142 45.6714 61.2614C46.0098 64.2528 44.3885 67.7277 43.2517 70.4508C41.7279 74.1037 40.3096 77.7062 40.3096 81.7177C40.3096 82.5812 40.4395 83.4286 40.6967 84.2549C41.5276 86.9248 43.5982 89.0714 45.777 90.7823C48.3158 92.7721 51.2633 94.4033 54.1215 95.9123C57.0934 97.4824 60.1708 98.9648 63.0399 100.705C64.9507 101.863 67.4977 103.572 68.5505 105.577ZM75.2142 58.8332L73.3223 59.2211C72.4616 59.1148 72.1693 60.1934 72.0908 60.6424C72.3344 60.576 72.7972 60.4803 73.0408 60.4139C73.4928 60.4511 73.8393 60.5175 74.0748 60.6105C74.5241 60.7646 74.9328 60.9585 75.2954 61.187C76.1859 62.4303 76.2049 65.7724 76.5459 67.664C76.665 68.3202 76.5649 68.1953 76.6677 67.6268C76.7895 66.952 77.0412 66.2772 77.2794 65.5918L76.4187 62.7172L76.7354 62.6269L77.458 65.0631C77.5663 64.723 77.6665 64.383 77.7341 64.0376L76.8112 62.162L77.1089 62.0239L77.818 63.4877C77.8288 63.3841 77.8343 63.2831 77.8397 63.1795C77.8722 62.1859 77.2361 61.0887 76.9925 60.127C77.634 59.8454 78.4405 59.8294 79.0468 59.4416C79.1497 59.3752 79.1605 59.2317 79.128 59.1042L77.7558 59.4256L77.6827 59.1121L78.9819 58.8013C79.0008 58.6844 78.9196 58.4745 78.7789 58.3656L77.5663 58.9342L77.4256 58.6419L78.5434 58.1239C78.4784 57.9937 78.2971 57.8741 78.178 57.8954C77.6475 57.9937 76.3321 58.9076 75.2142 58.8332ZM73.2357 59.9517C73.1329 59.9437 73.0544 59.8507 73.0598 59.7418C73.0679 59.6355 73.1572 59.5532 73.2628 59.5611C73.3683 59.5691 73.4441 59.6621 73.4387 59.771C73.4306 59.8773 73.3413 59.9596 73.2357 59.9517ZM69.7658 57.0878C69.0025 57.101 68.9728 57.0825 69.7225 57.2976C71.1029 57.6935 72.4535 57.9432 73.639 58.7402L75.1845 58.4241L75.2413 58.4267C75.2684 58.4294 75.2982 58.4294 75.3252 58.4294C74.8001 58.092 74.2615 57.8316 73.7121 57.635C72.4427 57.1834 71.1191 57.0639 69.7658 57.0878ZM78.9277 57.9804C78.7951 57.6775 78.4378 57.4331 78.1022 57.4969C77.8288 57.55 77.5041 57.7147 77.2523 57.8316C76.9221 57.9857 76.5892 58.1425 76.2428 58.2594C76.1426 58.2939 76.0371 58.3258 75.9315 58.3523C75.5553 58.0814 75.1601 57.8423 74.7433 57.6377L78.3323 54.0724C79.3364 54.9624 80.2188 55.9959 80.9794 57.1382L79.2498 58.2886C79.1659 58.1611 79.055 58.0521 78.9277 57.9804ZM79.3906 58.6393L81.1796 57.4491C81.1526 57.4039 81.1228 57.3614 81.093 57.3162C81.748 58.3284 82.311 59.4203 82.7793 60.5707C82.7387 60.568 82.6981 60.568 82.6575 60.568C80.8386 60.5866 79.9292 61.543 79.2607 62.5871L78.2511 63.0068C78.2213 62.0876 77.772 61.2401 77.4932 60.3714C78.086 60.1881 78.6923 60.1482 79.2742 59.779C79.6315 59.5532 79.6233 59.0298 79.4014 58.7163C79.3987 58.6897 79.396 58.6658 79.3906 58.6393ZM78.2375 63.4133L78.9359 63.1237C78.6354 63.6391 78.3648 64.1412 78.0427 64.5264C78.1076 64.2767 78.1618 64.0217 78.1997 63.7613C78.2159 63.6471 78.2294 63.5302 78.2375 63.4133ZM77.8072 65.3022C79.3879 64.2262 79.5015 61.0064 82.6629 60.9745C82.7576 60.9745 82.8523 60.9824 82.9471 60.9957C83.529 62.5153 83.9539 64.1279 84.2192 65.783C84.1569 65.7751 84.0947 65.7644 84.0297 65.7538C83.6291 65.6874 83.2313 65.6077 82.8334 65.5307C82.3733 65.4403 81.905 65.35 81.4395 65.2969C81.2608 65.2756 81.0822 65.2809 80.9063 65.3155C80.0618 65.4749 79.3446 66.2958 78.787 66.8856C77.9263 67.7968 77.117 68.5885 76.0344 69.258L75.3875 69.6033L68.9619 69.5289C69.7956 67.6826 72.3155 64.7443 73.6417 64.9568C74.2886 65.0604 75.1547 65.3234 75.8611 65.4908C75.9369 66.2426 76.01 67.0025 76.1426 67.7384C76.1913 68.0014 76.1697 68.53 76.6271 68.5141C77.0764 68.4982 77.025 67.9668 77.0737 67.7012C77.2226 66.8749 77.5392 66.0992 77.8072 65.3022ZM75.8178 65.0657C75.5039 64.9887 75.2061 64.9037 75.0383 64.8585L74.8651 64.8134L75.7502 64.4467C75.7691 64.5982 75.7853 64.739 75.7989 64.8638L75.8178 65.0657ZM75.6987 64.0642L74.2561 64.6619C74.0721 64.6194 73.8907 64.5822 73.7067 64.553C73.0598 64.4494 72.3669 64.8638 71.877 65.2331C71.5657 65.4669 71.268 65.7326 70.9838 66.0168L67.3704 67.5152C67.2649 67.292 67.1431 67.0768 67.0078 66.8696L75.0356 61.5324C75.3902 62.1328 75.5851 63.2008 75.6987 64.0642ZM74.7 61.3119L66.7966 66.5668C66.6478 66.3702 66.4881 66.1815 66.3149 66.0062L71.7065 60.653L71.6171 61.1604L72.2424 60.9904C72.5022 60.9213 72.8162 60.8841 73.0787 60.8204C73.3494 60.8443 73.6823 60.8868 73.9232 60.9824L73.9313 60.9851L73.9421 60.9878C74.1993 61.0807 74.4537 61.187 74.7 61.3119ZM71.8986 59.9331L66.0442 65.7485C65.8602 65.5838 65.668 65.4324 65.465 65.2916L70.4316 57.914C71.3411 58.1584 72.2099 58.3922 72.9975 58.8252C72.5401 58.8996 72.2126 59.229 72.0123 59.6754C71.969 59.7577 71.9338 59.8454 71.8986 59.9331ZM70.0446 57.8077L65.1456 65.087C65.0076 65.0046 64.8668 64.9276 64.7207 64.8585V64.189L70.3477 50.6693C71.7498 50.7915 73.0517 51.097 74.2453 51.5646L70.7943 56.6972C70.4506 56.6813 70.1041 56.6786 69.7577 56.6866C69.4356 56.6919 68.832 56.6149 68.7698 57.0665C68.7075 57.5181 69.3003 57.6005 69.6088 57.6882C69.755 57.728 69.9011 57.7679 70.0446 57.8077ZM71.2274 56.7238L74.6026 51.708C75.872 52.2447 77.0196 52.9646 78.0481 53.828L74.3806 57.4703C74.2101 57.3959 74.0342 57.3269 73.8555 57.2604C73.0002 56.9523 72.1206 56.7929 71.2274 56.7238ZM74.6567 77.7221L74.654 77.7274L74.6269 77.7965L74.5728 77.8523L73.8609 78.5908L73.7202 77.1722L73.7175 77.0659L73.7364 76.9809C74.0748 76.5638 74.4591 76.2238 74.903 75.9661L74.2967 76.5612L74.5295 76.7896L75.29 76.0431C74.9815 76.5691 74.8164 77.0872 74.6567 77.7221ZM76.6406 76.7152C76.776 77.0739 76.8707 77.4458 76.9817 77.8576L76.9952 77.8789V77.9187L76.6975 78.5962C76.6758 77.9692 76.6569 77.3422 76.6406 76.7152ZM76.7218 79.356L77.0142 78.6918L77.0033 79.619L77.3308 79.6243L77.3417 78.7423L77.661 79.5738L77.9696 79.4596L77.6313 78.5776L78.2673 79.2364L78.5055 79.0133L78.3972 78.9017L78.492 77.9506L78.741 78.8778L79.0604 78.7954L78.8168 77.8921L79.3554 78.652L79.626 78.4686L79.0279 77.6238L79.8534 78.1472L80.032 77.8762L79.2552 77.3847L79.5178 77.4379L79.6125 77.6026L79.8047 77.4963L80.1565 77.568L80.2242 77.2519L80.1295 77.2333L80.3271 77.0473L79.5286 76.2291L80.5057 76.7896L80.6708 76.5107L79.599 75.897L80.7953 76.1627L80.8684 75.8492L79.8805 75.6313L80.89 75.5968L80.8792 75.2753L79.7533 75.3125L80.8359 74.9645L80.7331 74.659L79.6585 75.0043L80.2053 74.6404H80.208V74.6377L80.6113 74.3694L80.4272 74.1011L80.1268 74.3003L79.3256 74.1755L80.3677 74.0639L80.3325 73.7424L79.1497 73.8699L80.2161 73.413L80.0835 73.1181L79.0089 73.5777L79.894 72.8259L79.6802 72.5815L78.7978 73.3306L79.4258 72.3397L79.147 72.1697L79.1334 72.1909L79.0901 72.0873L78.7762 72.2148L78.8222 72.0448L78.7058 72.0156L78.9196 71.8588L78.7247 71.5985L77.6989 72.345L78.4595 71.3727L78.1997 71.1761L77.3714 72.2361L77.8261 70.9928L77.5176 70.8838L77.1332 71.9306L77.2334 70.8254L76.9059 70.7962L76.7976 72.0156L76.554 70.8041L76.2319 70.8679L76.4728 72.0687L76.0858 71.3328L76.2292 71.0592L75.9369 70.9104L75.9017 70.9795L75.8909 70.9582L75.5986 71.107L75.7177 71.3355L75.355 72.0262L75.5959 70.8254L75.2738 70.7616L75.0302 71.9731L74.9219 70.7537L74.5944 70.7829L74.6946 71.8881L74.3102 70.8413L74.0017 70.9503L74.4564 72.1909L73.6282 71.1309L73.3683 71.3275L74.1289 72.2999L73.1031 71.5533L72.9082 71.8137L73.1789 72.0103L73.0408 72.0475L73.076 72.1803L72.7404 72.0448L72.6754 72.1962L72.4373 72.3424L73.0652 73.3333L72.1828 72.5841L71.9663 72.8285L72.8514 73.5804L71.7768 73.1208L71.6469 73.4157L72.7133 73.8726L71.5305 73.7451L71.4953 74.0665L72.5374 74.1781L71.8201 74.2897L71.5414 74.1037L71.3573 74.3721L71.6442 74.5633L71.6577 74.643L71.7444 74.6298L72.31 75.007L71.2355 74.6616L71.1327 74.9672L72.2153 75.3152L71.0894 75.278L71.0785 75.5994L72.0881 75.634L71.1002 75.8518L71.1733 76.1653L72.3696 75.8996L71.2978 76.5133L71.4629 76.7923L72.44 76.2317L71.6415 77.05L71.8391 77.2359L71.7444 77.2545L71.812 77.5707L72.1639 77.499L72.3561 77.6052L72.4508 77.4405L72.7133 77.3874L71.9365 77.8789L72.1152 78.1498L72.9434 77.6265L72.3452 78.4713L72.6159 78.6546L73.1545 77.8948L72.9109 78.7981L73.2276 78.8804L73.4793 77.9532L73.574 78.9043L73.4658 79.0159L73.704 79.2391L74.3373 78.5829L73.999 79.4649L74.3075 79.5791L74.6269 78.7476L74.6377 79.6296L74.9652 79.6243L74.9517 78.6971L75.2115 79.2896L75.1412 81.3538C73.1383 80.6949 71.2382 79.9378 69.912 78.559C66.8724 75.4002 67.384 72.5044 68.648 70.3286L68.6507 70.3233L68.6534 70.318L68.6561 70.3127L68.6588 70.3074L68.6615 70.302L68.6642 70.2967L68.6669 70.2914L68.6696 70.2861L68.6723 70.2808L68.675 70.2755L68.6777 70.2702L68.6805 70.2648L68.6832 70.2595V70.2569L68.7373 70.1665L68.74 70.1612L68.7427 70.1586L68.7481 70.1506V70.148L68.7508 70.1426L68.8077 70.0523V70.0497L68.8104 70.0443L68.8591 69.9646L68.8645 69.9593L68.8672 69.954L68.8699 69.9487L69.6115 69.9567L84.544 70.1294V70.124V70.1294C84.5196 74.9539 83.2015 79.7598 80.5815 83.3489C79.4203 82.7512 78.1157 82.3155 76.7976 81.8984C76.7787 81.0403 76.7489 80.1981 76.7218 79.356ZM76.8193 82.3075C78.0535 82.7007 79.2634 83.1125 80.3406 83.6624C77.7504 87.0337 73.9638 89.2547 68.9728 89.2547H68.8943H68.9132H68.9241H68.9268H68.9295H68.9484H68.9511C70.3017 86.4254 69.2732 83.5721 67.8955 80.8676C67.1052 79.3108 66.1985 77.8045 65.5651 76.3778C65.151 75.4454 64.7098 74.2445 64.8804 73.1925C65.0022 72.4407 65.4244 71.7898 66.074 71.3886C66.6315 71.0459 67.1891 70.7351 67.8035 70.5093L67.8089 70.5066L67.8712 70.4853C67.9524 70.4561 68.0336 70.4296 68.1148 70.403C66.5124 73.3944 67.1133 76.253 69.5926 78.8299C71.0054 80.2991 73.0192 81.0855 75.106 81.7656L74.995 85.0572H76.8788L76.8734 84.7278C76.8653 83.9201 76.8436 83.1125 76.8193 82.3075ZM75.2278 78.5271L74.9598 77.9187L74.9571 77.8496C74.9679 77.8151 74.9788 77.7806 74.9869 77.746C75.0762 77.398 75.1682 77.0872 75.2873 76.787L75.2278 78.5271ZM77.9994 74.3455L78.086 74.3056L78.2078 74.3216L79.7262 74.558L78.6165 75.2966L78.5705 75.3099L78.5299 75.2966C78.1293 75.1637 77.7098 75.1 77.2848 75.0867L78.1753 74.9379L78.1185 74.6191L77.071 74.7945C77.385 74.6085 77.7179 74.4544 77.9994 74.3455ZM76.5107 74.7812L77.5419 73.6176L77.2929 73.405L76.3862 74.4305C76.5161 74.0533 76.6921 73.6919 76.9221 73.3439L76.9708 73.2775L77.0439 73.2483L78.2917 72.7488L77.9669 73.9603L77.9588 74.0107L77.91 74.0347C77.4716 74.202 76.9411 74.4544 76.5107 74.7812ZM78.224 76.965L78.2511 77.0579L78.2375 77.1695L78.0968 78.5882L77.385 77.8496L77.3065 77.7965L77.274 77.6796C77.1251 77.1297 77.0033 76.6515 76.7679 76.1839L77.385 76.8109L77.6231 76.5877L76.933 75.8864C77.4337 76.1494 77.8613 76.5027 78.224 76.965ZM76.1372 74.1569V72.9826H75.8097V74.4092C75.6635 73.9656 75.4633 73.5432 75.1899 73.1367L75.1764 73.0543L75.9017 71.6755L76.6515 73.1022L76.6569 73.1473L76.6406 73.1845C76.4295 73.498 76.2644 73.8221 76.1372 74.1569ZM78.4054 75.5968L78.4757 75.6313L78.5163 75.7004L79.2958 77.0606L78.5921 76.9171L78.5894 76.9145L78.5786 76.8985C78.2321 76.4257 77.8316 76.0511 77.3606 75.7615L78.0129 75.9714L78.1157 75.6659L77.3281 75.4108C77.6989 75.4268 78.0616 75.4852 78.4054 75.5968ZM78.3972 72.3556L78.0102 72.5097L78.4405 72.1962L78.3972 72.3556ZM78.6733 72.5921L78.9413 72.4858L78.5244 73.142L78.6733 72.5921ZM74.9003 73.2961C75.1385 73.6468 75.3171 74.0081 75.4524 74.3853L74.5538 73.4768L74.3184 73.7026L75.5012 74.9007L75.4903 74.8981C75.0383 74.5129 74.432 74.2206 73.9421 74.032L73.8853 73.955L73.5497 72.709L74.7731 73.2005L74.8516 73.2377L74.9003 73.2961ZM73.8203 74.3295L74.746 74.7732L73.823 74.6191L73.7662 74.9379L74.6567 75.0867C74.2372 75.1053 73.823 75.1744 73.4279 75.2992L73.3846 75.3045L73.3386 75.2939L72.2099 74.5447L73.6444 74.3216L73.7364 74.303L73.8203 74.3295ZM74.6026 75.7668C74.156 76.0484 73.7716 76.4071 73.4252 76.8454L73.39 76.88L73.3629 76.9145L72.6565 77.0579L73.436 75.6977L73.4874 75.634L73.5497 75.5968C73.9042 75.4879 74.275 75.4268 74.6486 75.4082L73.823 75.6818L73.9286 75.9873L74.6026 75.7668ZM72.5753 76.5452L72.2288 77.1483L71.9284 77.2094L72.5753 76.5452ZM73.1707 72.5575L73.3277 73.142L72.8838 72.4407L73.1707 72.5575ZM73.4468 72.3185L73.4062 72.1697L73.8095 72.4646L73.4468 72.3185ZM79.7262 77.1483L79.3797 76.5452L80.0266 77.2094L79.7262 77.1483ZM62.2955 57.3003L62.2766 52.2154C63.3268 51.6575 64.4717 51.2272 65.7113 50.9562L63.6353 61.4314V60.1668H63.2537V59.6754H63.5568V59.1706C63.5568 58.6738 63.2158 58.3178 62.7854 58.1292C62.7963 58.0814 62.8017 58.0309 62.8017 57.9777C62.799 57.6616 62.5878 57.3933 62.2955 57.3003ZM63.5785 61.7104L63.4161 62.5339H63.2456L63.1941 61.7104H63.5785ZM63.8004 62.5313L66.1092 50.8712C67.0159 50.6985 67.9686 50.6081 68.9701 50.6081C69.1595 50.6081 70.0202 50.6427 69.9553 50.6374L64.7234 63.2087V62.5313H63.8004ZM64.7234 65.3288C66.3095 66.1523 67.411 67.7118 67.5166 69.5236H67.4056H67.2703H66.7371H66.3392H66.0659H65.8737H65.4866H65.3405H65.3324H64.7234V65.3288ZM59.4698 69.5289L56.7984 69.5316C56.8985 67.7623 57.9487 66.2347 59.4698 65.3952V69.5289ZM59.4698 64.917C59.3561 64.9754 59.2452 65.0392 59.1369 65.1029L55.4992 59.7869C55.8565 59.0006 56.2625 58.2461 56.7118 57.5314L59.4698 64.0164V64.917ZM59.4698 63.0573L56.9581 57.1515C57.5238 56.2987 58.1571 55.5097 58.8581 54.7897L60.455 62.5313H59.4698V63.0573ZM60.8394 62.5313L60.6688 61.7077H60.9991L60.9476 62.5313H60.8394ZM60.5281 61.0223L59.1775 54.4736C59.9976 53.6819 60.907 52.9912 61.9004 52.4227L61.9193 57.279C61.5864 57.3481 61.3374 57.635 61.3374 57.9804C61.3374 58.0362 61.3428 58.0893 61.3563 58.1398C60.9368 58.3284 60.6066 58.6844 60.6066 59.1706V59.6754H60.9097V60.1668H60.5281V61.0223ZM62.8287 60.1668H62.3091L62.3064 59.6754H62.8287V60.1668ZM61.8706 60.1668H61.3347V59.6754H61.8706V60.1668ZM53.5315 67.9642L56.571 68.5566C56.6306 68.3202 56.7036 68.0864 56.793 67.8632L53.61 66.5721C53.5504 67.029 53.5044 67.4886 53.4692 67.9509L53.5315 67.9642ZM53.4449 68.3228L56.4925 68.9179C56.4573 69.1198 56.433 69.3244 56.4194 69.5316C55.4126 69.5316 54.4057 69.5316 53.3989 69.5316C53.4043 69.1278 53.4205 68.724 53.4449 68.3228ZM53.6614 66.1922L53.6668 66.147C53.7345 65.6529 53.8238 65.164 53.9239 64.6805L57.2964 66.8856C57.1638 67.0901 57.0447 67.3027 56.9418 67.5205L53.6614 66.1922ZM84.5521 69.598H84.5494H84.5196C81.767 69.598 79.0089 69.598 76.2536 69.598C79.0468 67.8792 79.8778 65.52 81.3908 65.698C82.2515 65.799 83.4776 66.0965 84.2814 66.2001V66.1975H84.2841V66.2001V66.1975H84.2869C84.4465 67.308 84.5359 68.4371 84.5521 69.5661V69.5927V69.598ZM68.5154 69.5263H68.2745H67.8955C67.882 69.3217 67.8576 69.1198 67.8225 68.9232L68.9241 68.7001C68.7671 68.9737 68.6263 69.2527 68.5154 69.5263ZM69.1839 68.267L67.744 68.5593C67.6844 68.3175 67.6086 68.0837 67.5166 67.8552L70.3775 66.6704C70.2882 66.774 70.2016 66.8776 70.1177 66.9812C69.8118 67.3584 69.4816 67.8021 69.1839 68.267ZM53.388 69.9514C53.388 69.9487 53.388 69.946 53.388 69.9434L53.3853 69.9328H53.4043H53.5071H53.7967H53.7778H53.7751H53.748C58.0894 69.9328 63.7436 69.9301 68.2718 69.9328C67.7629 70.0895 67.3136 70.2595 66.9212 70.4428C66.8806 70.4614 66.8427 70.48 66.8048 70.4986C66.683 70.5571 66.5666 70.6182 66.4556 70.6793C66.323 70.751 66.1985 70.8254 66.0821 70.9024C64.9128 71.6623 64.4554 72.5894 64.4446 73.6415C64.4392 74.1144 64.5231 74.6112 64.6747 75.1292L64.6774 75.1372C64.6936 75.1903 64.7098 75.2461 64.7261 75.2992L64.7315 75.3178C64.791 75.5038 64.856 75.6898 64.9291 75.881C65.1673 76.5027 65.4596 77.1031 65.76 77.6982C65.9792 78.1259 66.2066 78.551 66.434 78.9761C67.43 80.8278 68.5316 82.7671 68.9755 84.8393C69.238 86.0667 69.2516 87.326 68.8185 88.5321L68.8158 88.5374L68.8104 88.5534C68.7617 88.6862 68.7102 88.8164 68.6534 88.9465C68.6074 89.0475 68.5614 89.1458 68.5099 89.2441H68.5018H68.4937H68.4856C68.0985 89.2335 67.7142 89.2069 67.3298 89.167C65.2593 88.9519 63.2456 88.3036 61.4673 87.2011C55.732 83.6332 53.1932 76.338 53.388 69.9514ZM53.9239 64.6805C53.9916 64.3591 53.9916 64.3591 53.9239 64.6805V64.6805ZM54.0078 64.29C54.1378 63.7108 54.2866 63.137 54.4544 62.5738L57.9812 66.0221C57.8107 66.1975 57.6537 66.3835 57.5075 66.5774L54.0078 64.29ZM54.5789 62.1753C54.7955 61.4978 55.0445 60.8337 55.3206 60.1908L58.8229 65.3075C58.6226 65.4483 58.4305 65.5997 58.2518 65.7645L54.5789 62.1753ZM84.544 70.674L84.5467 70.6076L84.544 70.674ZM68.6426 101.871L68.9809 102.193L69.3192 101.871C70.6049 100.641 72.126 99.6184 73.6498 98.6939C76.5757 96.9192 79.6666 95.4288 82.6927 93.8295C87.0503 91.5288 95.2351 87.3127 95.2351 81.7177C95.2351 78.0701 93.8575 74.6669 92.4717 71.3435C91.1373 68.1448 89.5296 64.5344 89.9302 61.001C90.255 58.1212 91.8275 55.8737 94.0442 54.0406L94.4015 53.7457L88.0436 45.8288L87.865 45.7969C75.355 43.5467 62.6149 43.8071 50.0914 45.8182L49.9073 45.8474L43.563 53.7483L43.9203 54.0432C46.1343 55.8763 47.7068 58.1239 48.0343 61.0037C48.4349 64.5371 46.8272 68.1448 45.4928 71.3461C44.1016 74.6696 42.7266 78.0701 42.7266 81.7177C42.7266 82.3447 42.8214 82.9637 43.0081 83.5641C44.4156 88.0805 51.2525 91.7095 55.2691 93.8295C58.2951 95.4262 61.3861 96.9192 64.312 98.6939C65.8358 99.6184 67.3569 100.641 68.6426 101.871ZM51.2606 56.235L51.7478 57.7944L53.3366 57.7918L52.0482 58.7535L52.5409 60.313L51.2579 59.3459L49.975 60.313L50.4676 58.7535L49.1792 57.7918L50.768 57.7944L51.2606 56.235ZM49.9235 66.8404L50.4107 68.3999L51.9995 68.3972L50.7112 69.3589L51.2038 70.9184L49.9208 69.9514L48.6379 70.9184L49.1305 69.3589L47.8422 68.3972L49.4309 68.3999L49.9235 66.8404ZM48.1913 76.3433L48.6785 77.9028L50.2673 77.9001L48.9789 78.8618L49.4742 80.4213L48.1913 79.4543L46.9084 80.4213L47.401 78.8618L46.1126 77.9001L47.7014 77.9028L48.1913 76.3433ZM68.8753 92.8784L69.3625 94.4379L70.9513 94.4352L69.663 95.3969L70.1583 96.9564L68.8753 95.9894L67.5924 96.9564L68.0877 95.3969L66.7994 94.4352L68.3881 94.4379L68.8753 92.8784ZM78.4595 89.0209L78.9467 90.5804L80.5355 90.5777L79.2471 91.5395L79.7424 93.0989L78.4595 92.1319L77.1766 93.0989L77.6719 91.5395L76.3835 90.5777L77.9723 90.5804L78.4595 89.0209ZM59.2019 89.0209L58.7147 90.5804L57.1259 90.5777L58.4142 91.5395L57.9216 93.0989L59.2046 92.1319L60.4875 93.0989L59.9949 91.5395L61.2833 90.5777L59.6945 90.5804L59.2019 89.0209ZM51.5827 83.9573L51.0955 85.5168L49.5067 85.5141L50.7924 86.4758L50.2998 88.0353L51.5827 87.0683L52.8656 88.0353L52.373 86.4758L53.6614 85.5141L52.0726 85.5168L51.5827 83.9573ZM53.0768 42.9862L53.0497 42.9888L53.7345 41.3895L53.7588 41.3868L56.6495 41.0468L56.2543 42.593L56.2056 42.5983L56.1569 42.6036L56.0838 42.6116L56.0053 42.6249L55.9539 42.6302L55.9052 42.6355L55.8862 42.6381L55.824 42.6461L55.5533 42.678L55.5046 42.6833L55.418 42.6939L55.4045 42.6966L55.3557 42.7019L55.3449 42.7046L54.8523 42.763L54.8036 42.7683L54.7522 42.7736L54.7034 42.7789L54.6818 42.7816L54.6331 42.7869L54.2541 42.8347H54.2514C54.0187 42.864 53.7859 42.8932 53.5531 42.9251L53.5044 42.9304L53.453 42.9357L53.4422 42.9383L53.0768 42.9862ZM56.7984 42.5372L56.6901 42.5478L57.0853 41.0043C57.7998 40.9326 58.5144 40.8688 59.2316 40.813L59.1802 41.3842L60.4117 41.2832C60.8718 41.246 61.3347 41.2381 61.7948 41.1929L62.623 41.1132L62.6907 40.5872C63.389 40.5527 64.0873 40.5234 64.7856 40.5022L64.6449 41.9501L64.5935 41.9527L64.5204 41.9554L64.3959 41.9607L64.2714 41.966L64.0846 41.974L63.7463 41.9899L63.5243 42.0005L63.3998 42.0059L63.1914 42.0165L63.029 42.0271L62.9045 42.0351L62.78 42.043L62.6555 42.051L62.531 42.059L62.4931 42.0616L62.1142 42.0856L61.9139 42.0988H61.9058L61.7813 42.1068L61.5729 42.1201L61.1615 42.1493H61.1479C60.9882 42.1599 60.8312 42.1732 60.6716 42.1839H60.6607L60.5362 42.1945L60.4117 42.2051C59.3399 42.2875 58.2708 42.3858 57.199 42.4947L57.1692 42.4973L56.7984 42.5372ZM65.059 41.9341L65.197 40.4889L66.258 40.4597L66.323 40.0559L62.7367 40.2073C62.799 39.7238 62.8612 39.2429 62.9262 38.7594L66.7669 38.5867C66.304 39.5723 66.2093 40.8661 66.1065 41.8332L66.0983 41.8969C65.7519 41.9076 65.4054 41.9208 65.059 41.9341ZM70.9324 41.8518C70.7997 40.5181 70.7943 38.066 68.9701 38.066C67.1945 38.066 67.1918 40.5633 67.0727 41.8677C66.886 41.8704 66.6992 41.873 66.5152 41.8783C66.6884 40.2445 66.7994 37.5347 68.9863 37.5347C71.222 37.5347 71.2815 40.1993 71.4575 41.8624C71.2815 41.8571 71.1083 41.8544 70.9324 41.8518ZM71.8743 41.8677C71.8337 41.424 71.7931 40.9352 71.7227 40.4464L72.7512 40.4676L72.8893 41.8916C72.5509 41.8836 72.2126 41.8757 71.8743 41.8677ZM73.3142 41.9049H73.3034L73.1653 40.4783C73.7824 40.4969 74.3996 40.5208 75.0167 40.55L75.0897 41.1159L75.918 41.1956C76.3781 41.2381 76.8409 41.2487 77.3011 41.2859L78.5326 41.3868L78.4757 40.7572C79.2715 40.8157 80.0645 40.8847 80.8576 40.9644L81.2446 42.4655L81.1688 42.4575L80.798 42.4176L80.6735 42.4044C79.6315 42.2981 78.5894 42.2078 77.5474 42.1307L77.4959 42.1254L77.025 42.0935L76.9005 42.0856L76.776 42.0776C75.623 42.0005 74.4672 41.9447 73.3142 41.9049ZM82.127 42.5611C81.9781 42.5425 81.8265 42.5266 81.675 42.508L81.2879 41.0043L84.1867 41.3523L84.8796 42.9197L84.8417 42.9144L84.701 42.8932L84.6279 42.8826L84.5792 42.8746L84.5304 42.8666H84.525L84.3789 42.8454L84.3302 42.8374L84.2814 42.8294L84.092 42.8029L84.0812 42.8002L84.0297 42.7949L83.981 42.7869L83.9025 42.7763L83.8782 42.7736L83.8294 42.7683L83.7807 42.763L83.6914 42.7497L83.6697 42.7471L83.483 42.7232L83.4316 42.7178L83.3828 42.7125L83.1338 42.6806H83.1257L83.0553 42.6727L82.8794 42.6514L82.828 42.6461L82.7793 42.6408L82.4274 42.5983L82.3787 42.593L82.3273 42.5877L82.2812 42.5824H82.2785L82.2271 42.577L82.1784 42.5717L82.127 42.5611ZM66.9915 38.1776L65.3919 38.2201L65.5218 36.6978C67.8225 36.6208 70.1285 36.6102 72.4291 36.6872L72.5563 38.1962L70.9973 38.1643C71.0839 38.2918 71.1597 38.4273 71.2274 38.5708L74.7758 38.7142C74.838 39.1978 74.903 39.6813 74.9652 40.1621L71.6577 40.0399C71.6686 40.0957 71.6767 40.1542 71.6848 40.2126C71.4304 38.6399 70.8403 37.1282 68.9836 37.1282C68.02 37.1282 67.4002 37.5533 66.9915 38.1776ZM61.7434 40.6881L62.1575 40.6483L62.2089 40.2445C62.3307 39.2828 62.4606 38.3211 62.5824 37.3593L62.5987 37.2212L62.5418 37.0937C62.3957 36.7616 62.1304 36.4986 61.7704 36.4029C61.1506 36.2409 60.5552 36.6288 60.2277 37.1202L60.1573 37.2265L60.1465 37.354C60.0572 38.3131 59.8975 39.2615 59.8108 40.2232L59.754 40.8263L60.3711 40.7758C60.8258 40.7386 61.286 40.7307 61.7434 40.6881ZM61.692 40.1781C61.2643 40.2179 60.8773 40.2232 60.3251 40.2657C60.4225 39.1978 60.5633 38.4645 60.6607 37.3965C61.083 36.7616 61.7921 36.6766 62.0655 37.2929C61.9328 38.3476 61.8273 39.126 61.692 40.1781ZM79.2688 31.6502C79.8128 31.7166 80.3568 31.7856 80.8982 31.86V30.9408L79.2688 31.6502ZM72.8893 31.1746C73.1951 31.1852 73.501 31.1959 73.8095 31.2091V30.3059L72.8893 31.1746ZM65.0942 31.1906C64.7802 31.2012 64.469 31.2145 64.1577 31.2277V30.3059L65.0942 31.1906ZM57.0663 30.9408L58.7417 31.6688C58.1815 31.7352 57.6239 31.8042 57.0663 31.8786V30.9408ZM56.571 32.4365V30.9621C55.3855 31.1507 54.2054 31.3606 53.0253 31.5864C53.0253 33.2521 52.8684 32.742 53.6046 34.1421L53.6127 34.1315C58.5523 33.3531 63.5054 32.9041 68.5126 32.8882C73.8285 32.8722 79.0874 33.3504 84.3383 34.166C85.1015 32.7049 84.9419 33.2973 84.9419 31.5837C83.7591 31.3526 82.5736 31.1374 81.3935 30.9435V32.4126C80.208 32.2453 79.0279 32.0991 77.8478 31.9716V30.4865C76.665 30.3723 75.4822 30.2793 74.3021 30.2049V31.7139C73.1166 31.6634 71.9365 31.6262 70.7564 31.6076V30.088C69.5709 30.0801 68.3908 30.0801 67.2108 30.0933V31.6156C66.0253 31.6422 64.8452 31.682 63.6651 31.7352V30.2209C62.4796 30.2953 61.2995 30.3909 60.1194 30.5051V32.0035C58.9339 32.1284 57.7538 32.2718 56.571 32.4365ZM78.0535 34.8249C70.3423 34.0226 62.983 34.2245 54.874 35.4758C54.4247 35.1463 54.1432 34.9444 53.6939 34.6123C64.3282 32.9386 73.5118 32.9785 84.2408 34.6469L83.2367 35.505L78.0535 34.8249ZM75.9667 40.6881L75.5526 40.6483L75.5012 40.2445C75.3794 39.2828 75.2494 38.3211 75.1276 37.3593L75.1114 37.2212L75.1682 37.0937C75.3144 36.7616 75.5796 36.4986 75.9423 36.4029C76.5621 36.2409 77.1576 36.6288 77.4851 37.1202L77.5555 37.2265L77.5663 37.354C77.6529 38.3131 77.8153 39.2615 77.9019 40.2232L77.9561 40.8263L77.3389 40.7758C76.8842 40.7386 76.4214 40.7307 75.9667 40.6881ZM76.0154 40.1781C76.4431 40.2179 76.8301 40.2232 77.3823 40.2657C77.2848 39.1978 77.1441 38.4645 77.0466 37.3965C76.6244 36.7616 75.9126 36.6766 75.6419 37.2929C75.7745 38.3476 75.8801 39.126 76.0154 40.1781ZM78.4351 40.3481C80.2702 40.4889 82.0999 40.6669 83.9269 40.9086L84 40.9193L83.3666 39.4873C81.6777 39.2456 79.9779 39.057 78.2754 38.9161C78.3296 39.3359 78.3837 39.753 78.4216 40.1754L78.4351 40.3481ZM78.2213 38.5097C78.9061 38.5655 79.5909 38.6292 80.2756 38.701L79.8967 37.2238C79.2796 37.1521 78.6652 37.0884 78.0454 37.0299L78.0616 37.0538L78.086 37.3062C78.1185 37.71 78.1699 38.1112 78.2213 38.5097ZM77.7639 36.6367L82.2461 37.1123L82.3191 37.1229L81.721 35.768C79.9048 35.5076 78.0833 35.2978 76.2563 35.1437L76.3781 35.8636C76.9194 35.9115 77.4147 36.217 77.7639 36.6367ZM75.964 35.8769L75.8341 35.1065C73.639 34.9311 71.4277 34.8355 69.2218 34.8302V36.2303C71.1489 36.2356 73.076 36.294 75.0004 36.4029C75.2115 36.1665 75.4822 35.9938 75.8043 35.9088C75.8584 35.8955 75.9099 35.8849 75.964 35.8769ZM74.7379 36.7882C74.1072 36.7536 73.4739 36.7244 72.8432 36.7031L72.9705 38.2095C73.5551 38.2281 74.1397 38.2546 74.7216 38.2812C74.6838 37.9943 74.6459 37.7074 74.6107 37.4178L74.5755 37.1415L74.6865 36.8865C74.7027 36.8546 74.7189 36.8227 74.7379 36.7882ZM59.2695 40.4065C57.4832 40.5473 55.6995 40.7333 53.9212 40.9618L54.5329 39.5298L54.5546 39.5272C56.1731 39.3067 57.7971 39.1287 59.4265 38.9852C59.3751 39.3811 59.3264 39.7796 59.2885 40.1781L59.2695 40.4065ZM59.4806 38.5761C58.8744 38.6292 58.2708 38.685 57.6645 38.7461L58.0542 37.2345C58.5847 37.176 59.118 37.1229 59.6485 37.0724L59.6268 37.3089C59.5889 37.7313 59.5348 38.1537 59.4806 38.5761ZM59.911 36.6792L55.5587 37.1335L56.1407 35.776C57.992 35.513 59.846 35.3004 61.7055 35.1437L61.5837 35.8583C60.9287 35.8185 60.3143 36.1718 59.911 36.6792ZM61.987 35.9354L62.1277 35.1091C64.3472 34.9338 66.5747 34.8355 68.8104 34.8302V36.2329C66.7831 36.2462 64.7558 36.3073 62.7313 36.4322C62.5364 36.2037 62.2847 36.0283 61.987 35.9354ZM62.9857 36.8174C63.6921 36.7749 64.3986 36.7403 65.1077 36.7138L64.9778 38.236C64.312 38.2599 63.6461 38.2918 62.9803 38.329C63.0182 38.0262 63.0588 37.7233 63.0967 37.4204L63.1319 37.1441L63.0209 36.8891C63.0101 36.8652 62.9993 36.8413 62.9857 36.8174ZM55.3963 37.5639L55.3747 37.5666L54.717 39.0968L57.2287 38.7913L57.6158 37.2823L55.3963 37.5639ZM83.1014 39.0437L83.1744 39.0543L82.514 37.5559L80.3325 37.2743L80.7114 38.7488L83.1014 39.0437ZM68.9809 105.359C73.0084 97.7029 97.1704 93.2025 97.1704 81.7177C97.1704 70.233 84.9662 61.7927 97.0459 54.1362L89.1155 44.1046C76.4728 41.711 63.0669 41.7242 48.8463 44.1046L40.9159 54.1362C52.9956 61.7927 40.7914 70.233 40.7914 81.7177C40.7914 93.2025 64.9534 97.7029 68.9809 105.359ZM60.5119 63.5514V62.9324H59.8785V63.5514V64.2847H64.3147V63.5514V62.9324H63.6813V63.5514H63.048V62.9324H62.4146V63.5514H61.7813V62.9324H61.1479V63.5514H60.5119ZM62.0682 57.6616C61.8895 57.6616 61.7434 57.8024 61.7434 57.9777C61.7434 57.991 61.7434 58.0017 61.7461 58.0149C61.8571 57.9937 61.968 57.9831 62.079 57.9831C62.1819 57.9831 62.2847 57.9937 62.3876 58.0123C62.3876 58.0017 62.3903 57.991 62.3903 57.9804C62.393 57.8051 62.2468 57.6616 62.0682 57.6616ZM62.0817 58.3816C61.4944 58.3816 61.0153 58.7349 61.0153 59.1679V59.2742H63.1481V59.1679C63.1481 58.7376 62.669 58.3816 62.0817 58.3816ZM60.9368 61.3119H63.2266V60.5653H60.9368V61.3119ZM61.3563 62.5313H62.8369L62.7854 61.7077H61.4078L61.3563 62.5313ZM64.3147 64.7018H59.8785V66.6093H64.3147V64.7018ZM64.3147 67.029H59.8785V69.4891H61.4781V68.1475C61.4781 67.7782 61.7298 67.4435 62.0736 67.4435C62.4173 67.4435 62.669 67.7782 62.669 68.1475V69.4891H64.3147V67.029ZM62.6474 65.1853H61.5458V66.2453H62.6474V65.1853ZM75.6663 75.355L75.6879 75.3285L76.2888 75.7721L76.2996 76.2875L75.65 75.8093L75.6663 75.355ZM75.3631 84.1991L76.0858 84.7331H75.4037L75.3469 84.6906L75.3631 84.1991ZM75.3983 83.2108L76.5378 84.0556L76.5486 84.5684L75.3794 83.7023L75.3983 83.2108ZM75.4308 82.2225L76.5107 83.0222L76.5243 83.5376L75.4145 82.7167L75.4308 82.2225ZM75.466 81.2369L76.4809 81.9861L76.4972 82.5041L75.4497 81.7284L75.466 81.2369ZM75.4984 80.2486L76.4458 80.95L76.462 81.468L75.4795 80.7427L75.4984 80.2486ZM75.5336 79.263L76.4133 79.9139L76.4295 80.4319L75.5174 79.7571L75.5336 79.263ZM75.5661 78.2747L76.3754 78.8751L76.3916 79.3932L75.5472 78.7688L75.5661 78.2747ZM75.6013 77.2891L76.3429 77.839L76.3591 78.3571L75.5824 77.7832L75.6013 77.2891ZM59.7161 80.9473C57.7484 77.0048 58.6064 74.3003 61.489 72.701C60.1762 75.007 62.0492 76.8587 64.8154 79.0079C62.8639 79.4064 61.0911 79.9829 59.7161 80.9473ZM64.1523 81.0323H63.2564C63.2618 81.0164 63.2618 80.9978 63.2618 80.9818V80.4983C63.2618 80.3868 63.1671 80.2938 63.0534 80.2938H62.5581C62.4444 80.2938 62.3497 80.3868 62.3497 80.4983V80.9818C62.3497 81.0004 62.3524 81.0164 62.3551 81.0323H60.3197C61.6811 80.1902 63.3457 79.7199 64.8966 79.4038L65.7573 79.2284L65.0671 78.6918C63.8437 77.7407 61.6486 76.059 61.4781 74.4146C61.424 73.8726 61.5756 73.3652 61.8435 72.8976L62.5581 71.6437L61.2833 72.3503C57.6753 74.3508 57.6374 77.6477 59.2966 81.0323H58.7742V80.7268H58.0759V81.0323H57.291C57.088 81.1891 57.088 81.3857 57.291 81.6194C59.4942 81.9808 61.7786 81.9808 64.1469 81.6194C64.3553 81.4229 64.3553 81.2263 64.1523 81.0323ZM75.6338 76.3008L76.3131 76.8029L76.3267 77.3183L75.6148 76.7923L75.6338 76.3008Z" fill="white"/>
</g>
<defs>
<clipPath id="clip0">
<rect width="57.5428" height="76.7857" fill="white" transform="translate(40.2095 29.6072)"/>
</clipPath>
</defs>
</svg>
