<svg width="39" height="35" viewBox="0 0 39 35" fill="none" xmlns="http://www.w3.org/2000/svg">
<g clip-path="url(#clip0)">
<path fill-rule="evenodd" clip-rule="evenodd" d="M1.63937 6.63217H32.192V25.7834H18.8532C18.1522 25.7834 17.8716 26.0906 17.4585 26.4008C17.0541 26.7046 16.7072 26.9654 16.3087 27.263L10.0174 32.0004C9.82545 32.1446 9.60683 32.3575 9.3893 32.4156L9.38372 26.6087C9.31788 26.0208 8.86028 25.7834 8.19698 25.7834H1.63935V6.63217H1.63937ZM9.09126 1.71393H36.5141V18.108H33.9059V5.96153C33.9059 5.30953 33.5147 4.91827 32.8627 4.91827H9.09126V1.71396V1.71393ZM7.37734 1.34134V4.91825H1.11777C0.556697 4.91825 0 5.10439 0 5.73792V26.7522C0 27.2184 0.413212 27.4974 0.894247 27.4974H7.67544V33.9805C7.67544 34.6395 8.18331 35.1721 8.78481 34.9478C9.13696 34.8165 12.2188 32.4358 12.6574 32.1068C14.386 30.81 16.09 29.5313 17.81 28.2425C19.1755 27.2194 18.4839 27.4974 21.5359 27.4974L32.7157 27.4993C33.1788 27.5036 33.3692 27.49 33.607 27.2728C33.8262 27.0725 33.906 26.7995 33.906 26.3796V19.8219H37.0358C37.6373 19.8219 38.1535 19.5857 38.1535 19.0022V0.819686C38.1535 0.186155 37.5969 -1.52588e-05 37.0358 -1.52588e-05H8.42065C7.59512 -1.52588e-05 7.37739 0.514498 7.37739 1.34131L7.37734 1.34134Z" fill="#FF9800"/>
<path fill-rule="evenodd" clip-rule="evenodd" d="M21.7163 13.2366C20.4253 13.2366 19.3754 14.2677 19.3754 15.5352C19.3754 16.5704 20.076 17.4475 21.0361 17.7345V19.6557C21.0361 21.6306 19.772 23.0096 17.9617 23.0096C16.1515 23.0096 14.887 21.6306 14.887 19.6557V18.9939C15.5379 18.8997 16.1464 18.6691 16.6731 18.313C16.6735 18.313 16.6735 18.3127 16.6738 18.3127C17.907 17.4791 18.6432 15.9895 18.6432 14.3282V9.4674C18.6432 9.09194 18.3385 8.78722 17.9631 8.78722H16.4248V8.72598C16.4248 8.35055 16.1201 8.04581 15.7446 8.04581C15.3692 8.04581 15.0645 8.35055 15.0645 8.72598V10.2683C15.0645 10.6437 15.3692 10.9484 15.7446 10.9484C16.1201 10.9484 16.4248 10.6437 16.4248 10.2683V10.1476H17.2829V14.3286C17.2829 15.2403 16.9907 16.0719 16.4789 16.6745C15.9477 15.9933 15.1131 15.5607 14.2089 15.5607C13.3012 15.5607 12.4663 15.993 11.9364 16.6738C11.4253 16.0718 11.1338 15.241 11.1338 14.3286V10.1476H11.9929V10.2683C11.9929 10.6437 12.2972 10.9484 12.673 10.9484C13.0485 10.9484 13.3532 10.6437 13.3532 10.2683V9.46737V8.72598C13.3532 8.35055 13.0485 8.04581 12.673 8.04581C12.2976 8.04581 11.9929 8.35055 11.9929 8.72598V8.78722H10.4536C10.0782 8.78722 9.77344 9.09194 9.77344 9.4674V14.3286C9.77344 15.9919 10.5101 17.4812 11.7435 18.313C11.7439 18.313 11.7439 18.3134 11.7442 18.3134C11.7446 18.3134 11.7446 18.3134 11.7449 18.3137C12.2707 18.6688 12.8774 18.899 13.5269 18.9935V19.656C13.5269 22.3873 15.392 24.37 17.9616 24.37C20.5313 24.37 22.3963 22.3873 22.3963 19.6557V17.7345C23.3564 17.4479 24.057 16.5708 24.057 15.5352C24.057 14.2677 23.0071 13.2366 21.7162 13.2366H21.7163ZM14.2075 17.6815H14.2072C13.7997 17.6811 13.3923 17.6094 13.0349 17.4662C13.3121 17.1309 13.7426 16.9211 14.2089 16.9211C14.6724 16.9211 15.102 17.1312 15.3808 17.4672C15.0227 17.6104 14.6149 17.6818 14.2075 17.6815ZM21.7163 16.4738C21.1755 16.4738 20.7358 16.0528 20.7358 15.5352C20.7358 15.0179 21.1756 14.5969 21.7163 14.5969C22.257 14.5969 22.6967 15.0179 22.6967 15.5352C22.6967 16.0528 22.257 16.4738 21.7163 16.4738Z" fill="#FF9800"/>
</g>
<defs>
<clipPath id="clip0">
<rect width="38.1535" height="35" fill="white"/>
</clipPath>
</defs>
</svg>
