<svg width="136" height="136" viewBox="0 0 136 136" fill="none" xmlns="http://www.w3.org/2000/svg">
<path d="M0 8C0 3.58172 3.58172 0 8 0H128C132.418 0 136 3.58172 136 8V136H0V8Z" fill="#FF9800"/>
<g clip-path="url(#clip0)">
<path d="M57.6584 80.3119C55.9142 80.3119 54.3317 79.6061 53.1855 78.467C52.0398 77.3275 51.3295 75.7548 51.3295 74.0198V62.5805H48.4531V74.0198C48.4531 76.5472 49.4832 78.8353 51.1498 80.4917C52.8147 82.1477 55.1165 83.1721 57.6584 83.1721H60.5348V80.3119H57.6584Z" fill="white"/>
<path d="M37.4102 80.3119C35.9372 80.3119 34.5786 79.8299 33.4897 79.0205C33.2606 78.8499 33.0414 78.6656 32.8374 78.467C32.5038 78.1423 32.2078 77.7811 31.9527 77.3927C31.3628 76.4927 31.0007 75.4383 30.9484 74.3062H42.703V71.4462H30.9484C31.0007 70.314 31.3628 69.2597 31.9527 68.3597C32.2078 67.9706 32.5039 67.6095 32.8374 67.2853C32.9746 67.1523 33.1175 67.0257 33.2657 66.9055C34.3889 65.9915 35.8345 65.4405 37.4102 65.4405H43.2914V62.5805H37.4102C37.1859 62.5805 36.9649 62.5909 36.744 62.6058C36.3262 62.6338 35.9148 62.6865 35.5139 62.7662C35.4949 62.7698 35.4755 62.7748 35.4569 62.7787C33.6423 63.1515 32.0203 64.0315 30.7561 65.2606C29.0531 66.9171 28 69.2051 28 71.7325V74.0197C28 76.5471 29.0531 78.8352 30.7561 80.4916C32.0203 81.7204 33.6423 82.6005 35.4569 82.9731C35.4755 82.9767 35.4949 82.9823 35.5139 82.9856C35.9148 83.0656 36.3262 83.1178 36.744 83.1467C36.9649 83.1613 37.186 83.1714 37.4102 83.1714H43.8792V80.3118H37.4102V80.3119Z" fill="white"/>
<path d="M80.6871 55.8492C79.0081 54.1773 76.6893 53.1429 74.1273 53.1429C71.5653 53.1429 69.2459 54.1773 67.5676 55.8492C65.8889 57.5217 64.8502 59.8312 64.8502 62.3824V83.1717H67.6732V62.3816C67.6732 60.6308 68.4644 58.9687 69.6196 57.8179C70.7746 56.6682 72.3685 55.9549 74.1273 55.9549C75.8856 55.9549 77.4802 56.6683 78.6348 57.8179C79.7896 58.9687 80.5808 60.6308 80.5808 62.3816V83.1717H83.4042V62.3824C83.4042 59.8312 82.3664 57.5217 80.6872 55.8492H80.6871Z" fill="white"/>
<path d="M72.8526 67.0052H75.2657L75.4015 83.1725H77.7948V67.3723V62.5809L74.1273 65.5755L70.4592 62.5809V67.3723V83.1725H72.8526V67.0052Z" fill="white"/>
<path d="M97.428 62.3659C91.1929 62.3659 86.2189 67.7312 86.9229 74.0718C87.4576 78.8916 91.3761 82.7877 96.224 83.3204C102.602 84.0208 108 79.0749 108 72.8764C108 67.0713 103.267 62.366 97.428 62.366V62.3659ZM97.428 65.1321C102.802 65.1321 106.922 70.5701 104.514 76.2013C103.8 77.8719 102.453 79.2104 100.773 79.9207C95.1082 82.3153 89.6383 78.2185 89.6383 72.8763C89.6383 68.6059 93.1325 65.1321 97.4279 65.1321H97.428Z" fill="white"/>
</g>
<defs>
<clipPath id="clip0">
<rect width="80" height="30.2439" fill="white" transform="translate(28 53.1429)"/>
</clipPath>
</defs>
</svg>
