<svg width="45" height="45" viewBox="0 0 45 45" fill="none" xmlns="http://www.w3.org/2000/svg">
<path fill-rule="evenodd" clip-rule="evenodd" d="M15.6022 6.59481C15.5093 6.5806 15.4149 6.58043 15.322 6.59429L11.3942 7.18043C11.3939 7.34969 11.359 7.52102 11.2862 7.6839L10.4956 9.45364C10.4099 9.64553 10.3911 9.86067 10.4423 10.0645L10.4816 10.2206C10.5121 10.3422 10.5667 10.4564 10.6422 10.5565L10.9056 10.9059C11.2733 11.3937 11.4723 11.988 11.4723 12.599V13.3425C12.0488 13.6661 12.3549 14.344 12.1882 15.0076L11.5289 17.6311C11.7085 17.9952 11.7626 18.4086 11.6826 18.8068L11.6305 19.0659C11.5822 19.3061 11.6576 19.5546 11.8313 19.7273L12.716 20.6076C13.2081 21.0971 13.5018 21.7513 13.5405 22.4445L13.7804 26.7403C13.7837 26.7998 13.7927 26.8588 13.8072 26.9166L14.6965 30.4556C14.768 30.7399 14.9683 30.9744 15.2381 31.0894L15.3474 31.1361C16.3383 31.5585 16.9813 32.5318 16.9813 33.609C16.9813 33.8993 16.9342 34.1876 16.842 34.4631L16.7077 34.8639C16.5942 35.2028 16.8463 35.5532 17.2036 35.5532H18.9305C19.0306 35.5532 19.1304 35.5371 19.2254 35.5054L19.8438 35.3004C20.6364 35.0376 21.5049 35.1405 22.2142 35.5815L23.4823 36.3699C23.8809 36.618 24.1456 37.0273 24.2131 37.4843L24.3384 37.5154C24.776 37.6243 25.1585 37.8896 25.4139 38.2609L25.4293 38.2558C25.4317 38.2551 25.4341 38.2538 25.4362 38.2519L27.0288 36.8938C27.1132 36.8218 27.1799 36.7314 27.2238 36.6294L27.5563 35.8579C27.2754 35.6736 27.0603 35.3987 26.9512 35.073L26.6954 34.3097C26.4564 33.5963 26.5618 32.8123 26.9806 32.1874C27.0226 32.1246 27.0515 32.0537 27.065 31.9793L27.5193 29.4938C27.5885 29.1146 27.7351 28.7537 27.9496 28.4336L28.6679 27.3617C28.9612 26.9241 29.4399 26.6496 29.9611 26.6147L30.7739 24.9975C30.863 24.8201 30.9708 24.6527 31.0951 24.498L32.0054 23.3659C32.0469 23.3143 32.0829 23.2586 32.1125 23.1994L32.6122 22.2053L33.8152 20.0509C34.109 19.5248 34.6138 19.1494 35.2021 19.0193L35.3023 18.9971L34.6582 18.8141C33.9496 18.6126 33.4128 18.032 33.2677 17.3097L33.2411 17.1776C33.0067 17.1078 32.7922 16.977 32.6212 16.7956L28.8858 12.8316C28.7587 12.6968 28.5817 12.6204 28.3964 12.6204C27.9159 12.6204 27.4453 12.4845 27.0386 12.2283L19.0636 7.20334C18.9547 7.13474 18.8328 7.08929 18.7057 7.06982L15.6022 6.59481ZM15.0452 4.73982C15.3239 4.69823 15.6073 4.69875 15.8859 4.74139L18.9894 5.2164C19.3709 5.27481 19.7366 5.41118 20.0632 5.61698L28.0381 10.6419C28.1454 10.7095 28.2697 10.7454 28.3964 10.7454C29.0983 10.7454 29.7691 11.035 30.2504 11.5457L33.8619 15.3782C34.4319 15.4689 34.8978 15.905 35.0144 16.4858L35.1059 16.9402C35.1127 16.9739 35.1378 17.0011 35.171 17.0105L36.4018 17.3604C36.6823 17.4402 36.9382 17.59 37.145 17.7958C38.1097 18.7556 37.6314 20.4024 36.3028 20.6963L35.6069 20.85C35.5413 20.8646 35.4851 20.9064 35.4523 20.9651L34.2691 23.0837L33.7878 24.0414C33.6988 24.2188 33.5909 24.3863 33.4666 24.5409L32.5563 25.6729C32.5149 25.7244 32.4791 25.7803 32.4492 25.8394L31.5882 27.5528C31.3156 28.0952 30.7749 28.4479 30.1736 28.4829L29.5072 29.4774C29.4358 29.5841 29.3868 29.7043 29.3638 29.8307L28.9094 32.3162C28.8498 32.6434 28.7233 32.9548 28.5382 33.2312C28.4429 33.3733 28.4189 33.5516 28.4733 33.714L28.6764 34.3198C29.3998 34.6641 29.7397 35.5284 29.414 36.2848L28.9458 37.3714C28.7881 37.7372 28.5485 38.0619 28.2453 38.3205L26.6529 39.6786C26.4667 39.8374 26.2516 39.9585 26.0193 40.0356L25.9833 40.0476C25.1992 40.3076 24.3384 40.0149 23.8749 39.3323L23.5571 39.2533C22.9053 39.0911 22.4328 38.5386 22.3638 37.8825L21.224 37.1738C20.9878 37.0268 20.6983 36.9924 20.4339 37.0802L19.8157 37.2851C19.5301 37.3798 19.2313 37.4282 18.9305 37.4282H17.2036C15.5652 37.4282 14.4093 35.8217 14.9298 34.2683L15.0641 33.8674C15.092 33.7841 15.1063 33.6968 15.1063 33.609C15.1063 33.2831 14.9117 32.9886 14.612 32.8609L14.5027 32.8142C13.6936 32.4692 13.0924 31.7655 12.8781 30.9126L11.9887 27.3735C11.9452 27.2003 11.9183 27.0233 11.9083 26.8449L11.6684 22.5491C11.6555 22.3179 11.5576 22.0999 11.3936 21.9368L10.5089 21.0566C9.88912 20.4399 9.61996 19.5536 9.79228 18.6964L9.84189 18.4496C9.64858 18.0583 9.60073 17.6108 9.70717 17.1872L10.2938 14.8526C9.86722 14.5837 9.59726 14.1104 9.59726 13.5898V12.599C9.59726 12.3953 9.53096 12.1972 9.40837 12.0346L9.14497 11.6852C8.9186 11.3849 8.75475 11.0423 8.6631 10.6776L8.62387 10.5215C8.4702 9.90996 8.52648 9.26455 8.78366 8.68887L9.40803 7.2912C9.0023 6.58645 9.38761 5.58411 10.3054 5.44714L15.0452 4.73982Z" fill="#FF9800"/>
</svg>
