<svg width="136" height="136" viewBox="0 0 136 136" fill="none" xmlns="http://www.w3.org/2000/svg">
<path d="M0 8C0 3.58172 3.58172 0 8 0H128C132.418 0 136 3.58172 136 8V136H0V8Z" fill="#FF9800"/>
<path fill-rule="evenodd" clip-rule="evenodd" d="M65.9266 92.4084C63.6484 90.1629 62.2019 87.4144 61.2258 84.4276C60.0373 80.7958 59.5798 77.0196 59.9934 73.2407C60.3563 69.9142 60.9377 66.5809 61.7857 63.3456C63.3681 57.3058 65.9885 51.6616 69.0122 46.2101C69.3459 45.6081 69.6865 45.0095 70.0296 44.4118C70.402 43.7659 71.6765 41.5282 71.9061 41.3545C70.691 44.1796 69.2143 47.4794 68.086 50.3381C65.856 55.99 64.087 61.7881 63.141 67.7995C62.4883 71.9516 62.1666 76.1449 62.5794 80.3435C62.8942 83.5461 63.4928 86.6868 64.6821 89.6633C64.9892 90.4338 65.8612 92.2519 65.9266 92.4084Z" fill="white"/>
<path fill-rule="evenodd" clip-rule="evenodd" d="M33.6 98.26C37.8458 96.2407 42.2309 94.7021 46.8311 93.8043C49.737 93.2393 52.6662 92.8342 55.6246 92.9546C60.0553 93.1378 64.2547 94.1302 67.7781 96.9614C69.0948 96.2286 70.3598 95.4263 71.7057 94.7959C75.0339 93.2367 78.5952 92.8359 82.2175 92.9796C89.1018 93.2548 95.5733 95.2216 101.85 97.9297C102.006 97.9959 102.151 98.0888 102.4 98.2247C100.121 97.6081 97.9624 96.9837 95.7823 96.4445C90.6051 95.1648 85.3522 94.4708 80.0142 94.7193C77.9149 94.8182 75.8526 95.1038 73.8385 95.5965C71.9637 96.0549 67.7979 97.6795 67.7979 97.6795C64.8919 96.2493 61.5035 95.2345 58.3052 94.9498C55.6358 94.7125 52.9268 94.7486 50.2427 94.8561C45.3149 95.0522 40.5462 96.2106 35.8231 97.553C35.0757 97.7655 34.3404 98.0235 33.6 98.26Z" fill="white"/>
<path fill-rule="evenodd" clip-rule="evenodd" d="M69.8258 51.8792C69.8671 71.4115 79.7674 84.2754 96.6939 92.5984C95.6103 92.2218 94.5104 91.8829 93.4448 91.4615C89.0029 89.7088 84.8053 87.5012 81.1382 84.413C76.4065 80.4294 72.9381 75.5352 71.0255 69.627C69.4508 64.7645 68.9864 59.7611 69.5016 54.6699C69.5962 53.7393 69.7166 52.8097 69.8258 51.8792Z" fill="white"/>
<path fill-rule="evenodd" clip-rule="evenodd" d="M77.7946 40.799V37.74H76.6826V39.6862H74.4586V40.799H77.7946Z" fill="white"/>
<path fill-rule="evenodd" clip-rule="evenodd" d="M80.0185 41.3545H76.6826V44.4118H77.7945V42.4665H80.0185V41.3545Z" fill="white"/>
</svg>
