<?xml version="1.0" encoding="UTF-8"?>
<!DOCTYPE svg PUBLIC "-//W3C//DTD SVG 1.1//EN" "http://www.w3.org/Graphics/SVG/1.1/DTD/svg11.dtd">
<!-- Creator: CorelDRAW -->
<svg xmlns="http://www.w3.org/2000/svg" xml:space="preserve" width="136" height="136" version="1.1" style="shape-rendering:geometricPrecision; text-rendering:geometricPrecision; image-rendering:optimizeQuality; fill-rule:evenodd; clip-rule:evenodd"
viewBox="0 0 1151.46 1151.46"
 xmlns:xlink="http://www.w3.org/1999/xlink"
 xmlns:xodm="http://www.corel.com/coreldraw/odm/2003">
 <defs>
  <style type="text/css">
   <![CDATA[
    .fil0 {fill:#FF9400}
    .fil1 {fill:white}
   ]]>
  </style>
 </defs>
 <g id="Camada_x0020_1">
  <metadata id="CorelCorpID_0Corel-Layer"/>
  <rect class="fil0" x="-0" y="-0" width="1151.47" height="1151.47"/>
  <g id="_2412714863520">
   <path class="fil1" d="M256.68 510.37c0,-151.93 173.37,-230.33 301.94,-230.33 100.96,0 171.78,19.41 240.6,70.66 95.31,70.98 162.31,240.5 -11.29,326.72 -59.47,29.53 -120.97,44.61 -207.52,44.61 -35.59,0 -49.1,-9.01 -81.58,42.92 -7.75,12.4 -38.64,76.79 -39.82,90.92 -14.44,-10.57 -24.9,-87.36 -94.3,-145.37 -8.13,-6.81 -10.67,-7.72 -18.58,-15.66 -39.34,-39.48 -89.45,-107.69 -89.45,-184.47zm302.67 -252.13l31.41 0c65.77,2.21 129.75,18.15 180.85,48.48 87.66,52.05 144.98,117.5 144.98,241 0,98.63 -129.39,167.12 -219.67,184.98 -166.15,32.86 -151.03,-42.28 -219.7,132.05 -6.96,17.69 -13.11,26.29 -18.75,28.48l-5.9 0c-16.95,-6.61 -29.91,-68.67 -48.96,-100.23 -53.02,-87.82 -67.13,-52.05 -133.91,-161.8 -26.53,-43.58 -34.8,-83.19 -34.8,-136.39 0,-40.03 20.06,-78.54 36.67,-103.39 56.03,-83.85 171.94,-129.45 287.78,-133.18z"/>
   <path class="fil1" d="M455.9 501.04c11.54,-3.09 16.28,-11.57 24.13,-19.46 7.98,-8.02 16.28,-15.21 23.03,-23.66 19.46,-24.41 122.55,-127.48 133.38,-143.64 -68.04,-5.67 -83.85,-12.65 -159.09,2.77 -44.53,9.14 -35.95,8.8 -47.44,83.51 -2.63,17.06 -1.03,18.54 4.57,34.72 6.65,19.25 16.71,45.53 21.42,65.76z"/>
   <path class="fil1" d="M589.75 544.61l118.28 56.03c5.33,-22.87 85.7,-200.38 87.16,-217.88 -17.02,3.96 -160.06,124.49 -180.13,140.47 -6.9,5.48 -20.85,15.3 -25.31,21.38z"/>
   <path class="fil1" d="M720.48 609.97c16.59,3.87 58.58,31.13 68.48,31.13 11.9,0 44.54,-29.42 52.01,-38.25 39.57,-46.76 22.76,-76.09 19.59,-114.27 -11.3,0.94 -78.43,29.53 -94.87,35.87 -19.25,7.42 -13.35,5.35 -27.4,37.96 -6.22,14.4 -14.35,32.75 -17.81,47.56z"/>
   <path class="fil1" d="M465.24 519.7c0,12.82 31.64,93.8 37.35,118.28l60.63 -85.66c6.88,-11.36 5.01,-12.88 4.83,-29.41l-0.09 -112.14c-8.51,5.69 -102.72,106.82 -102.72,108.93z"/>
   <path class="fil1" d="M325.16 410.77c0,12.9 22.83,73.09 28.42,89.86 3.87,11.65 24.68,80.84 33.84,87.55l37.35 -252.11c-21.55,11.4 -35.33,17.25 -55.18,31.97 -7.49,5.55 -44.43,35.9 -44.43,42.73z"/>
   <path class="fil1" d="M583.52 432.56l190.03 -61.79c-15.55,-21.78 -91.78,-46.45 -121.55,-53.38 -12.19,18.2 -27.01,31.8 -42.81,47.46 -29.95,29.68 -25.67,27.82 -25.67,67.71z"/>
   <path class="fil1" d="M284.7 513.48c0,22.37 11.61,58.12 20.56,72.82 11.17,18.34 43.73,14.33 69.71,26.79 -0.31,-14 -36.91,-116.88 -44.5,-136.04 -4.48,-11.34 -13.65,-35.68 -14.64,-47.61l-6.23 0c-4.31,18.49 -24.9,44.22 -24.9,84.04z"/>
   <path class="fil1" d="M396.76 619.32l93.38 24.89c-3.78,-16.22 -10.57,-33.25 -15.96,-49.41l-33.45 -97.28c-2.95,-8.84 -4.72,-13.84 -7.77,-23.35 -3.75,-11.72 -3.32,-17.1 -11.3,-22.94 -0.52,22.89 -24.9,148.95 -24.9,168.09z"/>
   <path class="fil1" d="M511.93 653.56c21.46,4.99 25.97,13.1 65.51,18.53 26.33,3.61 50.49,3.25 80.79,3.25 -9.44,-17.83 -76.36,-110.02 -84.04,-115.17 -20.82,31.09 -41.45,62.3 -62.26,93.39z"/>
   <path class="fil1" d="M583.66 448.54l-0.14 80.51c15.41,-10.33 27.03,-20.53 42.23,-32.47l122.74 -101.38 -164.83 53.34z"/>
   <path class="fil1" d="M676.91 675.34c7.44,-3.57 37.53,-6.4 47.38,-8.65 17.61,-4.03 30.39,-9.5 45.99,-13.13l0 -6.23c-16.81,-3.93 -154.72,-77.09 -171.2,-80.93l58.27 81.8c6.7,8.97 13.92,18.72 19.56,27.14z"/>
   <path class="fil1" d="M760.95 510.37c12.73,-2.96 31.28,-11.89 44.9,-17.35 11.67,-4.68 37.24,-15.95 48.48,-16.89 -0.38,-17.15 -11.43,-32.79 -18.63,-43.63 -4.31,-6.49 -8.19,-11.77 -12.88,-18.24 -6.41,-8.81 -6.57,-12.81 -18.3,-15.94 -4.48,19.22 -14.73,38.26 -21.79,56.01 -6.05,15.24 -18.26,40.94 -21.78,56.04z"/>
   <path class="fil1" d="M427.88 684.68c23.84,0 32.57,-14.69 43.59,-31.12 -50.5,-11.77 -98.2,-28.54 -149.42,-40.47 16.3,30.8 59.13,71.59 105.83,71.59z"/>
  </g>
 </g>
</svg>
