<svg width="136" height="136" viewBox="0 0 136 136" fill="none" xmlns="http://www.w3.org/2000/svg">
<path d="M0 8C0 3.58172 3.58172 0 8 0H128C132.418 0 136 3.58172 136 8V136H0V8Z" fill="#FF9800"/>
<g opacity="0.86">
<path fill-rule="evenodd" clip-rule="evenodd" d="M84.6256 62.0166L84.9498 62.168C85.0968 62.217 85.1803 62.229 85.317 62.2755C86.7326 62.7605 88.5162 63.6841 89.3031 64.9432C89.8346 65.7937 90.0298 67.076 89.5998 67.9454C89.2558 68.6412 88.1705 69.2311 87.4464 69.5941C84.0304 71.3029 78.5995 71.8404 74.8654 72.3151C72.5004 72.6152 68.4963 72.8715 65.9042 72.856C65.1792 72.8517 64.8481 72.9575 64.1008 72.9532L56.3986 72.9567C55.7941 72.9489 55.3322 72.8569 54.5969 72.8578L50.8895 72.764C49.5857 72.7718 46.8002 72.4776 45.3795 72.4776C45.6598 72.721 46.3788 72.8715 46.7168 72.9455C51.5474 74.0084 52.9122 74.2785 57.7411 74.8461L61.0573 75.1419C62.2552 75.1703 63.3509 75.3328 64.5747 75.3303C65.8363 75.3268 66.858 75.4249 68.1858 75.4249C69.4216 75.4249 70.6566 75.4249 71.8924 75.4249C73.1841 75.4249 74.1963 75.3234 75.4089 75.3311C76.4134 75.338 80.8803 74.859 82.129 74.6388C83.7862 74.3456 86.5391 73.7754 88.0148 73.1115C90.4736 72.0046 93.4956 70.27 92.7027 66.867C93.6874 67.5885 94.2644 69.4934 93.53 70.8325C92.0732 73.4873 86.3146 75.1462 83.5256 75.7508C83.3338 75.7921 83.1102 75.8471 82.9873 75.8781L82.4403 76.0905C82.8213 76.0905 83.0492 76.0286 83.4766 75.9873C83.8051 75.9555 84.1956 75.9237 84.5998 75.8746C86.5158 75.6399 88.8791 75.2159 90.6241 74.6758C91.8762 74.2888 92.9418 73.8889 93.9204 73.2207C94.8475 72.5869 95.797 71.7793 95.7505 70.1926C95.6671 67.3039 90.7083 64.1442 88.3193 63.1699C87.5736 62.8654 85.3634 62.0329 84.6256 62.0166Z" fill="white"/>
<path fill-rule="evenodd" clip-rule="evenodd" d="M63.1495 65.2504C63.2707 65.3906 63.1864 65.2762 63.3051 65.4749L64.2735 66.8827C64.6097 67.4546 64.2976 67.6911 64.9211 68.042C65.9737 68.6345 65.6933 68.7782 66.9507 68.6741C67.4839 69.4705 68.0927 69.086 68.6225 69.5676C68.7979 69.7267 68.7515 69.7439 68.9106 69.9452C69.1841 70.2909 69.7534 70.5713 70.1817 70.671C70.2694 70.3416 70.2333 70.3778 70.5618 70.29C70.6848 70.5231 70.7364 70.7261 70.8465 70.9557C72.1038 70.9557 75.4672 70.4801 76.1681 70.4801C76.1019 70.2341 76.0022 70.1361 75.8826 69.9099C74.3965 69.9099 75.0295 69.7104 74.1093 69.4025C73.6337 69.2426 72.9922 69.4137 72.4736 69.3277C72.1003 69.2649 72.3644 69.2503 71.9868 69.1488C71.617 69.3965 71.1612 69.9684 70.7656 69.9916C70.462 70.0088 69.9667 70.161 69.7061 70.0045C69.2641 69.6812 69.559 69.3845 69.4343 68.951C69.2727 68.3869 68.853 68.6741 68.2811 68.6741C68.2931 68.0996 68.5245 67.8373 68.5657 67.3419C68.3275 67.3222 68.2991 67.2903 68.1942 67.3032C67.8528 67.3419 67.9749 67.3789 67.9096 67.4391C67.8175 67.5251 67.6034 67.8837 67.5208 68.0076H66.6651C66.2635 67.2473 66.0399 67.1596 66.3177 66.2334C66.5671 65.4001 67.1588 65.5531 67.901 65.726C68.1375 65.2788 68.1529 65.2865 68.6896 65.4009C69.3311 65.5385 69.0998 65.591 69.406 66.0322C69.5694 66.2669 69.8893 66.6307 69.8996 66.0279C69.9073 65.5299 69.6253 65.6056 69.6115 64.9649C69.7981 64.6845 70.0974 64.5048 70.2427 64.2657C70.4827 63.871 70.3735 63.3386 70.8275 62.759C71.0916 62.4219 70.9772 62.0676 71.3169 61.9085C71.4639 61.8397 71.4029 61.8543 71.5534 61.8921C71.5775 61.8981 71.6523 61.9351 71.6738 61.9446L71.7968 62.0168C71.9163 61.7906 72.0161 61.6926 72.0814 61.4466C71.3238 61.4294 71.814 61.2368 71.322 60.8756C70.9626 60.9719 71.0451 61.0596 70.7519 61.2566C70.9135 60.6486 71.6506 60.689 72.0814 60.4V59.9253C71.5525 59.5701 70.96 59.3087 70.4663 58.8787C70.0922 59.0146 70.456 58.8933 70.0862 59.1642C70.0028 59.1083 68.7188 58.0729 68.7524 59.0524C68.767 59.4712 69.0473 59.4626 69.0955 59.7481C69.1351 59.9829 69.0172 60.1756 69.1359 60.6855C68.3163 60.6176 69.0499 60.167 68.097 59.9193C67.2147 59.6897 67.4331 59.9803 66.9507 59.2597C67.1734 58.8374 67.2456 58.8494 67.5329 58.5106C67.815 58.1769 68.0549 58.1718 68.091 57.7375L67.6344 57.7177C67.0246 57.8467 66.1595 57.7409 65.8533 57.8028C65.2332 57.9267 65.7733 58.0195 64.9838 57.519C64.6003 57.2748 64.2331 57.3298 63.8246 57.2524C63.1262 57.12 63.6526 56.5962 62.4838 56.5962C62.8571 56.272 63.4754 56.1138 63.9226 55.9443C67.7754 54.4875 72.502 55.3922 75.7209 57.8045C76.4855 58.3773 77.3369 59.1367 77.9458 59.8574L79.21 61.7313C79.8945 62.9878 80.377 64.2322 80.6083 65.7518C80.9257 67.8493 80.7296 68.0059 80.7296 69.8145C82.0239 69.707 81.7753 69.5109 81.7745 68.1985C81.7719 64.8995 81.1845 62.5861 79.2358 59.9932L78.331 58.9019C77.3369 57.7822 76.2731 56.8654 74.9745 56.0794C73.2682 55.0482 70.8783 54.3284 68.7567 54.2183C66.3994 54.0971 63.9028 54.6887 62.0082 55.6451C60.898 56.2058 59.9064 56.8474 58.9845 57.6592L58.1503 58.4409C57.476 59.1745 56.85 59.9468 56.3365 60.8102C54.7765 63.4341 54.0266 66.3168 54.3895 69.547C54.4445 70.0355 54.4437 70.266 54.5486 70.7192C54.6509 71.1647 54.497 70.9901 54.8109 71.126C55.8094 71.5577 55.615 70.8576 55.5195 70.3193C55.4705 70.0432 55.3733 69.3862 55.3579 69.0534C55.2684 67.1209 55.3742 65.9032 55.8111 64.2778C56.3348 62.3273 57.5027 60.5806 58.8495 59.2356C59.0868 58.9982 59.4196 58.5708 59.6837 58.5639C60.824 58.5321 61.1998 58.1236 61.6152 58.3119C61.9042 58.4427 62.0994 58.7015 62.2301 59.0378C62.372 59.4033 62.4004 59.7172 62.372 60.1996C62.3359 60.7956 62.5423 60.5944 62.6739 61.1611C62.2525 61.2076 62.3574 61.3314 62.194 61.727C61.8543 62.5483 61.6324 63.3223 62.1966 64.1109C62.8252 64.9881 62.5165 65.2134 63.1159 66.3297C63.2871 66.6479 63.3473 66.7804 63.7196 66.8672C63.6001 66.3555 63.1916 65.757 63.1495 65.2504Z" fill="white"/>
<path fill-rule="evenodd" clip-rule="evenodd" d="M40.2477 64.1092C40.2477 65.8688 42.1716 67.231 43.5716 67.9147L45.1248 68.6431C45.6141 68.89 46.2118 69.0981 46.7674 69.2813C47.9662 69.6777 51.4097 70.3855 52.6016 70.3855C52.526 70.333 52.5621 70.3356 52.4202 70.2814C52.1011 70.1593 51.9463 70.2075 51.6118 70.1395C50.2392 69.8609 48.0901 69.2219 47.0228 68.3602C43.9578 65.8868 48.2767 64.4876 50.3287 64.0223L53.9312 63.2535C54.4678 60.9496 56.0588 60.6984 53.6749 61.0949C50.9332 61.5498 43.5691 62.6033 42.9086 65.4405C42.1036 64.8806 43.5544 63.2019 44.4282 62.587C46.9764 60.7939 50.4362 60.2529 53.4195 59.6028C53.4453 59.5976 53.5949 59.5581 53.6422 59.5409C53.877 59.4557 53.7351 59.5142 53.8366 59.4497C51.2222 59.4497 44.8771 60.7242 42.5457 61.844C42.0641 62.0753 41.5567 62.3496 41.1301 62.71C40.8024 62.9878 40.2477 63.5683 40.2477 64.1092Z" fill="white"/>
<path fill-rule="evenodd" clip-rule="evenodd" d="M67.9956 81.7969C72.5295 81.7969 75.3847 80.1509 78.1875 77.3507C78.473 77.066 79.0096 76.5784 79.1137 76.1863C78.6742 76.1863 77.9948 76.2103 77.7102 76.3987L76.0435 77.9639C74.4129 79.3433 72.8142 80.0356 70.5619 80.5602C70.598 80.23 70.4733 80.365 71.0684 80.021C71.5079 79.7673 71.3539 79.7329 71.6652 79.4775C72.2767 78.9761 72.3541 79.241 73.7241 78.1144C74.118 77.7902 74.9487 77.5201 75.5026 76.4718C74.2074 76.4718 73.2072 76.5664 71.9869 76.5664C71.9035 77.5717 70.9884 78.5091 70.7098 79.0922C70.26 80.0356 69.8481 79.9995 69.8016 80.5602C69.8541 80.5602 69.9564 80.5585 69.9848 80.5671C70.1534 80.6153 70.0906 80.5981 70.1817 80.6557L67.4254 80.7512C64.8411 80.7512 61.9713 79.5248 60.3201 78.1617C60.1086 77.988 60.0071 77.9183 59.799 77.7326C58.9587 76.9835 59.1084 77.2243 58.3223 76.262C57.9646 75.8234 57.4013 75.9498 56.7821 75.8062C56.8827 76.2353 56.9369 76.1691 57.1742 76.4598L57.7754 77.189C57.7934 77.2105 57.8442 77.2716 57.8622 77.2931C58.7584 78.3397 60.014 79.2582 61.1836 79.96C62.9113 80.9963 65.2746 81.7969 67.9956 81.7969Z" fill="white"/>
<path fill-rule="evenodd" clip-rule="evenodd" d="M84.6255 62.0167C84.4982 61.9204 84.8259 61.9221 84.3409 61.9221V62.0167H84.6255Z" fill="white"/>
</g>
</svg>
