<svg width="137" height="136" viewBox="0 0 137 136" fill="none" xmlns="http://www.w3.org/2000/svg">
<path d="M0.534882 8C0.534882 3.58172 4.1166 0 8.53488 0H128.535C132.953 0 136.535 3.58172 136.535 8V136H0.534882V8Z" fill="#FF9800"/>
<path fill-rule="evenodd" clip-rule="evenodd" d="M78.6234 82.636C78.6234 82.636 66.3015 83.4773 55.8347 82.5311C56.028 95.1504 57.5857 101.612 57.8404 103H80.7276C79.6271 96.3691 78.7703 85.6661 78.6234 82.636ZM39.786 56.4548C41.3232 56.58 54.8198 57.7398 55.7194 57.7398C55.7194 57.6845 77.0788 79.2506 77.0788 79.2506H104.535V56.4548H39.786ZM57.6731 55.1165H80.7276V33H57.6731V55.1165ZM57.5206 61.4842L54.5187 58.454C50.539 58.4982 37.6763 57.1636 33.5349 56.4548V79.2506C54.1897 81.2701 65.0152 81.7855 77.1141 81.4026H77.3148L57.5206 61.4842ZM78.5119 80.4306H81.3279V98.1585C80.9748 96.3047 79.9283 85.5152 80.0528 82.0672C79.7164 81.699 78.5119 80.4306 78.5119 80.4306Z" fill="white"/>
</svg>
