<svg width="137" height="136" viewBox="0 0 137 136" fill="none" xmlns="http://www.w3.org/2000/svg">
<path d="M0.0697632 8C0.0697632 3.58172 3.65149 0 8.06976 0H128.07C132.488 0 136.07 3.58172 136.07 8V136H0.0697632V8Z" fill="#FF9800"/>
<path d="M94.702 34.7097H41.4375C37.7755 34.7097 34.8127 37.7058 34.8127 41.3678L34.7794 101.29L48.0955 87.9742H94.702C98.3639 87.9742 101.36 84.9781 101.36 81.3162V41.3678C101.36 37.7058 98.3639 34.7097 94.702 34.7097ZM94.702 81.3162H45.3324L43.3683 83.2803L41.4375 85.2111V41.3678H94.702V81.3162ZM64.7407 68H71.3988V74.6581H64.7407V68ZM64.7407 48.0258H71.3988V61.342H64.7407V48.0258Z" fill="white"/>
</svg>

