<svg width="100" height="100" viewBox="0 0 100 100" fill="none" xmlns="http://www.w3.org/2000/svg">
<path fill-rule="evenodd" clip-rule="evenodd" d="M59.1584 64.636C59.1584 64.636 46.8365 65.4773 36.3697 64.5311C36.563 77.1504 38.1207 83.612 38.3753 85H61.2625C60.1621 78.3691 59.3053 67.6661 59.1584 64.636ZM20.3209 38.4548C21.8582 38.58 35.3548 39.7398 36.2544 39.7398C36.2544 39.6845 57.6138 61.2506 57.6138 61.2506H85.0699V38.4548H20.3209ZM38.2081 37.1165H61.2625V15H38.2081V37.1165ZM38.0556 43.4842L35.0537 40.454C31.074 40.4982 18.2112 39.1636 14.0698 38.4548V61.2506C34.7247 63.2701 45.5502 63.7855 57.6491 63.4026H57.8498L38.0556 43.4842ZM59.0469 62.4306H61.8629V80.1585C61.5097 78.3047 60.4632 67.5152 60.5878 64.0672C60.2513 63.699 59.0469 62.4306 59.0469 62.4306Z" fill="white"/>
</svg>
