<svg width="298" height="70" viewBox="0 0 298 70" fill="none" xmlns="http://www.w3.org/2000/svg">
<g clip-path="url(#clip0)">
<path d="M202.241 24.4161C202.687 24.4161 203.068 24.4278 203.383 24.4505C203.697 24.4725 203.986 24.5077 204.251 24.5525C204.514 24.5994 204.788 24.662 205.07 24.7449L204.906 26.2801C204.606 26.2621 204.33 26.2482 204.08 26.2392C203.83 26.2297 203.56 26.2228 203.273 26.2178C202.986 26.213 202.642 26.211 202.241 26.211C201.776 26.211 201.414 26.3026 201.154 26.4857C200.895 26.6692 200.71 26.9853 200.601 27.438C200.492 27.8907 200.437 28.5137 200.437 29.3087C200.437 30.1037 200.492 30.7272 200.601 31.1794C200.71 31.6319 200.895 31.9497 201.154 32.1323C201.414 32.3148 201.776 32.4057 202.241 32.4057C202.87 32.4057 203.399 32.3967 203.827 32.3789C204.255 32.3603 204.679 32.3279 205.098 32.2825L205.276 33.8182C204.838 33.9552 204.392 34.0524 203.936 34.1123C203.48 34.1717 202.915 34.2011 202.241 34.2011C201.266 34.2011 200.484 34.044 199.897 33.7284C199.309 33.4136 198.885 32.8995 198.625 32.1864C198.366 31.4738 198.236 30.5149 198.236 29.3085C198.236 28.1027 198.366 27.1429 198.625 26.4303C198.885 25.7172 199.309 25.204 199.897 24.8892C200.484 24.5735 201.266 24.4158 202.241 24.4158V24.4161Z" fill="white"/>
<path d="M212.479 31.5424H207.585V29.9666H212.479V31.5424ZM211.03 24.5798C211.203 24.5798 211.355 24.6307 211.488 24.7307C211.62 24.8313 211.709 24.9642 211.755 25.1281L214.488 34.0371H212.356L210.429 27.0884C210.392 26.9327 210.356 26.7756 210.319 26.6157C210.283 26.4558 210.251 26.3022 210.224 26.1567H209.855C209.827 26.3022 209.798 26.4556 209.766 26.6157C209.734 26.7755 209.696 26.9327 209.65 27.0884L207.723 34.0371H205.576L208.324 25.1281C208.369 24.9642 208.458 24.8312 208.59 24.7307C208.722 24.6307 208.875 24.5798 209.048 24.5798H211.031H211.03Z" fill="white"/>
<path d="M217.469 34.0374H215.377V24.5801H217.469V34.0374ZM219 24.4437C219.884 24.4437 220.575 24.5345 221.077 24.718C221.578 24.8997 221.936 25.2154 222.15 25.6632C222.364 26.1111 222.471 26.7367 222.471 27.5407C222.471 28.3448 222.369 28.9712 222.164 29.4183C221.959 29.8661 221.624 30.1791 221.159 30.3567C220.694 30.5358 220.066 30.6246 219.273 30.6246C218.854 30.6246 218.444 30.6069 218.043 30.5695C217.641 30.5329 217.268 30.4875 216.922 30.4331C216.576 30.3772 216.279 30.3208 216.033 30.2614C215.787 30.2021 215.618 30.145 215.527 30.0899L215.569 29.0482H217.243H218.958C219.323 29.0392 219.607 28.9938 219.813 28.9117C220.018 28.8282 220.163 28.6788 220.25 28.4591C220.337 28.2391 220.38 27.934 220.38 27.5406C220.38 27.1383 220.336 26.828 220.25 26.609C220.163 26.3893 220.018 26.2363 219.813 26.1501C219.607 26.0627 219.323 26.0193 218.958 26.0193C218.119 26.0193 217.4 26.0234 216.799 26.0338C216.197 26.0428 215.791 26.0605 215.582 26.088L215.377 24.5799C215.76 24.5343 216.12 24.5028 216.457 24.4848C216.794 24.4662 217.161 24.4552 217.557 24.4504C217.954 24.4455 218.434 24.4435 219 24.4435L219 24.4437Z" fill="white"/>
<path d="M229.279 31.5424H224.384V29.9666H229.279V31.5424ZM227.829 24.5798C228.002 24.5798 228.155 24.6307 228.287 24.7307C228.419 24.8313 228.508 24.9642 228.553 25.1281L231.288 34.0371H229.155L227.228 27.0884C227.191 26.9327 227.155 26.7756 227.119 26.6157C227.081 26.4558 227.05 26.3022 227.023 26.1567H226.654C226.626 26.3022 226.597 26.4556 226.564 26.6157C226.533 26.7755 226.494 26.9327 226.448 27.0884L224.522 34.0371H222.375L225.123 25.1281C225.168 24.9642 225.258 24.8312 225.389 24.7307C225.521 24.6307 225.674 24.5798 225.847 24.5798H227.829H227.829Z" fill="white"/>
<path d="M235.785 24.4161C236.231 24.4161 236.612 24.4278 236.926 24.4505C237.24 24.4725 237.53 24.5077 237.794 24.5525C238.059 24.5994 238.332 24.662 238.614 24.7449L238.451 26.2801C238.15 26.2621 237.874 26.2482 237.623 26.2392C237.373 26.2297 237.104 26.2228 236.817 26.2178C236.53 26.213 236.186 26.211 235.785 26.211C235.32 26.211 234.958 26.3026 234.699 26.4857C234.439 26.6692 234.254 26.9853 234.145 27.438C234.035 27.8907 233.981 28.5137 233.981 29.3087C233.981 30.1037 234.035 30.7272 234.145 31.1794C234.254 31.6319 234.439 31.9497 234.699 32.1323C234.958 32.3148 235.32 32.4057 235.785 32.4057C236.414 32.4057 236.943 32.3967 237.371 32.3789C237.799 32.3603 238.223 32.3279 238.642 32.2825L238.82 33.8182C238.382 33.9552 237.936 34.0524 237.48 34.1123C237.024 34.1717 236.459 34.2011 235.785 34.2011C234.81 34.2011 234.028 34.044 233.441 33.7284C232.853 33.4136 232.43 32.8995 232.17 32.1864C231.91 31.4738 231.78 30.5149 231.78 29.3085C231.78 28.1027 231.91 27.1429 232.17 26.4303C232.43 25.7172 232.853 25.204 233.441 24.8892C234.028 24.5735 234.81 24.4158 235.785 24.4158L235.785 24.4161Z" fill="white"/>
<path d="M240.241 28.3763H245.886V29.8563H240.241V28.3763ZM242.004 24.5391C242.514 24.5391 243.029 24.5413 243.548 24.546C244.068 24.5508 244.579 24.5618 245.08 24.5797C245.58 24.599 246.05 24.6306 246.488 24.6761L246.392 26.1975H242.77C242.542 26.1975 242.371 26.2569 242.256 26.3754C242.142 26.4946 242.086 26.6687 242.086 26.8969V31.7215C242.086 31.9495 242.142 32.1231 242.256 32.2425C242.371 32.3603 242.542 32.4194 242.77 32.4194H246.392L246.488 33.9409C246.05 33.9779 245.58 34.0076 245.08 34.0303C244.579 34.0524 244.068 34.0669 243.548 34.0709C243.029 34.0766 242.514 34.0786 242.004 34.0786C241.402 34.0786 240.917 33.9021 240.548 33.5508C240.179 33.1986 239.995 32.7399 239.995 32.1734V26.444C239.995 25.8688 240.179 25.4079 240.548 25.0599C240.917 24.7127 241.402 24.5389 242.004 24.5389V24.5391Z" fill="white"/>
<path d="M252.105 34.0372H250.014V24.5799H252.105V34.0372ZM254.949 26.2254H247.185V24.5799H254.949V26.2254Z" fill="white"/>
<path d="M256.233 28.3763H261.879V29.8563H256.233V28.3763ZM257.997 24.5391C258.508 24.5391 259.022 24.5413 259.542 24.546C260.062 24.5508 260.572 24.5618 261.072 24.5797C261.574 24.599 262.043 24.6306 262.48 24.6761L262.385 26.1975H258.763C258.535 26.1975 258.364 26.2569 258.25 26.3754C258.136 26.4946 258.079 26.6687 258.079 26.8969V31.7215C258.079 31.9495 258.136 32.1231 258.25 32.2425C258.364 32.3603 258.534 32.4194 258.763 32.4194H262.385L262.48 33.9409C262.043 33.9779 261.574 34.0076 261.072 34.0303C260.572 34.0524 260.061 34.0669 259.542 34.0709C259.022 34.0766 258.508 34.0786 257.997 34.0786C257.396 34.0786 256.911 33.9021 256.542 33.5508C256.172 33.1986 255.988 32.7399 255.988 32.1734V26.444C255.988 25.8688 256.172 25.4079 256.542 25.0599C256.911 24.7127 257.396 24.5389 257.997 24.5389V24.5391Z" fill="white"/>
<path d="M200.642 50.5H198.55V41.0423H200.642V50.5ZM202.254 40.9061C203.001 40.9061 203.633 40.9854 204.147 41.1452C204.662 41.3057 205.077 41.5681 205.391 41.9335C205.706 42.2987 205.935 42.7948 206.082 43.4204C206.228 44.0461 206.3 44.8303 206.3 45.7707C206.3 46.7124 206.228 47.4961 206.082 48.1216C205.935 48.748 205.706 49.2424 205.391 49.609C205.077 49.9742 204.662 50.2368 204.147 50.3965C203.633 50.5564 203.001 50.6372 202.254 50.6372C201.535 50.6372 200.874 50.6227 200.272 50.595C199.671 50.5683 199.097 50.5357 198.55 50.5L199.425 48.951C199.771 48.969 200.183 48.9847 200.662 48.9987C201.141 49.0124 201.671 49.0193 202.254 49.0193C202.719 49.0193 203.086 48.9258 203.355 48.7382C203.624 48.5509 203.815 48.2201 203.929 47.7447C204.043 47.2698 204.1 46.6118 204.1 45.7707C204.1 44.9309 204.043 44.2729 203.929 43.7972C203.815 43.3231 203.624 42.9885 203.355 42.7968C203.086 42.6052 202.719 42.5087 202.254 42.5087C201.698 42.5087 201.202 42.5117 200.765 42.5157C200.327 42.5212 199.899 42.5226 199.48 42.5226L198.55 41.0425C199.097 41.0059 199.668 40.9737 200.266 40.9469C200.862 40.9185 201.525 40.9063 202.254 40.9063V40.9061Z" fill="white"/>
<path d="M207.995 44.839H213.641V46.319H207.995V44.839ZM209.759 41.0013C210.269 41.0013 210.784 41.0033 211.303 41.0082C211.823 41.0137 212.333 41.0247 212.834 41.0425C213.335 41.0612 213.805 41.093 214.242 41.139L214.147 42.6605H210.525C210.297 42.6605 210.126 42.7198 210.012 42.8374C209.898 42.9568 209.841 43.131 209.841 43.3591V48.1835C209.841 48.4117 209.898 48.5853 210.012 48.7045C210.126 48.823 210.297 48.8823 210.525 48.8823H214.147L214.242 50.4037C213.805 50.4408 213.335 50.4705 212.834 50.4932C212.334 50.5152 211.823 50.5298 211.303 50.5333C210.784 50.5388 210.269 50.541 209.759 50.541C209.157 50.541 208.672 50.3645 208.303 50.0138C207.934 49.6616 207.75 49.2029 207.75 48.6364V42.9065C207.75 42.3312 207.934 41.8701 208.303 41.5224C208.672 41.1752 209.157 41.0015 209.759 41.0015V41.0013Z" fill="white"/>
<path d="M220.598 50.5H218.534V41.0423H220.598V50.5ZM222.17 40.9061C222.999 40.9061 223.671 40.9901 224.187 41.159C224.701 41.3283 225.079 41.6157 225.321 42.0228C225.562 42.4294 225.683 42.9938 225.683 43.7152C225.683 44.1541 225.626 44.5398 225.513 44.874C225.398 45.2068 225.209 45.4742 224.945 45.6754C224.681 45.8765 224.321 46.004 223.866 46.0586V46.1274C224.029 46.1543 224.2 46.2192 224.377 46.319C224.555 46.4203 224.721 46.5684 224.877 46.7648C225.032 46.962 225.146 47.2237 225.219 47.5524L226.038 50.5H223.838L223.113 47.6213C223.031 47.3112 222.91 47.0955 222.751 46.977C222.592 46.8578 222.37 46.7992 222.088 46.7992C221.468 46.7992 220.947 46.7971 220.523 46.7924C220.099 46.7876 219.744 46.7807 219.457 46.7709C219.17 46.7627 218.913 46.7537 218.685 46.7433L218.726 45.222H222.129C222.494 45.222 222.783 45.1841 222.998 45.1057C223.212 45.0285 223.362 44.8893 223.449 44.688C223.535 44.4874 223.579 44.2091 223.579 43.8523C223.579 43.487 223.535 43.206 223.449 43.0095C223.362 42.8124 223.212 42.6753 222.998 42.5982C222.783 42.5211 222.494 42.4819 222.129 42.4819C221.272 42.4819 220.548 42.486 219.956 42.4955C219.363 42.5046 218.958 42.5184 218.739 42.5364L218.534 41.0425C218.918 40.9973 219.277 40.9654 219.614 40.9469C219.951 40.9288 220.321 40.9171 220.722 40.9125C221.123 40.9081 221.606 40.9063 222.17 40.9063L222.17 40.9061Z" fill="white"/>
<path d="M227.487 44.839H233.132V46.319H227.487V44.839ZM229.251 41.0013C229.761 41.0013 230.276 41.0033 230.795 41.0082C231.315 41.0137 231.825 41.0247 232.326 41.0425C232.827 41.0612 233.296 41.093 233.734 41.139L233.638 42.6605H230.016C229.788 42.6605 229.618 42.7198 229.503 42.8374C229.389 42.9568 229.333 43.131 229.333 43.3591V48.1835C229.333 48.4117 229.389 48.5853 229.503 48.7045C229.618 48.823 229.788 48.8823 230.016 48.8823H233.638L233.734 50.4037C233.297 50.4408 232.827 50.4705 232.326 50.4932C231.825 50.5152 231.315 50.5298 230.795 50.5333C230.276 50.5388 229.761 50.541 229.251 50.541C228.649 50.541 228.164 50.3645 227.795 50.0138C227.426 49.6616 227.241 49.2029 227.241 48.6364V42.9065C227.241 42.3312 227.426 41.8701 227.795 41.5224C228.164 41.1752 228.649 41.0015 229.251 41.0015V41.0013Z" fill="white"/>
<path d="M238.258 40.8641C238.723 40.8641 239.229 40.8897 239.776 40.9392C240.322 40.9902 240.855 41.093 241.375 41.2479L241.238 42.6323C240.837 42.6233 240.367 42.6143 239.83 42.6048C239.293 42.5964 238.764 42.5918 238.244 42.5918C237.989 42.5918 237.773 42.5986 237.595 42.6123C237.418 42.6261 237.274 42.6619 237.165 42.7213C237.055 42.7812 236.978 42.8702 236.932 42.9887C236.887 43.1079 236.864 43.2716 236.864 43.4826C236.864 43.8023 236.939 44.036 237.09 44.1807C237.24 44.3274 237.498 44.4604 237.862 44.5789L239.68 45.168C240.436 45.4242 240.961 45.7709 241.251 46.2097C241.543 46.6486 241.689 47.2233 241.689 47.9365C241.689 48.476 241.625 48.9239 241.498 49.2801C241.37 49.6363 241.169 49.9152 240.897 50.1163C240.622 50.317 240.263 50.4609 239.817 50.5478C239.37 50.6346 238.823 50.6774 238.176 50.6774C237.867 50.6774 237.424 50.6575 236.85 50.6161C236.276 50.5755 235.62 50.4722 234.882 50.3081L235.018 48.8281C235.556 48.8364 236.023 48.8488 236.42 48.8618C236.816 48.8756 237.156 48.8846 237.438 48.8886C237.72 48.8942 237.966 48.8963 238.176 48.8963C238.54 48.8963 238.825 48.8735 239.03 48.8279C239.235 48.7818 239.379 48.6902 239.461 48.5531C239.543 48.4161 239.584 48.2203 239.584 47.9641C239.584 47.7441 239.554 47.5686 239.496 47.4361C239.436 47.3047 239.34 47.1984 239.208 47.1213C239.076 47.0442 238.896 46.9724 238.669 46.9085L236.755 46.2505C236.035 45.9859 235.524 45.6394 235.224 45.2101C234.923 44.7802 234.773 44.2131 234.773 43.5097C234.773 42.9618 234.839 42.5153 234.971 42.173C235.103 41.8311 235.308 41.5637 235.586 41.3716C235.864 41.1794 236.224 41.0477 236.666 40.974C237.107 40.9017 237.639 40.8645 238.258 40.8645V40.8641Z" fill="white"/>
<path d="M245.175 50.5H243.083V41.0423H245.175V50.5ZM246.706 40.9061C247.59 40.9061 248.282 40.9971 248.783 41.179C249.285 41.3623 249.642 41.6778 249.857 42.1251C250.071 42.5737 250.178 43.1991 250.178 44.0033C250.178 44.8074 250.075 45.433 249.87 45.8803C249.666 46.3289 249.33 46.6417 248.866 46.8194C248.401 46.9985 247.773 47.0868 246.979 47.0868C246.561 47.0868 246.15 47.0688 245.749 47.0318C245.348 46.9959 244.975 46.9498 244.629 46.8952C244.283 46.8401 243.986 46.7829 243.74 46.7238C243.493 46.6645 243.325 46.6074 243.234 46.552L243.276 45.5103H244.95H246.665C247.03 45.5021 247.315 45.456 247.52 45.3739C247.725 45.2913 247.87 45.1411 247.957 44.9219C248.044 44.7019 248.087 44.3961 248.087 44.0033C248.087 43.6011 248.043 43.2911 247.957 43.0711C247.87 42.8519 247.725 42.6984 247.52 42.6122C247.315 42.5248 247.03 42.482 246.665 42.482C245.827 42.482 245.107 42.4862 244.505 42.4957C243.905 42.5047 243.499 42.5226 243.289 42.5501L243.084 41.0425C243.467 40.9973 243.827 40.9654 244.164 40.9469C244.5 40.9288 244.867 40.9171 245.264 40.9125C245.661 40.9081 246.142 40.9063 246.707 40.9063L246.706 40.9061Z" fill="white"/>
<path d="M253.554 50.5H251.477V41.0424H253.554V50.5Z" fill="white"/>
<path d="M257.45 50.5H255.386V41.0423H257.45V50.5ZM259.022 40.9061C259.851 40.9061 260.523 40.9901 261.038 41.159C261.553 41.3283 261.931 41.6157 262.173 42.0228C262.414 42.4294 262.535 42.9938 262.535 43.7152C262.535 44.1541 262.478 44.5398 262.364 44.874C262.249 45.2068 262.061 45.4742 261.797 45.6754C261.532 45.8765 261.173 46.004 260.717 46.0586V46.1274C260.882 46.1543 261.052 46.2192 261.23 46.319C261.408 46.4203 261.573 46.5684 261.728 46.7648C261.883 46.962 261.997 47.2237 262.07 47.5524L262.891 50.5H260.69L259.965 47.6213C259.883 47.3112 259.762 47.0955 259.603 46.977C259.443 46.8578 259.222 46.7992 258.94 46.7992C258.32 46.7992 257.799 46.7971 257.375 46.7924C256.951 46.7876 256.596 46.7807 256.309 46.7709C256.022 46.7627 255.764 46.7537 255.536 46.7433L255.577 45.222H258.981C259.346 45.222 259.634 45.1841 259.849 45.1057C260.063 45.0285 260.214 44.8893 260.3 44.688C260.387 44.4874 260.43 44.2091 260.43 43.8523C260.43 43.487 260.387 43.206 260.3 43.0095C260.214 42.8124 260.063 42.6753 259.849 42.5982C259.634 42.5211 259.346 42.4819 258.981 42.4819C258.124 42.4819 257.4 42.486 256.807 42.4955C256.215 42.5046 255.809 42.5184 255.592 42.5364L255.386 41.0425C255.769 40.9973 256.129 40.9654 256.466 40.9469C256.803 40.9288 257.172 40.9171 257.573 40.9125C257.974 40.9081 258.457 40.9063 259.022 40.9063L259.022 40.9061Z" fill="white"/>
<path d="M270.121 48.0052H265.227V46.4295H270.121V48.0052ZM268.672 41.0424C268.845 41.0424 268.997 41.0929 269.13 41.1933C269.262 41.2932 269.351 41.4269 269.397 41.5908L272.13 50.5H269.998L268.07 43.5511C268.034 43.3954 267.997 43.2383 267.962 43.0777C267.925 42.9188 267.893 42.7651 267.866 42.6188H267.497C267.469 42.7649 267.44 42.9186 267.407 43.0777C267.376 43.2383 267.336 43.3955 267.291 43.5511L265.364 50.5H263.218L265.966 41.5908C266.011 41.4269 266.101 41.2932 266.232 41.1933C266.364 41.0927 266.517 41.0424 266.69 41.0424H268.673H268.672Z" fill="white"/>
<path d="M275.657 51.322C276.122 51.2669 276.5 51.2504 276.791 51.2746C277.083 51.2966 277.298 51.3792 277.434 51.5205C277.57 51.6625 277.634 51.8925 277.626 52.213C277.607 52.6699 277.476 53.0466 277.229 53.3442C276.983 53.6405 276.655 53.8487 276.244 53.967C275.835 54.0855 275.379 54.1139 274.877 54.049L275.11 53.1993C275.447 53.2084 275.732 53.1513 275.965 53.0286C276.197 52.9046 276.322 52.6922 276.34 52.3904C276.359 52.2539 276.311 52.1713 276.197 52.1437C276.083 52.1162 275.839 52.0982 275.466 52.0893L275.657 51.3218L275.657 51.322ZM276.628 40.8786C277.074 40.8786 277.454 40.8896 277.769 40.9123C278.083 40.935 278.372 40.9701 278.637 41.0148C278.902 41.0611 279.174 41.1243 279.457 41.2065L279.293 42.7421C278.993 42.7236 278.716 42.7104 278.466 42.7009C278.216 42.6919 277.946 42.685 277.66 42.6802C277.373 42.6754 277.028 42.6734 276.628 42.6734C276.163 42.6734 275.801 42.765 275.541 42.9481C275.281 43.1307 275.097 43.4477 274.987 43.9004C274.878 44.3524 274.823 44.9759 274.823 45.7704C274.823 46.5663 274.877 47.1897 274.987 47.6417C275.097 48.0939 275.281 48.4114 275.541 48.594C275.801 48.7773 276.163 48.8674 276.628 48.8674C277.257 48.8674 277.785 48.8592 278.213 48.8407C278.642 48.8227 279.065 48.7903 279.484 48.7447L279.662 50.2799C279.225 50.4178 278.778 50.5149 278.323 50.5749C277.867 50.6343 277.302 50.6637 276.628 50.6637C275.652 50.6637 274.871 50.5059 274.283 50.1904C273.696 49.8755 273.272 49.3615 273.012 48.6491C272.752 47.936 272.622 46.9769 272.622 45.7704C272.622 44.5646 272.752 43.6056 273.012 42.893C273.272 42.1791 273.696 41.6658 274.283 41.351C274.871 41.0354 275.652 40.8783 276.628 40.8783L276.628 40.8786Z" fill="white"/>
<path d="M283.161 38.2051C283.389 38.2238 283.594 38.2632 283.776 38.3223C283.958 38.3816 284.134 38.4485 284.303 38.5208C284.471 38.5939 284.639 38.6647 284.808 38.7336C284.977 38.8012 285.152 38.8499 285.335 38.8775C285.571 38.9134 285.72 38.8818 285.779 38.7818C285.838 38.6805 285.867 38.5111 285.867 38.2741H286.742C286.842 38.923 286.779 39.4138 286.551 39.7471C286.323 40.0813 286.013 40.2344 285.621 40.2062C285.312 40.1793 285.032 40.1174 284.781 40.0222C284.53 39.9257 284.298 39.8259 284.084 39.7198C283.869 39.6159 283.653 39.5488 283.434 39.5213C283.206 39.4937 283.063 39.5311 283.004 39.6308C282.945 39.7321 282.915 39.9057 282.915 40.1517H282.04C281.976 39.6949 281.99 39.3202 282.082 39.0279C282.172 38.7364 282.317 38.5208 282.518 38.3846C282.719 38.2472 282.933 38.1881 283.161 38.2053L283.161 38.2051ZM286.866 48.0052H281.972V46.4294H286.866V48.0052ZM285.416 41.0426C285.59 41.0426 285.742 41.0928 285.874 41.1933C286.007 41.2933 286.095 41.4268 286.141 41.5909L288.874 50.5H286.742L284.815 43.5511C284.779 43.3953 284.742 43.2384 284.706 43.0779C284.669 42.9186 284.637 42.765 284.61 42.6188H284.241C284.213 42.7649 284.184 42.9186 284.152 43.0779C284.121 43.2384 284.081 43.3955 284.035 43.5511L282.108 50.5H279.962L282.711 41.5909C282.755 41.4268 282.845 41.2933 282.976 41.1933C283.109 41.0927 283.262 41.0426 283.434 41.0426H285.417H285.416Z" fill="white"/>
<path d="M293.44 42.5089C292.958 42.5089 292.581 42.6054 292.312 42.797C292.044 42.9884 291.852 43.3206 291.739 43.7905C291.624 44.2617 291.567 44.9217 291.567 45.7708C291.567 46.6121 291.624 47.2701 291.739 47.7448C291.852 48.2202 292.044 48.553 292.312 48.7452C292.581 48.9368 292.958 49.0333 293.44 49.0333C293.914 49.0333 294.285 48.9368 294.555 48.7452C294.823 48.553 295.014 48.2202 295.128 47.7448C295.243 47.2699 295.3 46.6119 295.3 45.7708C295.3 44.9219 295.243 44.2619 295.128 43.7905C295.014 43.3206 294.823 42.9883 294.555 42.797C294.285 42.6054 293.914 42.5089 293.44 42.5089ZM293.44 40.8505C294.188 40.8505 294.821 40.9311 295.341 41.0909C295.86 41.2506 296.277 41.5154 296.591 41.8859C296.905 42.2558 297.136 42.7583 297.281 43.3927C297.427 44.028 297.5 44.8204 297.5 45.7707C297.5 46.7206 297.427 47.5145 297.281 48.1491C297.136 48.7837 296.905 49.2867 296.591 49.6566C296.277 50.0266 295.86 50.2919 295.341 50.4511C294.821 50.6117 294.188 50.6915 293.44 50.6915C292.693 50.6915 292.06 50.6115 291.54 50.4511C291.02 50.2919 290.602 50.0266 290.282 49.6566C289.964 49.2867 289.731 48.7837 289.586 48.1491C289.44 47.5143 289.367 46.7206 289.367 45.7707C289.367 44.8204 289.44 44.028 289.586 43.3927C289.731 42.7581 289.964 42.2558 290.282 41.8859C290.602 41.5152 291.02 41.2506 291.54 41.0909C292.06 40.9311 292.693 40.8505 293.44 40.8505Z" fill="white"/>
<path d="M204.51 64.4673H199.616V62.8916H204.51V64.4673ZM203.061 57.5056C203.234 57.5056 203.387 57.5558 203.519 57.6558C203.651 57.7565 203.74 57.8893 203.786 58.0532L206.519 66.9623H204.387L202.459 60.0136C202.424 59.8585 202.386 59.7007 202.351 59.5408C202.314 59.3809 202.282 59.228 202.254 59.0818H201.886C201.858 59.2279 201.828 59.3808 201.796 59.5408C201.765 59.7006 201.726 59.8585 201.681 60.0136L199.753 66.9623H197.607L200.354 58.0532C200.4 57.8893 200.489 57.7563 200.621 57.6558C200.753 57.5558 200.906 57.5056 201.079 57.5056H203.061H203.061Z" fill="white"/>
<path d="M210.524 57.3266C210.989 57.3266 211.495 57.3515 212.041 57.4017C212.589 57.4526 213.122 57.5553 213.641 57.7104L213.504 59.0944C213.103 59.0856 212.634 59.0768 212.096 59.0669C211.558 59.0587 211.03 59.0539 210.51 59.0539C210.255 59.0539 210.039 59.0609 209.861 59.0746C209.684 59.0884 209.54 59.1242 209.431 59.1836C209.322 59.2433 209.244 59.3325 209.198 59.4508C209.152 59.5702 209.13 59.7341 209.13 59.9449C209.13 60.2646 209.205 60.4982 209.356 60.6428C209.506 60.7897 209.763 60.9227 210.128 61.0411L211.946 61.6303C212.702 61.8865 213.226 62.233 213.517 62.672C213.809 63.1109 213.955 63.6856 213.955 64.3987C213.955 64.9383 213.891 65.3853 213.763 65.7422C213.636 66.0984 213.436 66.3775 213.162 66.5788C212.888 66.7794 212.529 66.9233 212.082 67.0103C211.636 67.0971 211.089 67.1398 210.442 67.1398C210.132 67.1398 209.691 67.1196 209.116 67.0786C208.542 67.038 207.886 66.9347 207.148 66.7706L207.284 65.2905C207.822 65.2989 208.289 65.3112 208.686 65.3237C209.082 65.3383 209.422 65.3471 209.704 65.3513C209.986 65.3568 210.232 65.3586 210.442 65.3586C210.806 65.3586 211.091 65.3359 211.296 65.2905C211.502 65.2444 211.645 65.1528 211.727 65.0158C211.809 64.8787 211.85 64.6829 211.85 64.4265C211.85 64.2069 211.82 64.0311 211.761 63.8987C211.702 63.767 211.606 63.661 211.474 63.5839C211.342 63.5068 211.162 63.435 210.934 63.3711L209.02 62.7131C208.3 62.4485 207.79 62.102 207.489 61.6727C207.188 61.2429 207.038 60.6757 207.038 59.9721C207.038 59.4245 207.105 58.9779 207.236 58.6354C207.368 58.2937 207.574 58.0265 207.852 57.8342C208.13 57.6417 208.49 57.5104 208.932 57.4366C209.374 57.3643 209.904 57.3271 210.524 57.3271L210.524 57.3266Z" fill="white"/>
<path d="M218.466 57.3266C218.931 57.3266 219.437 57.3515 219.984 57.4017C220.53 57.4526 221.063 57.5553 221.583 57.7104L221.446 59.0944C221.045 59.0856 220.576 59.0768 220.039 59.0669C219.501 59.0587 218.972 59.0539 218.453 59.0539C218.197 59.0539 217.981 59.0609 217.803 59.0746C217.625 59.0884 217.482 59.1242 217.373 59.1836C217.264 59.2433 217.186 59.3325 217.14 59.4508C217.095 59.5702 217.072 59.7341 217.072 59.9449C217.072 60.2646 217.148 60.4982 217.298 60.6428C217.448 60.7897 217.706 60.9227 218.07 61.0411L219.888 61.6303C220.644 61.8865 221.168 62.233 221.46 62.672C221.752 63.1109 221.897 63.6856 221.897 64.3987C221.897 64.9383 221.834 65.3853 221.706 65.7422C221.578 66.0984 221.378 66.3775 221.105 66.5788C220.831 66.7794 220.471 66.9233 220.025 67.0103C219.578 67.0971 219.031 67.1398 218.384 67.1398C218.075 67.1398 217.633 67.1196 217.058 67.0786C216.485 67.038 215.828 66.9347 215.09 66.7706L215.227 65.2905C215.764 65.2989 216.232 65.3112 216.627 65.3237C217.024 65.3383 217.364 65.3471 217.647 65.3513C217.928 65.3568 218.174 65.3586 218.384 65.3586C218.749 65.3586 219.034 65.3359 219.239 65.2905C219.444 65.2444 219.587 65.1528 219.669 65.0158C219.752 64.8787 219.793 64.6829 219.793 64.4265C219.793 64.2069 219.763 64.0311 219.703 63.8987C219.644 63.767 219.549 63.661 219.416 63.5839C219.284 63.5068 219.104 63.435 218.877 63.3711L216.963 62.7131C216.243 62.4485 215.732 62.102 215.432 61.6727C215.131 61.2429 214.98 60.6757 214.98 59.9721C214.98 59.4245 215.047 58.9779 215.179 58.6354C215.311 58.2937 215.517 58.0265 215.794 57.8342C216.072 57.6417 216.432 57.5104 216.874 57.4366C217.316 57.3643 217.847 57.3271 218.466 57.3271V57.3266Z" fill="white"/>
<path d="M225.383 66.962H223.306V57.5047H225.383V66.962Z" fill="white"/>
<path d="M230.331 57.3266C230.796 57.3266 231.301 57.3515 231.848 57.4017C232.394 57.4526 232.928 57.5553 233.447 57.7104L233.31 59.0944C232.909 59.0856 232.44 59.0768 231.903 59.0669C231.365 59.0587 230.837 59.0539 230.317 59.0539C230.062 59.0539 229.845 59.0609 229.668 59.0746C229.49 59.0884 229.347 59.1242 229.237 59.1836C229.128 59.2433 229.051 59.3325 229.005 59.4508C228.959 59.5702 228.937 59.7341 228.937 59.9449C228.937 60.2646 229.012 60.4982 229.162 60.6428C229.313 60.7897 229.57 60.9227 229.934 61.0411L231.753 61.6303C232.509 61.8865 233.033 62.233 233.324 62.672C233.616 63.1109 233.762 63.6856 233.762 64.3987C233.762 64.9383 233.698 65.3853 233.57 65.7422C233.442 66.0984 233.242 66.3775 232.969 66.5788C232.695 66.7794 232.336 66.9233 231.889 67.0103C231.443 67.0971 230.896 67.1398 230.248 67.1398C229.939 67.1398 229.497 67.1196 228.923 67.0786C228.349 67.038 227.693 66.9347 226.955 66.7706L227.091 65.2905C227.629 65.2989 228.096 65.3112 228.492 65.3237C228.888 65.3383 229.228 65.3471 229.511 65.3513C229.793 65.3568 230.039 65.3586 230.248 65.3586C230.613 65.3586 230.898 65.3359 231.103 65.2905C231.308 65.2444 231.451 65.1528 231.533 65.0158C231.616 64.8787 231.657 64.6829 231.657 64.4265C231.657 64.2069 231.627 64.0311 231.568 63.8987C231.509 63.767 231.413 63.661 231.28 63.5839C231.148 63.5068 230.968 63.435 230.741 63.3711L228.827 62.7131C228.107 62.4485 227.596 62.102 227.296 61.6727C226.995 61.2429 226.845 60.6757 226.845 59.9721C226.845 59.4245 226.911 58.9779 227.043 58.6354C227.175 58.2937 227.381 58.0265 227.658 57.8342C227.937 57.6417 228.296 57.5104 228.738 57.4366C229.18 57.3643 229.711 57.3271 230.331 57.3271L230.331 57.3266Z" fill="white"/>
<path d="M239.366 66.9621H237.274V57.5047H239.366V66.9621ZM242.209 59.1499H234.445V57.5046H242.209V59.1499Z" fill="white"/>
<path d="M245.408 66.962H243.331V57.5047H245.408V66.962Z" fill="white"/>
<path d="M249.331 66.9621H247.239V57.5048H249.331V66.9621ZM250.944 57.3684C251.691 57.3684 252.323 57.4484 252.837 57.6081C253.352 57.768 253.766 58.0306 254.08 58.3965C254.395 58.7617 254.625 59.2578 254.771 59.8834C254.917 60.509 254.99 61.2932 254.99 62.2336C254.99 63.1749 254.917 63.9591 254.771 64.5845C254.625 65.2101 254.395 65.7056 254.08 66.0714C253.766 66.4367 253.352 66.6992 252.837 66.8598C252.323 67.019 251.691 67.0995 250.944 67.0995C250.224 67.0995 249.563 67.0858 248.962 67.0583C248.36 67.0314 247.786 66.9988 247.239 66.9623L248.114 65.4134C248.461 65.4315 248.873 65.4478 249.352 65.4609C249.83 65.4754 250.36 65.4824 250.944 65.4824C251.409 65.4824 251.776 65.3886 252.044 65.2011C252.313 65.0138 252.505 64.683 252.619 64.207C252.733 63.7329 252.79 63.0749 252.79 62.2335C252.79 61.3928 252.733 60.7348 252.619 60.2603C252.505 59.7854 252.313 59.4512 252.044 59.2591C251.776 59.0675 251.409 58.9718 250.944 58.9718C250.388 58.9718 249.891 58.9738 249.454 58.9778C249.017 58.9835 248.588 58.9855 248.169 58.9855L247.239 57.5056C247.786 57.4691 248.358 57.4367 248.955 57.4096C249.552 57.3816 250.214 57.3684 250.944 57.3684Z" fill="white"/>
<path d="M262.385 64.4673H257.49V62.8916H262.385V64.4673ZM260.936 57.5056C261.109 57.5056 261.262 57.5558 261.394 57.6558C261.526 57.7565 261.615 57.8893 261.66 58.0532L264.394 66.9623H262.262L260.334 60.0136C260.298 59.8585 260.261 59.7007 260.225 59.5408C260.189 59.3809 260.157 59.228 260.129 59.0818H259.761C259.733 59.2279 259.703 59.3808 259.671 59.5408C259.639 59.7006 259.601 59.8585 259.555 60.0136L257.628 66.9623H255.482L258.23 58.0532C258.275 57.8893 258.364 57.7563 258.496 57.6558C258.629 57.5558 258.781 57.5056 258.954 57.5056H260.936H260.936Z" fill="white"/>
<path d="M68.0626 62.8833C64.0596 62.8833 60.4279 61.2497 57.7975 58.6133C55.1682 55.9758 53.5389 52.3358 53.5389 48.3202V21.8439H46.9373V48.3202C46.9373 54.1701 49.301 59.4658 53.1251 63.2994C56.9473 67.1324 62.2288 69.5033 68.0624 69.5033H74.6641V62.8833H68.0624H68.0626Z" fill="white"/>
<path d="M21.5953 62.8834C18.215 62.8834 15.0975 61.7677 12.5981 59.8944C12.0717 59.4996 11.5686 59.0732 11.1015 58.6135C10.336 57.8618 9.6563 57.0259 9.07081 56.1268C7.71705 54.0439 6.88618 51.6035 6.76598 48.9832H33.7412V42.3636H6.76598C6.88618 39.7433 7.71688 37.303 9.07081 35.22C9.6563 34.3194 10.336 33.4837 11.1015 32.7332C11.4154 32.4254 11.7439 32.1324 12.084 31.854C14.6617 29.7388 17.9793 28.4634 21.5953 28.4634H35.0915V21.8438H21.5953C21.0799 21.8438 20.5735 21.868 20.0664 21.9024C19.107 21.9672 18.1634 22.0892 17.2435 22.274C17.2002 22.2822 17.1554 22.2939 17.1122 22.3029C12.9485 23.1655 9.22613 25.2023 6.32483 28.0473C2.4167 31.8811 0 37.1768 0 43.0265V48.3202C0 54.17 2.4167 59.4657 6.32483 63.2994C9.22596 66.1435 12.9485 68.1805 17.1122 69.0429C17.1554 69.0513 17.2002 69.0645 17.2435 69.0718C18.1634 69.2571 19.107 69.378 20.0664 69.4447C20.5735 69.4784 21.0799 69.502 21.5953 69.502H36.4404V62.8833H21.5953V62.8834Z" fill="white"/>
<path d="M120.911 6.2639C117.057 2.39436 111.736 6.10352e-05 105.857 6.10352e-05C99.9774 6.10352e-05 94.6546 2.39436 90.8023 6.2639C86.9499 10.1348 84.5668 15.48 84.5668 21.385V69.502H91.0455V21.383C91.0455 17.3309 92.8604 13.484 95.5123 10.8203C98.1621 8.15944 101.821 6.50843 105.857 6.50843C109.892 6.50843 113.551 8.15944 116.201 10.8203C118.852 13.484 120.667 17.3309 120.667 21.383V69.502H127.146V21.385C127.146 15.48 124.765 10.1348 120.911 6.2639Z" fill="white"/>
<path d="M102.932 32.0844H108.47L108.781 69.5037H114.274V32.9339V21.8442L105.857 28.7751L97.4391 21.8442V32.9339V69.5037H102.932V32.0844Z" fill="white"/>
<path d="M159.33 21.347C145.02 21.347 133.606 33.7651 135.221 48.4406C136.449 59.5958 145.442 68.6137 156.566 69.8464C171.203 71.4675 183.591 60.0201 183.591 45.6735C183.591 32.2376 172.729 21.347 159.33 21.347ZM159.33 27.7493C171.662 27.7493 181.118 40.3356 175.59 53.369C173.953 57.2359 170.862 60.3338 167.006 61.9776C154.005 67.5202 141.453 58.0379 141.453 45.6735C141.453 35.7895 149.472 27.7493 159.329 27.7493H159.33Z" fill="white"/>
</g>
<defs>
<clipPath id="clip0">
<rect width="297.5" height="70" fill="white"/>
</clipPath>
</defs>
</svg>
