<svg width="205" height="200" viewBox="0 0 205 200" fill="none" xmlns="http://www.w3.org/2000/svg">
<g clip-path="url(#clip0_8149_9014)">
<path d="M130.128 44.9793H74.9184C73.6603 44.9809 72.4541 45.4813 71.5645 46.371C70.6749 47.2606 70.1744 48.4667 70.1729 49.7249V172.428L69.5401 172.621L55.9964 176.769C55.3545 176.965 54.6612 176.898 54.0686 176.583C53.4761 176.268 53.0328 175.731 52.8359 175.089L12.5494 43.4956C12.3534 42.8537 12.4202 42.1602 12.7352 41.5676C13.0502 40.9749 13.5876 40.5316 14.2294 40.3351L35.1003 33.9444L95.6058 15.4242L116.477 9.03353C116.794 8.93578 117.128 8.90162 117.459 8.93301C117.79 8.9644 118.111 9.06072 118.405 9.21646C118.698 9.37221 118.958 9.58431 119.17 9.84064C119.381 10.097 119.54 10.3925 119.637 10.7103L129.935 44.3466L130.128 44.9793Z" fill="#F2F2F2"/>
<path d="M142.175 44.3466L129.764 3.80713C129.558 3.13167 129.22 2.50351 128.771 1.95856C128.321 1.41361 127.769 0.962538 127.145 0.631129C126.521 0.299719 125.839 0.0944607 125.135 0.0270904C124.432 -0.0402799 123.723 0.0315581 123.048 0.238492L93.7043 9.2202L33.2021 27.7436L3.85888 36.7285C2.49575 37.147 1.35438 38.0893 0.685302 39.3486C0.0162266 40.6078 -0.125894 42.0811 0.290141 43.445L42.7089 181.992C43.0468 183.093 43.7288 184.057 44.6546 184.742C45.5805 185.427 46.7014 185.797 47.8531 185.798C48.3861 185.798 48.9162 185.718 49.4254 185.561L69.5401 179.404L70.1729 179.208V178.547L69.5401 178.74L49.2388 184.957C48.0356 185.323 46.736 185.198 45.6251 184.608C44.5143 184.018 43.6828 183.011 43.3132 181.809L0.897698 43.2583C0.714549 42.6626 0.650717 42.0365 0.709854 41.4161C0.768992 40.7956 0.949932 40.1929 1.24233 39.6425C1.53472 39.0921 1.93283 38.6048 2.41383 38.2084C2.89484 37.8121 3.4493 37.5145 4.04547 37.3327L33.3887 28.3479L93.8911 9.82763L123.234 0.842762C123.686 0.704762 124.157 0.634398 124.629 0.633958C125.644 0.636236 126.631 0.963347 127.447 1.56738C128.262 2.17141 128.862 3.02062 129.16 3.99063L141.514 44.3466L141.71 44.9794H142.368L142.175 44.3466Z" fill="#3F3D56"/>
<path d="M38.8665 40.4385C38.2567 40.4381 37.6631 40.2422 37.1728 39.8797C36.6825 39.5172 36.3213 39.0071 36.1421 38.4243L32.0672 25.1141C31.9577 24.7565 31.9197 24.3809 31.9554 24.0087C31.9911 23.6365 32.0997 23.275 32.2751 22.9447C32.4506 22.6145 32.6893 22.3221 32.9778 22.0841C33.2662 21.8462 33.5987 21.6674 33.9563 21.558L89.6179 4.51721C90.34 4.29687 91.1199 4.37202 91.7867 4.72616C92.4534 5.0803 92.9524 5.6845 93.1741 6.40615L97.249 19.7165C97.4692 20.4386 97.394 21.2185 97.0399 21.8852C96.6858 22.5519 96.0817 23.0509 95.3601 23.2727L39.6984 40.3135C39.4288 40.3962 39.1484 40.4384 38.8665 40.4385Z" fill="#4CAF50"/>
<path d="M60.2127 14.2222C63.7072 14.2222 66.5401 11.3894 66.5401 7.89486C66.5401 4.40035 63.7072 1.56749 60.2127 1.56749C56.7182 1.56749 53.8853 4.40035 53.8853 7.89486C53.8853 11.3894 56.7182 14.2222 60.2127 14.2222Z" fill="#4CAF50"/>
<path d="M60.2127 11.9016C62.4255 11.9016 64.2194 10.1077 64.2194 7.89487C64.2194 5.68204 62.4255 3.88818 60.2127 3.88818C57.9999 3.88818 56.206 5.68204 56.206 7.89487C56.206 10.1077 57.9999 11.9016 60.2127 11.9016Z" fill="white"/>
<path d="M190.709 184.182H83.7768C83.0638 184.181 82.3803 183.897 81.8762 183.393C81.372 182.889 81.0885 182.205 81.0876 181.492V53.3631C81.0884 52.6502 81.372 51.9666 81.8762 51.4625C82.3803 50.9584 83.0638 50.6748 83.7768 50.674H190.709C191.422 50.6748 192.106 50.9584 192.61 51.4625C193.114 51.9666 193.398 52.6502 193.399 53.3631V181.492C193.398 182.205 193.114 182.889 192.61 183.393C192.106 183.897 191.422 184.181 190.709 184.182Z" fill="#E6E6E6"/>
<path d="M141.514 44.3466H74.9184C73.4926 44.3486 72.1258 44.9159 71.1176 45.9241C70.1094 46.9323 69.5421 48.2991 69.5401 49.7249V178.74L70.1729 178.547V49.7249C70.1744 48.4667 70.6749 47.2606 71.5645 46.371C72.4541 45.4813 73.6603 44.9809 74.9184 44.9793H141.71L141.514 44.3466ZM199.568 44.3466H74.9184C73.4926 44.3486 72.1258 44.9159 71.1176 45.9241C70.1094 46.9323 69.5421 48.2991 69.5401 49.7249V194.622C69.5421 196.048 70.1094 197.414 71.1176 198.423C72.1258 199.431 73.4926 199.998 74.9184 200H199.568C200.993 199.998 202.36 199.431 203.368 198.423C204.377 197.414 204.944 196.048 204.946 194.622V49.7249C204.944 48.2991 204.377 46.9323 203.368 45.9241C202.36 44.9159 200.993 44.3486 199.568 44.3466ZM204.313 194.622C204.312 195.88 203.811 197.086 202.922 197.976C202.032 198.865 200.826 199.366 199.568 199.367H74.9184C73.6603 199.366 72.4541 198.865 71.5645 197.976C70.6749 197.086 70.1744 195.88 70.1729 194.622V49.7249C70.1744 48.4667 70.6749 47.2606 71.5645 46.371C72.4541 45.4813 73.6603 44.9809 74.9184 44.9793H199.568C200.826 44.9809 202.032 45.4813 202.922 46.371C203.811 47.2606 204.312 48.4667 204.313 49.7249V194.622Z" fill="#3F3D56"/>
<path d="M166.349 58.2668H108.137C107.382 58.266 106.659 57.9657 106.125 57.4319C105.591 56.8981 105.291 56.1744 105.29 55.4195V41.4993C105.291 40.7444 105.591 40.0207 106.125 39.4869C106.659 38.9531 107.382 38.6528 108.137 38.652H166.349C167.104 38.6528 167.828 38.9531 168.361 39.4869C168.895 40.0207 169.195 40.7444 169.196 41.4993V55.4195C169.195 56.1744 168.895 56.8981 168.361 57.4319C167.828 57.9657 167.104 58.266 166.349 58.2668Z" fill="#4CAF50"/>
<path d="M137.243 39.6011C140.738 39.6011 143.57 36.7682 143.57 33.2737C143.57 29.7792 140.738 26.9463 137.243 26.9463C133.749 26.9463 130.916 29.7792 130.916 33.2737C130.916 36.7682 133.749 39.6011 137.243 39.6011Z" fill="#4CAF50"/>
<path d="M137.243 37.1277C139.372 37.1277 141.097 35.4022 141.097 33.2737C141.097 31.1452 139.372 29.4197 137.243 29.4197C135.115 29.4197 133.389 31.1452 133.389 33.2737C133.389 35.4022 135.115 37.1277 137.243 37.1277Z" fill="white"/>
</g>
<defs>
<clipPath id="clip0_8149_9014">
<rect width="204.892" height="200" fill="white" transform="translate(0.0540924)"/>
</clipPath>
</defs>
</svg>
