<svg width="140" height="100" viewBox="0 0 140 100" fill="none" xmlns="http://www.w3.org/2000/svg">
<path d="M0 8C0 3.58172 3.58172 0 8 0H132C136.418 0 140 3.58172 140 8V100H0V8Z" fill="#4CAF50"/>
<path d="M77.6358 34.75H58.3642L44.75 48.3642V67.6358L58.3642 81.25H77.6358L91.25 67.6358V48.3642L77.6358 34.75ZM68 71.6917C66.14 71.6917 64.6417 70.1933 64.6417 68.3333C64.6417 66.4733 66.14 64.975 68 64.975C69.86 64.975 71.3583 66.4733 71.3583 68.3333C71.3583 70.1933 69.86 71.6917 68 71.6917ZM70.5833 60.5833H65.4167V45.0833H70.5833V60.5833Z" fill="white"/>
</svg>
