<svg width="140" height="100" viewBox="0 0 140 100" fill="none" xmlns="http://www.w3.org/2000/svg">
<path d="M0 8C0 3.58172 3.58172 0 8 0H132C136.418 0 140 3.58172 140 8V100H0V8Z" fill="#4CAF50"/>
<path d="M69.5783 29.2158L63.6525 35.0031H75.4569L69.5783 29.2158ZM50.5968 39.633V69.7272H88.371V39.633H50.5968ZM69.4839 23.4285L81.2883 35.0031H88.371C89.6233 35.0031 90.8243 35.4909 91.7098 36.3592C92.5953 37.2275 93.0928 38.4051 93.0928 39.633V69.7272C93.0928 70.9551 92.5953 72.1327 91.7098 73.001C90.8243 73.8693 89.6233 74.357 88.371 74.357H50.5968C49.3445 74.357 48.1435 73.8693 47.258 73.001C46.3725 72.1327 45.875 70.9551 45.875 69.7272V39.633C45.875 38.4051 46.3725 37.2275 47.258 36.3592C48.1435 35.4909 49.3445 35.0031 50.5968 35.0031H57.6794L69.4839 23.4285ZM57.6794 65.0973V55.8376H69.4839V65.0973H57.6794ZM74.2057 62.7824V46.5778H83.6492V62.7824H74.2057ZM55.3186 51.2077V44.2629H67.123V51.2077H55.3186Z" fill="white"/>
</svg>
