<svg width="100" height="100" viewBox="0 0 100 100" fill="none" xmlns="http://www.w3.org/2000/svg">
<path d="M49.7033 30.7873L43.7775 36.5746H55.5819L49.7033 30.7873ZM30.7218 41.2045V71.2987H68.496V41.2045H30.7218ZM49.6089 25L61.4133 36.5746H68.496C69.7483 36.5746 70.9493 37.0624 71.8348 37.9307C72.7203 38.799 73.2178 39.9766 73.2178 41.2045V71.2987C73.2178 72.5266 72.7203 73.7042 71.8348 74.5725C70.9493 75.4408 69.7483 75.9285 68.496 75.9285H30.7218C29.4695 75.9285 28.2685 75.4408 27.383 74.5725C26.4975 73.7042 26 72.5266 26 71.2987V41.2045C26 39.9766 26.4975 38.799 27.383 37.9307C28.2685 37.0624 29.4695 36.5746 30.7218 36.5746H37.8044L49.6089 25ZM37.8044 66.6688V57.4091H49.6089V66.6688H37.8044ZM54.3307 64.3539V48.1493H63.7742V64.3539H54.3307ZM35.4436 52.7792V45.8344H47.248V52.7792H35.4436Z" fill="white"/>
</svg>
