<svg width="140" height="100" viewBox="0 0 140 100" fill="none" xmlns="http://www.w3.org/2000/svg">
<path d="M0 8C0 3.58172 3.58172 0 8 0H132C136.418 0 140 3.58172 140 8V100H0V8Z" fill="#4CAF50"/>
<g clip-path="url(#clip0)">
<path d="M61.7334 64.9694V73.8538C61.7334 75.8551 60.8136 77.6946 59.2167 78.8873C58.1149 79.7161 56.8111 80.1406 55.487 80.1406C54.8907 80.1406 54.2842 80.0497 53.698 79.8778L48.7049 78.4021C46.36 77.7148 44.5508 75.8146 43.9848 73.4495C43.2267 70.2859 42.125 62.5537 42.125 56.8632C42.125 45.7653 47.8256 39.9535 51.2217 37.4873C52.3941 36.6282 53.7586 36.1733 55.1636 36.1733C58.6607 36.1733 61.1775 38.3464 61.7132 41.8335C61.885 42.9352 61.127 43.9662 60.0252 44.138C58.9235 44.3098 57.8926 43.5518 57.7208 42.45C57.4883 40.9339 56.6797 40.2264 55.1737 40.2264C54.6279 40.2264 54.1023 40.4083 53.607 40.7621C50.2109 43.2182 46.168 48.0192 46.168 56.8632C46.168 62.2505 47.1989 69.5278 47.9166 72.4994C48.149 73.4697 48.8869 74.248 49.837 74.5209L54.83 75.9966C55.5072 76.1987 56.2249 76.0673 56.7909 75.6428C57.367 75.2183 57.6904 74.5613 57.6904 73.8437V64.9593C57.6904 63.8475 58.6001 62.9378 59.7119 62.9378C60.8237 62.9378 61.7334 63.8475 61.7334 64.9694ZM75.9849 44.138C77.0866 44.3098 78.1175 43.5518 78.2894 42.45C78.5218 40.9339 79.3304 40.2264 80.8364 40.2264C81.3822 40.2264 81.9078 40.4083 82.4031 40.7621C85.7891 43.2182 89.832 48.0192 89.832 56.8632C89.832 57.975 90.7417 58.8847 91.8535 58.8847C92.9653 58.8847 93.875 57.975 93.875 56.8632C93.875 45.7552 88.1744 39.9535 84.7783 37.4772C83.6059 36.6181 82.2414 36.1632 80.8364 36.1632C77.3393 36.1632 74.8225 38.3363 74.2868 41.8234C74.1251 42.9352 74.873 43.9662 75.9849 44.138ZM93.875 70.5386C93.875 71.6504 92.9653 72.5601 91.8535 72.5601H90.4284C90.1757 73.7123 89.731 74.7837 89.1043 75.7439L90.1555 76.7951C90.9438 77.5834 90.9438 78.8671 90.1555 79.6555C89.7613 80.0497 89.2458 80.2518 88.7303 80.2518C88.2148 80.2518 87.6994 80.0497 87.3052 79.6555L86.254 78.6043C85.2938 79.2208 84.2224 79.6757 83.0702 79.9284V81.3535C83.0702 82.4653 82.1605 83.375 81.0487 83.375C79.9369 83.375 79.0272 82.4653 79.0272 81.3535V79.9284C77.875 79.6757 76.8036 79.231 75.8434 78.6043L74.7922 79.6555C74.398 80.0497 73.8825 80.2518 73.367 80.2518C72.8516 80.2518 72.3361 80.0497 71.9419 79.6555C71.1535 78.8671 71.1535 77.5834 71.9419 76.7951L72.9931 75.7439C72.3765 74.7837 71.9217 73.7123 71.669 72.5601H70.2236C69.1118 72.5601 68.2021 71.6504 68.2021 70.5386C68.2021 69.4268 69.1118 68.5171 70.2236 68.5171H71.6488C71.9015 67.3648 72.3462 66.2935 72.9729 65.3333L71.9217 64.2821C71.1333 63.4937 71.1333 62.2101 71.9217 61.4217C72.7101 60.6333 73.9937 60.6333 74.7821 61.4217L75.8333 62.4729C76.7935 61.8563 77.8648 61.4015 79.0171 61.1488V59.7236C79.0171 58.6118 79.9268 57.7021 81.0386 57.7021C82.1504 57.7021 83.0601 58.6118 83.0601 59.7236V61.1488C84.2123 61.4015 85.2837 61.8462 86.2439 62.4729L87.2951 61.4217C88.0834 60.6333 89.3671 60.6333 90.1555 61.4217C90.9438 62.2101 90.9438 63.4937 90.1555 64.2821L89.1043 65.3333C89.7208 66.2935 90.1757 67.3648 90.4284 68.5171H91.8535C92.9653 68.5171 93.875 69.4268 93.875 70.5386ZM86.5977 70.5386C86.5977 67.476 84.1011 64.9795 81.0386 64.9795C77.976 64.9795 75.4795 67.476 75.4795 70.5386C75.4795 73.6011 77.976 76.0977 81.0386 76.0977C84.1011 76.0977 86.5977 73.6011 86.5977 70.5386ZM83.5654 70.5386C83.5654 71.9334 82.4334 73.0654 81.0386 73.0654C79.6437 73.0654 78.5117 71.9334 78.5117 70.5386C78.5117 69.1437 79.6437 68.0117 81.0386 68.0117C82.4334 68.0117 83.5654 69.1437 83.5654 70.5386ZM83.7777 51.0515C81.5136 50.6977 77.9053 49.6566 74.964 48.1203C73.1144 47.1601 70.0215 45.1892 70.0215 42.8341V33.6465C70.0215 32.5347 69.1118 31.625 68 31.625C66.8882 31.625 65.9785 32.5347 65.9785 33.6465V42.8341C65.9785 45.1993 62.8856 47.1601 61.036 48.1203C58.0947 49.6566 54.4864 50.6977 52.2223 51.0515C51.1206 51.2233 50.3625 52.2542 50.5344 53.356C50.686 54.3566 51.5451 55.0641 52.5255 55.0641C53.4352 55.0641 54.6481 54.7002 55.8206 54.3869C55.2849 56.0041 54.3752 57.7325 52.9298 58.5613C51.9595 59.1172 51.626 60.3503 52.1819 61.3206C52.5559 61.9675 53.2331 62.3313 53.9406 62.3313C54.2842 62.3313 54.6279 62.2404 54.9513 62.0584C58.7214 59.8854 59.9646 55.1045 60.3487 52.8607C63.2192 51.6882 66.1301 50.0407 67.9899 47.8676C71.76 52.2644 81.6349 55.054 83.4542 55.054C84.4347 55.054 85.2938 54.3364 85.4454 53.3458C85.6375 52.2644 84.8794 51.2233 83.7777 51.0515Z" fill="white"/>
</g>
<defs>
<clipPath id="clip0">
<rect width="51.75" height="51.75" fill="white" transform="translate(42.125 31.625)"/>
</clipPath>
</defs>
</svg>
