<svg width="100" height="100" viewBox="0 0 100 100" fill="none" xmlns="http://www.w3.org/2000/svg">
<path d="M65.3333 47.0834V52.25H75.6667V47.0834H65.3333ZM60.1667 64.1592C62.6467 65.9934 65.8758 68.4217 68.4333 70.3334C69.4667 68.9642 70.5 67.5692 71.5333 66.2C68.9758 64.2884 65.7467 61.86 63.2667 60C62.2333 61.395 61.2 62.79 60.1667 64.1592ZM71.5333 33.1334C70.5 31.7642 69.4667 30.3692 68.4333 29C65.8758 30.9117 62.6467 33.34 60.1667 35.2C61.2 36.5692 62.2333 37.9642 63.2667 39.3334C65.7467 37.4734 68.9758 35.0709 71.5333 33.1334ZM29.1667 41.9167C26.325 41.9167 24 44.2417 24 47.0834V52.25C24 55.0917 26.325 57.4167 29.1667 57.4167H31.75V67.75H36.9167V57.4167H39.5L52.4167 65.1667V34.1667L39.5 41.9167H29.1667ZM58.875 49.6667C58.875 46.2309 57.3767 43.1309 55 41.0125V58.295C57.3767 56.2025 58.875 53.1025 58.875 49.6667Z" fill="white"/>
</svg>
