<svg width="140" height="100" viewBox="0 0 140 100" fill="none" xmlns="http://www.w3.org/2000/svg">
<path d="M0 8C0 3.58172 3.58172 0 8 0H132C136.418 0 140 3.58172 140 8V100H0V8Z" fill="#4CAF50"/>
<path d="M85.5 54.4167V59.5833H95.8334V54.4167H85.5ZM80.3334 71.4925C82.8134 73.3267 86.0425 75.755 88.6 77.6667C89.6334 76.2975 90.6667 74.9025 91.7 73.5333C89.1425 71.6217 85.9134 69.1933 83.4334 67.3333C82.4 68.7283 81.3667 70.1233 80.3334 71.4925ZM91.7 40.4667C90.6667 39.0975 89.6334 37.7025 88.6 36.3333C86.0425 38.245 82.8134 40.6733 80.3334 42.5333C81.3667 43.9025 82.4 45.2975 83.4334 46.6667C85.9134 44.8067 89.1425 42.4042 91.7 40.4667ZM49.3334 49.25C46.4917 49.25 44.1667 51.575 44.1667 54.4167V59.5833C44.1667 62.425 46.4917 64.75 49.3334 64.75H51.9167V75.0833H57.0834V64.75H59.6667L72.5834 72.5V41.5L59.6667 49.25H49.3334ZM79.0417 57C79.0417 53.5642 77.5434 50.4642 75.1667 48.3458V65.6283C77.5434 63.5358 79.0417 60.4358 79.0417 57Z" fill="white"/>
</svg>
