<svg width="100" height="100" viewBox="0 0 100 100" fill="none" xmlns="http://www.w3.org/2000/svg">
<path d="M68.1819 27H32.1477C29.3088 27 27 29.3172 27 32.1667V68.3333C27 71.1827 29.3088 73.5 32.1477 73.5H52.7387C53.0768 73.5005 53.4116 73.4339 53.7239 73.304C54.0362 73.1741 54.3198 72.9834 54.5584 72.7431L72.5755 54.6597C72.7871 54.4395 72.958 54.1832 73.08 53.9028C73.116 53.8253 73.1366 53.7452 73.1649 53.6626C73.2382 53.4464 73.2824 53.2214 73.2962 52.9935C73.3013 52.9392 73.3297 52.8876 73.3297 52.8333V32.1667C73.3297 29.3172 71.0209 27 68.1819 27ZM32.1477 32.1667H68.1819V50.25H52.7387C52.0561 50.25 51.4014 50.5222 50.9187 51.0066C50.436 51.4911 50.1648 52.1482 50.1648 52.8333V68.3333H32.1477V32.1667ZM55.3126 64.6805V55.4167H64.5425L55.3126 64.6805Z" fill="white"/>
</svg>
