<svg width="140" height="100" viewBox="0 0 140 100" fill="none" xmlns="http://www.w3.org/2000/svg">
<path d="M0 8C0 3.58172 3.58172 0 8 0H132C136.418 0 140 3.58172 140 8V100H0V8Z" fill="#4CAF50"/>
<path d="M54.4388 30.0715C48.9656 30.0715 44.5357 34.4852 44.5357 39.9385V59.6723C44.5357 65.1256 48.9656 69.5393 54.4388 69.5393C59.912 69.5393 64.3419 65.1256 64.3419 59.6723V39.9385C64.3419 34.4852 59.912 30.0715 54.4388 30.0715ZM58.683 49.8054H50.1946V39.9385C50.1946 37.6039 52.0956 35.7098 54.4388 35.7098C56.7819 35.7098 58.683 37.6039 58.683 39.9385V49.8054ZM71.0353 47.1889C70.7258 46.8806 70.2041 46.9158 69.9477 47.2594C65.9423 52.7655 66.3755 60.4828 71.3536 65.4427C76.3316 70.4026 84.0773 70.8343 89.6035 66.8435C89.9572 66.588 89.9837 66.0682 89.6743 65.7599L71.0353 47.1889ZM91.3543 45.515C86.3762 40.5551 78.6306 40.1235 73.1043 44.1143C72.7506 44.3698 72.7241 44.8896 73.0336 45.1979L91.6726 63.7689C91.982 64.0772 92.5037 64.042 92.7601 63.6984C96.7656 58.1835 96.3412 50.4749 91.3543 45.515Z" fill="white"/>
</svg>
