<svg width="100" height="100" viewBox="0 0 100 100" fill="none" xmlns="http://www.w3.org/2000/svg">
<path d="M34.1012 30C28.5185 30 24 34.502 24 40.0643V60.1928C24 65.7552 28.5185 70.2572 34.1012 70.2572C39.6838 70.2572 44.2023 65.7552 44.2023 60.1928V40.0643C44.2023 34.502 39.6838 30 34.1012 30ZM38.4302 50.1286H29.7721V40.0643C29.7721 37.683 31.7111 35.7511 34.1012 35.7511C36.4911 35.7511 38.4302 37.683 38.4302 40.0643V50.1286ZM51.0296 47.4597C50.7139 47.1453 50.1818 47.1812 49.9202 47.5317C45.8347 53.1479 46.2766 61.0195 51.3543 66.0786C56.4318 71.1377 64.3324 71.5781 69.9692 67.5074C70.3299 67.2468 70.357 66.7166 70.0414 66.4022L51.0296 47.4597ZM71.755 45.7524C66.6773 40.6933 58.7768 40.253 53.14 44.3237C52.7792 44.5843 52.7522 45.1145 53.0679 45.4289L72.0796 64.3714C72.3952 64.6858 72.9274 64.6499 73.1889 64.2994C77.2745 58.6742 76.8416 50.8115 71.755 45.7524Z" fill="white"/>
</svg>
