<svg width="277" height="191" viewBox="0 0 277 191" fill="none" xmlns="http://www.w3.org/2000/svg">
<g clip-path="url(#clip0)">
<path opacity="0.3" d="M138.5 249C207.259 249 263 193.483 263 125C263 56.5167 207.259 1 138.5 1C69.7406 1 14 56.5167 14 125C14 193.483 69.7406 249 138.5 249Z" fill="#4054B2"/>
<path d="M138.5 195C214.991 195 277 190.075 277 184C277 177.925 214.991 173 138.5 173C62.0086 173 0 177.925 0 184C0 190.075 62.0086 195 138.5 195Z" fill="#3F3D56"/>
<path d="M138.919 66.2101C146.803 66.2101 153.195 60.3696 153.195 53.165C153.195 45.9604 146.803 40.1199 138.919 40.1199C131.035 40.1199 124.643 45.9604 124.643 53.165C124.643 60.3696 131.035 66.2101 138.919 66.2101Z" fill="#4CAF50"/>
<path d="M164.148 172.663C164.148 172.663 133.75 184.847 112.213 172.909L112.413 169.463L114.269 137.466L116.023 107.191L118.121 71.0096H158.487L160.426 107.191L162.051 137.466L163.766 169.463L164.148 172.663Z" fill="#3F3D56"/>
<path d="M164.148 172.663C164.148 172.663 136.211 185.093 112.213 172.909L112.413 169.463H163.766L164.148 172.663Z" fill="#4CAF50"/>
<path d="M162.051 137.466H114.269L116.023 107.191H160.426L162.051 137.466Z" fill="#4CAF50"/>
<path d="M160.948 67.0715H115.659V71.9942H160.948V67.0715Z" fill="#3F3D56"/>
<path d="M160.948 50.5806H115.659V55.5032H160.948V50.5806Z" fill="#3F3D56"/>
<path d="M122.305 55.5032H119.597V68.3022H122.305V55.5032Z" fill="#3F3D56"/>
<path d="M129.443 55.5032H126.735V68.3022H129.443V55.5032Z" fill="#3F3D56"/>
<path d="M136.581 55.5032H133.873V68.3022H136.581V55.5032Z" fill="#3F3D56"/>
<path d="M143.718 55.5032H141.011V68.3022H143.718V55.5032Z" fill="#3F3D56"/>
<path d="M150.856 55.5032H148.149V68.3022H150.856V55.5032Z" fill="#3F3D56"/>
<path d="M129.443 35.9355H126.735V52.7957H129.443V35.9355Z" fill="#3F3D56"/>
<path d="M136.581 35.9355H133.873V52.7957H136.581V35.9355Z" fill="#3F3D56"/>
<path d="M143.718 35.9355H141.011V52.7957H143.718V35.9355Z" fill="#3F3D56"/>
<path d="M150.856 35.9355H148.149V52.7957H150.856V35.9355Z" fill="#3F3D56"/>
<path d="M157.994 55.5032H155.287V68.3022H157.994V55.5032Z" fill="#3F3D56"/>
<path d="M122.428 37.9047H119.72V52.9188H122.428V37.9047Z" fill="#3F3D56"/>
<path d="M158.117 37.9047H155.41V52.9188H158.117V37.9047Z" fill="#3F3D56"/>
<path d="M161.071 40.7351H115.782V25.9671L138.427 7.63013L161.071 25.9671V40.7351Z" fill="#3F3D56"/>
<path opacity="0.3" d="M138.919 90.9946C159.947 90.9946 176.995 73.9475 176.995 52.9188C176.995 31.8902 159.947 14.8431 138.919 14.8431C117.89 14.8431 100.843 31.8902 100.843 52.9188C100.843 73.9475 117.89 90.9946 138.919 90.9946Z" fill="#4CAF50"/>
<path opacity="0.3" d="M138.919 105.838C168.145 105.838 191.838 82.1451 191.838 52.9188C191.838 23.6926 168.145 0 138.919 0C109.693 0 86 23.6926 86 52.9188C86 82.1451 109.693 105.838 138.919 105.838Z" fill="#4CAF50"/>
</g>
<defs>
<clipPath id="clip0">
<rect width="276.655" height="191" fill="white"/>
</clipPath>
</defs>
</svg>
