<svg width="140" height="100" viewBox="0 0 140 100" fill="none" xmlns="http://www.w3.org/2000/svg">
<path d="M0 8C0 3.58172 3.58172 0 8 0H132C136.418 0 140 3.58172 140 8V100H0V8Z" fill="#4CAF50"/>
<path d="M85.9319 33.75H49.8977C47.0588 33.75 44.75 36.0672 44.75 38.9167V75.0833C44.75 77.9327 47.0588 80.25 49.8977 80.25H70.4887C70.8268 80.2505 71.1616 80.1839 71.4739 80.054C71.7862 79.9241 72.0698 79.7334 72.3084 79.4931L90.3255 61.4097C90.5371 61.1895 90.708 60.9332 90.83 60.6528C90.866 60.5753 90.8866 60.4952 90.9149 60.4126C90.9882 60.1964 91.0324 59.9714 91.0462 59.7435C91.0513 59.6892 91.0797 59.6376 91.0797 59.5833V38.9167C91.0797 36.0672 88.7709 33.75 85.9319 33.75ZM49.8977 38.9167H85.9319V57H70.4887C69.8061 57 69.1514 57.2722 68.6687 57.7566C68.186 58.2411 67.9148 58.8982 67.9148 59.5833V75.0833H49.8977V38.9167ZM73.0626 71.4305V62.1667H82.2925L73.0626 71.4305Z" fill="white"/>
</svg>
