<svg width="100" height="100" viewBox="0 0 100 100" fill="none" xmlns="http://www.w3.org/2000/svg">
<path d="M72.6637 50.25H69.435C69.1813 50.25 68.9738 50.4592 68.9738 50.715V69.315H31.1512V31.185H49.6012C49.8549 31.185 50.0625 30.9757 50.0625 30.72V27.465C50.0625 27.2093 49.8549 27 49.6012 27H28.845C27.8245 27 27 27.8312 27 28.86V71.64C27 72.6688 27.8245 73.5 28.845 73.5H71.28C72.3005 73.5 73.125 72.6688 73.125 71.64V50.715C73.125 50.4592 72.9174 50.25 72.6637 50.25Z" fill="white"/>
<path d="M40.6111 52.1726L40.5001 59.25C40.4942 59.7798 40.9152 60.2143 41.4355 60.2143H41.4589L48.3578 60.0417C48.4747 60.0357 48.5916 59.9881 48.6735 59.9048L72.9891 35.2024C73.1703 35.0179 73.1703 34.7143 72.9891 34.5298L65.7219 27.1369C65.6283 27.0417 65.5114 27 65.3886 27C65.2658 27 65.1489 27.0476 65.0554 27.1369L40.7456 51.8393C40.6612 51.9292 40.6131 52.0482 40.6111 52.1726ZM44.3237 53.5774L65.3886 32.1786L68.0312 34.8631L46.9546 56.2738L44.2827 56.3393L44.3237 53.5774Z" fill="white"/>
</svg>
