<svg width="140" height="100" viewBox="0 0 140 100" fill="none" xmlns="http://www.w3.org/2000/svg">
<path d="M0 8C0 3.58172 3.58172 0 8 0H132C136.418 0 140 3.58172 140 8V100H0V8Z" fill="#4CAF50"/>
<path d="M92.5387 50H89.31C89.0563 50 88.8488 50.2092 88.8488 50.465V69.065H51.0262V30.935H69.4762C69.7299 30.935 69.9375 30.7257 69.9375 30.47V27.215C69.9375 26.9593 69.7299 26.75 69.4762 26.75H48.72C47.6995 26.75 46.875 27.5812 46.875 28.61V71.39C46.875 72.4188 47.6995 73.25 48.72 73.25H91.155C92.1755 73.25 93 72.4188 93 71.39V50.465C93 50.2092 92.7924 50 92.5387 50Z" fill="white"/>
<path d="M60.4861 51.9226L60.3751 59C60.3692 59.5298 60.7902 59.9643 61.3105 59.9643H61.3339L68.2328 59.7917C68.3497 59.7857 68.4666 59.7381 68.5485 59.6548L92.8641 34.9524C93.0453 34.7679 93.0453 34.4643 92.8641 34.2798L85.5969 26.8869C85.5033 26.7917 85.3864 26.75 85.2636 26.75C85.1408 26.75 85.0239 26.7976 84.9304 26.8869L60.6206 51.5893C60.5362 51.6792 60.4881 51.7982 60.4861 51.9226ZM64.1987 53.3274L85.2636 31.9286L87.9062 34.6131L66.8296 56.0238L64.1577 56.0893L64.1987 53.3274Z" fill="white"/>
</svg>
