<svg width="100" height="100" viewBox="0 0 100 100" fill="none" xmlns="http://www.w3.org/2000/svg">
<path d="M68.1936 23C69.4312 23 70.6182 23.4917 71.4934 24.3669C72.3685 25.242 72.8602 26.429 72.8602 27.6667V65C72.8602 66.2377 72.3685 67.4247 71.4934 68.2999C70.6182 69.175 69.4312 69.6667 68.1936 69.6667H40.1936C38.9559 69.6667 37.7689 69.175 36.8937 68.2999C36.0186 67.4247 35.5269 66.2377 35.5269 65V27.6667C35.5269 26.429 36.0186 25.242 36.8937 24.3669C37.7689 23.4917 38.9559 23 40.1936 23H68.1936ZM68.1936 27.6667H56.5269H50.5806H44.8602H40.1936V65H68.1936V27.6667Z" fill="white"/>
<path d="M53.7917 36.3977C53.4692 36.397 53.1548 36.4971 52.8945 36.6835C52.6342 36.8698 52.4417 37.1326 52.3449 37.4335C52.2481 37.7344 52.2522 38.0577 52.3566 38.3561C52.461 38.6546 52.6602 38.9126 52.9251 39.0926V40.279C52.1452 40.3891 51.4172 40.6349 50.7586 41.0078L49.7966 39.6603C49.9613 39.2197 49.918 38.7112 49.6233 38.3044C49.32 37.8892 48.852 37.6689 48.3754 37.6689C48.0721 37.6689 47.7687 37.7536 47.5088 37.9401C46.8241 38.4061 46.6508 39.3298 47.1361 39.9993C47.4308 40.4146 47.8987 40.6349 48.3754 40.6349L49.398 42.0586C49.0253 42.423 48.7307 42.8297 48.4794 43.2789C48.306 43.2111 48.1241 43.1772 47.9421 43.1772C47.5521 43.1772 47.1621 43.3212 46.8588 43.6009C46.2782 44.1941 46.2782 45.1263 46.8588 45.7195C47.1101 45.9483 47.4134 46.0754 47.7254 46.1432C47.7254 46.6008 47.7861 47.0415 47.8814 47.4652L46.7461 47.7618C46.4775 47.5415 46.1308 47.4143 45.7755 47.4143C45.6455 47.4143 45.5069 47.4143 45.3769 47.4652C44.9885 47.5687 44.6581 47.8187 44.4582 48.1604C44.2583 48.502 44.2054 48.9073 44.311 49.2872C44.4929 49.9566 45.1256 50.3803 45.7755 50.3803C45.9055 50.3803 46.0355 50.3803 46.1742 50.3295C46.6681 50.1939 47.0408 49.838 47.1968 49.3973L48.5054 49.0499C48.8953 49.7194 49.4153 50.3126 50.0219 50.8041L49.0687 52.4989C48.592 52.5667 48.1587 52.8294 47.9074 53.2786C47.8129 53.4499 47.7539 53.6378 47.7337 53.8315C47.7135 54.0252 47.7325 54.2209 47.7897 54.4074C47.8468 54.5939 47.941 54.7675 48.0667 54.9185C48.1925 55.0694 48.3474 55.1946 48.5227 55.287C48.698 55.3793 48.8901 55.4371 49.0882 55.4568C49.2862 55.4766 49.4864 55.458 49.6771 55.4021C49.8678 55.3462 50.0454 55.2542 50.1997 55.1312C50.3541 55.0082 50.4821 54.8567 50.5766 54.6853C50.8192 54.2446 50.8106 53.7362 50.5939 53.3209L51.5212 51.6515C52.2231 51.9227 52.9858 52.0752 53.7917 52.0752H53.9477C53.8351 52.2955 53.7917 52.5498 53.7917 52.8209C53.8611 53.6006 54.5197 54.1938 55.3083 54.1938H55.421C56.2616 54.126 56.8855 53.4142 56.8249 52.6006C56.7902 52.1769 56.5736 51.804 56.2616 51.5583C56.6689 51.3803 57.0589 51.1515 57.4228 50.8888L59.4507 52.8718C59.3641 53.3464 59.5027 53.8294 59.858 54.1938C60.1613 54.4734 60.5513 54.6175 60.9413 54.6175C61.3313 54.6175 61.7213 54.4734 62.0246 54.1938C62.6052 53.6006 62.6052 52.6684 62.0246 52.0752C61.7213 51.7956 61.3313 51.6515 60.9413 51.6515C60.8546 51.6515 60.768 51.6515 60.6726 51.6769L58.6448 49.6939C59.0694 49.1431 59.3987 48.516 59.6067 47.8381H60.5687C60.7527 48.0971 61.0165 48.2919 61.3218 48.394C61.627 48.496 61.9576 48.5001 62.2653 48.4054C62.573 48.3108 62.8417 48.1225 63.0323 47.868C63.2228 47.6135 63.3252 47.3061 63.3245 46.9906C63.3252 46.6752 63.2228 46.3678 63.0323 46.1133C62.8417 45.8588 62.573 45.6704 62.2653 45.5758C61.9576 45.4812 61.627 45.4852 61.3218 45.5873C61.0165 45.6893 60.7527 45.8841 60.5687 46.1432H59.858C59.858 44.8127 59.4247 43.6009 58.6448 42.5925L59.806 41.4569C59.9014 41.4823 59.988 41.4823 60.0747 41.4823C60.4647 41.4823 60.8546 41.3383 61.158 41.0586C61.7386 40.4739 61.7386 39.5332 61.158 38.94C60.8546 38.6604 60.4647 38.5163 60.0747 38.5163C59.6847 38.5163 59.2947 38.6604 58.9914 38.94C58.6361 39.3044 58.4974 39.7875 58.5841 40.262L57.4228 41.3976C56.6256 40.8128 55.6896 40.423 54.6583 40.279V39.0926C54.9233 38.9126 55.1225 38.6546 55.2268 38.3561C55.3312 38.0577 55.3353 37.7344 55.2386 37.4335C55.1418 37.1326 54.9492 36.8698 54.6889 36.6835C54.4287 36.4971 54.1143 36.397 53.7917 36.3977ZM53.7917 50.3803C51.3999 50.3803 49.4586 48.4821 49.4586 46.1432C49.4586 43.8043 51.3999 41.906 53.7917 41.906C56.1836 41.906 58.1248 43.8043 58.1248 46.1432C58.1248 48.4821 56.1836 50.3803 53.7917 50.3803ZM52.4918 43.6009C51.7725 43.6009 51.1919 44.1687 51.1919 44.872C51.1919 45.5754 51.7725 46.1432 52.4918 46.1432C53.2111 46.1432 53.7917 45.5754 53.7917 44.872C53.7917 44.1687 53.2111 43.6009 52.4918 43.6009ZM55.525 46.9906C55.0483 46.9906 54.6583 47.372 54.6583 47.8381C54.6583 48.3041 55.0483 48.6855 55.525 48.6855C56.0016 48.6855 56.3916 48.3041 56.3916 47.8381C56.3916 47.372 56.0016 46.9906 55.525 46.9906Z" fill="white"/>
<path d="M65.3333 72.0752H32.6667V34.7419V30.0752C31.429 30.0752 30.242 30.5669 29.3668 31.4421C28.4917 32.3172 28 33.5042 28 34.7419V72.0752C28 73.3129 28.4917 74.4999 29.3668 75.3751C30.242 76.2502 31.429 76.7419 32.6667 76.7419H60.6667C61.9044 76.7419 63.0913 76.2502 63.9665 75.3751C64.8417 74.4999 65.3333 73.3129 65.3333 72.0752Z" fill="white"/>
</svg>
