<svg width="140" height="100" viewBox="0 0 140 100" fill="none" xmlns="http://www.w3.org/2000/svg">
<path d="M0 8C0 3.58172 3.58172 0 8 0H132C136.418 0 140 3.58172 140 8V100H0V8Z" fill="#4CAF50"/>
<path d="M87.613 22.9033C88.8506 22.9033 90.0376 23.395 90.9128 24.2702C91.7879 25.1453 92.2796 26.3323 92.2796 27.57V64.9033C92.2796 66.141 91.7879 67.328 90.9128 68.2032C90.0376 69.0783 88.8506 69.57 87.613 69.57H59.613C58.3753 69.57 57.1883 69.0783 56.3131 68.2032C55.438 67.328 54.9463 66.141 54.9463 64.9033V27.57C54.9463 26.3323 55.438 25.1453 56.3131 24.2702C57.1883 23.395 58.3753 22.9033 59.613 22.9033H87.613ZM87.613 27.57H75.9463H70H64.2796H59.613V64.9033H87.613V27.57Z" fill="white"/>
<path d="M73.2113 36.301C72.8888 36.3003 72.5744 36.4004 72.3141 36.5868C72.0538 36.7731 71.8613 37.0359 71.7645 37.3368C71.6677 37.6377 71.6718 37.961 71.7762 38.2594C71.8806 38.5579 72.0798 38.8159 72.3447 38.9959V40.1823C71.5648 40.2924 70.8368 40.5382 70.1782 40.9111L69.2162 39.5636C69.3809 39.123 69.3376 38.6145 69.0429 38.2077C68.7396 37.7925 68.2716 37.5722 67.795 37.5722C67.4917 37.5722 67.1883 37.6569 66.9284 37.8434C66.2437 38.3094 66.0704 39.2331 66.5557 39.9026C66.8504 40.3179 67.3183 40.5382 67.795 40.5382L68.8176 41.9619C68.4449 42.3263 68.1503 42.733 67.899 43.1822C67.7256 43.1144 67.5437 43.0805 67.3617 43.0805C66.9717 43.0805 66.5817 43.2245 66.2784 43.5042C65.6978 44.0974 65.6978 45.0296 66.2784 45.6228C66.5297 45.8516 66.833 45.9787 67.145 46.0465C67.145 46.5041 67.2057 46.9448 67.301 47.3685L66.1657 47.6651C65.8971 47.4448 65.5504 47.3176 65.1951 47.3176C65.0651 47.3176 64.9265 47.3176 64.7965 47.3685C64.4081 47.472 64.0777 47.722 63.8778 48.0637C63.6779 48.4053 63.625 48.8106 63.7306 49.1905C63.9125 49.8599 64.5452 50.2836 65.1951 50.2836C65.3251 50.2836 65.4551 50.2836 65.5938 50.2328C66.0877 50.0972 66.4604 49.7413 66.6164 49.3006L67.925 48.9532C68.3149 49.6227 68.8349 50.2159 69.4415 50.7074L68.4883 52.4022C68.0116 52.47 67.5783 52.7327 67.327 53.1819C67.2325 53.3532 67.1735 53.5411 67.1533 53.7348C67.1331 53.9285 67.1521 54.1242 67.2093 54.3107C67.2664 54.4972 67.3606 54.6708 67.4863 54.8218C67.6121 54.9727 67.767 55.0979 67.9423 55.1903C68.1176 55.2826 68.3097 55.3404 68.5078 55.3601C68.7058 55.3799 68.906 55.3613 69.0967 55.3054C69.2874 55.2495 69.465 55.1575 69.6193 55.0345C69.7737 54.9115 69.9017 54.76 69.9962 54.5886C70.2388 54.1479 70.2302 53.6395 70.0135 53.2242L70.9408 51.5548C71.6427 51.826 72.4054 51.9785 73.2113 51.9785H73.3673C73.2547 52.1988 73.2113 52.4531 73.2113 52.7242C73.2807 53.5039 73.9393 54.0971 74.7279 54.0971H74.8406C75.6812 54.0293 76.3051 53.3175 76.2445 52.5039C76.2098 52.0802 75.9932 51.7073 75.6812 51.4616C76.0885 51.2836 76.4785 51.0548 76.8424 50.7921L78.8703 52.7751C78.7837 53.2497 78.9223 53.7327 79.2776 54.0971C79.5809 54.3767 79.9709 54.5208 80.3609 54.5208C80.7509 54.5208 81.1409 54.3767 81.4442 54.0971C82.0248 53.5039 82.0248 52.5717 81.4442 51.9785C81.1409 51.6989 80.7509 51.5548 80.3609 51.5548C80.2742 51.5548 80.1876 51.5548 80.0922 51.5802L78.0644 49.5972C78.489 49.0464 78.8183 48.4193 79.0263 47.7414H79.9883C80.1723 48.0004 80.4361 48.1952 80.7414 48.2973C81.0466 48.3993 81.3772 48.4034 81.6849 48.3087C81.9926 48.2141 82.2613 48.0258 82.4519 47.7713C82.6424 47.5168 82.7448 47.2094 82.7441 46.8939C82.7448 46.5785 82.6424 46.2711 82.4519 46.0166C82.2613 45.7621 81.9926 45.5737 81.6849 45.4791C81.3772 45.3845 81.0466 45.3885 80.7414 45.4906C80.4361 45.5926 80.1723 45.7874 79.9883 46.0465H79.2776C79.2776 44.716 78.8443 43.5042 78.0644 42.4958L79.2256 41.3602C79.321 41.3856 79.4076 41.3856 79.4943 41.3856C79.8843 41.3856 80.2742 41.2416 80.5776 40.9619C81.1582 40.3772 81.1582 39.4365 80.5776 38.8433C80.2742 38.5637 79.8843 38.4196 79.4943 38.4196C79.1043 38.4196 78.7143 38.5637 78.411 38.8433C78.0557 39.2077 77.917 39.6908 78.0037 40.1653L76.8424 41.3009C76.0452 40.7161 75.1092 40.3263 74.0779 40.1823V38.9959C74.3429 38.8159 74.5421 38.5579 74.6464 38.2594C74.7508 37.961 74.7549 37.6377 74.6582 37.3368C74.5614 37.0359 74.3688 36.7731 74.1085 36.5868C73.8483 36.4004 73.5339 36.3003 73.2113 36.301ZM73.2113 50.2836C70.8195 50.2836 68.8782 48.3854 68.8782 46.0465C68.8782 43.7076 70.8195 41.8093 73.2113 41.8093C75.6032 41.8093 77.5444 43.7076 77.5444 46.0465C77.5444 48.3854 75.6032 50.2836 73.2113 50.2836ZM71.9114 43.5042C71.1921 43.5042 70.6115 44.072 70.6115 44.7753C70.6115 45.4787 71.1921 46.0465 71.9114 46.0465C72.6307 46.0465 73.2113 45.4787 73.2113 44.7753C73.2113 44.072 72.6307 43.5042 71.9114 43.5042ZM74.9446 46.8939C74.4679 46.8939 74.0779 47.2753 74.0779 47.7414C74.0779 48.2074 74.4679 48.5888 74.9446 48.5888C75.4212 48.5888 75.8112 48.2074 75.8112 47.7414C75.8112 47.2753 75.4212 46.8939 74.9446 46.8939Z" fill="white"/>
<path d="M84.7526 71.9785H52.086L52.086 34.6452L52.086 29.9785C50.8483 29.9785 49.6613 30.4702 48.7861 31.3454C47.911 32.2205 47.4193 33.4075 47.4193 34.6452V71.9785C47.4193 73.2162 47.911 74.4032 48.7861 75.2784C49.6613 76.1535 50.8483 76.6452 52.086 76.6452H80.086C81.3237 76.6452 82.5106 76.1535 83.3858 75.2784C84.261 74.4032 84.7526 73.2162 84.7526 71.9785Z" fill="white"/>
</svg>
