<svg width="140" height="100" viewBox="0 0 140 100" fill="none" xmlns="http://www.w3.org/2000/svg">
<path d="M0 8C0 3.58172 3.58172 0 8 0H132C136.418 0 140 3.58172 140 8V100H0V8Z" fill="#4CAF50"/>
<g clip-path="url(#clip0)">
<path d="M96.5603 31.173L88.8263 23.439C86.9072 21.5201 83.7847 21.5199 81.8656 23.439C79.9465 25.3581 79.9467 28.4806 81.8656 30.3997L82.2524 30.7864L78.3854 34.6534L76.4519 32.7198C74.5328 30.8008 71.4104 30.8007 69.4913 32.7198C67.979 34.2323 67.6594 36.4916 68.5308 38.3207L51.7032 55.1484C50.1909 56.6607 49.8713 58.9202 50.7427 60.7492L48.6096 62.8823C47.1171 64.3748 47.1171 66.8035 48.6096 68.296L48.9964 68.6828L42.48 75.1991C41.8393 75.8398 41.8393 76.8786 42.48 77.5193C43.1208 78.16 44.1595 78.16 44.8002 77.5193L51.3164 71.003L51.7031 71.3898C53.1956 72.8823 55.6243 72.8823 57.1168 71.3898L59.2498 69.2568C61.079 70.1282 63.3384 69.8086 64.8508 68.2962L81.6784 51.4687C83.5076 52.3401 85.7669 52.0205 87.2793 50.5081C89.1984 48.589 89.1984 45.4666 87.2793 43.5475L85.3457 41.614L89.2127 37.747L89.5994 38.1338C91.5185 40.0529 94.641 40.0529 96.5601 38.1338C98.4793 36.2146 98.4793 33.0921 96.5603 31.173ZM54.7968 69.0695C54.5836 69.2827 54.2365 69.2827 54.0234 69.0695L50.9298 65.9759C50.7166 65.7628 50.7166 65.4157 50.9298 65.2026L52.8633 63.269L56.7303 67.136L54.7968 69.0695ZM62.5308 65.9759C61.891 66.6157 60.8503 66.6157 60.2106 65.9759L54.0234 59.7888C53.3836 59.1491 53.3836 58.1084 54.0234 57.4687L55.4622 56.0298L57.3957 57.9632C58.0364 58.604 59.0752 58.604 59.7159 57.9632C60.3566 57.3225 60.3566 56.2838 59.7159 55.6431L57.7824 53.7095L60.1025 51.3894L62.0361 53.3229C62.6768 53.9636 63.7155 53.9636 64.3562 53.3229C64.997 52.6822 64.997 51.6435 64.3562 51.0027L62.4227 49.0692L64.7429 46.749L73.2503 55.2564L62.5308 65.9759ZM75.5705 52.9362L67.063 44.4287L70.6513 40.8405L79.1587 49.3479L75.5705 52.9362ZM84.9593 48.1877C84.3196 48.8275 83.2789 48.8275 82.6391 48.1877L71.8116 37.3602C71.1719 36.7204 71.1718 35.6796 71.8116 35.04C72.4513 34.4003 73.4921 34.4003 74.1317 35.04L84.9593 45.8676C85.599 46.5073 85.599 47.5481 84.9593 48.1877ZM83.0258 39.2937L80.7056 36.9735L84.5726 33.1066L86.8927 35.4268L83.0258 39.2937ZM94.24 35.8134C93.6003 36.4531 92.5596 36.4531 91.9198 35.8134L84.1858 28.0794C83.5461 27.4396 83.5461 26.3989 84.1858 25.7592C84.8255 25.1195 85.8664 25.1196 86.506 25.7592L94.24 33.4932C94.8797 34.133 94.8797 35.1738 94.24 35.8134Z" fill="white"/>
</g>
<defs>
<clipPath id="clip0">
<rect width="56" height="56" fill="white" transform="translate(42 22)"/>
</clipPath>
</defs>
</svg>
