<svg width="100" height="100" viewBox="0 0 100 100" fill="none" xmlns="http://www.w3.org/2000/svg">
<path d="M76.5608 31.1733L68.8268 23.4392C66.9077 21.5203 63.7852 21.5201 61.8661 23.4392C59.947 25.3584 59.9472 28.4809 61.8661 30.4L62.2529 30.7867L58.3859 34.6537L56.4524 32.72C54.5333 30.801 51.4109 30.8009 49.4918 32.72C47.9795 34.2325 47.6599 36.4919 48.5313 38.321L31.7037 55.1487C30.1914 56.661 29.8718 58.9205 30.7432 60.7495L28.6101 62.8826C27.1176 64.3751 27.1176 66.8037 28.6101 68.2962L28.9969 68.6831L22.4805 75.1993C21.8398 75.84 21.8398 76.8789 22.4805 77.5196C23.1213 78.1603 24.16 78.1603 24.8007 77.5196L31.3169 71.0033L31.7036 71.3901C33.1961 72.8826 35.6248 72.8826 37.1173 71.3901L39.2503 69.257C41.0795 70.1284 43.3389 69.8089 44.8513 68.2965L61.6789 51.469C63.5081 52.3404 65.7674 52.0208 67.2798 50.5084C69.1989 48.5893 69.1989 45.4669 67.2798 43.5478L65.3462 41.6143L69.2132 37.7473L69.5999 38.1341C71.519 40.0532 74.6415 40.0532 76.5606 38.1341C78.4798 36.2149 78.4798 33.0924 76.5608 31.1733ZM34.7973 69.0698C34.5841 69.283 34.237 69.283 34.0239 69.0698L30.9303 65.9762C30.7171 65.7631 30.7171 65.416 30.9303 65.2029L32.8638 63.2693L36.7308 67.1363L34.7973 69.0698ZM42.5313 65.9762C41.8915 66.616 40.8508 66.616 40.2111 65.9762L34.0239 59.7891C33.3841 59.1494 33.3841 58.1087 34.0239 57.469L35.4627 56.0301L37.3962 57.9635C38.0369 58.6043 39.0757 58.6043 39.7164 57.9635C40.3571 57.3228 40.3571 56.2841 39.7164 55.6434L37.7829 53.7098L40.103 51.3897L42.0366 53.3232C42.6773 53.9639 43.716 53.9639 44.3567 53.3232C44.9975 52.6825 44.9975 51.6438 44.3567 51.003L42.4232 49.0695L44.7434 46.7493L53.2508 55.2567L42.5313 65.9762ZM55.571 52.9365L47.0635 44.429L50.6518 40.8408L59.1592 49.3482L55.571 52.9365ZM64.9598 48.188C64.3201 48.8278 63.2794 48.8278 62.6396 48.188L51.8121 37.3604C51.1724 36.7206 51.1723 35.6799 51.8121 35.0403C52.4518 34.4006 53.4926 34.4006 54.1322 35.0403L64.9598 45.8679C65.5995 46.5076 65.5995 47.5484 64.9598 48.188ZM63.0263 39.294L60.7061 36.9738L64.5731 33.1069L66.8932 35.4271L63.0263 39.294ZM74.2405 35.8137C73.6008 36.4534 72.5601 36.4534 71.9203 35.8137L64.1863 28.0796C63.5466 27.4398 63.5466 26.3991 64.1863 25.7594C64.826 25.1197 65.8669 25.1198 66.5065 25.7594L74.2405 33.4934C74.8802 34.1332 74.8802 35.1741 74.2405 35.8137Z" fill="white"/>
</svg>
