<svg width="24" height="24" viewBox="0 0 24 24" fill="none" xmlns="http://www.w3.org/2000/svg">
<path fill-rule="evenodd" clip-rule="evenodd" d="M15.502 14H14.708L14.432 13.726C15.407 12.589 16 11.115 16 9.49997C16 5.90997 13.09 2.99997 9.5 2.99997C5.91 2.99997 3 5.90997 3 9.49997C3 13.09 5.91 16 9.5 16C11.115 16 12.588 15.408 13.725 14.434L14.001 14.708V15.5L18.999 20.491L20.49 19L15.502 14ZM9.5 14C7.014 14 5 11.986 5 9.49997C5 7.01497 7.014 4.99997 9.5 4.99997C11.985 4.99997 14 7.01497 14 9.49997C14 11.986 11.985 14 9.5 14Z" fill="#4CAF50"/>
</svg>
