<svg width="274" height="202" viewBox="0 0 274 202" fill="none" xmlns="http://www.w3.org/2000/svg">
<g clip-path="url(#clip0)">
<path opacity="0.1" d="M17.9334 79.1735H41.7474V111.557H19.6746C19.6183 111.892 19.5619 112.224 19.4986 112.559H41.7474V138.671C41.7099 138.671 41.6723 138.643 41.6371 138.628C41.0113 138.38 40.3856 138.117 39.7598 137.84C39.626 137.779 39.4946 137.715 39.3585 137.657C38.7327 137.362 38.1069 137.05 37.4812 136.721C37.2629 136.606 37.0447 136.486 36.8311 136.365C33.357 134.431 30.1995 131.979 27.4679 129.093C27.3858 129.016 27.3107 128.932 27.2332 128.859C26.8531 128.447 26.4799 128.031 26.1186 127.605C25.9824 127.448 25.851 127.289 25.7173 127.136C25.2902 126.617 24.8772 126.078 24.4782 125.537C24.4172 125.456 24.3609 125.376 24.3022 125.303C22.668 123.047 21.3128 120.603 20.2659 118.023C20.2331 117.946 20.2026 117.861 20.1721 117.789C19.8482 116.969 19.5549 116.138 19.3015 115.291C19.1935 114.937 19.0879 114.588 18.9987 114.221C18.9659 114.116 18.9401 114.008 18.9119 113.903C17.5931 108.717 17.4406 103.328 17.4406 97.9649C17.4406 97.3406 17.4406 96.7163 17.4406 96.092C17.4593 93.9024 17.4851 91.7151 17.518 89.5302C17.5305 88.9683 17.5422 88.4041 17.5532 87.8376C17.586 86.4033 17.633 84.9659 17.694 83.5254C17.7081 83.1275 17.7268 82.7271 17.748 82.3315C17.7574 82.1021 17.7691 81.8727 17.7832 81.6432C17.8254 80.8145 17.8755 79.9913 17.9334 79.1735Z" fill="white"/>
<path opacity="0.1" d="M41.7473 43.117H28.6833C30.8079 39.8033 33.1282 36.6186 35.6319 33.5797C37.5749 31.2012 39.6212 28.8836 41.7473 26.6503V43.117Z" fill="white"/>
<path opacity="0.1" d="M41.7474 44.1143V78.1715H18.0084C18.0084 78.0732 18.0225 77.9725 18.0319 77.8742C18.053 77.605 18.0741 77.3381 18.0976 77.0689C18.1211 76.7552 18.1516 76.4415 18.1821 76.1325C18.2126 75.8234 18.2431 75.4489 18.2806 75.1094C18.3182 74.77 18.3487 74.4259 18.3862 74.0864C18.4238 73.747 18.4613 73.4075 18.5036 73.0704C18.5458 72.7333 18.5834 72.3915 18.6303 72.0544C18.6655 71.7758 18.7007 71.4949 18.7406 71.214C18.7946 70.8183 18.8509 70.4227 18.9095 70.0294C18.9095 69.9685 18.9283 69.91 18.9377 69.8515C19.3666 66.9727 19.9494 64.1188 20.6836 61.3021C21.4547 58.3477 22.4389 55.4529 23.6287 52.6403C24.8929 49.6933 26.3738 46.8435 28.0592 44.1143H41.7474Z" fill="white"/>
<path opacity="0.1" d="M47.4357 79.1735V111.557H98.3022V79.1735H47.4357ZM47.4357 112.559V140.37C47.7267 140.429 48.013 140.487 48.3016 140.536C48.6888 140.611 49.0783 140.679 49.4749 140.738L49.7096 140.771C49.8645 140.796 50.0217 140.817 50.1789 140.836C50.5708 140.892 50.9627 140.934 51.3523 140.972C51.5353 140.991 51.7254 141.005 51.9108 141.021L52.3637 141.054C52.6101 141.073 52.8541 141.087 53.0982 141.096C53.2484 141.096 53.3986 141.108 53.5511 141.112C53.7036 141.117 53.7858 141.112 53.9078 141.112H54.3513C54.5531 141.112 54.7549 141.112 54.9544 141.112H55.2125C55.4144 141.112 55.6162 141.112 55.8156 141.094H55.8274C55.9682 141.094 56.1066 141.094 56.2474 141.077C56.2873 141.08 56.3272 141.08 56.3671 141.077C56.4844 141.077 56.6018 141.077 56.7144 141.063C56.741 141.061 56.7677 141.061 56.7942 141.063C57.0547 141.047 57.3175 141.026 57.5827 141.002C57.8479 140.979 58.099 140.951 58.3641 140.923L58.8968 140.857C61.0736 140.553 63.2261 140.096 65.3384 139.49C70.0858 138.17 74.7251 136.323 79.4701 134.972C85.5996 133.228 92.3768 132.369 98.2998 134.492V112.559H47.4357ZM98.3022 43.117V0.00467861C92.7338 -0.0564389 87.1804 0.5926 81.7769 1.93602C68.896 5.1643 57.3292 12.1663 47.4357 21.109V43.1147H49.9959V44.1143H47.4357V78.1715H98.3022V44.1143H60.4691V43.1123L98.3022 43.117ZM163.652 28.5535C160.466 28.4411 157.298 27.4368 154.43 25.88C148.953 22.9093 144.574 18.3162 139.683 14.4441C129.522 6.37461 116.921 1.50293 103.993 0.294966V43.117H176.601L176.782 42.9274L163.652 28.5535ZM170.268 27.383L177.282 35.0639V25.3627C174.921 25.66 172.865 26.3506 170.268 27.3736V27.383ZM177.282 147.276V112.559H162.324C162.287 112.411 162.244 112.262 162.197 112.112C162.242 112.262 162.282 112.411 162.322 112.559H103.993V137.664C104.547 138.074 105.093 138.507 105.636 138.942C106.221 139.42 106.802 139.903 107.379 140.391L107.961 140.871C108.24 141.105 108.524 141.339 108.806 141.562C109.371 142.016 109.939 142.465 110.512 142.91C110.798 143.135 111.086 143.356 111.375 143.573C115.959 147.067 120.794 150.221 125.84 153.009C126.971 153.639 128.114 154.245 129.264 154.838C130.029 155.231 130.8 155.617 131.576 155.994C132.74 156.561 133.913 157.107 135.096 157.633C146 162.516 157.53 165.866 169.357 167.587C171.982 167.972 174.619 168.277 177.268 168.5V147.272H177.502L177.282 147.276ZM103.993 44.1143V78.1715H177.282V44.1143H103.993ZM103.993 79.1688V111.557H177.282V79.1735L103.993 79.1688ZM182.97 25.3158V36.1548L191.92 26.3529C188.954 25.8644 185.971 25.5187 182.97 25.3158ZM182.97 79.1735V111.557H254.25V79.1735H182.97ZM253.999 149.844L254.25 112.559H182.97V168.877C187.562 169.067 192.16 169.012 196.745 168.711H196.825C199.015 168.57 201.195 168.37 203.365 168.111H203.414C214.994 166.767 226.316 163.75 237.026 159.155L253.999 149.844ZM268.002 84.4923C267.731 83.868 267.454 83.2437 267.169 82.6195C266.638 81.4489 266.08 80.3112 265.503 79.1758H259.941V111.557H274C273.988 102.385 271.66 93.0206 268.002 84.4923ZM259.941 112.559V144.631C263.9 140.845 267.249 136.512 269.656 131.559C272.554 125.591 273.88 119.135 273.991 112.556L259.941 112.559ZM259.941 69.7368V78.1645H264.982C263.454 75.2674 261.771 72.4541 259.941 69.7368ZM211.6 31.6717C211.229 31.5289 210.856 31.3861 210.483 31.2503C206.548 29.7999 202.528 28.5943 198.444 27.6405L184.744 42.6371L184.477 42.925L184.653 43.1147H233.412C226.621 38.4528 219.299 34.6116 211.6 31.6717ZM234.843 44.1143H183.97L182.97 45.0249V78.1715H191.735H254.25V62.1121C248.598 55.2925 242.073 49.2417 234.843 44.1143Z" fill="white"/>
<path opacity="0.1" d="M41.7474 61.295V78.1715H18.0084C18.0084 78.0732 18.0225 77.9725 18.0319 77.8742C18.053 77.605 18.0741 77.3381 18.0976 77.0689C18.1211 76.7552 18.1516 76.4415 18.1821 76.1324C18.2126 75.8234 18.2431 75.4489 18.2806 75.1094C18.3182 74.77 18.3487 74.4258 18.3862 74.0864C18.4238 73.7469 18.4613 73.4075 18.5036 73.0704C18.5458 72.7333 18.5834 72.3915 18.6303 72.0544C18.6655 71.7758 18.7007 71.4949 18.7406 71.214C18.7946 70.8183 18.8509 70.4227 18.9095 70.0294C18.9095 69.9685 18.9283 69.91 18.9377 69.8515C19.3666 66.9727 19.9494 64.1188 20.6836 61.3021L41.7474 61.295Z" fill="white"/>
<path opacity="0.1" d="M17.9334 79.1735H41.7474V111.557H19.6746C19.6183 111.892 19.5619 112.224 19.4986 112.559H41.7474V138.671C41.7099 138.671 41.6723 138.643 41.6371 138.628C41.0113 138.38 40.3856 138.117 39.7598 137.84C39.626 137.779 39.4946 137.715 39.3585 137.657C38.7327 137.362 38.1069 137.05 37.4812 136.721C37.2629 136.606 37.0447 136.486 36.8311 136.365C33.357 134.431 30.1995 131.979 27.4679 129.093C27.3858 129.016 27.3107 128.932 27.2332 128.859C26.8531 128.447 26.4799 128.031 26.1186 127.605C25.9824 127.448 25.851 127.289 25.7173 127.136C25.2902 126.617 24.8772 126.078 24.4782 125.537C24.4172 125.456 24.3609 125.376 24.3022 125.303C22.668 123.047 21.3128 120.603 20.2659 118.023C20.2331 117.946 20.2026 117.861 20.1721 117.789C19.8482 116.969 19.5549 116.138 19.3015 115.291C19.1935 114.937 19.0879 114.588 18.9987 114.221C18.9659 114.116 18.9401 114.008 18.9119 113.903C17.5931 108.717 17.4406 103.328 17.4406 97.9649C17.4406 97.3406 17.4406 96.7163 17.4406 96.092C17.4593 93.9024 17.4851 91.7151 17.518 89.5302C17.5305 88.9683 17.5422 88.4041 17.5532 87.8376C17.586 86.4033 17.633 84.9659 17.694 83.5254C17.7081 83.1275 17.7268 82.7271 17.748 82.3315C17.7574 82.1021 17.7691 81.8727 17.7832 81.6432C17.8254 80.8145 17.8755 79.9913 17.9334 79.1735Z" fill="white"/>
<path opacity="0.1" d="M65.3408 48.9929V78.1715H47.4333V48.9929H49.9865V39.1138H60.4668V48.9929H65.3408Z" fill="white"/>
<path opacity="0.1" d="M65.3385 79.1711H47.4333V111.554H65.3385V79.1711Z" fill="white"/>
<path opacity="0.1" d="M47.4357 112.559H65.3408V139.481C63.2287 140.087 61.0761 140.543 58.8992 140.845C58.7208 140.871 58.5448 140.892 58.3665 140.911C58.1036 140.941 57.8432 140.969 57.5827 140.993L56.7965 141.056H56.7168L56.3694 141.075H56.2498C56.109 141.075 55.9705 141.091 55.8297 141.094H55.818C55.6162 141.094 55.4167 141.108 55.2149 141.112H54.9568C54.7573 141.112 54.5578 141.112 54.3537 141.112H53.9125H53.5534C53.4009 141.112 53.2507 141.112 53.0982 141.094C52.8573 141.084 52.6132 141.07 52.366 141.051L51.9131 141.019C51.7254 141.005 51.5377 140.986 51.3523 140.967C50.958 140.933 50.5669 140.888 50.1789 140.834L49.7096 140.768L49.4749 140.735C49.083 140.677 48.6935 140.611 48.3016 140.536C48.0106 140.485 47.7243 140.426 47.4357 140.366V112.559Z" fill="white"/>
<path opacity="0.1" d="M177.28 45.547H162.514V78.1692H177.28V45.547Z" fill="white"/>
<path opacity="0.1" d="M177.282 79.1711V111.557H103.993V97.588H143.03V105.828H162.514V79.1711H177.282Z" fill="white"/>
<path opacity="0.1" d="M177.514 147.283C177.437 147.283 177.359 147.283 177.279 147.269V168.514C174.634 168.297 171.998 167.994 169.371 167.603C157.54 165.883 146.005 162.534 135.096 157.654C131.946 156.237 128.861 154.693 125.84 153.021C120.795 150.232 115.961 147.078 111.378 143.584C110.223 142.704 109.086 141.804 107.966 140.885C107.189 140.244 106.419 139.588 105.635 138.954C105.096 138.516 104.549 138.083 103.993 137.671V112.559H162.322C162.28 112.409 162.242 112.262 162.2 112.112C162.244 112.262 162.287 112.409 162.324 112.559H177.282V147.267C177.359 147.269 177.437 147.276 177.514 147.283Z" fill="white"/>
<path opacity="0.1" d="M215.791 43.117H206.169V40.1345H210.48V31.2504C210.854 31.3877 211.226 31.5282 211.597 31.6717V40.1345H215.788L215.791 43.117Z" fill="white"/>
<path opacity="0.1" d="M238.974 78.1715H191.735C191.74 78.1726 191.744 78.1726 191.749 78.1715H191.728H182.97V45.5493H185.453V69.6619H196.797V55.3816H206.172V44.1143H215.793V55.3887H225.163V69.6689H238.976L238.974 78.1715Z" fill="white"/>
<path opacity="0.1" d="M182.97 79.1735V111.557H238.976V79.1735H182.97ZM254.171 149.673L254.25 124.039H238.976V112.568H182.97V168.877C187.562 169.067 192.16 169.012 196.745 168.711H196.825C199.015 168.57 201.195 168.37 203.365 168.111H203.414C214.994 166.767 226.316 163.75 237.026 159.155" fill="white"/>
<path opacity="0.1" d="M260.927 112.559H273.991C273.878 119.135 272.554 125.594 269.656 131.559C267.249 136.515 263.9 140.848 259.941 144.633V124.032H260.927V112.559Z" fill="white"/>
<path opacity="0.1" d="M274 111.557H260.927V84.4922H268.002C271.66 93.0206 273.988 102.385 274 111.557Z" fill="white"/>
<path opacity="0.1" d="M177.282 54.6161H169.371V64.8441H177.282V54.6161Z" fill="white"/>
<path opacity="0.1" d="M177.282 75.8164H169.371V78.1715H177.282V75.8164Z" fill="white"/>
<path opacity="0.1" d="M177.282 79.1711H169.371V86.042H177.282V79.1711Z" fill="white"/>
<path opacity="0.1" d="M177.282 97.0167H169.371V107.245H177.282V97.0167Z" fill="white"/>
<path opacity="0.1" d="M177.282 118.217H169.371V128.445H177.282V118.217Z" fill="white"/>
<path opacity="0.1" d="M177.282 147.267C177.359 147.267 177.437 147.267 177.516 147.283C177.439 147.283 177.362 147.283 177.282 147.269V149.645H169.371V139.417H177.282V147.267Z" fill="white"/>
<path opacity="0.1" d="M177.282 160.615V168.514C174.635 168.297 171.998 167.993 169.371 167.603V160.615H177.282Z" fill="white"/>
<path opacity="0.1" d="M137.895 110.805H103.993V111.557H137.895V110.805Z" fill="white"/>
<path opacity="0.1" d="M137.895 112.556H103.993V115.436H137.895V112.556Z" fill="white"/>
<path opacity="0.1" d="M137.895 124.875H103.993V129.505H137.895V124.875Z" fill="white"/>
<path opacity="0.1" d="M137.895 138.945V143.575H111.378C110.223 142.698 109.086 141.797 107.966 140.874C107.187 140.234 106.417 139.579 105.635 138.945H137.895Z" fill="white"/>
<path opacity="0.1" d="M137.895 153.012V157.654H135.096C131.946 156.237 128.861 154.693 125.84 153.021L137.895 153.012Z" fill="white"/>
<path opacity="0.1" d="M203.419 82.3105H196.745V88.9683H203.419V82.3105Z" fill="white"/>
<path opacity="0.1" d="M58.9156 51.2895H52.2417V57.9474H58.9156V51.2895Z" fill="white"/>
<path opacity="0.1" d="M58.9156 66.7543H52.2417V73.4122H58.9156V66.7543Z" fill="white"/>
<path opacity="0.1" d="M58.9156 82.2191H52.2417V88.877H58.9156V82.2191Z" fill="white"/>
<path opacity="0.1" d="M58.9156 97.6816H52.2417V104.339H58.9156V97.6816Z" fill="white"/>
<path opacity="0.1" d="M58.9156 113.146H52.2417V119.804H58.9156V113.146Z" fill="white"/>
<path opacity="0.1" d="M58.9156 128.611H52.2417V135.269H58.9156V128.611Z" fill="white"/>
<path opacity="0.1" d="M228.897 82.3105H222.223V88.9683H228.897V82.3105Z" fill="white"/>
<path opacity="0.1" d="M203.419 98.7327H196.745V105.391H203.419V98.7327Z" fill="white"/>
<path opacity="0.1" d="M228.897 98.7327H222.223V105.391H228.897V98.7327Z" fill="white"/>
<path opacity="0.1" d="M203.419 115.153H196.745V121.811H203.419V115.153Z" fill="white"/>
<path opacity="0.1" d="M228.897 115.153H222.223V121.811H228.897V115.153Z" fill="white"/>
<path opacity="0.1" d="M203.419 131.575H196.745V138.233H203.419V131.575Z" fill="white"/>
<path opacity="0.1" d="M228.897 131.575H222.223V138.233H228.897V131.575Z" fill="white"/>
<path opacity="0.1" d="M203.419 147.997H196.745V154.655H203.419V147.997Z" fill="white"/>
<path opacity="0.1" d="M228.897 147.997H222.223V154.655H228.897V147.997Z" fill="white"/>
<path opacity="0.1" d="M196.745 168.711V164.417H203.417V168.1L196.745 168.711Z" fill="white"/>
<path opacity="0.1" d="M18.9095 69.8445V73.6534H41.7474V69.8445H18.9095ZM21.1835 73.4146H19.3061V70.0856H21.1835V73.4146ZM23.4574 73.4146H21.5801V70.0856H23.4574V73.4146ZM25.7266 73.4146H23.8493V70.0856H25.7266V73.4146ZM28.0006 73.4146H26.1232V70.0856H28.0006V73.4146ZM30.2721 73.4146H28.3948V70.0856H30.2721V73.4146ZM32.5461 73.4146H30.6687V70.0856H32.5461V73.4146ZM34.82 73.4146H32.9426V70.0856H34.82V73.4146ZM37.0916 73.4146H35.2142V70.0856H37.0916V73.4146ZM39.3631 73.4146H37.4858V70.0856H39.3631V73.4146ZM41.6371 73.4146H39.7597V70.0856H41.6371V73.4146Z" fill="white"/>
<path opacity="0.1" d="M18.9095 80.9316V84.7404H41.7474V80.9316H18.9095ZM21.1835 84.5017H19.3061V81.1727H21.1835V84.5017ZM23.4574 84.5017H21.5801V81.1727H23.4574V84.5017ZM25.7266 84.5017H23.8493V81.1727H25.7266V84.5017ZM28.0006 84.5017H26.1232V81.1727H28.0006V84.5017ZM30.2721 84.5017H28.3948V81.1727H30.2721V84.5017ZM32.5461 84.5017H30.6687V81.1727H32.5461V84.5017ZM34.82 84.5017H32.9426V81.1727H34.82V84.5017ZM37.0916 84.5017H35.2142V81.1727H37.0916V84.5017ZM39.3631 84.5017H37.4858V81.1727H39.3631V84.5017ZM41.6371 84.5017H39.7597V81.1727H41.6371V84.5017Z" fill="white"/>
<path opacity="0.1" d="M18.9095 92.021V95.8275H41.7474V92.021H18.9095ZM21.1835 95.5864H19.3061V92.2574H21.1835V95.5864ZM23.4574 95.5864H21.5801V92.2574H23.4574V95.5864ZM25.7266 95.5864H23.8493V92.2574H25.7266V95.5864ZM28.0006 95.5864H26.1232V92.2574H28.0006V95.5864ZM30.2721 95.5864H28.3948V92.2574H30.2721V95.5864ZM32.5461 95.5864H30.6687V92.2574H32.5461V95.5864ZM34.82 95.5864H32.9426V92.2574H34.82V95.5864ZM37.0916 95.5864H35.2142V92.2574H37.0916V95.5864ZM39.3631 95.5864H37.4858V92.2574H39.3631V95.5864ZM41.6371 95.5864H39.7597V92.2574H41.6371V95.5864Z" fill="white"/>
<path opacity="0.1" d="M18.9095 103.108V106.915H41.7474V103.108H18.9095ZM21.1835 106.676H19.3061V103.342H21.1835V106.676ZM23.4574 106.676H21.5801V103.342H23.4574V106.676ZM25.7266 106.676H23.8493V103.342H25.7266V106.676ZM28.0006 106.676H26.1232V103.342H28.0006V106.676ZM30.2721 106.676H28.3948V103.342H30.2721V106.676ZM32.5461 106.676H30.6687V103.342H32.5461V106.676ZM34.82 106.676H32.9426V103.342H34.82V106.676ZM37.0916 106.676H35.2142V103.342H37.0916V106.676ZM39.3631 106.676H37.4858V103.342H39.3631V106.676ZM41.6371 106.676H39.7597V103.342H41.6371V106.676Z" fill="white"/>
<path opacity="0.1" d="M19.0198 114.19C19.1089 114.551 19.2145 114.907 19.3225 115.26V114.432H21.1998V117.758H20.1931C20.2213 117.838 20.2518 117.92 20.2846 117.992H41.7567V114.19H19.0198ZM23.4785 117.758H21.6011V114.432H23.4785V117.758ZM25.7477 117.758H23.8703V114.432H25.7477V117.758ZM28.0216 117.758H26.1443V114.432H28.0216V117.758ZM30.2932 117.758H28.4159V114.432H30.2932V117.758ZM32.5671 117.758H30.6898V114.432H32.5671V117.758ZM34.8411 117.758H32.9637V114.432H34.8411V117.758ZM37.1126 117.758H35.2353V114.432H37.1126V117.758ZM39.3842 117.758H37.5069V114.432H39.3842V117.758ZM41.6581 117.758H39.7808V114.432H41.6581V117.758Z" fill="white"/>
<path opacity="0.1" d="M24.3092 125.278C24.3702 125.353 24.4265 125.437 24.4852 125.512H25.7266V127.111L26.1279 127.579V125.502H28.0052V128.859H27.2332C27.3083 128.937 27.381 129.019 27.4678 129.093H41.7427V125.278H24.3092ZM30.2838 128.859H28.4065V125.516H30.2838V128.859ZM32.5578 128.859H30.6804V125.516H32.5578V128.859ZM34.8317 128.859H32.9544V125.516H34.8317V128.859ZM37.1033 128.859H35.2259V125.516H37.1033V128.859ZM39.3749 128.859H37.4975V125.516H39.3749V128.859ZM41.6488 128.859H39.7714V125.516H41.6488V128.859Z" fill="white"/>
<path opacity="0.1" d="M36.8381 136.365C37.054 136.486 37.2723 136.599 37.4905 136.718V136.601H39.3679V137.657C39.504 137.715 39.633 137.779 39.7668 137.84V136.601H41.6441V138.628C41.6798 138.645 41.7167 138.658 41.7544 138.668V136.365H36.8381Z" fill="white"/>
<path opacity="0.1" d="M177.279 147.267H177.514H177.279ZM162.197 112.112C162.242 112.261 162.282 112.411 162.322 112.559C162.287 112.411 162.244 112.261 162.197 112.112ZM49.9958 43.117V44.1142H60.4784V43.1123L49.9958 43.117ZM177.282 147.267H177.516H177.282ZM162.197 112.112C162.242 112.261 162.282 112.411 162.322 112.559C162.287 112.411 162.244 112.261 162.197 112.112ZM177.279 147.267H177.514H177.279ZM162.197 112.112C162.242 112.261 162.282 112.411 162.322 112.559C162.287 112.411 162.244 112.261 162.197 112.112Z" fill="white"/>
<path opacity="0.1" d="M206.374 202C219.002 202 229.24 200.36 229.24 198.336C229.24 196.313 219.002 194.673 206.374 194.673C193.745 194.673 183.508 196.313 183.508 198.336C183.508 200.36 193.745 202 206.374 202Z" fill="white"/>
<path opacity="0.1" d="M103.247 198.336C115.875 198.336 126.113 196.696 126.113 194.673C126.113 192.649 115.875 191.009 103.247 191.009C90.6181 191.009 80.3806 192.649 80.3806 194.673C80.3806 196.696 90.6181 198.336 103.247 198.336Z" fill="white"/>
<path d="M129.572 97.7963C129.566 97.7731 129.554 97.7519 129.536 97.7355C129.187 97.3913 124.728 91.101 124.728 91.101C124.728 91.101 124.493 90.3987 124.113 89.4857C124.235 89.3283 124.327 89.1497 124.383 88.9589C124.404 88.8781 124.419 88.796 124.428 88.7131C124.428 88.6874 124.446 88.6663 124.454 88.6406C124.535 88.3231 124.527 87.9893 124.43 87.6761C124.404 87.7564 124.372 87.8347 124.334 87.9102C124.246 87.6375 124.128 87.3753 123.982 87.1283C123.39 86.1123 122.546 85.2554 121.924 84.2652C120.982 82.7266 120.608 80.9086 120.865 79.1243C120.865 79.2156 120.865 79.3092 120.865 79.4005C120.889 79.0467 120.936 78.6947 121.006 78.3471C121.104 77.9514 121.235 77.5645 121.398 77.1906C121.957 75.9148 122.86 74.8028 123.409 73.5222C123.594 73.0903 123.733 72.6409 123.827 72.1808C124.02 71.4125 124.091 70.6184 124.036 69.8281C124.036 70.0154 124.005 70.2027 123.977 70.3876C123.918 68.4874 123.149 66.678 121.821 65.3146C119.903 63.3926 117.151 62.6458 114.518 62.2525C113.411 62.1238 112.355 61.7214 111.444 61.082C110.432 60.4289 109.125 60.272 107.942 60.4148C106.583 60.5614 105.32 61.1844 104.378 62.1729C103.127 63.5448 102.585 65.4878 101.125 66.6443C100.241 67.3466 99.1188 67.6743 98.0886 68.1519C97.0584 68.6295 96.0846 69.3224 95.7537 70.3478C95.7537 70.3478 95.7537 70.3338 95.7537 70.3267V70.3853L95.7396 70.4227C95.397 71.6354 96.0588 72.8691 96.4037 74.0794C96.7628 75.3318 96.7862 76.6545 96.805 77.9491C96.8308 79.5316 96.8543 81.1165 96.8285 82.7014C96.8167 83.3241 96.7956 83.9538 96.7487 84.5742C96.1932 84.7417 95.6538 84.9579 95.1365 85.2203C94.6109 85.5621 92.6444 87.6807 92.6444 87.6807L88.7982 102.34L88.8498 102.399L88.7982 102.598L88.9929 102.553C89.5374 103.139 91.1636 104.805 92.9189 105.845L93.0832 108.72C93.0832 108.72 93.2803 111.604 95.9391 112.795C96.0001 113.795 96.1902 117.854 95.3102 119.463C94.7008 120.637 94.4142 121.952 94.4795 123.274C94.4795 123.274 94.7869 125.713 94.4372 126.996C94.2329 127.853 94.2177 128.745 94.3926 129.609C94.3926 129.609 94.3926 129.892 94.3926 130.379C94.3926 132.975 94.4231 141.295 94.3926 142.236C94.348 143.348 94.3926 159.794 94.3926 159.794C94.3926 159.794 94.1744 168.013 93.4751 170.239C92.7758 172.466 92.9518 179.838 92.9518 179.838C92.9518 179.838 92.5129 188.619 94.0641 190.351C94.0641 190.428 94.05 190.508 94.0477 190.585C94.0477 190.62 94.0477 190.66 94.0477 190.695C94.0289 191.362 94.158 192.072 94.7329 192.289C95.9062 192.739 97.4574 194.087 97.7507 194.474C98.044 194.86 99.7501 195.822 101.975 195.565C103.368 195.408 104.771 195.344 106.173 195.373C106.173 195.373 107.051 195.213 106.767 194.125C106.584 193.446 105.898 192.402 105.41 191.716C105.499 191.739 105.586 191.758 105.668 191.774L105.753 191.791H105.819C105.855 191.793 105.891 191.793 105.927 191.791H105.973C106.017 191.794 106.061 191.794 106.105 191.791C106.694 191.735 108.89 192.755 109.282 193.43C109.674 194.104 111.056 194.616 112.098 194.745C112.718 194.82 114.281 194.694 115.592 194.525C116.253 194.457 116.907 194.338 117.55 194.169C117.859 194.052 117.925 193.678 117.836 193.256C117.731 192.721 117.444 192.238 117.024 191.889C116.644 191.62 116.142 190.911 115.771 190.33L115.672 190.173C116.327 189.55 117.51 187.514 117.869 187.092C118.305 186.58 117.165 167.83 117.165 167.83V158.431L118.913 149.535L120.136 144.828L121.185 137.72C121.185 137.72 123.02 129.419 122.454 128.604C122.454 128.588 121.985 120.041 121.492 117.988C121.278 117.072 121.332 115.012 121.459 113.008C121.592 112.877 121.684 112.711 121.725 112.53C121.767 112.348 121.756 112.158 121.694 111.983C121.659 111.863 121.613 111.746 121.558 111.634C121.558 111.599 121.558 111.562 121.558 111.526C122.571 111.061 123.631 110.702 124.719 110.454C126.467 110.112 126.03 109.213 126.03 109.213C126.03 109.213 126.425 108.443 126.685 107.973C126.946 107.502 126.73 103.349 126.685 103.007C126.669 102.869 126.561 102.106 126.436 101.24C126.997 100.842 127.727 100.348 128.523 99.8798C130.036 98.9856 129.696 98.0421 129.572 97.7963ZM106.762 157.148C106.762 157.148 105.45 160.487 105.976 161.341C106.501 162.196 105.889 165.368 105.889 165.368L105.45 170.075C105.45 170.075 104.228 178.807 104.664 180.861C105.007 182.471 105.133 187.282 105.173 189.288C105.143 189.3 105.114 189.314 105.086 189.33L105.028 189.361C105.23 188.572 105.145 186.975 104.143 183.763L104.059 170.497C104.059 170.497 103.904 155.173 105.117 153.459C106.33 151.745 106.76 148.835 106.76 148.835C106.76 148.835 106.497 153.033 106.325 154.145C106.154 155.257 106.762 157.148 106.762 157.148ZM104.319 190.124C104.307 190.152 104.293 190.18 104.284 190.206L104.218 190.122C104.252 190.125 104.285 190.126 104.319 190.124Z" fill="url(#paint0_linear)"/>
<path d="M117.697 195.382C117.019 195.642 113.342 196.084 112.314 195.96C111.286 195.836 109.925 195.316 109.538 194.637C109.151 193.959 106.98 192.933 106.398 192.999C106.16 193.006 105.922 192.973 105.694 192.9C105.293 192.779 104.901 192.629 104.521 192.451C104.468 192.156 104.477 191.853 104.547 191.561C104.56 191.503 104.577 191.445 104.598 191.388C104.735 191.004 105.019 190.689 105.387 190.513L105.471 190.473C105.634 190.403 105.804 190.351 105.978 190.318C107.823 189.965 115.433 190.674 115.433 190.674C115.433 190.674 115.646 191.056 115.94 191.529C116.306 192.114 116.803 192.828 117.179 193.097C117.595 193.452 117.877 193.937 117.979 194.474C118.068 194.888 118.003 195.267 117.697 195.382Z" fill="white"/>
<path opacity="0.1" d="M117.697 195.382C117.019 195.642 113.344 196.084 112.317 195.96C111.289 195.836 109.928 195.314 109.538 194.637C109.149 193.961 106.983 192.933 106.401 192.999C105.819 193.064 104.523 192.451 104.523 192.451C104.523 192.451 104.321 191.515 104.908 190.875L106.081 191.707C106.081 191.707 109.221 192.678 109.803 193.579C110.385 194.481 111.446 194.984 112.978 195.075C114.123 195.15 116.754 194.705 117.986 194.483C118.068 194.888 118.005 195.267 117.697 195.382Z" fill="black"/>
<path d="M106.464 196.576C105.08 196.549 103.695 196.614 102.32 196.77C100.116 197.028 98.4336 196.068 98.1403 195.672C97.8469 195.277 96.3286 193.94 95.1623 193.472C94.5921 193.252 94.4583 192.535 94.4841 191.866C94.4841 191.831 94.4841 191.791 94.4841 191.756C94.5057 191.332 94.5686 190.911 94.6719 190.499L103.803 190.304L104.594 191.374L104.716 191.538L105.197 192.191C105.197 192.191 105.415 192.477 105.701 192.893C106.185 193.596 106.861 194.633 107.041 195.319C107.33 196.417 106.464 196.576 106.464 196.576Z" fill="white"/>
<path opacity="0.1" d="M106.464 196.576C105.08 196.549 103.695 196.614 102.32 196.77C100.119 197.028 98.4336 196.068 98.1426 195.672C97.8516 195.277 96.3286 193.928 95.1623 193.476C94.5921 193.256 94.4583 192.54 94.4841 191.87C95.1365 192.023 96.507 192.411 97.0444 193.088C97.7484 193.991 99.0085 195.511 100.799 195.607C102.245 195.684 105.765 195.426 107.055 195.323C107.332 196.417 106.464 196.576 106.464 196.576Z" fill="black"/>
<path opacity="0.1" d="M105.377 190.503C105.272 191.285 104.946 191.496 104.711 191.543C104.654 191.554 104.595 191.554 104.537 191.543C104.507 191.54 104.476 191.536 104.446 191.529C104.446 191.529 96.2465 193.336 94.5897 191.873C94.5477 191.835 94.5085 191.794 94.4724 191.751C94.494 191.327 94.5569 190.906 94.6601 190.494L103.791 190.3L104.582 191.369C104.719 190.985 105.002 190.671 105.37 190.494L105.377 190.503Z" fill="black"/>
<path opacity="0.1" d="M115.937 191.519C115.754 191.721 115.602 191.835 115.506 191.795C115.074 191.622 111.535 191.021 110.411 191.538C109.287 192.055 105.483 191.622 105.483 191.622C105.483 191.622 105.483 191.173 105.462 190.452C105.625 190.382 105.795 190.33 105.969 190.297C107.813 189.944 115.424 190.653 115.424 190.653C115.424 190.653 115.646 191.046 115.937 191.519Z" fill="black"/>
<path d="M121.293 138.565L120.255 145.715L119.049 150.453L117.322 159.41V168.891C117.322 168.891 118.444 187.755 118.012 188.27C117.58 188.785 115.94 191.718 115.508 191.547C115.076 191.376 111.537 190.772 110.413 191.287C109.289 191.802 105.485 191.374 105.485 191.374C105.485 191.374 105.399 184.054 104.967 181.987C104.535 179.919 105.743 171.134 105.743 171.134L106.175 166.398C106.175 166.398 106.781 163.209 106.262 162.348C105.743 161.486 107.039 158.134 107.039 158.134C107.039 158.134 106.436 156.235 106.609 155.116C106.783 153.997 107.039 149.776 107.039 149.776C107.039 149.776 106.609 152.707 105.41 154.428C104.211 156.149 104.364 171.569 104.364 171.569L104.448 184.913C106.609 191.978 104.448 191.287 104.448 191.287C104.448 191.287 96.2488 193.097 94.5921 191.632C92.9353 190.166 93.4094 180.942 93.4094 180.942C93.4094 180.942 93.238 173.535 93.928 171.297C94.6179 169.059 94.8361 160.789 94.8361 160.789C94.8361 160.789 94.7915 144.249 94.8361 143.133C94.869 142.196 94.8361 133.813 94.8361 131.193C94.8361 130.706 94.8361 130.418 94.8361 130.418L95.8264 127.965L107.56 126.5H113.173C113.173 126.5 121.621 128.48 122.494 129.335C122.513 129.349 122.529 129.366 122.541 129.386C123.107 130.212 121.293 138.565 121.293 138.565Z" fill="white"/>
<path opacity="0.1" d="M107.046 176.12C107.046 176.12 109.627 182.321 110.845 182.752C112.063 183.183 107.046 176.12 107.046 176.12Z" fill="black"/>
<path opacity="0.1" d="M108.001 185.25C108.001 185.25 116.717 185.681 116.63 186.629C116.543 187.577 108.001 185.25 108.001 185.25Z" fill="black"/>
<path opacity="0.1" d="M96.3403 182.771C96.6853 183.096 102.988 183.707 102.47 184.302C101.951 184.896 96.859 186.053 96.859 186.053L96.3403 182.771Z" fill="black"/>
<path opacity="0.1" d="M95.3054 172.072C95.3054 172.33 96.6008 180.341 96.9481 180.685C97.2954 181.029 100.142 181.373 100.142 181.373L95.3054 172.072Z" fill="black"/>
<path d="M104.704 62.5732C103.467 63.9521 102.932 65.9068 101.491 67.0727C100.616 67.775 99.5084 68.1098 98.4899 68.5873C97.4714 69.0649 96.4624 69.7929 96.1596 70.8745C95.8217 72.0918 96.4741 73.3349 96.8167 74.5522C97.1711 75.8117 97.1922 77.1274 97.2133 78.4454C97.2368 80.0396 97.2626 81.6338 97.2344 83.2281C97.1922 85.7119 96.9857 88.3104 95.6645 90.415C100.435 91.9297 105.509 92.1357 110.512 92.33C111.473 92.3984 112.439 92.3741 113.396 92.2574C114.225 92.0926 115.045 91.8856 115.853 91.637C117.45 91.2155 119.096 91.0053 120.748 91.012C121.469 91.012 122.203 91.0565 122.898 90.8692C123.592 90.6819 124.261 90.202 124.449 89.5091C124.615 88.8863 124.371 88.2238 124.052 87.6643C123.47 86.6436 122.644 85.7915 122.02 84.7849C121.383 83.7216 121.005 82.5239 120.916 81.2882C120.828 80.0525 121.031 78.8133 121.511 77.6705C122.065 76.3853 122.956 75.2663 123.501 73.9787C124.058 72.5963 124.207 71.0832 123.928 69.6193C123.649 68.1553 122.955 66.8018 121.929 65.7196C120.035 63.7859 117.317 63.0368 114.717 62.6388C113.622 62.5098 112.578 62.1072 111.681 61.4683C110.683 60.8128 109.39 60.6536 108.222 60.7987C106.873 60.9494 105.625 61.5794 104.704 62.5732Z" fill="#3F3D56"/>
<g opacity="0.1">
<path opacity="0.1" d="M121.584 76.3197C121.105 77.4478 120.9 78.6725 120.985 79.8945C121.038 79.0207 121.24 78.1623 121.584 77.3568C122.135 76.0716 123.027 74.9526 123.571 73.665C124.016 72.5899 124.203 71.4259 124.118 70.2658C124.07 71.0789 123.885 71.8782 123.571 72.6303C123.027 73.9178 122.135 75.0345 121.584 76.3197Z" fill="black"/>
<path opacity="0.1" d="M97.2837 78.127C97.2978 79.0447 97.3119 79.9647 97.3142 80.8824C97.3142 79.6182 97.3025 78.3564 97.2837 77.0946C97.2649 75.786 97.2415 74.4609 96.8871 73.1991C96.6524 72.3985 96.3051 71.5862 96.1831 70.7785C95.9742 71.9256 96.568 73.0891 96.8871 74.2339C97.2415 75.484 97.2649 76.8183 97.2837 78.127Z" fill="black"/>
<path opacity="0.1" d="M122.977 89.5301C122.273 89.7198 121.551 89.6776 120.83 89.6729C119.179 89.6625 117.534 89.8687 115.937 90.2863C115.129 90.5337 114.309 90.74 113.48 90.9043C112.523 91.0229 111.556 91.048 110.594 90.9792C105.76 90.7896 100.858 90.5859 96.2277 89.2071C96.0902 89.5132 95.9335 89.8103 95.7584 90.0967C100.529 91.609 105.603 91.8173 110.603 92.0116C111.566 92.0804 112.532 92.0553 113.49 91.9367C114.316 91.774 115.133 91.5685 115.937 91.321C117.531 90.9019 119.173 90.6933 120.821 90.7006C121.541 90.7006 122.273 90.7451 122.968 90.5555C123.663 90.3659 124.331 89.8906 124.519 89.1977C124.598 88.8768 124.59 88.5406 124.496 88.2238C124.287 88.8793 123.642 89.3358 122.977 89.5301Z" fill="black"/>
</g>
<path d="M116.027 86.756C115.853 87.1446 115.121 90.5017 114.947 90.8458C114.773 91.1899 113.825 96.6984 113.739 97.0074C113.652 97.3164 107.489 95.7151 107.489 95.7151L103.779 92.6133L99.966 88.8278C99.966 88.8278 99.8534 85.4123 102.662 84.3167C102.853 84.2419 103.049 84.1809 103.249 84.1341C106.656 83.3171 106.314 72.9814 106.314 72.9814L113.307 75.9943C113.307 75.9943 112.011 82.0248 112.056 83.1883C112.068 83.5793 112.375 83.8227 112.776 83.9702C113.397 84.1463 114.043 84.216 114.687 84.1762C114.687 84.1762 116.2 86.3698 116.027 86.756Z" fill="#FBBEBE"/>
<path d="M128.546 98.0819L129.539 98.3417C129.539 98.3417 130.273 99.4561 128.546 100.493C127.449 101.158 126.397 101.892 125.395 102.691L120.291 104.241L119.307 101.163L124.057 97.5668L128.546 98.0819Z" fill="white"/>
<path opacity="0.1" d="M128.546 98.0819L129.539 98.3417C129.539 98.3417 130.273 99.4561 128.546 100.493C127.449 101.158 126.397 101.892 125.395 102.691L120.291 104.241L119.307 101.163L124.057 97.5668L128.546 98.0819Z" fill="black"/>
<path d="M91.2974 101.055L89.3121 102.993C89.3121 102.993 92.8931 107.128 95.6481 107.385C98.4031 107.643 100.18 104.241 100.18 104.241L97.7953 100.495L91.2974 101.055Z" fill="white"/>
<path opacity="0.1" d="M91.2974 101.055L89.3121 102.993C89.3121 102.993 92.8931 107.128 95.6481 107.385C98.4031 107.643 100.18 104.241 100.18 104.241L97.7953 100.495L91.2974 101.055Z" fill="black"/>
<path opacity="0.1" d="M110.155 79.7353C113.969 79.7353 117.061 76.6507 117.061 72.8457C117.061 69.0406 113.969 65.956 110.155 65.956C106.341 65.956 103.249 69.0406 103.249 72.8457C103.249 76.6507 106.341 79.7353 110.155 79.7353Z" fill="black"/>
<path d="M110.155 79.2179C113.969 79.2179 117.061 76.1333 117.061 72.3283C117.061 68.5232 113.969 65.4386 110.155 65.4386C106.341 65.4386 103.249 68.5232 103.249 72.3283C103.249 76.1333 106.341 79.2179 110.155 79.2179Z" fill="#FBBEBE"/>
<path opacity="0.1" d="M122.546 130.168C120.973 130.348 119.424 130.694 117.925 131.2C115.344 132.057 95.1154 131.214 94.8338 131.2C94.8338 130.713 94.8338 130.426 94.8338 130.426L95.8241 127.972L107.557 126.507H113.171C113.171 126.507 121.619 128.487 122.492 129.342C122.527 129.857 122.546 130.168 122.546 130.168Z" fill="black"/>
<path opacity="0.1" d="M116.027 86.756C115.853 87.1446 115.121 90.5017 114.947 90.8458C114.773 91.1899 113.825 96.6984 113.739 97.0074C113.652 97.3164 107.489 95.7151 107.489 95.7151L103.779 92.6133L99.966 88.8278C99.966 88.8278 99.8534 85.4123 102.662 84.3167L109.637 92.316L112.776 83.9702C113.397 84.1463 114.043 84.216 114.687 84.1762C114.687 84.1762 116.2 86.3698 116.027 86.756Z" fill="black"/>
<path d="M109.637 92.5734L102.498 84.3799C102.08 84.1138 101.603 83.9554 101.108 83.919C100.614 83.8827 100.118 83.9694 99.6656 84.1715C98.0675 84.8621 96.0822 85.4216 95.5636 85.7657C95.045 86.1099 93.1019 88.2402 93.1019 88.2402L98.8888 103.342L96.3403 113.289C96.3403 113.289 96.7299 118.371 95.7372 120.223C95.1328 121.407 94.8497 122.728 94.9159 124.056C94.9159 124.056 95.2186 126.511 94.8737 127.801C94.6721 128.664 94.6569 129.559 94.8291 130.428C94.8291 130.428 115.337 131.289 117.925 130.428C119.424 129.92 120.973 129.573 122.546 129.395C122.546 129.395 122.076 120.78 121.607 118.713C121.138 116.646 121.997 108.766 121.997 108.766L121.436 100.325L124.801 91.6628C124.801 91.6628 122.977 86.1099 121.077 85.5504C121.077 85.5504 117.625 84.731 116.89 84.3447C116.156 83.9585 113.997 83.612 113.997 83.612L112.863 83.9912L109.637 92.5734Z" fill="white"/>
<path opacity="0.1" d="M119.596 100.04L104.575 99.0206C104.195 98.9948 103.866 99.2813 103.84 99.6606L102.227 123.32C102.201 123.7 102.488 124.028 102.869 124.054L117.89 125.073C118.27 125.099 118.599 124.812 118.625 124.433L120.238 100.773C120.264 100.394 119.977 100.065 119.596 100.04Z" fill="black"/>
<path d="M120.114 99.5257L105.092 98.5067C104.712 98.4809 104.383 98.7675 104.357 99.1467L102.744 122.807C102.718 123.186 103.006 123.514 103.386 123.54L118.407 124.559C118.788 124.585 119.117 124.298 119.143 123.919L120.755 100.259C120.781 99.8798 120.494 99.5515 120.114 99.5257Z" fill="#3F3D56"/>
<path d="M119.618 101.38L105.332 100.411L103.863 121.95L118.15 122.92L119.618 101.38Z" fill="white"/>
<path opacity="0.1" d="M118.337 106.878L106.667 106.063L106.439 109.308L118.109 110.123L118.337 106.878Z" fill="black"/>
<path opacity="0.1" d="M117.915 119.772L116.063 119.647L115.947 121.338L117.799 121.463L117.915 119.772Z" fill="black"/>
<path opacity="0.1" d="M116.088 115.691L106.608 115.048L106.493 116.739L115.973 117.382L116.088 115.691Z" fill="black"/>
<path d="M117.85 100.575L107.979 99.9054L107.802 102.505L117.673 103.175L117.85 100.575Z" fill="#3F3D56"/>
<path opacity="0.1" d="M117.85 100.575L107.979 99.9054L107.802 102.505L117.673 103.175L117.85 100.575Z" fill="black"/>
<path opacity="0.1" d="M110.5 129.693C110.5 129.693 110.413 142.442 107.046 149.762C107.046 149.762 111.106 140.115 111.106 139.729C111.106 139.342 113.349 135.292 112.748 134.087C112.148 132.881 110.5 129.693 110.5 129.693Z" fill="black"/>
<path opacity="0.1" d="M110.683 70.6053C110.554 69.4768 110.831 68.3394 111.465 67.3957C111.389 68.3416 111.657 69.2829 112.22 70.0479C112.783 70.8129 113.602 71.3506 114.529 71.5627C114.45 71.4942 114.394 71.4035 114.367 71.3023C114.341 71.2012 114.346 71.0945 114.382 70.9962C114.863 71.5393 115.231 72.1831 115.776 72.6607C116.32 73.1382 117.137 73.4238 117.777 73.0844C118.648 72.6162 118.657 71.3825 118.432 70.4227C117.948 68.3786 116.957 66.489 115.548 64.9283C115.196 64.4565 114.74 64.0724 114.215 63.8059C113.69 63.5395 113.11 63.398 112.521 63.3926C111.188 63.2896 109.803 63.4066 108.609 64.0036C107.937 64.3695 107.307 64.8083 106.731 65.3122L103.446 67.9857C103.13 68.2128 102.859 68.4971 102.648 68.8237C102.507 69.0968 102.423 69.3953 102.399 69.7016C102.316 70.5772 102.478 71.4588 102.868 72.2474C103.259 73.036 103.862 73.7003 104.61 74.1659C104.594 73.4739 104.785 72.7929 105.158 72.2093C105.531 71.6257 106.07 71.166 106.706 70.8885C106.805 70.9716 106.886 71.0749 106.942 71.1916C106.998 71.3083 107.029 71.4356 107.032 71.5651L107.724 70.3337C107.827 70.1096 107.989 69.9178 108.193 69.7789C108.62 69.5448 109.153 69.821 109.517 70.1511C109.881 70.4812 110.235 70.8932 110.723 70.9447L110.742 69.1117" fill="black"/>
<path d="M110.683 70.3478C110.554 69.2186 110.831 68.0803 111.465 67.1359C111.253 69.0087 112.669 70.9424 114.532 71.303C114.453 71.235 114.396 71.1447 114.37 71.0439C114.343 70.9431 114.348 70.8367 114.384 70.7388C114.865 71.2819 115.233 71.9233 115.778 72.4032C116.322 72.8831 117.139 73.1664 117.78 72.8246C118.65 72.3564 118.66 71.1227 118.434 70.1652C117.951 68.1212 116.959 66.2315 115.55 64.6708C115.113 64.1393 114.562 63.7121 113.938 63.4207C113.486 63.254 113.011 63.1577 112.53 63.1351C111.197 63.0321 109.813 63.1468 108.618 63.7438C107.946 64.1113 107.317 64.5509 106.741 65.0548L103.455 67.7282C103.139 67.9548 102.868 68.2392 102.658 68.5663C102.516 68.8392 102.432 69.1378 102.409 69.4442C102.325 70.3194 102.488 71.2006 102.878 71.9888C103.269 72.777 103.872 73.441 104.619 73.9062C104.604 73.2143 104.795 72.5335 105.168 71.95C105.541 71.3665 106.08 70.9067 106.715 70.6287C106.814 70.7121 106.895 70.8155 106.951 70.9321C107.007 71.0487 107.038 71.1759 107.041 71.3053L107.731 70.0786C107.833 69.8541 107.996 69.6622 108.2 69.5238C108.628 69.2897 109.16 69.5659 109.524 69.896C109.888 70.2261 110.242 70.6358 110.73 70.6896L110.749 68.8542" fill="#3F3D56"/>
<path d="M113.954 113.804C113.351 113.5 103.378 115.052 103.378 115.052C103.378 115.052 101.735 114.584 97.7647 113.933C93.7941 113.282 93.5407 109.41 93.5407 109.41L93.1066 101.659L94.4465 100.488L100.186 104.234C100.186 104.234 100.276 106.128 100.186 106.47C100.13 106.704 99.98 106.982 99.9941 107.172C99.9984 107.223 100.02 107.272 100.054 107.31C100.089 107.348 100.136 107.374 100.186 107.383C100.576 107.481 105.884 108.338 105.884 108.338C105.884 108.338 118.188 107.498 121.255 111.632C121.498 111.935 121.682 112.281 121.797 112.652C122.557 115.478 114.501 114.073 113.954 113.804Z" fill="#FBBEBE"/>
<path opacity="0.1" d="M121.804 112.669C121.335 112.877 121.044 113.027 121.044 113.027C121.044 113.027 116.641 112.898 114.168 112.004C111.695 111.11 108.689 111.269 108.689 111.269C108.689 111.269 98.382 109.499 99.98 107.188C99.9844 107.24 100.006 107.288 100.04 107.326C100.075 107.365 100.122 107.39 100.172 107.399C100.562 107.498 105.87 108.354 105.87 108.354C105.87 108.354 118.174 107.514 121.241 111.648C121.491 111.95 121.683 112.296 121.804 112.669Z" fill="black"/>
<path d="M126.084 99.03C126.084 99.03 126.69 103.293 126.732 103.639C126.774 103.986 126.993 108.16 126.732 108.635C126.472 109.11 126.084 109.883 126.084 109.883C126.084 109.883 126.516 110.787 124.789 111.133C123.062 111.48 121.034 112.51 121.034 112.51C121.034 112.51 116.63 112.381 114.17 111.477C111.711 110.574 108.689 110.744 108.689 110.744C108.689 110.744 95.6058 108.504 101.219 105.77C106.832 103.035 110.803 106.739 110.803 106.739L117.061 106.353C117.061 106.353 119.394 104.929 120.042 105.06C120.499 105.119 120.964 105.044 121.379 104.845L121.424 100.322L126.084 99.03Z" fill="#FBBEBE"/>
<path opacity="0.1" d="M94.348 88.5656L93.0949 88.5001L89.298 103.249C89.298 103.249 93.3976 102.214 95.1647 103.249C96.9317 104.283 100.172 104.496 100.172 104.496L98.9639 92.7397L94.348 88.5656Z" fill="black"/>
<path d="M94.348 88.3058L93.0949 88.2402L89.298 102.989C89.298 102.989 93.3976 101.954 95.1647 102.989C96.9317 104.023 100.172 104.236 100.172 104.236L98.9639 92.4798L94.348 88.3058Z" fill="white"/>
<path opacity="0.1" d="M123.064 91.5364L124.789 91.925C124.789 91.925 129.194 98.2458 129.539 98.5993C129.884 98.9528 127.896 100.238 127.077 100.238C126.258 100.238 122.243 100.706 121.077 101.788C119.91 102.869 120.396 97.4264 120.396 97.3024C120.396 97.1783 121.844 93.744 121.844 93.744L123.064 91.5364Z" fill="black"/>
<path d="M123.064 91.2789L124.789 91.6651C124.789 91.6651 129.194 97.9976 129.539 98.3417C129.884 98.6859 127.896 99.9805 127.077 99.9805C126.258 99.9805 122.243 100.449 121.077 101.53C119.91 102.612 120.396 97.1689 120.396 97.0448C120.396 96.9207 121.853 93.4747 121.853 93.4747L123.064 91.2789Z" fill="white"/>
<g opacity="0.1">
<path opacity="0.1" d="M111.453 67.157C111.443 66.9775 111.447 66.7974 111.465 66.6185C111.107 67.1534 110.862 67.7545 110.742 68.386V68.9291C110.742 68.9291 110.742 68.9174 110.742 68.9104V69.0392C110.742 69.4184 110.742 69.8 110.73 70.1792H110.697V70.3548C110.697 70.294 110.697 70.2354 110.686 70.1746C110.216 70.0997 109.881 69.7064 109.531 69.3927C109.181 69.079 108.635 68.7793 108.207 69.0204C108.003 69.1588 107.84 69.3508 107.738 69.5753L107.041 70.802C107.038 70.6729 107.007 70.5459 106.951 70.4297C106.895 70.3134 106.814 70.2104 106.715 70.1277C106.079 70.4052 105.541 70.8649 105.167 71.4485C104.794 72.0321 104.604 72.7132 104.619 73.4052C103.978 73.0044 103.442 72.4572 103.055 71.8087C102.667 71.1603 102.44 70.4292 102.392 69.6759C102.352 70.517 102.536 71.3538 102.928 72.0999C103.319 72.8459 103.903 73.4743 104.619 73.9202C104.604 73.2283 104.795 72.5475 105.168 71.964C105.541 71.3806 106.08 70.9207 106.715 70.6428C106.814 70.7261 106.895 70.8295 106.951 70.9462C107.007 71.0628 107.038 71.19 107.041 71.3193L107.731 70.0926C107.833 69.8682 107.996 69.6762 108.2 69.5378C108.628 69.3037 109.16 69.5799 109.524 69.91C109.888 70.2401 110.242 70.6498 110.73 70.7036C110.73 70.1043 110.736 69.5066 110.749 68.9104C110.864 68.285 111.103 67.6888 111.453 67.157Z" fill="black"/>
<path opacity="0.1" d="M110.66 69.5144C110.671 69.3552 110.69 69.196 110.714 69.0462L110.739 68.4001C110.669 68.7671 110.642 69.1411 110.66 69.5144Z" fill="black"/>
<path opacity="0.1" d="M117.779 72.3072C117.139 72.649 116.322 72.3634 115.778 71.8859C115.233 71.4083 114.865 70.7645 114.384 70.2214C114.348 70.3197 114.343 70.4264 114.37 70.5275C114.396 70.6287 114.453 70.7194 114.532 70.7879C114.485 70.7879 114.44 70.7645 114.396 70.7528C114.865 71.2912 115.238 71.9233 115.778 72.3915C116.318 72.8597 117.139 73.1547 117.779 72.8129C118.42 72.4711 118.603 71.6705 118.547 70.8909C118.505 71.5043 118.284 72.0357 117.779 72.3072Z" fill="black"/>
<path opacity="0.1" d="M114.382 70.7481C113.597 70.5348 112.896 70.0872 112.374 69.4655C111.851 68.8437 111.531 68.0774 111.458 67.2694C111.324 69.1071 112.713 70.9495 114.532 71.303C114.454 71.2358 114.399 71.1472 114.372 71.0484C114.345 70.9496 114.348 70.845 114.382 70.7481Z" fill="black"/>
</g>
<path d="M227.078 109.01C227.078 109.01 226.154 108.881 226.154 107.54C226.154 106.198 225.492 103.686 225.492 103.686C225.492 103.686 224.919 99.3156 224.128 98.6227C223.338 97.9298 222.322 93.8611 222.322 93.8611C222.322 93.8611 222.148 91.6535 221.794 91.1782C221.439 90.703 220.96 89.5395 220.254 87.8797C219.548 86.22 216.61 85.0822 216.61 85.0822C216.61 85.0822 211.285 82.0014 209.776 80.9971C209.638 80.9139 209.509 80.8166 209.391 80.7068C209.129 80.3651 207.983 80.358 207.983 80.358C207.864 79.6019 207.749 78.7357 207.711 77.9515C207.711 77.8672 207.711 77.7829 207.711 77.6986C209.394 76.7065 210.661 75.1421 211.28 73.2928C211.309 73.2039 211.332 73.1126 211.358 73.0213C211.461 72.9896 211.556 72.9365 211.637 72.8654C211.718 72.7944 211.783 72.7071 211.827 72.6092C211.961 72.3072 211.966 71.9561 212.135 71.6728C212.332 71.3404 212.707 71.1625 213.003 70.9143C213.749 70.2799 213.942 69.2148 213.906 68.2479C213.883 67.4613 213.756 66.6701 213.805 65.8905C213.805 65.8249 213.805 65.7594 213.82 65.6939C213.834 65.5791 213.85 65.4598 213.871 65.3474C213.986 64.7668 214.237 64.219 214.378 63.6431C214.519 63.0672 214.533 62.4188 214.204 61.9225C213.723 61.1944 212.721 61.0493 211.841 60.9861C210.844 60.9018 209.964 61.0095 209.314 60.1831C209.016 59.7515 208.68 59.3472 208.31 58.9751C208.178 58.8534 206.902 58.0738 206.902 58.0247C205.652 57.4453 204.235 57.3364 202.912 57.718C202.248 57.9099 201.626 58.2236 200.953 58.3805C199.507 58.7223 197.841 58.3524 196.611 59.1788C195.926 59.647 195.515 60.3938 195.131 61.1172C194.818 61.7133 194.5 62.3103 194.178 62.908C193.657 63.8889 193.131 64.8862 192.913 65.9724C192.867 66.2097 192.838 66.4498 192.826 66.6911C192.826 66.7777 192.826 66.8644 192.826 66.951C192.826 66.9884 192.826 67.0259 192.826 67.0634C192.826 67.1429 192.826 67.2225 192.84 67.2975C192.854 67.3724 192.84 67.3934 192.857 67.4426C192.873 67.4918 192.878 67.6018 192.892 67.6767C192.906 67.7516 192.934 67.8851 192.962 67.9857C192.962 68.0302 192.99 68.0723 193.005 68.1168C193.019 68.1613 193.056 68.2737 193.087 68.3509C193.117 68.4282 193.12 68.4328 193.138 68.4726C193.174 68.5546 193.216 68.6342 193.258 68.7067C193.277 68.7372 193.291 68.7676 193.31 68.7981C193.374 68.9076 193.446 69.0125 193.526 69.1117C194.025 69.7368 194.767 70.1348 195.314 70.72C195.314 70.7434 195.314 70.7669 195.314 70.7903C195.314 70.8535 195.314 70.9167 195.314 70.9822C195.347 72.2876 195.7 73.565 196.341 74.7034C196.982 75.8417 197.893 76.8065 198.993 77.5137C198.993 77.6026 199.005 77.6939 199.01 77.7852C199.055 78.4794 199.047 79.176 198.984 79.8688C198.888 79.7567 198.768 79.6675 198.634 79.6075C198.499 79.5476 198.352 79.5185 198.205 79.5223C198.104 79.5173 198.003 79.5259 197.904 79.548L197.883 79.5317V79.5527C197.367 79.6791 196.731 80.2152 196.123 81.7392C196.123 81.7392 194.274 83.8181 192.866 83.7314C191.458 83.6448 187.894 85.8969 187.894 85.8969C187.894 85.8969 184.416 88.1466 183.669 90.4408C183.252 91.7421 182.751 93.0151 182.17 94.252L177.859 103.082L177.068 110.105C177.068 110.105 177.507 113.221 177.42 113.699C177.333 114.176 179.225 118.461 179.225 118.461C179.225 118.461 185.474 129.412 188.027 129.974L188.21 129.847C188.32 129.903 188.436 129.945 188.555 129.974L189.081 129.606C189.113 130.018 189.099 130.432 189.039 130.84C188.689 131.924 189.172 138.98 189.787 140.363C190.402 141.747 190.184 159.89 190.184 159.89L190.097 161.489C190.097 161.489 190.097 161.54 190.118 161.629L190.097 162.008L190.16 162.041C190.226 162.55 190.205 163.066 190.097 163.567C189.876 164.27 189.787 166.253 189.787 166.253C189.787 166.253 188.027 177.461 188.863 179.713C189.698 181.966 190.404 184.433 190.404 184.433C190.404 184.433 191.284 187.242 190.447 187.71C189.609 188.179 187.236 189.01 187.72 190.178C188.166 191.259 189.858 194.158 190.109 194.581L190.088 194.815L189.743 198.545C189.799 199.037 189.932 199.517 190.139 199.968C190.517 200.783 191.249 201.623 192.648 201.532C192.883 201.515 193.152 201.49 193.418 201.455C195.973 201.11 199.118 199.973 199.118 199.973C198.955 199.87 198.806 199.746 198.674 199.605C198.549 199.484 198.449 199.338 198.382 199.177C198.314 199.016 198.28 198.843 198.282 198.669C198.32 197.987 197.046 194.755 196.726 193.956L196.654 193.778C196.654 193.778 199.559 190.747 199.075 188.064C199.075 188.064 195.86 186.191 196.919 185.161C197.977 184.131 199.869 181.181 199.869 181.181C199.869 181.181 199.955 170.143 199.869 168.498C199.778 167.353 199.832 166.201 200.03 165.07C200.066 164.902 200.108 164.736 200.153 164.569C201.617 164.79 203.097 164.902 204.578 164.904C205.12 164.904 205.667 164.893 206.221 164.871C206.221 165.027 206.228 165.196 206.242 165.377C206.364 168.111 206.592 172.908 206.777 174.69C207.04 177.241 208.493 184.126 208.493 184.126C208.493 184.126 205.721 185.898 208.976 190.274C208.976 190.274 208.976 191.856 208.76 192.088C208.529 192.839 208.344 193.603 208.204 194.375C208.068 195.197 208.012 196.033 208.232 196.463C208.76 197.498 211.928 197.414 211.928 197.414C211.954 197.408 211.979 197.404 212.006 197.402C212.604 197.339 213.208 197.396 213.784 197.569C214.36 197.741 214.895 198.027 215.359 198.409C216.563 199.373 221.129 198.952 223.605 198.643C224.574 198.519 225.222 198.409 225.222 198.409C225.253 198.299 225.264 198.185 225.255 198.072C225.229 197.465 224.753 196.136 221.524 194.949C221.524 194.949 218.487 192.912 218.529 191.138H218.461H218.112C218.332 191.131 218.487 191.131 218.487 191.131C218.487 191.131 217.297 186.802 217.783 186.449C218.269 186.095 216.814 181.298 216.814 181.298C216.814 181.298 215.981 173.245 215.934 172.683C215.937 172.199 216.011 171.718 216.154 171.255L215.934 166.838C215.934 166.838 215.892 165.37 215.934 164.892C215.929 164.478 215.896 164.064 215.835 163.654C215.814 163.49 215.793 163.319 215.77 163.151C216.908 162.863 217.647 162.598 217.647 162.598L217.516 147.229C218.482 145.357 218.661 141.246 218.656 138.333C218.656 136.461 218.572 135.075 218.572 135.075L219.893 132.923C219.893 132.923 220.198 130.348 219.714 129.784C219.501 129.529 219.597 129.264 219.773 129.047C219.866 128.971 219.964 128.902 220.066 128.841C220.055 128.824 220.045 128.807 220.036 128.789C220.128 128.712 220.226 128.643 220.329 128.581C220.329 128.581 219.86 127.855 220.28 127.548C220.674 127.815 221.026 128.028 221.294 128.18C221.275 128.351 221.256 128.45 221.256 128.45L221.369 128.216C221.627 128.361 221.784 128.45 221.784 128.45C221.784 128.45 223.854 124.337 223.809 123.733C223.765 123.129 225.217 120.572 225.217 120.572C225.217 120.572 225.393 119.228 226.187 118.667C226.98 118.105 226.801 114.034 226.801 114.034C226.801 114.034 227.022 111.913 227.55 111.049C228.078 110.185 227.078 109.01 227.078 109.01ZM187.476 107.205L187.516 108.186C187.281 107.809 187.112 107.54 187.112 107.54L187.476 107.205Z" fill="url(#paint1_linear)"/>
<path d="M221.906 126.671L221.399 128.824C221.399 128.824 217.34 126.752 216.61 124.13C215.88 121.509 217.832 120.509 217.832 120.509L221.618 122.106L221.906 126.671Z" fill="white"/>
<path opacity="0.1" d="M221.906 126.671L221.399 128.824C221.399 128.824 217.34 126.752 216.61 124.13C215.88 121.509 217.832 120.509 217.832 120.509L221.618 122.106L221.906 126.671Z" fill="black"/>
<path d="M199.122 199.97C199.122 199.97 195.368 201.347 192.786 201.52C191.416 201.611 190.695 200.773 190.325 199.966C190.123 199.52 189.992 199.046 189.935 198.561L190.275 194.85L190.454 192.877L195.938 191.454L196.715 193.825L196.787 194.003C197.097 194.797 198.35 198.013 198.313 198.685C198.31 198.859 198.342 199.031 198.408 199.192C198.474 199.353 198.571 199.499 198.695 199.621C198.822 199.755 198.966 199.873 199.122 199.97Z" fill="white"/>
<path d="M224.757 198.084C224.767 198.197 224.756 198.311 224.725 198.421C224.725 198.421 216.694 199.755 215.052 198.421C214.59 198.031 214.052 197.741 213.471 197.571C212.891 197.4 212.282 197.353 211.682 197.43C211.682 197.43 208.575 197.515 208.056 196.494C207.84 196.066 207.897 195.234 208.03 194.417C208.167 193.649 208.349 192.889 208.575 192.142L208.699 192.044L209.438 191.451L218.093 191.196H218.159C218.116 192.961 221.094 194.986 221.094 194.986C224.265 196.157 224.732 197.48 224.757 198.084Z" fill="white"/>
<path opacity="0.1" d="M224.76 198.084C224.768 198.197 224.756 198.311 224.725 198.421C224.725 198.421 216.694 199.755 215.054 198.421C214.592 198.031 214.053 197.741 213.473 197.57C212.892 197.4 212.282 197.352 211.682 197.43C211.682 197.43 208.572 197.515 208.054 196.494C207.84 196.066 207.894 195.235 208.028 194.415C209.225 194.535 211.114 194.832 211.855 195.544C212.977 196.62 214.878 197.697 216.042 197.784C216.962 197.84 222.432 198.013 224.76 198.084Z" fill="black"/>
<path opacity="0.1" d="M199.122 199.97C199.122 199.97 195.368 201.347 192.786 201.52C191.416 201.611 190.695 200.773 190.325 199.966C191.282 200.286 192.608 200.621 193.305 200.315C194.131 199.947 197.06 199.713 198.702 199.612C198.826 199.749 198.967 199.87 199.122 199.97Z" fill="black"/>
<path d="M204.693 89.0315C201.596 87.8306 197.611 83.8625 198.606 82.0084C198.826 81.5402 198.957 81.0354 198.993 80.5195C199.057 79.819 199.067 79.1146 199.021 78.4126C198.952 77.2622 198.813 76.1169 198.606 74.983C198.606 74.983 208.277 75.2007 207.714 76.6217C207.549 77.0408 207.521 77.7642 207.568 78.5718C207.615 79.3795 207.73 80.2995 207.852 81.0744C208.019 82.1349 208.19 82.9472 208.19 82.9472C208.19 82.9472 207.596 83.7736 207.251 83.818C206.906 83.8625 209.138 90.7522 204.693 89.0315Z" fill="#CF6F80"/>
<path opacity="0.1" d="M196.778 193.991L196.705 194.071C193.814 190.583 190.318 194.932 190.318 194.932L190.266 194.839L190.444 192.865L195.928 191.442L196.705 193.813L196.778 193.991Z" fill="black"/>
<path opacity="0.1" d="M218.163 191.442C218.163 191.442 216.051 191.4 214.925 192.392C213.798 193.385 208.354 192.606 208.589 192.392C208.657 192.284 208.699 192.162 208.711 192.034L209.45 191.442L218.105 191.187C218.137 191.351 218.163 191.442 218.163 191.442Z" fill="black"/>
<path d="M200.375 164.05C200.218 164.438 200.099 164.84 200.019 165.251C199.823 166.376 199.769 167.521 199.857 168.659C199.944 170.298 199.857 181.28 199.857 181.28C199.857 181.28 198.001 184.208 196.963 185.241C195.926 186.273 199.075 188.127 199.075 188.127C199.545 190.798 196.701 193.813 196.701 193.813C193.809 190.325 190.313 194.673 190.313 194.673C190.313 194.673 188.412 191.395 187.938 190.225C187.464 189.054 189.794 188.246 190.613 187.769C191.432 187.291 190.571 184.491 190.571 184.491C190.571 184.491 189.881 182.036 189.06 179.795C188.238 177.555 189.966 166.405 189.966 166.405C189.966 166.405 190.055 164.422 190.268 163.731C190.375 163.233 190.396 162.72 190.332 162.214C190.318 162.043 190.301 161.903 190.289 161.805C190.278 161.706 190.268 161.664 190.268 161.664L190.301 161.608L191.475 159.426C191.475 159.426 200.939 162.675 200.375 164.05Z" fill="white"/>
<path d="M218.163 191.184C218.163 191.184 216.051 191.14 214.925 192.121C213.798 193.102 208.354 192.336 208.589 192.121C208.823 191.905 208.802 190.314 208.802 190.314C205.609 185.962 208.333 184.196 208.333 184.196C208.333 184.196 206.909 177.349 206.65 174.809C206.47 173.037 206.247 168.254 206.127 165.546C206.075 164.375 206.045 163.567 206.045 163.567L208.631 163.055L208.967 162.989L215.26 161.727C215.26 161.727 215.434 162.898 215.551 163.855C215.611 164.264 215.643 164.676 215.648 165.089C215.608 165.557 215.648 167.025 215.648 167.025L215.863 171.417C215.724 171.878 215.651 172.356 215.648 172.838C215.692 173.4 216.511 181.408 216.511 181.408C216.511 181.408 217.936 186.189 217.45 186.533C216.964 186.877 218.163 191.184 218.163 191.184Z" fill="white"/>
<path opacity="0.1" d="M207.714 76.6288C207.549 77.0478 207.521 77.7712 207.568 78.5788C206.273 79.357 204.784 79.7548 203.272 79.7267C201.76 79.6985 200.287 79.2455 199.021 78.4196C198.952 77.2692 198.813 76.124 198.606 74.9901C198.606 74.9901 208.277 75.2078 207.714 76.6288Z" fill="black"/>
<path d="M211.447 71.4597C211.473 73.5838 210.651 75.6309 209.164 77.1508C207.676 78.6707 205.644 79.5389 203.515 79.5644C201.386 79.5898 199.334 78.7705 197.81 77.2866C196.287 75.8026 195.417 73.7757 195.391 71.6517C195.391 71.5862 195.391 71.5253 195.391 71.4597C195.391 69.3351 196.237 67.2975 197.743 65.7951C199.249 64.2928 201.292 63.4488 203.421 63.4488C205.551 63.4488 207.594 64.2928 209.1 65.7951C210.606 67.2975 211.452 69.3351 211.452 71.4597H211.447Z" fill="#CF6F80"/>
<path opacity="0.1" d="M204.693 89.0315C201.596 87.8305 197.611 83.8625 198.606 82.0084C198.826 81.5402 198.957 81.0354 198.993 80.5195L203.234 83.9983L205.857 86.145L207.852 81.0814C208.019 82.1419 208.19 82.9542 208.19 82.9542C208.19 82.9542 207.596 83.7806 207.251 83.8251C206.906 83.8695 209.138 90.7521 204.693 89.0315Z" fill="black"/>
<path d="M215.659 104.405L212.118 163.75L207.5 164.052L195.539 129.641L197.501 88.788L197.916 80.1566L203.234 84.5133L205.857 86.66L207.911 81.4466L211.729 84.7661L215.659 104.405Z" fill="white"/>
<path opacity="0.1" d="M200.375 164.05C200.218 164.438 200.099 164.84 200.019 165.251C196.655 164.734 193.388 163.717 190.327 162.233L190.264 162.2L190.285 161.823V161.627L191.458 159.445C191.458 159.445 200.939 162.675 200.375 164.05Z" fill="black"/>
<path opacity="0.1" d="M208.709 165.26C207.849 165.406 206.983 165.506 206.113 165.557C206.061 164.387 206.031 163.579 206.031 163.579L208.631 163.055L208.709 165.26Z" fill="black"/>
<path opacity="0.1" d="M215.561 163.855C213.892 164.288 211.313 164.775 209.009 164.471L208.976 162.989L215.27 161.727C215.27 161.727 215.436 162.888 215.561 163.855Z" fill="black"/>
<path opacity="0.1" d="M208.967 164.743C199.345 166.381 190.533 161.683 190.533 161.683L190.618 160.091C190.618 160.091 190.836 142.044 190.231 140.66C189.625 139.277 189.154 132.27 189.496 131.2C189.839 130.131 188.245 113.977 188.245 113.977L187.987 107.423L178.533 103.59L182.757 94.8045C183.327 93.5729 183.818 92.3062 184.226 91.012C184.96 88.7295 188.37 86.4892 188.37 86.4892C188.37 86.4892 191.866 84.2512 193.249 84.3354C194.631 84.4197 196.442 82.3549 196.442 82.3549C197.78 78.9534 198.991 80.4821 198.991 80.4821C198.991 80.646 198.991 80.4821 198.925 80.9854C198.456 84.7194 206.514 96.5181 206.629 96.7288L207.406 115.377L208.183 138.977L208.967 164.743Z" fill="black"/>
<path d="M208.709 164.743C199.087 166.381 190.273 161.683 190.273 161.683L190.36 160.091C190.36 160.091 190.576 142.044 189.97 140.66C189.365 139.277 188.893 132.263 189.238 131.184C189.583 130.105 187.98 113.968 187.98 113.968L187.72 107.413L178.267 103.581L182.491 94.7951C183.061 93.5638 183.551 92.2979 183.96 91.005C184.695 88.7295 188.116 86.4868 188.116 86.4868C188.116 86.4868 191.613 84.2488 192.993 84.3331C194.373 84.4174 196.194 82.3549 196.194 82.3549C197.534 78.9534 199.01 80.4821 199.01 80.4821C199.01 80.646 198.869 80.7162 198.944 80.9854C199.977 84.607 206.275 96.5181 206.39 96.7288L207.167 115.377L207.927 138.989L208.709 164.743Z" fill="white"/>
<path opacity="0.1" d="M206.115 97.2556C205.081 96.8248 199.599 90.5813 199.599 90.5813V89.1603C199.399 88.6921 198.212 88.9777 197.252 89.3054L197.665 80.6741L198.134 81.0627C199.16 84.6819 206.003 97.0472 206.115 97.2556Z" fill="black"/>
<path d="M206.376 96.7405C205.339 96.3074 199.857 90.0662 199.857 90.0662V88.6429C199.657 88.1747 198.472 88.4603 197.51 88.788L197.916 80.166L198.385 80.5523C199.42 84.1669 206.261 96.5298 206.376 96.7405Z" fill="white"/>
<path opacity="0.1" d="M190.533 127.876C190.663 127.876 197.224 127.188 197.224 127.188C197.224 127.188 201.197 134.983 200.936 136.877C200.676 138.771 200.204 140.452 198.606 140.155C197.008 139.858 190.005 140.389 190.005 140.389L190.533 127.876Z" fill="black"/>
<path d="M190.273 127.359C190.404 127.359 196.966 126.671 196.966 126.671C196.966 126.671 200.936 134.478 200.678 136.351C200.42 138.223 199.944 139.925 198.348 139.628C196.752 139.331 189.745 139.862 189.745 139.862L190.273 127.359Z" fill="white"/>
<path d="M195.217 123.709C195.217 123.709 201.239 126.94 201.368 127.923C201.497 128.906 198.303 127.492 197.613 127.319C197.159 127.211 196.697 127.139 196.231 127.104L191.629 127.228L195.217 123.709Z" fill="#CF6F80"/>
<path opacity="0.1" d="M204.433 97.6582C204.783 97.6582 205.067 97.3752 205.067 97.0261C205.067 96.677 204.783 96.394 204.433 96.394C204.083 96.394 203.799 96.677 203.799 97.0261C203.799 97.3752 204.083 97.6582 204.433 97.6582Z" fill="black"/>
<path d="M204.433 97.4006C204.783 97.4006 205.067 97.1176 205.067 96.7686C205.067 96.4195 204.783 96.1365 204.433 96.1365C204.083 96.1365 203.799 96.4195 203.799 96.7686C203.799 97.1176 204.083 97.4006 204.433 97.4006Z" fill="#3F3D56"/>
<path opacity="0.1" d="M205.599 125.02C205.949 125.02 206.233 124.737 206.233 124.388C206.233 124.039 205.949 123.756 205.599 123.756C205.249 123.756 204.966 124.039 204.966 124.388C204.966 124.737 205.249 125.02 205.599 125.02Z" fill="black"/>
<path d="M205.599 124.76C205.949 124.76 206.233 124.477 206.233 124.128C206.233 123.779 205.949 123.496 205.599 123.496C205.249 123.496 204.966 123.779 204.966 124.128C204.966 124.477 205.249 124.76 205.599 124.76Z" fill="#3F3D56"/>
<path opacity="0.1" d="M205.066 111.339C205.416 111.339 205.7 111.056 205.7 110.707C205.7 110.358 205.416 110.075 205.066 110.075C204.716 110.075 204.433 110.358 204.433 110.707C204.433 111.056 204.716 111.339 205.066 111.339Z" fill="black"/>
<path d="M205.066 111.082C205.416 111.082 205.7 110.799 205.7 110.45C205.7 110.1 205.416 109.818 205.066 109.818C204.716 109.818 204.433 110.1 204.433 110.45C204.433 110.799 204.716 111.082 205.066 111.082Z" fill="#3F3D56"/>
<path d="M219.672 126.973C219.672 126.973 220.104 127.619 219.672 127.909C219.24 128.199 219.714 128.944 219.714 128.944C219.714 128.944 218.637 129.571 219.111 130.14C219.585 130.709 219.285 133.263 219.285 133.263L217.99 135.414C217.99 135.414 218.067 136.793 218.072 138.657C218.072 141.564 217.9 145.652 216.952 147.515L217.079 162.804C217.079 162.804 212.543 164.459 208.746 163.954L208.183 139.42C208.183 139.42 209.004 125.507 209.307 122.838C209.484 121.453 209.556 120.056 209.523 118.66C209.523 118.66 209.394 114.483 208.96 112.547C208.96 112.547 208.49 104.148 208.443 101.823C208.422 100.711 208.481 97.4662 208.547 94.3808C208.619 91.0073 208.701 87.8259 208.701 87.8259L207.845 81.0627C207.845 81.0627 208.701 80.9784 208.96 81.3202C209.075 81.4279 209.201 81.5244 209.335 81.6081C210.816 82.6054 216.039 85.6721 216.039 85.6721C216.039 85.6721 218.931 86.8192 219.623 88.4626C220.315 90.106 220.796 91.2719 221.132 91.7401C221.467 92.2083 221.65 94.4089 221.65 94.4089C221.65 94.4089 222.645 98.4588 223.422 99.1448C224.199 99.8307 224.757 104.185 224.757 104.185L217.893 109.569C217.893 109.569 217.29 118.526 217.161 118.873C217.032 119.219 219.672 126.973 219.672 126.973Z" fill="white"/>
<path d="M219.933 126.972C219.933 126.972 220.362 127.619 219.933 127.909C219.503 128.199 219.973 128.944 219.973 128.944C219.973 128.944 218.895 129.571 219.369 130.14C219.843 130.709 219.543 133.263 219.543 133.263L218.252 135.414C218.252 135.414 218.33 136.793 218.337 138.657C218.337 141.564 218.166 145.652 217.218 147.515L217.347 162.804C217.347 162.804 212.81 164.459 209.014 163.954L208.453 139.42C208.453 139.42 209.272 125.507 209.577 122.838C209.754 121.453 209.826 120.056 209.79 118.66C209.79 118.66 209.661 114.483 209.229 112.547C209.229 112.547 208.76 104.148 208.711 101.823C208.69 100.711 208.748 97.4662 208.814 94.3807C208.887 91.0073 208.969 87.8259 208.969 87.8259L207.838 80.9714C207.838 80.9714 208.969 80.9714 209.229 81.3202C209.344 81.4292 209.47 81.5257 209.605 81.6081C211.083 82.6054 216.307 85.6721 216.307 85.6721C216.307 85.6721 219.191 86.8192 219.895 88.4626C220.599 90.106 221.068 91.2719 221.404 91.7401C221.74 92.2083 221.923 94.4088 221.923 94.4088C221.923 94.4088 222.918 98.4588 223.694 99.1447C224.471 99.8307 225.032 104.185 225.032 104.185L218.168 109.569C218.168 109.569 217.565 118.526 217.433 118.873C217.302 119.219 219.933 126.972 219.933 126.972Z" fill="white"/>
<path opacity="0.1" d="M211.712 89.8134L212.334 91.616L209.07 94.8934C209.143 91.52 209.225 88.3386 209.225 88.3386L208.094 81.4864C208.094 81.4864 209.225 81.4864 209.485 81.8352C209.6 81.9442 209.726 82.0407 209.861 82.1231L212.634 90.1037L211.712 89.8134Z" fill="black"/>
<path d="M211.447 89.2961L212.069 91.0963L208.807 94.3738C208.877 91.0003 208.962 87.8189 208.962 87.8189L207.828 80.9644C207.828 80.9644 208.962 80.9644 209.22 81.3132C209.335 81.4215 209.461 81.518 209.596 81.6011L212.386 89.5887L211.447 89.2961Z" fill="white"/>
<path opacity="0.1" d="M211.447 71.4598C211.448 72.3033 211.315 73.1416 211.053 73.9436C211.009 73.9509 210.963 73.9494 210.92 73.9389C210.876 73.9284 210.835 73.9093 210.799 73.8827C210.736 71.7758 209.699 69.7953 208.42 68.1121C208.06 67.6044 207.625 67.1544 207.129 66.7777C206.627 66.402 206.003 66.2259 205.379 66.2837C204.675 66.3797 204.053 66.8573 203.342 66.9182C202.403 66.9954 201.563 66.347 200.631 66.3165C200.252 66.3197 199.879 66.4036 199.535 66.5627C199.191 66.7217 198.886 66.9523 198.639 67.2389C198.149 67.8153 197.785 68.4875 197.571 69.2124C197.202 70.3123 197.001 71.4613 196.975 72.6209C196.963 73.2764 196.9 74.0981 196.29 74.3369C196.336 73.8551 196.281 73.3691 196.129 72.9097C195.977 72.4502 195.73 72.0274 195.405 71.6681L195.391 71.6517C195.391 71.5862 195.391 71.5253 195.391 71.4598C195.391 69.3351 196.237 67.2975 197.743 65.7951C199.249 64.2928 201.292 63.4488 203.421 63.4488C205.551 63.4488 207.594 64.2928 209.1 65.7951C210.606 67.2975 211.452 69.3351 211.452 71.4598H211.447Z" fill="black"/>
<path d="M206.754 58.741C205.534 58.1688 204.147 58.0606 202.854 58.4367C202.203 58.6286 201.591 58.94 200.932 59.0969C199.524 59.4363 197.881 59.0688 196.672 59.8905C196.001 60.3587 195.598 61.0984 195.222 61.8195L194.283 63.601C193.772 64.5772 193.256 65.5698 193.042 66.6443C192.829 67.7189 192.958 68.9221 193.64 69.7883C194.136 70.4157 194.872 70.8114 195.412 71.4036C195.736 71.7647 195.982 72.1889 196.134 72.6494C196.286 73.1099 196.341 73.5968 196.295 74.0794C196.905 73.8453 196.966 73.0189 196.98 72.3635C197.006 71.2039 197.207 70.0549 197.576 68.9549C197.79 68.23 198.154 67.5578 198.644 66.9814C198.89 66.6945 199.196 66.4636 199.539 66.3041C199.883 66.1447 200.257 66.0603 200.636 66.0567C201.575 66.0895 202.417 66.738 203.346 66.6584C204.05 66.5998 204.675 66.1223 205.383 66.0263C206.008 65.9673 206.632 66.1435 207.134 66.5202C207.63 66.8958 208.065 67.346 208.422 67.8546C209.703 69.5402 210.743 71.5113 210.804 73.6253C211.069 73.8172 211.452 73.5644 211.583 73.2647C211.715 72.9651 211.719 72.6139 211.886 72.3283C212.078 71.9982 212.447 71.8203 212.735 71.5722C213.467 70.9424 213.651 69.882 213.622 68.9198C213.594 67.9576 213.406 66.9814 213.59 66.0357C213.7 65.4574 213.949 64.912 214.085 64.3384C214.221 63.7649 214.237 63.1211 213.916 62.6271C213.446 61.9037 212.458 61.7586 211.597 61.6907C210.619 61.6064 209.743 61.7141 209.119 60.8924C208.825 60.4642 208.496 60.0616 208.134 59.6891C208.004 59.5651 206.754 58.7925 206.754 58.741Z" fill="#512E4E"/>
<path opacity="0.1" d="M181.241 108.109L178.791 103.588L178.014 110.564C178.014 110.564 178.446 113.664 178.359 114.139C178.272 114.614 180.128 118.875 180.128 118.875C180.128 118.875 186.26 129.772 188.764 130.332L197.212 124.301L194.969 121.459C194.969 121.459 194.192 121.157 193.997 121.459C193.997 121.459 189.83 114.31 189.4 113.795C188.971 113.28 189.053 112.243 189.053 112.243C189.053 112.243 188.405 111.555 188.621 110.908C188.837 110.262 187.382 108.024 187.382 108.024L188.72 106.776L181.241 108.109Z" fill="black"/>
<path d="M178.92 103.071L178.272 103.588L177.495 110.564C177.495 110.564 177.927 113.664 177.84 114.139C177.753 114.614 179.612 118.875 179.612 118.875C179.612 118.875 185.742 129.772 188.245 130.332L196.708 124.301L194.462 121.459C194.462 121.459 193.685 121.157 193.49 121.459C193.49 121.459 189.325 114.31 188.893 113.795C188.461 113.28 188.548 112.243 188.548 112.243C188.548 112.243 187.901 111.555 188.116 110.908C188.332 110.262 186.863 108.024 186.863 108.024L188.201 106.776L178.92 103.071Z" fill="white"/>
<path opacity="0.1" d="M219.111 130.409C219.581 130.978 219.285 133.534 219.285 133.534L217.99 135.672C217.99 135.672 218.067 137.053 218.072 138.916L215.894 139.595C215.697 139.657 215.488 139.67 215.285 139.634C215.081 139.599 214.889 139.515 214.725 139.391C214.56 139.266 214.428 139.104 214.339 138.918C214.25 138.732 214.207 138.528 214.214 138.322L214.592 126.242L219.672 128.178C219.24 128.478 219.714 129.213 219.714 129.213C219.714 129.213 218.637 129.84 219.111 130.409Z" fill="black"/>
<path d="M219.369 130.152C219.839 130.718 219.543 133.275 219.543 133.275L218.252 135.414C218.252 135.414 218.33 136.793 218.337 138.657L216.119 139.347C215.927 139.407 215.722 139.421 215.524 139.386C215.325 139.352 215.137 139.27 214.976 139.148C214.816 139.027 214.686 138.868 214.599 138.687C214.512 138.505 214.47 138.305 214.477 138.104L214.854 125.982L219.933 127.923C219.498 128.223 219.973 128.958 219.973 128.958C219.973 128.958 218.895 129.583 219.369 130.152Z" fill="white"/>
<path d="M221.054 124.388C221.054 124.388 220.709 126.586 219.846 126.715C218.982 126.844 218.595 130.271 217.734 130.152C216.873 130.032 217.443 126.963 217.473 126.369C217.504 125.774 216.535 123.311 217.257 122.752C217.98 122.192 220.28 122.752 220.28 122.752L221.054 124.388Z" fill="#CF6F80"/>
<path opacity="0.1" d="M222.88 107.462L224.506 104.185C224.506 104.185 225.156 106.683 225.156 108.017C225.156 109.352 226.062 109.483 226.062 109.483C226.062 109.483 227.055 110.653 226.532 111.508C226.008 112.362 225.799 114.478 225.799 114.478C225.799 114.478 225.971 118.526 225.194 119.086C224.417 119.645 224.244 120.982 224.244 120.982C224.244 120.982 222.819 123.522 222.864 124.126C222.908 124.73 220.878 128.82 220.878 128.82C220.878 128.82 221.871 123.737 216.086 121.541C216.086 121.541 216.042 119.818 216.474 119.345C216.905 118.872 217.579 118.643 217.157 116.265C216.734 113.886 217.035 111.018 217.035 110.445C217.035 109.871 218.33 106.297 218.33 106.297L222.88 107.462Z" fill="black"/>
<path d="M223.603 103.717L225.025 104.185C225.025 104.185 225.675 106.683 225.675 108.017C225.675 109.352 226.581 109.483 226.581 109.483C226.581 109.483 227.573 110.653 227.05 111.508C226.527 112.362 226.316 114.478 226.316 114.478C226.316 114.478 226.489 118.526 225.712 119.086C224.936 119.645 224.774 120.982 224.774 120.982C224.774 120.982 223.349 123.522 223.394 124.126C223.439 124.73 221.406 128.82 221.406 128.82C221.406 128.82 222.399 123.737 216.614 121.541C216.614 121.541 216.572 119.818 217.004 119.345C217.436 118.872 218.109 118.643 217.687 116.265C217.264 113.886 217.565 111.018 217.565 110.445C217.565 109.871 218.86 106.297 218.86 106.297L223.603 103.717Z" fill="white"/>
<path opacity="0.1" d="M192.186 188.666C192.186 188.666 194.452 187.245 195.94 188.277C197.428 189.309 192.186 188.666 192.186 188.666Z" fill="black"/>
<path opacity="0.1" d="M209.804 184.271C209.804 184.271 211.811 184.014 213.496 185.824C215.181 187.633 209.804 184.271 209.804 184.271Z" fill="black"/>
<g opacity="0.1">
<path opacity="0.1" d="M212.735 71.0571C212.447 71.3076 212.076 71.4831 211.884 71.8132C211.719 72.0965 211.715 72.4476 211.583 72.7496C211.452 73.0516 211.069 73.3021 210.802 73.1102C210.741 71.0032 209.701 69.0251 208.422 67.3395C208.065 66.8316 207.63 66.3822 207.134 66.0075C206.632 65.63 206.007 65.453 205.381 65.5112C204.677 65.6072 204.057 66.0847 203.346 66.1456C202.408 66.2229 201.565 65.5744 200.634 65.544C200.255 65.5468 199.882 65.6307 199.538 65.7898C199.195 65.9489 198.89 66.1796 198.644 66.4663C198.154 67.0427 197.79 67.7149 197.576 68.4398C197.207 69.5398 197.006 70.6888 196.98 71.8483C196.966 72.5015 196.905 73.3162 196.299 73.5596C196.313 73.7334 196.313 73.9079 196.299 74.0817C196.912 73.8476 196.973 73.0212 196.987 72.3657C197.013 71.2062 197.214 70.0571 197.583 68.9572C197.797 68.2323 198.161 67.5601 198.651 66.9837C198.897 66.697 199.202 66.4662 199.545 66.3067C199.889 66.1472 200.262 66.0628 200.641 66.059C201.579 66.0918 202.424 66.7402 203.353 66.6606C204.057 66.6021 204.682 66.1245 205.388 66.0286C206.014 65.9697 206.639 66.1458 207.141 66.5225C207.637 66.8981 208.072 67.3482 208.429 67.8569C209.708 69.5424 210.748 71.5136 210.809 73.6275C211.076 73.8195 211.459 73.5667 211.59 73.267C211.722 72.9674 211.726 72.6162 211.891 72.3306C212.083 72.0005 212.454 71.8226 212.742 71.5744C213.475 70.9447 213.658 69.8842 213.629 68.9221C213.629 68.8916 213.629 68.8635 213.629 68.8331C213.582 69.6712 213.36 70.521 212.735 71.0571Z" fill="black"/>
<path opacity="0.1" d="M195.41 70.8932C194.872 70.301 194.136 69.903 193.641 69.2756C193.222 68.7218 192.984 68.0535 192.958 67.3606C192.884 68.227 193.126 69.0908 193.641 69.793C194.136 70.4204 194.872 70.816 195.41 71.4083C195.929 71.9873 196.241 72.7217 196.297 73.4965C196.332 73.0253 196.272 72.5519 196.119 72.1046C195.967 71.6573 195.726 71.2453 195.41 70.8932Z" fill="black"/>
<path opacity="0.1" d="M214.085 63.8234C213.946 64.3969 213.7 64.9424 213.587 65.5206C213.52 65.9116 213.495 66.3088 213.515 66.7052C213.522 66.4813 213.547 66.2583 213.587 66.038C213.7 65.4597 213.946 64.9143 214.085 64.3407C214.164 64.0242 214.191 63.6966 214.162 63.3715C214.147 63.5238 214.121 63.6747 214.085 63.8234Z" fill="black"/>
</g>
<path opacity="0.1" d="M31.1474 196.384C43.7759 196.384 54.0134 194.744 54.0134 192.72C54.0134 190.697 43.7759 189.056 31.1474 189.056C18.5188 189.056 8.28137 190.697 8.28137 192.72C8.28137 194.744 18.5188 196.384 31.1474 196.384Z" fill="white"/>
</g>
<defs>
<linearGradient id="paint0_linear" x1="109.245" y1="195.607" x2="109.245" y2="60.3774" gradientUnits="userSpaceOnUse">
<stop stop-color="#808080" stop-opacity="0.25"/>
<stop offset="0.54" stop-color="#808080" stop-opacity="0.12"/>
<stop offset="1" stop-color="#808080" stop-opacity="0.1"/>
</linearGradient>
<linearGradient id="paint1_linear" x1="44652.3" y1="126732" x2="44652.3" y2="38095.3" gradientUnits="userSpaceOnUse">
<stop stop-color="#808080" stop-opacity="0.25"/>
<stop offset="0.54" stop-color="#808080" stop-opacity="0.12"/>
<stop offset="1" stop-color="#808080" stop-opacity="0.1"/>
</linearGradient>
<clipPath id="clip0">
<rect width="274" height="202" fill="white"/>
</clipPath>
</defs>
</svg>
