<svg width="120" height="120" viewBox="0 0 120 120" fill="none" xmlns="http://www.w3.org/2000/svg">
<path d="M95 15H74.1C72 9.2 66.5 5 60 5C53.5 5 48 9.2 45.9 15H25C19.5 15 15 19.5 15 25V95C15 100.5 19.5 105 25 105H95C100.5 105 105 100.5 105 95V25C105 19.5 100.5 15 95 15ZM60 15C62.75 15 65 17.25 65 20C65 22.75 62.75 25 60 25C57.25 25 55 22.75 55 20C55 17.25 57.25 15 60 15ZM60 35C68.3 35 75 41.7 75 50C75 58.3 68.3 65 60 65C51.7 65 45 58.3 45 50C45 41.7 51.7 35 60 35ZM90 95H30V88C30 78 50 72.5 60 72.5C70 72.5 90 78 90 88V95Z" fill="white"/>
</svg>
