<svg width="102" height="102" viewBox="0 0 102 102" fill="none" xmlns="http://www.w3.org/2000/svg">
<g clip-path="url(#clip0)">
<path d="M89.0707 22.314C82.2574 22.4136 76.6594 27.9718 76.5199 34.7851C76.4203 39.6261 79.0102 43.8694 82.8949 46.1007V68.5327C82.8949 79.9479 72.8941 89.2514 60.5824 89.2514C48.6293 89.2514 38.8277 80.4659 38.2898 69.489C52.793 66.5007 63.75 53.6311 63.75 38.2515V7.29287C63.75 5.02177 62.1363 3.04951 59.9051 2.61123L47.3742 0.10107C44.7844 -0.416899 42.2742 1.25654 41.7563 3.84638L41.1187 6.97412C40.6008 9.56396 42.2742 12.0741 44.8641 12.5921L50.9801 13.8073V37.9925C50.9801 48.5311 42.573 57.2569 32.0344 57.3565C21.3961 57.4561 12.7301 48.8499 12.7301 38.2315V13.8272L18.8461 12.612C21.4359 12.094 23.1094 9.58388 22.5914 6.99404L21.9738 3.8663C21.4559 1.27646 18.9457 -0.396977 16.3559 0.120991L3.84492 2.5913C1.61367 3.04951 0 5.00185 0 7.29287V38.2515C0 53.6511 10.977 66.5405 25.5199 69.489C26.0379 87.4983 41.557 102.001 60.5625 102.001C79.8867 102.001 95.625 86.9804 95.625 68.5327V46.1007C99.4301 43.8893 102 39.7854 102 35.064C102 27.9518 96.1828 22.2143 89.0707 22.314ZM89.25 38.2515C87.4969 38.2515 86.0625 36.8171 86.0625 35.064C86.0625 33.3108 87.4969 31.8765 89.25 31.8765C91.0031 31.8765 92.4375 33.3108 92.4375 35.064C92.4375 36.8171 91.0031 38.2515 89.25 38.2515Z" fill="#F2F2F2"/>
</g>
<defs>
<clipPath id="clip0">
<rect width="102" height="102" fill="white"/>
</clipPath>
</defs>
</svg>
