<svg width="120" height="96" viewBox="0 0 120 96" fill="none" xmlns="http://www.w3.org/2000/svg">
<path d="M116.688 28.725L64.3867 12.6562C61.5367 11.7806 58.4617 11.7806 55.6136 12.6562L3.31046 28.725C-1.10328 30.0806 -1.10328 35.9175 3.31046 37.2731L12.4286 40.0744C10.428 42.5475 9.19796 45.5644 9.07609 48.8681C7.27046 49.9031 5.99921 51.7706 5.99921 54C5.99921 56.0212 7.06422 57.7219 8.59797 58.8094L3.81109 80.3494C3.39484 82.2225 4.81984 84 6.73796 84H17.2586C19.1786 84 20.6036 82.2225 20.1873 80.3494L15.4005 58.8094C16.9342 57.7219 17.9992 56.0212 17.9992 54C17.9992 51.8306 16.7861 50.0156 15.063 48.9619C15.2055 46.1456 16.6455 43.6556 18.9423 42.0769L55.6117 53.3438C57.3105 53.865 60.5692 54.5156 64.3848 53.3438L116.688 37.275C121.104 35.9175 121.104 30.0825 116.688 28.725ZM66.1473 59.0794C60.798 60.7219 56.2398 59.8144 53.8492 59.0794L26.658 50.7262L23.9992 72C23.9992 78.6281 40.1167 84 59.9992 84C79.8817 84 95.9992 78.6281 95.9992 72L93.3405 50.7244L66.1473 59.0794Z" fill="#F2F2F2"/>
</svg>
