<svg width="144" height="113" viewBox="0 0 144 113" fill="none" xmlns="http://www.w3.org/2000/svg">
<path d="M98.7839 16.848C95.3805 13.4572 90.7721 11.5534 85.9679 11.5534C81.1637 11.5534 76.5553 13.4572 73.1519 16.848L71.9999 17.856L70.9919 16.848C67.5662 13.5802 62.9983 11.7821 58.2644 11.8379C53.5304 11.8937 49.0061 13.799 45.6585 17.1467C42.3109 20.4943 40.4056 25.0186 40.3497 29.7525C40.2939 34.4864 42.0921 39.0544 45.3599 42.48L46.3679 43.488C46.3679 43.488 64.7999 58.752 71.9999 68.544C79.3439 58.752 97.6319 43.488 97.6319 43.488L98.6399 42.48C100.344 40.813 101.7 38.8246 102.631 36.6299C103.561 34.4352 104.047 32.0778 104.061 29.694C104.074 27.3103 103.614 24.9476 102.709 22.7426C101.803 20.5375 100.469 18.534 98.7839 16.848Z" fill="#F2F2F2"/>
<path d="M39.7729 81.3312C41.0458 82.6082 41.7604 84.3378 41.7601 86.1408V99.2592H64.8001V70.56C64.7966 68.762 64.0822 67.0382 62.8129 65.7648L38.1889 44.9568C37.9937 44.757 37.8109 44.5454 37.6417 44.3232L37.3249 43.992C36.8219 43.489 36.2247 43.09 35.5675 42.8177C34.9103 42.5455 34.2059 42.4054 33.4945 42.4054C32.7831 42.4054 32.0787 42.5455 31.4215 42.8177C30.7643 43.09 30.1671 43.489 29.6641 43.992C29.1611 44.495 28.7621 45.0922 28.4898 45.7494C28.2176 46.4066 28.0775 47.111 28.0775 47.8224C28.0775 48.5338 28.2176 49.2382 28.4898 49.8954C28.7621 50.5526 29.1611 51.1498 29.6641 51.6528L45.9937 68.0112C46.0986 68.1161 46.1819 68.2407 46.2387 68.3779C46.2955 68.515 46.3247 68.662 46.3247 68.8104C46.3247 68.9588 46.2955 69.1058 46.2387 69.2429C46.1819 69.3801 46.0986 69.5046 45.9937 69.6096C45.8887 69.7146 45.7641 69.7978 45.627 69.8546C45.4899 69.9114 45.3429 69.9406 45.1945 69.9406C45.0461 69.9406 44.8991 69.9114 44.762 69.8546C44.6248 69.7978 44.5002 69.7146 44.3953 69.6096L28.0513 53.28C26.816 52.0359 26.0439 50.4065 25.8633 48.6626C25.6827 46.9188 26.1046 45.1656 27.0587 43.6949C28.0129 42.2241 29.4418 41.1243 31.1078 40.5784C32.7739 40.0325 34.5766 40.0734 36.2161 40.6944C36.2161 40.5216 36.2161 40.3488 36.2161 40.1616V18.72C36.1355 16.9696 35.3835 15.3176 34.1163 14.1074C32.8492 12.8972 31.1643 12.2219 29.4121 12.2219C27.6599 12.2219 25.975 12.8972 24.7078 14.1074C23.4407 15.3176 22.6886 16.9696 22.6081 18.72L21.1681 56.7648C21.1678 58.5678 21.8824 60.2974 23.1553 61.5744L39.7729 81.3312Z" fill="#F2F2F2"/>
<path d="M102.24 99.2592V86.1408C102.24 84.3378 102.954 82.6082 104.227 81.3312L120.83 61.5456C122.103 60.2686 122.818 58.539 122.818 56.736L121.421 18.72C121.34 16.9696 120.588 15.3176 119.321 14.1074C118.054 12.8972 116.369 12.2219 114.617 12.2219C112.865 12.2219 111.18 12.8972 109.913 14.1074C108.645 15.3176 107.893 16.9696 107.813 18.72V40.176C107.813 40.3488 107.813 40.536 107.813 40.7088C108.687 40.3758 109.614 40.205 110.549 40.2048C112.062 40.2087 113.54 40.6606 114.797 41.5035C116.053 42.3465 117.032 43.5427 117.61 44.9413C118.188 46.3399 118.338 47.8782 118.042 49.3622C117.747 50.8463 117.018 52.2095 115.949 53.28L99.6336 69.5808C99.5287 69.6858 99.4041 69.769 99.2669 69.8258C99.1298 69.8826 98.9828 69.9118 98.8344 69.9118C98.686 69.9118 98.539 69.8826 98.4019 69.8258C98.2648 69.769 98.1402 69.6858 98.0352 69.5808C97.9303 69.4758 97.847 69.3512 97.7902 69.2141C97.7334 69.077 97.7042 68.93 97.7042 68.7816C97.7042 68.6332 97.7334 68.4862 97.7902 68.3491C97.847 68.212 97.9303 68.0874 98.0352 67.9824L114.35 51.6672C115.366 50.6513 115.937 49.2735 115.937 47.8368C115.937 46.4001 115.366 45.0223 114.35 44.0064C113.335 42.9905 111.957 42.4198 110.52 42.4198C109.083 42.4198 107.705 42.9905 106.69 44.0064L106.373 44.3376C106.204 44.5598 106.021 44.7714 105.826 44.9712L81.1728 65.7792C79.9122 67.0514 79.2035 68.769 79.2 70.56V99.2448H102.24V99.2592Z" fill="#F2F2F2"/>
</svg>
