<svg width="120" height="120" viewBox="0 0 120 120" fill="none" xmlns="http://www.w3.org/2000/svg">
<path d="M103.265 96.3281L77.5779 46.6172V24.8438H81.9607V16.0547H38.0154V24.8438H42.4216V46.6172L16.7341 96.3281C14.906 99.6328 16.992 103.945 20.4607 103.945H99.5388C103.008 103.945 105.094 99.6328 103.265 96.3281ZM38.906 73.1719L51.1873 49.0781V24.8438H68.7654V49.0781L81.0466 73.1953H38.906V73.1719Z" fill="#F2F2F2"/>
<path d="M64.3828 68.7656C66.8034 68.7656 68.7656 66.8034 68.7656 64.3828C68.7656 61.9623 66.8034 60 64.3828 60C61.9623 60 60 61.9623 60 64.3828C60 66.8034 61.9623 68.7656 64.3828 68.7656Z" fill="#F2F2F2"/>
<path d="M59.9994 43.1953C62.42 43.1953 64.3822 41.233 64.3822 38.8125C64.3822 36.3919 62.42 34.4296 59.9994 34.4296C57.5789 34.4296 55.6166 36.3919 55.6166 38.8125C55.6166 41.233 57.5789 43.1953 59.9994 43.1953Z" fill="#F2F2F2"/>
</svg>
