<svg width="291" height="294" viewBox="0 0 291 294" fill="none" xmlns="http://www.w3.org/2000/svg">
<path d="M178.9 165.8C176.1 165.8 173.3 164.7 171.1 162.6L170 161.5C165.7 157.2 165.7 150.3 170 146L172.9 143.1L170 140.2C165.7 135.9 165.7 129 170 124.7L171.1 123.6C173.2 121.5 175.9 120.4 178.9 120.4C181.8 120.4 184.6 121.5 186.6 123.6L189.5 126.5L192.4 123.6C194.5 121.5 197.2 120.4 200.2 120.4C203.1 120.4 205.9 121.5 207.9 123.6L209 124.7C211.1 126.8 212.2 129.5 212.2 132.4C212.2 135.3 211.1 138.1 209 140.2L206.1 143.1L209 146C211.1 148.1 212.2 150.8 212.2 153.8C212.2 156.8 211.1 159.5 209 161.6L207.9 162.7C203.6 167 196.7 167 192.4 162.7L189.5 159.8L186.6 162.7C184.5 164.7 181.7 165.8 178.9 165.8ZM178.9 126.9C177.7 126.9 176.6 127.4 175.8 128.2L174.7 129.3C173 131 173 133.8 174.7 135.6L182.2 143.1L174.7 150.6C173 152.3 173 155.1 174.7 156.9L175.8 158C177.5 159.7 180.3 159.7 182.1 158L189.6 150.5L197.1 158C198.8 159.7 201.6 159.7 203.3 158L204.4 156.9C205.2 156.1 205.7 155 205.7 153.8C205.7 152.6 205.2 151.5 204.4 150.7L196.9 143.2L204.4 135.7C205.2 134.9 205.7 133.7 205.7 132.6C205.7 131.4 205.2 130.3 204.4 129.5L203.3 128.4C202.5 127.6 201.4 127.1 200.2 127.1C199 127.1 197.9 127.6 197.1 128.4L189.6 135.9L182.1 128.4C181.2 127.3 180.1 126.9 178.9 126.9Z" fill="#FFFEFE"/>
<path d="M120.2 128.4C115.6 123.8 107.8 124.2 102.8 129.2L96 136L95.7 135.7C90.7 130.7 82.9 130.3 78.3 134.9C73.7 139.5 74.1 147.3 79.1 152.3L85 158.2C85 158.2 88.9 162 90.4 163C93 164.8 96.5 164.9 99.6 163.8C101.4 163.2 103.1 162.1 104.6 160.6L107.7 157.5L112.3 152.9L119.3 145.9C124.5 140.8 124.8 133 120.2 128.4ZM114 140.3L99.2 155.1C97.7 156.6 95.4 157 93.8 156C92.4 155.1 87.4 149.9 84.6 146.8C82.8 145 82.7 142.4 84.2 140.8C84.9 140.1 85.8 139.7 86.8 139.7C88 139.7 89.2 140.2 90.2 141.2L96 147L108.2 134.8C109.1 133.9 110.2 133.4 111.4 133.4C112.5 133.3 113.5 133.7 114.3 134.5C115 135.2 115.4 136.2 115.4 137.4C115.3 138.3 114.8 139.4 114 140.3Z" fill="#FFFEFE"/>
<path d="M189.5 185.1C166.4 185.1 147.6 166.3 147.6 143.2C147.6 120.1 166.4 101.3 189.5 101.3C212.6 101.3 231.4 120.1 231.4 143.2C231.4 166.3 212.6 185.1 189.5 185.1ZM189.5 107.9C170 107.9 154.2 123.7 154.2 143.2C154.2 162.7 170.1 178.5 189.5 178.5C209 178.5 224.8 162.7 224.8 143.2C224.9 123.8 209 107.9 189.5 107.9Z" fill="#FFFEFE"/>
<path d="M72.5 120.2C74.8196 120.2 76.7 118.32 76.7 116C76.7 113.68 74.8196 111.8 72.5 111.8C70.1804 111.8 68.3 113.68 68.3 116C68.3 118.32 70.1804 120.2 72.5 120.2Z" fill="#FFFEFE"/>
<path d="M187 226.8C187 218.3 180.1 211.4 171.6 211.4C170 211.4 168.9 211.5 168 211.9C165.2 207.9 160.6 205.3 155.4 205.3C153.1 205.3 151.6 205.8 150.5 206.6C147.7 203.4 143.5 201.4 139 201.4C137.7 201.4 136.6 201.6 135.6 201.9V178.8C135.6 178.7 135.6 178.5 135.6 178.4C135.3 176.3 134.3 173.3 132.2 170.9C137.6 164.2 140.7 155.9 141.1 147.1C141.7 135.9 137.9 125.2 130.4 116.9C122.9 108.6 112.6 103.7 101.5 103.1C95.4 102.8 89.5 103.8 83.9 106C82.2 106.7 81.4 108.6 82.1 110.2C82.8 111.9 84.7 112.7 86.3 112C91.1 110.1 96.1 109.3 101.2 109.6C110.6 110.1 119.3 114.2 125.6 121.2C131.9 128.2 135.1 137.3 134.6 146.7C134.2 154.4 131.4 161.5 126.6 167.3C125.8 167.1 124.9 167 124 166.9C116.7 166.8 113 173.4 111.8 177.9C107.3 179.6 102.5 180.3 97.6 180.1C88.2 179.6 79.5 175.5 73.2 168.5C66.9 161.5 63.7 152.4 64.2 143C64.5 138 65.7 133.2 68 128.8C68.8 127.2 68.2 125.2 66.6 124.4C65 123.6 63 124.2 62.2 125.8C59.5 131 58 136.7 57.7 142.6C57.1 153.8 60.9 164.5 68.4 172.8C75.9 181.1 86.2 186 97.3 186.6C98.1 186.6 98.8 186.7 99.5 186.7C103.6 186.7 107.6 186.1 111.5 184.9V226.5C107.8 229 99.6 235.7 99.4 246.8C99.3 256.5 104.2 263.5 108.1 269.2C109.6 271.4 111 273.4 112 275.3C115.4 282 116.6 290.9 116.6 291C116.8 292.6 118.2 293.8 119.8 293.8H174.7C176.1 293.8 177.3 292.9 177.8 291.6C178.7 289.1 186.7 267.1 187.1 259.5C187.4 252.4 187.1 227.8 187 226.8ZM180.5 259.3C180.3 264.3 175.1 279.6 172.4 287.3H122.6C121.9 283.8 120.4 277.7 117.8 272.4C116.6 270.1 115.1 267.9 113.4 265.5C109.6 260.1 105.7 254.5 105.8 246.9C105.9 241.7 108.7 237.7 111.3 235V246.8C111.3 248.6 112.8 250.1 114.6 250.1C116.4 250.1 117.9 248.6 117.9 246.8V180.1C118.2 178.9 119.7 173.4 123.6 173.4H123.7C125.6 173.5 126.8 174.4 127.6 175.5C128.5 176.8 128.9 178.3 129 178.9V220.6C129 222.4 130.5 223.9 132.3 223.9C134.1 223.9 135.6 222.4 135.6 220.6V209C136.8 208.1 137.7 207.8 139 207.8C143.9 207.8 147.8 211.8 147.8 216.7C147.8 218.5 149.3 220 151.1 220C152.9 220 154.4 218.5 154.4 216.7C154.4 215.2 154.2 213.7 153.8 212.3C154.4 211.8 154.6 211.8 155.5 211.8C160.4 211.8 164.4 215.8 164.4 220.7C164.4 222.5 165.9 224 167.7 224C169.5 224 171 222.5 171 220.7C171 219.8 170.9 218.8 170.8 217.9C171 217.9 171.3 217.9 171.8 217.9C176.7 217.9 180.7 221.9 180.7 226.8C180.5 227 180.8 252.3 180.5 259.3Z" fill="white"/>
<path d="M42.5 27.2C42.5 31.8 41.6 35.8 39.7 39C37.8 42.2 35.3 44.6 32.1 46.3C28.9 47.9 25.3 48.8 21.2 48.8C17.1 48.8 13.5 48 10.3 46.3C7.1 44.7 4.6 42.2 2.8 39C1 35.8 0 31.9 0 27.2C0 22.5 0.900003 18.6 2.8 15.4C4.7 12.2 7.2 9.80001 10.4 8.20001C13.6 6.60001 17.2 5.70001 21.2 5.70001C25.2 5.70001 28.8 6.50001 32 8.20001C35.2 9.90001 37.8 12.2 39.6 15.4C41.6 18.6 42.5 22.6 42.5 27.2ZM30.4 27.2C30.4 23.2 29.6 20.2 27.9 18.2C26.3 16.2 24 15.2 21.2 15.2C18.5 15.2 16.3 16.2 14.6 18.2C12.9 20.2 12.1 23.2 12.1 27.2C12.1 31.3 12.9 34.3 14.6 36.3C16.3 38.3 18.5 39.3 21.3 39.3C24.1 39.3 26.3 38.3 27.9 36.3C29.6 34.3 30.4 31.3 30.4 27.2ZM20.1 47.2L32.3 45.1C33.6 45.7 35 46.3 36.4 46.9C37.8 47.5 39.3 48 40.8 48.4C42.3 48.9 43.6 49.3 44.9 49.7C44.9 50 45 50.2 45 50.4C45 50.6 45 50.8 45 51C45 53.5 44.3 55.4 43 56.6C41.7 57.8 39.9 58.3 37.8 58.3C35.7 58.3 33.6 57.7 31.4 56.6C29.2 55.5 27 53.8 24.7 51.7L20.1 47.2Z" fill="white"/>
<path d="M59.9 33.2H48.5V15.2C49 15.1 49.7 14.9 50.6 14.8C51.5 14.7 52.5 14.6 53.6 14.6C55.8 14.6 57.4 15 58.4 15.7C59.4 16.4 59.9 17.9 59.9 20V33.2ZM48.5 34.7V30.3H59.9V34.7C59.9 36.5 60.4 37.8 61.3 38.6C62.2 39.4 63.5 39.8 65.2 39.8C66.2 39.8 67.1 39.7 67.8 39.5C68.5 39.3 69 39.1 69.3 39V30.3H80.7V40.7C80.7 41.8 80.5 42.8 80 43.6C79.5 44.4 78.8 45.1 77.9 45.7C76.3 46.7 74.5 47.4 72.3 47.9C70.1 48.4 67.8 48.7 65.2 48.7C62 48.7 59.1 48.2 56.6 47.3C54.1 46.4 52.1 44.8 50.7 42.8C49.2 40.7 48.5 38 48.5 34.7ZM80.5 33.2H69.1V15.2C69.6 15.1 70.3 14.9 71.2 14.8C72.1 14.7 73.1 14.6 74.2 14.6C76.4 14.6 78 15 79 15.7C80 16.4 80.5 17.9 80.5 20V33.2Z" fill="white"/>
<path d="M100.9 14.1C105.8 14.1 109.7 15.1 112.6 17.1C115.5 19.1 117 22.2 117 26.4V41.4C117 42.6 116.7 43.5 116 44.3C115.4 45 114.6 45.7 113.7 46.2C112.3 47.1 110.5 47.7 108.5 48.2C106.4 48.7 104.1 48.9 101.5 48.9C96.8 48.9 93 48 90.2 46.2C87.4 44.4 85.9 41.7 85.9 38C85.9 34.9 86.8 32.5 88.7 30.9C90.6 29.3 93.4 28.2 97.2 27.8L106 26.9V26.4C106 25.1 105.4 24.2 104.3 23.6C103.2 23 101.5 22.8 99.4 22.8C97.8 22.8 96.1 23 94.5 23.3C92.9 23.7 91.4 24.1 90.1 24.6C89.5 24.2 89 23.6 88.6 22.8C88.2 22 88 21.1 88 20.2C88 18.1 89.1 16.5 91.4 15.6C92.7 15.1 94.2 14.7 96 14.5C97.7 14.2 99.3 14.1 100.9 14.1ZM101.5 40.4C102.3 40.4 103.1 40.3 104 40.2C104.9 40 105.6 39.8 106 39.6V34.2L101.2 34.6C100 34.7 98.9 35 98.1 35.4C97.3 35.9 96.9 36.5 96.9 37.4C96.9 38.3 97.3 39 97.9 39.6C98.6 40.1 99.8 40.4 101.5 40.4Z" fill="white"/>
<path d="M135.7 35.9H124.3V3.89999C124.8 3.79999 125.5 3.6 126.4 3.5C127.3 3.4 128.3 3.29999 129.4 3.29999C131.6 3.29999 133.2 3.69999 134.2 4.39999C135.2 5.09999 135.7 6.60001 135.7 8.70001V35.9ZM124.3 30H135.7V47.6C135.2 47.7 134.5 47.9 133.6 48C132.7 48.1 131.7 48.2 130.6 48.2C128.4 48.2 126.8 47.8 125.8 47.1C124.8 46.3 124.3 44.9 124.3 42.9V30Z" fill="white"/>
<path d="M142.8 6C142.8 4.3 143.4 2.90001 144.5 1.70001C145.6 0.500012 147.2 0 149 0C150.8 0 152.3 0.600012 153.5 1.70001C154.7 2.80001 155.2 4.3 155.2 6C155.2 7.6 154.6 9.09999 153.5 10.3C152.3 11.5 150.8 12.1 149 12.1C147.2 12.1 145.7 11.5 144.5 10.3C143.3 9.09999 142.8 7.7 142.8 6ZM154.7 35.9H143.3V15.5C143.8 15.4 144.5 15.2 145.4 15.1C146.3 15 147.3 14.9 148.4 14.9C150.6 14.9 152.2 15.3 153.2 16C154.2 16.7 154.7 18.2 154.7 20.3V35.9ZM143.3 30H154.7V47.6C154.2 47.7 153.5 47.9 152.6 48C151.7 48.1 150.7 48.2 149.6 48.2C147.4 48.2 145.8 47.8 144.8 47.1C143.8 46.3 143.3 44.9 143.3 42.9V30Z" fill="white"/>
<path d="M202 27.3C202 31.9 201.1 35.9 199.4 39C197.7 42.1 195.2 44.6 192.2 46.2C189.1 47.8 185.7 48.6 181.8 48.6C178 48.6 174.5 47.8 171.4 46.1C168.3 44.4 165.9 42.1 164.2 38.9C162.4 35.8 161.6 31.9 161.6 27.2C161.6 22.6 162.5 18.6 164.3 15.5C166.1 12.3 168.5 9.89999 171.6 8.29999C174.7 6.69999 178.1 5.79999 181.8 5.79999C185.6 5.79999 189.1 6.59999 192.2 8.29999C195.3 9.99999 197.7 12.3 199.5 15.5C201.1 18.7 202 22.6 202 27.3ZM193.4 27.3C193.4 22.6 192.3 19 190.2 16.6C188.1 14.1 185.2 12.9 181.7 12.9C178.3 12.9 175.5 14.1 173.3 16.6C171.1 19.1 170.1 22.6 170.1 27.4C170.1 32.1 171.1 35.7 173.2 38.1C175.3 40.6 178.1 41.8 181.7 41.8C185.3 41.8 188.1 40.6 190.2 38.1C192.3 35.6 193.4 32 193.4 27.3ZM180.7 47.5L189.2 45.6C191.3 46.8 193.2 47.7 194.9 48.5C196.6 49.3 198.1 49.9 199.6 50.5C201.1 51.1 202.6 51.5 204 52C204.1 52.3 204.1 52.6 204.1 52.8C204.1 53 204.1 53.2 204.1 53.4C204.1 55 203.6 56.3 202.7 57.1C201.8 57.9 200.6 58.3 199.1 58.3C197.4 58.3 195.4 57.7 193.2 56.5C190.9 55.3 188.5 53.7 185.9 51.6L180.7 47.5Z" fill="white"/>
<path d="M217.7 33.4H209.5V16C209.9 15.9 210.4 15.8 211 15.7C211.6 15.6 212.4 15.5 213.2 15.5C214.8 15.5 215.9 15.8 216.6 16.3C217.3 16.8 217.7 17.8 217.7 19.3V33.4ZM209.5 35.5V30.2H217.7V35.4C217.7 37.8 218.3 39.5 219.5 40.5C220.7 41.5 222.4 42 224.6 42C226 42 227.2 41.9 228.2 41.6C229.2 41.3 229.9 41 230.4 40.7V30.2H238.6V41.4C238.6 42.4 238.4 43.3 238.1 44C237.8 44.7 237.1 45.3 236.2 45.9C234.9 46.7 233.3 47.3 231.3 47.8C229.3 48.3 227 48.6 224.5 48.6C221.4 48.6 218.7 48.1 216.5 47.3C214.2 46.4 212.5 45 211.2 43C210.1 41 209.5 38.6 209.5 35.5ZM238.8 33.4H230.6V16C231 15.9 231.5 15.8 232.2 15.7C232.9 15.6 233.6 15.5 234.4 15.5C236 15.5 237.1 15.8 237.8 16.3C238.5 16.8 238.9 17.8 238.9 19.3V33.4H238.8Z" fill="white"/>
<path d="M246.9 6.5C246.9 5.2 247.4 4.10001 248.3 3.20001C249.2 2.30001 250.4 1.89999 251.8 1.89999C253.2 1.89999 254.4 2.40001 255.3 3.20001C256.2 4.10001 256.6 5.2 256.6 6.5C256.6 7.7 256.2 8.80001 255.3 9.70001C254.4 10.6 253.3 11.1 251.8 11.1C250.4 11.1 249.3 10.6 248.3 9.70001C247.4 8.80001 246.9 7.7 246.9 6.5ZM255.9 34.2H247.6V16.2C248 16.1 248.5 15.9 249.2 15.8C249.9 15.7 250.6 15.6 251.4 15.6C253 15.6 254.1 15.9 254.8 16.4C255.5 16.9 255.9 18 255.9 19.4V34.2ZM247.6 30H255.9V47.6C255.5 47.7 255 47.9 254.4 48C253.8 48.1 253 48.2 252.2 48.2C250.7 48.2 249.5 47.9 248.8 47.4C248.1 46.9 247.7 45.9 247.7 44.4L247.6 30Z" fill="white"/>
<path d="M268.2 47.7H264.9C264.4 47.2 264 46.7 263.7 46.1C263.4 45.5 263.2 44.8 263.2 44C263.2 43.3 263.4 42.6 263.7 42C264 41.4 264.4 40.7 264.9 40.1L284.8 16H287.8C288.3 16.5 288.8 17 289.1 17.6C289.4 18.2 289.6 18.9 289.6 19.7C289.6 20.4 289.4 21 289.1 21.7C288.8 22.4 288.4 23 287.8 23.6L268.2 47.7ZM286.2 15.9V22.4H264.4C264.2 22 264 21.6 263.8 21C263.6 20.4 263.5 19.8 263.5 19.2C263.5 18 263.8 17.2 264.3 16.7C264.8 16.2 265.5 15.9 266.4 15.9H286.2ZM266.8 47.7V41.2H289.3C289.5 41.5 289.7 42 289.8 42.5C290 43.1 290.1 43.7 290.1 44.4C290.1 45.5 289.8 46.4 289.3 46.9C288.8 47.4 288.1 47.7 287.2 47.7H266.8Z" fill="white"/>
</svg>
