<svg width="241" height="86" viewBox="0 0 241 86" fill="none" xmlns="http://www.w3.org/2000/svg">
<g clip-path="url(#clip0)">
<path d="M33.4985 84.6188L1.17499 65.9712C0.338341 65.4886 -0.0478037 64.845 0.000464341 64.2014H-0.015625L0.000464341 60.7422L4.23196 59.439L5.3743 61.4019L58.5978 30.6712C60.1746 29.7541 62.7489 29.7541 64.3256 30.6712L94.8149 48.273L97.8398 46.4066L97.8237 49.8014C97.8237 50.3967 97.4375 51.0081 96.633 51.4586L39.2102 84.6349C37.6334 85.5359 35.0752 85.5359 33.4985 84.6188Z" fill="#DBDBDC"/>
<path d="M96.6484 44.7817L64.341 26.1341C62.7643 25.217 60.19 25.217 58.6132 26.1341L1.19038 59.2782C-0.386376 60.1952 -0.386376 61.6755 1.19038 62.5926L33.5139 81.2401C35.0906 82.1572 37.6649 82.1411 39.2417 81.2401L96.6645 48.08C98.2413 47.179 98.2413 45.6987 96.6484 44.7817Z" fill="white"/>
<path d="M29.0892 70.2667L20.2722 65.1824C19.9826 65.0055 19.4999 65.0215 19.2103 65.1824L15.2524 67.4671C14.9628 67.6441 14.9628 67.9176 15.2524 68.0785L24.0693 73.1627C24.3589 73.3397 24.8416 73.3397 25.1312 73.1627L29.0892 70.8781C29.3949 70.7172 29.3788 70.4437 29.0892 70.2667Z" fill="#DBDBDC"/>
<path d="M27.0301 69.9447L20.8518 66.3729C20.6426 66.2442 20.3048 66.2442 20.0956 66.3729L17.3121 67.9818C17.103 68.0945 17.103 68.2875 17.3121 68.4163L23.4905 71.9881C23.6996 72.1007 24.0375 72.1007 24.2306 71.9881L27.014 70.3792C27.2393 70.2665 27.2393 70.0735 27.0301 69.9447Z" fill="#B1B1B3"/>
<path d="M35.5737 75.7213L30.6664 72.8895C30.3607 72.7125 29.9102 72.6965 29.6367 72.8574L28.5426 73.4848C28.2691 73.6457 28.3013 73.9032 28.5909 74.0801L33.4981 76.9119C33.7877 77.0728 34.2543 77.1049 34.5118 76.9441L35.6058 76.3166C35.8954 76.1557 35.8633 75.8822 35.5737 75.7213Z" fill="#DBDBDC"/>
<path d="M15.2524 64.024L10.3612 61.1923C10.0556 61.0153 9.60505 60.9992 9.33153 61.1601L8.25354 61.7876C7.98002 61.9485 8.0122 62.2059 8.30181 62.3829L13.2091 65.2146C13.4987 65.3916 13.9653 65.4077 14.2227 65.2468L15.3168 64.6193C15.5742 64.4745 15.5581 64.201 15.2524 64.024Z" fill="#DBDBDC"/>
<path d="M8.62402 55.9799L8.9619 56.1891L57.0047 28.4511L93.0287 49.2224L93.3827 49.0132L57.0047 28.0488L8.62402 55.9799Z" fill="#DBDBDC"/>
<path d="M8.96191 56.1892L44.9699 76.9766L93.0287 49.2225L57.0047 28.4512L8.96191 56.1892Z" fill="#56BDB6"/>
<path d="M66.4812 49.5442C64.5987 48.4501 64.5987 46.6803 66.4812 45.5862C68.3797 44.4921 71.4367 44.4921 73.3352 45.5862C75.2177 46.6803 75.2338 48.4501 73.3352 49.5442C71.4367 50.6382 68.3797 50.6382 66.4812 49.5442Z" fill="#DC0D19"/>
<path d="M67.9774 49.5113L69.9081 48.3851L71.8388 49.5113L73.2708 48.6747L71.3401 47.5645L73.2708 46.4543L71.8388 45.6338L69.9081 46.744L67.9774 45.6338L66.5615 46.4543L68.4922 47.5645L66.5615 48.6747L67.9774 49.5113Z" fill="white"/>
<path d="M57.0048 30.8965L57.5036 31.1861L56.9244 31.894L56.6669 32.1836H56.683C56.8439 32.1354 57.0209 32.0871 57.1657 32.0388L58.3885 31.701L58.8873 31.9906L56.8439 33.1651L56.4256 32.9237L57.1979 32.4893C57.3909 32.3767 57.7288 32.2319 57.9541 32.1193L57.938 32.1032L57.2944 32.2802L56.2325 32.5537L55.9751 32.4089L56.4578 31.7975L56.7796 31.4274L56.7635 31.4113C56.5865 31.5401 56.329 31.7331 56.136 31.8458L55.3959 32.2802L54.9775 32.0388L57.0048 30.8965Z" fill="white"/>
<path d="M59.37 32.2637L60.6411 33.0038L60.2549 33.229L59.4505 32.7464L59.0322 32.9877L59.724 33.3899L59.3539 33.6152L58.6621 33.2129L58.1794 33.4704L59.0322 33.9691L58.646 34.1944L57.3428 33.4382L59.37 32.2637Z" fill="white"/>
<path d="M61.0751 33.2451L61.6543 33.583C62.2818 33.937 62.3623 34.3553 61.6704 34.7575C60.9625 35.1597 60.2385 35.1276 59.6432 34.7736L59.0479 34.4196L61.0751 33.2451ZM59.9649 34.5162C60.3189 34.7253 60.7051 34.7575 61.2038 34.4679C61.6865 34.1944 61.6061 33.9691 61.2682 33.7761L61.1877 33.7278L59.9006 34.4679L59.9649 34.5162Z" fill="white"/>
<path d="M63.0546 34.3877L63.5212 34.6612L61.4778 35.8357L61.0273 35.5622L63.0546 34.3877Z" fill="white"/>
<path d="M62.8608 35.4654C63.5366 35.0793 64.3732 35.1115 64.8881 35.4011C65.1455 35.5459 65.2421 35.755 65.2421 35.9159L64.7111 35.9481C64.695 35.8355 64.6629 35.7389 64.518 35.6424C64.2445 35.4815 63.7779 35.4976 63.3596 35.7389C62.9413 35.9803 62.893 36.2377 63.1987 36.3986C63.3596 36.4951 63.5849 36.5273 63.794 36.5112L63.7458 36.8169C63.3757 36.833 63.0539 36.7687 62.7965 36.6078C62.2494 36.3182 62.1851 35.8677 62.8608 35.4654Z" fill="white"/>
<path d="M66.1918 36.1895L66.7388 36.5112L65.3391 38.0558L64.8564 37.7823L65.2103 37.4283L64.5829 37.0744L63.9715 37.2835L63.5049 37.01L66.1918 36.1895ZM65.0495 36.9135L65.4839 37.1709L65.6287 37.0422C65.7735 36.8974 65.9665 36.7204 66.1114 36.5756H66.0953C65.8217 36.6721 65.5321 36.7848 65.2747 36.8652L65.0495 36.9135Z" fill="white"/>
<path d="M67.5912 37.0107L68.0417 37.2682L66.4006 38.2174L67.2051 38.684L66.8189 38.9093L65.5479 38.1853L67.5912 37.0107Z" fill="white"/>
<path d="M69.8276 38.7482L69.2806 38.4264L69.6667 38.2012L71.2435 39.1183L70.8573 39.3435L70.2942 39.0217L68.6531 39.971L68.1865 39.6975L69.8276 38.7482Z" fill="white"/>
<path d="M71.5497 39.2949L72.8369 40.035L72.4507 40.2603L71.6302 39.7776L71.2279 40.0189L71.9198 40.4212L71.5336 40.6464L70.8418 40.2442L70.3752 40.5177L71.2118 41.0004L70.8257 41.2256L69.5225 40.4694L71.5497 39.2949Z" fill="white"/>
<path d="M71.3564 41.2254L71.9357 41.1932C71.9518 41.3541 72.0644 41.515 72.2253 41.6115C72.4183 41.7241 72.5792 41.7402 72.7079 41.6598C72.8367 41.5793 72.7562 41.4989 72.6597 41.3541L72.5149 41.1288C72.3862 40.968 72.3701 40.7427 72.6597 40.5657C72.9976 40.3726 73.5607 40.3887 73.9951 40.6301C74.2364 40.7588 74.3812 40.9679 74.3812 41.161L73.8503 41.1932C73.8181 41.0645 73.7538 40.9519 73.5929 40.8553C73.432 40.7588 73.2711 40.7427 73.1424 40.8071C73.0136 40.8714 73.1102 40.984 73.2067 41.1288L73.3676 41.338C73.5124 41.5311 73.5124 41.7241 73.2228 41.885C72.8849 42.0781 72.3057 42.0942 71.823 41.8046C71.5495 41.6759 71.3725 41.4667 71.3564 41.2254Z" fill="white"/>
<path d="M74.9443 41.6925L74.3812 41.3708L74.7673 41.1455L76.3441 42.0626L75.9579 42.2879L75.3948 41.9661L73.7537 42.9153L73.2871 42.6418L74.9443 41.6925Z" fill="white"/>
<path d="M74.6709 43.1404L75.2501 43.1082C75.2662 43.2691 75.3788 43.43 75.5397 43.5266C75.7328 43.6392 75.8937 43.6553 76.0224 43.5748C76.1511 43.4944 76.0707 43.4139 75.9741 43.2691L75.8293 43.0439C75.7006 42.8669 75.6845 42.6577 75.9741 42.4808C76.312 42.2877 76.8751 42.3038 77.3096 42.5451C77.5509 42.6738 77.6957 42.883 77.6957 43.0761L77.1647 43.1082C77.1326 42.9795 77.0682 42.8669 76.9073 42.7704C76.7464 42.6738 76.5855 42.6577 76.4568 42.7221C76.3281 42.7865 76.4246 42.8991 76.5212 43.0439L76.6821 43.253C76.8269 43.4461 76.8269 43.6392 76.5373 43.8001C76.1994 44.0253 75.6202 44.0414 75.1375 43.7518C74.864 43.607 74.687 43.3818 74.6709 43.1404Z" fill="white"/>
<path d="M77.8401 44.0892C78.4998 43.7031 79.256 43.7031 79.8191 44.0249C80.3661 44.3466 80.35 44.7811 79.6904 45.1672C79.0307 45.5534 78.2584 45.5694 77.7114 45.2477C77.1483 44.9098 77.1643 44.4593 77.8401 44.0892ZM79.2077 44.8776C79.6099 44.6363 79.6904 44.3949 79.4008 44.234C79.1272 44.0731 78.7089 44.1053 78.3067 44.3467C77.9045 44.588 77.8079 44.8293 78.0975 44.9902C78.371 45.1672 78.8055 45.1189 79.2077 44.8776Z" fill="white"/>
<path d="M81.0741 44.7812L81.5407 45.0548L81.058 45.9397L80.8006 46.3097H80.8167C81.0098 46.1649 81.2672 45.988 81.5085 45.8431L82.2326 45.4248L82.667 45.6823L80.6397 46.8568L80.1731 46.5833L80.6558 45.6983L80.8971 45.3283H80.8811C80.6719 45.4731 80.4466 45.6501 80.2053 45.7949L79.4813 46.2132L79.0469 45.9558L81.0741 44.7812Z" fill="white"/>
<path d="M83.1337 45.9883L83.6003 46.2457L81.9431 47.195L82.7476 47.6616L82.3614 47.8868L81.1064 47.1628L83.1337 45.9883Z" fill="white"/>
<path d="M84.7592 46.9053L85.2097 47.1788L83.1824 48.3533L82.7158 48.0959L84.7592 46.9053Z" fill="white"/>
<path d="M85.6923 47.4521L86.1589 47.7257L85.6762 48.6106L85.4349 48.9806H85.451C85.644 48.8519 85.9015 48.6588 86.1428 48.514L86.8668 48.0957L87.3012 48.3532L85.2579 49.5277L84.7913 49.2542L85.274 48.3692L85.5153 47.9992H85.4992C85.2901 48.144 85.0648 48.321 84.8235 48.4497L84.0995 48.868L83.665 48.6106L85.6923 47.4521Z" fill="white"/>
<path d="M87.767 48.6426L89.038 49.3827L88.6519 49.6079L87.8313 49.1413L87.4291 49.3666L88.121 49.7688L87.7348 49.9941L87.043 49.5918L86.5764 49.8654L87.413 50.348L87.0269 50.5733L85.7236 49.8171L87.767 48.6426Z" fill="white"/>
<path d="M40.5612 60.8389L54.6072 68.9479L52.0972 70.412L38.0352 62.2869L40.5612 60.8389Z" fill="white"/>
<path d="M38.0353 62.2867L31.5996 58.5701L34.1095 57.1221L40.5614 60.8387L38.0353 62.2867Z" fill="#59555A"/>
<path d="M60.7375 60.8867L64.6472 63.1392L62.1372 64.6034L58.2275 62.3348L60.7375 60.8867Z" fill="white"/>
<path d="M58.2273 62.3347L41.6553 52.7615L44.1652 51.3135L60.7372 60.8866L58.2273 62.3347Z" fill="#DC0D19"/>
<path d="M66.7062 52.7139L74.7026 57.3315L72.1927 58.7956L64.1963 54.178L66.7062 52.7139Z" fill="white"/>
<path d="M64.1967 54.178L51.6953 46.9539L54.2052 45.5059L66.7067 52.7139L64.1967 54.178Z" fill="#DC0D19"/>
<path d="M68.1227 30.671L63.0868 27.7588L62.0088 28.3702L67.0608 31.2824L68.1227 30.671Z" fill="#00A29C"/>
<path d="M93.2702 45.1838L70.7933 32.2158L69.7314 32.8272L92.1922 45.7952L93.2702 45.1838Z" fill="#00A29C"/>
<path d="M22.0907 61.7553L12.8232 56.4297L48.5738 35.7871L57.8251 41.1449L22.0907 61.7553Z" fill="#179489"/>
<path d="M55.9102 40.0194V42.1754L57.7765 41.0974V38.9414L55.9102 40.0194Z" fill="#59555A"/>
<path d="M48.5255 33.583L46.6592 34.6771L55.9106 40.0187L57.7769 38.9408L48.5255 33.583Z" fill="#C8C6C7"/>
<path d="M46.6592 34.6777V36.8337L55.9105 42.1754V40.0194L46.6592 34.6777Z" fill="#B1B1B3"/>
<path d="M20.257 56.5272V58.6832L18.3906 57.6052V55.4492L20.257 56.5272Z" fill="#24374E"/>
<path d="M50.4889 36.8652L52.3391 37.9432L20.257 56.5264L18.3906 55.4484L50.4889 36.8652Z" fill="#C8C6C7"/>
<path d="M52.339 37.9434V40.0993L20.2568 58.6825V56.5265L52.339 37.9434Z" fill="#59555A"/>
<path d="M22.0908 59.6V61.756L23.9572 60.6941V58.5381L22.0908 59.6Z" fill="#59555A"/>
<path d="M14.7057 53.1797L12.8232 54.2738L22.0907 59.5993L23.9571 58.5374L14.7057 53.1797Z" fill="#C8C6C7"/>
<path d="M12.8232 54.2744V56.4304L22.0907 61.756V59.6L12.8232 54.2744Z" fill="#B1B1B3"/>
<path d="M14.963 30.1239V32.2799L13.0967 31.2019V29.0459L14.963 30.1239Z" fill="#B1B1B3"/>
<path d="M48.8472 8.41992L50.7136 9.48182L14.963 30.1244L13.0967 29.0465L48.8472 8.41992Z" fill="#C8C6C7"/>
<path d="M50.7134 9.48145V11.6535L14.9629 32.28V30.1241L50.7134 9.48145Z" fill="#59555A"/>
<path d="M34.9463 23.5117V36.6567C34.9463 37.7508 35.8312 38.6357 36.9253 38.6357H36.9735C38.0676 38.6357 38.9686 37.7508 38.9686 36.6567V23.5117H34.9463Z" fill="#9F2416"/>
<path d="M35.5249 24.3484C36.3133 24.815 37.6004 24.815 38.3888 24.3484C39.1772 23.8818 39.1772 23.1417 38.3888 22.6751C37.6004 22.2085 36.3133 22.2085 35.5249 22.6751C34.7365 23.1417 34.7365 23.8818 35.5249 24.3484Z" fill="#E73644"/>
<path d="M34.3513 10.0283V36.8332C34.3513 38.2651 35.5097 39.4235 36.9416 39.4235H37.006C38.4379 39.4235 39.5964 38.2651 39.5964 36.8332V10.0283H41.4788V36.8332C41.4788 39.2948 39.4677 41.2899 37.0221 41.2899H36.9577C34.4961 41.2899 32.501 39.2948 32.501 36.8332V10.0283H34.3513Z" fill="#007D71"/>
<path d="M34.8496 16.4801V10.0283H36.0402V15.7883L34.8496 16.4801ZM35.5575 38.3134C35.2358 38.3134 34.8496 37.6537 34.8496 36.8493V20.7921L36.0402 20.1163V22.4654C35.8471 22.5137 35.6863 22.5941 35.5254 22.6906C35.0588 22.9642 34.8657 23.3181 34.9461 23.6721V36.6562C34.9461 37.2998 35.2518 37.879 35.7345 38.2329C35.6863 38.2973 35.6219 38.3134 35.5575 38.3134Z" fill="#60BEED"/>
<path d="M34.8496 18.6364V16.4804L36.0402 15.8047V17.9607L34.8496 18.6364Z" fill="#D2D2D5"/>
<path d="M34.8496 20.7927V18.6367L36.0402 17.9609V20.1169L34.8496 20.7927Z" fill="#7C787C"/>
<path d="M35.7503 38.2327C35.2676 37.8788 34.9619 37.2995 34.9619 36.656V23.6719C35.0102 23.9132 35.2033 24.1546 35.5411 24.3476C35.702 24.4442 35.879 24.5085 36.056 24.5729V36.849C36.0399 37.6374 35.9112 38.0718 35.7503 38.2327Z" fill="#B54D46"/>
<path d="M36.0405 24.5735C35.8475 24.5253 35.6866 24.4448 35.5257 24.3483C35.2039 24.1552 35.0108 23.9139 34.9465 23.6725C34.866 23.3186 35.0591 22.9646 35.5257 22.6911C35.6866 22.5945 35.8636 22.5302 36.0405 22.4658V24.5735Z" fill="#EB5C6A"/>
<path d="M37.8906 14.7264V10.0283H39.0651V14.0507L37.8906 14.7264ZM38.7112 37.6215C38.8721 37.3319 38.9686 37.0101 38.9686 36.6562V23.7043C39.0812 23.3503 38.8882 22.9642 38.4055 22.6745C38.2607 22.578 38.0837 22.5137 37.9067 22.4654V19.0384L39.0812 18.3626V36.8332C39.0812 37.0584 39.0651 37.2515 39.0491 37.4285L38.7112 37.6215Z" fill="#0079B2"/>
<path d="M38.5821 38.3136C38.4855 38.3136 38.3729 38.2493 38.2764 38.1366C38.4534 37.9918 38.5982 37.8149 38.7108 37.6057L39.0326 37.4287C38.9682 38.0723 38.7751 38.3136 38.5821 38.3136Z" fill="#BDB9B9"/>
<path d="M37.8906 16.8825V14.7265L39.0652 14.0508V16.2068L37.8906 16.8825Z" fill="#8B8989"/>
<path d="M37.8906 19.0388V16.8828L39.0652 16.207V18.3791L37.8906 19.0388Z" fill="#413D3F"/>
<path d="M38.2768 38.1367C38.0676 37.8954 37.8906 37.3966 37.8906 36.8335V24.5573C38.0676 24.509 38.2446 24.4286 38.3894 24.3321C38.6951 24.1551 38.8882 23.9298 38.9525 23.6885V36.6404C38.9525 36.9944 38.856 37.3161 38.6951 37.6058C38.5986 37.8149 38.4538 37.9919 38.2768 38.1367Z" fill="#721F13"/>
<path d="M37.8906 24.5574V22.4658C38.0676 22.5141 38.2446 22.5945 38.3894 22.675C38.8721 22.9646 39.0651 23.3346 38.9525 23.7047C38.8882 23.946 38.6951 24.1552 38.3894 24.3483C38.2446 24.4448 38.0676 24.5092 37.8906 24.5574Z" fill="#B3252A"/>
<path d="M33.2086 11.5726C35.2842 12.7793 38.6468 12.7793 40.7063 11.5726C42.7818 10.3819 42.7818 8.45122 40.7063 7.24452C38.6468 6.05391 35.2842 6.05391 33.2086 7.24452C31.1492 8.43513 31.1492 10.3819 33.2086 11.5726ZM35.1233 7.32497C36.1369 6.74575 37.7941 6.74575 38.8238 7.32497C39.8374 7.92027 39.8374 8.88563 38.8238 9.46485C37.7941 10.0602 36.1369 10.0602 35.1233 9.46485C34.0936 8.88563 34.0936 7.92027 35.1233 7.32497Z" fill="#56BDB6"/>
<path d="M39.0969 9.27185L38.8234 9.09486C37.7937 8.49956 36.1365 8.49956 35.1228 9.09486L34.8493 9.27185C34.1092 8.69263 34.1896 7.85599 35.1228 7.32504C36.1365 6.74582 37.7937 6.74582 38.8234 7.32504C39.7405 7.85599 39.837 8.69263 39.0969 9.27185Z" fill="#007D71"/>
<path d="M24.0859 29.7539V42.8989C24.0859 43.993 24.9869 44.8779 26.0649 44.8779H26.1132C27.2073 44.8779 28.0922 43.993 28.0922 42.8989V29.7539H24.0859Z" fill="#393535"/>
<path d="M24.6489 30.6069C25.4373 31.0413 26.7405 31.0413 27.5289 30.6069C28.3173 30.1403 28.3173 29.4002 27.5289 28.9336C26.7405 28.4831 25.4373 28.4831 24.6489 28.9336C23.8605 29.4163 23.8605 30.1403 24.6489 30.6069Z" fill="#59555A"/>
<path d="M23.4909 16.3037V43.1086C23.4909 44.5405 24.6493 45.6989 26.0812 45.6989H26.1295C27.5615 45.6989 28.7199 44.5405 28.7199 43.1086V16.3037H30.5863V43.1086C30.5863 45.5863 28.5912 47.5814 26.1134 47.5814H26.0651C23.6035 47.5814 21.6084 45.5863 21.6084 43.1086V16.3037H23.4909Z" fill="#007D71"/>
<path d="M24.0049 22.7555V16.3037H25.1794V22.0798L24.0049 22.7555ZM24.6967 44.5727C24.3749 44.5727 24.0049 43.8969 24.0049 43.1086V27.0675L25.1794 26.3917V28.7247C24.9863 28.773 24.8254 28.8534 24.6645 28.9338C24.198 29.2074 24.0049 29.5774 24.0853 29.9314V42.8994C24.0853 43.543 24.391 44.1222 24.8737 44.4762C24.8093 44.5405 24.7611 44.5727 24.6967 44.5727Z" fill="#60BEED"/>
<path d="M24.0049 24.9108V22.7549L25.1794 22.0791V24.2351L24.0049 24.9108Z" fill="#D2D2D5"/>
<path d="M24.0049 27.0671V24.9111L25.1794 24.2354V26.3913L24.0049 27.0671Z" fill="#7C787C"/>
<path d="M24.8743 44.492C24.3916 44.1381 24.0859 43.5588 24.0859 42.9153V29.9473C24.1503 30.1886 24.3273 30.4299 24.6652 30.623C24.826 30.7035 25.003 30.7839 25.18 30.8322V43.1083C25.18 43.8967 25.0513 44.3311 24.8743 44.492Z" fill="#5F5B5D"/>
<path d="M25.1802 30.8162C24.9871 30.768 24.8262 30.6875 24.6653 30.6071C24.3435 30.414 24.1505 30.1726 24.0861 29.9313C24.0057 29.5773 24.1987 29.2073 24.6653 28.9338C24.8262 28.8533 25.0032 28.7729 25.1802 28.7246V30.8162Z" fill="#7C787C"/>
<path d="M27.0137 21.0018V16.3037H28.1882V20.3421L27.0137 21.0018ZM27.8181 43.913C27.9951 43.6234 28.0917 43.2855 28.0917 42.9155V30.0279C28.2365 29.6579 28.0434 29.2395 27.5446 28.9499C27.3837 28.8534 27.2067 28.789 27.0298 28.7408V25.3459L28.2043 24.6702V43.1246C28.2043 43.366 28.1882 43.5591 28.1721 43.736L27.8181 43.913Z" fill="#0079B2"/>
<path d="M27.7056 44.5729C27.6091 44.5729 27.4965 44.5086 27.416 44.3959C27.5769 44.2511 27.7217 44.0902 27.8182 43.8972L28.1561 43.7041C28.0918 44.3316 27.9148 44.5729 27.7056 44.5729Z" fill="#BDB9B9"/>
<path d="M27.0137 23.1569V21.0009L28.1882 20.3252V22.4812L27.0137 23.1569Z" fill="#8B8989"/>
<path d="M27.0137 25.3293V23.1572L28.1882 22.4814V24.6374L27.0137 25.3293Z" fill="#413D3F"/>
<path d="M27.4159 44.3956C27.1907 44.1543 27.0137 43.6555 27.0137 43.0924V30.8162C27.2067 30.7679 27.3837 30.6875 27.5285 30.607C27.8181 30.4461 27.9951 30.237 28.0756 30.0117V42.8993C28.0756 43.2693 27.979 43.6072 27.802 43.8968C27.7216 44.0899 27.5768 44.2669 27.4159 44.3956Z" fill="#2A2726"/>
<path d="M27.0137 30.8162V28.7246C27.2067 28.7729 27.3837 28.8533 27.5285 28.9338C28.0273 29.2395 28.2204 29.6417 28.0756 30.0118C27.9951 30.2209 27.8181 30.4301 27.5285 30.6071C27.3837 30.7036 27.2067 30.768 27.0137 30.8162Z" fill="#413D3F"/>
<path d="M22.3477 17.8484C24.4071 19.039 27.7698 19.039 29.8292 17.8484C31.9047 16.6578 31.9047 14.711 29.8292 13.5043C27.7537 12.3137 24.4071 12.3137 22.3477 13.5043C20.2721 14.6949 20.2721 16.6417 22.3477 17.8484ZM24.2462 13.6008C25.2759 13.0055 26.9331 13.0055 27.9628 13.6008C28.9926 14.18 28.9926 15.1454 27.9628 15.7407C26.9331 16.3199 25.2759 16.3199 24.2462 15.7407C23.2326 15.1454 23.2326 14.18 24.2462 13.6008Z" fill="#56BDB6"/>
<path d="M28.2202 15.5476L27.9467 15.3706C26.9169 14.7753 25.2597 14.7753 24.23 15.3706L23.9726 15.5476C23.2164 14.9684 23.3129 14.1317 24.23 13.6008C25.2597 13.0055 26.9169 13.0055 27.9467 13.6008C28.8798 14.1156 28.9603 14.9523 28.2202 15.5476Z" fill="#007D71"/>
<path d="M18.3898 34.259L20.2562 33.1971L18.3898 32.1191L16.5234 33.1971L18.3898 34.259Z" fill="#24374E"/>
<path d="M16.5234 56.4142L18.3898 57.4761V34.2592L16.5234 33.1973V56.4142Z" fill="#B1B1B3"/>
<path d="M18.3906 57.4761L20.257 56.3981V33.1973L18.3906 34.2592V57.4761Z" fill="#59555A"/>
<path d="M21.1738 33.7122V35.8682L23.0402 34.7902V32.6182L21.1738 33.7122Z" fill="#B1B1B3"/>
<path d="M16.8293 29.0459L14.9629 30.1239L21.1734 33.7118L23.0397 32.6177L16.8293 29.0459Z" fill="#C8C6C7"/>
<path d="M14.9629 30.124V32.28L21.1734 35.8679V33.7119L14.9629 30.124Z" fill="#B1B1B3"/>
<path d="M52.3386 14.7263L54.221 13.6644L52.3386 12.5703L50.4883 13.6644L52.3386 14.7263Z" fill="#24374E"/>
<path d="M50.4883 36.8659L52.3386 37.9439V14.7269L50.4883 13.665V36.8659Z" fill="#B1B1B3"/>
<path d="M52.3389 37.9439L54.2213 36.8659V13.665L52.3389 14.7269V37.9439Z" fill="#59555A"/>
<path d="M55.0576 14.1473V16.3194L56.924 15.2253V13.0693L55.0576 14.1473Z" fill="#24374E"/>
<path d="M50.713 9.48145L48.8467 10.5594L55.0572 14.1474L56.9235 13.0694L50.713 9.48145Z" fill="#C8C6C7"/>
<path d="M48.8467 10.5596V12.7316L55.0572 16.3196V14.1475L48.8467 10.5596Z" fill="#B1B1B3"/>
<path d="M45.4844 17.4775V30.6064C45.4844 31.7005 46.3854 32.5854 47.4795 32.5854H47.5116C48.6057 32.5854 49.4906 31.7005 49.4906 30.6064V17.4775H45.4844Z" fill="#9F2416"/>
<path d="M46.0639 18.3148C46.8523 18.7814 48.1556 18.7814 48.9439 18.3148C49.7323 17.8643 49.7323 17.1242 48.9439 16.6576C48.1556 16.191 46.8523 16.191 46.0639 16.6576C45.2756 17.1081 45.2756 17.8643 46.0639 18.3148Z" fill="#E73644"/>
<path d="M44.8898 3.99512V30.8C44.8898 32.2158 46.0643 33.3903 47.4963 33.3903H47.5445C48.9604 33.3903 50.1188 32.2158 50.1188 30.8V3.99512H52.0013V30.8C52.0013 33.2616 49.9901 35.2567 47.5285 35.2567H47.4802C45.0185 35.2567 43.0234 33.2616 43.0234 30.8V3.99512H44.8898Z" fill="#007D71"/>
<path d="M45.4043 10.3987V3.99512H46.5788V9.70683L45.4043 10.3987ZM46.1122 32.2641C45.7904 32.2641 45.4204 31.6044 45.4204 30.8V14.7106L46.5949 14.0349V16.4483C46.4018 16.4965 46.2409 16.577 46.08 16.6735C45.6295 16.9309 45.4204 17.301 45.5008 17.655V30.6552C45.5008 31.2987 45.8065 31.8779 46.2892 32.2319C46.2249 32.248 46.1605 32.2641 46.1122 32.2641Z" fill="#60BEED"/>
<path d="M45.4043 12.5388V10.3989L46.5788 9.70703V11.863L45.4043 12.5388Z" fill="#D2D2D5"/>
<path d="M45.4043 14.7111V12.539L46.5788 11.8633V14.0193L45.4043 14.7111Z" fill="#7C787C"/>
<path d="M46.2728 32.199C45.7901 31.829 45.4844 31.2658 45.4844 30.6223V17.6221C45.5326 17.8795 45.7257 18.1208 46.0636 18.2978C46.2245 18.3944 46.3854 18.4587 46.5785 18.5231V30.8153C46.5785 31.6198 46.4497 32.0381 46.2728 32.199Z" fill="#B54D46"/>
<path d="M46.5787 18.5237C46.3857 18.4755 46.2248 18.395 46.0639 18.2985C45.726 18.1054 45.5329 17.8641 45.4847 17.6227C45.4042 17.2848 45.6134 16.9148 46.0639 16.6413C46.2248 16.5447 46.3857 16.4804 46.5787 16.416V18.5237Z" fill="#EB5C6A"/>
<path d="M49.6037 8.8541L48.8475 8.41969L48.4453 8.64494V3.99512H49.6037V8.8541ZM49.298 31.5079C49.4268 31.2344 49.5072 30.9448 49.5072 30.623V17.7354C49.652 17.3654 49.4589 16.947 48.9602 16.6574C48.7993 16.5609 48.6384 16.4965 48.4453 16.4322V12.9569L48.8475 12.7155L49.6037 13.15V30.8C49.6037 30.993 49.5877 31.1861 49.5877 31.3309L49.298 31.5079Z" fill="#0079B2"/>
<path d="M49.1363 32.2638C49.0398 32.2638 48.9432 32.1994 48.8467 32.1029C49.0398 31.942 49.1846 31.7328 49.2972 31.5076L49.5868 31.3467C49.5224 32.0063 49.3294 32.2638 49.1363 32.2638Z" fill="#BDB9B9"/>
<path d="M48.4453 10.8011V8.64517L48.8475 8.41992L49.6037 8.85433V10.1254L48.4453 10.8011Z" fill="#8B8989"/>
<path d="M48.4453 12.9567V10.8008L49.6037 10.125L48.8475 10.5594L49.6037 11.0099L48.8475 10.5594V12.7154L48.4453 12.9567Z" fill="#413D3F"/>
<path d="M49.6029 11.0099L48.8467 10.5594L49.6029 10.125V11.0099Z" fill="#8B8989"/>
<path d="M49.6029 13.166L48.8467 12.7316V10.5596L49.6029 11.0101V13.166Z" fill="#7C797A"/>
<path d="M48.8309 32.1031C48.6218 31.8618 48.4287 31.363 48.4287 30.816V18.5237C48.6057 18.4755 48.7827 18.395 48.9436 18.3146C49.2332 18.1537 49.4102 17.9445 49.4906 17.7354V30.6229C49.4906 30.9447 49.4102 31.2504 49.2814 31.5078C49.1849 31.7331 49.024 31.9422 48.8309 32.1031Z" fill="#721F13"/>
<path d="M48.4453 18.5233V16.4316C48.6223 16.4799 48.7993 16.5604 48.9602 16.6569C49.4589 16.9465 49.652 17.3648 49.5072 17.7349C49.4268 17.944 49.2498 18.1532 48.9602 18.3141C48.7993 18.3945 48.6223 18.475 48.4453 18.5233Z" fill="#B3252A"/>
<path d="M43.7467 5.53935C45.8223 6.72996 49.1688 6.72996 51.2444 5.53935C53.3199 4.34874 53.3199 2.40193 51.2444 1.21132C49.1688 0.0207065 45.8223 0.0207065 43.7467 1.21132C41.6873 2.40193 41.6873 4.33265 43.7467 5.53935ZM45.6614 1.29176C46.675 0.712548 48.3483 0.712548 49.378 1.29176C50.3916 1.88707 50.3916 2.83634 49.378 3.43165C48.3483 4.02695 46.675 4.02695 45.6614 3.43165C44.6477 2.83634 44.6477 1.88707 45.6614 1.29176Z" fill="#56BDB6"/>
<path d="M49.6355 3.25525L49.3781 3.07826C48.3484 2.48296 46.6751 2.48296 45.6615 3.07826L45.3879 3.25525C44.6478 2.65994 44.7444 1.82329 45.6615 1.30844C46.6751 0.729219 48.3484 0.729219 49.3781 1.30844C50.2791 1.82329 50.3917 2.65994 49.6355 3.25525Z" fill="#007D71"/>
<path d="M23.0402 34.7899V36.9459L21.1738 35.8679V33.7119L23.0402 34.7899Z" fill="#B1B1B3"/>
<path d="M56.9244 13.0693L58.7907 14.1634L23.0402 34.7899L21.1738 33.712L56.9244 13.0693Z" fill="#C8C6C7"/>
<path d="M58.7906 14.1631V16.3191L23.04 36.9456V34.7896L58.7906 14.1631Z" fill="#59555A"/>
<path d="M110.26 32.087C109.214 32.087 108.361 31.9583 107.686 31.717C107.01 31.4756 106.479 31.1217 106.109 30.639C105.723 30.1563 105.465 29.5771 105.304 28.8692C105.16 28.1612 105.079 27.3407 105.079 26.4236V25.1525C105.079 24.2515 105.16 23.431 105.32 22.723C105.481 21.999 105.771 21.4037 106.173 20.9049C106.575 20.4062 107.122 20.0361 107.798 19.7626C108.474 19.4891 109.327 19.3604 110.356 19.3604C110.871 19.3604 111.354 19.4086 111.804 19.4891C112.255 19.5695 112.625 19.666 112.931 19.7626L112.625 21.1302C112.351 21.0658 112.03 21.0015 111.66 20.9371C111.29 20.8727 110.903 20.8406 110.517 20.8406C109.842 20.8406 109.262 20.9049 108.796 21.0336C108.329 21.1624 107.959 21.3876 107.669 21.7255C107.38 22.0634 107.171 22.4978 107.042 23.077C106.913 23.6401 106.849 24.3641 106.849 25.233V26.3753C106.849 27.228 106.913 27.936 107.026 28.483C107.155 29.03 107.348 29.4645 107.637 29.7862C107.927 30.108 108.297 30.3333 108.78 30.462C109.262 30.5907 109.842 30.6551 110.549 30.6551C110.887 30.6551 111.273 30.639 111.708 30.5907C112.142 30.5424 112.528 30.4942 112.866 30.4298L112.593 31.8135C112.239 31.91 111.853 31.9744 111.434 32.0388C111.016 32.0548 110.63 32.087 110.26 32.087Z" fill="#E30614"/>
<path d="M114.846 24.9598C114.846 24.091 114.926 23.3026 115.071 22.6108C115.216 21.9189 115.473 21.3236 115.843 20.8249C116.213 20.3261 116.712 19.9399 117.34 19.6825C117.967 19.409 118.755 19.2803 119.721 19.2803C120.686 19.2803 121.475 19.409 122.102 19.6825C122.729 19.956 123.228 20.3261 123.582 20.8249C123.936 21.3236 124.194 21.9189 124.322 22.6108C124.467 23.3187 124.531 24.091 124.531 24.9598V26.4883C124.531 27.3571 124.451 28.1455 124.306 28.8373C124.161 29.5292 123.904 30.1245 123.534 30.6233C123.164 31.122 122.665 31.5082 122.038 31.7656C121.41 32.0391 120.622 32.1678 119.656 32.1678C118.691 32.1678 117.903 32.0391 117.275 31.7656C116.648 31.4921 116.165 31.122 115.795 30.6233C115.441 30.1245 115.184 29.5292 115.055 28.8373C114.91 28.1294 114.846 27.3571 114.846 26.4883V24.9598ZM122.762 24.9598C122.762 24.1071 122.697 23.3991 122.585 22.8521C122.456 22.3051 122.279 21.8867 122.022 21.565C121.764 21.2593 121.442 21.034 121.072 20.9214C120.686 20.7927 120.236 20.7444 119.721 20.7444C119.206 20.7444 118.755 20.8088 118.369 20.9214C117.983 21.0501 117.661 21.2593 117.42 21.565C117.163 21.8707 116.97 22.3051 116.841 22.8521C116.712 23.3991 116.648 24.1071 116.648 24.9437V26.4722C116.648 27.3249 116.712 28.0329 116.825 28.5799C116.953 29.1269 117.13 29.5453 117.388 29.8671C117.645 30.1728 117.967 30.398 118.337 30.5267C118.723 30.6554 119.174 30.7037 119.689 30.7037C120.203 30.7037 120.654 30.6393 121.04 30.5267C121.426 30.398 121.748 30.1888 121.989 29.8671C122.247 29.5614 122.44 29.1269 122.569 28.5799C122.697 28.0329 122.762 27.341 122.762 26.4722V24.9598Z" fill="#E30614"/>
<path d="M129.262 19.5371V30.4296H134.99L134.765 31.9098H127.524V19.5371H129.262Z" fill="#E30614"/>
<path d="M144.756 19.5371L144.546 20.9691H138.722V24.8466H144.208L143.967 26.2625H138.722V30.494H144.756L144.546 31.9098H136.984V19.5371H144.756Z" fill="#E30614"/>
<path d="M156.324 19.5371L156.131 20.9852H152.318V31.9098H150.597V20.9852H146.606L146.816 19.5371H156.324Z" fill="#E30614"/>
<path d="M159.477 27.0026H163.306L161.392 21.2265L159.477 27.0026ZM163.773 28.4345H159.026L157.884 31.9098H156.146L160.458 19.5371H162.373L166.749 31.9098H164.931L163.773 28.4345Z" fill="#E30614"/>
<path d="M170.724 25.5223H173.331C174.103 25.5223 174.682 25.3615 175.085 25.0236C175.487 24.6857 175.68 24.1548 175.68 23.3986V23.1733C175.68 22.4332 175.503 21.8862 175.149 21.5161C174.795 21.1621 174.232 20.9852 173.46 20.9852H170.724V25.5223ZM177.418 23.3986C177.418 24.2513 177.225 24.9592 176.822 25.5384C176.436 26.1177 175.825 26.5199 175.004 26.7451L177.836 31.9098H175.905L173.267 26.9543H170.724V31.9098H169.003V19.5371H173.798C174.441 19.5371 174.988 19.6336 175.439 19.8106C175.889 19.9876 176.275 20.245 176.565 20.5507C176.855 20.8725 177.064 21.2426 177.209 21.677C177.353 22.1114 177.418 22.5619 177.418 23.0607V23.3986Z" fill="#E30614"/>
<path d="M113.14 42.4482L112.931 43.8641H107.107V47.7416H112.593L112.368 49.1736H107.107V53.389H113.14L112.931 54.8209H105.369V42.4482H113.14Z" fill="#E30614"/>
<path d="M114.942 54.8209L119.206 48.2726L115.457 42.4482H117.452L120.268 47.0337L123.067 42.4482H124.966L121.217 48.2243L125.497 54.8209H123.518L120.187 49.5276L116.857 54.8209H114.942Z" fill="#E30614"/>
<path d="M130.291 49.8976H134.121L132.206 44.1215L130.291 49.8976ZM134.587 51.3456H129.841L128.699 54.8209H126.961L131.273 42.4482H133.188L137.564 54.8209H135.746L134.587 51.3456Z" fill="#E30614"/>
<path d="M141.506 42.4482L145.206 50.0263L148.843 42.4482H150.548V54.8209H148.891V45.3926L145.866 51.7801H144.514L141.458 45.5052V54.8209H139.816V42.4482H141.506Z" fill="#E30614"/>
<path d="M161.601 42.4482L161.392 43.8641H155.568V47.7416H161.038L160.813 49.1736H155.568V53.389H161.601L161.392 54.8209H153.83V42.4482H161.601Z" fill="#E30614"/>
<path d="M167.506 54.9976C166.847 54.9976 166.187 54.9494 165.56 54.8367C164.916 54.7402 164.369 54.6115 163.935 54.4506L164.224 53.0669C164.691 53.1956 165.19 53.3083 165.753 53.4048C166.3 53.5013 166.879 53.5496 167.474 53.5496C168.536 53.5496 169.276 53.3726 169.727 53.0026C170.177 52.6486 170.402 52.0694 170.402 51.2971C170.402 51.0397 170.37 50.8144 170.322 50.5892C170.274 50.38 170.177 50.1869 170.032 50.0099C169.888 49.8491 169.695 49.7042 169.437 49.5916C169.18 49.479 168.858 49.3825 168.472 49.3342L167.12 49.1572C166.058 49.0124 165.27 48.6584 164.771 48.0953C164.272 47.5161 164.031 46.776 164.031 45.8589V45.7141C164.031 44.5396 164.417 43.6707 165.206 43.1076C165.994 42.5445 167.12 42.2549 168.6 42.2549C169.308 42.2549 169.92 42.3032 170.435 42.4158C170.95 42.5284 171.416 42.641 171.818 42.7697L171.513 44.1212C171.127 43.9925 170.676 43.896 170.177 43.8156C169.678 43.7351 169.148 43.6868 168.6 43.6868C167.587 43.6868 166.847 43.8477 166.38 44.1695C165.93 44.4913 165.688 45.0222 165.688 45.7463C165.688 46.3094 165.833 46.7438 166.139 47.0173C166.428 47.2908 166.927 47.4839 167.619 47.5805L169.083 47.7896C170.113 47.9344 170.885 48.2884 171.4 48.8193C171.915 49.3503 172.172 50.1387 172.172 51.1523V51.3293C172.172 52.5521 171.77 53.4531 170.982 54.0645C170.129 54.6919 168.987 54.9976 167.506 54.9976Z" fill="#E30614"/>
<path d="M107.107 65.3438V76.2362H112.851L112.625 77.7165H105.369V65.3438H107.107Z" fill="#E30614"/>
<path d="M117.726 72.8092H121.555L119.641 67.0331L117.726 72.8092ZM122.022 74.2412H117.276L116.133 77.7165H114.396L118.707 65.3438H120.622L124.998 77.7165H123.18L122.022 74.2412Z" fill="#E30614"/>
<path d="M128.956 70.5889H131.724C132.351 70.5889 132.834 70.4441 133.188 70.1384C133.542 69.8488 133.703 69.4144 133.703 68.8673V68.5294C133.703 67.8859 133.526 67.4193 133.156 67.1297C132.786 66.824 132.255 66.6792 131.563 66.6792H128.956V70.5889ZM128.956 76.365H131.772C132.496 76.365 133.043 76.2202 133.413 75.9145C133.783 75.6088 133.976 75.1261 133.976 74.4342V74.0481C133.976 72.6644 133.22 71.9565 131.708 71.9565H128.956V76.365ZM127.251 77.7165V65.3438H131.836C132.48 65.3438 133.011 65.4242 133.478 65.5851C133.928 65.746 134.298 65.9552 134.588 66.2287C134.877 66.5022 135.086 66.824 135.215 67.194C135.344 67.5641 135.408 67.9663 135.408 68.3685V68.7225C135.408 69.2856 135.28 69.7844 135.022 70.2188C134.765 70.6693 134.362 71.0072 133.799 71.2325C134.411 71.4094 134.893 71.7473 135.231 72.2783C135.569 72.7931 135.73 73.4206 135.73 74.1124V74.4825C135.73 75.0456 135.634 75.5444 135.44 75.9466C135.247 76.3489 134.974 76.6867 134.636 76.9442C134.282 77.2016 133.864 77.3947 133.381 77.5234C132.898 77.6521 132.351 77.7165 131.74 77.7165H127.251Z" fill="#E30614"/>
<path d="M138.079 70.7655C138.079 69.8967 138.143 69.1083 138.288 68.4164C138.433 67.7246 138.69 67.1293 139.06 66.6305C139.43 66.1317 139.929 65.7456 140.556 65.4882C141.184 65.2147 141.972 65.0859 142.938 65.0859C143.903 65.0859 144.691 65.2147 145.319 65.4882C145.946 65.7617 146.445 66.1317 146.799 66.6305C147.153 67.1293 147.41 67.7246 147.539 68.4164C147.684 69.1244 147.748 69.8967 147.748 70.7655V72.294C147.748 73.1628 147.684 73.9512 147.523 74.643C147.378 75.3349 147.121 75.9302 146.751 76.4289C146.381 76.9277 145.882 77.3138 145.254 77.5713C144.627 77.8448 143.839 77.9735 142.873 77.9735C141.908 77.9735 141.119 77.8448 140.492 77.5713C139.865 77.2978 139.382 76.9277 139.012 76.4289C138.658 75.9302 138.4 75.3349 138.272 74.643C138.127 73.9351 138.062 73.1628 138.062 72.294V70.7655H138.079ZM145.995 70.7655C145.995 69.9127 145.93 69.2048 145.818 68.6578C145.689 68.1107 145.512 67.6924 145.254 67.3706C144.997 67.0649 144.675 66.8397 144.305 66.711C143.919 66.5823 143.469 66.534 142.954 66.534C142.439 66.534 141.988 66.5983 141.602 66.711C141.216 66.8397 140.894 67.0488 140.653 67.3706C140.395 67.6763 140.202 68.1107 140.074 68.6578C139.945 69.2048 139.881 69.9127 139.881 70.7494V72.2779C139.881 73.1306 139.945 73.8385 140.058 74.3856C140.186 74.9326 140.363 75.3509 140.621 75.6727C140.878 75.9784 141.2 76.2037 141.57 76.3324C141.956 76.4611 142.407 76.5094 142.921 76.5094C143.436 76.5094 143.887 76.445 144.273 76.3324C144.659 76.2037 144.981 75.9945 145.222 75.6727C145.48 75.367 145.673 74.9326 145.801 74.3856C145.93 73.8385 145.995 73.1467 145.995 72.2779V70.7655Z" fill="#E30614"/>
<path d="M152.478 71.329H155.085C155.857 71.329 156.436 71.1681 156.839 70.8302C157.241 70.4923 157.434 69.9614 157.434 69.2052V68.9799C157.434 68.2398 157.257 67.6928 156.903 67.3227C156.549 66.9688 155.986 66.7918 155.214 66.7918H152.478V71.329ZM159.172 69.2052C159.172 70.0579 158.978 70.7659 158.576 71.3451C158.19 71.9243 157.579 72.3265 156.758 72.5518L159.59 77.7165H157.659L155.021 72.7609H152.478V77.7165H150.757V65.3438H155.551C156.195 65.3438 156.742 65.4403 157.193 65.6173C157.643 65.7943 158.029 66.0517 158.319 66.3574C158.608 66.6792 158.818 67.0492 158.962 67.4836C159.107 67.918 159.172 68.3686 159.172 68.8673V69.2052Z" fill="#E30614"/>
<path d="M164.482 72.8092H168.311L166.396 67.0331L164.482 72.8092ZM168.778 74.2412H164.031L162.889 77.7165H161.151L165.463 65.3438H167.378L171.754 77.7165H169.936L168.778 74.2412Z" fill="#E30614"/>
<path d="M181.262 65.3438L181.053 66.7918H177.24V77.7165H175.518V66.7918H171.528L171.737 65.3438H181.262Z" fill="#E30614"/>
<path d="M182.486 70.7655C182.486 69.8967 182.55 69.1083 182.695 68.4164C182.84 67.7246 183.097 67.1293 183.467 66.6305C183.837 66.1317 184.336 65.7456 184.964 65.4882C185.591 65.2147 186.379 65.0859 187.345 65.0859C188.31 65.0859 189.099 65.2147 189.726 65.4882C190.354 65.7617 190.852 66.1317 191.206 66.6305C191.56 67.1293 191.818 67.7246 191.946 68.4164C192.091 69.1244 192.156 69.8967 192.156 70.7655V72.294C192.156 73.1628 192.075 73.9512 191.93 74.643C191.785 75.3349 191.528 75.9302 191.158 76.4289C190.788 76.9277 190.289 77.3138 189.662 77.5713C189.034 77.8448 188.246 77.9735 187.28 77.9735C186.315 77.9735 185.527 77.8448 184.899 77.5713C184.272 77.2978 183.789 76.9277 183.419 76.4289C183.065 75.9302 182.808 75.3349 182.679 74.643C182.534 73.9351 182.47 73.1628 182.47 72.294V70.7655H182.486ZM190.402 70.7655C190.402 69.9127 190.337 69.2048 190.225 68.6578C190.096 68.1107 189.919 67.6924 189.662 67.3706C189.404 67.0649 189.082 66.8397 188.712 66.711C188.326 66.5823 187.876 66.534 187.361 66.534C186.846 66.534 186.396 66.5983 186.009 66.711C185.623 66.8397 185.301 67.0488 185.06 67.3706C184.803 67.6763 184.61 68.1107 184.481 68.6578C184.352 69.2048 184.288 69.9127 184.288 70.7494V72.2779C184.288 73.1306 184.352 73.8385 184.465 74.3856C184.594 74.9326 184.77 75.3509 185.028 75.6727C185.285 75.9784 185.607 76.2037 185.977 76.3324C186.363 76.4611 186.814 76.5094 187.329 76.5094C187.844 76.5094 188.294 76.445 188.68 76.3324C189.066 76.2037 189.388 75.9945 189.629 75.6727C189.887 75.367 190.08 74.9326 190.209 74.3856C190.337 73.8385 190.402 73.1467 190.402 72.2779V70.7655Z" fill="#E30614"/>
<path d="M196.886 71.329H199.492C200.264 71.329 200.844 71.1681 201.246 70.8302C201.648 70.4923 201.841 69.9614 201.841 69.2052V68.9799C201.841 68.2398 201.664 67.6928 201.31 67.3227C200.956 66.9688 200.393 66.7918 199.621 66.7918H196.886V71.329ZM203.579 69.2052C203.579 70.0579 203.386 70.7659 202.983 71.3451C202.597 71.9243 201.986 72.3265 201.165 72.5518L203.997 77.7165H202.066L199.428 72.7609H196.886V77.7165H195.164V65.3438H199.959C200.602 65.3438 201.149 65.4403 201.6 65.6173C202.05 65.7943 202.436 66.0517 202.726 66.3574C203.016 66.6792 203.225 67.0492 203.37 67.4836C203.514 67.918 203.579 68.3686 203.579 68.8673V69.2052Z" fill="#E30614"/>
<path d="M208.148 65.3438H206.41V77.7165H208.148V65.3438Z" fill="#E30614"/>
<path d="M213.747 72.8092H217.576L215.662 67.0331L213.747 72.8092ZM218.027 74.2412H213.28L212.138 77.7165H210.4L214.712 65.3438H216.627L221.003 77.7165H219.185L218.027 74.2412Z" fill="#E30614"/>
<path d="M225.009 65.3438H223.271V77.7165H225.009V65.3438Z" fill="#E30614"/>
<path d="M231.429 77.8931C230.77 77.8931 230.11 77.8449 229.482 77.7322C228.839 77.6357 228.292 77.507 227.857 77.3461L228.147 75.9624C228.614 76.0911 229.112 76.2038 229.676 76.3003C230.223 76.3968 230.802 76.4451 231.397 76.4451C232.459 76.4451 233.199 76.2681 233.65 75.8981C234.1 75.5441 234.325 74.9649 234.325 74.1926C234.325 73.9352 234.293 73.7099 234.245 73.4847C234.197 73.2755 234.1 73.0824 233.955 72.9054C233.81 72.7446 233.617 72.5998 233.36 72.4871C233.103 72.3745 232.781 72.278 232.395 72.2297L231.043 72.0527C229.981 71.9079 229.193 71.5539 228.694 70.9908C228.195 70.4116 227.954 69.6715 227.954 68.7544V68.6096C227.954 67.4351 228.34 66.5663 229.128 66.0031C229.917 65.44 231.043 65.1504 232.523 65.1504C233.231 65.1504 233.843 65.1987 234.358 65.3113C234.872 65.4239 235.339 65.5365 235.741 65.6652L235.436 67.0168C235.049 66.888 234.599 66.7915 234.1 66.7111C233.601 66.6306 233.07 66.5823 232.523 66.5823C231.51 66.5823 230.77 66.7432 230.303 67.065C229.853 67.3868 229.611 67.9178 229.611 68.6418C229.611 69.2049 229.756 69.6393 230.062 69.9128C230.351 70.1863 230.85 70.3794 231.542 70.476L233.006 70.6851C234.036 70.8299 234.808 71.1839 235.323 71.7148C235.838 72.2458 236.095 73.0342 236.095 74.0478V74.2248C236.095 75.4476 235.693 76.3486 234.905 76.96C234.052 77.5874 232.909 77.8931 231.429 77.8931Z" fill="#E30614"/>
<path d="M239.618 70.8459C239.232 70.8459 238.959 70.7493 238.782 70.5563C238.605 70.3632 238.524 70.1058 238.524 69.7679C238.524 69.4139 238.605 69.1565 238.782 68.9634C238.959 68.7704 239.232 68.6738 239.618 68.6738C240.005 68.6738 240.278 68.7704 240.455 68.9634C240.632 69.1565 240.713 69.43 240.713 69.7679C240.713 70.1058 240.632 70.3632 240.455 70.5563C240.278 70.7493 240.005 70.8459 239.618 70.8459ZM239.618 77.8447C239.232 77.8447 238.959 77.7482 238.782 77.5551C238.605 77.3621 238.524 77.1046 238.524 76.7668C238.524 76.4128 238.605 76.1554 238.782 75.9623C238.959 75.7692 239.232 75.6727 239.618 75.6727C240.005 75.6727 240.278 75.7692 240.455 75.9623C240.632 76.1554 240.713 76.4289 240.713 76.7668C240.713 77.1046 240.632 77.3621 240.455 77.5551C240.278 77.7482 240.005 77.8447 239.618 77.8447Z" fill="#E30614"/>
</g>
<defs>
<clipPath id="clip0">
<rect y="0.310547" width="240.713" height="85" fill="white"/>
</clipPath>
</defs>
</svg>
