<svg width="136" height="124" viewBox="0 0 136 124" fill="none" xmlns="http://www.w3.org/2000/svg">
<g clip-path="url(#clip0)">
<path d="M54.0611 89.6665L75.2249 77.4514L46.2607 60.7471L25.1118 72.9621L54.0611 89.6665Z" fill="#CBC5BB"/>
<path d="M51.1528 86.833C51.1528 85.6846 51.9582 84.2975 52.9575 83.7159C53.4944 83.4027 53.9866 83.4027 54.3147 83.6413L55.6272 84.3572L53.0321 88.7272L51.6898 87.9964L51.6748 87.9815C51.3467 87.8025 51.1528 87.3998 51.1528 86.833Z" fill="#393338"/>
<path d="M56.1196 85.4905C56.1196 86.6389 55.3142 88.026 54.3149 88.6077C53.3156 89.1893 52.5103 88.727 52.5103 87.5786C52.5103 86.4301 53.3156 85.0431 54.3149 84.4614C55.3142 83.8946 56.1196 84.357 56.1196 85.4905Z" fill="#100A0F"/>
<path d="M55.4335 85.893C55.4335 86.594 54.9264 87.459 54.3149 87.817C53.7034 88.1749 53.1963 87.8915 53.1963 87.1756C53.1963 86.4746 53.7034 85.6096 54.3149 85.2516C54.9264 84.8937 55.4335 85.192 55.4335 85.893Z" fill="#858184"/>
<path d="M24.5005 71.4561C24.5005 70.3076 25.3059 68.9206 26.3052 68.3389C26.8421 68.0257 27.3343 68.0257 27.6624 68.2644L28.9749 68.9803L26.3648 73.3502L25.0225 72.6194L25.0076 72.6045C24.6944 72.4255 24.5005 72.0228 24.5005 71.4561Z" fill="#393338"/>
<path d="M29.4668 70.1287C29.4668 71.2771 28.6614 72.6641 27.6621 73.2458C26.6628 73.8275 25.8574 73.3651 25.8574 72.2167C25.8574 71.0683 26.6628 69.6812 27.6621 69.0996C28.6614 68.5179 29.4668 68.9802 29.4668 70.1287Z" fill="#100A0F"/>
<path d="M28.7806 70.5163C28.7806 71.2173 28.2736 72.0824 27.6621 72.4403C27.0506 72.7983 26.5435 72.5149 26.5435 71.799C26.5435 71.098 27.0356 70.2329 27.6621 69.875C28.2885 69.532 28.7806 69.8153 28.7806 70.5163Z" fill="#858184"/>
<path d="M69.2739 76.3775C69.2739 75.229 70.0793 73.842 71.0786 73.2603C71.6155 72.9471 72.1077 72.9471 72.4358 73.1857L73.7483 73.9016L71.1383 78.2716L69.8109 77.5408L69.7959 77.5259C69.4678 77.3469 69.2739 76.9442 69.2739 76.3775Z" fill="#393338"/>
<path d="M74.2402 75.0357C74.2402 76.1841 73.4348 77.5712 72.4355 78.1528C71.4363 78.7345 70.6309 78.2721 70.6309 77.1237C70.6309 75.9753 71.4363 74.5882 72.4355 74.0066C73.4348 73.4398 74.2402 73.8873 74.2402 75.0357Z" fill="#100A0F"/>
<path d="M73.5541 75.4379C73.5541 76.1389 73.047 77.0039 72.4355 77.3619C71.824 77.7198 71.3169 77.4364 71.3169 76.7205C71.3169 76.0196 71.824 75.1545 72.4355 74.7966C73.0619 74.4386 73.5541 74.7369 73.5541 75.4379Z" fill="#858184"/>
<path d="M54.0611 79.6438L75.2249 67.4138L46.2607 50.7095L25.1118 62.9245L54.0611 79.6438Z" fill="#ADA9AB"/>
<path d="M30.2725 62.701H40.2802L54.3745 70.9935L54.449 55.4226L48.6473 52.0967L30.2725 62.701Z" fill="#666766"/>
<path d="M25.1118 62.9248V67.787L54.0611 84.5062V79.6441L25.1118 62.9248Z" fill="#D7D8D8"/>
<path d="M75.2249 67.4141V72.2911L54.061 84.5062V79.644L75.2249 67.4141Z" fill="#767275"/>
<path d="M30.272 28.2184L48.6468 17.5992L47.1106 16.7192L28.7358 27.3235L30.272 28.2184Z" fill="#B3B1B2"/>
<path d="M28.7358 27.3232V61.8207L30.272 62.7007V28.2181L28.7358 27.3232Z" fill="#D7D8D8"/>
<path d="M48.6473 17.5991V52.0966L30.2725 62.7009V28.2183L48.6473 17.5991Z" fill="#666766"/>
<path d="M47.5731 52.7233L31.7637 61.851V29.0091L47.5731 19.8813V52.7233Z" fill="#407197"/>
<path d="M54.628 60.2253L73.1221 49.5465L73.1818 47.2496L51.2722 34.6021L30.7646 46.4442L54.628 60.2253Z" fill="#948F91"/>
<path d="M30.5259 46.4289L40.0265 46.6675L54.1208 54.9601L54.1954 39.3892L48.3936 36.0483L30.5259 46.4289Z" fill="#666766"/>
<path d="M52.9722 56.6309H55.6419L69.4677 48.6367L65.7689 46.8618L52.9722 56.6309Z" fill="#666766"/>
<path d="M52.9722 56.6307L65.8286 49.2033V42.9839L55.1497 49.1436L52.9722 53.1855V56.6307Z" fill="#A0A09F"/>
<path d="M55.1499 49.1437L65.8288 42.984L46.8126 32.0068L36.1338 38.1666L55.1499 49.1437Z" fill="#CCCCCC"/>
<path d="M56.8799 48.1442L67.5588 41.9845L48.5426 31.0073L37.8638 37.1671L56.8799 48.1442Z" fill="#666766"/>
<path d="M55.8955 43.327H59.5794L62.443 44.9378L65.8286 42.984L56.8053 37.7788L55.8955 43.327Z" fill="#666766"/>
<path d="M36.1336 38.1665L33.9561 42.2084L52.9722 53.1855L55.1497 49.1437L36.1336 38.1665Z" fill="#E5E4E5"/>
<path d="M37.4759 39.6577L35.9546 42.4617L42.1441 46.0412L43.6654 43.2223L37.4759 39.6577Z" fill="#74B861"/>
<path d="M51.3018 47.7866L50.6157 49.0842L53.4346 50.7099L54.1207 49.4272L51.3018 47.7866Z" fill="#DEB4B9"/>
<path d="M37.4759 39.6577L37.9382 39.9262L36.4766 42.6108L42.2038 45.9069L42.1441 46.0412L35.9546 42.4617L37.4759 39.6577Z" fill="#559041"/>
<path d="M33.9561 42.208V45.6533L52.9722 56.6304V53.1852L33.9561 42.208Z" fill="#D7D8D8"/>
<path d="M48.1848 45.8623L47.9909 45.8325L47.8418 47.3091H48.0804L48.6919 46.1606L48.1848 45.8623Z" fill="#B8B6B7"/>
<path d="M47.0063 45.1912L46.8274 45.1465L46.6782 46.6379H46.9019L47.5284 45.4746L47.0063 45.1912Z" fill="#B8B6B7"/>
<path d="M45.843 44.5049L45.6491 44.4751L45.5 45.9666H45.7386L46.3501 44.8032L45.843 44.5049Z" fill="#B8B6B7"/>
<path d="M44.6645 43.834L44.4856 43.8042L44.3364 45.2807H44.5601L45.1866 44.1323L44.6645 43.834Z" fill="#B8B6B7"/>
<path d="M47.4539 47.2046L47.26 47.1748L47.1108 48.6663H47.3495L47.961 47.5029L47.4539 47.2046Z" fill="#B8B6B7"/>
<path d="M46.2754 46.5337L46.0964 46.5039L45.9473 47.9954H46.171L46.7974 46.832L46.2754 46.5337Z" fill="#B8B6B7"/>
<path d="M45.1121 45.8623L44.9182 45.8325L44.769 47.3091H45.0077L45.6192 46.1606L45.1121 45.8623Z" fill="#B8B6B7"/>
<path d="M43.9336 45.1912L43.7546 45.1465L43.6055 46.6379H43.8292L44.4556 45.4746L43.9336 45.1912Z" fill="#B8B6B7"/>
<path d="M47.8263 45.6982L47.2148 46.8616L47.7369 47.1599L48.3484 45.9965L47.8263 45.6982Z" fill="#F7B28A"/>
<path d="M47.2148 46.8618L47.3342 47.011L47.8413 47.3092L47.7369 47.1601L47.2148 46.8618Z" fill="#F3925A"/>
<path d="M47.7373 47.1599L47.8417 47.3091L48.4532 46.1606L48.3488 45.9966L47.7373 47.1599Z" fill="#B86433"/>
<path d="M46.663 45.0273L46.0366 46.1758L46.5586 46.4741L47.1701 45.3256L46.663 45.0273Z" fill="#F7B28A"/>
<path d="M46.0366 46.1758L46.1559 46.3398L46.6779 46.6381L46.5586 46.4741L46.0366 46.1758Z" fill="#F3925A"/>
<path d="M46.5591 46.4741L46.6784 46.6382L47.2899 45.4748L47.1706 45.3257L46.5591 46.4741Z" fill="#B86433"/>
<path d="M45.485 44.3413L44.8735 45.5046L45.3955 45.8029L46.007 44.6396L45.485 44.3413Z" fill="#A4A7A5"/>
<path d="M44.8735 45.5044L44.9929 45.6685L45.5 45.9668L45.3955 45.8027L44.8735 45.5044Z" fill="#646262"/>
<path d="M45.3955 45.803L45.4999 45.967L46.1114 44.8037L46.007 44.6396L45.3955 45.803Z" fill="#7B7A7C"/>
<path d="M44.3217 43.6699L43.6953 44.8333L44.2173 45.1316L44.8288 43.9682L44.3217 43.6699Z" fill="#EDF4ED"/>
<path d="M43.6953 44.8335L43.8146 44.9826L44.3366 45.2809L44.2173 45.1318L43.6953 44.8335Z" fill="#BDBABA"/>
<path d="M44.2173 45.1316L44.3366 45.2808L44.9481 44.1323L44.8288 43.9683L44.2173 45.1316Z" fill="#D7D4D6"/>
<path d="M47.036 47.1152L46.4395 48.2189L46.9465 48.5172L47.5431 47.3986L47.036 47.1152Z" fill="#F7B28A"/>
<path d="M46.4395 48.2188L46.5588 48.3828L47.051 48.6662L46.9465 48.517L46.4395 48.2188Z" fill="#F3925A"/>
<path d="M46.9468 48.517L47.0512 48.6662L47.6478 47.5476L47.5434 47.3984L46.9468 48.517Z" fill="#B86433"/>
<path d="M45.9179 46.459L45.3213 47.5776L45.8135 47.861L46.4101 46.7424L45.9179 46.459Z" fill="#F7B28A"/>
<path d="M45.3213 47.5776L45.4257 47.7268L45.9179 48.0102L45.8135 47.861L45.3213 47.5776Z" fill="#F3925A"/>
<path d="M45.8135 47.8608L45.9179 48.0099L46.5145 46.8913L46.4101 46.7422L45.8135 47.8608Z" fill="#B86433"/>
<path d="M44.7841 45.8027L44.1875 46.9213L44.6797 47.2047L45.2763 46.0861L44.7841 45.8027Z" fill="#A4A7A5"/>
<path d="M44.1875 46.9214L44.2919 47.0705L44.7841 47.3688L44.6797 47.2048L44.1875 46.9214Z" fill="#646262"/>
<path d="M44.6797 47.2045L44.7841 47.3686L45.3807 46.25L45.2763 46.0859L44.6797 47.2045Z" fill="#7B7A7C"/>
<path d="M43.6503 45.1465L43.0537 46.2651L43.5608 46.5485L44.1425 45.4448L43.6503 45.1465Z" fill="#EDF4ED"/>
<path d="M43.0537 46.2651L43.1581 46.4292L43.6652 46.7126L43.5608 46.5485L43.0537 46.2651Z" fill="#BDBABA"/>
<path d="M43.5615 46.5485L43.6659 46.7126L44.2625 45.594L44.1432 45.4448L43.5615 46.5485Z" fill="#D7D4D6"/>
<path d="M30.7646 46.4443V47.8911L54.628 61.6572V60.2254L30.7646 46.4443Z" fill="#B8B6B7"/>
<path d="M54.7767 42.0296L72.5101 31.7982L48.6468 18.0171L30.9282 28.2485L54.7767 42.0296Z" fill="#B3B1B2"/>
<path d="M30.9282 28.248V29.6948L54.7767 43.4609V42.0291L30.9282 28.248Z" fill="#D7D8D8"/>
<path d="M72.5103 31.7979V33.2297L54.7769 43.4611V42.0293L72.5103 31.7979Z" fill="#767275"/>
<path d="M55.9849 43.0436L74.3597 32.4244L72.8235 31.5444L54.4487 42.1636L55.9849 43.0436Z" fill="#B3B1B2"/>
<path d="M54.4487 42.1636V76.6461L55.9849 77.5261V43.0435L54.4487 42.1636Z" fill="#D7D8D8"/>
<path d="M74.3601 32.4243V66.9218L55.9854 77.5261V43.0435L74.3601 32.4243Z" fill="#525251"/>
<path d="M73.0771 67.6676L57.2676 76.7954V43.9534L73.0771 34.8257V67.6676Z" fill="#407197"/>
<path d="M71.5558 67.6676V35.7056L73.0771 34.8257V67.6676L57.2676 76.7954V75.9154L71.5558 67.6676Z" fill="#948F91"/>
<path d="M73.077 67.6676L71.5557 67.0114V35.7056L73.077 34.8257V67.6676Z" fill="#666766"/>
<path d="M54.0611 80.5685L53.8075 83.9093L25.425 67.563L25.1118 64.938V67.7867L54.0611 84.5059V80.5685Z" fill="#BDBDBE"/>
<path d="M54.0611 79.6441V84.5062L53.6435 80.1064L25.5891 63.8048L25.1118 67.787V62.9248L54.0611 79.6441Z" fill="#DDDDDD"/>
<path d="M39.9521 23.043L63.6216 36.7197V15.3471L39.9521 1.67041V23.043Z" fill="#D8D6D7"/>
<path d="M40.5933 21.9541L62.9801 34.885V15.7198L40.5933 2.80371V21.9541Z" fill="#4B3E3D"/>
<path d="M66.5145 13.6768V35.0494L63.6211 36.7198V15.3472L66.5145 13.6768Z" fill="#6F6C70"/>
<path d="M42.8307 0L66.5151 13.6767L63.6216 15.3471L39.9521 1.67044L42.8307 0Z" fill="#E3E1E2"/>
<path d="M41.3242 21.4772L62.2494 33.5431V31.47L41.3242 19.3892V21.4772Z" fill="#9AC552"/>
<path d="M61.1456 26.0708L61.772 22.5808L62.115 24.3855L62.294 24.3557L61.772 21.5219L61.2201 24.5943L60.9815 21.7009L60.5341 23.7889L60.1314 20.7314L59.3111 23.6398L58.9233 20.1945L58.1477 22.8642L57.4318 18.7329L56.5369 22.1931L56.1641 18.9118L55.5824 20.8209L55.2095 17.5397L54.2401 20.7314L54.0313 17.48L53.6137 18.9118L53.1812 16.0184L52.3161 18.4197L51.8538 16.0035L50.929 18.2258L50.5114 14.6313L49.7061 17.316L49.5569 15.2279L49.3779 15.2428L49.5867 18.3749L50.422 15.571L50.8246 18.9715L51.7941 16.6597L52.2564 19.1356L53.1066 16.794L53.554 19.8067L53.912 18.5688L54.1208 21.7904L55.1201 18.4793L55.4929 21.7456L56.0746 19.8515L56.4475 23.252L57.3871 19.6277L58.103 23.6994L58.8338 21.1639L59.2216 24.6241L60.0568 21.671L60.4893 24.8926L60.892 22.9984L61.1456 26.0708Z" fill="#F6A13B"/>
<path d="M61.9213 29.65L62.1152 29.6202C62.1003 29.5307 61.7573 27.5172 60.8475 27.025C60.5939 26.8908 60.3106 26.8759 60.0272 27.0101C59.3113 27.3233 58.8042 27.383 58.4164 27.1891C58.0584 27.0101 57.8198 26.6223 57.6707 25.981C57.4619 25.0861 56.91 24.415 56.2538 24.236C55.7616 24.1018 55.2843 24.2509 54.8816 24.6685C54.6281 24.937 54.3149 25.0115 53.9718 24.9071C53.2559 24.6983 52.5251 23.7587 52.376 23.1174C52.2268 22.4313 51.9584 21.1636 50.8696 21.1636C50.4073 21.1636 50.1537 21.3724 49.9449 21.5514C49.6764 21.7751 49.4975 21.9093 49.0053 21.611L48.9009 21.7751C49.5124 22.1479 49.7808 21.9391 50.0642 21.7005C50.273 21.5364 50.4669 21.3575 50.8547 21.3575C51.6303 21.3575 51.9435 22.0734 52.1821 23.1621C52.3312 23.8631 53.1217 24.8624 53.9122 25.0861C54.3298 25.2054 54.7176 25.101 55.0159 24.7878C55.3589 24.4299 55.7914 24.2956 56.1941 24.415C56.7907 24.579 57.268 25.1905 57.4768 26.0257C57.6408 26.7118 57.9242 27.1592 58.3269 27.3531C58.7594 27.5769 59.3262 27.5172 60.1017 27.1742C60.3404 27.0698 60.5492 27.0698 60.758 27.1891C61.5932 27.6365 61.9213 29.6202 61.9213 29.65Z" fill="#8CC3D8"/>
<path d="M45.3359 20.746L46.5738 21.4619V16.4058L45.3359 15.6899V20.746Z" fill="#8CC3D8"/>
<path d="M41.3242 18.5389L42.577 19.2697V16.9132L41.3242 16.1973V18.5389Z" fill="#8FC477"/>
<path d="M43.3228 19.6426L44.5756 20.3735V13.8707L43.3228 13.1548V19.6426Z" fill="#C3C5B0"/>
<path d="M43.8741 71.8286C43.8741 71.8286 45.455 74.3641 45.6191 74.6475C45.7831 74.9458 49.1986 77.0487 49.2881 77.3023C49.3776 77.5558 50.1979 78.8086 50.0338 79.8079C49.8697 80.8072 49.4074 81.2397 48.7213 81.5828C48.0502 81.9109 46.3051 81.717 45.7533 81.3143C45.2015 80.9116 43.7249 79.45 43.6354 79.3605L41.3833 77.6304C41.3833 77.6304 39.4593 76.5267 39.2505 76.2582C39.0417 75.9898 38.7733 74.6326 38.7882 74.2C38.8031 73.7675 38.997 71.9032 38.997 71.9032L43.8741 71.8286Z" fill="#D06A13"/>
<path d="M37.5804 75.4083C37.5804 75.4083 38.341 78.5255 38.4305 78.7492C38.52 78.9729 40.2799 82.2094 40.3396 82.4629C40.3843 82.7165 40.608 84.9537 40.3843 85.416C40.1606 85.8784 38.162 86.5197 37.5058 86.4153C36.8496 86.3109 34.6869 85.1476 34.0904 84.0886C33.4789 83.0297 33.4789 80.181 33.3595 80.0617C33.2402 79.9573 32.7928 78.9878 32.7928 78.8984L32.748 76.2883L32.9867 74.1108C32.9867 74.1108 36.6109 73.8423 37.5804 75.4083Z" fill="#D06A13"/>
<path d="M56.8052 45.6985L90.378 26.3244C91.5264 25.6532 92.7047 25.5787 93.6294 26.1156C94.5392 26.6525 95.0612 27.6965 95.0612 29.009V42.3874C95.0612 42.6559 95.0463 42.9094 95.0015 43.1779C94.7032 45.2361 93.3013 47.4286 91.5562 48.4428L57.9984 67.8168C57.3571 68.1897 56.7008 68.3687 56.0893 68.3687C55.6121 68.3687 55.1497 68.2493 54.747 68.0256C54.2847 67.7572 53.9267 67.3843 53.6881 66.8772L53.6732 66.8623C53.4196 66.3701 53.3003 65.7884 53.3003 65.1322V51.7538C53.3152 49.4868 54.8514 46.8469 56.8052 45.6985ZM92.7047 29.009C92.7047 28.5169 92.5704 28.2186 92.4362 28.144L92.2572 28.1142C92.1081 28.1142 91.8545 28.1887 91.5712 28.3379L91.5413 28.3528L57.9686 47.7418C56.7307 48.4577 55.6419 50.322 55.6419 51.7538V65.1471C55.6419 65.341 55.6568 65.4901 55.7015 65.6244L55.7165 65.6542C55.7612 65.8332 55.8358 65.9525 55.9103 65.9972C56.0446 66.0718 56.3727 66.042 56.8052 65.7884L90.378 46.3995C91.6308 45.6836 92.7047 43.8043 92.7047 42.3874V29.009Z" fill="#CECBCD"/>
<path d="M55.7314 65.654C56.0596 67.578 57.4317 66.4445 57.4317 66.4445C57.4317 66.4445 88.9164 48.4575 91.3326 46.7274C93.7488 45.0122 93.4654 43.1628 93.4654 43.1628C93.4654 43.1628 93.4654 30.3363 93.4654 28.6658C93.4654 27.1296 91.8397 28.1587 91.5862 28.3228C91.8695 28.1736 92.1231 28.0991 92.2722 28.0991L92.4512 28.1289C92.5705 28.2035 92.7197 28.5018 92.7197 28.9939V42.3723C92.7197 43.7892 91.6309 45.6685 90.393 46.3844L56.8202 65.7734C56.3877 66.012 56.0596 66.0567 55.9253 65.9822C55.8508 65.9374 55.7762 65.833 55.7314 65.654Z" fill="#BDBABA"/>
<path d="M53.7031 66.877C53.9418 67.3692 54.2997 67.757 54.7621 68.0255C55.1648 68.2641 55.6122 68.3685 56.1044 68.3685C56.7159 68.3685 57.3721 68.1895 58.0134 67.8167L91.5862 48.4426C93.3312 47.4284 94.7332 45.2359 95.0315 43.1777C94.0024 46.6081 91.7503 47.846 91.7503 47.846L60.2805 66.1761C60.2805 66.1761 57.8345 67.7868 56.2386 67.9509C54.7471 68.115 53.8075 67.0113 53.7031 66.877Z" fill="#A19C9C"/>
<path d="M90.8107 26.2945C90.8107 26.2945 91.7503 25.7427 92.8391 25.9515C93.7787 26.3094 94.0322 26.5779 94.0322 26.5779C94.0322 26.5779 93.0628 26.1603 92.3767 26.4735C91.6757 26.7867 57.0142 46.8767 57.0142 46.8767C57.0142 46.8767 54.8367 48.7857 54.7472 51.2765C54.6577 53.7672 54.7472 66.1762 54.7472 66.1762C54.7472 66.1762 54.8068 66.907 55.1648 67.3693C54.2997 66.9368 53.912 66.5341 53.7777 65.9524C53.6435 65.3559 53.7032 51.53 53.7032 51.53C53.7032 51.53 53.6882 48.0847 56.701 45.9669C58.9829 44.6246 90.8107 26.2945 90.8107 26.2945Z" fill="#ECEAEA"/>
<path d="M112.929 95.8861C112.929 93.9472 114.301 91.5758 116.002 90.6063C116.926 90.0694 117.747 90.0694 118.313 90.4721L120.536 91.6802L116.121 99.1076L113.854 97.8697L113.824 97.8548C113.272 97.5267 112.929 96.8406 112.929 95.8861Z" fill="#393338"/>
<path d="M121.371 93.6191C121.371 95.558 119.998 97.9294 118.298 98.9137C116.613 99.8981 115.241 99.1076 115.241 97.1687C115.241 95.2298 116.613 92.8584 118.298 91.889C119.998 90.8897 121.371 91.6652 121.371 93.6191Z" fill="#100A0F"/>
<path d="M69.6914 120.555C69.6914 118.616 71.0635 116.244 72.7489 115.275C73.6736 114.738 74.4939 114.738 75.0607 115.141L77.2829 116.349L72.8831 123.791L70.6161 122.538L70.5863 122.523C70.0344 122.195 69.6914 121.524 69.6914 120.555Z" fill="#393338"/>
<path d="M78.1336 118.288C78.1336 120.227 76.7614 122.598 75.0761 123.568C73.3758 124.552 72.0186 123.762 72.0186 121.823C72.0186 119.884 73.3907 117.512 75.0761 116.543C76.7614 115.573 78.1336 116.349 78.1336 118.288Z" fill="#100A0F"/>
<path d="M76.9699 118.974C76.9699 120.182 76.1198 121.643 75.0758 122.24C74.0318 122.852 73.1816 122.359 73.1816 121.166C73.1816 119.973 74.0318 118.496 75.0758 117.9C76.1198 117.288 76.9699 117.766 76.9699 118.974Z" fill="#858184"/>
<path d="M120.193 94.2899C120.193 95.483 119.342 96.9447 118.298 97.5562C117.254 98.1528 116.404 97.6755 116.404 96.4823C116.404 95.2892 117.254 93.8126 118.298 93.216C119.357 92.6045 120.193 93.0967 120.193 94.2899Z" fill="#858184"/>
<path d="M120.983 87.9069L85.71 67.5336V61.3291L120.983 81.7025V87.9069Z" fill="#F3F3F2"/>
<path d="M96.0604 99.4206L60.8022 79.0472V72.8428L96.0604 93.2161V99.4206Z" fill="#686064"/>
<path d="M89.7964 100.167L58.5205 82.105V74.1406L93.7935 94.4991L89.7964 100.167Z" fill="#858184"/>
<path d="M114.704 88.6524L83.4277 70.5909V62.6265L118.701 82.9849L114.704 88.6524Z" fill="#858184"/>
<path d="M74.0313 115.29L38.7583 94.9164V88.7119L74.0313 109.085V115.29Z" fill="#F3F3F2"/>
<path d="M67.7529 116.036L36.4769 97.974L34.7319 89.9351L70.005 110.293L67.7529 116.036Z" fill="#D7D8D8"/>
<path d="M70.7207 117.751L120.983 88.7418V81.7021L70.7207 110.711V117.751Z" fill="#7A7979"/>
<path d="M70.7205 117.751L67.7524 116.036V108.996L70.7205 110.711V117.751Z" fill="#D7D8D8"/>
<path d="M70.7204 110.711L67.7524 108.996L118.015 79.9868L120.983 81.702L70.7204 110.711Z" fill="#F3F3F2"/>
<path d="M87.8276 100.495L97.9547 94.6483V75.7217L87.8276 81.5682V100.495Z" fill="#7A7979"/>
<path d="M87.8274 100.495L84.8594 98.7794V79.8677L87.8274 81.5679V100.495Z" fill="#CECBCD"/>
<path d="M87.8274 81.5681L84.8594 79.8678L94.9864 74.0063L97.9544 75.7215L87.8274 81.5681Z" fill="#686064"/>
<path d="M70.2281 98.0036L34.9551 77.6452V71.5898L70.2281 91.9483V98.0036Z" fill="#CECBCD"/>
<path d="M131.05 30.9327L129.588 30.0975C128.425 27.2786 126.352 24.6537 123.996 23.2815L106.918 13.423C104.547 12.0508 102.489 12.2895 101.325 13.766L99.8637 12.9308C98.2529 12.0061 96.9404 12.7518 96.9404 14.6012V38.8225C96.9404 40.6719 98.2529 42.924 99.8637 43.8487L131.035 61.8507C132.646 62.7754 133.958 62.0296 133.958 60.1802V35.9589C133.958 34.1095 132.661 31.8574 131.05 30.9327Z" fill="#D7D8D8"/>
<path d="M99.8637 12.9308L101.325 13.766C102.489 12.2895 104.562 12.0508 106.918 13.423L123.981 23.2815C126.352 24.6387 128.425 27.2786 129.574 30.0975L131.035 30.9327C132.646 31.8574 133.958 34.1095 133.958 35.9589V36.6897C133.958 34.8403 132.646 32.5882 131.035 31.6635L129.574 30.8283C128.41 28.0094 126.337 25.3845 123.981 24.0123L106.918 14.1538C104.547 12.7816 102.489 13.0203 101.325 14.4968L99.8637 13.6616C98.2529 12.7369 96.9404 13.4826 96.9404 15.3171V14.5863C96.9553 12.7369 98.2529 12.0061 99.8637 12.9308Z" fill="#F0F0F0"/>
<path d="M70.2281 91.9484L34.9551 71.59L97.2832 35.6011L132.556 55.9595L70.2281 91.9484Z" fill="#686064"/>
<path d="M95.3443 75.8857L60.0713 55.5272V48.8007L131.274 40.7319V47.4584L95.3443 75.8857Z" fill="#3A5D85"/>
<path d="M95.3443 69.1592V75.8857L60.0713 55.5273V48.8008L95.3443 69.1592Z" fill="#4C8CAC"/>
<path d="M69.7213 90.6809L34.4482 70.3225V63.5811L95.0164 69.3381V76.0795L69.7213 90.6809Z" fill="#3A5D85"/>
<path d="M69.7213 83.9544V90.6809L34.4482 70.3225V63.5811L69.7213 83.9544Z" fill="#4C8CAC"/>
<path d="M95.3443 69.159L60.0713 48.8005L96.0155 20.3584L131.274 40.7317L95.3443 69.159Z" fill="#80BFEA"/>
<path d="M80.8772 32.335L61.7268 48.8007L95.0609 68.5029L112.407 55.6912L95.3443 69.1591L60.0713 48.8007L80.8772 32.335Z" fill="#ADD8F5"/>
<path d="M87.8276 32.9165C87.3354 33.3043 86.0379 34.229 87.2012 34.7808C87.3354 34.8405 87.4995 34.8703 87.6188 34.9598C87.8425 35.1388 87.8574 35.4818 87.7829 35.7652C87.5144 36.8241 86.53 37.5102 85.6053 38.077C83.5173 39.3596 81.3547 40.5379 79.0429 41.388C77.6559 41.8951 76.239 42.2829 74.8668 42.8198C73.3604 43.4164 71.9436 44.1919 70.5565 45.0421C70.1986 45.2658 69.8406 45.4895 69.6318 45.8475C69.423 46.2054 69.4379 46.7274 69.766 46.981C70.0196 47.1749 70.3626 47.1599 70.6758 47.1898C71.526 47.2494 72.3313 47.6223 73.1815 47.667C75.0607 47.7714 76.5969 46.3098 78.1779 45.2807C80.9371 43.476 84.2929 42.8496 87.3205 41.5521C87.8127 41.3433 88.3198 41.1046 88.8418 41.0151C89.2296 40.9406 89.6323 40.9555 90.0201 40.9704C92.1379 41.0599 94.2558 41.3582 96.314 41.8951C97.6563 42.2381 99.9979 42.611 99.9383 44.4306C99.9234 45.1316 99.5952 45.7878 99.282 46.3993C98.5214 47.8758 97.7011 49.3524 96.5676 50.5605C95.628 51.5747 94.4944 52.3801 93.4206 53.2451C92.3467 54.1101 91.3027 55.0498 90.6166 56.2579C89.9306 57.451 89.6472 58.9425 90.1543 60.2251C90.3631 60.777 90.721 61.2692 91.0641 61.7464C92.0932 63.1782 93.1223 64.6249 94.3155 65.9225C95.8218 63.7748 97.9248 62.1193 100.117 60.6875C102.31 59.2557 104.636 58.0327 106.799 56.5561C107.023 56.407 107.246 56.2429 107.366 56.0192C107.44 55.8701 107.485 55.6911 107.515 55.527C107.694 54.6023 107.888 53.6627 108.067 52.738C108.097 52.5441 108.141 52.3651 108.231 52.1862C108.335 51.9923 108.514 51.8431 108.693 51.694C109.484 51.0228 110.259 50.3517 111.065 49.6954C111.542 49.3076 111.512 49.2629 112.049 49.4568L112.541 49.6954C112.631 49.6358 119.566 44.6543 121.49 43.2076C123.429 41.7609 127.381 38.4498 127.381 38.4498L120.983 34.751L87.8276 32.9165Z" fill="#437BA7"/>
<path d="M111.944 47.8757C111.944 47.8757 100.684 43.4759 96.9404 41.2686C93.6741 39.3446 84.084 31.7978 84.084 31.7978C84.084 31.7978 89.8858 25.6977 92.0782 23.9825C94.0917 22.4165 100.744 18.6133 100.744 18.6133C100.744 18.6133 112.049 23.0131 115.449 24.952C119.133 27.0549 128.604 34.7061 128.604 34.7061C128.604 34.7061 124.145 40.0008 122.37 41.4624C120.013 43.4013 111.944 47.8757 111.944 47.8757Z" fill="#C3BEC8"/>
<path d="M111.944 47.876C111.944 47.876 100.684 40.9109 96.9404 38.7035C93.6741 36.7795 84.084 31.7831 84.084 31.7831C84.084 31.7831 89.8858 25.6831 92.0782 23.9679C94.0917 22.4019 100.744 18.5986 100.744 18.5986C100.744 18.5986 112.049 22.9984 115.449 24.9373C119.133 27.0403 128.604 34.6915 128.604 34.6915C128.604 34.6915 121.758 37.5998 119.983 39.0615C117.627 41.0153 111.944 47.876 111.944 47.876Z" fill="#F4F4F6"/>
<path d="M69.7213 83.9542L34.4482 63.5809L59.7434 48.9795L95.0164 69.3379L69.7213 83.9542Z" fill="#80BFEA"/>
<path d="M100.028 18.002C100.028 18.002 98.2082 18.6284 97.3879 19.8364C96.8211 20.6568 96.8808 22.0289 97.194 22.6255C97.7309 23.0133 100.043 21.5665 100.043 21.5665V18.002H100.028Z" fill="#C6C6C6"/>
<path d="M132.557 55.9595V62.0148L70.2285 98.0037V91.9484L132.557 55.9595Z" fill="#908F8F"/>
<path d="M37.9386 117.706L2.66553 97.3326V89.3682L37.9386 109.727V117.706Z" fill="#D7D8D8"/>
<path d="M37.9386 109.727L2.66553 89.3684L34.9556 70.7251L70.2287 91.0835L37.9386 109.727Z" fill="#686064"/>
<path d="M37.4312 109.324L2.1582 88.9655V82.2241L69.1844 84.2525V90.9939L37.4312 109.324Z" fill="#3A5D85"/>
<path d="M37.4312 102.597V109.324L2.1582 88.9655V82.2241L37.4312 102.597Z" fill="#4C8CAC"/>
<path d="M37.4312 102.597L2.1582 82.2241L33.9263 63.894L69.1844 84.2525L37.4312 102.597Z" fill="#80BFEA"/>
<path d="M70.2286 91.0835V99.0628L37.9385 117.706V109.727L70.2286 91.0835Z" fill="#908F8F"/>
<path d="M33.9263 63.894L3.81372 82.2241L37.4312 101.747L69.1844 84.2525L37.4312 102.597L2.1582 82.2241L33.9263 63.894Z" fill="#ADD8F5"/>
<path d="M60.0715 48.8008L36.1038 63.5812L69.7213 83.1044L90.1841 72.1421L69.7213 83.9545L34.4482 63.5812L60.0715 48.8008Z" fill="#ADD8F5"/>
<path d="M37.9386 117.706L37.4315 109.98L3.20245 90.3376L2.66553 97.3326V89.3682L37.9386 109.727V117.706Z" fill="#F0F0F0"/>
<path d="M60.7427 48.7259C60.8023 49.0391 60.9217 49.412 60.9813 49.4865C61.041 49.5611 63.2334 49.934 63.5466 50.0384C63.651 50.0682 63.7853 50.0384 63.9344 49.9787C64.2625 49.8445 64.6503 49.5611 64.8293 49.4865C65.0828 49.3672 66.4997 48.4425 66.619 48.3381C66.7384 48.2337 67.5288 47.1002 67.9017 46.8616C68.2746 46.6229 74.2852 44.8779 75.6573 44.3858C77.0444 43.8936 82.4136 41.5072 82.9207 41.0151C83.2339 40.7168 85.5009 39.3744 86.8582 37.7338C87.7381 36.66 88.2452 35.4668 87.589 34.3333C85.9335 31.4697 85.3965 32.4988 85.3965 32.4988C85.307 32.6927 81.6082 34.7807 80.5642 35.4221C79.5202 36.0634 77.3576 36.8837 75.3739 38.5392C73.3903 40.1947 67.156 43.6997 66.3207 44.2963C65.4855 44.9078 61.9657 46.1457 61.6972 46.3992C61.4288 46.6528 60.6979 48.4127 60.7427 48.7259Z" fill="#FAC6A9"/>
<path d="M71.0038 45.8324C72.8383 45.2657 74.9263 44.6393 75.672 44.3708C76.8801 43.9383 81.0711 42.0889 82.5029 41.2835C83.3232 39.7622 84.4866 37.6891 84.7849 37.5847C85.0384 37.5101 85.5604 36.6152 85.9929 35.78C85.9929 35.78 85.9929 35.78 85.9929 35.7651C85.8587 35.6607 85.6648 35.4966 85.456 35.3027C85.0981 35.9142 84.3374 37.1969 84.233 37.3759C84.0988 37.6145 82.7565 40.3588 82.5029 40.5378C82.2494 40.7167 79.0129 42.4617 76.8801 43.3268C75.4483 43.9234 72.4654 45.0121 70.437 45.6982L71.0038 45.8324Z" fill="#F5A67F"/>
<path d="M60.7576 48.6363L60.7427 48.7257C60.7576 49.2179 60.9813 49.4864 61.041 49.5759C61.0857 49.6654 61.3393 49.7698 61.3691 49.9637C61.3989 50.1426 61.8165 50.2023 61.8165 50.2023C61.8165 50.2023 61.9657 50.3962 62.1297 50.5006C62.3087 50.5901 62.9053 50.7541 62.9053 50.7541L64.1879 50.948C64.2476 50.8735 64.9188 50.3664 65.0232 50.1277V49.9786L64.7547 49.904L64.7398 49.7101L64.7249 49.6206L64.3968 49.3522L64.3371 49.3074L64.352 49.2179C64.3669 49.1284 64.3818 49.0091 64.3669 48.86C64.3371 48.6064 63.7256 48.7854 63.6063 48.8302C63.487 48.8749 62.0104 49.0986 61.8613 49.039C61.7121 48.9644 61.6077 48.3529 61.6077 48.3529L61.7121 47.7265C61.727 47.6817 60.862 48.1739 60.7576 48.6363Z" fill="#FBD5BF"/>
<path d="M65.6494 47.5779C65.6494 47.5779 65.023 47.9358 64.2176 47.8612C63.4122 47.7867 63.2184 47.8016 63.2184 47.8016C63.2184 47.8016 62.2787 48.3832 61.8611 48.5921C61.4286 48.8009 60.7574 48.7859 60.5934 48.6219C60.4293 48.4727 60.4592 48.1894 60.4592 48.1894C60.4592 48.1894 61.1452 47.7568 61.3391 47.4884C61.533 47.2199 62.0252 46.7725 62.234 46.6233C62.4428 46.4593 63.7851 45.9074 64.0088 45.7284C64.2326 45.5495 65.0379 44.8187 65.7389 45.4152C66.425 46.0118 66.768 46.4443 66.6487 46.6979C66.5443 46.9664 65.6494 47.5779 65.6494 47.5779Z" fill="#FBD5BF"/>
<path d="M83.9646 33.9009C84.1287 34.1246 84.5463 34.3931 84.7103 34.5721L84.8595 34.7212C85.4113 35.288 86.2018 35.9293 86.2018 35.9293C86.2018 35.9293 89.5427 33.3192 89.7962 33.2894C90.0498 33.2745 93.7784 27.0253 92.4361 26.891C91.0938 26.7568 90.0945 26.9358 89.7515 27.0551C89.4085 27.1893 85.9632 29.9038 85.3964 30.3661C84.6059 30.9926 83.2935 32.4393 83.2935 32.4393C83.2935 32.4393 83.4873 33.2447 83.9646 33.9009Z" fill="#92ACDA"/>
<path d="M74.8668 45.4001L72.749 46.0265C72.749 46.0265 72.5998 46.4442 71.347 46.6082C70.0942 46.7723 68.6027 47.1601 68.6027 47.1601C68.6027 47.1601 67.6183 47.7566 67.2604 47.7716C66.9024 47.8014 64.5012 48.562 64.367 48.5471C64.2477 48.5322 51.615 54.7218 51.3465 54.9455C51.0781 55.1692 54.4935 60.1805 55.5077 61.2693C56.5219 62.373 57.9239 62.7309 57.9239 62.7309L59.8031 61.5079L62.6816 60.6279L64.8442 60.4937L72.6147 58.1223C72.6147 58.1223 77.984 53.6628 79.0728 52.6785C80.1615 51.6792 80.0422 49.4271 80.087 48.5024C80.1168 47.5926 80.072 46.9513 79.9676 46.6679C79.8781 46.3994 79.0131 44.4903 74.8668 45.4001Z" fill="#42A87F"/>
<path d="M89.4238 61.7616C89.4238 61.7616 87.7682 63.3574 86.7093 63.9391C85.6504 64.5208 78.8046 67.1308 74.9417 67.8765C71.0639 68.6073 67.9169 71.0533 67.7379 71.1727C67.559 71.292 63.7706 68.5626 62.5775 67.4888C61.3843 66.4149 60.042 65.2665 60.042 65.2665C60.042 65.2665 62.2941 62.7757 64.1733 61.4782C66.0526 60.1806 70.5866 57.0336 70.5866 57.0336C70.5866 57.0336 73.6441 51.7837 73.9573 51.2318C74.2705 50.68 80.7136 46.9215 81.8471 47.0558C82.9806 47.1751 90.6617 55.4676 89.4238 61.7616Z" fill="#59B993"/>
<path d="M72.749 46.0264C76.0302 45.1613 77.0892 46.9809 77.0892 46.9809C77.0892 46.9809 79.3264 48.8005 79.6396 49.1435C79.9528 49.4866 81.131 51.5 81.7276 52.4397C82.3242 53.3793 85.0387 57.0483 85.3817 58.0028C85.6651 58.7784 87.4101 61.3288 88.0514 62.2535C88.2005 62.4623 88.29 62.5965 88.29 62.5965C88.29 62.5965 88.3199 63.0887 89.3042 62.5368C90.2886 61.985 90.6615 60.7322 91.3028 59.3451C91.9441 57.9581 93.6891 57.0781 95.1209 55.9595C96.5676 54.8409 96.9405 52.3353 96.9405 52.3353L100.475 48.189C100.475 48.189 102.265 47.4284 103.339 46.9362L103.488 46.8467C103.965 46.5335 104.965 45.564 106.068 44.3858C107.903 42.4021 110.006 39.807 110.349 38.6735C110.393 38.5094 110.408 38.3752 110.379 38.2708C110.289 38.0023 110.036 37.5996 109.707 37.0925L109.692 37.0627C109.603 36.9434 109.514 36.8092 109.424 36.6749L109.379 36.6153L109.335 36.5556C108.097 34.8404 106.128 32.4839 105.427 31.4996C105.158 31.1267 104.607 30.6942 103.921 30.2617C102.041 29.0983 99.1479 27.9201 98.1635 27.7709C96.8063 27.5472 93.0627 26.533 91.9889 26.9954C90.915 27.4577 89.6473 30.2318 89.3042 30.5898C88.9612 30.9477 86.7688 34.2588 86.7688 34.2588C86.7688 34.2588 86.4257 34.9896 86.023 35.7502C85.5756 36.5854 85.0536 37.4803 84.8149 37.5549C84.3377 37.704 81.6829 42.8645 81.6829 42.8645C81.6829 42.8645 81.6083 42.9092 81.4592 42.9987C81.31 43.0882 81.0863 43.2374 80.8327 43.3865C80.5195 43.5804 80.1616 43.7892 79.8185 43.9682L79.8036 43.9831C79.6992 44.0427 79.5799 44.1024 79.4755 44.1471C79.0877 44.341 78.7447 44.4902 78.5657 44.4902L77.0146 44.5946L75.3143 44.699C75.1652 44.7288 72.8982 45.9518 72.749 46.0264Z" fill="#639FD2"/>
<path d="M78.5356 44.5203C78.7295 44.5054 79.0576 44.3711 79.4454 44.1772L78.5356 44.5203Z" fill="#396588"/>
<path d="M80.46 47.5181C80.9373 46.8767 81.6979 46.4442 81.8471 45.609C81.862 45.4897 81.8769 45.3704 81.9515 45.2809L82.205 45.1466C82.7419 44.9826 83.2789 44.8633 83.8456 44.8185C84.0544 44.8036 84.2931 44.7738 84.3975 44.6097C84.4571 44.5202 84.472 44.4009 84.4571 44.2965C84.3975 43.6999 83.786 43.1332 84.0693 42.5962C84.3378 42.0742 85.2923 42.1041 85.4117 41.5224C85.5011 41.1197 85.0686 40.7021 85.2178 40.3143C85.2774 40.1652 85.7547 40.0906 85.8591 39.8967C85.9784 39.673 85.9038 39.6581 85.7249 39.4344C85.4117 39.0466 85.3967 38.8378 85.4862 38.3158C85.6354 37.4955 86.0828 36.6304 85.9784 35.7803C85.531 36.6155 85.009 37.5104 84.7703 37.5849C84.2931 37.7341 81.6383 42.8945 81.6383 42.8945C81.6383 42.8945 81.5637 42.9393 81.4145 43.0288C81.3251 43.1332 81.2207 43.2376 81.1013 43.3122C80.7285 43.5806 80.2214 43.7745 79.759 43.9982L79.7441 44.0131C79.6397 44.0728 79.5204 44.1325 79.416 44.1772C79.0282 44.3711 78.6852 44.5202 78.5062 44.5202L76.9551 44.6246C76.9551 44.6246 77.5218 45.3256 78.0886 45.6388C78.6553 45.952 78.9238 45.6537 79.5204 46.5039C80.1468 47.354 80.46 47.5181 80.46 47.5181Z" fill="#5382AC"/>
<path d="M91.4224 59.1364C92.1383 57.8686 93.7789 57.0185 95.1361 55.9595C96.5828 54.841 96.9408 52.3353 96.9408 52.3353L98.4024 50.6201L96.9408 52.3353C96.9408 52.3353 96.5679 54.841 95.1212 55.9595C93.764 57.0036 92.1383 57.8537 91.4224 59.1364Z" fill="#396588"/>
<path d="M101.34 46.3247C101.34 45.9816 101.34 45.6088 101.34 45.2508C101.34 44.7288 101.355 44.2515 101.37 43.9383C101.236 43.9682 101.087 43.9831 100.938 43.9831C100.803 43.9831 100.669 43.9682 100.52 43.9383C99.64 43.7743 95.971 43.0435 95.0911 43.0435C95.0016 43.0435 94.9419 43.0435 94.9121 43.0584C94.6138 43.2224 99.2373 45.1166 99.461 45.2508C99.6102 45.3701 100.714 45.9071 101.34 46.3247ZM91.4221 59.1214C92.138 57.8537 93.7786 57.0035 95.1358 55.9446C96.5825 54.826 96.9554 52.3203 96.9554 52.3203L98.417 50.6052L100.49 48.1741C100.49 48.1741 100.923 47.9802 101.489 47.7416L101.579 47.5477C101.594 47.5178 101.609 47.5029 101.609 47.4731C101.519 47.488 101.43 47.5029 101.355 47.5178C101.355 47.5178 101.355 47.2792 101.355 46.9063C101.325 46.9063 101.281 46.9063 101.251 46.9063C100.878 46.9063 100.356 46.8467 99.9085 46.787C99.461 46.7274 99.0733 46.6677 98.939 46.6677C98.939 46.6677 98.939 46.6677 98.9241 46.6677C98.6408 46.6826 98.3425 46.6826 98.0591 46.6826C97.7608 46.6826 97.4774 46.6826 97.1791 46.6826C96.8808 46.6826 96.5825 46.6826 96.2992 46.6826C95.9412 46.6826 95.5833 46.6826 95.2402 46.6975C96.0903 46.8616 96.8957 47.2046 97.5967 47.6968C97.0747 47.8012 96.5676 47.8609 96.0307 47.9056C96.3588 48.0398 96.6869 48.1741 97.03 48.3083L97.1195 48.3829L97.015 48.5171C96.4781 48.8154 95.9412 49.1137 95.4043 49.412C95.449 49.6805 95.7175 49.8445 95.9263 50.0235C96.1351 50.2025 96.3141 50.5008 96.1649 50.7245L95.8965 50.9035C95.449 51.1123 94.9867 51.2763 94.5094 51.3956C94.3006 51.4553 94.0769 51.5 93.8532 51.5C93.7637 51.5 93.6742 51.5 93.5847 51.4702C93.0925 51.3658 92.7047 50.978 92.2722 50.7245C91.5563 50.3218 90.6763 50.3218 89.9455 49.9787C89.4384 49.7401 89.0059 49.3523 88.5883 48.9646C88.1558 48.5619 87.7233 48.1592 87.2758 47.7565C88.5585 49.7103 90.4974 51.2316 92.7047 51.9922C93.0627 52.1115 93.4654 52.2458 93.6145 52.5888C93.0776 52.6485 92.4661 52.6932 91.8546 52.6932C91.3773 52.6932 90.915 52.6634 90.4974 52.6037C89.1103 52.3949 88.2304 52.0817 88.126 51.9922C88.0365 51.9027 88.0216 51.3807 86.3959 50.6947C84.7553 50.0086 81.653 48.2785 81.2801 48.2039C81.2652 48.2039 81.2652 48.2039 81.2503 48.2039C81.0117 48.2039 82.4882 49.1584 83.4428 49.6059C84.4271 50.0682 85.7545 51.2017 86.2765 51.6044C86.7836 51.9922 87.8426 52.6634 87.8426 52.6634C87.8426 52.6634 92.2573 53.6776 93.0776 53.6776C93.0925 53.6776 93.1074 53.6776 93.1223 53.6776C93.1373 53.6776 93.1522 53.6776 93.182 53.6776C93.7935 53.6776 93.7935 54.3786 93.0776 54.4233C92.3468 54.468 90.2289 55.2138 90.4825 55.2585C90.7509 55.3033 92.6451 55.7358 92.6749 55.8253C92.7047 55.8998 90.9896 57.0632 90.6614 57.272C90.7062 57.2422 90.7957 57.2123 90.8702 57.2123C91.0045 57.2123 91.1387 57.3018 91.2133 57.615C91.258 57.794 91.1984 58.0625 91.079 58.3458C91.1685 58.5696 91.2878 58.838 91.4221 59.1214Z" fill="#5382AC"/>
<path d="M62.3088 47.0257C62.3088 47.0257 70.4074 45.5343 71.1979 46.0116C71.9884 46.4888 73.8527 45.4448 73.8527 45.4448C73.8527 45.4448 73.8676 43.7893 78.6403 46.6976C83.413 49.606 84.0692 51.8133 85.2773 53.3346C86.4854 54.8559 88.4094 56.8545 88.4988 58.6442C88.5883 60.434 89.2893 62.8651 89.2893 63.1633C89.2893 63.4765 96.0755 68.0404 96.0755 68.0404L95.6877 72.8429L37.4312 106.803L36.417 102.001L3.29171 82.8804L2.1582 86.1318V82.2242L60.0716 48.7857L62.3088 47.0257Z" fill="#E4E1E7"/>
<path d="M84.084 67.4437L84.5016 67.906C84.5016 67.906 89.7068 71.7242 89.9454 71.933C90.1841 72.1418 90.1841 76.0494 90.1841 76.0494L96.5973 72.455C96.5973 72.455 97.3431 68.6369 96.9553 67.5332C96.5526 66.4295 91.9291 61.7612 91.9291 61.7612L84.084 67.4437Z" fill="#EFEEED"/>
<path d="M62.3087 52.2607L56.1191 51.0675L57.7747 49.5611L62.1745 46.6379L70.4073 45.6982L72.5252 46.1904L62.3087 52.2607Z" fill="#EFEEED"/>
<path d="M93.4502 69.3528L127.023 49.9787C128.171 49.3075 129.35 49.233 130.274 49.7699C131.184 50.3068 131.706 51.3508 131.706 52.6633V66.0417C131.706 66.3102 131.691 66.5637 131.647 66.8322C131.348 68.8904 129.946 71.0829 128.201 72.0971L94.6285 91.486C93.9872 91.8589 93.3309 92.0379 92.7194 92.0379C92.2422 92.0379 91.7798 91.9186 91.392 91.6948C90.9297 91.4264 90.5717 91.0386 90.3331 90.5464L90.3182 90.5315C90.0646 90.0393 89.9453 89.4576 89.9453 88.8014V75.4081C89.9453 73.156 91.4815 70.5012 93.4502 69.3528ZM129.35 52.6633C129.35 52.1712 129.215 51.8878 129.081 51.7983L128.902 51.7685C128.753 51.7685 128.5 51.843 128.216 51.9922L128.186 52.0071L94.6136 71.3961C93.3757 72.112 92.2869 73.9763 92.2869 75.4081V88.8014C92.2869 88.9953 92.3018 89.1444 92.3466 89.2787L92.3615 89.3085C92.4062 89.4875 92.4808 89.6068 92.5554 89.6515C92.6896 89.7261 93.0177 89.6963 93.4502 89.4427L127.023 70.0687C128.276 69.3528 129.35 67.4735 129.35 66.0566V52.6633Z" fill="#CECBCD"/>
<path d="M92.3618 89.3086C92.6899 91.2325 94.0621 90.099 94.0621 90.099C94.0621 90.099 125.547 72.112 127.963 70.3968C130.379 68.6817 130.096 66.8322 130.096 66.8322C130.096 66.8322 130.096 54.0057 130.096 52.3353C130.096 50.799 128.47 51.8282 128.217 51.9922C128.5 51.8431 128.753 51.7685 128.903 51.7685L129.082 51.7983C129.216 51.8729 129.35 52.1712 129.35 52.6634V66.0418C129.35 67.4587 128.261 69.3379 127.023 70.0538L93.4506 89.4428C93.033 89.6814 92.6899 89.7262 92.5557 89.6516C92.4811 89.6068 92.4066 89.4875 92.3618 89.3086Z" fill="#BDBABA"/>
<path d="M90.333 90.5467C90.5716 91.0389 90.9296 91.4267 91.3919 91.6952C91.7946 91.9338 92.2421 92.0382 92.7193 92.0382C93.3308 92.0382 93.9871 91.8592 94.6284 91.4864L128.201 72.0974C129.946 71.0981 131.348 68.8907 131.646 66.8325C130.617 70.2629 128.35 71.5008 128.35 71.5008L96.9253 89.8308C96.9253 89.8308 94.4793 91.4416 92.8834 91.6057C91.3919 91.7846 90.4374 90.681 90.333 90.5467Z" fill="#A19C9C"/>
<path d="M127.441 49.964C127.441 49.964 128.38 49.4121 129.469 49.6209C130.409 49.9789 130.662 50.2473 130.662 50.2473C130.662 50.2473 129.693 49.8297 129.007 50.1429C128.306 50.4412 93.6294 70.5461 93.6294 70.5461C93.6294 70.5461 91.4519 72.4552 91.3624 74.9459C91.2729 77.4366 91.3624 89.8456 91.3624 89.8456C91.3624 89.8456 91.4221 90.5764 91.78 91.0388C90.915 90.6062 90.5272 90.2035 90.393 89.6219C90.2587 89.0253 90.3184 75.1995 90.3184 75.1995C90.3184 75.1995 90.3035 71.7542 93.3162 69.6363C95.6131 68.2791 127.441 49.964 127.441 49.964Z" fill="#ECEAEA"/>
<path d="M105.845 32.0812C105.681 31.8575 105.531 31.6636 105.412 31.4995C105.367 31.4399 105.323 31.3951 105.278 31.3354C105.323 31.3951 105.367 31.4548 105.412 31.4995C105.516 31.6785 105.666 31.8724 105.845 32.0812Z" fill="#CAC8CA"/>
<path d="M109.32 36.5558C108.276 35.1091 106.739 33.2298 105.845 32.0814C105.681 31.8577 105.531 31.6638 105.412 31.5146C105.367 31.455 105.323 31.4102 105.278 31.3506C105.427 31.7384 105.546 32.0516 105.576 32.1858C105.606 32.3349 105.561 32.4394 105.472 32.5288C106.575 33.6474 108.902 36.0487 109.32 36.5558Z" fill="#5382AC"/>
<path d="M102.578 56.7351C102.877 56.8693 103.085 56.9588 103.16 56.9439L103.399 56.8843C104.637 56.4219 105.71 53.6329 106.068 52.7827C106.441 51.873 108.216 48.2785 108.216 48.2785L106.039 46.3396L105.188 45.579L103.235 43.834C103.235 43.834 102.921 44.5201 102.549 45.3702C102.549 45.3702 102.295 45.922 101.564 47.5477L101.326 48.0697C101.012 48.7558 99.0436 52.2309 98.611 53.7671C98.4321 54.4383 101.296 56.1385 102.578 56.7351Z" fill="#FAC6A9"/>
<path d="M20.3692 77.1531C20.3692 77.1531 16.9836 80.5835 17.3863 81.717C17.789 82.8505 18.0724 84.685 19.5787 86.1168C21.0851 87.5635 24.7094 90.4718 25.0524 90.8447C25.3954 91.2325 25.6639 92.008 27.9906 92.4555C30.3173 92.9029 35.7462 93.5443 36.1936 93.41C36.641 93.2907 40.8917 91.9036 43.114 90.1437C45.3512 88.3689 53.2112 83.5067 53.2112 83.5067C53.2112 83.5067 70.2586 75.5871 73.3608 74.2C76.463 72.813 83.5326 68.2043 84.502 67.0261C85.4565 65.8478 85.6355 61.1647 84.9494 59.882C84.2485 58.5993 75.4638 50.9183 75.4638 50.9183C75.4638 50.9183 68.1556 50.2323 67.6932 50.456C67.2309 50.6797 62.6819 53.0511 61.7423 53.603C60.8027 54.1548 44.9485 65.0275 44.4265 65.5645C43.9045 66.0865 31.7938 72.3506 29.6759 72.977C27.5581 73.6183 21.1597 74.1553 20.3692 77.1531Z" fill="#F0EDF2"/>
<path d="M63.278 52.7681C63.278 52.7681 66.0372 52.4996 67.2751 52.8426C68.5131 53.1857 72.6444 54.9307 74.3894 56.1686C76.1493 57.4065 77.7452 58.0329 78.5208 59.2261C79.2814 60.4193 83.3978 66.2956 84.0839 67.4589C84.5015 68.1748 85.1727 67.9064 85.6798 67.6528C85.993 67.4888 86.2465 67.3247 86.336 67.3993C86.5597 67.5932 89.2444 64.7743 89.2444 64.7743C89.2444 64.7743 91.1236 61.8361 91.929 61.7765C92.7195 61.7168 90.9148 57.839 90.4823 57.3468C90.0497 56.8547 86.6492 52.4996 85.8438 52.2162C85.0384 51.9328 83.3083 49.9194 83.3083 49.9194C83.3083 49.9194 80.4895 47.7418 79.4902 47.1005C78.297 46.325 75.4036 44.9677 74.8219 44.8633C74.5386 44.8037 73.5244 45.2959 72.5251 45.7731C71.4811 46.2802 70.452 46.7724 70.2282 46.6829C69.7957 46.489 65.8135 49.6062 64.337 50.2475C63.1587 50.7546 62.2937 52.082 62.3235 52.2908C62.3533 52.4847 62.2489 52.4847 63.278 52.7681Z" fill="#F7F6F7"/>
<path d="M81.9962 68.0103C80.5196 68.9201 78.4614 70.2326 77.2235 71.1722C75.1205 72.7681 55.7912 81.3142 53.3154 82.6714C50.8396 84.0286 39.6387 91.3815 38.371 92.0378C37.834 92.3211 37.0883 92.2913 36.5066 92.3062C34.5976 92.3808 32.6885 92.2615 30.7943 92.1422C30.0188 92.0974 29.2283 92.0378 28.4528 91.993C27.4684 91.9334 26.842 91.7544 26.0068 91.1727C25.097 90.5314 24.1126 89.9795 23.0835 89.5619C24.1126 90.8595 25.4698 91.8737 26.9911 92.515C27.7518 92.8431 28.5422 93.0818 29.3625 93.2011C29.974 93.3055 30.6154 93.216 31.212 93.395C31.7489 93.559 32.2858 93.8126 32.778 94.0811C33.5386 94.4987 34.2993 94.9312 34.9704 95.483C35.2836 95.7366 35.567 96.02 35.9101 96.2138C36.2531 96.4226 36.6707 96.542 37.0436 96.4376C36.9839 96.0498 36.7154 95.7366 36.4619 95.4532C36.2083 95.1698 35.9399 94.8566 35.8653 94.4688C35.7162 93.7231 36.3127 93.6187 36.8497 93.4994C37.5954 93.3353 38.3113 93.0818 39.0123 92.8133C41.5776 91.8289 48.2892 86.579 54.5384 83.2531C60.7876 79.9271 74.2704 74.0657 77.7306 72.2312C78.4316 71.8583 79.0878 71.4407 79.7441 71.0082C80.281 70.6502 80.9521 70.9336 81.4294 71.3214C81.5935 71.4705 81.7426 71.6346 81.9365 71.739C82.1453 71.8434 82.3989 71.8583 82.6375 71.8732C83.592 71.918 84.5466 71.9329 85.516 71.903C86.0679 71.8881 86.7092 71.8136 87.0224 71.3512C87.1268 71.2021 87.1864 71.038 87.2759 70.8739C87.5146 70.4563 87.6637 70.2028 87.7532 69.7404C87.8576 69.2482 88.0366 68.7411 88.3647 68.3683C88.6183 68.07 88.9464 67.8463 89.2745 67.6375C90.7809 66.668 92.3469 65.803 93.9875 65.0722C94.1516 64.9976 94.3156 64.923 94.4349 64.8037C94.5543 64.6695 94.6288 64.4756 94.5692 64.3115C94.5244 64.1922 94.42 64.1176 94.3156 64.043C93.5848 63.5061 92.7048 63.0139 91.7951 63.1333C90.9748 63.2377 90.3036 63.8342 89.6175 64.3115C88.5884 65.0274 87.4251 65.5345 86.5004 66.3697C86.2319 66.6233 85.9784 66.8917 85.6652 67.1005C85.352 67.3093 84.9642 67.4585 84.5913 67.4585C84.1439 67.4585 83.9798 67.2795 83.7561 66.9216L82.5033 67.6822C81.847 68.07 81.0267 68.0402 80.281 68.0402C80.102 68.0402 79.9081 68.0402 79.7441 67.9358C79.58 67.8463 79.4905 67.6226 79.58 67.4734L79.8335 67.2944C81.0565 66.8022 82.3839 66.5487 83.7113 66.5785L83.9649 66.6233C84.1886 66.7277 84.2035 67.0409 84.1886 67.2795L81.9962 68.0103Z" fill="#C3C2C2"/>
<path d="M98.253 28.9344C98.253 28.9344 97.1046 30.4109 97.6713 31.2312C98.2381 32.0515 100.266 32.3797 101.012 32.499C101.743 32.6034 104.204 32.6481 104.771 32.663C105.337 32.6929 105.636 32.5437 105.576 32.1709C105.516 31.8129 104.577 29.8143 104.636 29.2625C104.681 28.7256 105.591 27.0701 105.337 26.2647C105.084 25.4593 101.072 24.1319 100.654 24.803C100.222 25.4742 98.253 28.9344 98.253 28.9344Z" fill="#F7B590"/>
<path d="M98.8199 27.9498C98.8498 27.9051 98.8796 27.8603 98.9094 27.8007C98.4471 27.7559 98.0444 27.7261 97.7461 27.6963C97.8952 27.7261 98.0295 27.741 98.1339 27.7709C98.2979 27.8156 98.5366 27.8753 98.8199 27.9498Z" fill="#F0CAB7"/>
<path d="M97.7012 31.2761C97.6863 31.2611 97.6863 31.2462 97.6714 31.2313C97.1047 30.411 98.2531 28.9345 98.2531 28.9345C98.2531 28.9345 98.4917 28.5169 98.8049 27.9501C98.5215 27.8606 98.2978 27.801 98.1189 27.7711C97.9995 27.7562 97.8802 27.7264 97.7311 27.6966C97.5223 27.6816 97.3731 27.6816 97.2985 27.6816C96.6423 27.6816 96.6125 28.0098 96.6125 28.0098C96.6125 28.0098 95.8369 29.8592 95.8369 30.068C95.8369 30.2768 96.687 31.0822 97.5073 31.2313C97.5819 31.2462 97.6416 31.2611 97.7012 31.2761Z" fill="#65859D"/>
<path d="M99.3567 31.4847C99.8041 31.4847 100.281 31.425 100.788 31.2311C102.116 30.739 103.891 29.2177 103.891 29.2177C103.786 28.4421 100.833 27.9947 98.8943 27.8008C98.8645 27.8455 98.8347 27.9052 98.8048 27.9499C98.4767 28.5167 98.253 28.9343 98.253 28.9343C98.253 28.9343 97.1046 30.4108 97.6713 31.2311C97.6862 31.2461 97.6862 31.261 97.7012 31.2759C98.1784 31.3654 98.7302 31.4847 99.3567 31.4847Z" fill="#F3966C"/>
<path d="M97.3581 22.3722C97.3581 22.3722 96.7167 24.7287 96.6571 26.3693C96.5974 27.995 96.7764 29.5312 97.2537 29.919C97.7309 30.2918 98.8495 30.6945 99.64 30.7244C100.43 30.7542 102.593 29.9488 103.413 29.561C104.234 29.1732 104.95 28.0696 105.382 27.5028C105.815 26.9361 106.739 26.8018 107.097 26.1605C107.455 25.5192 108.574 23.6996 108.619 23.0732C108.812 21.0895 107.097 18.733 106.128 18.1514C104.472 17.167 100.52 16.4958 99.1627 18.5988C98.7302 19.255 97.5669 21.5519 97.3581 22.3722Z" fill="#FAC6A9"/>
<path d="M106.038 25.8769C106.038 25.8769 106.262 25.2953 106.859 24.8776C107.47 24.46 107.798 24.4153 108.082 24.7434C108.365 25.0715 108.127 25.7129 107.962 26.0857C107.798 26.4586 106.068 27.428 106.068 27.428C106.068 27.428 105.546 27.4877 105.367 27.3087C105.188 27.1298 105.576 26.6227 105.681 26.4586C105.77 26.2945 106.038 25.8769 106.038 25.8769Z" fill="#FCDFCF"/>
<path d="M101.654 19.7769C101.654 19.7769 104.368 21.0446 104.801 21.7605C105.233 22.4764 105.203 23.1476 105.144 23.2669C105.084 23.3862 105.024 24.3855 105.024 24.3855C105.024 24.3855 104.86 25.8322 104.696 26.2796C104.532 26.7271 102.742 27.4131 101.683 26.8911C100.61 26.3691 100.61 25.9515 100.625 25.8918C100.639 25.8322 100.863 25.4295 101.311 25.4891C101.758 25.5339 102.713 25.8024 103.637 25.161C103.772 25.0715 104.159 24.4302 103.846 23.8933C103.533 23.3564 103.488 23.0879 102.176 22.8194C100.863 22.551 100.267 22.1035 100.267 22.1035C100.267 22.1035 101.072 20.0006 101.654 19.7769Z" fill="#FBD5BF"/>
<path d="M100.266 22.1037C100.266 22.1037 98.9388 24.5198 98.6405 25.0866C98.3422 25.6533 98.372 25.8025 98.6703 25.8621C98.9835 25.9218 99.8188 26.0859 99.8188 25.8771C99.8188 25.6683 99.774 25.2357 99.774 25.2357L100.609 22.3125C100.609 22.2976 100.505 21.6711 100.266 22.1037Z" fill="#FBD5BF"/>
<path d="M94.2856 64.0286C94.3006 64.0137 94.3304 63.9987 94.3602 63.9838C94.5541 63.8645 94.7331 63.7303 94.927 63.611C95.0314 63.5364 95.1358 63.4767 95.2402 63.4022C96.4483 62.5818 97.6265 61.7168 98.7899 60.8219C99.1329 60.5684 99.4759 60.2999 99.819 60.0315C100.028 59.8674 100.222 59.7182 100.43 59.5542L100.714 59.3305C101.027 59.0769 101.34 58.8234 101.653 58.5698C101.34 58.8234 101.027 59.0769 100.714 59.3305L100.43 59.5542C100.222 59.7182 100.028 59.8674 99.819 60.0315C99.4759 60.2999 99.1329 60.5535 98.7899 60.8219C97.5669 61.7466 96.2842 62.6713 95.2402 63.4022C95.1358 63.4767 95.0314 63.5364 94.927 63.611C94.7331 63.7452 94.5541 63.8645 94.3602 63.9838C94.3304 63.9987 94.3006 64.0286 94.2856 64.0286Z" fill="#43677D"/>
<path d="M75.7917 71.1277L75.6426 70.8741L80.5942 68.6519L80.7434 68.9054C80.803 68.9949 80.803 69.1291 80.7136 69.2783L79.9827 70.6355C79.8187 70.9338 79.416 71.1873 79.0879 71.1873L76.1348 71.2768C75.9707 71.2768 75.8514 71.2172 75.7917 71.1277Z" fill="#DBDBDC"/>
<path d="M78.9384 70.9189C79.2665 70.904 79.6841 70.6653 79.8332 70.367L80.5641 69.0098C80.7281 68.7115 80.579 68.4878 80.2509 68.4878L77.2978 68.5773C76.9696 68.5922 76.552 68.8308 76.4029 69.1291L75.6721 70.4863C75.508 70.7846 75.6572 71.0084 75.9853 71.0084L78.9384 70.9189Z" fill="white"/>
<path d="M75.6422 70.8443L75.5527 70.7101L80.4745 68.4878L80.564 68.6369C80.6237 68.7264 80.6237 68.8607 80.5342 69.0098L79.8034 70.3521C79.6393 70.6504 79.2366 70.889 78.9085 70.904L75.9853 70.9934C75.8212 70.9934 75.7019 70.9487 75.6422 70.8443Z" fill="#9C9B9C"/>
<path d="M78.8341 70.7697C79.1622 70.7548 79.5649 70.5161 79.729 70.2178L80.4598 68.8755C80.6239 68.5772 80.4747 68.3535 80.1466 68.3535L77.2084 68.443C76.8803 68.4579 76.4776 68.6965 76.3135 68.9948L75.5827 70.3372C75.4187 70.6355 75.5678 70.8592 75.8959 70.8592L78.8341 70.7697Z" fill="#C8C6C7"/>
<path d="M75.5678 70.68L75.4336 70.4712L80.2958 68.2788L80.43 68.5025C80.4897 68.592 80.4897 68.7262 80.4002 68.8754L79.6843 70.2028C79.5351 70.4862 79.1324 70.7397 78.8043 70.7546L75.9109 70.8441C75.7468 70.8292 75.6275 70.7695 75.5678 70.68Z" fill="#9C9B9C"/>
<path d="M78.6852 70.531C79.0133 70.5161 79.416 70.2775 79.5652 69.9792L80.2811 68.6518C80.4302 68.3684 80.296 68.1298 79.9679 68.1447L77.0744 68.2342C76.7463 68.2491 76.3436 68.4877 76.1945 68.786L75.4786 70.1134C75.3294 70.3968 75.4637 70.6354 75.7918 70.6205L78.6852 70.531Z" fill="#59555A"/>
<path d="M75.4183 70.4266L75.1797 70.0538L80.0418 67.8613L80.2805 68.2342C80.3401 68.3237 80.3401 68.4579 80.2506 68.6071L79.5347 69.9344C79.3856 70.2178 78.9829 70.4714 78.6548 70.4863L75.7464 70.5758C75.5973 70.5758 75.478 70.5161 75.4183 70.4266Z" fill="#918D8F"/>
<path d="M75.4037 70.4568L75.1353 70.0243L80.0571 67.8169L80.1913 68.0257C80.251 68.1152 80.251 68.2494 80.1615 68.3986L79.4307 69.7409C79.2666 70.0392 78.8788 70.2778 78.5358 70.2927L76.06 70.3673L76.1644 70.591L75.7318 70.6059C75.5827 70.6059 75.4634 70.5612 75.4037 70.4568Z" fill="#9C9B9C"/>
<path d="M75.1057 70.0242L74.9565 69.7706L79.9082 67.5483L80.0574 67.8019C80.117 67.8914 80.117 68.0256 80.0275 68.1748L79.2967 69.532C79.1326 69.8303 78.7299 70.0838 78.4018 70.0838L75.4487 70.1733C75.2847 70.1733 75.1653 70.1286 75.1057 70.0242Z" fill="#DBDBDC"/>
<path d="M78.252 69.83C78.5801 69.8151 78.9978 69.5765 79.1469 69.2782L79.8777 67.9209C80.0418 67.6226 79.8926 67.3989 79.5645 67.3989L76.6114 67.4884C76.2833 67.5033 75.8657 67.742 75.7165 68.0403L74.9857 69.3975C74.8217 69.6958 74.9708 69.9195 75.3138 69.9195L78.252 69.83Z" fill="white"/>
<path d="M77.5517 69.7107C77.85 69.6958 78.193 69.487 78.3422 69.2185L78.9835 68.0253C79.1177 67.7718 78.9984 67.563 78.7001 67.5779L76.6121 67.6376C76.3138 67.6525 75.9558 67.8613 75.8216 68.1297L75.1803 69.3229C75.046 69.5764 75.1653 69.7852 75.4636 69.7852L77.5517 69.7107Z" fill="#DBDBDC"/>
<path d="M78.9531 68.8755C79.1171 68.8755 79.311 68.7562 79.3856 68.6071C79.4602 68.4579 79.4005 68.3535 79.2364 68.3535C79.0724 68.3535 78.8785 68.4728 78.8039 68.622C78.7144 68.7562 78.789 68.8755 78.9531 68.8755Z" fill="#DBDBDC"/>
<path d="M78.9684 68.8158C79.1026 68.8158 79.2667 68.7114 79.3264 68.5921C79.386 68.4728 79.3264 68.3833 79.1921 68.3833C79.0579 68.3833 78.8938 68.4877 78.8342 68.607C78.7894 68.7413 78.8342 68.8307 78.9684 68.8158Z" fill="white"/>
<path d="M79.2519 68.6074C79.2967 68.5328 79.2519 68.4731 79.1624 68.4731C79.0729 68.4731 78.9685 68.5477 78.9238 68.6223C78.8791 68.6969 78.9238 68.7565 79.0133 68.7565C79.1028 68.7416 79.2072 68.682 79.2519 68.6074ZM78.9536 68.6074C78.9835 68.5477 79.073 68.4881 79.1475 68.4881C79.2221 68.4881 79.2519 68.5328 79.2221 68.6074C79.1923 68.667 79.1028 68.7267 79.0282 68.7267C78.9536 68.7267 78.9238 68.682 78.9536 68.6074Z" fill="#DBDBDC"/>
<path d="M77.9543 69.2486L78.6105 68.0107L76.2092 68.0853L75.5381 69.3232L77.9543 69.2486Z" fill="#1E1C1A"/>
<path d="M78.178 68.5029L78.1929 68.5328L78.0736 68.7565L78.0139 68.7863L77.999 68.7565L78.1183 68.5328L78.178 68.5029Z" fill="#56BDB6"/>
<path d="M77.8501 68.5029L77.865 68.5328L77.7457 68.7565L77.7009 68.7863L77.686 68.7565L77.8054 68.5328L77.8501 68.5029Z" fill="#56BDB6"/>
<path d="M77.7007 68.7861L77.7156 68.816L77.5963 69.0397L77.5515 69.0695L77.5366 69.0397L77.6559 68.816L77.7007 68.7861Z" fill="#56BDB6"/>
<path d="M78.0139 68.7862L77.9692 68.816H77.7156L77.7007 68.7862L77.7454 68.7563H77.999L78.0139 68.7862Z" fill="#56BDB6"/>
<path d="M78.1777 68.503L78.1181 68.5328H77.8645L77.8496 68.503L77.8944 68.4731H78.1479L78.1777 68.503Z" fill="#56BDB6"/>
<path d="M77.865 69.0547L77.8202 69.0846L77.5667 69.0995L77.5518 69.0696L77.5965 69.0398L77.85 69.0249L77.865 69.0547Z" fill="#56BDB6"/>
<path d="M77.4021 68.5176L77.417 68.5474L77.2977 68.7711L77.253 68.801L77.2231 68.7711L77.3425 68.5474L77.4021 68.5176Z" fill="#56BDB6"/>
<path d="M77.2532 68.8008L77.2681 68.8306L77.1488 69.0543L77.104 69.0842L77.0742 69.0543L77.1935 68.8306L77.2532 68.8008Z" fill="#56BDB6"/>
<path d="M77.7156 68.5176L77.6708 68.5474H77.4173L77.4023 68.5176L77.4471 68.4878H77.7006L77.7156 68.5176Z" fill="#56BDB6"/>
<path d="M76.9546 68.5327L76.9844 68.5625L76.8651 68.7863L76.8054 68.8161L76.7905 68.7863L76.9099 68.5625L76.9546 68.5327Z" fill="#56BDB6"/>
<path d="M76.6416 68.5474L76.6565 68.5772L76.5372 68.8009L76.4925 68.8307L76.4775 68.8009L76.5969 68.5772L76.6416 68.5474Z" fill="#56BDB6"/>
<path d="M76.8057 68.8159L76.8206 68.8457L76.7013 69.0695L76.6565 69.0993L76.6416 69.0695L76.7609 68.8457L76.8057 68.8159Z" fill="#56BDB6"/>
<path d="M76.4927 68.8311L76.5076 68.8609L76.3883 69.0697L76.3435 69.1144L76.3286 69.0846L76.4479 68.8609L76.4927 68.8311Z" fill="#56BDB6"/>
<path d="M76.8059 68.816L76.7611 68.8458L76.5076 68.8607L76.4927 68.8309L76.5374 68.8011L76.791 68.7861L76.8059 68.816Z" fill="#56BDB6"/>
<path d="M76.9548 68.5328L76.9101 68.5626L76.6565 68.5775L76.6416 68.5477L76.6863 68.5178L76.9399 68.5029L76.9548 68.5328Z" fill="#56BDB6"/>
<path d="M76.6565 69.0992L76.6117 69.129H76.3582L76.3433 69.1141L76.388 69.0693H76.6416L76.6565 69.0992Z" fill="#56BDB6"/>
<path d="M76.1494 68.5625L76.1793 68.5923L76.0599 68.816L76.0003 68.8459L75.9854 68.816L76.1047 68.5923L76.1494 68.5625Z" fill="#56BDB6"/>
<path d="M76.3284 68.8311L76.3433 68.8609L76.224 69.0846L76.1792 69.1144L76.1494 69.0846L76.2687 68.8609L76.3284 68.8311Z" fill="#56BDB6"/>
<path d="M76.3286 68.8306L76.269 68.8604L76.0154 68.8754L76.0005 68.8455L76.0601 68.8157L76.2988 68.8008L76.3286 68.8306Z" fill="#56BDB6"/>
<path d="M76.4775 68.5474L76.4179 68.5772L76.1792 68.5922L76.1494 68.5623L76.2091 68.5325L76.4626 68.5176L76.4775 68.5474Z" fill="#56BDB6"/>
<path d="M76.1792 69.1143L76.1195 69.1441H75.866L75.8511 69.1143L75.8958 69.0845H76.1494L76.1792 69.1143Z" fill="#56BDB6"/>
<path d="M78.3268 68.2492C78.297 68.2492 78.2821 68.2492 78.2672 68.2642C78.2373 68.2642 78.2373 68.2492 78.2373 68.2343C78.2523 68.2194 78.2672 68.2194 78.2821 68.2045L78.3119 68.1896C78.3268 68.1896 78.3566 68.1747 78.3716 68.1448C78.3865 68.115 78.3716 68.1001 78.3417 68.1001C78.3268 68.1001 78.297 68.115 78.2821 68.115V68.1299C78.297 68.115 78.3119 68.115 78.3268 68.115C78.3417 68.115 78.3566 68.1299 78.3417 68.1299C78.3268 68.1448 78.3119 68.1448 78.297 68.1598L78.2672 68.1747C78.2373 68.1896 78.2224 68.1896 78.2075 68.2194C78.1926 68.2492 78.2075 68.2642 78.2373 68.2642C78.2672 68.2791 78.297 68.2642 78.3268 68.2492Z" fill="#56BDB6"/>
<path d="M78.238 68.1147H78.1932C78.1485 68.1147 78.1187 68.1297 78.1037 68.1595C78.0888 68.1893 78.1037 68.2042 78.1485 68.2042H78.1783L78.1485 68.2639H78.1634L78.238 68.1147ZM78.1485 68.2042C78.1187 68.2042 78.1037 68.1893 78.1186 68.1744C78.1336 68.1446 78.1485 68.1446 78.1783 68.1446H78.2081L78.1783 68.2042H78.1485Z" fill="#56BDB6"/>
<path d="M78.0436 68.2045C78.0734 68.1597 78.0585 68.1299 78.0137 68.1299C77.969 68.1299 77.9243 68.1597 77.8944 68.2194C77.8646 68.2641 77.8795 68.294 77.9243 68.294C77.969 68.279 78.0287 68.2492 78.0436 68.2045ZM77.9243 68.2045C77.9392 68.1597 77.9839 68.1448 78.0137 68.1448C78.0436 68.1448 78.0585 68.1746 78.0287 68.2045C78.0137 68.2492 77.969 68.2641 77.9392 68.2641C77.9093 68.2641 77.8944 68.2492 77.9243 68.2045Z" fill="#56BDB6"/>
<path d="M77.8194 68.2786C77.8046 68.249 77.7898 68.2342 77.8046 68.2194C77.8046 68.2046 77.8194 68.2046 77.8342 68.2046L77.849 68.2194H77.8638C77.8638 68.2046 77.849 68.2046 77.8342 68.2046C77.8194 68.2046 77.7898 68.2194 77.7898 68.2342C77.775 68.249 77.7898 68.2638 77.8046 68.2933H77.7898H77.7603V68.3081L77.8194 68.2786Z" fill="#56BDB6"/>
<path d="M77.0884 68.3081L77.1476 68.2046H77.1328L77.118 68.2342V68.249L77.1032 68.2342C77.0884 68.2342 77.0589 68.249 77.0589 68.2638C77.0441 68.2933 77.0589 68.3081 77.0737 68.3081C77.0737 68.3081 77.0737 68.3081 77.0884 68.3081ZM77.0589 68.2786C77.0737 68.2638 77.0737 68.249 77.0884 68.249L77.1032 68.2638L77.0884 68.3081C77.0737 68.3081 77.0737 68.3229 77.0589 68.3229C77.0589 68.3081 77.0589 68.2933 77.0589 68.2786Z" fill="#56BDB6"/>
<path d="M77.029 68.2786C77.0438 68.249 77.029 68.249 77.0142 68.249C76.9995 68.249 76.9699 68.2638 76.9699 68.2786H77.029C77.0142 68.2934 76.9995 68.3082 76.9847 68.3082H76.9699L76.9551 68.323H76.9699C76.9994 68.3082 77.0142 68.2934 77.029 68.2786ZM76.9847 68.2786C76.9995 68.2638 76.9995 68.2638 77.0142 68.2638C77.029 68.2638 77.029 68.2638 77.029 68.2786H76.9847Z" fill="#56BDB6"/>
<path d="M76.9397 68.2937C76.9545 68.2789 76.9397 68.2641 76.9101 68.2641C76.9101 68.2493 76.9249 68.2493 76.9397 68.2493H76.9545L76.9693 68.2345C76.9693 68.2345 76.9545 68.2197 76.9397 68.2197C76.9249 68.2197 76.9101 68.2345 76.8953 68.2493L76.8657 68.2937H76.8805V68.2789L76.8953 68.2937C76.9249 68.3233 76.9397 68.3085 76.9397 68.2937ZM76.8953 68.2937L76.9101 68.2789C76.9397 68.2789 76.9397 68.2937 76.9397 68.2937L76.9249 68.3085L76.8953 68.2937Z" fill="#56BDB6"/>
<path d="M76.8497 68.2937L76.8645 68.2493H76.8793V68.2345L76.8941 68.2197H76.8793L76.8645 68.2345H76.8497V68.2493H76.8645L76.8497 68.2937L76.8201 68.3085H76.8053L76.7905 68.3233H76.8053C76.8349 68.3233 76.8497 68.3085 76.8497 68.2937Z" fill="#56BDB6"/>
<path d="M76.8055 68.2197L76.7759 68.3381H76.7907L76.8055 68.2197Z" fill="#56BDB6"/>
<path d="M76.761 68.249L76.7461 68.2639L76.7311 68.249C76.7162 68.249 76.7162 68.249 76.7013 68.2639L76.6864 68.249C76.6715 68.249 76.6566 68.2639 76.6416 68.2789L76.6118 68.3236H76.6267L76.6566 68.2789C76.6566 68.2639 76.6715 68.2639 76.6864 68.2639L76.7013 68.2789L76.6715 68.3236H76.6864L76.7162 68.2789C76.7162 68.2639 76.7311 68.2639 76.7461 68.2639L76.761 68.2789L76.7311 68.3236H76.7461L76.761 68.249Z" fill="#56BDB6"/>
<path d="M76.6412 68.2344H76.6264H76.6412ZM76.6264 68.2492L76.582 68.3231H76.5968L76.6264 68.2492Z" fill="#56BDB6"/>
<path d="M76.5811 68.249L76.5663 68.2638L76.5515 68.249C76.5367 68.249 76.5219 68.2638 76.5071 68.2786L76.4775 68.323H76.4923L76.5219 68.2786C76.5219 68.2638 76.5367 68.2638 76.5515 68.2638L76.5663 68.2786L76.5367 68.323H76.5515L76.5811 68.249Z" fill="#56BDB6"/>
<path d="M76.4769 68.3085L76.5065 68.2642H76.4917L76.4769 68.3085C76.4622 68.3233 76.4474 68.3233 76.4326 68.3233L76.4178 68.3085L76.4474 68.2642H76.4326L76.3882 68.3381H76.403L76.4178 68.3233C76.4178 68.3381 76.4326 68.3381 76.4326 68.3381C76.4474 68.3233 76.4622 68.3233 76.4769 68.3085Z" fill="#56BDB6"/>
<path d="M76.3731 68.3083L76.3879 68.264H76.4027V68.2492H76.3879L76.4027 68.2344H76.3879L76.3731 68.2492H76.3583V68.264H76.3731V68.3083L76.3436 68.3231H76.3288L76.314 68.3379H76.3288C76.3583 68.3379 76.3731 68.3231 76.3731 68.3083Z" fill="#56BDB6"/>
<path d="M76.3427 68.2937C76.3575 68.2642 76.3427 68.2642 76.3279 68.2642C76.3131 68.2642 76.2835 68.279 76.2835 68.2937H76.3427C76.3131 68.3085 76.2983 68.3233 76.2835 68.3233H76.2687L76.2539 68.3381H76.2687C76.2983 68.3381 76.3279 68.3233 76.3427 68.2937ZM76.2835 68.2937C76.2983 68.279 76.2983 68.2642 76.3131 68.2642C76.3279 68.2642 76.3279 68.2789 76.3279 68.2789L76.2835 68.2937Z" fill="#56BDB6"/>
<path d="M79.6098 69.8749C79.6695 69.9793 79.8633 69.8004 80.0423 69.4573C80.2213 69.1292 80.3108 68.7712 80.2511 68.6668C80.1915 68.5624 79.9976 68.7414 79.8186 69.0845C79.6396 69.4126 79.5352 69.7705 79.6098 69.8749Z" fill="#59555A"/>
<path d="M75.3892 70.2627L75.4637 70.1434C75.5085 70.0688 75.598 70.0241 75.7322 70.0092C76.0007 69.9943 76.3139 70.1732 76.463 70.3969C76.5227 70.5013 76.5376 70.6057 76.5078 70.6803L76.4332 70.8295L76.3884 70.7996C76.3437 70.8146 76.299 70.8295 76.2393 70.8295C75.9708 70.8444 75.6576 70.6654 75.5085 70.4417C75.4786 70.382 75.4488 70.3373 75.4488 70.2776L75.3892 70.2627Z" fill="white"/>
<path d="M75.434 70.5459C75.5682 70.7696 75.8964 70.9486 76.1648 70.9337C76.4333 70.9188 76.5228 70.7398 76.3885 70.5161C76.2543 70.2924 75.9262 70.1134 75.6577 70.1283C75.3893 70.1432 75.2849 70.3222 75.434 70.5459Z" fill="#EEEEEF"/>
<path d="M75.5677 70.5462C75.6572 70.6954 75.8958 70.8296 76.0748 70.8147C76.1792 70.8147 76.2538 70.77 76.2687 70.6954C76.2389 70.7401 76.1792 70.755 76.1046 70.755C75.9256 70.755 75.7019 70.6357 75.5975 70.4866C75.5528 70.4269 75.5528 70.3524 75.5677 70.3076C75.508 70.3822 75.508 70.4568 75.5677 70.5462Z" fill="white"/>
<path d="M75.5978 70.5015C75.6873 70.6506 75.9259 70.7849 76.1049 70.77C76.1795 70.77 76.2392 70.7401 76.269 70.7103C76.2839 70.6656 76.269 70.6059 76.2392 70.5313C76.1497 70.3822 75.911 70.2479 75.7321 70.2629C75.6575 70.2629 75.5978 70.2927 75.568 70.3225C75.5531 70.3673 75.5531 70.4269 75.5978 70.5015Z" fill="#9C9B9C"/>
<path d="M82.3094 67.071L82.2497 68.0106L81.0565 68.8756L80.1169 68.5028C80.0274 68.4133 79.5651 69.5319 79.5502 69.6661C79.5352 69.8003 80.266 70.2329 80.3108 70.3223V70.3372L80.445 70.4267H80.4599L81.5934 71.1725C81.5934 71.1725 81.8321 71.4111 82.2646 71.4111C82.6971 71.4111 83.4279 71.4111 83.4279 71.4111C83.4279 71.4111 83.5771 71.4558 83.8903 71.4409C84.0245 71.426 84.2035 71.4111 84.4123 71.3514C85.0536 71.1874 85.7248 70.9935 85.7248 70.9935L85.8143 71.0084C85.8889 71.0233 86.0082 71.0382 86.1275 71.0532C86.3512 71.0681 86.6048 71.0532 86.6644 70.9338C86.7837 70.6952 87.9918 67.7719 88.2155 67.4438C88.4243 67.1157 91.4967 65.848 94.3454 63.9836C94.5393 63.8643 94.7183 63.7301 94.9122 63.6108C95.0166 63.5362 95.121 63.4765 95.2254 63.402C96.2694 62.6861 97.5521 61.7464 98.7751 60.8217C99.1181 60.5682 99.4611 60.2997 99.8042 60.0313C100.013 59.8672 100.207 59.7181 100.416 59.554L100.699 59.3303C101.012 59.0767 101.325 58.8232 101.639 58.5696C101.847 58.4056 102.041 58.2415 102.22 58.0775L102.25 58.0476C102.906 57.4809 103.339 57.0633 103.399 56.8992L103.414 56.8545C103.533 56.4816 103.473 56.2728 103.324 55.9447L103.309 55.9148C103.22 55.7359 103.1 55.5121 102.966 55.1989C102.563 54.3041 99.4164 53.5732 99.4164 53.5732C99.4164 53.5732 98.8347 53.618 98.611 53.7522C98.3724 53.8715 87.2461 63.4169 86.4407 63.7152C85.6353 64.0135 82.8015 64.7592 82.8015 64.7592C82.8015 64.7592 81.2355 65.6242 80.9223 65.8629C80.6091 66.1015 79.5054 67.2947 79.4756 67.4289C79.4457 67.5631 79.8783 68.0553 80.5047 67.9062C81.1311 67.7719 82.2348 67.1157 82.3094 67.071Z" fill="#FAC6A9"/>
<path d="M103.398 56.8842C104.636 56.4218 105.71 53.6328 106.068 52.7827C106.336 52.1264 107.366 50.0085 107.888 48.9347C107.724 48.8154 107.574 48.6811 107.47 48.5618C107.231 48.2934 106.217 47.9354 104.994 47.6968C105.233 47.7714 105.486 47.8459 105.725 47.9205C106.217 48.0995 106.754 48.4574 106.784 48.9794C106.814 49.3523 106.575 49.6804 106.366 50.0085C105.516 51.3807 105.263 53.0511 104.517 54.4978C104.412 54.7066 104.293 54.9005 104.144 55.0646C103.98 55.2286 103.786 55.348 103.637 55.5269C103.518 55.6612 103.413 55.8103 103.324 55.9744C103.458 56.3025 103.518 56.5113 103.398 56.8842Z" fill="#F5A67F"/>
<path d="M86.2915 71.068C86.4704 71.068 86.6345 71.0381 86.6792 70.9486C86.7986 70.71 88.0066 67.7867 88.2304 67.4586C88.4392 67.1305 91.4668 65.8777 94.2857 64.0432C94.3006 64.0283 94.3304 64.0134 94.3603 63.9984C94.5542 63.8791 94.7331 63.7449 94.927 63.6256C95.0314 63.551 95.1358 63.4913 95.2402 63.4168C96.2842 62.7009 97.5669 61.7613 98.7899 60.8365C99.1329 60.583 99.476 60.3145 99.819 60.0461C100.028 59.882 100.222 59.7329 100.431 59.5688L100.714 59.3451C101.027 59.0915 101.34 58.838 101.654 58.5844C101.847 58.4204 102.041 58.2563 102.235 58.0923L102.265 58.0624C102.921 57.4957 103.354 57.0781 103.413 56.914L103.428 56.8693C103.548 56.4964 103.488 56.2876 103.339 55.9595C103.279 56.0639 103.22 56.1832 103.145 56.2876C102.996 56.5113 102.802 56.6157 102.608 56.7201C102.444 56.8096 102.265 56.8842 102.101 57.0184C101.862 57.1974 101.654 57.4062 101.415 57.6001C99.8339 58.9573 98.2381 60.2996 96.6124 61.5972C95.1358 62.7754 93.6145 64.0432 91.9143 64.8784C88.3348 66.6532 87.6338 67.5332 87.6338 67.5332C87.6338 67.5332 87.1118 69.5765 86.903 69.8002C86.7389 69.9792 86.3213 70.7398 86.1572 71.053C86.1871 71.068 86.2318 71.068 86.2915 71.068Z" fill="#F5A67F"/>
<path d="M101.385 43.6404C101.355 43.8343 101.34 44.5203 101.34 45.2512C101.34 46.325 101.34 47.5182 101.34 47.5182C103.399 47.1602 106.993 48.0104 107.47 48.5473C107.604 48.6964 107.783 48.8456 107.992 48.9947C108.544 49.3974 109.245 49.7703 109.245 49.7703C109.245 49.7703 109.707 47.7121 109.752 46.7277C109.797 45.7433 110.602 40.3293 110.349 38.808C110.11 37.2868 109.588 37.1376 109.588 37.1376L109.573 37.1078L109.499 36.9736C109.29 36.5858 108.648 35.7058 107.44 35.6014C105.889 35.4672 102.533 37.0183 102.131 38.3159C101.743 39.6134 101.475 43.1631 101.385 43.6404Z" fill="#92ACDA"/>
<path d="M109.573 37.1225C109.513 36.9882 109.454 36.8391 109.394 36.6899C109.424 36.7794 109.454 36.8689 109.498 36.9882L109.573 37.1225Z" fill="#5382AC"/>
<path d="M109.245 49.785C109.245 49.785 109.707 47.7268 109.752 46.7424C109.752 46.6828 109.752 46.6231 109.767 46.5336C109.857 45.3554 110.408 41.5522 110.408 39.5983C110.408 39.2851 110.393 39.0167 110.364 38.8228C110.125 37.3015 109.603 37.1523 109.603 37.1523L109.588 37.1225L109.513 36.9883C109.663 37.4805 109.842 38.2113 109.871 38.8377C109.886 39.0763 109.871 39.3 109.827 39.479C109.648 40.3142 108.977 42.6558 108.872 43.6402C108.783 44.5202 108.201 47.9058 107.992 49.0095C108.544 49.4121 109.245 49.785 109.245 49.785Z" fill="#748FC9"/>
<path d="M83.8906 71.4562C84.0249 71.4413 84.2038 71.4263 84.4126 71.3667C84.6214 71.307 84.8302 71.2474 85.0241 71.2026C84.8302 71.2474 84.6214 71.307 84.4126 71.3667C84.2038 71.4114 84.0398 71.4413 83.8906 71.4562C83.8906 71.4413 83.8906 71.4562 83.8906 71.4562Z" fill="#BDA091"/>
<path d="M83.9053 71.4408C84.0395 71.4259 84.2185 71.4109 84.4124 71.3513C84.6212 71.2916 84.83 71.2469 85.0239 71.1872C85.4266 71.0828 85.7249 70.9933 85.7249 70.9933L85.8143 71.0083L85.5906 70.8591C85.5906 70.8591 85.8293 70.3818 85.6801 70.3818C85.6652 70.3818 85.6503 70.3818 85.6205 70.3968C85.3967 70.5161 84.0544 71.411 83.9053 71.4408Z" fill="#F5A67F"/>
<path d="M82.2495 67.9204L82.2643 67.8169L82.2495 67.9204Z" fill="#EBC4B4"/>
<path d="M82.2644 67.817L82.3092 67.0713L82.2644 67.817ZM82.2495 68.0109V67.9363V68.0109Z" fill="#BDA091"/>
<path d="M82.2495 68.0106L83.6664 66.5639L83.3681 66.1016L82.3092 67.071L82.2644 67.8167L82.2495 67.9211V68.0106Z" fill="#F5A67F"/>
<path d="M81.6231 71.2174C81.5932 71.2025 81.5783 71.1876 81.5783 71.1876L80.4448 70.4419L81.5783 71.1876C81.5932 71.1876 81.5932 71.1876 81.6231 71.2174ZM83.7409 71.4561C83.7857 71.4561 83.8304 71.4561 83.8901 71.4561C83.8304 71.4561 83.7857 71.4561 83.7409 71.4561C83.726 71.4561 83.7111 71.4561 83.6962 71.4561C83.7111 71.4561 83.726 71.4561 83.7409 71.4561Z" fill="#BDA091"/>
<path d="M83.7407 71.4559C83.7854 71.4559 83.8302 71.4559 83.8898 71.4559C83.7854 71.441 83.4424 71.098 83.4424 71.098L84.6505 70.3224L82.4282 71.1576L81.8913 71.0234L83.6512 69.7109C83.5468 69.7706 81.7869 70.6506 81.6974 70.6804L80.4595 70.4567L81.593 71.2024C81.593 71.2024 81.6079 71.2173 81.6377 71.2322C81.7272 71.2919 81.936 71.441 82.2641 71.441C82.5177 71.441 82.8906 71.441 83.1441 71.441C83.3082 71.441 83.4275 71.441 83.4275 71.441C83.4275 71.441 83.517 71.4708 83.6959 71.4708C83.7109 71.4559 83.7258 71.4559 83.7407 71.4559Z" fill="#F5A67F"/>
<path d="M34.6124 98.2425L33.1507 97.4073C31.9874 94.5884 29.9143 91.9635 27.5578 90.5913L10.4954 80.7477C8.12403 79.3755 6.06581 79.6142 4.90247 81.0907L3.44084 80.2555C1.83006 79.3159 0.517578 80.0616 0.517578 81.911V97.1686C0.517578 99.0181 1.83006 101.27 3.44084 102.195L34.6124 120.197C36.2231 121.121 37.5356 120.376 37.5356 118.526V103.284C37.5356 101.434 36.2231 99.1821 34.6124 98.2425Z" fill="#D7D8D8"/>
<path d="M3.44084 80.2555L4.90247 81.0907C6.06581 79.6142 8.13894 79.3755 10.4954 80.7477L27.5727 90.6062C29.9441 91.9784 32.0023 94.6033 33.1656 97.4222L34.6273 98.2574C36.238 99.1821 37.5505 101.434 37.5505 103.284V104.014C37.5505 102.165 36.238 99.9129 34.6273 98.9882L33.1656 98.153C32.0023 95.3342 29.9292 92.7092 27.5727 91.337L10.4954 81.4636C8.12402 80.1063 6.06581 80.3301 4.90247 81.8066L3.44084 80.9714C1.83006 80.0467 0.517578 80.7924 0.517578 82.6418V81.911C0.517578 80.0616 1.83006 79.3159 3.44084 80.2555Z" fill="#F0F0F0"/>
<path d="M67.2007 43.7593L67.7973 46.071C67.663 45.3999 67.3647 43.983 67.3051 43.8935L67.2007 43.7593Z" fill="#613B37"/>
<path fill-rule="evenodd" clip-rule="evenodd" d="M96.7018 25.6381C97.4923 24.594 98.596 23.9975 99.5803 23.3263C100.416 23.3114 100.818 23.5649 100.982 24.0869C101.385 25.474 101.579 26.876 101.728 28.3078C101.191 29.2325 99.9383 30.4107 99.2224 30.7836C98.6258 30.9029 97.7757 30.6643 96.9106 30.4555C96.2395 30.4257 95.7771 30.0826 95.4341 29.5755C95.8517 28.263 96.2693 26.9506 96.7018 25.6381Z" fill="#A9D1E2"/>
<path fill-rule="evenodd" clip-rule="evenodd" d="M98.5513 23.9975C99.4163 24.0571 99.819 25.2205 100.281 26.1601C100.52 26.3987 100.774 26.2346 100.699 25.8021C100.132 24.6686 99.5804 23.6693 99.0285 23.6842C98.8645 23.8036 98.7004 23.908 98.5513 23.9975Z" fill="#DADADA"/>
<path fill-rule="evenodd" clip-rule="evenodd" d="M100.818 27.1296C101.206 27.3086 101.385 27.7709 101.206 28.1886C101.027 28.5913 100.565 28.7851 100.162 28.6211C99.7742 28.4421 99.5953 27.9798 99.7742 27.5621C99.9532 27.1595 100.416 26.9656 100.818 27.1296Z" fill="white"/>
<path d="M101.684 27.9499C103.414 26.8015 105.666 26.4435 106.889 24.8477" stroke="black" stroke-width="0.1956" stroke-miterlimit="22.9256" stroke-linecap="round" stroke-linejoin="round"/>
<path d="M109.692 23.8486C110.08 22.2229 108.305 21.0894 108.305 21.0894C108.305 21.0894 109.319 23.3116 107.097 23.4011C106.888 23.416 106.724 23.4608 106.56 23.5204C106.217 23.7889 105.516 24.296 105.322 24.6241C105.68 24.9373 105.606 25.1461 106.128 25.34C106.665 25.5339 107.306 25.6532 107.858 25.5041C108.335 25.3698 108.738 25.1163 109.096 24.8031C109.319 24.5197 109.528 24.1916 109.692 23.8486Z" fill="#C6C6C6"/>
<path d="M96.0607 28.2186C93.7788 28.0098 90.2738 29.9337 87.2909 29.367C84.651 28.8748 81.3847 31.7533 79.252 32.7526" stroke="#A9D1E2" stroke-width="0.1956" stroke-miterlimit="22.9256" stroke-linecap="round" stroke-linejoin="round"/>
<path fill-rule="evenodd" clip-rule="evenodd" d="M97.9995 27.8903L96.9704 30.038C97.4327 31.5891 98.2679 32.1558 97.9995 33.9307C97.4625 35.1686 96.4334 37.3312 96.329 38.7928C96.1799 40.7914 95.2701 41.5819 94.3901 43.3567C93.9129 44.3411 87.8874 40.0457 88.2304 39.0911C88.5585 38.1217 89.1402 36.8539 89.6622 35.974C90.1544 35.1238 91.0642 34.5869 91.6458 33.7815C92.2573 32.9314 92.3319 31.6637 93.1821 31.0522L95.628 29.2475L96.508 27.1445C96.6273 27.5621 97.2687 27.7411 97.9995 27.8903Z" fill="#ECECEC"/>
<path fill-rule="evenodd" clip-rule="evenodd" d="M95.9113 28.5767C96.0605 28.9048 96.5526 29.1285 97.358 29.2627L96.9852 30.0383C96.2693 29.8891 95.7323 29.6654 95.6279 29.2627L95.9113 28.5767Z" fill="#00749C"/>
<path fill-rule="evenodd" clip-rule="evenodd" d="M96.2244 32.3945C97.7457 34.2439 95.4786 35.9144 95.5085 36.7794C95.4936 36.7794 93.7635 41.0003 92.7791 40.0308C92.1229 36.0934 94.1811 35.0642 96.2244 32.3945Z" fill="#DADADA"/>
</g>
<defs>
<clipPath id="clip0">
<rect x="0.517578" width="134.992" height="124" fill="white"/>
</clipPath>
</defs>
</svg>
