<svg width="62" height="115" viewBox="0 0 62 125" fill="none" xmlns="http://www.w3.org/2000/svg">
<g clip-path="url(#clip0)">
<path d="M14.5184 91.2413C14.5184 91.2413 14.2071 93.8591 14.0656 94.3119C13.9241 94.7648 13.7826 96.4911 14.9004 97.0147C16.0183 97.5382 18.4805 98.5429 18.7069 98.6703C18.9333 98.7976 20.603 100.637 22.8812 101.288C25.1594 101.939 25.6405 101.698 26.5037 100.439C27.3669 99.1797 26.6169 97.8354 25.8669 96.9298C25.1311 96.0241 21.6926 93.7318 21.6926 93.7318L20.6596 92.1469L20.0936 89.2886L14.5184 91.2413Z" fill="#D06A13"/>
<path d="M20.6027 91.1422C20.5037 91.8214 19.5273 93.0949 17.4047 93.0525C16.5557 93.0383 15.7775 92.8119 15.1548 92.5431C14.2351 92.161 13.6408 91.694 13.6408 91.694C13.6408 91.694 12.6644 81.8737 12.1125 77.289C11.8295 74.841 11.3201 69.2516 11.2494 64.3556C11.1786 60.1388 11.4333 56.4173 12.4097 55.6107C14.5181 53.856 18.2821 48.1252 18.2821 48.1252C18.367 47.9271 24.7205 46.9507 24.7205 46.9507C24.7205 46.9507 25.8525 50.559 25.1874 57.238C24.5224 63.9028 21.4517 75.7325 21.2961 76.3975C21.1546 77.0484 20.7018 90.4771 20.6027 91.1422Z" fill="#2A8967"/>
<path d="M15.155 92.543C14.2352 92.1609 13.6409 91.694 13.6409 91.694C13.6409 91.694 12.6645 81.8736 12.1127 77.2889C11.8297 74.8409 11.3203 69.2515 11.2495 64.3555L19.2586 57.3511C19.2586 57.3511 18.4662 62.8273 18.2681 64.0725C18.07 65.3177 15.9616 69.9166 15.905 70.3128C15.8484 70.6948 14.2635 77.6851 14.4192 80.402C14.5182 82.1425 14.9144 88.0998 15.155 92.543Z" fill="#1E664D"/>
<path d="M8.26355 93.9299C8.26355 93.9299 10.2021 95.8685 10.6408 96.3354C11.0795 96.8165 16.4283 100.496 16.6688 101.373C16.9094 102.25 16.2443 103.524 14.4755 104.543C12.7068 105.561 10.7823 105.604 9.67859 104.769C8.58901 103.92 6.43816 101.854 5.9146 101.274C5.40518 100.694 4.14581 99.8164 3.8062 99.2645C3.46659 98.7127 2.53267 97.8637 2.60342 96.675C2.67417 95.5006 4.1175 93.4771 4.1175 93.4771L8.26355 93.9299Z" fill="#D06A13"/>
<path d="M17.6033 60.2379C17.5325 60.7615 13.1742 73.3836 13.061 75.591C12.9478 77.7985 10.5423 95.5288 10.5423 95.5288C10.5423 95.5288 8.00935 97.3259 6.59432 96.8448C5.8585 96.5901 4.82552 96.01 4.04726 95.3307C3.33974 94.7081 2.84448 93.9865 2.92938 93.3497C3.12748 92.0054 1.42944 80.6427 1.74075 79.2135C2.05206 77.7843 2.46242 74.7137 2.49072 74.0911C2.53317 73.4685 2.74542 66.6622 2.56147 65.4169C2.37752 64.1717 0.622874 57.0965 1.16059 52.9929C1.71245 48.9035 2.78788 45.7621 2.78788 45.7621L3.36804 45.6065L8.66026 44.2197L19.6409 46.8375C19.6409 46.8375 20.3484 52.809 20.0796 55.0023C19.7966 57.1673 17.674 59.7143 17.6033 60.2379Z" fill="#2A8967"/>
<path d="M4.04726 95.3307C3.33974 94.7081 2.84448 93.9864 2.92938 93.3497C3.12748 92.0054 1.42944 80.6427 1.74075 79.2135C2.05206 77.7843 2.46242 74.7137 2.49072 74.0911C2.53317 73.4685 2.74542 66.6621 2.56147 65.4169C2.37752 64.1717 0.622874 57.0965 1.16059 52.9929C1.71245 48.9035 2.78788 45.7621 2.78788 45.7621L3.36804 45.6064C3.39634 46.0734 3.43879 46.5404 3.46709 47.0356C3.53784 48.0686 2.98598 49.1582 3.33974 50.1912C3.49539 50.6581 3.96235 50.9411 4.40101 51.1109C4.95288 51.3232 5.53304 51.4364 6.1132 51.5496C9.55174 52.1864 13.0186 52.7382 16.5137 52.809C18.24 52.8373 20.0371 52.7382 21.6078 52.0165C22.2163 51.7335 22.853 51.3373 23.5323 51.4505C22.3578 53.1769 20.8437 54.8749 18.7919 55.2994C18.0844 55.4409 17.3627 55.4268 16.6552 55.4268C16.0609 55.4268 15.4524 55.4268 14.8581 55.4268C12.679 55.4409 10.514 55.4692 8.37726 55.0306C6.82072 54.7193 5.32079 54.1532 3.9482 53.375C3.76425 53.2618 3.55199 53.1203 3.52369 52.908C2.27846 53.2193 2.50487 54.8749 2.44827 55.8796C2.27846 58.8653 3.26899 62.4312 3.41049 63.0821C3.55199 63.733 4.01895 71.8978 3.6935 74.0769C3.36804 76.2561 2.56147 80.4587 2.73127 81.4351C2.90108 82.4115 3.67935 92.7837 4.14631 94.2977C4.23121 94.5524 4.17461 94.9204 4.04726 95.3307Z" fill="#1E664D"/>
<path d="M52.3842 69.0396L46.6533 82.9918L49.1579 83.8125L54.3936 69.2943L52.3842 69.0396Z" fill="#616569"/>
<path d="M34.102 59.2051L28.3711 73.1715L30.8757 73.978L36.1113 59.4739L34.102 59.2051Z" fill="#616569"/>
<path d="M6.22651 108.406L11.0942 78.1949C11.264 77.1195 11.9149 76.1856 12.8489 75.6479L18.8911 72.1527C19.6693 71.6999 20.5749 71.5018 21.4523 71.6716C22.6267 71.898 23.5748 72.6338 24.0701 73.681L32.6027 91.7509C32.9282 92.4443 33.7631 92.7415 34.4564 92.416C35.0507 92.133 35.3054 91.4255 35.0224 90.8312L26.4332 72.648C26.1926 72.1527 25.9096 71.6716 25.5559 71.2471C23.4899 68.8132 20.1787 68.4312 17.7024 69.8604L11.5612 73.4121C9.94805 74.346 8.84432 75.945 8.54716 77.7846L3.637 108.179C3.53794 108.83 3.97661 109.453 4.62752 109.552C5.39164 109.679 6.09916 109.17 6.22651 108.406Z" fill="#777678"/>
<path d="M25.4706 74.445L34.0032 92.5149L34.0174 92.5432C33.4372 92.614 32.857 92.3168 32.6023 91.765L24.0697 73.695C23.8574 73.2422 23.5461 72.8601 23.1782 72.5347C24.197 72.8177 25.0178 73.4827 25.4706 74.445Z" fill="#616569"/>
<path d="M3.63699 108.179L8.533 77.7845C8.83016 75.945 9.93388 74.3318 11.547 73.4121L17.6883 69.8603C19.7259 68.6858 22.3296 68.7566 24.3389 70.1858C22.6126 69.5349 20.674 69.6905 19.0891 70.6103L12.9479 74.162C11.3348 75.0959 10.231 76.6949 9.93388 78.5345L5.03787 108.944C5.00957 109.156 5.03787 109.368 5.10862 109.552C4.95297 109.58 4.79731 109.594 4.64166 109.566C3.97659 109.453 3.53793 108.844 3.63699 108.179Z" fill="#A7A7A9"/>
<path d="M50.375 48.7057C50.375 48.7057 61.9783 56.1629 61.3415 60.6203C60.7189 64.9078 57.5634 78.8883 55.5541 79.7374L54.0117 80.2326C52.0448 80.077 28.1732 66.5068 27.6638 64.0022C27.2251 61.7947 29.1071 49.6962 30.6495 46.5265C30.8617 46.102 31.7391 46.1303 31.8947 46.0596C33.239 45.4936 42.2811 45.3379 50.375 48.7057Z" fill="#464646"/>
<path d="M49.1299 49.1584C49.1299 49.1584 60.7332 56.6156 60.0823 61.073C59.4455 65.5162 55.7806 80.374 53.8137 80.2184C51.8326 80.0627 26.9139 66.9595 26.4045 64.4549C25.8951 61.9503 29.3053 47.0783 30.6354 46.5123C31.9938 45.9463 41.0359 45.8048 49.1299 49.1584Z" fill="#E41F1B"/>
<path d="M48.0118 49.6394C48.0118 49.6394 58.9783 56.6863 58.3699 60.9172C57.7614 65.1482 54.2804 79.2702 52.4126 79.1145C50.5306 78.973 26.8995 66.549 26.4184 64.1718C25.9373 61.7804 29.1777 47.6442 30.4513 47.1206C31.7107 46.5971 40.3141 46.4556 48.0118 49.6394Z" fill="#E94B45"/>
<path d="M26.1071 69.2944C26.1071 69.2944 13.9379 74.2188 10.8814 78.6195C7.82492 83.0203 7.42871 86.3314 7.42871 87.5908C7.42871 88.8502 26.5883 100.496 28.8382 100.581C31.0881 100.666 33.6917 99.5054 36.1256 96.1801C38.5594 92.8547 52.5541 86.0626 53.4597 85.5249C54.3654 84.9872 53.4031 83.275 53.4031 83.275C41.4178 74.7282 26.1071 69.2944 26.1071 69.2944Z" fill="#303131"/>
<path d="M29.0365 68.983C27.1686 68.1481 25.0461 68.1481 23.1782 69.0113C19.3859 70.7518 12.99 74.0205 10.8816 77.0487C7.82512 81.4495 7.01855 84.605 7.01855 85.8644C7.01855 87.1237 26.1923 98.7695 28.428 98.8544C30.6779 98.9393 33.2816 97.7789 35.7154 94.4536C38.1351 91.1283 52.144 84.3361 53.0496 83.7984C53.9552 83.2607 53.5307 83.4447 50.262 81.0957C41.8567 75.0818 33.3665 70.9216 29.0365 68.983Z" fill="#B01917"/>
<path d="M45.7762 78.8314C45.7762 78.8314 45.5073 80.7276 43.781 82.2133C42.0405 83.7133 37.8237 87.0952 36.6209 87.9301C35.404 88.7791 29.6448 91.6799 28.2298 92.9959C26.8289 94.3119 26.3761 95.2034 26.3761 95.2034C26.3761 95.2034 25.9798 97.2552 26.7157 97.6797C27.4515 98.1042 29.5599 99.1371 31.5126 97.6797C33.4654 96.2222 37.2294 91.9346 38.4038 91.0431C39.5783 90.1517 52.6391 83.3595 52.6391 83.3595C52.6391 83.3595 45.4649 77.6711 45.7762 78.8314Z" fill="#E94B45"/>
<path d="M37.6256 75.6758C37.6256 75.6758 43.2998 80.4303 42.3801 83.034C41.4603 85.6518 33.2531 92.2317 31.7956 92.8684C30.3381 93.5194 24.1686 96.972 24.1686 96.972L12.3955 89.9676C12.3955 89.9676 16.6548 78.6191 23.1781 78.0247C29.7014 77.4446 37.6256 75.6758 37.6256 75.6758Z" fill="#B01917"/>
<path d="M5.74505 109.552C5.87241 110.797 6.14126 111.335 7.41479 111.547C8.64587 111.745 9.93355 111.788 11.108 111.349C11.8438 111.08 13.6551 110.726 14.1362 110.047C14.3485 109.75 14.7022 109.269 14.7022 109.269L15.6644 108.901L15.7635 109.467C15.7635 109.467 16.0182 109.453 17.7728 108.717C19.5416 107.967 19.8954 107.09 19.8954 107.09C19.8954 107.09 19.8105 106.17 19.8812 105.236C19.952 104.288 19.4143 103.128 19.4143 103.128L12.5089 102.831C12.3108 103.255 12.141 103.68 11.9287 104.104L11.8721 104.288C11.3769 105.236 10.4288 105.505 9.56564 106.014C8.61757 106.595 6.15541 107.741 5.7875 109.085C5.74505 109.241 5.7309 109.396 5.74505 109.552Z" fill="#1C1D1D"/>
<path d="M5.7876 109.085C6.0989 109.679 6.63662 109.792 7.23093 109.665C7.896 109.509 8.58936 109.524 9.24028 109.311C9.63649 109.184 10.0185 108.958 10.3865 108.759C10.8534 108.505 11.3345 108.278 11.8156 108.08C12.2401 107.91 12.6081 107.783 12.9335 107.429C13.1175 107.217 13.2448 106.977 13.358 106.722C13.6127 106.227 13.8391 105.717 14.0514 105.194C13.3297 105.179 12.5515 104.981 12.1552 104.373L11.9571 104.104L11.8722 104.288C11.377 105.236 10.4289 105.505 9.56574 106.014C8.61766 106.594 6.15551 107.741 5.7876 109.085Z" fill="#363635"/>
<path d="M16.2728 121.042C16.5841 121.551 17.2775 121.82 17.8152 122.004C18.1831 122.117 18.5652 122.217 18.9614 122.231C19.2019 122.231 19.4142 122.202 19.6406 122.16C20.7868 121.905 21.7207 121.084 22.5131 120.278C22.9093 119.882 23.2772 119.471 23.5885 119.004C23.9989 118.368 24.2677 117.802 24.4658 117.08L24.8337 115.707L25.0885 115.736C25.5696 115.127 26.2205 114.363 26.4752 113.712C26.7865 112.962 26.461 112.707 26.5601 111.943C26.6308 111.307 26.8997 110.557 26.6167 109.934C26.3337 109.311 25.796 108.915 25.1309 108.83C24.8762 108.788 24.6215 108.774 24.3809 108.844C24.0555 108.958 23.7725 109.227 23.4046 109.326C23.0084 109.425 22.5272 109.255 22.131 109.198C21.6782 109.127 20.4613 109.014 20.1358 109.453L20.0368 109.679C19.7679 110.67 19.6972 111.788 19.2585 112.722L19.2444 112.736C19.1736 112.877 19.1029 113.019 19.018 113.16C18.4661 114.052 17.9001 114.943 17.3482 115.835C16.9379 116.486 16.6973 116.953 16.4143 117.547C16.3294 117.703 16.2586 117.872 16.1596 118.07C15.7775 118.919 15.7634 120.207 16.2728 121.042Z" fill="#2A2A2A"/>
<path d="M16.4287 118.877C16.4287 119.075 16.4853 119.273 16.5844 119.429C17.0372 120.122 17.9003 120.278 18.6362 120.462C19.089 120.575 19.3012 120.547 19.6833 120.221C20.0087 119.953 20.2635 119.613 20.5182 119.287C21.0134 118.665 21.5228 118.056 21.9615 117.377C22.3294 116.811 22.7539 116.288 22.952 115.623C23.1784 114.887 23.3482 114.123 23.3907 113.344L23.4048 113.061L23.2209 112.991C23.0794 112.962 22.952 112.934 22.8105 112.92C22.4285 112.892 22.0464 112.863 21.6643 112.835C21.5087 112.821 21.353 112.807 21.1974 112.778C20.688 112.665 20.3342 112.326 19.9097 112.071C19.8389 112.311 19.6833 112.509 19.5135 112.693C19.4427 112.835 19.372 112.976 19.2871 113.118C18.7352 114.009 18.1692 114.901 17.6173 115.792C17.207 116.443 16.9664 116.91 16.6834 117.505C16.641 117.915 16.457 118.283 16.4287 118.693V118.877Z" fill="#393939"/>
<path d="M17.3908 66.3228C17.3908 66.3228 16.8531 67.1435 16.3579 67.4548C15.8626 67.7661 14.8721 68.8981 14.4617 69.1953C14.0514 69.4924 13.6551 69.8462 13.6127 70.0018C13.5561 70.1575 13.5844 70.7518 13.3297 71.1905C13.0891 71.6291 12.5231 72.0678 12.4524 72.747C12.3816 73.4404 13.2448 75.2799 13.2448 75.2799C13.2448 75.2799 14.4759 76.6383 16.2871 75.011C18.0983 73.3838 19.2021 69.5207 19.4285 69.0679C19.6549 68.6151 20.702 67.6529 20.5747 67.1576C20.4473 66.6765 17.3908 66.3228 17.3908 66.3228Z" fill="#F7B590"/>
<path d="M27.0835 37.2437C27.0835 37.2437 26.2769 37.371 25.3713 40.5973C24.4657 43.8377 23.9421 45.0405 23.5601 47.4177C23.178 49.795 21.3668 55.5117 21.2394 55.5259C21.1262 55.5542 20.2206 57.9597 20.0508 58.1012C19.881 58.2428 19.4282 58.9078 19.2867 59.2757C19.1452 59.6436 19.3999 60.2379 19.2867 60.3794C19.1735 60.521 18.5225 60.8747 18.381 61.1719C18.2395 61.469 18.8197 61.7237 18.1405 62.6294C17.4471 63.535 16.5273 66.8462 16.5273 66.8462C16.5273 66.8462 18.1122 66.6056 19.0461 67.3414C19.98 68.0772 20.5319 68.9263 20.5319 68.9263C20.5319 68.9263 21.8903 65.3604 21.8054 65.2613C21.7347 65.1481 22.7676 65.1764 23.3478 63.8038C23.928 62.4313 24.7628 60.8181 25.6402 60.3229C26.5316 59.8276 28.7957 54.0543 28.7957 54.0543C28.7957 54.0543 29.6023 38.1634 27.0835 37.2437Z" fill="#B8B7B8"/>
<path d="M20.4755 59.8135C20.3199 60.0682 20.1642 60.3229 20.0935 60.6059C20.0086 60.988 20.0793 61.4266 19.8812 61.7804C19.6831 62.12 19.2161 62.3605 19.2303 62.7567C19.2303 62.8983 19.3152 63.0256 19.4001 63.1388C19.8812 63.6765 20.8434 63.6624 21.2113 64.285C21.3104 64.4689 21.4377 64.7236 21.6359 64.6529C21.8481 64.5821 22.0887 64.1576 22.2585 63.9878C22.5273 63.7331 22.8245 63.5492 23.065 63.252C23.532 62.6435 23.8009 61.9077 24.0556 61.1861C24.3244 60.4361 24.5791 59.6861 24.848 58.9503C24.8904 58.823 24.9329 58.6956 24.9612 58.5541C25.0461 58.1013 24.9187 57.6343 24.7348 57.224C24.4376 56.5447 23.999 55.9221 23.4612 55.4127C23.3763 55.342 23.2773 55.2571 23.1782 55.2854L22.9801 55.4552C22.0321 56.8419 21.3811 58.3701 20.4755 59.8135Z" fill="#DBDBDB"/>
<path d="M19.6971 68.9829C19.6263 69.2235 19.6546 69.365 19.6688 69.6197C19.6829 70.115 19.4707 70.5678 19.1169 70.9074C18.1689 71.7847 17.0227 72.8318 16.8104 72.9875C16.5982 73.129 15.7775 74.3035 15.2963 74.3035C14.8011 74.3035 14.5322 74.2044 14.5322 73.4544C14.5322 72.7186 16.2586 71.3036 16.2586 71.3036C16.2586 71.3036 16.7255 69.9452 17.2632 69.4782C17.5321 69.2376 17.7727 69.0537 17.9425 68.7424C18.1264 68.4028 18.4236 68.1056 18.7349 67.8651C18.8905 67.7377 19.0603 67.6387 19.2584 67.6245C19.4565 67.6245 19.6405 67.7236 19.7961 67.8226L20.065 67.9924L20.0933 68.0207V68.0632C19.9518 68.3462 19.8103 68.6292 19.7112 68.9263L19.6971 68.9829Z" fill="#FAC6A9"/>
<path d="M31.4139 69.8604V73.7659L29.6734 77.4167C29.6734 77.4167 28.1027 78.6336 26.5886 79.8081C25.2868 80.8269 24.0274 81.8033 23.8151 81.9448C23.3623 82.2702 17.1645 87.4492 16.8673 87.9021C16.5843 88.3549 16.74 90.0388 16.8673 90.1237L19.1172 96.8168L20.5606 101.133C20.5606 101.133 20.0794 102.335 18.9474 103.397C18.721 103.609 18.4663 103.821 18.1833 104.019C16.4994 105.165 14.108 104.755 13.3297 104.345C12.5515 103.934 12.4666 102.901 12.4241 102.491C12.3817 102.081 9.9195 95.5432 7.91015 89.5435C5.90081 83.5438 6.42437 82.6806 6.59417 81.9448C6.60832 81.8599 6.66492 81.7325 6.76398 81.5627C7.42904 80.3741 9.8629 77.3318 11.4902 75.7328C12.8062 74.4451 16.8249 70.8792 19.004 68.9548C19.8672 68.1906 20.4474 67.6812 20.4474 67.6812L27.7348 63.0682L28.0461 62.8701L31.4139 69.8604Z" fill="#2A2A2A"/>
<path d="M47.2339 76.1144C46.2858 79.0719 44.4321 82.6094 40.6964 85.0291C36.9607 87.4489 29.928 91.8071 29.928 91.8071C29.928 91.8071 27.5083 93.7033 27.4234 94.2693C27.3385 94.8495 28.3715 97.439 27.7488 99.986C27.1404 102.533 27.6922 103.976 27.4092 104.175C27.1262 104.373 26.8857 105.533 26.9989 106.099C27.1262 106.679 27.2253 108.646 26.9706 109.467C26.7725 110.118 26.8291 110.57 26.0366 111.066C25.8385 111.193 25.5838 111.306 25.2725 111.448C24.0698 111.943 22.1312 111.603 21.0416 111.335C20.6878 111.25 20.419 111.165 20.3058 111.122C19.853 110.953 19.2445 109.523 19.2445 109.523C19.2445 109.523 19.0322 108.08 19.2445 106.608C19.4567 105.123 18.1408 96.2079 17.9285 93.3071C17.7446 90.7176 17.4332 89.8261 18.7775 88.1847C18.9332 88.0007 19.1171 87.7885 19.3294 87.5762C19.9662 86.9111 21.0699 85.8357 22.2585 84.6895C23.8858 83.1188 25.8385 81.6472 27.296 79.9209C27.8903 79.2134 27.5083 79.1709 27.1262 78.2511C26.6451 77.0484 26.631 75.7182 26.631 74.4447C26.631 73.9353 26.631 73.4259 26.7866 72.9448C26.914 72.5627 27.1404 72.2231 27.3668 71.8835C28.2017 70.6383 29.0224 69.4072 29.8572 68.1619C30.2676 67.5535 30.7912 66.8884 31.527 66.9026C31.8383 66.9167 32.1213 67.0441 32.3901 67.1856C33.3807 67.6808 34.5268 68.5723 35.6164 68.7987C36.423 68.9685 37.3852 68.6714 38.2201 68.6572C40.4275 68.6289 42.6208 68.6997 44.8283 68.7987C46.0594 68.8553 46.9084 68.8978 46.9084 68.8978C46.9084 68.8978 48.1819 73.157 47.2339 76.1144Z" fill="#404040"/>
<path d="M26.0367 75.4355C26.0226 75.5204 26.3197 75.9591 26.3339 76.1006C26.3763 76.3836 26.2773 76.5534 26.249 76.8081C26.1924 77.4449 26.1075 78.0675 26.249 78.7043C26.3339 79.0863 26.4612 79.4401 26.5744 79.808C25.2726 80.8268 24.0132 81.8032 23.801 81.9447C23.3482 82.2702 17.1503 87.4492 16.8532 87.902C16.5701 88.3548 16.7258 90.0387 16.8532 90.1236L19.1031 96.8167C19.0323 97.1988 18.9757 97.595 18.9616 97.9912C18.8625 99.7883 19.0182 101.6 18.9333 103.397C18.7068 103.609 18.4521 103.821 18.1691 104.019C16.4852 105.165 14.0938 104.755 13.3156 104.345C12.5373 103.934 12.4524 102.901 12.41 102.491C12.3675 102.081 9.90534 95.5432 7.89599 89.5434C5.88665 83.5437 6.41021 82.6805 6.58001 81.9447C6.59416 81.8598 6.65076 81.7324 6.74982 81.5626C6.82057 81.69 6.86302 81.8173 6.90547 81.9447C7.20263 82.8503 7.24508 83.8125 7.54224 84.7182C7.81109 85.553 8.2639 86.3313 8.78746 87.0247C9.25443 87.6331 9.43838 88.369 9.86289 89.0199C10.2591 89.6283 10.4997 90.3359 10.8534 90.9868C10.9949 91.2556 11.1789 91.5386 11.4902 91.6235C11.6458 91.666 11.8156 91.6377 11.9713 91.5952C12.8203 91.3405 13.358 90.534 13.9665 89.8972C14.3344 89.5293 14.7448 89.1897 15.1976 88.9208L15.4098 88.7369L15.4664 88.5105C15.5372 87.7463 15.141 87.0671 15.3391 86.303C15.5372 85.5813 15.9758 85.1144 16.5418 84.6616C18.1691 83.3314 19.8106 82.0438 21.452 80.7419C22.485 79.9071 23.5321 79.0863 24.4377 78.11C25.1594 77.3175 25.7962 76.4544 26.0367 75.4355Z" fill="#1E1F1F"/>
<path d="M20.3342 93.3074C21.0842 93.647 21.9191 93.7319 22.7256 93.7461C23.0935 93.7602 23.419 93.7319 23.7586 93.831C24.1265 93.9442 24.3105 94.0008 24.7208 93.831C25.1878 93.6329 25.6406 93.4489 26.1076 93.2508C26.5179 93.081 26.9424 92.897 27.3103 92.6282C27.7065 92.3452 28.0179 91.9631 28.3575 91.6094C29.1074 90.8452 30.1687 90.4632 30.8621 89.7274C31.6403 88.9066 32.5318 88.1708 33.4374 87.4775C34.4421 86.6992 35.4892 85.9775 36.4373 85.1427C37.0175 84.6332 37.5552 84.0814 38.1495 83.5861C38.9278 82.9352 39.7768 82.3833 40.5692 81.7466C41.9559 80.6287 43.1446 79.2703 44.0502 77.7279C44.3473 77.2326 44.6162 76.6808 44.503 76.1147C41.489 77.8977 38.5174 79.7514 35.6024 81.6758C34.9232 82.1145 34.2299 82.5956 33.8478 83.3031C33.5506 83.855 33.4799 84.4917 33.2252 85.0578C32.8997 85.7653 32.2913 86.303 31.7111 86.8124C31.4564 87.0388 31.1875 87.2794 30.8479 87.3643C30.3385 87.5058 30.1829 87.2228 29.8857 86.9256C29.5744 86.6001 29.164 86.3454 28.7112 86.2747C28.1169 86.1756 27.5367 86.3879 26.9424 86.4869C26.15 86.6143 25.3293 86.5294 24.5935 86.2464C24.452 86.1898 24.3105 86.1332 24.2114 86.0058L24.0841 85.7228C23.5039 84.3644 22.1172 85.2842 21.4521 85.9634C20.2352 87.2228 19.372 88.751 18.9899 90.449C18.7069 91.6943 19.1597 92.7838 20.3342 93.3074Z" fill="#474746"/>
<path d="M23.9566 105.887C24.2537 106.297 24.5933 106.793 24.4094 107.274L24.2113 107.486L23.9283 107.429C23.6453 107.288 22.5415 106.128 22.2302 106.736L22.2019 106.963C22.2585 107.741 22.966 108.307 23.6311 108.731C23.8858 108.901 24.183 109.212 23.999 109.453C23.9 109.58 23.6877 109.594 23.5179 109.58C23.15 109.538 22.7821 109.425 22.4566 109.227C22.0887 109 21.6642 108.675 21.2822 108.859C21.0274 108.986 20.9142 109.283 20.9284 109.566C20.9284 109.849 21.0274 110.118 21.0699 110.401C21.1123 110.698 21.0982 110.995 21.0557 111.293C20.702 111.208 20.4331 111.123 20.3199 111.08C19.8671 110.91 19.2587 109.481 19.2587 109.481C19.2587 109.481 19.0464 108.038 19.2587 106.566C19.4709 105.081 18.1549 96.1658 17.9427 93.265C17.7587 90.6755 17.4474 89.784 18.7917 88.1426C18.7209 88.4256 18.6785 88.7227 18.636 89.0199C18.537 89.8406 18.5511 90.6613 18.5653 91.4821C18.5794 92.0056 18.5794 92.5433 18.7351 93.0527C18.8624 93.4773 19.0747 93.8593 19.2162 94.2838C19.4285 94.963 19.4143 95.713 19.5841 96.4064C19.6549 96.7035 19.7681 96.9865 19.8671 97.2695C20.9567 100.312 22.0887 103.326 23.9566 105.887Z" fill="#2A2A2A"/>
<path d="M47.2337 76.1145C46.2856 79.072 44.4319 82.6095 40.6962 85.0292C36.9605 87.449 29.9278 91.8073 29.9278 91.8073C29.9278 91.8073 27.5081 93.7034 27.4232 94.2694C27.3383 94.8496 28.3713 97.4391 27.7487 99.9862C27.1402 102.533 27.6921 103.977 27.4091 104.175C27.1261 104.373 26.8855 105.533 26.9987 106.099C27.1261 106.679 27.2251 108.646 26.9704 109.467C26.7723 110.118 26.8289 110.571 26.0365 111.066C26.1921 110.047 26.3336 109.028 26.2204 108.009C26.1638 107.5 26.0365 107.005 26.0082 106.495C25.9233 105.137 26.4468 103.835 26.8148 102.519C26.9987 101.882 27.1544 101.231 27.2676 100.58C27.3383 100.142 27.5223 99.7032 27.5506 99.2786C27.6213 98.0759 27.1968 96.675 26.9421 95.5005C26.7723 94.6939 26.645 93.9157 26.8855 93.1091C27.0836 92.444 27.5506 91.9912 28.0883 91.5525C29.2345 90.6045 30.5929 89.9677 31.8664 89.2319C33.8616 88.0999 35.687 86.7131 37.5266 85.3406C40.4981 83.0907 44.8564 80.2181 45.1394 76.1428C45.2385 74.8693 45.479 73.1288 44.814 72.0251C44.2763 71.1195 44.1631 69.7044 44.7715 68.813L44.7998 68.7705C46.0309 68.8271 46.8799 68.8696 46.8799 68.8696C46.8799 68.8696 48.1818 73.1571 47.2337 76.1145Z" fill="#2A2A2A"/>
<path d="M22.0041 100.524C22.188 100.949 22.372 101.387 22.6408 101.755C22.9097 102.123 23.2634 102.435 23.5464 102.802C24.0275 103.397 24.3389 104.133 24.8341 104.713C24.9049 104.798 24.9898 104.883 25.103 104.911C25.3577 104.967 25.5416 104.67 25.6265 104.416C25.952 103.482 26.2067 102.534 26.3907 101.571C26.5463 100.737 26.4473 100.057 26.4614 99.2366C26.4897 97.4961 26.3482 95.6707 25.4143 94.1566C25.2728 93.9161 25.0888 93.6755 24.8483 93.534C24.5936 93.3783 24.2964 93.3359 24.0134 93.3217C23.2776 93.2651 22.5418 93.3217 21.8201 93.4774C21.5795 93.534 21.339 93.6048 21.1267 93.7321C20.7447 93.9727 20.5183 94.3972 20.4192 94.8358C20.2211 95.7556 20.6032 96.4348 20.8579 97.298C21.1975 98.3876 21.5795 99.463 22.0041 100.524Z" fill="#474746"/>
<path d="M27.4378 86.2747C26.8011 85.9209 26.1643 85.553 25.5275 85.1992C25.2445 85.0436 24.9615 84.8738 24.6502 84.7889C24.3672 84.704 24.07 84.6757 23.7729 84.6615C23.2776 84.6332 22.7682 84.6332 22.2729 84.6898C24.7634 82.2843 27.6784 79.5674 27.6784 79.5674C27.6784 79.5674 30.8198 76.2845 32.3197 74.3176C32.9282 74.2186 33.5508 74.1761 34.1734 74.2044C35.6026 74.261 36.9893 74.6714 38.3619 75.0817C39.1685 75.3223 39.9609 75.5628 40.725 75.9024C41.008 76.0298 41.3052 76.2279 41.3052 76.5392C41.3052 76.6949 41.2061 76.8364 41.1212 76.9637C39.7911 78.7325 37.4704 79.3834 35.7016 80.7277C34.9234 81.322 34.2158 82.0862 33.2819 82.4116C33.098 82.4824 32.8857 82.539 32.7442 82.6805C32.6168 82.822 32.5744 83.0201 32.5319 83.204C32.2489 84.3927 31.598 85.4964 30.6924 86.3171C30.0132 85.9633 29.3481 85.6237 28.6831 85.27C28.5132 85.1851 28.3293 85.1002 28.1453 85.1568C27.7067 85.2983 27.8623 86.0907 27.4378 86.2747Z" fill="#2A2A2A"/>
<path d="M8.13609 80.0626C7.81064 80.4022 7.45688 80.7701 7.28707 81.237C7.11727 81.6899 7.25877 81.9021 7.40028 82.3125C7.73988 83.3596 7.71158 84.4209 8.2776 85.4114C8.48985 85.8076 8.77286 86.1614 9.05587 86.5293C9.69263 87.3358 10.3435 88.1424 10.9803 88.949C11.3058 89.3593 11.7444 89.8263 12.268 89.7272C12.5227 89.6848 12.7491 89.5008 12.9331 89.3169C14.6594 87.6047 14.1641 84.7605 16.0178 83.3313C18.7205 81.2512 21.4233 79.3551 23.9845 77.0627C24.8052 76.3269 25.6259 75.5911 26.2344 74.6854C26.6306 74.0911 26.9277 73.4402 27.2956 72.8176C27.6636 72.2091 28.0881 71.6431 28.3711 71.0064C28.6541 70.3696 28.7814 69.6055 28.5126 68.9546C28.1164 67.964 26.9702 67.5112 26.3334 66.6764C25.9231 66.1386 25.5835 65.3887 24.9184 65.3604C24.508 65.3462 24.1684 65.6292 23.8571 65.8981C22.909 66.7188 21.9468 67.5537 20.9987 68.3744C20.1356 69.1244 19.1875 69.8177 18.2536 70.4828C16.8385 71.5016 15.3952 72.4497 14.2066 73.6949C13.7962 74.1336 13.2161 74.36 12.834 74.8411C12.3812 75.4213 11.9991 75.9873 11.4897 76.5391C10.3718 77.7136 9.25397 78.8881 8.13609 80.0626Z" fill="#404040"/>
<path d="M51.4223 45.3661C51.4223 45.3661 48.6347 51.1536 47.8423 52.512C47.064 53.8704 45.7055 70.2424 45.7055 70.2424C45.7055 70.2424 41.3472 71.9687 40.9935 71.9687C40.6397 71.9687 32.1212 71.3178 30.0836 69.7754C28.0601 68.233 25.98 63.8889 25.98 63.8889C25.98 63.8889 26.6167 60.4503 26.8431 59.7145C27.0696 58.9787 27.1686 56.9694 26.8856 54.8327C26.5884 52.696 25.98 49.1584 25.98 46.6538C25.98 45.1538 26.1356 42.8473 26.2913 41.0644C26.3903 39.8758 26.4894 38.9277 26.5177 38.6305C26.6026 37.9089 26.6026 37.1872 28.7393 36.2108C29.4044 35.8995 30.7628 35.5599 32.291 35.2344C35.6588 34.5269 39.9181 33.9185 39.9181 33.9185C39.9181 33.9185 42.2104 37.2438 45.9178 39.5786C49.611 41.9275 51.4223 45.3661 51.4223 45.3661Z" fill="#DBDBDB"/>
<path d="M41.0077 36.2812C41.2907 37.3142 40.3568 39.6632 40.0313 40.2716C39.7058 40.8801 37.1729 43.8658 35.5739 43.7951C34.3429 43.7385 33.2533 42.946 32.7722 42.3376C32.6165 42.1536 32.5316 41.9697 32.5175 41.8423C32.4326 41.2904 32.6024 40.0028 32.6731 39.5358C32.7439 39.0688 31.6543 36.7057 31.6543 36.7057L31.6826 36.5642C31.8382 35.8426 32.6307 32.4606 34.3995 30.8192C36.3805 28.9655 37.4701 28.7815 37.8663 28.5127C38.2625 28.2297 41.1492 29.1919 41.3048 29.3617C41.4605 29.5315 41.701 30.5928 41.2765 31.1446C40.8379 31.6965 40.286 34.2294 40.286 34.2294C40.286 34.2294 40.7247 35.2482 41.0077 36.2812Z" fill="#FAC6A9"/>
<path d="M38.6588 75.0819C38.3616 75.0819 38.0928 74.9545 37.8664 74.6573C37.3994 74.0206 37.7249 73.1008 37.2438 72.464C36.8475 71.9405 36.1825 71.9546 35.6731 71.6292C35.475 71.5018 35.3476 71.4028 35.2769 71.3037C38.0362 71.7565 40.8096 71.9688 41.0077 71.9688C41.0785 71.9688 41.3049 71.898 41.6304 71.799C41.4039 72.1952 41.1917 72.6055 40.9653 73.0018C40.654 73.5536 40.3427 74.1196 39.8757 74.53C39.5078 74.8413 39.0691 75.0819 38.6588 75.0819Z" fill="#242424"/>
<path d="M41.0078 71.9684C40.8097 71.9684 38.0221 71.7561 35.2769 71.3033C35.0364 70.9495 35.5741 70.7231 36.0835 70.2703C36.8335 69.5911 37.3004 68.7987 37.8665 67.9921C38.2768 67.3978 38.6306 66.662 39.2532 66.2516C39.4796 66.1101 39.7485 65.9969 39.9324 65.813C40.3286 65.4026 40.272 64.7375 40.1447 64.1715C40.0173 63.6055 39.8758 62.9829 40.1588 62.4876C40.4701 61.9641 40.9937 61.766 41.1493 61.1292C41.2342 60.8038 41.2484 60.4641 41.3899 60.167C41.6304 59.6434 42.1399 59.3604 42.4229 58.8793C42.72 58.3699 42.6776 57.5633 42.7625 56.9832C42.9464 55.7521 43.3285 54.5493 43.4841 53.3182C43.6115 52.2428 44.2058 51.507 44.786 50.5872C44.8567 50.4599 44.9558 50.3325 45.0973 50.3042C45.3803 51.9032 45.5076 53.5163 45.4935 55.1436C45.4652 56.7143 45.6208 58.2708 45.635 59.8415C45.6491 62.0207 45.3378 64.214 44.5454 66.2516C44.0643 67.4686 43.4275 68.6289 42.7908 69.7609C42.4087 70.4401 42.0267 71.1194 41.6446 71.8127C41.305 71.9118 41.0786 71.9684 41.0078 71.9684Z" fill="#818080"/>
<path d="M29.0786 78.0532L26.6872 78.1806C26.5882 78.1947 25.824 78.0108 24.975 78.7607C24.126 79.4966 23.0647 79.8362 22.9374 80.0343C22.81 80.2465 21.9327 81.1097 21.9327 81.2653C21.9327 81.4351 22.6968 81.7182 22.6968 81.7182C22.6968 81.7182 19.2441 85.2699 19.2441 85.751C19.5696 87.8452 21.961 84.3077 23.3619 83.6284H23.6732C23.6732 83.6284 23.3619 83.9964 24.2251 84.3077C25.0882 84.619 25.0882 84.619 25.0882 84.619C25.0882 84.619 24.8052 84.9303 25.5127 85.1142C26.2203 85.2982 26.5599 85.1142 26.5599 85.1142C26.5599 85.1142 26.6023 85.4397 27.0693 85.6095C27.5362 85.7793 28.4702 85.1567 28.5834 84.9586C28.7107 84.7463 29.5031 83.9681 29.5031 83.9681C29.5031 83.9681 31.654 83.1332 31.7813 82.2983C31.9087 81.4776 31.2012 79.0579 31.2012 79.0579L29.0786 78.0532Z" fill="#FAC6A9"/>
<path d="M52.3138 51.5353C51.5214 56.304 50.3186 62.8697 49.413 65.4168C48.5074 67.9638 48.2102 70.3269 47.0923 71.7703C45.9745 73.2278 44.2481 74.2607 43.9085 74.7277C43.5831 75.1947 42.9746 76.3267 41.1351 77.2465C39.2955 78.1804 38.8286 78.2087 38.404 78.6473C37.9654 79.086 35.7155 80.4586 35.7155 80.4586C35.7155 80.4586 35.2768 81.1378 34.8099 81.3359C34.3429 81.5199 32.9845 81.7038 32.843 82.0293C32.7156 82.3547 31.81 83.2745 31.81 83.2745C31.81 83.2745 29.7016 81.3784 29.1922 80.1331C28.6828 78.8738 28.1875 77.7559 28.1875 77.7559C28.1875 77.7559 29.0931 77.77 29.2629 77.388C29.4327 76.9918 31.6402 75.5201 31.6402 75.5201C31.6402 75.5201 31.9515 75.1664 32.4184 74.7418C32.9986 74.19 33.8052 73.4966 34.4844 73.1853C35.7013 72.6335 36.3522 71.9684 36.6352 71.5297C36.9183 71.0911 38.4182 69.959 38.4182 69.959C38.4182 69.959 40.0596 67.7233 40.2011 67.6101C40.3426 67.511 41.3332 66.4639 41.4039 65.9969C41.4888 65.53 41.6162 61.9499 42.1256 61.1858C42.635 60.4217 43.2293 53.7427 43.2293 53.7427C43.2293 53.7427 43.4416 50.6863 44.7151 48.3798C45.3377 47.2619 46.2292 46.328 47.4603 46.0167C51.2384 45.0827 51.4223 45.3799 51.4223 45.3799C51.4223 45.3799 53.1062 46.7666 52.3138 51.5353Z" fill="#E8E7E7"/>
<path d="M43.9932 49.1159C44.4743 48.083 44.9272 47.0641 45.8611 46.3425C47.1912 45.2953 49.0025 45.1963 50.6863 45.1397C50.6722 44.8991 50.5307 44.701 50.3892 44.5171C49.9788 43.9935 49.6958 43.5973 49.3845 43.0313C48.7195 41.8568 47.7148 40.9653 46.5261 40.3427C46.1299 40.1305 45.7196 39.9607 45.3658 39.6918C44.7008 39.1965 44.0498 38.6164 43.4555 38.0504C43.2716 37.8806 43.1442 37.6259 42.932 37.4985C42.7905 37.4136 42.6065 37.4136 42.4933 37.5268L42.3942 37.7532C42.0122 39.0833 41.4462 40.3003 40.8236 41.5597C40.1585 42.7907 39.2387 43.9511 37.951 44.4888C37.7812 44.5595 37.5973 44.6161 37.4558 44.7435C37.3001 44.8708 37.2152 45.0548 37.1303 45.2246C36.5219 46.4557 36.3096 47.8141 35.7436 49.0452C35.1917 50.248 35.1917 51.7337 35.0502 53.0356C34.9087 54.2667 34.8097 55.526 35.1917 56.7005C35.3049 57.0684 35.4889 57.4363 35.8285 57.6203C35.9983 57.7193 36.2106 57.7476 36.3662 57.8467C36.6068 58.0023 36.7341 58.2854 36.8615 58.5401C37.569 60.0258 38.6161 61.3418 39.8755 62.4031C39.9887 61.6531 40.116 60.889 40.3849 60.1815C40.8094 59.0778 41.3613 58.1014 41.9556 57.0684C42.182 56.6722 42.4084 56.2619 42.5358 55.8232C42.649 55.3987 42.6773 54.96 42.6773 54.5355C42.6914 53.5874 42.7056 52.5686 42.8612 51.6205C42.932 51.1536 43.0027 50.6159 43.2574 50.2055C43.4555 49.8093 43.8093 49.5263 43.9932 49.1159Z" fill="#ECEBEB"/>
<path d="M49.4694 62.5443C50.1628 60.1104 50.7995 57.6483 51.2099 55.1436C51.408 53.8984 51.3939 52.5966 51.6344 51.3797C51.7759 50.6438 51.8608 49.8939 51.875 49.1439C51.8891 48.7618 51.9174 48.3373 51.8608 47.9553C51.8184 47.6298 51.6627 47.4034 51.5637 47.0921C51.4363 46.6676 51.4646 46.2572 51.224 45.8469C50.8137 45.1111 50.0637 44.5309 49.2289 44.4318C48.9034 44.3894 48.5355 44.4177 48.2808 44.6299C48.0827 44.7998 47.9695 45.0545 47.8704 45.295C47.6016 45.9601 47.3327 46.6393 47.0497 47.3044C46.8799 47.7289 46.6959 48.1958 46.8374 48.6345C46.9648 49.0307 47.3327 49.342 47.3752 49.7524C47.4176 50.1627 47.1629 50.6863 47.4884 50.9551L47.7997 51.1674C47.8987 51.2948 47.8846 51.4787 47.8421 51.6485C47.3469 54.0541 46.3846 56.3323 45.2951 58.5256C45.097 58.9218 44.8988 59.318 44.7998 59.7425C44.7149 60.1246 44.7149 60.5208 44.7432 60.917L44.7856 61.1009C44.8988 61.2424 45.1253 61.1292 45.2951 61.1575C45.479 61.1858 45.6064 61.3698 45.6205 61.5679C45.6347 61.7518 45.5781 61.9358 45.5073 62.1198C45.0687 63.4499 45.3941 65.7139 43.5687 66.1951C43.4555 66.2234 43.3423 66.2375 43.2433 66.3083L43.0735 66.5205C42.8471 66.9167 42.6914 67.3554 42.5216 67.7799C42.3235 68.261 42.0971 68.728 41.8424 69.1808C41.7575 69.3364 41.6584 69.4921 41.5311 69.6053C41.3754 69.7468 41.1632 69.8175 40.9651 69.8883C40.4981 70.0581 40.0311 70.2138 39.6208 70.4826C39.1114 70.8222 38.7576 71.0486 38.1916 71.275C38.0359 71.3316 37.8944 71.4307 37.7529 71.5156L37.4841 71.7278C37.385 71.841 37.3567 71.9967 37.3143 72.1523C37.2577 72.4071 36.536 74.6287 36.6634 74.657C36.2813 74.5579 35.9134 74.3456 35.5172 74.374C35.121 74.4023 34.7389 74.8551 34.9512 75.1805C34.4984 74.8268 33.8191 74.8834 33.3097 75.1522C32.8003 75.4211 32.4041 75.8739 32.022 76.2984C31.4843 76.8927 30.4938 77.3031 30.0834 77.9823L30.0127 78.2228L30.0834 78.4209C30.607 79.4681 31.2296 81.6331 32.8711 81.1803C33.2956 81.0529 33.6352 80.7274 33.9748 80.4444C35.2766 79.3973 36.9747 79.0294 38.3897 78.1379C39.7623 77.2606 40.7953 75.9305 42.1395 75.0107C42.4225 74.8126 42.7197 74.6428 42.9461 74.3881C43.1018 74.2183 43.2433 74.006 43.4414 73.8787C43.597 73.7938 43.781 73.7655 43.9366 73.7089C44.2621 73.5815 44.5168 73.3127 44.7573 73.058C45.8894 71.8127 47.1204 70.3977 47.545 68.728C47.7431 67.9638 47.7997 67.2563 48.0827 66.5347C48.3657 65.8271 48.5355 65.0913 48.7336 64.3697C48.9458 63.7329 49.2855 63.181 49.4694 62.5443Z" fill="#FBFBFC"/>
<path d="M43.0171 61.6812C42.9888 61.8085 42.9463 61.9359 42.9463 62.0632C42.9605 62.3746 43.2293 62.6151 43.4699 62.8132C43.8519 63.1245 44.234 63.45 44.517 63.8603C44.7858 64.2707 44.9415 64.7943 44.7858 65.2612C44.5028 65.4452 44.1066 65.2754 43.8378 65.0631C43.7104 64.9641 43.5689 64.8367 43.4133 64.8367C43.2152 64.8226 43.0595 64.9924 42.9746 65.1622C42.8897 65.332 42.8614 65.5301 42.7765 65.714C42.4935 66.3791 41.7577 66.9027 41.2766 67.4121C41.1917 67.497 41.1068 67.596 41.1068 67.7092C41.0926 67.9215 41.3049 68.0488 41.4181 68.2328C41.5737 68.5017 41.4464 68.8413 41.503 69.1526C41.602 69.6761 42.2246 70.1148 42.0265 70.6101C41.7435 70.3129 41.5879 69.9025 41.2907 69.6054C41.0077 69.3082 40.47 69.1667 40.187 69.478C40.0455 69.6337 40.0172 69.8459 39.904 70.0157C39.6634 70.3978 39.1399 70.4685 38.7012 70.6242C38.1776 70.8082 37.7107 71.1761 37.4135 71.643C37.1588 72.0534 36.989 72.5769 36.5362 72.7609L36.2532 72.8741C36.0692 72.9873 36.0126 73.2703 36.1541 73.4401C35.5174 73.6099 34.9231 73.9637 34.4844 74.4589C34.3005 74.6712 34.0882 74.9118 33.8193 74.9118C33.692 74.9118 33.5788 74.8552 33.4656 74.8127C33.1401 74.6995 32.7722 74.6712 32.4185 74.7278C32.9986 74.1759 33.8052 73.4826 34.4844 73.1713C35.7013 72.6194 36.3522 71.9543 36.6353 71.5157C36.9183 71.077 38.4182 69.945 38.4182 69.945C38.4182 69.945 40.0596 67.7092 40.2011 67.596C40.3426 67.497 41.3332 66.4499 41.4039 65.9829C41.4888 65.5159 41.6162 61.9359 42.1256 61.1718C42.635 60.4077 43.2293 53.7287 43.2293 53.7287C43.2293 53.7287 43.4416 50.6722 44.7151 48.3657C44.7858 48.7336 44.8566 49.4836 44.8566 49.611C44.8283 50.3043 44.6585 51.0118 44.5594 51.691C44.3613 53.0919 44.1632 54.507 43.9793 55.922C43.951 56.1484 43.9227 56.3607 43.9368 56.5871C43.9651 56.9974 44.1066 57.3795 44.0925 57.7757C44.6868 57.0682 45.1396 56.0635 45.55 55.2286C46.2433 53.8278 46.9367 52.4269 47.6301 51.0118C46.8518 52.9221 46.0735 54.8466 45.2953 56.771C45.083 57.2804 44.8707 57.7898 44.616 58.2851C44.2906 58.8936 43.8802 59.4454 43.5831 60.0539C43.3425 60.5775 43.1727 61.1293 43.0171 61.6812Z" fill="#D4D3D3"/>
<path d="M28.1309 78.9306C27.9328 78.6617 27.763 78.4636 27.4234 78.4778C27.0555 78.4919 26.6027 78.6476 26.2914 78.8457C25.8244 79.1428 25.3716 79.4258 24.9046 79.723L24.6924 79.8928C24.5509 80.0626 24.5226 80.3173 24.6216 80.5154C24.7065 80.7135 24.8905 80.8692 25.0744 80.9824C25.2584 81.0814 25.4848 81.1522 25.598 81.3361C25.6829 81.4635 25.6971 81.6333 25.7537 81.7748C26.0084 82.3267 26.8857 82.2276 27.3102 82.6521L27.5507 82.9634C27.763 83.2464 28.0602 83.4587 28.3998 83.5719C28.5413 83.6285 28.6969 83.6568 28.8384 83.6143C28.9516 83.5719 29.0365 83.5011 29.1214 83.4304C29.5318 83.0908 30.0129 82.8219 30.5082 82.638C29.7724 82.0012 29.4469 81.039 28.9658 80.19C28.7252 79.7513 28.4281 79.3409 28.1309 78.9306Z" fill="#FCDDCE"/>
<path d="M22.3008 16.5985L23.3196 15.7495C23.3196 15.7495 25.6827 16.74 26.8289 17.5608C27.9751 18.3956 32.3617 22.6973 32.3617 22.6973C32.3617 22.6973 29.8146 25.9378 28.1307 26.0651C26.4468 26.1925 26.4468 26.1925 26.4468 26.1925C26.4468 26.1925 23.5743 24.8199 23.8432 23.235C24.112 21.6502 22.3008 16.5985 22.3008 16.5985Z" fill="#5CBB9E"/>
<path d="M3.50925 16.2446C3.50925 16.2446 1.4716 17.7021 1.59895 18.5794C1.71216 19.4568 1.3584 20.9001 1.3584 20.9001L4.83938 17.688L3.50925 16.2446Z" fill="#431F1E"/>
<path d="M10.8816 8.95703L10.4854 9.25419C10.4854 9.25419 8.56095 10.5985 8.37699 11.122C8.19304 11.6597 7.44307 12.7493 7.44307 12.7493L6.48085 13.8672C6.48085 13.8672 4.69791 14.7728 4.3017 15.1549C3.90549 15.5369 3.58003 16.2586 3.50928 16.2445L4.3866 17.6029C4.3866 17.6029 6.67895 16.4143 6.80631 16.3718C6.93366 16.3294 7.57042 16.1737 7.57042 16.1737C7.57042 16.1737 9.21186 15.3247 9.39582 15.1549C9.59392 14.9992 10.6835 13.5983 10.8533 13.0889C11.0373 12.5795 11.9853 11.9145 12.141 11.2211C12.3108 10.5419 10.8816 8.95703 10.8816 8.95703Z" fill="#431F1E"/>
<path d="M19.3861 54.3515C16.4853 55.1581 12.4524 54.8326 7.72624 53.5025C5.17918 52.7808 3.59434 51.5639 2.68872 50.5168C1.9246 49.6253 1.64159 48.8612 1.65574 48.6065C1.69819 48.0546 3.38208 44.3755 3.35378 43.4699C3.32548 42.5501 3.89149 40.8945 3.99055 40.2719C4.07545 39.6493 2.80192 33.5505 2.2076 31.0884C1.99535 30.1969 1.79724 28.5555 1.65574 26.7867C1.40104 23.6877 1.27368 20.2209 1.40104 19.853C1.59914 19.287 3.11323 18.4804 4.37261 17.6172C5.63199 16.7541 8.05169 15.9334 8.05169 15.9334L10.9667 15.2824L15.0986 14.1787C15.0986 14.1787 21.1691 14.1646 23.5463 16.0607C25.9236 17.9569 24.7208 22.3435 24.7915 23.1925C24.8623 24.0415 24.2538 38.1918 24.0416 40.0597C23.8435 41.9417 23.8718 48.3235 23.8718 49.1583C23.8718 49.9791 22.2869 53.5449 19.3861 54.3515Z" fill="#3BAC8E"/>
<path d="M27.3384 24.5225C27.6921 24.0555 28.1025 23.631 28.4279 23.1357C28.6826 22.7395 28.9232 22.0179 29.3619 21.7915C29.9845 21.466 30.5929 21.9047 31.1165 22.1877C31.7957 22.5697 32.4608 22.9801 33.0975 23.4329C33.2107 23.5178 33.324 23.6027 33.423 23.7159C33.706 24.0697 33.6494 24.5791 33.5928 25.0177C33.5362 25.3573 33.4938 25.6828 33.4372 26.0083C33.4089 26.1922 33.3806 26.3762 33.2674 26.5177C33.1117 26.7016 32.8994 26.6875 32.7013 26.7724C32.5032 26.8431 32.4466 27.0271 32.3051 27.1969C32.1212 27.4233 31.7533 27.6356 31.6259 27.8903C31.5693 28.0035 30.0694 26.6026 30.0694 26.6026L28.7534 27.0554C28.4279 27.0271 28.0883 26.9705 27.777 26.8573C27.5789 26.7865 27.3525 26.7016 27.2252 26.546C27.0695 26.3479 26.8431 26.0224 26.8148 25.7677C26.8007 25.5555 26.8714 25.3432 26.9563 25.1592C27.0554 24.9328 27.1827 24.7206 27.3384 24.5225Z" fill="white"/>
<path d="M31.9372 21.4658C31.9372 21.4658 30.7627 22.7818 30.3382 24.6638C29.9279 26.5316 28.9374 30.8333 28.8949 31.6116C28.8524 32.3899 28.7534 35.8709 28.9657 36.352C29.1779 36.8472 30.6778 37.6255 31.2297 37.5406C31.7816 37.4557 35.7578 37.2717 36.9323 35.9699C38.1068 34.6681 38.7011 34.2153 39.1822 32.97C39.6775 31.7248 40.951 30.0126 41.0925 29.7579C41.2198 29.4891 41.2057 23.7865 39.4227 23.079C37.654 22.3573 31.9372 21.4658 31.9372 21.4658Z" fill="#FAC6A9"/>
<path d="M28.0177 30.7488C27.9328 30.8761 27.8479 30.9752 27.7772 31.0176C27.5224 31.1733 25.6546 30.3526 25.5839 30.3384C25.4989 30.3243 25.0037 30.3384 24.2113 30.2535C23.4047 30.1686 23.1924 30.0271 22.9519 30.3526C22.7113 30.678 22.0604 31.0884 22.0604 31.0884C22.0604 31.0884 21.9755 30.862 21.8765 30.5082C21.9472 30.3809 22.6547 29.9705 22.8104 29.7158C22.966 29.4753 22.7821 29.0508 22.7538 29.0083C22.8104 29.0366 23.6028 29.4611 24.0981 29.5177C24.6216 29.5885 25.598 29.8149 25.7112 29.829C25.8244 29.8432 26.5036 30.3384 27.1404 30.678C27.7772 31.0176 28.0177 30.7488 28.0177 30.7488Z" fill="#613B37"/>
<path d="M28.0176 30.7486L28.3289 30.1968C28.244 30.3383 28.1308 30.5647 28.0176 30.7486Z" fill="#613B37"/>
<path d="M29.8431 28.6262C29.7016 28.8243 29.3195 29.1214 29.3195 29.1214C29.3195 29.1214 28.9941 29.744 28.6969 29.8855C28.3998 30.0271 28.3998 30.0271 28.3998 30.0271L28.3149 30.1969L26.8149 29.3054L26.0933 28.6686L27.6356 29.2912C27.6356 29.2912 28.2441 29.928 28.5413 29.8572C28.8384 29.7865 28.9375 29.2488 28.9375 29.2488L27.8338 28.23L26.3763 27.4941C26.3763 27.4941 27.4941 27.763 27.7913 27.862C28.0885 27.9611 28.9941 28.8384 29.2629 28.895C29.5035 28.9516 29.8148 28.6545 29.8431 28.6262Z" fill="#613B37"/>
<path d="M29.9135 27.6641C29.8994 27.8197 29.9843 28.4282 29.8428 28.6121L29.9135 27.6641Z" fill="#613B37"/>
<path d="M30.3949 27.2959L30.2675 27.494C30.0836 27.5507 29.9421 27.5365 29.9279 27.6497L28.6685 26.8148L27.3525 25.9517L29.0364 26.5177L30.3949 27.2959Z" fill="#613B37"/>
<path d="M10.1177 46.4697C10.2167 46.6678 10.2875 46.8235 10.3299 46.8942C10.2733 46.8235 10.2026 46.6537 10.1177 46.4697Z" fill="#613B37"/>
<path d="M12.3959 34.7532C11.9714 33.7626 10.9667 31.5269 10.3582 30.1826L12.693 34.4843H12.7072L12.3959 34.7532ZM2.68874 50.5166C1.95292 49.6535 1.65576 48.9035 1.65576 48.6205C1.65576 48.6063 1.65576 48.6063 1.65576 48.5922C1.69821 48.0403 3.3538 44.4178 3.3538 43.4698C3.3538 43.4556 3.3538 43.4556 3.3538 43.4415C3.3538 43.4273 3.3538 43.399 3.3538 43.3849C3.3538 42.4651 3.89151 40.852 3.99057 40.2435C3.99057 40.2152 3.99057 40.1869 3.99057 40.1586C3.99057 39.3096 3.02834 34.6541 2.41988 31.9655C3.31135 33.7485 4.52828 35.9701 5.94331 37.9936C7.61305 40.3708 8.90073 41.6444 9.90541 42.1679C10.4714 42.6207 11.2072 42.7764 11.844 42.7764C12.0846 42.7764 12.3251 42.7481 12.5232 42.7198C13.259 42.5783 15.4665 40.8095 17.0655 39.3379C18.6645 37.8662 23.6171 30.9467 23.6171 30.9467C23.6171 30.9467 23.1926 30.7911 22.8247 30.4798C22.8671 30.4373 22.9096 30.3949 22.9379 30.3524C23.0511 30.1967 23.1643 30.1543 23.3341 30.1543C23.518 30.1543 23.7869 30.2109 24.2114 30.2533C24.3387 30.2675 24.452 30.2817 24.551 30.2817L24.1548 34.5834L21.919 35.0079C21.919 35.0079 19.4427 37.5408 17.9428 39.0549C16.4429 40.5831 14.2354 43.1726 14.2354 43.1726L14.9005 45.9885L13.4288 43.5547C13.4288 43.5547 11.4195 44.814 10.3016 44.814C10.2875 44.814 10.2733 44.814 10.2733 44.814H10.2592C9.5375 44.814 9.83465 45.7904 10.1035 46.4272C9.679 45.5357 8.84413 43.8235 8.74508 43.6962C8.60358 43.5122 7.69795 42.6632 7.69795 42.6632C7.69795 42.6632 6.15557 41.2199 6.05652 41.2199C6.07067 41.3472 5.4622 43.3849 5.4622 43.3849L4.91034 41.7717C4.88204 41.7859 3.2123 48.9176 2.68874 50.5166Z" fill="#27655A"/>
<path d="M13.0749 10.6694C13.0042 10.7968 11.7165 12.9052 11.4194 13.8391C11.1222 14.8013 10.8392 16.1598 10.6411 16.4003C10.443 16.655 9.32511 16.2022 8.97135 16.3579C8.85815 16.4003 8.51854 16.5701 8.12233 16.7682C7.92423 16.4852 7.79688 16.3013 7.79688 16.3013C7.79688 16.3013 10.0468 14.8155 10.2732 14.2919C10.4713 13.8957 10.9382 12.9476 11.3628 12.0137C12.2684 11.3062 13.0183 10.7119 13.0749 10.6694Z" fill="#613B37"/>
<path d="M18.1549 20.4474C18.0842 21.2257 17.3059 24.8057 15.2683 24.1406C13.2306 23.4756 10.9666 20.4898 10.3298 19.7257C9.84869 19.1597 8.71667 17.5607 8.15065 16.7683C7.95255 16.4853 7.8252 16.3013 7.8252 16.3013C7.8252 16.3013 10.0751 14.8155 10.3015 14.292C10.4713 13.8958 10.9383 12.9477 11.3628 12.0138C11.5043 11.7166 11.6316 11.4336 11.7448 11.1648C12.226 10.0469 13.5985 7.95264 13.5985 7.95264C18.1125 8.06584 15.6362 12.7354 15.6503 13.1317C15.6786 13.5279 17.3201 16.0325 18.0276 17.7305C18.7351 19.4286 18.2257 19.6691 18.1549 20.4474Z" fill="#FAC6A9"/>
<path d="M18.5229 20.2776C18.4096 20.2776 18.2964 20.2635 18.1832 20.2352C18.3106 19.5984 18.6644 19.2588 18.0417 17.7306C17.6031 16.6976 16.8248 15.3392 16.2729 14.3628L20.1501 15.2684C20.1501 15.2684 21.8765 15.9476 22.1453 16.3014C22.4142 16.6551 22.7255 17.7872 22.7255 17.7872C22.7255 17.7872 22.2161 18.1692 21.8199 18.339C21.4237 18.523 19.6549 19.7399 19.103 20.0937C18.9049 20.2352 18.7068 20.2776 18.5229 20.2776Z" fill="#3A8D68"/>
<path d="M14.0936 22.9517C14.1785 22.3715 14.2634 21.7914 14.3483 21.197L14.3341 20.8999L14.1219 20.6593C13.8106 20.4188 13.4992 20.1782 13.2021 19.9377L13.1172 19.6971L13.2162 19.6688C13.4426 19.6688 13.6691 19.7679 13.8813 19.7679C13.9379 19.7679 13.9804 19.7679 14.037 19.7537C14.3058 19.683 14.4756 19.4424 14.6879 19.2868C14.9426 19.1028 15.268 19.032 15.5652 18.9047C16.2303 18.5934 16.1312 18.2113 15.7916 17.7161C15.4661 17.2491 15.169 16.768 14.8294 16.3152C13.9662 15.1407 14.0936 13.853 14.0936 13.853L16.2586 14.3624C16.8104 15.3388 17.6028 16.6831 18.0274 17.7302C18.6641 19.2585 18.3104 19.5981 18.1689 20.2348C17.9 20.1782 17.6453 20.0933 17.3906 20.0226C17.15 19.966 16.8812 19.9377 16.584 19.9377C15.9048 19.9377 15.1831 20.1358 14.9709 20.8008C14.8577 21.1121 14.9001 21.4942 14.8152 21.8197C14.7586 22.0744 14.7303 22.414 14.5888 22.6404L14.0936 22.9517Z" fill="#F5A67F"/>
<path d="M25.0461 5.90069C25.0461 5.90069 25.7536 6.79217 25.6404 8.10815C25.5272 9.40998 25.2159 10.9524 24.9895 11.2354C24.7631 11.5184 23.8292 13.0466 23.8009 13.1457C23.7867 13.2447 23.4896 15.4522 23.3056 15.7493C23.1358 16.0465 22.1028 15.9757 22.1028 15.9757L21.3953 16.8248L20.9991 17.3766C20.9991 17.3766 20.1926 18.7633 20.0652 18.8483C19.952 18.9332 18.7351 19.103 18.0134 18.735C17.3059 18.3671 14.8296 15.9616 14.1645 14.7305C13.4994 13.4994 16.0324 7.95249 16.0324 7.95249C16.0324 7.95249 20.0935 3.76399 25.0461 5.90069Z" fill="#FAC6A9"/>
<path d="M14.8155 12.5937C14.8155 12.5937 13.9099 12.9899 13.4005 12.1126C12.9052 11.2211 13.0467 10.2165 13.358 9.33915C13.6694 8.47598 14.2354 8.20712 14.7448 8.27787C15.2542 8.34862 16.2023 9.4665 16.0608 9.94761C15.9334 10.4146 15.424 12.1126 14.8155 12.5937Z" fill="#FBD5BF"/>
<path d="M24.9329 8.07977C24.9329 8.07977 24.9895 9.16934 24.6924 9.74951C24.3952 10.3297 23.999 11.4334 23.999 11.4334C23.999 11.4334 21.9614 10.5561 21.6359 10.5561C21.3246 10.5419 20.0369 10.7542 19.6124 11.0796C19.202 11.4192 19.103 11.9004 19.0605 12.2117C19.0181 12.523 19.2303 13.2588 19.853 13.5135C20.4756 13.7682 20.8293 13.8531 20.8293 13.8531C20.8293 13.8531 19.8671 15.0559 19.0181 15.1266C18.1691 15.1832 17.5323 13.4569 17.3484 13.0324C17.1785 12.6079 17.1785 11.2919 17.6738 10.8391C18.1691 10.3863 19.5558 9.82026 20.136 9.26839C20.7161 8.71653 22.4708 7.74016 23.0651 7.68356C23.6453 7.62695 25.1027 7.83921 24.9329 8.07977Z" fill="#FBD5BF"/>
<path d="M24.9329 8.07977C24.9329 8.07977 24.9895 9.16934 24.6924 9.74951C24.3952 10.3297 23.999 11.4334 23.999 11.4334C23.999 11.4334 21.9614 10.5561 21.6501 10.5561C21.3388 10.5419 20.0511 10.7542 19.6266 11.0796C19.2162 11.4192 19.1172 11.9004 19.0747 12.2117C19.0323 12.523 19.2445 13.2588 19.8671 13.5135C20.4897 13.7682 20.8435 13.8531 20.8435 13.8531C20.8435 13.8531 19.8813 15.0559 19.0323 15.1266C18.1832 15.1832 17.5465 13.4569 17.3625 13.0324C17.1927 12.6079 17.1927 11.2919 17.688 10.8391C18.1832 10.3863 19.57 9.82026 20.1501 9.26839C20.7303 8.71653 22.4849 7.74016 23.0792 7.68356C23.6453 7.62695 25.1027 7.83921 24.9329 8.07977Z" fill="#FBD5BF"/>
<path d="M23.518 10.8394L23.3907 11.7025C23.3907 11.7025 22.8247 13.6128 22.7964 13.7402C22.7681 13.8675 21.9756 14.6741 21.8483 14.8864C21.7209 15.1128 23.1643 15.5656 23.1643 15.5656L23.985 11.4195L23.518 10.8394Z" fill="#FBD5BF"/>
<path d="M23.0506 6.72163C23.0506 6.72163 21.579 7.14614 21.3384 7.33009C21.0979 7.51405 18.3102 9.21209 18.197 9.25454C18.0838 9.29699 18.7913 7.71215 18.7913 7.71215C18.7913 7.71215 19.1734 7.11784 18.8196 7.14614C18.4659 7.17444 17.6735 7.54235 17.6735 7.54235C17.6735 7.54235 17.7442 5.98581 17.914 5.94336C18.0838 5.91506 18.6781 5.75941 18.3244 5.71695C17.9565 5.66035 16.9235 5.32074 16.9235 5.32074L17.2348 4.68398C17.2348 4.68398 16.5556 4.24532 16.2018 4.52833C15.8481 4.82548 16.032 3.49535 16.032 3.49535L16.1735 2.56143C16.1735 2.56143 15.2113 2.60388 14.9142 3.05669C14.6028 3.5378 13.6406 4.08967 13.6406 4.08967C13.6406 4.08967 15.0274 2.30672 15.4943 1.55676C15.9613 0.806788 18.48 0.438879 18.5649 0.45303L18.3102 1.13225C18.3102 1.13225 17.7442 1.3445 17.9565 1.52846C18.1687 1.71241 20.0083 1.82561 19.8809 2.10862C19.7677 2.37748 18.0697 2.53313 18.2253 2.94349C18.381 3.368 18.6923 3.89156 18.6923 3.89156C18.6923 3.89156 18.9753 4.14627 19.8526 4.08967C20.7299 4.03306 21.3101 4.04721 21.3101 4.04721C21.3101 4.04721 19.2866 4.65568 19.6545 4.86793C20.0224 5.08019 21.8195 5.37735 21.8195 5.37735C21.8195 5.37735 22.0318 6.02826 21.678 6.29712C21.3526 6.53767 23.0506 6.72163 23.0506 6.72163Z" fill="#613B37"/>
<path d="M39.8615 37.3709C39.8615 37.3709 39.8898 36.6775 40.47 36.3804C41.036 36.0832 41.9133 36.3379 41.8426 36.8898C41.7718 37.4275 41.5737 37.9652 40.8379 38.9558C40.1162 39.9463 39.9323 40.2293 39.338 40.1585C38.7437 40.0878 38.9842 39.5784 39.0408 39.2105C39.0974 38.8425 39.8615 37.3709 39.8615 37.3709Z" fill="#FBD5BF"/>
<path d="M11.476 41.871C11.292 42.2389 11.0939 42.4653 10.8817 42.4653C10.5987 42.4512 10.2732 42.3521 9.90531 42.1681C8.90064 41.6446 7.61295 40.3711 5.95737 38.008C3.69331 34.7817 1.95282 31.0318 1.20285 29.4046C0.452886 27.7914 0.268931 25.301 0.0708265 24.1548C-0.0989775 23.1501 0.0283755 20.8011 0.990598 20.0512C1.11795 19.9521 1.25945 19.8814 1.41511 19.8389C2.77354 19.5276 5.80171 19.655 6.94789 22.1596C8.07992 24.6642 9.84871 29.0932 9.84871 29.0932C9.84871 29.0932 11.759 33.2676 12.3958 34.7534C12.4807 34.9373 12.5373 35.0788 12.5656 35.1779C12.792 35.7864 12.2684 40.2579 11.476 41.871Z" fill="#5CBB9E"/>
<path d="M23.6168 30.9328C23.6168 30.9328 18.6642 37.8523 17.0652 39.324C15.4662 40.7956 13.2588 42.5644 12.523 42.7059C11.7871 42.8474 10.6834 42.7766 9.90514 42.154C9.59383 41.8993 9.43818 41.404 9.36743 40.7814C9.26838 39.8334 9.42403 38.6306 9.69289 37.6684C10.1315 36.0835 12.3814 34.8241 12.3956 34.7392L22.8102 26.2773C22.8102 26.2773 22.2159 28.6546 22.3291 29.5744C22.3716 29.914 22.5555 30.1828 22.7678 30.3951C23.1357 30.763 23.6168 30.9328 23.6168 30.9328Z" fill="#5CBB9E"/>
<path d="M9.90523 42.1677C8.90056 41.6442 7.61288 40.3707 5.95729 38.0076C3.69324 34.7813 1.95275 31.0314 1.20278 29.4042C0.452811 27.791 0.268856 25.3006 0.0707517 24.1544C0.0283007 23.928 0 23.6167 0 23.2771C0 22.145 0.240556 20.6309 0.990523 20.0508C0.990523 20.0508 0.580164 22.8525 0.86317 24.6921C1.14618 26.5458 2.64611 30.1117 3.90549 32.5738C5.16487 35.036 8.00909 39.465 9.04206 40.4839C9.15527 40.5971 9.26847 40.6961 9.36752 40.7952C10.2024 41.5593 10.7118 41.7149 11.4759 41.8706C11.5184 41.8847 11.575 41.8847 11.6457 41.8847C12.6079 41.8847 14.8013 40.6254 15.8625 39.5075C16.7964 38.517 21.268 32.4465 22.7537 30.4088C23.1358 30.7767 23.6169 30.9465 23.6169 30.9465C23.6169 30.9465 18.6643 37.866 17.0653 39.3377C15.4663 40.8093 13.2589 42.5781 12.523 42.7196C12.3249 42.7621 12.0844 42.7762 11.8438 42.7762C11.2071 42.7762 10.4712 42.6206 9.90523 42.1677Z" fill="#33766B"/>
<path d="M31.7251 123.179L36.5928 92.9679C36.7626 91.8924 37.4135 90.9585 38.3474 90.4208L44.3896 86.9257C45.1537 86.4729 46.0735 86.2748 46.9508 86.4446C48.1253 86.671 49.0734 87.4068 49.5686 88.4539L58.1013 106.524C58.4267 107.217 59.2616 107.514 59.955 107.189C60.5493 106.906 60.804 106.198 60.521 105.604L51.9317 87.4209C51.6912 86.9257 51.4082 86.4446 51.0544 86.0201C48.9885 83.5862 45.6773 83.2041 43.201 84.6333L37.0597 88.1851C35.4466 89.119 34.3429 90.718 34.0457 92.5575L29.1497 122.952C29.0506 123.603 29.4893 124.226 30.1402 124.325C30.9043 124.452 31.6119 123.943 31.7251 123.179Z" fill="#777678"/>
<path d="M50.9838 89.2179L59.5164 107.288L59.5306 107.316C58.9504 107.387 58.3702 107.09 58.1155 106.538L49.5829 88.4679C49.3706 88.0151 49.0593 87.6331 48.6914 87.3076C49.7102 87.5906 50.5309 88.2557 50.9838 89.2179Z" fill="#616569"/>
<path d="M33.0693 108.095L30.5506 123.717C30.5223 123.929 30.5506 124.141 30.6213 124.325C30.4657 124.353 30.31 124.367 30.1544 124.339C29.5035 124.24 29.0506 123.617 29.1639 122.967L34.0599 92.5716C34.357 90.7321 35.4608 89.1189 37.0739 88.1992L43.2151 84.6474C45.2528 83.473 47.8564 83.5437 49.8658 84.9729C48.1395 84.322 46.2009 84.4776 44.6019 85.3974L38.4606 88.9491C36.8475 89.8831 35.7438 91.482 35.4466 93.3216L33.0693 108.095Z" fill="#A7A7A9"/>
<path fill-rule="evenodd" clip-rule="evenodd" d="M23.6735 14.1221C21.9755 13.4004 19.386 12.6363 16.8389 12.0278C15.6645 14.6032 16.0041 14.1645 15.5229 16.4286C16.1739 17.2918 16.9097 18.0983 18.0417 18.7209C18.6643 18.9898 19.3435 19.0464 20.0935 18.8341C21.6217 16.6833 22.4708 17.0229 23.3339 15.7352C23.5037 15.2966 23.5886 14.7022 23.6735 14.1221Z" fill="#00519A"/>
<path d="M17.1783 12.4525C15.0699 9.22618 17.1783 12.4525 17.1783 12.4525V12.4525Z" stroke="white" stroke-width="0.5669" stroke-miterlimit="22.9256"/>
<path d="M38.8145 20.1927C33.1261 18.0277 29.7583 21.3955 29.2913 24.7208C29.1781 25.5132 29.8998 27.8622 29.8998 27.8622C29.8998 27.8622 30.1545 26.4189 30.2536 25.9378C30.9469 22.8671 32.4469 22.2162 37.2155 25.2302C39.8758 26.9141 38.3759 30.4659 38.008 32.1073C38.5032 32.0931 38.9843 31.796 38.9843 31.796C38.9843 31.796 39.3664 29.5602 40.4843 30.2395C41.2484 30.7064 40.9088 31.7535 40.9088 31.7535C40.9088 31.7535 42.5502 30.4376 43.187 28.5273C43.3992 27.8905 44.503 22.3577 38.8145 20.1927Z" fill="#F0E6DE"/>
<path d="M38.3051 19.3149C38.3051 19.3149 37.2296 20.5177 37.2438 20.6734C37.2579 20.829 37.5268 21.2111 37.6825 21.2252C37.8523 21.2394 38.772 20.6734 38.772 20.6734L39.0975 20.546L39.6352 20.829C39.6352 20.829 39.239 21.9328 39.2814 22.2299C39.3239 22.5271 39.8616 22.5837 39.8616 22.5837L40.6257 21.7488L40.9795 21.8196L41.1493 21.9611C41.1493 21.9611 40.9512 23.3619 40.9512 23.5742C40.9512 23.7864 41.6021 23.9563 41.6021 23.9563L42.2955 23.1072L42.6209 23.5317L42.2672 25.0883C42.2672 25.0883 42.5077 25.8382 42.6492 25.8241C42.7907 25.8099 43.1445 24.876 43.1445 24.876C43.1445 24.876 43.286 24.1261 43.1303 23.56C42.9888 22.994 42.437 23.0506 42.437 23.0506L42.3379 22.0177L41.3898 21.296C41.3898 21.296 41.22 20.7158 40.9795 20.5319C40.7389 20.3479 40.0456 20.1781 40.0456 20.1781L39.6069 19.513L38.3051 19.3149Z" fill="#FFFBDC"/>
<path d="M30.5083 26.7016C30.4517 26.8572 30.4375 27.1261 30.3809 27.2959L30.2535 27.494C30.0696 27.5506 29.9281 27.5364 29.9139 27.6496V27.6638C29.8998 27.8194 29.9847 28.4279 29.8432 28.6118C29.7017 28.81 29.3196 29.1071 29.3196 29.1071C29.3196 29.1071 28.9942 29.7297 28.697 29.8712C28.3999 30.0127 28.3999 30.0127 28.3999 30.0127L28.315 30.1825C28.2442 30.3382 28.131 30.5646 28.0036 30.7344C27.9187 30.8617 27.8338 30.9608 27.7631 31.0033C27.5084 31.1589 25.6405 30.3382 25.5698 30.324C25.4849 30.3099 24.9896 30.324 24.1972 30.2391C23.3906 30.1542 23.1784 30.0127 22.9378 30.3382C22.6973 30.6636 22.0464 31.074 22.0464 31.074C22.0464 31.074 21.9615 30.8476 21.8624 30.4938C21.5935 29.5741 21.2398 27.8477 22.103 27.1544C22.103 27.1544 23.5321 25.895 23.9708 25.8242C24.3953 25.7535 25.2726 25.046 25.4424 24.9894C25.6122 24.9328 26.2915 24.4658 26.8433 24.6639C27.381 24.862 29.0366 25.7959 29.0366 25.7959C29.0366 25.7959 30.6073 26.4468 30.5083 26.7016Z" fill="#FFFBDC"/>
<path d="M37.3428 31.06L39.2389 30.9468" stroke="black" stroke-width="0.5669" stroke-miterlimit="22.9256"/>
<path d="M33.0694 29.8715C32.6449 29.3338 32.192 29.1923 31.7109 29.447" stroke="black" stroke-width="0.5669" stroke-miterlimit="22.9256"/>
<path fill-rule="evenodd" clip-rule="evenodd" d="M30.2818 28.2724C31.1732 28.5271 31.81 29.0507 31.7251 29.4327C31.626 29.8148 30.8336 29.8997 29.9563 29.645C29.0648 29.3903 28.4281 28.8667 28.513 28.4988C28.5979 28.1167 29.3903 28.0177 30.2818 28.2724Z" fill="white"/>
<path fill-rule="evenodd" clip-rule="evenodd" d="M35.5737 29.5885C36.8189 29.9281 37.7245 30.5791 37.5972 31.0743C37.4698 31.5554 36.352 31.6828 35.1067 31.3573C33.8615 31.0177 32.9559 30.3527 33.0832 29.8715C33.2106 29.3904 34.3285 29.2631 35.5737 29.5885Z" fill="white"/>
<path d="M56.5308 71.2894L56.5591 71.2753V71.1338C56.545 69.8178 56.078 68.799 55.2997 68.3603C54.6347 67.9782 53.7998 68.049 52.9366 68.5301C51.0829 69.6055 49.5688 72.478 49.5688 74.9543V118.636L50.7716 118.608V74.544C50.7716 72.7469 51.8612 70.6668 53.1913 69.9027C53.7291 69.5914 54.2102 69.5489 54.5922 69.7612C55.0167 70.0017 55.2714 70.5536 55.328 71.2894H56.5308Z" fill="#6D483D"/>
<path fill-rule="evenodd" clip-rule="evenodd" d="M19.1028 14.3203C19.6829 14.3203 20.1641 14.8014 20.1641 15.3957C20.1641 15.9901 19.6971 16.4712 19.1028 16.4712C18.5226 16.4712 18.0415 15.9901 18.0415 15.3957C18.0415 14.8014 18.5226 14.3203 19.1028 14.3203Z" fill="#312783"/>
<path d="M16.6405 13.0752C13.202 11.3064 16.6405 13.0752 16.6405 13.0752V13.0752Z" stroke="white" stroke-width="0.5669" stroke-miterlimit="22.9256"/>
<path d="M24.8477 7.57068C24.8477 7.57068 22.8808 6.90562 22.1309 7.45748C21.3809 7.99519 19.2442 9.79228 17.9282 9.94794C16.6122 10.1177 15.9047 11.7875 15.5085 12.2544C15.0982 12.7073 14.1642 13.344 14.1642 13.344C14.1642 13.344 15.65 11.2498 15.6076 10.896C15.5651 10.5423 15.2397 9.79228 14.6595 9.70738C14.0652 9.62248 12.4096 10.8819 12.4096 10.8819L11.037 12.7214C11.037 12.7214 10.0748 10.7262 10.4851 9.43853C10.8814 8.15084 11.9002 5.75944 13.6548 2.87277C15.4095 -0.0138993 19.3999 -0.0563502 19.9942 0.0285518C20.5885 0.113454 21.4375 0.537964 21.4375 0.537964C21.4375 0.537964 22.3856 0.523814 23.1638 1.34453C23.9421 2.1794 25.0883 3.55199 25.5694 4.76891C26.0505 5.97169 26.192 6.4528 26.2203 7.14617C26.2486 7.83954 25.6402 8.3065 25.6402 8.3065L25.4138 7.61313L24.8477 7.57068Z" fill="#4A2727"/>
<path d="M20.8152 87.8173H20.5322L21.2539 82.7656H21.5369C21.636 82.7656 21.7492 82.8364 21.8199 82.9779L22.5274 84.2373C22.6831 84.5061 22.6831 84.9589 22.5133 85.2278L21.0982 87.6192C21.0275 87.7607 20.9143 87.8173 20.8152 87.8173Z" fill="#DBDBDC"/>
<path d="M22.2443 85.2274C22.3999 84.9585 22.4141 84.5057 22.2584 84.2369L21.5509 82.9775C21.3952 82.7086 21.1405 82.6945 20.9849 82.9775L19.5699 85.3689C19.4142 85.6378 19.4001 86.0906 19.5557 86.3594L20.2632 87.6188C20.4189 87.8877 20.6736 87.9018 20.8292 87.6188L22.2443 85.2274Z" fill="white"/>
<path d="M20.518 87.8027H20.3623L21.084 82.7793H21.2396C21.3387 82.7793 21.4519 82.8501 21.5226 82.9916L22.2301 84.2509C22.3858 84.5198 22.3716 84.9726 22.216 85.2415L20.8151 87.6187C20.7302 87.7319 20.6312 87.8027 20.518 87.8027Z" fill="#9C9B9C"/>
<path d="M22.0602 85.2274C22.2159 84.9586 22.23 84.5199 22.0743 84.2369L21.3668 82.9775C21.2112 82.7087 20.9565 82.7087 20.8008 82.9775L19.3999 85.3548C19.2443 85.6236 19.2301 86.0623 19.3858 86.3453L20.0933 87.6047C20.249 87.8735 20.5037 87.8735 20.6593 87.6047L22.0602 85.2274Z" fill="#C8C6C7"/>
<path d="M20.3626 87.7744H20.1362L20.8296 82.8218H21.0702C21.1692 82.8218 21.2683 82.8925 21.3532 83.0199L22.0465 84.251C22.2022 84.5198 22.188 84.9585 22.0324 85.2273L20.6456 87.5763C20.5607 87.7036 20.4617 87.7744 20.3626 87.7744Z" fill="#9C9B9C"/>
<path d="M21.8057 85.2275C21.9614 84.9586 21.9614 84.5199 21.8199 84.2511L21.1265 83.02C20.9708 82.7511 20.7161 82.7511 20.5605 83.02L19.1737 85.369C19.0181 85.6378 19.0181 86.0765 19.1596 86.3453L19.853 87.5764C20.0086 87.8453 20.2633 87.8453 20.419 87.5764L21.8057 85.2275Z" fill="#59555A"/>
<path d="M20.0793 87.7602H19.6548L20.3623 82.8076H20.7868C20.8859 82.8076 20.9849 82.8784 21.0698 83.0057L21.7632 84.2368C21.9188 84.5057 21.9047 84.9443 21.749 85.2132L20.3623 87.5621C20.2774 87.7036 20.1783 87.7744 20.0793 87.7602Z" fill="#918D8F"/>
<path d="M20.0934 87.7885H19.6123L20.334 82.7793H20.5745C20.6736 82.7793 20.7868 82.8501 20.8575 82.9916L21.565 84.2368C21.7207 84.5056 21.7066 84.9584 21.5509 85.2273L20.3623 87.2367L20.5887 87.2649L20.3764 87.5904C20.3057 87.7319 20.1925 87.8027 20.0934 87.7885Z" fill="#9C9B9C"/>
<path d="M19.6126 87.8026H19.3296L20.0513 82.751H20.3343C20.4333 82.751 20.5465 82.8217 20.6173 82.9632L21.3248 84.2226C21.4804 84.4915 21.4804 84.9443 21.3106 85.2131L19.8956 87.6045C19.8107 87.746 19.7116 87.8026 19.6126 87.8026Z" fill="#DBDBDC"/>
<path d="M21.0275 85.2132C21.1831 84.9444 21.1973 84.4916 21.0416 84.2227L20.3341 82.9633C20.1785 82.6945 19.9237 82.6803 19.7681 82.9633L18.3531 85.3547C18.1974 85.6236 18.1833 86.0764 18.3389 86.3453L19.0464 87.6046C19.2021 87.8735 19.4568 87.8876 19.6124 87.6046L21.0275 85.2132Z" fill="white"/>
<path d="M20.5748 85.7083C20.7163 85.4678 20.7163 85.0857 20.5889 84.831L19.9663 83.7273C19.8248 83.4867 19.5984 83.4867 19.4569 83.7273L18.4522 85.4112C18.3107 85.6517 18.3107 86.0338 18.4381 86.2744L19.0607 87.3781C19.2022 87.6186 19.4286 87.6186 19.5559 87.3781L20.5748 85.7083Z" fill="#DBDBDC"/>
<path d="M20.6172 84.1801C20.7021 84.0528 20.7021 83.8264 20.6172 83.699C20.5464 83.5717 20.4191 83.5575 20.3342 83.699C20.2493 83.8264 20.2493 84.0528 20.3342 84.1801C20.4191 84.3217 20.5323 84.3217 20.6172 84.1801Z" fill="#DBDBDC"/>
<path d="M20.5886 84.1378C20.6593 84.0246 20.6593 83.8548 20.5886 83.7416C20.532 83.6284 20.4187 83.6284 20.3621 83.7416C20.2914 83.8548 20.2914 84.0246 20.3621 84.1378C20.4329 84.251 20.532 84.251 20.5886 84.1378Z" fill="white"/>
<path d="M20.5605 83.8123C20.5181 83.7416 20.4473 83.7416 20.4049 83.8123C20.3624 83.8831 20.3624 83.9963 20.4049 84.0671C20.4473 84.1378 20.5181 84.1378 20.5605 84.0671C20.603 83.9963 20.603 83.8831 20.5605 83.8123ZM20.419 84.0529C20.3907 83.9963 20.3907 83.8972 20.419 83.8406C20.4473 83.784 20.5039 83.784 20.5464 83.8406C20.5747 83.8972 20.5747 83.9963 20.5464 84.0529C20.5039 84.1095 20.4473 84.1095 20.419 84.0529Z" fill="#DBDBDC"/>
<path d="M20.4192 85.1711L19.7682 84.0107L18.6221 85.9635L19.273 87.1097L20.4192 85.1711Z" fill="#1E1C1A"/>
<path d="M19.938 84.605L19.9663 84.6191L20.0795 84.8172V84.8738H20.0512L19.9238 84.6616L19.938 84.605Z" fill="#56BDB6"/>
<path d="M19.7822 84.8735H19.8105L19.9237 85.0716V85.1283H19.8954L19.7822 84.916V84.8735Z" fill="#56BDB6"/>
<path d="M19.9238 85.1284H19.9521L20.0795 85.3407L20.0653 85.3973H20.037L19.9238 85.185V85.1284Z" fill="#56BDB6"/>
<path d="M20.0795 84.8735V84.9301L19.9521 85.1283H19.9238V85.0716L20.0512 84.8735H20.0795Z" fill="#56BDB6"/>
<path d="M19.9379 84.605L19.9237 84.6616L19.8105 84.8738H19.7822V84.8172L19.8954 84.605H19.9379Z" fill="#56BDB6"/>
<path d="M20.2206 85.1284V85.185L20.1074 85.3973H20.0649L20.0791 85.3407L20.1923 85.1284H20.2206Z" fill="#56BDB6"/>
<path d="M19.5557 85.2417H19.5981L19.7113 85.4398V85.4964H19.683L19.5557 85.2841V85.2417Z" fill="#56BDB6"/>
<path d="M19.7114 85.4961H19.7397L19.8529 85.7084V85.765L19.8246 85.7508L19.7114 85.5527V85.4961Z" fill="#56BDB6"/>
<path d="M19.7113 84.9727V85.0293L19.5981 85.2415H19.5557V85.1849L19.683 84.9727H19.7113Z" fill="#56BDB6"/>
<path d="M19.3574 85.5957H19.3857L19.4989 85.7938V85.8504H19.4706L19.3574 85.6382V85.5957Z" fill="#56BDB6"/>
<path d="M19.2021 85.8501H19.2304L19.3437 86.0482V86.1048H19.3154L19.2021 85.9067V85.8501Z" fill="#56BDB6"/>
<path d="M19.4995 85.8501H19.5278L19.641 86.0624V86.1048H19.6127L19.4995 85.9067V85.8501Z" fill="#56BDB6"/>
<path d="M19.3433 86.105H19.3716L19.4989 86.3172V86.3738H19.4565L19.3433 86.1616V86.105Z" fill="#56BDB6"/>
<path d="M19.4989 85.8501V85.9067L19.3716 86.1048H19.3433V86.0482L19.4706 85.8501H19.4989Z" fill="#56BDB6"/>
<path d="M19.3578 85.5957V85.6382L19.2304 85.8504H19.2021V85.7938L19.3154 85.5957H19.3578Z" fill="#56BDB6"/>
<path d="M19.641 86.105V86.1616L19.5278 86.3738H19.4995V86.3172L19.6127 86.105H19.641Z" fill="#56BDB6"/>
<path d="M18.9614 86.2466H19.0039L19.1171 86.4447V86.5013H19.0888L18.9614 86.3032V86.2466Z" fill="#56BDB6"/>
<path d="M19.2588 86.2466H19.3012L19.4144 86.4588V86.5013H19.3861L19.2588 86.3032V86.2466Z" fill="#56BDB6"/>
<path d="M19.2587 86.2466V86.3032L19.1455 86.5013H19.1172V86.4447L19.2304 86.2466H19.2587Z" fill="#56BDB6"/>
<path d="M19.1171 85.9917V86.0341L19.0039 86.2464H18.9614V86.1898L19.0888 85.9775L19.1171 85.9917Z" fill="#56BDB6"/>
<path d="M19.4144 86.501V86.5576L19.2871 86.7698H19.2588V86.7132L19.3861 86.501H19.4144Z" fill="#56BDB6"/>
<path d="M19.8105 84.3644C19.7963 84.3786 19.7963 84.4069 19.7822 84.421C19.768 84.4352 19.7539 84.4352 19.7539 84.421C19.7397 84.4069 19.7539 84.3927 19.7539 84.3644L19.768 84.3361C19.768 84.322 19.7822 84.2937 19.768 84.2654C19.7539 84.2371 19.7397 84.2512 19.7256 84.2654C19.7114 84.2795 19.7114 84.3078 19.7114 84.322H19.7256C19.7256 84.3078 19.7256 84.2937 19.7397 84.2795C19.7539 84.2654 19.7539 84.2654 19.768 84.2795C19.7822 84.2937 19.768 84.3078 19.768 84.322L19.7539 84.3503C19.7539 84.3786 19.7397 84.3927 19.7539 84.421C19.768 84.4493 19.7822 84.4493 19.8105 84.4069C19.8105 84.421 19.8105 84.3927 19.8105 84.3644Z" fill="#56BDB6"/>
<path d="M19.6689 84.3643L19.6406 84.4067C19.6265 84.435 19.6123 84.4775 19.6265 84.5058C19.6406 84.5341 19.6689 84.534 19.6831 84.4916L19.6972 84.4633L19.7255 84.5199L19.7397 84.5058L19.6689 84.3643ZM19.6831 84.4775C19.6689 84.5058 19.6548 84.5058 19.6406 84.4916C19.6265 84.4633 19.6265 84.4492 19.6406 84.4209L19.6548 84.4067L19.6831 84.4633V84.4775Z" fill="#56BDB6"/>
<path d="M19.6408 84.5622C19.6125 84.5198 19.5842 84.5056 19.5559 84.5481C19.5276 84.5905 19.5417 84.633 19.5559 84.6896C19.5842 84.732 19.6125 84.7462 19.6408 84.7037C19.6691 84.6613 19.6549 84.6047 19.6408 84.5622ZM19.57 84.6613C19.5559 84.6188 19.5417 84.5905 19.5559 84.5622C19.57 84.5339 19.5983 84.5481 19.6125 84.5764C19.6266 84.6188 19.6408 84.6471 19.6266 84.6754C19.6125 84.7037 19.5983 84.7037 19.57 84.6613Z" fill="#56BDB6"/>
<path d="M19.5838 84.789C19.5555 84.789 19.5414 84.789 19.5272 84.7749C19.5272 84.7607 19.5272 84.7466 19.5272 84.7466L19.5414 84.7324V84.7183C19.5272 84.7183 19.5272 84.7183 19.5131 84.7324C19.4989 84.7466 19.4989 84.7749 19.5131 84.789C19.5272 84.789 19.5414 84.8032 19.5838 84.789L19.5697 84.8173L19.5555 84.8456V84.8598L19.5838 84.789Z" fill="#56BDB6"/>
<path d="M19.2303 85.3691L19.1879 85.27V85.2842L19.202 85.3125V85.3266L19.1879 85.3408C19.1737 85.3549 19.1737 85.3832 19.1879 85.3974C19.202 85.4257 19.2162 85.4257 19.2303 85.4115C19.2303 85.3974 19.2303 85.3832 19.2303 85.3691ZM19.202 85.3832C19.1879 85.3691 19.1879 85.3549 19.202 85.3408L19.2162 85.3266L19.2303 85.3549C19.2303 85.3691 19.2303 85.3691 19.2303 85.3832C19.2162 85.3974 19.202 85.3974 19.202 85.3832Z" fill="#56BDB6"/>
<path d="M19.1878 85.3972C19.1737 85.3689 19.1595 85.383 19.1454 85.3972C19.1312 85.4114 19.1312 85.4397 19.1454 85.4538L19.1878 85.3972C19.1878 85.4255 19.1878 85.4397 19.1878 85.4538L19.1737 85.468V85.4821C19.1737 85.4821 19.1878 85.4821 19.1878 85.468C19.1878 85.4538 19.1878 85.4255 19.1878 85.3972ZM19.1454 85.4397C19.1312 85.4255 19.1312 85.4114 19.1454 85.3972C19.1454 85.383 19.1595 85.383 19.1737 85.3972L19.1454 85.4397Z" fill="#56BDB6"/>
<path d="M19.1454 85.4819C19.1312 85.4677 19.1312 85.4677 19.1029 85.496C19.1029 85.4819 19.0887 85.4819 19.1029 85.4678L19.117 85.4536V85.4395C19.117 85.4395 19.1029 85.4395 19.1029 85.4536C19.0887 85.4677 19.0887 85.4819 19.1029 85.5102L19.1312 85.5526V85.5385V85.5243L19.1454 85.5102C19.1595 85.5102 19.1595 85.496 19.1454 85.4819ZM19.1312 85.5243L19.117 85.5102C19.1312 85.496 19.1454 85.496 19.1454 85.496V85.5243H19.1312Z" fill="#56BDB6"/>
<path d="M19.103 85.5532L19.0889 85.5107V85.4966V85.4824V85.4966L19.0747 85.4824V85.4966L19.0889 85.5107L19.0747 85.5249V85.539L19.0889 85.5249L19.103 85.5532V85.5815V85.5956L19.1172 85.5815C19.1172 85.5815 19.1172 85.5673 19.103 85.5532Z" fill="#56BDB6"/>
<path d="M19.0181 85.5527L19.103 85.6376H19.1171L19.0181 85.5527Z" fill="#56BDB6"/>
<path d="M19.0321 85.5957V85.6099L19.0179 85.624C19.0179 85.6382 19.0179 85.6382 19.0179 85.6523L19.0038 85.6665C18.9896 85.6806 19.0038 85.6948 19.0038 85.7089L19.0321 85.7514V85.7372L19.0038 85.6948C18.9896 85.6806 18.9896 85.6665 19.0038 85.6665H19.0179L19.0462 85.7089V85.6948L19.0179 85.6523C19.0179 85.6382 19.0038 85.624 19.0179 85.624H19.0321L19.0604 85.6665V85.6523L19.0321 85.5957Z" fill="#56BDB6"/>
<path d="M18.9473 85.6943L18.9331 85.7085H18.9473V85.6943ZM18.9614 85.7085L18.9897 85.7792V85.7651L18.9614 85.7085Z" fill="#56BDB6"/>
<path d="M18.9471 85.751V85.7651C18.933 85.7651 18.933 85.7651 18.933 85.7793C18.9188 85.7934 18.933 85.8076 18.933 85.8217L18.9613 85.8642V85.85L18.933 85.8076C18.9188 85.7934 18.9188 85.7793 18.933 85.7793L18.9471 85.7651L18.9754 85.8076V85.7934L18.9471 85.751Z" fill="#56BDB6"/>
<path d="M18.9189 85.8642L18.8906 85.8218V85.8359L18.9189 85.8642C18.9189 85.8925 18.9189 85.8925 18.9189 85.9067H18.9048L18.8765 85.8642V85.8784L18.9189 85.9491V85.935V85.9208C18.9331 85.9208 18.9331 85.9208 18.9331 85.9067C18.9331 85.8925 18.9331 85.8784 18.9189 85.8642Z" fill="#56BDB6"/>
<path d="M18.8764 85.935L18.8623 85.8926V85.8784V85.8643V85.8784L18.8481 85.8643V85.8784L18.8623 85.8926L18.8481 85.9067V85.9209L18.8623 85.9067L18.8764 85.935V85.9633V85.9775L18.8906 85.9633C18.8906 85.9633 18.8906 85.9492 18.8764 85.935Z" fill="#56BDB6"/>
<path d="M18.848 85.9631C18.8338 85.9348 18.8197 85.949 18.8055 85.9631C18.7914 85.9773 18.7914 86.0056 18.8055 86.0197L18.848 85.9631C18.848 85.9914 18.848 86.0056 18.848 86.0197L18.8338 86.0339V86.048C18.8338 86.048 18.848 86.048 18.848 86.0339C18.8621 86.0197 18.8621 85.9914 18.848 85.9631ZM18.8197 86.0056C18.8055 85.9914 18.8055 85.9773 18.8197 85.9631C18.8197 85.949 18.8338 85.949 18.848 85.9631L18.8197 86.0056Z" fill="#56BDB6"/>
<path d="M21.749 84.1662C21.8622 84.1662 21.8198 83.9257 21.6358 83.6144C21.466 83.303 21.2255 83.0625 21.1122 83.0483C20.999 83.0483 21.0415 83.2889 21.2255 83.6002C21.3953 83.9115 21.6358 84.1662 21.749 84.1662Z" fill="#59555A"/>
<path d="M19.9236 87.7036L19.8528 87.5904C19.8104 87.5196 19.8245 87.4206 19.8811 87.3215C20.0085 87.1093 20.3056 86.9395 20.5603 86.9395C20.6735 86.9395 20.7584 86.9819 20.8009 87.0385L20.8716 87.1659L20.8292 87.18C20.8292 87.2225 20.8009 87.2649 20.7726 87.3215C20.6452 87.5338 20.3481 87.7036 20.0934 87.7036C20.0368 87.7036 19.9802 87.6894 19.9377 87.6753L19.9236 87.7036Z" fill="white"/>
<path d="M20.1782 87.8168C20.4188 87.8168 20.7301 87.647 20.8574 87.4348C20.9848 87.2225 20.8857 87.0527 20.6452 87.0386C20.4046 87.0386 20.0933 87.2084 19.9659 87.4206C19.8386 87.647 19.9376 87.8168 20.1782 87.8168Z" fill="#EEEEEF"/>
<path d="M20.2489 87.7038C20.4187 87.7038 20.631 87.5906 20.7159 87.4349C20.7725 87.35 20.7583 87.2793 20.7159 87.2227C20.73 87.2651 20.7159 87.3217 20.6876 87.3925C20.6027 87.534 20.3904 87.6613 20.2206 87.6613C20.1498 87.6613 20.0932 87.633 20.0649 87.6047C20.0791 87.6613 20.1498 87.7038 20.2489 87.7038Z" fill="white"/>
<path d="M20.2208 87.6613C20.3906 87.6613 20.6028 87.5481 20.6877 87.3924C20.7302 87.3358 20.7302 87.2651 20.716 87.2226C20.6877 87.1802 20.6311 87.166 20.5604 87.166C20.3906 87.166 20.1783 87.2792 20.0934 87.4349C20.051 87.4915 20.051 87.5481 20.0651 87.6047C20.0934 87.633 20.15 87.6613 20.2208 87.6613Z" fill="#9C9B9C"/>
<path fill-rule="evenodd" clip-rule="evenodd" d="M28.8948 31.612C29.6872 31.5978 29.9561 31.3573 31.0174 31.5695C32.4749 32.0507 34.1021 33.7204 35.5313 34.1166C35.6728 34.8524 35.5879 35.7722 35.1068 37.0457C33.6776 37.6542 30.607 38.0787 29.2344 36.9325C28.4279 36.2674 28.7109 32.9563 28.8948 31.612Z" fill="#FFFBDC"/>
<path fill-rule="evenodd" clip-rule="evenodd" d="M35.1069 34.0313L39.1115 31.3145L38.9983 31.7956L35.3758 34.7671L35.1069 34.0313Z" fill="#FFFBDC"/>
<path fill-rule="evenodd" clip-rule="evenodd" d="M35.3334 36.3241C36.3663 35.9279 38.2483 34.1449 39.069 33.3101C38.9841 33.494 38.8851 33.7204 38.7294 33.8761C37.9229 34.6119 36.055 36.2675 35.1353 36.7061C35.1919 36.5929 35.2626 36.4514 35.3334 36.3241Z" fill="#FFFBDC"/>
</g>
<defs>
<clipPath id="clip0">
<rect width="61.37" height="124.353" fill="white"/>
</clipPath>
</defs>
</svg>
