<svg width="64" height="128" viewBox="0 0 64 128" fill="none" xmlns="http://www.w3.org/2000/svg">
<path d="M14.9451 93.9176C14.9451 93.9176 14.6308 96.607 14.4806 97.0743C14.3305 97.5415 14.1886 99.3187 15.3345 99.8554C16.4803 100.392 19.0251 101.427 19.2504 101.56C19.4757 101.691 21.1972 103.579 23.5473 104.253C25.9002 104.926 26.3841 104.672 27.2713 103.374C28.1586 102.075 27.3798 100.695 26.6206 99.7637C25.8585 98.8375 22.3264 96.4819 22.3264 96.4819L21.2612 94.8493L20.6744 91.904L14.9451 93.9176Z" fill="#D07439"/>
<path d="M21.2084 93.823C21.1055 94.5156 20.0931 95.8366 17.9238 95.7866C17.0477 95.7671 16.2439 95.5363 15.6015 95.2665C14.6503 94.8716 14.044 94.396 14.044 94.396C14.044 94.396 13.0344 84.2836 12.4754 79.5722C12.1778 77.0385 11.6605 71.2926 11.5827 66.2392C11.5131 61.8977 11.7746 58.0708 12.7814 57.2392C14.9507 55.437 18.8193 49.5298 18.8193 49.5298C18.9028 49.324 25.4525 48.3255 25.4525 48.3255C25.4525 48.3255 26.615 52.044 25.9281 58.9079C25.2411 65.7775 22.0844 77.9424 21.9259 78.6294C21.773 79.3108 21.3113 93.1277 21.2084 93.823Z" fill="#3D9073"/>
<path d="M15.6015 95.2665C14.6503 94.8715 14.044 94.396 14.044 94.396C14.044 94.396 13.0344 84.2835 12.4754 79.5722C12.1778 77.0385 11.6605 71.2926 11.5826 66.2392L19.8261 59.022C19.8261 59.022 19.0057 64.665 18.8026 65.9444C18.6024 67.2209 16.4303 71.9629 16.3719 72.3634C16.3135 72.7611 14.6809 79.9532 14.8394 82.7539C14.9423 84.5589 15.3567 90.6886 15.6015 95.2665Z" fill="#326E59"/>
<path d="M8.51213 96.6849C8.51213 96.6849 10.509 98.6735 10.9624 99.1629C11.4157 99.6524 16.9225 103.443 17.1672 104.342C17.412 105.237 16.7333 106.558 14.9089 107.612C13.0816 108.666 11.1014 108.708 9.97504 107.84C8.84587 106.973 6.63483 104.839 6.10362 104.247C5.57519 103.655 4.2875 102.74 3.93707 102.175C3.58664 101.608 2.62434 100.729 2.70222 99.5162C2.78009 98.3036 4.25413 96.2288 4.25413 96.2288L8.51213 96.6849Z" fill="#D07439"/>
<path d="M18.1212 62.0034C18.0433 62.5374 13.56 75.5423 13.4432 77.8117C13.3292 80.0812 10.8484 98.3369 10.8484 98.3369C10.8484 98.3369 8.23961 100.181 6.78504 99.6969C6.02021 99.4383 4.96337 98.8403 4.1596 98.1311C3.43649 97.4859 2.9164 96.7489 3.01374 96.0925C3.21955 94.7019 1.46184 83.0098 1.78724 81.5357C2.11264 80.0589 2.52704 76.9078 2.56598 76.2598C2.60769 75.6118 2.82184 68.6199 2.63272 67.3405C2.43804 66.0584 0.630262 58.7689 1.19763 54.5498C1.76499 50.3335 2.86634 47.1018 2.86634 47.1018L3.46708 46.9433L8.91266 45.5082L20.2099 48.2087C20.2099 48.2087 20.9358 54.3607 20.6576 56.6079C20.3823 58.8523 18.1991 61.4694 18.1212 62.0034Z" fill="#3D9073"/>
<path d="M4.1596 98.1311C3.43649 97.4859 2.9164 96.7489 3.01374 96.0925C3.21955 94.7019 1.46184 83.0098 1.78724 81.5357C2.11264 80.0589 2.52704 76.9078 2.56598 76.2598C2.60769 75.6118 2.82184 68.6199 2.63272 67.3405C2.43804 66.0584 0.630262 58.7689 1.19763 54.5498C1.76499 50.3335 2.86634 47.1018 2.86634 47.1018L3.46708 46.9433C3.50324 47.4188 3.53661 47.9111 3.57277 48.4201C3.64786 49.4797 3.08328 50.6144 3.44205 51.6768C3.60058 52.1441 4.07338 52.4333 4.53506 52.6141C5.09964 52.8338 5.70316 52.9478 6.30112 53.0591C9.83601 53.7155 13.4043 54.2828 17.0004 54.3496C18.7831 54.3829 20.6243 54.28 22.2401 53.5263C22.8742 53.2315 23.5251 52.8283 24.2176 52.9423C23.0077 54.7167 21.4447 56.4716 19.3421 56.8999C18.619 57.0501 17.8764 57.0306 17.1394 57.0251C16.522 57.0223 15.9018 57.0251 15.2816 57.0334C13.0455 57.0501 10.8039 57.0724 8.61786 56.6218C7.02145 56.2964 5.47511 55.7179 4.05392 54.9169C3.85645 54.8085 3.6423 54.6638 3.62005 54.4413C2.34626 54.7612 2.5771 56.4688 2.51869 57.4951C2.35182 60.5739 3.3614 64.2367 3.50602 64.9098C3.65064 65.5856 4.12622 73.9848 3.79804 76.2237C3.46708 78.4625 2.62716 82.7956 2.80515 83.8024C2.98315 84.8092 3.77858 95.4834 4.25972 97.0353C4.3515 97.3329 4.30422 97.7139 4.1596 98.1311Z" fill="#326E59"/>
<path d="M53.9262 71.059L48.0245 85.4266L50.6083 86.2666L55.9954 71.3343L53.9262 71.059Z" fill="#61676C"/>
<path d="M35.1087 60.9493L29.207 75.317L31.7908 76.1541L37.1751 61.2247L35.1087 60.9493Z" fill="#61676C"/>
<path d="M6.40685 111.595L11.4186 80.4984C11.5966 79.3942 12.264 78.4291 13.2319 77.8701L19.4534 74.2768C20.2488 73.8179 21.1833 73.6066 22.0844 73.7762C23.2943 74.0071 24.2677 74.7635 24.7794 75.851L33.5596 94.4516C33.8962 95.1664 34.75 95.4723 35.4648 95.133C36.0794 94.8437 36.3408 94.1123 36.0516 93.5004L27.2157 74.7858C26.9738 74.2713 26.6817 73.7762 26.3146 73.3451C24.1815 70.842 20.7717 70.4443 18.2269 71.9128L11.8997 75.5673C10.2393 76.5268 9.09904 78.1788 8.79311 80.0728L3.75081 111.361C3.64235 112.034 4.09846 112.668 4.77151 112.774C5.55024 112.902 6.2817 112.371 6.40685 111.595Z" fill="#727678"/>
<path d="M26.2172 76.6241L35.0003 95.2275L35.0169 95.2554C34.4245 95.3249 33.8294 95.0217 33.5596 94.4488L24.7794 75.851C24.5569 75.3809 24.237 74.9888 23.8616 74.6578C24.9101 74.9582 25.7556 75.6452 26.2172 76.6241Z" fill="#61676C"/>
<path d="M3.75081 111.361L8.79311 80.0728C9.09904 78.1788 10.2393 76.5268 11.8997 75.5673L18.2269 71.9128C20.3267 70.703 23.005 70.7836 25.0798 72.2493C23.297 71.5846 21.3057 71.7459 19.6704 72.6887L13.3431 76.3432C11.68 77.3028 10.5397 78.9576 10.2338 80.8488L5.19147 112.137C5.15532 112.357 5.18591 112.568 5.25822 112.766C5.09969 112.794 4.93838 112.802 4.77151 112.774C4.09846 112.668 3.64235 112.034 3.75081 111.361Z" fill="#9EA2A4"/>
<path d="M51.8598 50.1305C51.8598 50.1305 63.805 57.8066 63.1431 62.3872C62.5034 66.8038 59.2522 81.1881 57.1802 82.0586L55.5977 82.5731C53.5702 82.4146 28.9984 68.4447 28.4811 65.8637C28.025 63.5887 29.9718 51.1317 31.5543 47.8749C31.7657 47.4355 32.6724 47.4661 32.8392 47.3966C34.2159 46.8209 43.5246 46.6707 51.8598 50.1305Z" fill="#4A4D4E"/>
<path d="M50.5749 50.6089C50.5749 50.6089 62.5202 58.285 61.8582 62.8656C61.1935 67.4462 57.4334 82.7317 55.4031 82.5731C53.37 82.4118 27.7135 68.923 27.1934 66.3421C26.6761 63.7584 30.1777 48.4507 31.5544 47.8749C32.931 47.302 42.2397 47.1491 50.5749 50.6089Z" fill="#EE3C3A"/>
<path d="M49.4208 51.1039C49.4208 51.1039 60.7152 58.3601 60.0838 62.7126C59.4553 67.068 55.8787 81.5997 53.9485 81.4467C52.0156 81.2966 27.6857 68.5142 27.1935 66.0612C26.6984 63.6054 30.0275 49.0514 31.3374 48.5035C32.6446 47.9584 41.4971 47.8138 49.4208 51.1039Z" fill="#F05D58"/>
<path d="M26.8764 71.3343C26.8764 71.3343 14.3527 76.4017 11.2072 80.935C8.06167 85.4711 7.65283 88.8781 7.65283 90.1741C7.65283 91.4702 27.3826 103.46 29.6966 103.552C32.0077 103.646 34.6916 102.442 37.1891 99.0183C39.6894 95.5947 54.1015 88.6028 55.0277 88.0465C55.9538 87.4903 54.9637 85.7353 54.9637 85.7353C42.6375 76.9162 26.8764 71.3343 26.8764 71.3343Z" fill="#3A3D3F"/>
<path d="M29.8885 71.0034C27.9667 70.1384 25.7834 70.1468 23.8672 71.0284C19.954 72.8306 13.3682 76.1986 11.2072 79.3108C8.06165 83.8469 7.22729 87.087 7.22729 88.3802C7.22729 89.6763 26.9571 101.666 29.271 101.758C31.585 101.85 34.2661 100.648 36.7663 97.2245C39.2639 93.8008 53.676 86.8089 54.6021 86.2526C55.5283 85.6964 55.1 85.8827 51.7347 83.477C43.088 77.2889 34.3411 73.0086 29.8885 71.0034Z" fill="#B23437"/>
<path d="M47.1262 81.1408C47.1262 81.1408 46.8565 83.0904 45.0682 84.6284C43.2771 86.1692 38.9412 89.6485 37.6924 90.5162C36.4465 91.3839 30.5058 94.3709 29.0568 95.7254C27.6078 97.077 27.1434 97.9976 27.1434 97.9976C27.1434 97.9976 26.7401 100.114 27.4994 100.548C28.2586 100.982 30.4224 102.044 32.4332 100.548C34.444 99.0489 38.3182 94.6379 39.5225 93.7146C40.7295 92.794 54.1766 85.7993 54.1766 85.7993C54.1766 85.7993 46.8036 79.9504 47.1262 81.1408Z" fill="#F05D58"/>
<path d="M38.7327 77.8924C38.7327 77.8924 44.5787 82.7873 43.6276 85.4739C42.6736 88.1633 34.2271 94.9411 32.7336 95.603C31.2401 96.2677 24.8879 99.8304 24.8879 99.8304L12.7675 92.6243C12.7675 92.6243 17.1478 80.9378 23.8616 80.3287C30.5754 79.7196 38.7327 77.8924 38.7327 77.8924Z" fill="#B23437"/>
<path d="M5.92009 112.771C6.05359 114.056 6.33449 114.615 7.63609 114.829C8.9071 115.027 10.2254 115.077 11.4463 114.632C12.2084 114.348 14.0662 113.984 14.564 113.294C14.7893 112.988 15.1537 112.49 15.1537 112.49L16.1493 112.109L16.255 112.688C16.255 112.688 16.522 112.68 18.3298 111.917C20.1459 111.147 20.5102 110.24 20.5102 110.24C20.5102 110.24 20.4212 109.295 20.4963 108.335C20.5686 107.362 20.0152 106.169 20.0152 106.169L12.9064 105.863C12.6979 106.294 12.5226 106.742 12.3057 107.173L12.2251 107.345C11.7189 108.324 10.7316 108.6 9.84992 109.128C8.87372 109.729 6.34283 110.905 5.96181 112.29C5.92009 112.449 5.9034 112.607 5.92009 112.771Z" fill="#2D3031"/>
<path d="M5.96179 112.29C6.28163 112.905 6.83509 113.019 7.44139 112.883C8.12278 112.73 8.83754 112.743 9.50503 112.524C9.91943 112.385 10.3005 112.165 10.6843 111.959C11.1626 111.703 11.6549 111.47 12.1583 111.264C12.6005 111.083 12.976 110.958 13.3014 110.591C13.4933 110.374 13.6184 110.118 13.7436 109.862C13.9994 109.345 14.2331 108.822 14.4556 108.294C13.7185 108.277 12.9148 108.068 12.5059 107.454L12.3057 107.173L12.225 107.345C11.7189 108.324 10.7315 108.6 9.8499 109.128C8.8737 109.729 6.34282 110.905 5.96179 112.29Z" fill="#3E4041"/>
<path d="M16.7111 124.597C17.0365 125.123 17.7429 125.403 18.2964 125.587C18.6802 125.709 19.0779 125.81 19.4756 125.818C19.7175 125.818 19.9484 125.79 20.1792 125.743C21.3584 125.479 22.3207 124.639 23.1412 123.802C23.5556 123.387 23.9283 122.973 24.2537 122.492C24.6764 121.844 24.9518 121.254 25.1576 120.509L25.5302 119.099L25.7972 119.132C26.2867 118.509 26.957 117.713 27.2323 117.049C27.5549 116.276 27.2212 116.014 27.3158 115.224C27.3797 114.568 27.6634 113.798 27.3714 113.158C27.0821 112.518 26.5259 112.112 25.8473 112.02C25.5886 111.979 25.3244 111.965 25.0741 112.037C24.7181 112.154 24.4372 112.438 24.0618 112.527C23.6474 112.627 23.1662 112.463 22.7518 112.396C22.279 112.321 21.0275 112.204 20.6937 112.652L20.5964 112.883C20.3211 113.906 20.2376 115.049 19.7982 116.02L19.7899 116.028C19.7231 116.178 19.648 116.317 19.559 116.459C18.9861 117.383 18.4048 118.3 17.8319 119.213C17.4091 119.886 17.1672 120.358 16.8779 120.981C16.7945 121.145 16.7111 121.321 16.6221 121.513C16.1966 122.408 16.191 123.735 16.7111 124.597Z" fill="#36383A"/>
<path d="M16.8363 122.366C16.8419 122.569 16.8919 122.772 17.0004 122.942C17.4676 123.657 18.3576 123.81 19.1169 124.01C19.5813 124.133 19.8066 124.096 20.1988 123.768C20.5297 123.493 20.7884 123.134 21.0582 122.8C21.5755 122.158 22.0928 121.532 22.5405 120.834C22.916 120.247 23.3554 119.719 23.5585 119.029C23.7865 118.267 23.9645 117.488 24.0146 116.69L24.0257 116.401L23.831 116.334C23.6864 116.303 23.5557 116.278 23.4083 116.267C23.0161 116.239 22.624 116.209 22.2346 116.178C22.0705 116.167 21.9064 116.156 21.7479 116.12C21.2195 116.006 20.8635 115.658 20.424 115.386C20.3545 115.63 20.1876 115.839 20.0124 116.028C19.9457 116.178 19.8706 116.317 19.7788 116.459C19.2059 117.383 18.6246 118.3 18.0545 119.213C17.6317 119.886 17.3898 120.358 17.1005 120.981C17.0532 121.404 16.8697 121.782 16.8391 122.211L16.8363 122.366Z" fill="#404244"/>
<path d="M17.9015 68.2722C17.9015 68.2722 17.3509 69.1177 16.8447 69.4348C16.3357 69.7546 15.3206 70.9283 14.8978 71.2342C14.4751 71.5401 14.0746 71.91 14.019 72.0686C13.9661 72.2271 13.9884 72.8417 13.7353 73.2951C13.4794 73.7512 12.9093 74.1934 12.8258 74.8915C12.7396 75.5923 13.6268 77.4919 13.6268 77.4919C13.6268 77.4919 14.8978 78.888 16.7585 77.2193C18.6191 75.5478 19.7621 71.5707 19.9958 71.1063C20.2266 70.6418 21.3057 69.6489 21.1778 69.1399C21.0498 68.6338 17.9015 68.2722 17.9015 68.2722Z" fill="#F9B18F"/>
<path d="M27.8721 38.3382C27.8721 38.3382 27.0433 38.469 26.1116 41.7953C25.1827 45.1244 24.6459 46.3648 24.251 48.8178C23.8588 51.2708 21.9871 57.1419 21.8647 57.1669C21.7424 57.1919 20.8107 59.6728 20.6438 59.8146C20.4741 59.9537 19.9958 60.6462 19.8539 61.0189C19.7121 61.3915 19.9652 62.0145 19.8539 62.1536C19.7399 62.2954 19.0641 62.6626 18.9222 62.9713C18.7804 63.2828 19.3756 63.5358 18.6691 64.4675C17.9627 65.3965 17.006 68.809 17.006 68.809C17.006 68.809 18.6413 68.5559 19.6008 69.3152C20.5576 70.0772 21.1222 70.9533 21.1222 70.9533C21.1222 70.9533 22.5155 67.2877 22.4404 67.1737C22.3626 67.0596 23.4333 67.0874 24.0257 65.6802C24.6181 64.2673 25.4775 62.6069 26.3869 62.098C27.2964 61.589 29.6354 55.64 29.6354 55.64C29.6354 55.64 30.4781 39.2838 27.8721 38.3382Z" fill="#ADB0B1"/>
<path d="M21.0804 61.5696C20.9219 61.831 20.7606 62.0952 20.691 62.3928C20.5993 62.7905 20.6799 63.241 20.4713 63.5943C20.2655 63.9503 19.7816 64.1867 19.8038 64.6011C19.8122 64.7457 19.8873 64.8764 19.9818 64.9876C20.4741 65.5439 21.4614 65.5188 21.8397 66.1613C21.9481 66.3449 22.0789 66.6091 22.2791 66.5395C22.5044 66.4644 22.7408 66.0278 22.9243 65.8609C23.2052 65.5967 23.5056 65.4132 23.7476 65.0989C24.2287 64.4731 24.5068 63.7111 24.7655 62.9768C25.038 62.2092 25.3078 61.4388 25.5804 60.6684C25.6249 60.5349 25.6722 60.4014 25.7 60.2624C25.7917 59.7979 25.6527 59.3223 25.4636 58.8913C25.1549 58.1904 24.7071 57.5507 24.1481 57.0223C24.0674 56.9472 23.9645 56.8665 23.8533 56.8888L23.6502 57.0668C22.674 58.5158 22.0038 60.0761 21.0804 61.5696Z" fill="#D2D4D4"/>
<path d="M20.2822 71.0089C20.2043 71.2565 20.2405 71.4066 20.2488 71.6681C20.2627 72.177 20.0458 72.647 19.6787 72.9891C18.7025 73.8986 17.5205 74.9777 17.3091 75.1251C17.0977 75.2753 16.2495 76.4795 15.7433 76.4795C15.2343 76.4795 14.9618 76.3738 14.9618 75.6118C14.9618 74.847 16.739 73.3952 16.739 73.3952C16.739 73.3952 17.2229 71.9962 17.7736 71.5095C18.0489 71.2648 18.2992 71.0757 18.4772 70.7558C18.6719 70.4026 18.975 70.1022 19.2921 69.8547C19.4479 69.7296 19.6286 69.6155 19.8289 69.61C20.0291 69.6072 20.2155 69.7157 20.3879 69.8214L20.666 69.9882L20.6994 70.0216L20.6883 70.0661C20.5353 70.3526 20.4046 70.6529 20.2961 70.9589L20.2822 71.0089Z" fill="#FBC1A4"/>
<path d="M32.3387 71.9128V75.9344L30.542 79.6862C30.542 79.6862 28.929 80.9378 27.3687 82.142C26.031 83.185 24.7266 84.1945 24.5096 84.3503C24.048 84.6868 17.6623 90.0156 17.3648 90.4856C17.0672 90.9473 17.2368 92.6828 17.3648 92.7662L19.6787 99.6524L21.1722 104.1C21.1722 104.1 20.6744 105.332 19.5063 106.425C19.2727 106.647 19.0084 106.864 18.7192 107.064C16.9865 108.249 14.5279 107.824 13.727 107.404C12.926 106.975 12.837 105.921 12.798 105.496C12.7563 105.073 10.2199 98.348 8.1451 92.1766C6.07033 85.9968 6.62101 85.1096 6.79066 84.3503C6.81013 84.2585 6.86853 84.1306 6.96031 83.9637C7.63892 82.7317 10.1448 79.6056 11.8218 77.9647C13.1818 76.6353 17.3147 72.9697 19.5535 70.9867C20.4519 70.194 21.047 69.6739 21.047 69.6739L28.5479 64.9264L28.8705 64.7234L32.3387 71.9128Z" fill="#36383A"/>
<path d="M48.6253 78.3429C47.6491 81.3883 45.7468 85.0261 41.8976 87.5209C38.0456 90.0156 30.8145 94.4989 30.8145 94.4989C30.8145 94.4989 28.3226 96.4457 28.2336 97.0381C28.1501 97.6305 29.207 100.298 28.5729 102.915C27.9388 105.543 28.52 107.02 28.228 107.234C27.9388 107.443 27.6857 108.627 27.8136 109.22C27.9388 109.812 28.0417 111.842 27.7802 112.688C27.5689 113.364 27.6356 113.825 26.8235 114.329C26.6205 114.454 26.3618 114.585 26.0337 114.718C24.796 115.224 22.7936 114.874 21.6755 114.596C21.3084 114.504 21.0331 114.421 20.9163 114.382C20.4518 114.209 19.8177 112.73 19.8177 112.73C19.8177 112.73 19.6035 111.25 19.8177 109.726C20.0318 108.205 18.6774 99.0211 18.4632 96.0397C18.2741 93.3753 17.9487 92.4519 19.3393 90.7721C19.5034 90.5746 19.6897 90.3688 19.9011 90.1463C20.5575 89.4594 21.6922 88.3524 22.9243 87.1677C24.6013 85.5546 26.6121 84.0388 28.1084 82.2561C28.7203 81.5246 28.3226 81.4857 27.9388 80.5373C27.4437 79.3024 27.4326 77.9202 27.4243 76.613C27.4215 76.0929 27.4215 75.5617 27.5856 75.0695C27.7191 74.6745 27.9555 74.3241 28.1863 73.9765C29.0401 72.6999 29.8939 71.4233 30.7506 70.144C31.165 69.521 31.7156 68.8257 32.4638 68.8479C32.778 68.8591 33.0729 69.0009 33.3565 69.14C34.3772 69.6489 35.5565 70.5639 36.6745 70.7976C37.5005 70.9728 38.499 70.6696 39.35 70.6585C41.6139 70.6362 43.8833 70.7058 46.1472 70.8003C47.4182 70.856 48.286 70.8977 48.286 70.8977C48.286 70.8977 49.5931 75.2975 48.6253 78.3429Z" fill="#454849"/>
<path d="M26.8041 77.6532C26.7847 77.7422 27.0878 78.19 27.1128 78.3346C27.1629 78.6322 27.0516 78.8018 27.0294 79.0632C26.9738 79.7168 26.8903 80.3565 27.035 81.0129C27.124 81.4078 27.2519 81.7777 27.3687 82.142C26.031 83.185 24.7266 84.1946 24.5096 84.3503C24.048 84.6868 17.6623 90.0156 17.3648 90.4856C17.0672 90.9473 17.2368 92.6828 17.3648 92.7662L19.6787 99.6524C19.6092 100.053 19.5508 100.453 19.5313 100.859C19.4284 102.712 19.5841 104.57 19.5063 106.425C19.2727 106.647 19.0084 106.864 18.7192 107.064C16.9865 108.249 14.5279 107.824 13.727 107.404C12.926 106.975 12.837 105.921 12.798 105.496C12.7563 105.073 10.2199 98.348 8.1451 92.1766C6.07033 85.9968 6.62101 85.1096 6.79066 84.3503C6.81013 84.2585 6.86853 84.1306 6.96031 83.9637C7.02706 84.1 7.07712 84.2307 7.11605 84.3503C7.41642 85.2792 7.47205 86.2749 7.7752 87.2066C8.05332 88.0576 8.51222 88.8697 9.06011 89.5734C9.5496 90.1964 9.73594 90.964 10.1754 91.6315C10.587 92.26 10.8234 92.9803 11.1905 93.6506C11.3379 93.9287 11.5326 94.2235 11.8385 94.3042C12.0026 94.3487 12.1778 94.3209 12.3364 94.2736C13.2124 94.0094 13.7603 93.1778 14.3972 92.5214C14.7727 92.1349 15.1982 91.7928 15.6654 91.5147L15.8907 91.3255L15.9463 91.0891C16.0131 90.3076 15.6043 89.6012 15.8212 88.8141C16.0242 88.0688 16.4776 87.5932 17.0533 87.1204C18.7248 85.7576 20.4213 84.4282 22.1067 83.0849C23.1719 82.231 24.2426 81.3744 25.1743 80.3732C25.9058 79.5917 26.5594 78.6934 26.8041 77.6532Z" fill="#2F3132"/>
<path d="M20.9302 96.0452C21.7061 96.3901 22.5572 96.4846 23.3971 96.5013C23.7781 96.5097 24.1063 96.4902 24.4595 96.5959C24.8405 96.7127 25.0324 96.7683 25.4441 96.5987C25.9169 96.404 26.3924 96.2065 26.8653 96.0063C27.2936 95.8283 27.7274 95.6503 28.1029 95.3722C28.5062 95.0774 28.826 94.6852 29.1764 94.3264C29.9412 93.5477 31.0398 93.1528 31.7602 92.3907C32.5584 91.5452 33.4789 90.7915 34.4078 90.0712C35.4369 89.2674 36.5188 88.5249 37.4978 87.6627C38.0929 87.1371 38.6519 86.5697 39.261 86.0607C40.0592 85.3877 40.9409 84.8203 41.7558 84.1695C43.1881 83.0237 44.4118 81.6136 45.3435 80.0339C45.6439 79.5277 45.922 78.9492 45.8052 78.3735C42.7041 80.2091 39.6476 82.1142 36.6384 84.0944C35.9458 84.5478 35.2255 85.0373 34.8389 85.7687C34.5386 86.3361 34.4663 86.998 34.1965 87.582C33.86 88.3079 33.2397 88.8586 32.639 89.3898C32.372 89.6234 32.0939 89.8626 31.7518 89.9572C31.2234 90.099 31.0676 89.8126 30.7673 89.4983C30.4446 89.1618 30.0191 88.9003 29.5547 88.8252C28.9484 88.7279 28.3421 88.9448 27.7358 89.0449C26.9237 89.1757 26.081 89.0922 25.3106 88.803C25.1659 88.7501 25.0158 88.6806 24.924 88.5554L24.7877 88.2606C24.1897 86.8673 22.7574 87.8045 22.0788 88.5082C20.8245 89.8098 19.9401 91.3756 19.5451 93.1305C19.2642 94.3821 19.7259 95.5056 20.9302 96.0452Z" fill="#4B4D4E"/>
<path d="M24.6625 109C24.9712 109.423 25.3161 109.937 25.1298 110.424L24.9295 110.644L24.6347 110.585C24.3399 110.438 23.2024 109.239 22.8826 109.879L22.852 110.121C22.9159 110.925 23.6446 111.498 24.3204 111.94C24.5874 112.109 24.885 112.435 24.7015 112.688C24.593 112.827 24.3844 112.841 24.2092 112.824C23.8282 112.785 23.4527 112.663 23.119 112.46C22.7463 112.232 22.3124 111.892 21.9147 112.09C21.6561 112.215 21.542 112.532 21.5504 112.824C21.5532 113.111 21.6505 113.386 21.695 113.678C21.7395 113.981 21.7256 114.29 21.6755 114.596C21.3056 114.504 21.0331 114.421 20.9163 114.382C20.4518 114.209 19.8177 112.73 19.8177 112.73C19.8177 112.73 19.6035 111.25 19.8177 109.726C20.0318 108.205 18.6774 99.0211 18.4632 96.0397C18.2741 93.3753 17.9487 92.4519 19.3393 90.7721C19.2698 91.0697 19.2197 91.3728 19.1808 91.6704C19.0723 92.5131 19.089 93.3642 19.1029 94.2124C19.114 94.7575 19.1252 95.311 19.2809 95.8366C19.4089 96.2733 19.6313 96.671 19.7704 97.1076C19.9929 97.8113 19.9734 98.5761 20.1486 99.2964C20.2237 99.5996 20.3322 99.8888 20.4407 100.181C21.5726 103.251 22.7352 106.355 24.6625 109Z" fill="#36383A"/>
<path d="M48.6253 78.3429C47.6491 81.3883 45.7468 85.0261 41.8976 87.5209C38.0457 90.0156 30.8146 94.4989 30.8146 94.4989C30.8146 94.4989 28.3198 96.4457 28.2336 97.0381C28.1502 97.6305 29.207 100.298 28.5729 102.915C27.9388 105.543 28.5201 107.02 28.2281 107.234C27.9388 107.443 27.6857 108.627 27.8137 109.22C27.9388 109.812 28.0417 111.842 27.7803 112.688C27.5689 113.364 27.6357 113.825 26.8236 114.329C26.9793 113.28 27.1323 112.235 27.0182 111.189C26.9626 110.669 26.8347 110.151 26.8013 109.626C26.7095 108.227 27.2519 106.881 27.6384 105.537C27.8276 104.878 27.9805 104.211 28.0973 103.538C28.1752 103.093 28.3616 102.639 28.3866 102.192C28.4533 100.946 28.0167 99.5189 27.7636 98.3063C27.5856 97.4747 27.4577 96.6765 27.7052 95.8477C27.9082 95.158 28.3921 94.7019 28.9373 94.2486C30.1109 93.2696 31.5099 92.6188 32.8254 91.8679C34.8751 90.6998 36.7635 89.2758 38.6492 87.8546C41.7029 85.5434 46.1946 82.5759 46.4866 78.3902C46.5839 77.0803 46.837 75.2919 46.1584 74.1517C45.605 73.22 45.4965 71.7682 46.1167 70.842L46.1473 70.8003C47.4183 70.8559 48.286 70.8977 48.286 70.8977C48.286 70.8977 49.5932 75.2975 48.6253 78.3429Z" fill="#36383A"/>
<path d="M22.6545 103.482C22.8381 103.924 23.0328 104.367 23.3137 104.756C23.5946 105.14 23.9533 105.457 24.2481 105.829C24.746 106.444 25.063 107.195 25.5748 107.799C25.6499 107.885 25.7333 107.974 25.8446 107.999C26.1143 108.06 26.3007 107.746 26.3924 107.484C26.7206 106.528 26.9876 105.551 27.1795 104.558C27.3436 103.707 27.2379 103.001 27.2518 102.153C27.2769 100.37 27.1406 98.4843 26.1811 96.9269C26.0281 96.6793 25.8501 96.4374 25.5998 96.2844C25.3412 96.1287 25.0324 96.0842 24.7349 96.0619C23.9784 96.0035 23.2135 96.0563 22.4737 96.2177C22.2234 96.2733 21.9704 96.3428 21.7534 96.4791C21.3668 96.7238 21.1304 97.1605 21.0303 97.6083C20.8245 98.5566 21.2222 99.2603 21.4836 100.145C21.8146 101.274 22.2068 102.389 22.6545 103.482Z" fill="#4B4D4E"/>
<path d="M28.2503 88.8058C27.5939 88.4359 26.9348 88.066 26.2757 87.6961C25.9864 87.532 25.6972 87.3679 25.3746 87.2733C25.0825 87.1843 24.771 87.1565 24.4679 87.137C23.9534 87.1065 23.4333 87.1037 22.9243 87.1676C25.4941 84.6979 28.4895 81.8973 28.4895 81.8973C28.4895 81.8973 31.7185 78.5181 33.2676 76.4851C33.8961 76.3877 34.5302 76.3432 35.1699 76.3655C36.6412 76.4239 38.0735 76.8522 39.4836 77.2721C40.3068 77.5197 41.1356 77.7728 41.9199 78.1232C42.2035 78.2511 42.5234 78.4597 42.5178 78.774C42.515 78.9353 42.4205 79.0771 42.3231 79.2106C40.9604 81.0323 38.5602 81.7082 36.7441 83.0848C35.9347 83.6995 35.2116 84.4782 34.2493 84.8148C34.0519 84.8871 33.8405 84.9427 33.7014 85.0984C33.5652 85.2431 33.5262 85.4489 33.4789 85.6408C33.1897 86.8673 32.5194 88.002 31.5905 88.8475C30.8952 88.4887 30.2055 88.1327 29.5157 87.7739C29.3461 87.6877 29.1514 87.5959 28.9679 87.6599C28.5201 87.8073 28.6786 88.6111 28.2503 88.8058Z" fill="#36383A"/>
<path d="M8.37316 82.4118C8.03385 82.7678 7.66674 83.146 7.4943 83.6161C7.32187 84.0805 7.46927 84.2975 7.60833 84.7258C7.95876 85.8021 7.92538 86.9007 8.50665 87.9214C8.73749 88.3274 9.0323 88.6973 9.32155 89.0644C9.98347 89.8904 10.6426 90.722 11.3018 91.5508C11.6411 91.9763 12.0944 92.4491 12.6312 92.3546C12.8982 92.3073 13.1179 92.1237 13.3126 91.929C15.087 90.1713 14.5752 87.2427 16.4915 85.7631C19.2671 83.6216 22.0622 81.6692 24.6876 79.3136C25.5248 78.5626 26.373 77.8006 27.0044 76.8661C27.4132 76.2542 27.7219 75.584 28.1002 74.9499C28.4728 74.3297 28.9123 73.7456 29.2071 73.0809C29.4991 72.419 29.6298 71.643 29.36 70.9728C28.9484 69.9604 27.7775 69.4904 27.1101 68.6254C26.6873 68.0775 26.3424 67.2932 25.6499 67.2654C25.2328 67.2487 24.874 67.5408 24.5569 67.8133C23.5779 68.6672 22.5962 69.5154 21.6144 70.3692C20.7272 71.1369 19.7427 71.8544 18.7915 72.5441C17.3286 73.5954 15.8546 74.5744 14.6308 75.8537C14.2053 76.296 13.6129 76.5351 13.2152 77.033C12.748 77.6254 12.3642 78.2178 11.8302 78.7796C10.676 79.9894 9.52457 81.202 8.37316 82.4118Z" fill="#454849"/>
<path d="M52.9334 46.7041C52.9334 46.7041 50.0576 52.6669 49.2567 54.0659C48.4529 55.462 47.0567 72.3105 47.0567 72.3105C47.0567 72.3105 42.5735 74.0849 42.2063 74.0849C41.8392 74.0849 33.0729 73.4091 30.9842 71.8294C28.8955 70.2497 26.754 65.7664 26.754 65.7664C26.754 65.7664 27.4104 62.2315 27.644 61.4666C27.8748 60.7074 27.9833 58.6326 27.6857 56.4327C27.3881 54.2355 26.754 50.5977 26.754 48.0168C26.754 46.476 26.9209 44.0925 27.0739 42.2681C27.174 41.0416 27.2713 40.0654 27.3075 39.7678C27.3881 39.028 27.3881 38.2882 29.5881 37.273C30.275 36.9532 31.6628 36.6056 33.2453 36.2746C36.7051 35.5459 41.0939 34.9146 41.0939 34.9146C41.0939 34.9146 43.4607 38.3299 47.2709 40.744C51.0728 43.1525 52.9334 46.7041 52.9334 46.7041Z" fill="#D2D4D4"/>
<path d="M42.2147 37.3481C42.5095 38.405 41.5416 40.8246 41.2079 41.4504C40.8769 42.0762 38.2709 45.1466 36.6161 45.0715C35.3507 45.0131 34.2215 44.1982 33.7265 43.5641C33.5735 43.3722 33.4817 43.1942 33.4595 43.0607C33.3732 42.4906 33.5457 41.1639 33.618 40.6911C33.6847 40.2183 32.5723 37.7848 32.5723 37.7848L32.6001 37.6402C32.7586 36.892 33.5818 33.4155 35.398 31.7246C37.4421 29.8222 38.5574 29.6331 38.9662 29.3439C39.3778 29.0574 42.3482 30.0447 42.5067 30.2172C42.6624 30.3896 42.9211 31.4854 42.4789 32.0472C42.0311 32.609 41.4526 35.2289 41.4526 35.2289C41.4526 35.2289 41.9226 36.2885 42.2147 37.3481Z" fill="#FBC1A4"/>
<path d="M39.7894 77.2861C39.489 77.2861 39.2026 77.1609 38.969 76.8494C38.4822 76.1958 38.8188 75.2502 38.3293 74.5911C37.9232 74.046 37.2418 74.0599 36.7051 73.7373C36.4992 73.6121 36.3713 73.5037 36.3046 73.4063C39.1414 73.8708 42.0005 74.0849 42.2063 74.0849C42.2786 74.0849 42.515 74.0182 42.8432 73.9041C42.6123 74.3158 42.3843 74.7274 42.1562 75.139C41.8419 75.7064 41.5165 76.2848 41.0298 76.7159C40.6655 77.0385 40.2149 77.2861 39.7894 77.2861Z" fill="#323436"/>
<path d="M42.2064 74.0849C42.0005 74.0849 39.1415 73.8708 36.3047 73.4063C36.0599 73.0448 36.6078 72.8028 37.1251 72.3383C37.9038 71.643 38.3739 70.8281 38.9551 69.9882C39.3779 69.3791 39.7422 68.6143 40.3875 68.2027C40.6239 68.0525 40.8964 67.9468 41.0939 67.7466C41.5055 67.3183 41.4415 66.6313 41.3136 66.0528C41.1856 65.4716 41.0299 64.8263 41.3331 64.3146C41.6529 63.7695 42.1869 63.5664 42.351 62.9073C42.4316 62.5763 42.4594 62.2287 42.5985 61.9172C42.8377 61.3776 43.3744 61.0828 43.6609 60.5961C43.9724 60.0705 43.9223 59.2445 44.0086 58.6521C44.1949 57.3866 44.5926 56.1462 44.7456 54.8808C44.8791 53.7766 45.4909 53.009 46.0806 52.069C46.1584 51.9438 46.253 51.8103 46.3976 51.7825C46.6924 53.4234 46.8259 55.0894 46.8037 56.7581C46.7814 58.3712 46.9288 59.9731 46.9427 61.5862C46.9622 63.8279 46.634 66.089 45.8191 68.1832C45.3296 69.4375 44.6733 70.6223 44.0169 71.7988C43.6248 72.4996 43.2354 73.2033 42.8432 73.9041C42.5151 74.0182 42.2787 74.0849 42.2064 74.0849Z" fill="#7B7E7F"/>
<path d="M29.9385 80.3454L27.4744 80.4789C27.3687 80.5011 26.5844 80.3092 25.7167 81.0713C24.8517 81.8333 23.7531 82.1726 23.6252 82.3812C23.4973 82.5954 22.5878 83.4826 22.5878 83.6495C22.5878 83.8219 23.3693 84.1167 23.3693 84.1167C23.3693 84.1167 19.8177 87.774 19.8177 88.269C20.1487 90.4217 22.6184 86.7866 24.0507 86.0886H24.365C24.365 86.0886 24.0479 86.464 24.9351 86.7811C25.8223 87.0981 25.8223 87.0981 25.8223 87.0981C25.8223 87.0981 25.5387 87.4152 26.2646 87.6071C26.9877 87.7962 27.3464 87.6071 27.3464 87.6071C27.3464 87.6071 27.3882 87.9464 27.8749 88.1133C28.3616 88.2829 29.3127 87.6488 29.4407 87.4374C29.5658 87.2261 30.3918 86.4223 30.3918 86.4223C30.3918 86.4223 32.614 85.5546 32.7392 84.7091C32.8671 83.8608 32.1468 81.3661 32.1468 81.3661L29.9385 80.3454Z" fill="#FBC1A4"/>
<path d="M53.8512 53.0508C53.0363 57.9568 51.7931 64.7234 50.8642 67.3461C49.9325 69.9688 49.621 72.3939 48.4696 73.8874C47.3099 75.3837 45.5327 76.4545 45.1961 76.9329C44.8568 77.414 44.2366 78.571 42.3454 79.5277C40.4598 80.4844 39.9786 80.515 39.5281 80.9656C39.0775 81.4161 36.7636 82.8262 36.7636 82.8262C36.7636 82.8262 36.313 83.5298 35.8347 83.7301C35.3563 83.9276 33.9462 84.1083 33.8099 84.4476C33.6737 84.7897 32.7531 85.7242 32.7531 85.7242C32.7531 85.7242 30.581 83.7774 30.0525 82.4897C29.5269 81.1992 29.0179 80.0367 29.0179 80.0367C29.0179 80.0367 29.9497 80.0561 30.1193 79.6556C30.2862 79.2551 32.5723 77.7311 32.5723 77.7311C32.5723 77.7311 32.8949 77.3723 33.3677 76.9273C33.9629 76.3544 34.7917 75.6396 35.487 75.3198C36.7358 74.7496 37.406 74.071 37.7008 73.6177C37.9929 73.1643 39.5281 71.999 39.5281 71.999C39.5281 71.999 41.219 69.6962 41.3692 69.5849C41.5166 69.482 42.5318 68.4029 42.6124 67.919C42.7014 67.4323 42.8266 63.7528 43.355 62.9685C43.8862 62.187 44.4925 55.3063 44.4925 55.3063C44.4925 55.3063 44.7094 52.1524 46.0277 49.7912C46.673 48.637 47.5852 47.6747 48.859 47.3549C52.7554 46.387 52.9334 46.7041 52.9334 46.7041C52.9334 46.7041 54.6717 48.1447 53.8512 53.0508Z" fill="#E0E1E0"/>
<path d="M45.2823 50.5644C45.7745 49.4992 46.2501 48.4534 47.2013 47.7109C48.5697 46.6401 50.4331 46.5289 52.1685 46.4649C52.1574 46.2229 52.01 46.0143 51.8626 45.8224C51.4454 45.2857 51.1562 44.8768 50.8252 44.2872C50.1466 43.083 49.0981 42.1568 47.8827 41.5171C47.4794 41.303 47.0539 41.1222 46.6868 40.8497C46.0054 40.3435 45.3407 39.74 44.7177 39.167C44.5286 38.9946 44.4034 38.7248 44.1809 38.5913C44.0419 38.5079 43.8388 38.4995 43.7276 38.6191L43.6219 38.8472C43.2325 40.2183 42.6513 41.4726 42.0088 42.7576C41.3302 44.0202 40.3818 45.2217 39.058 45.7751C38.88 45.8475 38.6964 45.9114 38.549 46.0338C38.3933 46.1617 38.2959 46.3481 38.2069 46.5316C37.5839 47.7999 37.367 49.2016 36.783 50.467C36.2128 51.7019 36.2128 53.2371 36.0626 54.5776C35.9208 55.8403 35.8095 57.1447 36.2017 58.3517C36.324 58.7244 36.5159 59.1082 36.8608 59.2945C37.0388 59.3891 37.2474 59.4252 37.4171 59.5337C37.6674 59.6922 37.8009 59.9787 37.9288 60.2457C38.663 61.7698 39.7282 63.1354 41.0298 64.22C41.1522 63.4441 41.2774 62.6626 41.5583 61.9311C41.9949 60.7908 42.5706 59.7951 43.1686 58.7327C43.3994 58.3211 43.633 57.9039 43.761 57.4478C43.8806 57.0167 43.8972 56.5662 43.9084 56.1184C43.9306 55.145 43.9445 54.0993 44.1031 53.1119C44.1837 52.6336 44.256 52.0745 44.5063 51.6546C44.7372 51.2736 45.0904 50.9815 45.2823 50.5644Z" fill="#E5E4E4"/>
<path d="M50.9226 64.3758C51.6319 61.8643 52.2965 59.3362 52.7193 56.7581C52.9307 55.4815 52.914 54.141 53.1643 52.8811C53.3117 52.1246 53.3979 51.3542 53.4174 50.581C53.4285 50.1861 53.4591 49.755 53.4007 49.3629C53.3506 49.0319 53.1921 48.7927 53.0948 48.4701C52.9585 48.0307 52.9835 47.6163 52.7499 47.188C52.3327 46.4259 51.5595 45.8391 50.689 45.7334C50.3497 45.6917 49.9743 45.7223 49.7128 45.942C49.5042 46.1144 49.393 46.3759 49.2929 46.6262C49.012 47.3159 48.7338 48.0057 48.4529 48.6982C48.275 49.1348 48.0942 49.616 48.236 50.0665C48.3612 50.4781 48.7422 50.7952 48.7922 51.2235C48.8423 51.6518 48.5781 52.183 48.9063 52.4611L49.2317 52.6836C49.3374 52.8171 49.3123 53.009 49.279 53.1787C48.7728 55.6512 47.7799 57.9985 46.6535 60.2568C46.4533 60.6601 46.2474 61.0661 46.1473 61.5056C46.0555 61.9033 46.0556 62.3121 46.0834 62.7182L46.1334 62.9073C46.2475 63.0519 46.4783 62.9323 46.6591 62.9601C46.851 62.9852 46.9789 63.1826 46.9956 63.3745C47.0123 63.5664 46.9455 63.7528 46.8843 63.9363C46.4394 65.3019 46.7731 67.6409 44.8958 68.1387C44.779 68.1693 44.6566 68.186 44.5565 68.2527L44.3757 68.4752C44.1365 68.8841 43.9863 69.3346 43.8083 69.7713C43.6081 70.2691 43.3773 70.7503 43.1158 71.2147C43.0268 71.3705 42.9323 71.529 42.796 71.6486C42.6347 71.796 42.4205 71.8739 42.2119 71.9462C41.7336 72.1158 41.2496 72.2827 40.8241 72.5608C40.2985 72.9029 39.9369 73.1393 39.3473 73.3729C39.1888 73.4369 39.0414 73.5287 38.8968 73.6205L38.6242 73.8429C38.5269 73.9653 38.4879 74.1238 38.449 74.2768C38.385 74.5299 37.6536 76.8188 37.7815 76.855C37.3866 76.7521 37.0056 76.5407 36.5995 76.5685C36.1934 76.6019 35.7929 77.058 36.0154 77.3973C35.5426 77.0357 34.8529 77.0914 34.3245 77.3695C33.7988 77.6476 33.3983 78.1121 33.0006 78.5543C32.4472 79.1662 31.4181 79.5917 31.0065 80.2898L30.9342 80.5428L31.0037 80.7403C31.5461 81.825 32.1857 84.0527 33.8711 83.5743C34.3134 83.4492 34.6554 83.1043 35.0142 82.8151C36.3464 81.7415 38.1069 81.355 39.5503 80.4344C40.9688 79.5333 42.0256 78.1594 43.4134 77.2138C43.7027 77.0135 44.0114 76.8299 44.2478 76.5713C44.4147 76.3933 44.5509 76.1736 44.7651 76.054C44.9236 75.965 45.1099 75.9428 45.2796 75.8788C45.6189 75.7508 45.8776 75.4755 46.1223 75.2057C47.2848 73.9236 48.5531 72.4635 48.9869 70.7419C49.1844 69.9604 49.2428 69.2234 49.5376 68.478C49.8213 67.7549 49.9965 66.9984 50.2079 66.2531C50.3914 65.6078 50.7363 65.0405 50.9226 64.3758Z" fill="#F7F7F8"/>
<path d="M44.2811 63.4941C44.2449 63.6249 44.2088 63.7528 44.2143 63.8863C44.231 64.2061 44.5036 64.4509 44.7511 64.6539C45.1405 64.9765 45.541 65.3075 45.8219 65.7274C46.1055 66.153 46.2557 66.6897 46.1 67.1737C45.7996 67.36 45.4047 67.1931 45.1266 66.9734C44.9958 66.8677 44.854 66.7481 44.6843 66.7398C44.4841 66.7314 44.3145 66.8983 44.2282 67.0791C44.1365 67.2571 44.1059 67.4601 44.0252 67.6465C43.7304 68.3306 42.9823 68.8646 42.4761 69.3931C42.3926 69.4765 42.3064 69.5766 42.2953 69.6962C42.2758 69.9076 42.5067 70.0494 42.6124 70.2357C42.7737 70.5166 42.6485 70.8699 42.7041 71.1841C42.8043 71.7265 43.4439 72.1742 43.2409 72.686C42.9489 72.3745 42.7848 71.9573 42.4844 71.6569C42.1868 71.351 41.6389 71.2036 41.3525 71.5234C41.2134 71.6764 41.1801 71.9017 41.066 72.0769C40.8157 72.4746 40.2789 72.5414 39.8312 72.6971C39.2916 72.8807 38.816 73.2617 38.5129 73.7484C38.2514 74.1684 38.0734 74.7107 37.609 74.8942L37.317 75.0138C37.1334 75.1362 37.0778 75.4227 37.2141 75.6007C36.5549 75.7731 35.9458 76.1402 35.4925 76.6492C35.2978 76.8605 35.0892 77.122 34.8 77.1136C34.6748 77.1109 34.5552 77.058 34.4384 77.0135C34.0964 76.8911 33.7292 76.8745 33.3677 76.9273C33.9629 76.3544 34.7917 75.6396 35.487 75.3198C36.7357 74.7496 37.406 74.071 37.7008 73.6177C37.9928 73.1644 39.528 71.999 39.528 71.999C39.528 71.999 41.219 69.6962 41.3692 69.585C41.5166 69.482 42.5317 68.403 42.6124 67.919C42.7014 67.4323 42.8265 63.7528 43.3549 62.9685C43.8861 62.187 44.4924 55.3063 44.4924 55.3063C44.4924 55.3063 44.7094 52.1524 46.0277 49.7912C46.1028 50.1722 46.1751 50.9482 46.1695 51.0817C46.1389 51.7881 45.9637 52.5168 45.8664 53.2204C45.6578 54.6666 45.4603 56.124 45.2712 57.573C45.2378 57.801 45.21 58.0319 45.2211 58.2599C45.2489 58.6771 45.3908 59.0693 45.388 59.4892C45.9971 58.755 46.4671 57.7232 46.8954 56.8638C47.6074 55.4176 48.3222 53.9741 49.0369 52.5307C48.2332 54.4998 47.4322 56.4772 46.6312 58.4518C46.4142 58.9775 46.2001 59.5059 45.9275 60.0065C45.591 60.6267 45.1683 61.1941 44.8679 61.8282C44.6093 62.3594 44.4452 62.9323 44.2811 63.4941Z" fill="#CCCDCC"/>
<path d="M28.9512 81.2521C28.751 80.9795 28.5702 80.7626 28.2225 80.7793C27.8443 80.7987 27.3743 80.9489 27.0544 81.1519C26.5816 81.4523 26.106 81.7527 25.6332 82.053L25.408 82.2282C25.255 82.3979 25.2383 82.6649 25.3301 82.8735C25.4191 83.0849 25.5999 83.2434 25.8029 83.3491C25.9948 83.4548 26.2256 83.5271 26.3452 83.7106C26.4314 83.8469 26.4426 84.0193 26.5121 84.1667C26.7763 84.7397 27.6691 84.6256 28.1196 85.0678L28.3727 85.3849C28.5924 85.6742 28.8984 85.8966 29.2432 86.019C29.3879 86.0719 29.5492 86.1052 29.6966 86.058C29.8106 86.0218 29.9024 85.9411 29.9914 85.8688C30.4197 85.5212 30.9064 85.2431 31.4237 85.0567C30.67 84.4031 30.3307 83.4047 29.8328 82.5425C29.5714 82.092 29.2599 81.672 28.9512 81.2521Z" fill="#FCD7C6"/>
<path d="M22.9548 17.0899L24.0089 16.2111C24.0089 16.2111 26.4452 17.2262 27.6272 18.08C28.8065 18.9339 33.3231 23.3726 33.3231 23.3726C33.3231 23.3726 30.7088 26.7101 28.9733 26.838C27.2406 26.9659 27.2407 26.9659 27.2407 26.9659C27.2407 26.9659 24.2787 25.5475 24.554 23.915C24.8266 22.2796 22.9548 17.0899 22.9548 17.0899Z" fill="#5BC1A4"/>
<path d="M3.6173 16.72C3.6173 16.72 1.52584 18.2191 1.64821 19.1174C1.76502 20.0157 1.40625 21.5009 1.40625 21.5009L4.98843 18.1885L3.6173 16.72Z" fill="#493133"/>
<path d="M11.1961 9.22193L10.7872 9.53064C10.7872 9.53064 8.80423 10.9101 8.62067 11.4552C8.4399 12.0003 7.66117 13.1323 7.66117 13.1323L6.67384 14.2726C6.67384 14.2726 4.84382 15.2071 4.43777 15.5964C4.03171 15.9858 3.69796 16.7312 3.61731 16.72L4.51285 18.119C4.51285 18.119 6.87965 16.8952 7.00758 16.8535C7.1383 16.8118 7.79466 16.6422 7.79466 16.6422C7.79466 16.6422 9.47729 15.7605 9.67753 15.602C9.875 15.4407 10.9986 13.9917 11.1794 13.4688C11.3629 12.9432 12.3475 12.2534 12.5088 11.5498C12.6729 10.8489 11.1961 9.22193 11.1961 9.22193Z" fill="#493133"/>
<path d="M19.954 55.946C16.9754 56.7692 12.8175 56.441 7.95875 55.0699C5.33053 54.3273 3.70631 53.0786 2.77461 51.9967C1.98754 51.0817 1.69829 50.289 1.71776 50.0248C1.76225 49.4602 3.48938 45.6722 3.46435 44.7322C3.43932 43.7894 4.01781 42.0789 4.11237 41.4393C4.20971 40.7996 2.88865 34.5197 2.28235 31.9804C2.06541 31.0599 1.86795 29.3717 1.71498 27.5555C1.45077 24.3627 1.32839 20.7917 1.45911 20.4246C1.6677 19.8433 3.21683 19.0062 4.51564 18.1162C5.8089 17.229 8.29806 16.3779 8.29806 16.3779L11.3018 15.7132L15.5542 14.5813C15.5542 14.5813 21.8035 14.5646 24.251 16.5198C26.6957 18.475 25.458 22.986 25.5331 23.8566C25.611 24.7243 24.9713 39.2922 24.7655 41.2223C24.5653 43.1525 24.5903 49.7272 24.5847 50.5866C24.5792 51.4404 22.9355 55.1172 19.954 55.946Z" fill="#44B396"/>
<path d="M28.1446 25.236C28.5034 24.7549 28.9344 24.321 29.2598 23.8121C29.5241 23.3977 29.7632 22.6551 30.2193 22.4215C30.8618 22.0933 31.4848 22.5327 32.0299 22.8331C32.7308 23.2225 33.4094 23.6508 34.063 24.1124C34.1853 24.1987 34.3049 24.2849 34.3967 24.3989C34.6887 24.7605 34.6359 25.2805 34.5664 25.7394C34.5163 26.0843 34.4662 26.4236 34.4134 26.7657C34.3884 26.9493 34.355 27.1439 34.2382 27.2858C34.0741 27.4832 33.8627 27.4666 33.6486 27.5444C33.4428 27.6195 33.3871 27.8087 33.2425 27.9866C33.0506 28.223 32.6724 28.44 32.5361 28.707C32.4777 28.821 30.9341 27.3887 30.9341 27.3887L29.5797 27.8615C29.2376 27.8309 28.8899 27.7669 28.5673 27.6557C28.3699 27.5889 28.1307 27.4999 27.9972 27.3303C27.8359 27.13 27.6022 26.7907 27.58 26.5293C27.5605 26.3124 27.6356 26.0982 27.7302 25.9008C27.8442 25.6644 27.9861 25.4474 28.1446 25.236Z" fill="#FEFEFE"/>
<path d="M32.8838 22.0933C32.8838 22.0933 31.6684 23.4533 31.2373 25.3834C30.809 27.3136 29.7967 31.7273 29.7494 32.5367C29.7021 33.3432 29.5992 36.917 29.8217 37.4204C30.0387 37.9211 31.5878 38.7248 32.1551 38.6386C32.7225 38.5552 36.8109 38.3605 38.0235 37.0172C39.2361 35.6766 39.8368 35.2094 40.3374 33.93C40.8408 32.6507 42.1647 30.8902 42.3009 30.6204C42.4372 30.3507 42.4094 24.4796 40.5849 23.7509C38.7605 23.0222 32.8838 22.0933 32.8838 22.0933Z" fill="#FBC1A4"/>
<path d="M28.8371 31.6467C28.7565 31.7718 28.6675 31.8747 28.5896 31.922C28.3226 32.0861 26.4036 31.2323 26.3285 31.2212C26.2451 31.2073 25.7333 31.2156 24.9101 31.1349C24.0841 31.0515 23.8616 30.9041 23.6085 31.2295C23.3582 31.5577 22.699 31.9916 22.699 31.9916C22.699 31.9916 22.6045 31.7552 22.5016 31.3936L22.5044 31.3908C22.5711 31.2601 23.2998 30.8346 23.4583 30.5731C23.6141 30.3256 23.4249 29.8918 23.4083 29.8528C23.4694 29.8834 24.2816 30.3145 24.7961 30.384C25.3301 30.4536 26.3396 30.6927 26.4509 30.7094C26.5649 30.7261 27.263 31.2379 27.9277 31.5799C28.5896 31.922 28.8371 31.6467 28.8371 31.6467Z" fill="#604443"/>
<path d="M28.8372 31.6467L29.1487 31.0738C29.0736 31.2295 28.9567 31.4604 28.8372 31.6467Z" fill="#604443"/>
<path d="M30.7255 29.4662C30.5753 29.6693 30.1832 29.9724 30.1832 29.9724C30.1832 29.9724 29.8467 30.6176 29.538 30.7539C29.232 30.8958 29.232 30.8958 29.232 30.8958L29.1486 31.0738L27.605 30.1643L26.8652 29.508L28.4477 30.1448C28.4477 30.1448 29.0735 30.804 29.3794 30.7289C29.6854 30.6566 29.7799 30.0948 29.7799 30.0948L28.648 29.0518L27.1461 28.2981C27.1461 28.2981 28.2892 28.5707 28.6007 28.6764C28.9122 28.7848 29.8411 29.6776 30.1165 29.7388C30.3751 29.7972 30.6866 29.5024 30.7255 29.4662Z" fill="#604443"/>
<path d="M30.7978 28.4789C30.7895 28.6347 30.8757 29.2688 30.7311 29.4607L30.7978 28.4789Z" fill="#604443"/>
<path d="M31.2847 28.0979L31.1456 28.2981C30.9537 28.351 30.8119 28.3482 30.798 28.4594L29.4936 27.6028L28.1364 26.7156L29.8663 27.2913L31.2847 28.0979Z" fill="#604443"/>
<path d="M10.4117 47.8277C10.5119 48.0363 10.587 48.192 10.6231 48.2699C10.5814 48.192 10.498 48.0307 10.4117 47.8277Z" fill="#604443"/>
<path d="M2.7746 51.9967C2.01255 51.1095 1.71775 50.3363 1.71497 50.0526C1.71497 50.0415 1.71774 50.0332 1.71774 50.0248C1.76224 49.4658 3.46156 45.7306 3.46434 44.7544C3.46434 44.7461 3.46434 44.7378 3.46434 44.7322C3.46434 44.7127 3.46434 44.6933 3.46434 44.6766C3.46156 43.7226 4.02057 42.0678 4.11235 41.4393C4.11792 41.417 4.11791 41.3864 4.11791 41.3531C4.11513 40.4714 3.12781 35.685 2.49926 32.9121C3.41984 34.7449 4.67137 37.0394 6.12872 39.1225C7.83637 41.5616 9.163 42.8632 10.1948 43.4056H10.1976C10.7761 43.87 11.5326 44.0313 12.1917 44.0313C12.442 44.0313 12.6784 44.0091 12.887 43.9702C13.6435 43.8255 15.9157 41.9955 17.5678 40.4853C19.217 38.9724 24.3149 31.8442 24.3149 31.8442C24.3149 31.8442 23.8727 31.6884 23.4917 31.363C23.5362 31.3157 23.5751 31.274 23.6085 31.2295C23.7281 31.0765 23.8394 31.0293 24.0118 31.0293C24.2037 31.0293 24.4707 31.0904 24.9101 31.1349C25.0353 31.1461 25.1549 31.1572 25.2661 31.1655L24.8628 35.596L22.5572 36.0354C22.5572 36.0354 20.0041 38.6358 18.4661 40.2072C16.9281 41.7758 14.6531 44.4402 14.6531 44.4402L15.3317 47.3437L13.8215 44.8323C13.8215 44.8323 11.7467 46.1284 10.6009 46.1284C10.5897 46.1284 10.5786 46.1284 10.5675 46.1284C10.5619 46.1284 10.5536 46.1284 10.548 46.1284C9.79989 46.1284 10.1114 47.1407 10.3923 47.7887C9.95564 46.8765 9.09903 45.1104 8.99057 44.9742C8.84595 44.7906 7.91146 43.9173 7.91146 43.9173C7.91146 43.9173 6.31784 42.4349 6.21772 42.4349C6.21494 42.4349 6.21215 42.4377 6.21215 42.4433C6.2344 42.5684 5.59473 44.6766 5.59473 44.6766L5.02458 43.0162C5.02458 43.0162 3.30303 50.3474 2.7746 51.9967ZM12.7535 35.7768C12.3169 34.7505 11.2795 32.4588 10.6509 31.0765V31.0793L13.0595 35.5098L13.0734 35.5181L12.7535 35.7768Z" fill="#376B62"/>
<path d="M13.4654 10.9852C13.382 11.1187 12.0609 13.2825 11.7606 14.2475C11.4491 15.2432 11.1682 16.631 10.9651 16.8841C10.7649 17.1428 9.60514 16.6839 9.25471 16.8396C9.14068 16.8869 8.79025 17.0565 8.37864 17.2568C8.17283 16.9675 8.04211 16.7784 8.04211 16.7784C8.04211 16.7784 10.3505 15.246 10.5925 14.7064C10.776 14.3004 11.26 13.3214 11.6994 12.3675C12.6339 11.636 13.407 11.0269 13.4654 10.9852Z" fill="#604443"/>
<path d="M18.683 21.0476C18.6023 21.8541 17.8124 25.5336 15.7071 24.8578C13.6045 24.1764 11.2822 21.1004 10.6231 20.3078C10.1364 19.7209 8.96269 18.0745 8.37864 17.2568C8.17283 16.9648 8.04211 16.7784 8.04211 16.7784C8.04211 16.7784 10.3505 15.246 10.5925 14.7064C10.776 14.3004 11.26 13.3214 11.6994 12.3675C11.8384 12.0671 11.9692 11.7723 12.0887 11.4969C12.5838 10.3483 14.005 8.18732 14.005 8.18732C18.644 8.30135 16.0964 13.11 16.1131 13.5217C16.1382 13.9333 17.8403 16.5142 18.5634 18.2525C19.2837 19.9935 18.758 20.2438 18.683 21.0476Z" fill="#CDA554"/>
<path d="M19.0641 20.8696C18.95 20.8696 18.8304 20.8557 18.7136 20.8306C18.8471 20.1826 19.217 19.8294 18.5635 18.2525C18.1185 17.1845 17.3036 15.7967 16.7362 14.7899L20.7328 15.7271C20.7328 15.7271 22.5072 16.4252 22.7797 16.7923C23.0523 17.1595 23.3721 18.322 23.3721 18.322C23.3721 18.322 22.8521 18.7086 22.4432 18.8921C22.0344 19.0785 20.2155 20.3356 19.6426 20.7055C19.4562 20.8251 19.2615 20.8696 19.0641 20.8696Z" fill="#489374"/>
<path d="M14.5084 23.6202C14.5947 23.0194 14.6809 22.4215 14.7699 21.8207L14.7587 21.5176L14.5446 21.2756C14.2275 21.0309 13.9105 20.7861 13.5934 20.5414L13.5072 20.2855L13.6101 20.2605C13.8409 20.2605 14.0718 20.3578 14.2971 20.3578C14.3499 20.3578 14.4027 20.3523 14.4528 20.3411C14.7226 20.2744 14.8978 20.0213 15.1231 19.86C15.3873 19.6653 15.721 19.5986 16.0186 19.4595C16.7 19.1397 16.6055 18.7475 16.2578 18.233C15.9296 17.7491 15.6126 17.2568 15.2677 16.7868C14.3833 15.5797 14.5084 14.267 14.5084 14.267L16.7362 14.7899C17.3035 15.7967 18.1184 17.1845 18.5634 18.2525C19.217 19.8294 18.8471 20.1826 18.7136 20.8306C18.4438 20.7778 18.1713 20.6804 17.9126 20.6193C17.6734 20.5636 17.3842 20.5275 17.0866 20.5275C16.3885 20.5275 15.6487 20.7361 15.4179 21.4175C15.3094 21.7401 15.34 22.135 15.2594 22.4715C15.1954 22.733 15.1676 23.0834 15.023 23.3142L14.5084 23.6202Z" fill="#A37D3C"/>
<path d="M25.7778 6.07361C25.7778 6.07361 26.5121 6.99697 26.3953 8.34307C26.2784 9.68638 25.9642 11.2744 25.7306 11.5665C25.4942 11.8585 24.5291 13.4299 24.5124 13.5383C24.4985 13.644 24.1898 15.9135 24.009 16.2111C23.8282 16.5114 22.7769 16.4391 22.7769 16.4391L22.051 17.3124L21.6394 17.877C21.6394 17.877 20.8023 19.3037 20.6799 19.3955C20.5575 19.4873 19.3088 19.6542 18.5745 19.2759C17.8431 18.8949 15.2927 16.4224 14.6113 15.1514C13.9272 13.8804 16.5387 8.16785 16.5387 8.16785C16.5387 8.16785 20.6827 3.87925 25.7778 6.07361Z" fill="#CDA554"/>
<path d="M15.2594 12.9654C15.2594 12.9654 14.3193 13.3798 13.802 12.4648C13.282 11.5526 13.4377 10.5124 13.752 9.61964C14.0663 8.72687 14.6614 8.44875 15.1787 8.52385C15.6988 8.60172 16.6722 9.74479 16.5415 10.2371C16.4052 10.7266 15.8824 12.4648 15.2594 12.9654Z" fill="#D2AE6D"/>
<path d="M25.6639 8.31526C25.6639 8.31526 25.7167 9.43886 25.4108 10.034C25.1048 10.6292 24.6932 11.7667 24.6932 11.7667C24.6932 11.7667 22.5934 10.8712 22.268 10.8573C21.9426 10.8434 20.616 11.0547 20.1905 11.4024C19.7677 11.7473 19.6676 12.2506 19.6175 12.5705C19.5703 12.8903 19.7872 13.644 20.4297 13.9082C21.0693 14.1725 21.4392 14.2531 21.4392 14.2531C21.4392 14.2531 20.4519 15.4963 19.5786 15.5575C18.7053 15.6187 18.0434 13.8331 17.8626 13.3993C17.6818 12.9654 17.693 11.6054 18.1991 11.1354C18.7025 10.6654 20.1293 10.0869 20.7272 9.51951C21.3224 8.95493 23.133 7.94257 23.7393 7.89529C24.3456 7.84801 25.8363 8.07051 25.6639 8.31526Z" fill="#FCCFB8"/>
<path d="M25.6639 8.31526C25.6639 8.31526 25.7167 9.43886 25.4108 10.034C25.1048 10.6292 24.6932 11.7667 24.6932 11.7667C24.6932 11.7667 22.5934 10.8712 22.268 10.8573C21.9426 10.8434 20.616 11.0575 20.1905 11.4024C19.7677 11.7473 19.6676 12.2506 19.6203 12.5705C19.5731 12.8903 19.7872 13.6468 20.4297 13.9082C21.0721 14.1725 21.4392 14.2531 21.4392 14.2531C21.4392 14.2531 20.4519 15.4963 19.5786 15.5575C18.7053 15.6187 18.0434 13.8331 17.8626 13.3993C17.6818 12.9654 17.693 11.6054 18.1991 11.1354C18.7025 10.6654 20.1293 10.0841 20.7272 9.5223C21.3224 8.95493 23.133 7.94258 23.7393 7.89808C24.3456 7.84802 25.8363 8.07051 25.6639 8.31526Z" fill="#D2AE6D"/>
<path d="M24.2093 11.1632L24.0786 12.0476C24.0786 12.0476 23.5029 14.0139 23.4695 14.1446C23.4389 14.2753 22.6268 15.1125 22.4933 15.3322C22.3542 15.5491 23.845 16.0303 23.845 16.0303L24.6932 11.7667L24.2093 11.1632Z" fill="#D2AE6D"/>
<path d="M23.7309 6.91353C23.7309 6.91353 22.2123 7.35574 21.9676 7.54486C21.7201 7.73398 18.8443 9.48892 18.7331 9.52507C18.619 9.56401 19.3505 7.94257 19.3505 7.94257C19.3505 7.94257 19.7399 7.33349 19.3811 7.3613C19.0223 7.3919 18.2046 7.77291 18.2046 7.77291C18.2046 7.77291 18.2769 6.16539 18.4466 6.1348C18.6135 6.1042 19.2337 5.95123 18.861 5.89561C18.4911 5.84277 17.4231 5.49234 17.4231 5.49234L17.7402 4.8332C17.7402 4.8332 17.0449 4.37708 16.6722 4.67467C16.3023 4.97504 16.5025 3.61504 16.5025 3.61504L16.6444 2.65552C16.6444 2.65552 15.6598 2.70002 15.3428 3.17004C15.0285 3.64285 14.0468 4.20465 14.0468 4.20465C14.0468 4.20465 15.4763 2.37741 15.9602 1.60145C16.4441 0.828283 19.039 0.450033 19.1196 0.463939L18.8527 1.15924C18.8527 1.15924 18.2769 1.37339 18.4939 1.56807C18.7108 1.76276 20.5992 1.87679 20.4741 2.16047C20.3517 2.44137 18.6163 2.59156 18.7692 3.02542C18.925 3.45651 19.2531 3.99327 19.2531 3.99327C19.2531 3.99327 19.5396 4.25471 20.4463 4.1963C21.353 4.14068 21.9509 4.14625 21.9509 4.14625C21.9509 4.14625 19.8706 4.77757 20.2488 4.99172C20.6243 5.20309 22.471 5.51737 22.471 5.51737C22.471 5.51737 22.6851 6.18764 22.3319 6.46298C21.9787 6.73553 23.7309 6.91353 23.7309 6.91353Z" fill="#604443"/>
<path d="M41.0327 38.4717C41.0327 38.4717 41.0661 37.7514 41.6557 37.4455C42.2453 37.1423 43.1436 37.4093 43.0713 37.9683C42.999 38.5274 42.7904 39.0753 42.045 40.0876C41.2969 41.1 41.1106 41.4031 40.5015 41.328C39.8952 41.2529 40.1372 40.7301 40.1928 40.3602C40.2484 39.9847 41.0327 38.4717 41.0327 38.4717Z" fill="#FCCFB8"/>
<path d="M11.8162 43.1024C11.6271 43.4862 11.4213 43.7171 11.2099 43.7087C10.9096 43.6976 10.573 43.603 10.1976 43.4056H10.1948C9.16297 42.8633 7.83634 41.5616 6.12869 39.1225C3.80361 35.799 2.00418 31.9387 1.22823 30.27C0.455057 28.6068 0.260373 26.0454 0.0629084 24.8717C-0.106744 23.8371 0.0211885 21.423 1.01686 20.6415C1.14757 20.5386 1.29497 20.4607 1.45906 20.4246C2.85522 20.0964 5.97573 20.2327 7.14939 22.8164C8.31749 25.4001 10.1392 29.9529 10.1392 29.9529C10.1392 29.9529 12.1055 34.2555 12.7535 35.7768C12.8369 35.9714 12.8953 36.1161 12.9287 36.2079C13.1707 36.8364 12.6339 41.4337 11.8162 43.1024Z" fill="#5BC1A4"/>
<path d="M24.315 31.8442C24.315 31.8442 19.217 38.9724 17.5678 40.4853C15.9158 41.9955 13.6435 43.8255 12.887 43.9702C12.1333 44.112 10.9986 44.048 10.1976 43.4056H10.1949C9.88058 43.1497 9.70814 42.6296 9.64695 41.9955C9.55239 41.0249 9.70536 39.7845 9.97792 38.7916C10.4229 37.1562 12.7424 35.8546 12.7536 35.7768L23.4695 27.0605C23.4695 27.0605 22.8632 29.5052 22.9661 30.4591C23.0022 30.8068 23.1941 31.0849 23.4222 31.2963C23.8144 31.6689 24.315 31.8442 24.315 31.8442Z" fill="#5BC1A4"/>
<path d="M10.1948 43.4056C9.16296 42.8632 7.83633 41.5616 6.12868 39.1225C3.8036 35.799 2.00417 31.9387 1.22822 30.27C0.455045 28.6068 0.260363 26.0454 0.0656795 24.8717C0.0267428 24.6297 0.00170898 24.3127 0.00170898 23.9567C0.00170898 22.7969 0.254796 21.2395 1.01684 20.6415C1.01684 20.6415 0.59132 23.52 0.886126 25.4224C1.17259 27.3247 2.71337 30.9959 4.01497 33.5296C5.31657 36.0632 8.23683 40.6188 9.3048 41.6729C9.42718 41.7925 9.5412 41.8982 9.64688 41.9955C10.5035 42.7742 11.0264 42.9467 11.8162 43.1024C11.8663 43.1108 11.9219 43.1163 11.9831 43.1163C12.9815 43.1163 15.2315 41.8147 16.3217 40.6689C17.2785 39.6537 21.8841 33.3988 23.4221 31.2963C23.8143 31.6689 24.3149 31.8442 24.3149 31.8442C24.3149 31.8442 19.217 38.9724 17.5677 40.4853C15.9157 41.9955 13.6435 43.8255 12.887 43.9702C12.6784 44.0091 12.442 44.0313 12.1917 44.0313C11.5325 44.0313 10.7761 43.87 10.1976 43.4056H10.1948Z" fill="#417C72"/>
<path d="M32.664 126.8L37.6757 95.7031C37.8537 94.599 38.5184 93.6339 39.4891 93.0749L45.7106 89.4816C46.5032 89.0227 47.4405 88.8113 48.3416 88.9838C49.5514 89.2146 50.5221 89.9683 51.0366 91.0558L59.8168 109.656C60.1533 110.371 61.0072 110.677 61.7219 110.341C62.3338 110.051 62.598 109.32 62.3088 108.705L53.4729 89.9906C53.2309 89.4761 52.9389 88.9838 52.5718 88.5527C50.4386 86.0496 47.0289 85.6491 44.4841 87.1204L38.1569 90.7721C36.4965 91.7316 35.3562 93.3864 35.0503 95.2804L30.0052 126.566C29.8995 127.242 30.3556 127.873 31.0287 127.982C31.8046 128.107 32.5389 127.578 32.664 126.8Z" fill="#727678"/>
<path d="M52.4772 91.8317L61.2575 110.432L61.2741 110.46C60.6817 110.53 60.0866 110.227 59.8168 109.656L51.0366 91.0558C50.8141 90.5858 50.4942 90.1936 50.1188 89.8654C51.1645 90.163 52.0128 90.85 52.4772 91.8317Z" fill="#61676C"/>
<path d="M34.0379 111.267L31.4459 127.345C31.4125 127.562 31.4431 127.776 31.5126 127.971C31.3596 127.998 31.1956 128.009 31.0287 127.982C30.3556 127.873 29.8995 127.242 30.0052 126.566L35.0503 95.2804C35.3562 93.3864 36.4965 91.7316 38.1569 90.7721L44.4841 87.1204C46.5839 85.9078 49.2622 85.9884 51.337 87.4541C49.5542 86.7894 47.5629 86.9507 45.9247 87.8963L39.5975 91.5508C37.9372 92.5075 36.7969 94.1623 36.4909 96.0563L34.0379 111.267Z" fill="#9EA2A4"/>
<path fill-rule="evenodd" clip-rule="evenodd" d="M24.365 14.5312C22.6268 13.7887 19.9596 13.0016 17.3342 12.3869C16.1327 15.0374 16.4692 14.5813 15.9769 16.9203C16.6472 17.8047 17.4037 18.6418 18.5746 19.2759C19.2226 19.5513 19.9207 19.6069 20.6799 19.3955C22.2541 17.1789 23.1246 17.5377 24.009 16.2111C24.1981 15.7438 24.276 15.1264 24.365 14.5312Z" fill="#1362A7"/>
<path fill-rule="evenodd" clip-rule="evenodd" d="M17.6874 12.818C15.5069 9.49727 17.6874 12.818 17.6874 12.818V12.818Z" stroke="white" stroke-width="2.36" stroke-miterlimit="22.9256"/>
<path d="M39.9591 20.7861C38.4351 20.2049 37.4644 20.6777 36.5188 20.3495C35.5398 20.0102 34.775 20.4329 34.0018 20.8473C33.4206 21.1616 32.7531 21.3118 32.4388 22.0265C32.0022 23.0194 30.2973 24.4323 30.1554 25.4418C30.0442 26.2567 30.784 28.6736 30.784 28.6736C30.784 28.6736 31.0399 27.1912 31.1511 26.6962C31.8603 23.5395 33.415 22.8581 38.3155 25.9647C41.0522 27.7002 39.5114 31.3547 39.1331 33.0401C39.6365 33.0206 40.1399 32.723 40.1399 32.723C40.1399 32.723 40.5404 30.4202 41.6807 31.1183C42.4678 31.6022 42.1146 32.6729 42.1146 32.6729C42.1146 32.6729 43.5413 31.8608 43.6721 30.9319C43.7471 30.384 44.2672 29.939 44.4619 29.3494C44.5426 29.1047 44.7595 28.134 44.6733 26.902C44.5342 24.8856 43.5942 22.1712 39.9591 20.7861Z" fill="#EADFD7"/>
<path d="M39.4308 19.8795C39.4308 19.8795 38.3238 21.1227 38.3405 21.2784C38.3544 21.4342 38.627 21.8291 38.7939 21.843C38.9635 21.8541 39.9202 21.2728 39.9202 21.2728L40.2623 21.1449L40.8102 21.4397C40.8102 21.4397 40.4014 22.58 40.4515 22.8887C40.5043 23.1974 41.055 23.2586 41.055 23.2586L41.8365 22.3937L42.198 22.4632L42.3677 22.6134C42.3677 22.6134 42.1619 24.0513 42.1563 24.2737C42.1508 24.4907 42.821 24.6715 42.821 24.6715L43.533 23.7954L43.8667 24.2292L43.4996 25.8368C43.4996 25.8368 43.7416 26.6099 43.8946 26.5988C44.0448 26.5877 44.4063 25.6171 44.4063 25.6171C44.4063 25.6171 44.5509 24.8411 44.4007 24.2626C44.2478 23.6841 43.6888 23.7425 43.6888 23.7425L43.5831 22.6829L42.6124 21.9403C42.6124 21.9403 42.44 21.3396 42.1897 21.1532C41.9422 20.9697 41.2246 20.7917 41.2246 20.7917L40.7768 20.1103L39.4308 19.8795Z" fill="#FFFBD6"/>
<path d="M31.4098 27.4777C31.3458 27.639 31.3347 27.9088 31.2846 28.0979L31.1456 28.2981C30.9537 28.351 30.8118 28.3482 30.7979 28.4594V28.4789C30.7896 28.6347 30.8758 29.2688 30.7311 29.4607L30.7256 29.4662C30.5754 29.6693 30.1833 29.9724 30.1833 29.9724C30.1833 29.9724 29.8467 30.6149 29.538 30.7539C29.2321 30.893 29.2321 30.893 29.2321 30.893L29.1486 31.0738C29.0736 31.2295 28.9567 31.4603 28.8372 31.6467C28.7565 31.7718 28.6675 31.8747 28.5896 31.922C28.3226 32.0861 26.4036 31.2323 26.3285 31.2212C26.2451 31.2073 25.7333 31.2156 24.9101 31.1349C24.0841 31.0515 23.8616 30.9041 23.6085 31.2295C23.3582 31.5577 22.6991 31.9916 22.6991 31.9916C22.6991 31.9916 22.6045 31.7552 22.5016 31.3936L22.5044 31.3908C22.2263 30.4508 21.8591 28.668 22.7463 27.956C22.7463 27.956 24.2232 26.6628 24.6626 26.5849C25.102 26.507 26.0059 25.7811 26.1783 25.7255C26.3508 25.6699 27.0544 25.1832 27.6162 25.3862C28.178 25.5948 29.8745 26.5488 29.8745 26.5488C29.8745 26.5488 31.5127 27.2274 31.4098 27.4777Z" fill="#FFFBD6"/>
<path d="M38.4379 31.9749L40.3958 31.8525" stroke="#373435" stroke-width="2.36" stroke-miterlimit="22.9256"/>
<path d="M34.0491 30.7484C33.6069 30.1893 33.1424 30.0447 32.653 30.3117" stroke="#373435" stroke-width="2.36" stroke-miterlimit="22.9256"/>
<path d="M30.8318 30.5142C31.7464 30.781 32.5646 30.6825 32.6595 30.2942C32.7543 29.9059 32.0898 29.3749 31.1752 29.108C30.2606 28.8412 29.4423 28.9397 29.3475 29.328C29.2526 29.7163 29.9172 30.2473 30.8318 30.5142Z" fill="#FEFEFE"/>
<path d="M36.135 32.2737C37.4206 32.6168 38.5709 32.4902 38.7043 31.9908C38.8376 31.4914 37.9034 30.8083 36.6177 30.4651C35.332 30.122 34.1817 30.2486 34.0484 30.748C33.9151 31.2474 34.8493 31.9305 36.135 32.2737Z" fill="#FEFEFE"/>
<path d="M58.1898 73.3841L58.2148 73.3701V73.2172C58.1982 71.86 57.7254 70.8198 56.9188 70.3609C56.2319 69.9715 55.3697 70.0355 54.4908 70.5417C52.5774 71.6458 51.0199 74.6106 51.0199 77.1526V122.122L52.2575 122.099V76.7354C52.2575 74.8915 53.3756 72.7472 54.7495 71.9517C55.2974 71.6347 55.798 71.5874 56.1901 71.8127C56.624 72.0574 56.8882 72.6303 56.9494 73.3841H58.1898Z" fill="#6A4F4A"/>
<path d="M19.6647 16.9453C20.2653 16.9453 20.7522 16.4522 20.7522 15.8439C20.7522 15.2357 20.2653 14.7426 19.6647 14.7426C19.0641 14.7426 18.5773 15.2357 18.5773 15.8439C18.5773 16.4522 19.0641 16.9453 19.6647 16.9453Z" fill="#3E4095"/>
<path fill-rule="evenodd" clip-rule="evenodd" d="M17.1255 13.4605C13.5934 11.6416 17.1255 13.4605 17.1255 13.4605V13.4605Z" stroke="white" stroke-width="2.36" stroke-miterlimit="22.9256"/>
<path d="M25.5804 7.78683C25.5804 7.78683 23.5557 7.10543 22.7797 7.66445C22.0038 8.22347 19.8122 10.0674 18.4605 10.2343C17.1089 10.4011 16.383 12.1311 15.9658 12.6011C15.5514 13.0711 14.5836 13.7247 14.5836 13.7247C14.5836 13.7247 16.1188 11.5637 16.0687 11.2077C16.0214 10.8545 15.6849 10.0813 15.0842 9.9951C14.4862 9.9061 12.7702 11.2021 12.7702 11.2021L11.3574 13.0933C11.3574 13.0933 10.3701 11.0408 10.7844 9.71141C11.1988 8.38478 12.2418 5.92621 14.0412 2.95311C15.8407 -0.0199828 19.9596 -0.0672657 20.5743 0.0217325C21.1861 0.113512 22.0538 0.541814 22.0538 0.541814C22.0538 0.541814 23.03 0.522346 23.831 1.37617C24.6292 2.23 25.8085 3.65397 26.3035 4.89716C26.8013 6.14314 26.9487 6.62707 26.9793 7.33905C27.0099 8.05104 26.3786 8.5294 26.3786 8.5294L26.1478 7.81742L25.5804 7.78683Z" fill="#4E3638"/>
<path d="M21.4281 90.3994L21.1416 90.3966L21.887 85.1986L22.1706 85.2013C22.2791 85.2013 22.3848 85.2737 22.4654 85.4155L23.1941 86.7115C23.3526 86.9952 23.3471 87.4541 23.183 87.7322L21.7256 90.1908C21.6422 90.3326 21.5337 90.3994 21.4281 90.3994Z" fill="#D2D4D5"/>
<path d="M22.8937 87.7295C23.0606 87.4513 23.0634 86.9924 22.9048 86.7088L22.1762 85.4099C22.0176 85.129 21.7506 85.1263 21.5865 85.4044L20.1292 87.8629C19.9651 88.1411 19.9595 88.6027 20.1181 88.8836L20.8467 90.1825C21.0053 90.4634 21.2723 90.4661 21.4364 90.188L22.8937 87.7295Z" fill="#FEFEFE"/>
<path d="M21.1249 90.3799L20.9691 90.3772L21.7061 85.2125H21.8647C21.9731 85.2153 22.0788 85.2848 22.1567 85.4266L22.8826 86.7143C23.0411 86.9952 23.0356 87.4513 22.8715 87.7295L21.4225 90.1741C21.339 90.3132 21.2333 90.3799 21.1249 90.3799Z" fill="#96989B"/>
<path d="M22.7102 87.7295C22.877 87.4513 22.8798 86.9952 22.7241 86.7143L21.9982 85.4239C21.8397 85.143 21.5754 85.1402 21.4114 85.4183L19.9651 87.8602C19.801 88.1383 19.7955 88.5944 19.954 88.8753L20.6771 90.163C20.8356 90.4439 21.0999 90.4495 21.2639 90.1713L22.7102 87.7295Z" fill="#BFC0C1"/>
<path d="M20.9552 90.3465L20.7161 90.3438L21.4336 85.2403L21.6867 85.2431C21.7896 85.2431 21.8953 85.3154 21.9732 85.4544L22.6879 86.7282C22.8465 87.0035 22.8409 87.4569 22.6768 87.7295L21.2473 90.1435C21.1666 90.2826 21.0609 90.3493 20.9552 90.3465Z" fill="#96989B"/>
<path d="M22.4459 87.7267C22.6072 87.4541 22.6128 87.0008 22.457 86.7255L21.7395 85.4517C21.5838 85.1735 21.3223 85.1708 21.161 85.4433L19.7315 87.8574C19.5702 88.1327 19.5646 88.5833 19.7203 88.8614L20.4351 90.1352C20.5909 90.4105 20.8523 90.4133 21.0136 90.1408L22.4459 87.7267Z" fill="#5C5B61"/>
<path d="M20.6688 90.3438L20.2377 90.3382L20.9719 85.2347L21.4002 85.2403C21.5059 85.2403 21.6116 85.3098 21.6895 85.4489L22.4042 86.7227C22.56 87.0008 22.5544 87.4513 22.3931 87.7239L20.9608 90.1407C20.8801 90.277 20.7744 90.3438 20.6688 90.3438Z" fill="#8C8C8F"/>
<path d="M20.6855 90.3716L20.1904 90.366L20.9302 85.2041L21.175 85.2069C21.2834 85.2097 21.3891 85.2792 21.467 85.4211L22.1901 86.7088C22.3486 86.9869 22.3431 87.443 22.179 87.7211L20.9553 89.7848L21.1917 89.8098L20.9831 90.1658C20.8996 90.3048 20.7912 90.3744 20.6855 90.3716Z" fill="#96989B"/>
<path d="M20.1821 90.3855L19.8956 90.3827L20.641 85.1819L20.9275 85.1874C21.0331 85.1874 21.1388 85.2598 21.2195 85.4016L21.9482 86.6976C22.1067 86.9813 22.1039 87.4402 21.937 87.7183L20.4797 90.1769C20.3962 90.3187 20.2878 90.3855 20.1821 90.3855Z" fill="#D2D4D5"/>
<path d="M21.6506 87.7156C21.8146 87.4374 21.8202 86.9758 21.6617 86.6948L20.9302 85.396C20.7717 85.1151 20.5075 85.1123 20.3406 85.3905L18.886 87.8491C18.7192 88.1272 18.7136 88.5888 18.8721 88.8697L19.6036 90.1686C19.7621 90.4495 20.0263 90.4522 20.1932 90.1741L21.6506 87.7156Z" fill="#FEFEFE"/>
<path d="M21.1805 88.2273C21.3251 87.9825 21.3307 87.5793 21.1916 87.3317L20.5492 86.1942C20.4101 85.9467 20.1793 85.9439 20.0346 86.1887L19.0056 87.9241C18.861 88.1689 18.8554 88.5721 18.9945 88.8197L19.6341 89.9572C19.7732 90.2047 20.0068 90.2075 20.1514 89.9627L21.1805 88.2273Z" fill="#D2D4D5"/>
<path d="M21.225 86.6559C21.3056 86.5196 21.3084 86.2971 21.2305 86.1581C21.1527 86.019 21.022 86.019 20.9413 86.1553C20.8606 86.2916 20.8579 86.5141 20.9357 86.6531C21.0136 86.7894 21.1415 86.7922 21.225 86.6559Z" fill="#D2D4D5"/>
<path d="M21.1971 86.6086C21.2639 86.4974 21.2639 86.3166 21.2027 86.2054C21.1387 86.0913 21.0331 86.0913 20.9691 86.2026C20.9023 86.3138 20.8996 86.4946 20.9635 86.6059C21.0275 86.7199 21.1304 86.7199 21.1971 86.6086Z" fill="#FEFEFE"/>
<path d="M21.0164 86.5169C20.9831 86.4529 20.9831 86.3555 21.0192 86.2943C21.0554 86.2332 21.1138 86.2332 21.1499 86.2943C21.1833 86.3555 21.1833 86.4557 21.1472 86.5169C21.111 86.578 21.0526 86.578 21.0164 86.5169ZM21.1611 86.2721C21.1193 86.1998 21.0498 86.197 21.0081 86.2721C20.9636 86.3444 20.9636 86.464 21.0053 86.5391C21.047 86.6114 21.1138 86.6114 21.1583 86.5391C21.2028 86.4668 21.2028 86.3472 21.1611 86.2721Z" fill="#D2D4D5"/>
<path d="M21.0191 87.6683L20.3517 86.4807L19.1669 88.4832L19.8316 89.6707L21.0191 87.6683Z" fill="#2F2F30"/>
<path d="M20.5185 87.0953H20.5491L20.6687 87.3095V87.3651L20.6381 87.3623L20.5157 87.151L20.5185 87.0953Z" fill="#55C2B9"/>
<path d="M20.3601 87.3595L20.3935 87.3623L20.5131 87.5737L20.5103 87.6293H20.4797L20.3601 87.4152V87.3595Z" fill="#55C2B9"/>
<path d="M20.5103 87.6293H20.5436L20.6632 87.8435V87.8963H20.6298L20.5103 87.6849V87.6293Z" fill="#55C2B9"/>
<path d="M20.6688 87.3651V87.4207L20.5436 87.6293H20.5103L20.513 87.5737L20.6382 87.3623L20.6688 87.3651Z" fill="#55C2B9"/>
<path d="M20.5186 87.0953L20.5159 87.151L20.3935 87.3623L20.3601 87.3596V87.3067L20.4853 87.0953H20.5186Z" fill="#55C2B9"/>
<path d="M20.819 87.6321V87.6877L20.6938 87.8991L20.6632 87.8963V87.8435L20.7884 87.6321H20.819Z" fill="#55C2B9"/>
<path d="M20.1375 87.7406H20.1681L20.2877 87.9519V88.0076H20.2544L20.1348 87.7934L20.1375 87.7406Z" fill="#55C2B9"/>
<path d="M20.2877 88.0076H20.3183L20.4379 88.2217V88.2773L20.4073 88.2746L20.2877 88.0632V88.0076Z" fill="#55C2B9"/>
<path d="M20.2933 87.4736V87.5292L20.1682 87.7406H20.1376V87.6849L20.2627 87.4736H20.2933Z" fill="#55C2B9"/>
<path d="M19.9207 88.1021L19.954 88.1049L20.0736 88.3163V88.3719H20.0402L19.9207 88.1578V88.1021Z" fill="#55C2B9"/>
<path d="M19.7649 88.3691H19.7955L19.9151 88.5805V88.6361H19.8845L19.7649 88.4248V88.3691Z" fill="#55C2B9"/>
<path d="M20.0736 88.3719H20.1042L20.2238 88.5861V88.6389H20.1932L20.0708 88.4275L20.0736 88.3719Z" fill="#55C2B9"/>
<path d="M19.915 88.6361H19.9484L20.068 88.8503V88.9059H20.0346L19.915 88.6918V88.6361Z" fill="#55C2B9"/>
<path d="M20.0736 88.3719L20.0708 88.4275L19.9484 88.6361H19.915V88.5805L20.0402 88.3719H20.0736Z" fill="#55C2B9"/>
<path d="M19.9206 88.1021V88.1578L19.7955 88.3691H19.7649V88.3135L19.89 88.1021H19.9206Z" fill="#55C2B9"/>
<path d="M20.2237 88.6389V88.6945L20.0986 88.9059H20.068V88.8503L20.1932 88.6389H20.2237Z" fill="#55C2B9"/>
<path d="M19.5229 88.7752H19.5563L19.6759 88.9866V89.0422H19.6425L19.5229 88.828V88.7752Z" fill="#55C2B9"/>
<path d="M19.8317 88.778H19.865L19.9846 88.9921L19.9819 89.045H19.9513L19.8317 88.8336V88.778Z" fill="#55C2B9"/>
<path d="M19.8316 88.778V88.8336L19.7065 89.0422H19.6759V88.9866L19.8011 88.778H19.8316Z" fill="#55C2B9"/>
<path d="M19.6815 88.5082V88.5638L19.5563 88.7752H19.5229L19.5257 88.7196L19.6481 88.5082H19.6815Z" fill="#55C2B9"/>
<path d="M19.9818 89.045V89.1006L19.8566 89.312H19.826V89.2563L19.9512 89.045H19.9818Z" fill="#55C2B9"/>
<path d="M20.3935 86.8478L20.3796 86.845C20.3796 86.8673 20.374 86.8895 20.3657 86.9034C20.3546 86.9229 20.3434 86.9257 20.3351 86.9118C20.324 86.8951 20.3295 86.8812 20.3323 86.8589L20.3406 86.8284C20.3462 86.8089 20.349 86.7811 20.3379 86.7588C20.324 86.7366 20.3017 86.7393 20.2878 86.7672C20.2767 86.7838 20.2711 86.8089 20.2711 86.8284L20.285 86.8311C20.285 86.8145 20.2878 86.7978 20.2961 86.7838C20.3073 86.7672 20.3184 86.7644 20.324 86.7783C20.3323 86.7922 20.3295 86.8117 20.324 86.8284L20.3156 86.8589C20.3101 86.884 20.3101 86.9062 20.3212 86.9285C20.3351 86.9535 20.3573 86.9535 20.3768 86.9201C20.3879 86.9007 20.3935 86.8729 20.3935 86.8478Z" fill="#55C2B9"/>
<path d="M20.2599 86.9646C20.2432 86.9897 20.2321 86.9924 20.2209 86.9702C20.207 86.9507 20.2126 86.9285 20.2265 86.9034L20.2404 86.8812L20.2738 86.9424L20.2599 86.9646ZM20.2432 86.8478L20.2154 86.8895C20.1959 86.9229 20.1903 86.9563 20.207 86.9897C20.2265 87.023 20.2487 87.0147 20.2682 86.9813L20.2821 86.9563L20.3155 87.0175L20.3266 86.998L20.2432 86.8478Z" fill="#55C2B9"/>
<path d="M20.1487 87.151C20.1292 87.112 20.1265 87.0703 20.1404 87.0453C20.157 87.0175 20.1793 87.023 20.2015 87.062C20.2238 87.0981 20.2266 87.1426 20.2099 87.1676C20.1932 87.1954 20.171 87.1871 20.1487 87.151ZM20.2127 87.0425C20.1849 86.9924 20.1543 86.9896 20.132 87.0286C20.1098 87.0647 20.1098 87.1204 20.1376 87.1704C20.1654 87.2177 20.196 87.2233 20.221 87.1843C20.2405 87.1482 20.2405 87.0898 20.2127 87.0425Z" fill="#55C2B9"/>
<path d="M20.157 87.2733C20.1237 87.2733 20.107 87.2706 20.0986 87.2566C20.0931 87.2455 20.0931 87.2344 20.0986 87.2233L20.1153 87.2149V87.201C20.107 87.201 20.0986 87.201 20.0931 87.2149C20.0819 87.2316 20.0819 87.2511 20.0931 87.2678C20.1014 87.2845 20.1209 87.2845 20.1459 87.2872L20.1348 87.3012L20.1209 87.3262L20.1264 87.3373L20.1598 87.2789L20.157 87.2733Z" fill="#55C2B9"/>
<path d="M19.7594 87.8852C19.751 87.8713 19.7483 87.8546 19.7566 87.8435L19.7733 87.8324L19.7928 87.8685C19.7928 87.8796 19.79 87.888 19.7872 87.8935C19.7816 87.9047 19.7705 87.9019 19.7594 87.8852ZM19.7983 87.8768L19.8039 87.8824L19.8094 87.8741L19.751 87.7739L19.7455 87.7851L19.7594 87.8129L19.7677 87.824L19.7483 87.8351C19.7399 87.8518 19.7427 87.8768 19.7538 87.8963C19.7677 87.9213 19.7816 87.9214 19.79 87.9047C19.7955 87.8991 19.7983 87.888 19.7983 87.8768Z" fill="#55C2B9"/>
<path d="M19.7148 87.952C19.7065 87.938 19.7065 87.9241 19.7121 87.9158C19.7204 87.9047 19.7287 87.9047 19.7371 87.9158L19.7148 87.952ZM19.7454 87.9102C19.7343 87.888 19.7176 87.8908 19.7093 87.9047C19.6981 87.9214 19.6981 87.9436 19.7093 87.9631L19.7148 87.9714L19.7427 87.9241C19.7482 87.9408 19.7482 87.9575 19.7427 87.9714L19.7287 87.9825L19.7315 87.9937C19.7371 87.9909 19.7426 87.9881 19.7482 87.9798C19.7593 87.9603 19.7593 87.9325 19.7454 87.9102Z" fill="#55C2B9"/>
<path d="M19.6925 88.0382L19.6814 88.0187C19.6953 87.9992 19.7037 87.9964 19.7092 88.0048L19.7065 88.027L19.6925 88.0382ZM19.7148 87.9937C19.7065 87.9798 19.6953 87.9853 19.6759 88.0104C19.6703 88.002 19.6675 87.9909 19.6759 87.9797L19.6898 87.9658V87.9547C19.6842 87.9575 19.6759 87.9603 19.6675 87.9714C19.6592 87.9881 19.662 88.0076 19.6703 88.0243L19.6953 88.066L19.7009 88.0548L19.6953 88.0465L19.7148 88.0354C19.7204 88.0215 19.7231 88.0076 19.7148 87.9937Z" fill="#55C2B9"/>
<path d="M19.6704 88.066L19.6481 88.027L19.6537 88.0187L19.6481 88.0104L19.6425 88.0187L19.6314 88.002L19.6259 88.0104L19.637 88.0298L19.6259 88.0493L19.6314 88.0576L19.6425 88.0382L19.662 88.0771L19.6648 88.1021L19.6592 88.1077L19.662 88.1188L19.6704 88.1077C19.6787 88.0938 19.6787 88.0799 19.6704 88.066Z" fill="#55C2B9"/>
<path d="M19.5814 88.0604L19.5758 88.0687L19.6676 88.155L19.6731 88.1466L19.5814 88.0604Z" fill="#55C2B9"/>
<path d="M19.5869 88.1133L19.5813 88.1216L19.5869 88.1327L19.5674 88.1439C19.5619 88.155 19.5591 88.1633 19.5646 88.1744L19.5424 88.1856C19.534 88.1967 19.5368 88.2134 19.5452 88.2329L19.5702 88.2746L19.5758 88.2634L19.5535 88.2217C19.5452 88.2078 19.5452 88.1995 19.5507 88.1911L19.5674 88.1856L19.5952 88.2329L19.6008 88.2217L19.5785 88.18C19.5702 88.1689 19.5702 88.1578 19.5758 88.1494L19.5897 88.1439L19.6175 88.1939L19.6258 88.1828L19.5869 88.1133Z" fill="#55C2B9"/>
<path d="M19.5174 88.2273L19.5118 88.2412L19.5508 88.308L19.5563 88.2968L19.5174 88.2273ZM19.509 88.205H19.4979V88.2217H19.5063L19.509 88.205Z" fill="#55C2B9"/>
<path d="M19.4978 88.2634L19.4923 88.2718L19.4978 88.2829C19.4895 88.2829 19.4839 88.2857 19.4784 88.294C19.47 88.3079 19.47 88.3246 19.4811 88.3413L19.5034 88.3858L19.5117 88.3747L19.4867 88.333C19.4811 88.3191 19.4811 88.3107 19.4867 88.2996L19.5034 88.294L19.5312 88.3413L19.5368 88.3302L19.4978 88.2634Z" fill="#55C2B9"/>
<path d="M19.4785 88.3802L19.4534 88.3385L19.4479 88.3497L19.4701 88.3914C19.4785 88.4025 19.4785 88.4136 19.4729 88.422L19.4562 88.4275L19.4284 88.3802L19.4229 88.3914L19.4618 88.4581L19.4674 88.4498L19.4618 88.4387C19.4701 88.4387 19.4757 88.4387 19.4813 88.4275C19.4896 88.4136 19.4868 88.3997 19.4785 88.3802Z" fill="#55C2B9"/>
<path d="M19.4339 88.4637L19.4117 88.4248L19.42 88.4164L19.4144 88.4053L19.4061 88.4164L19.395 88.3997L19.3894 88.4081L19.4005 88.4275L19.3894 88.447L19.395 88.4553L19.4061 88.4359L19.4283 88.4748V88.4999L19.4228 88.5054L19.4256 88.5165L19.4367 88.5054C19.445 88.4915 19.4422 88.4776 19.4339 88.4637Z" fill="#55C2B9"/>
<path d="M19.3728 88.5304C19.3644 88.5165 19.3644 88.5026 19.37 88.4915C19.3756 88.4832 19.3867 88.4832 19.395 88.4943L19.3728 88.5304ZM19.4034 88.4887C19.3923 88.4665 19.3756 88.4665 19.3672 88.4832C19.3561 88.4999 19.3561 88.5221 19.3672 88.5416L19.3728 88.5471L19.3978 88.5026C19.4062 88.5165 19.4062 88.536 19.3978 88.5499L19.3867 88.561L19.3895 88.5722C19.395 88.5694 19.4006 88.5666 19.4062 88.5555C19.4145 88.5388 19.4173 88.511 19.4034 88.4887Z" fill="#55C2B9"/>
<path d="M22.3819 86.6365C22.4987 86.6392 22.4487 86.3834 22.2707 86.0663C22.0927 85.7493 21.8535 85.4906 21.7367 85.4906C21.6199 85.4906 21.6699 85.7437 21.8479 86.0607C22.0259 86.3778 22.2651 86.6365 22.3819 86.6365Z" fill="#5C5B61"/>
<path d="M20.513 90.277L20.4463 90.1574C20.4074 90.0851 20.4129 89.985 20.4797 89.8765C20.6076 89.6568 20.9191 89.4844 21.175 89.4872C21.2946 89.4872 21.3808 89.5289 21.4225 89.5956L21.5032 89.7319L21.4531 89.7486C21.4447 89.7931 21.4281 89.8376 21.4002 89.8877C21.2695 90.1074 20.958 90.2826 20.7049 90.2798C20.641 90.277 20.5881 90.2659 20.5436 90.2464L20.513 90.277Z" fill="#FEFEFE"/>
<path d="M20.7744 90.4022C21.0275 90.405 21.339 90.2298 21.4697 90.01C21.5977 89.7903 21.4976 89.6123 21.2445 89.6095C20.9886 89.6068 20.6771 89.782 20.5464 89.9989C20.4184 90.2186 20.5186 90.3994 20.7744 90.4022Z" fill="#E8E7E8"/>
<path d="M20.8439 90.2798C21.0219 90.2826 21.2388 90.1602 21.3278 90.01C21.3807 89.921 21.3807 89.8432 21.3334 89.7903C21.3501 89.8376 21.339 89.8988 21.3028 89.9627C21.211 90.1157 20.9941 90.2353 20.8189 90.2325C20.7438 90.2325 20.6882 90.2103 20.6548 90.1713C20.677 90.2381 20.741 90.2798 20.8439 90.2798Z" fill="#FEFEFE"/>
<path d="M20.8189 90.2325C20.9941 90.2353 21.2111 90.1157 21.3029 89.9627C21.339 89.8988 21.3501 89.8376 21.3335 89.7903C21.3029 89.7514 21.2472 89.7291 21.1721 89.7291C20.9941 89.7263 20.7772 89.8487 20.6882 90.0017C20.6493 90.0656 20.6409 90.124 20.6548 90.1713C20.6882 90.2103 20.7438 90.2325 20.8189 90.2325Z" fill="#96989B"/>
<path fill-rule="evenodd" clip-rule="evenodd" d="M29.7494 32.5367C30.5643 32.5255 30.8341 32.278 31.9354 32.4866C33.4345 32.9761 35.1032 34.7004 36.5744 35.1093C36.7163 35.8602 36.6328 36.8114 36.1406 38.1324C34.6693 38.7638 31.5127 39.1976 30.0915 38.0184C29.2655 37.3314 29.5603 33.9217 29.7494 32.5367Z" fill="#FFFBD6"/>
<path fill-rule="evenodd" clip-rule="evenodd" d="M36.135 35.0342L40.2595 32.2419L40.1399 32.723L36.4103 35.7879L36.135 35.0342Z" fill="#FFFBD6"/>
<path fill-rule="evenodd" clip-rule="evenodd" d="M36.3659 37.3954C37.4311 36.9894 39.3723 35.1482 40.2178 34.2916C40.1316 34.4807 40.0231 34.7143 39.8646 34.8784C39.0358 35.6294 37.1168 37.3454 36.1628 37.7987C36.2296 37.6652 36.2991 37.5289 36.3659 37.3954Z" fill="#FFFBD6"/>
</svg>
