<svg  width="145" height="120" viewBox="0 0 165 140" fill="none" xmlns="http://www.w3.org/2000/svg">
<g clip-path="url(#clip0)">
<path d="M135.243 94.7144L131.112 92.338V89.6675L135.243 92.1004V94.7144Z" fill="#327F58"/>
<path d="M135.243 92.1001L131.112 89.6672L135.97 86.8608L140.112 89.2938L135.243 92.1001Z" fill="#4D5758"/>
<path d="M140.111 89.2944V91.9197L135.242 94.7147V92.1008L140.111 89.2944Z" fill="#57B789"/>
<path d="M79.78 62.6792L75.6489 60.3029V57.6323L79.78 60.0652V62.6792Z" fill="#327F58"/>
<path d="M79.78 60.0653L75.6489 57.6324L80.5063 54.8374L84.6487 57.259L79.78 60.0653Z" fill="#4D5758"/>
<path d="M84.6485 57.2588V59.8841L79.7798 62.6791V60.0651L84.6485 57.2588Z" fill="#3B795C"/>
<path d="M97.1665 46.9506L98.0063 47.4258V45.1627L97.1665 44.7666V46.9506Z" fill="#3F4847"/>
<path d="M97.1665 44.766L98.0063 45.1621L105.395 40.9073L104.555 40.5112L97.1665 44.766Z" fill="#4D5758"/>
<path d="M104.555 40.5112V42.6952L97.1665 46.95V44.766L104.555 40.5112Z" fill="#232D2D"/>
<path d="M165 48.286L103.431 12.7202L98.4604 15.5605L160.018 51.1262L165 48.286Z" fill="#B4DAC5"/>
<path d="M160.018 51.1258L98.4607 15.5601L98.438 44.7663L160.007 80.332L160.018 51.1258Z" fill="#2D7D53"/>
<path d="M160.007 80.3322L164.978 77.4919L165 48.2856L160.018 51.1259L160.007 80.3322Z" fill="#57B789"/>
<path d="M135.232 84.1338L75.6489 49.7109L106.189 32.1147L159.95 69.8871L135.232 84.1338Z" fill="#2E543F"/>
<path d="M135.231 92.0999L75.6489 57.677V48.1265L135.231 82.5493V92.0999Z" fill="#2D7D53"/>
<path d="M159.949 67.1377V77.8538L135.231 92.1005V81.373L159.949 67.1377Z" fill="#57B789"/>
<path d="M107.347 66.4706L75.6489 48.1955V41.5757L107.347 59.8621V66.4706Z" fill="#2D7D53"/>
<path d="M107.347 59.8617L75.6489 41.5753L100.356 27.3286L132.065 45.615L107.347 59.8617Z" fill="#80C5A3"/>
<path d="M132.065 45.6147V52.2232L107.347 66.4699V59.8614L132.065 45.6147Z" fill="#2D7D53"/>
<path d="M135.231 82.6179L107.868 66.7418V60.1333L135.231 75.9981V82.6179Z" fill="#2D7D53"/>
<path d="M135.231 75.9977L107.868 60.1329L132.575 45.8862L159.949 61.7511L135.231 75.9977Z" fill="#80C5A3"/>
<path d="M160.823 59.0015V77.7292L135.231 82.6177V75.9979L160.823 59.0015Z" fill="#57B789"/>
<path d="M97.814 11.7919L103.023 8.40848H103.057C104.169 7.75216 105.599 7.65032 106.871 8.37453L130.17 21.7838C132.111 22.9041 133.246 25.0315 133.087 27.2607L131.43 45.5811L99.7093 27.3286L101.162 11.7919H97.814Z" fill="#B4DAC5"/>
<path d="M125.539 25.4501L130.896 22.3608L130.93 22.3835C131.327 22.7003 131.679 23.0624 132.008 23.4358C132.791 24.5222 133.188 25.8688 133.086 27.2606L131.429 45.581L126.333 48.8852L125.539 25.4501Z" fill="#3B795C"/>
<path d="M129.908 29.7049L134.425 26.842C134.698 26.5818 135.027 26.3894 135.378 26.2423L135.469 26.1857L135.492 26.197C136.309 25.8915 137.24 25.9028 138.091 26.3894L156.238 36.9131C156.669 37.1734 157.089 37.4563 157.475 37.7845C159.756 39.6403 161.005 42.5032 160.8 45.5132L159.348 60.9933L159.291 61.7514L159.234 61.7854L154.184 65.067L131.906 45.9092L133.29 31.3571L129.908 29.7049Z" fill="#B4DAC5"/>
<path d="M152.073 40.8514L154.196 65.0674L159.949 61.7631L160.801 45.5136C161.005 42.5149 159.757 39.652 157.475 37.7848L157.441 37.7622L152.073 40.8514Z" fill="#57B789"/>
<path d="M125.085 25.088L101.785 11.6787C96.3037 9.34766 95.6568 16.5332 95.4525 19.3169L94.624 30.6328L126.345 48.8853L128.002 30.5649C128.16 28.3357 127.026 26.2083 125.085 25.088Z" fill="#2D7D53"/>
<path d="M151.132 40.2285L132.996 29.7048C131.021 28.5732 128.536 29.8858 128.377 32.149L126.811 49.2246L154.196 65.0668L155.047 53.4454C155.308 49.9488 154.184 41.9825 151.132 40.2285Z" fill="#2D7D53"/>
<path d="M112.352 78.6567H111.966V78.8831H112.352V78.6567Z" fill="url(#paint0_linear)"/>
<path d="M101.798 71.9126H100.266V72.8179H101.798V71.9126Z" fill="url(#paint1_linear)"/>
<path d="M101.808 72.7841L100.298 71.9128C100.991 70.8151 101.74 69.4572 102.091 68.2351C102.466 66.9225 102.954 65.4288 103.283 64.1274L104.361 64.7498C104.191 65.7682 103.975 66.7867 103.805 67.8051C103.646 68.7217 103.385 69.6269 103.033 70.4983C102.943 70.6793 102.023 72.5238 101.808 72.7841Z" fill="#215937"/>
<path d="M104.361 64.7496L103.283 64.1273C103.522 63.1881 103.692 62.3507 103.692 61.7736C103.692 61.5473 103.669 61.3662 103.612 61.2304C103.851 60.7099 103.975 60.2912 104.044 60.1554C104.1 60.0309 104.69 59.5557 105.576 58.8428L106.45 59.3407C105.984 59.6801 105.53 60.0423 105.156 60.4723C105.042 60.608 104.929 60.7438 104.849 60.9023C104.69 61.2304 104.69 61.6038 104.679 61.9659C104.634 62.9052 104.509 63.8217 104.361 64.7496Z" fill="#215937"/>
<path d="M106.45 59.341L105.576 58.8431C108.209 56.7496 113.521 52.5967 116.017 49.2359C117.368 47.4254 117.992 45.6827 118.253 44.2456L118.809 44.5625C118.571 45.5696 118.333 46.5767 118.094 47.5838C117.992 48.0251 117.879 48.4664 117.697 48.8738C117.13 50.1072 115.961 50.888 114.996 51.782C113.906 52.7891 113.021 53.9659 111.92 54.9617C110.377 56.3762 108.743 57.6888 107.04 58.9223C106.836 59.0581 106.643 59.1939 106.45 59.341Z" fill="#3A8F64"/>
<path d="M94.6927 68.5071C94.6246 68.5071 94.5565 68.5071 94.4884 68.4844C94.3636 68.4505 94.2387 68.3826 94.1252 68.3034C93.6259 67.9865 93.1265 67.6584 92.6272 67.3415C92.5931 67.3189 92.5591 67.2963 92.5137 67.2736C93.2854 65.9157 94.4657 64.0599 95.3623 62.5889C95.3056 63.9355 95.158 66.3457 94.8175 67.9639C94.7721 68.1337 94.7381 68.3147 94.6927 68.5071Z" fill="#215937"/>
<path d="M133.688 27.0347H133.052V27.7136H133.688V27.0347Z" fill="url(#paint2_linear)"/>
<path d="M125.596 25.416C125.437 25.3029 125.255 25.1897 125.085 25.0879L122.94 23.8544C122.804 23.5829 122.645 23.2434 122.475 22.836C123.19 22.6889 123.927 22.6323 124.665 22.6323C124.756 22.6323 124.847 22.6323 124.937 22.6323C125.13 22.7342 125.346 22.836 125.562 22.9492C126.22 23.2773 126.992 23.6847 127.843 24.1373L125.596 25.416ZM133.097 27.1021C133.097 27.0795 133.097 27.0568 133.097 27.0342C133.097 27.0568 133.097 27.0795 133.097 27.1021ZM133.097 27.1247C133.097 27.1134 133.097 27.1134 133.097 27.1021C133.097 27.1021 133.097 27.1134 133.097 27.1247ZM133.097 27.136C133.097 27.1247 133.097 27.1247 133.097 27.136C133.097 27.1247 133.097 27.1247 133.097 27.136ZM133.097 27.1474C133.097 27.1474 133.097 27.136 133.097 27.1474C133.097 27.136 133.097 27.1474 133.097 27.1474Z" fill="#55AC7F"/>
<path d="M130.476 28.1205C129.522 27.1813 128.161 26.6607 126.81 26.5928C126.47 26.1515 126.061 25.7555 125.596 25.416L127.843 24.126C127.945 24.1826 128.058 24.2391 128.172 24.2957C128.388 24.4089 128.615 24.5333 128.83 24.6578H128.842C130.76 25.7102 131.713 26.3439 133.109 27.0228C133.109 27.0455 133.109 27.0681 133.109 27.0907C133.109 27.102 133.109 27.102 133.109 27.1134C133.109 27.1134 133.109 27.1134 133.109 27.1247C133.109 27.1247 133.109 27.1247 133.109 27.136V27.1473V27.1586V27.1699C133.109 27.1813 133.109 27.1813 133.109 27.1926V27.2039V27.2152V27.2265V27.2378L133.063 27.6905L132.553 28.0186C132.224 27.9847 131.906 27.9621 131.633 27.9621C131.157 27.9847 130.782 28.0299 130.476 28.1205Z" fill="#27563D"/>
<path d="M118.809 44.5512L118.253 44.2344C118.344 43.7138 118.4 43.2386 118.412 42.8086C118.605 42.6954 118.73 42.6275 118.73 42.6275C118.73 42.6275 119.195 41.032 119.921 37.6938C120.648 34.3669 123.315 24.6013 123.315 24.6013C123.315 24.6013 123.167 24.3411 122.929 23.8545L125.074 25.0879C125.255 25.1898 125.426 25.3029 125.584 25.4161C126.05 25.7556 126.458 26.1516 126.799 26.5929C126.697 26.5929 126.583 26.5816 126.481 26.5816C126.402 26.5816 126.311 26.5816 126.231 26.5929C125.494 26.6269 124.188 26.7174 123.598 27.2153C123.042 27.6906 122.815 28.8222 122.622 29.4785L119.615 40.8735C119.365 42.107 119.093 43.3291 118.809 44.5512Z" fill="#215937"/>
<path d="M129.908 65.0557L147.306 55.0525C148.475 54.3848 149.905 54.3848 151.074 55.0525L153.151 56.252C154.252 56.8857 154.922 58.0738 154.899 59.3412L154.127 62.1249L135.39 70.3741L129.908 65.0557Z" fill="#80C5A3"/>
<path d="M151.063 55.0525L153.14 56.252C153.344 56.3651 153.514 56.5235 153.684 56.6707L133.869 68.077L129.908 65.0557L147.306 55.0525C148.464 54.3848 149.894 54.3848 151.063 55.0525Z" fill="#B4DAC5"/>
<path d="M135.379 70.3627L155.399 58.2773L154.082 70.2382L135.379 80.977V70.3627Z" fill="#57B789"/>
<path d="M135.243 81.6902L129.637 75.557V65.8366C129.637 64.9427 130.601 64.3882 131.373 64.8408L133.813 66.244C134.789 66.7985 135.379 67.8395 135.379 68.9598L135.243 81.6902Z" fill="#2B7A53"/>
<path d="M76.0459 34.0498L93.444 24.0466C94.613 23.379 96.0429 23.379 97.2119 24.0466L99.2888 25.2461C100.39 25.8798 101.059 27.068 101.037 28.3353L100.265 31.119L81.5615 38.248L76.0459 34.0498Z" fill="#80C5A3"/>
<path d="M97.2006 24.0471L99.2774 25.2466C99.4817 25.3597 99.652 25.5181 99.8222 25.6652L80.0067 37.0603L76.0459 34.039L93.444 24.0358C94.6016 23.3794 96.043 23.3794 97.2006 24.0471Z" fill="#B4DAC5"/>
<path d="M81.5502 38.237L101.014 28.1206L100.957 34.2312L81.5161 44.8794L81.5502 38.237Z" fill="#57B789"/>
<path d="M81.517 48.7498L75.7744 44.5516V34.8313C75.7744 33.9373 76.7391 33.3828 77.5108 33.8355L79.9509 35.2386C80.9269 35.7931 81.517 36.8342 81.517 37.9544V48.7498Z" fill="#2B7A53"/>
<path d="M98.5742 72.8972C98.5742 72.8972 99.1871 75.0699 98.2791 76.6881C97.3712 78.3062 96.1909 81.5426 94.8404 83.1155C93.4898 84.6997 90.7774 84.3149 89.9035 83.8849C89.0297 83.4549 88.8254 80.7844 90.1532 79.0983C91.481 77.4123 93.0132 74.753 93.5352 73.7799C94.0459 72.8067 98.5742 72.8972 98.5742 72.8972Z" fill="#D7D8DA"/>
<path d="M82.9694 76.4731C82.9694 76.4731 81.5507 78.6231 81.1762 78.9852C80.8017 79.3474 76.9771 82.7082 77.7374 84.0548C78.407 85.2429 79.837 85.7974 81.1535 85.6503C82.5381 85.4919 83.412 84.3377 84.2064 83.3192C84.6036 82.81 85.0008 82.2555 85.5116 81.8368C86.1244 81.3389 86.567 80.6826 87.1799 80.1621C88.2013 79.2908 88.3715 78.476 88.3375 77.1521C88.3375 77.0163 88.3261 76.8579 88.2353 76.756C88.1672 76.6768 88.0651 76.6315 87.9629 76.5976C87.1912 76.3147 86.34 76.2015 85.5116 76.2015C84.6717 76.1902 83.7978 76.2921 82.9694 76.4731Z" fill="#BCC2C8"/>
<path d="M96.6102 60.3138C96.44 61.1625 92.116 67.4654 91.7528 68.846C91.3102 70.4981 90.4363 72.0936 89.7213 73.6212C89.1652 74.7981 88.9496 76.3597 88.0871 77.3668C87.8941 77.5931 87.6672 77.6836 87.4175 77.7289C87.1451 77.7855 86.8387 77.7855 86.5209 77.8534C85.2952 78.1023 83.1389 77.6044 82.6849 76.2465C82.5941 75.9749 82.7984 75.5449 82.8778 75.262C83.1729 74.1757 83.4567 73.0894 83.7517 72.0031C85.1477 66.8091 87.6104 60.178 87.6104 60.178L89.6192 55.7422C89.6192 55.7422 93.3076 57.6772 95.3278 59.0804C96.1222 59.6009 96.6556 60.0762 96.6102 60.3138Z" fill="#1E2C51"/>
<path d="M102.081 68.2355C101.332 70.8381 98.7781 74.0744 98.7781 74.0744C98.7781 74.0744 98.5965 74.4252 98.1539 74.8439C97.7227 75.2626 97.0304 75.7492 96.0089 76.0321C93.9321 76.6092 92.9106 74.6629 92.9106 74.6629C92.9106 74.6629 94.3066 70.2949 94.8059 67.9526C95.2826 65.7233 95.3734 61.9778 95.3847 61.6044V61.5704C95.3847 61.5704 100.628 60.6425 102.75 60.8575C103.227 60.9141 103.545 61.0159 103.613 61.197C103.999 62.2381 102.83 65.6215 102.081 68.2355Z" fill="#1D345E"/>
<path d="M107.279 42.9669C106.938 44.2003 106.518 45.3884 106.337 46.2145C106.269 46.5427 106.008 47.1424 105.622 47.9006C103.76 51.5669 98.8463 59.1146 96.5992 60.3141C96.2247 60.5178 95.8048 60.597 95.3735 60.5857C95.1579 60.5743 94.9309 60.5404 94.6926 60.4951C92.1617 59.8954 89.3472 56.6704 89.6082 55.7311C89.9373 54.5317 93.6939 47.3461 95.6345 43.7363C96.7694 41.6203 98.8463 39.391 100.378 37.8973C101.468 36.845 102.274 36.166 102.274 36.166C102.274 36.166 106.121 36.8563 107.335 38.5537C108.062 39.5155 107.755 41.2808 107.279 42.9669Z" fill="#29416E"/>
<path d="M87.4185 77.718C87.6908 76.3488 88.6101 74.9343 89.1095 73.7575C90.1309 71.3359 91.0161 68.7898 92.1851 66.4474C93.0022 64.5124 93.8193 62.5774 94.6365 60.6424C94.6592 60.5858 94.6819 60.5292 94.7046 60.4727C94.9315 60.5292 95.1585 60.5519 95.3855 60.5632C95.3401 60.9366 95.3401 61.2874 95.3855 61.5929C95.3855 61.6948 95.3742 62.0569 95.3515 62.5661C94.4549 64.0372 93.2746 65.893 92.5028 67.2509C92.4801 67.2848 92.4574 67.3187 92.4461 67.364C92.0829 68.009 91.8219 68.5295 91.7425 68.8238C91.2998 70.4759 90.426 72.0714 89.711 73.5991C89.1549 74.7759 88.9392 76.3375 88.0767 77.3446C87.8951 77.5822 87.6681 77.6728 87.4185 77.718Z" fill="#1A203F"/>
<path d="M95.3516 62.5889C95.3743 62.0797 95.3856 61.7176 95.3856 61.6157C95.4197 61.842 95.4764 62.0457 95.5672 62.2381C95.4991 62.3513 95.431 62.4757 95.3516 62.5889Z" fill="#1E254A"/>
<path d="M95.3846 60.5859C95.1689 60.5745 94.9419 60.5406 94.7036 60.4953C94.9079 60.0201 95.1122 59.5335 95.3165 59.0695C95.691 58.2208 96.0882 57.3835 96.5535 56.5687C97.1437 55.539 97.8133 54.5658 98.4261 53.5474C100.026 50.8882 101.184 47.9121 103.022 45.4565C102.659 47.1766 103.193 48.2968 103.193 48.2968C103.193 48.2968 100.968 52.2913 99.3 54.1132C97.643 55.9237 95.9974 57.474 95.5094 59.8164C95.4527 60.0766 95.4186 60.3369 95.3846 60.5859Z" fill="#1F2C54"/>
<path d="M116.018 49.2246C112.659 53.717 104.272 59.6466 104.034 60.1445C103.966 60.2802 103.841 60.6989 103.602 61.2195C103.296 61.8984 102.808 62.7358 102.07 63.3468C101.355 63.9239 100.402 64.2974 99.1308 64.0824C96.5773 63.6637 95.5785 62.8716 95.3856 61.6155C95.3402 61.2987 95.3402 60.9479 95.3856 60.5858C95.4197 60.3368 95.4537 60.0766 95.5105 59.7937C95.9985 57.4626 97.6441 55.9123 99.301 54.0905C100.969 52.2686 103.194 48.2741 103.194 48.2741C103.194 48.2741 102.331 46.4636 103.534 43.9401C103.807 43.363 104.158 42.7633 104.533 42.1862C105.793 40.2399 107.348 38.5425 107.348 38.5425C107.348 38.5425 117.755 38.7348 118.243 40.6812C118.243 40.6699 119.378 44.7323 116.018 49.2246Z" fill="#2E4B7A"/>
<path d="M98.1543 74.8435C99.3232 72.3314 100.379 69.7853 101.343 67.1827C101.627 66.4245 101.899 65.6664 102.013 64.8629C102.092 64.365 102.058 63.8445 102.07 63.3466C102.819 62.7356 103.307 61.8869 103.602 61.2192C103.659 61.355 103.681 61.5474 103.681 61.7624C103.681 62.3508 103.511 63.1769 103.273 64.1161C102.932 65.4174 102.456 66.9224 102.081 68.2238C101.729 69.4459 100.98 70.8038 100.288 71.9014C100.277 71.9127 100.277 71.924 100.265 71.9354C99.4821 73.1688 98.7785 74.0627 98.7785 74.0627C98.7785 74.0627 98.5969 74.4248 98.1543 74.8435Z" fill="#1E254A"/>
<path d="M104.544 42.1863C103.341 41.6205 102.263 40.7945 101.446 39.7534C101.105 39.3234 100.708 38.6445 100.39 37.8863C100.753 37.5355 101.082 37.23 101.355 36.9697C101.593 37.8637 102.297 39.9571 103.772 40.919C104.147 41.1566 104.555 41.349 104.998 41.5074C104.839 41.7337 104.691 41.96 104.544 42.1863Z" fill="#1F2C54"/>
<path d="M102.07 63.3472C102.081 62.9738 102.104 62.6004 102.217 62.227C102.365 61.7517 102.546 61.2991 102.739 60.8691C104.272 57.6327 107.347 55.5506 110.094 53.3553C113.135 50.9224 114.838 47.9124 116.302 44.4271C115.053 44.3819 113.771 44.3366 112.647 43.8161C112.068 43.5558 111.546 43.1598 110.922 43.0013C110.661 42.9334 110.4 42.9108 110.139 42.9108C109.685 42.9108 109.231 42.9787 108.777 43.0126C108.596 43.024 108.414 43.0353 108.232 43.0353C107.915 43.0353 107.597 43.0126 107.279 42.9787C106.326 42.8769 105.406 42.6053 104.544 42.2092C104.691 41.9829 104.839 41.7566 104.998 41.5303C106.303 41.9942 107.835 42.1187 109.072 42.1187C109.56 42.1187 110.003 42.0961 110.366 42.0734C110.423 42.0734 110.479 42.0621 110.536 42.0621C112.102 42.0621 113.907 43.4653 115.484 43.5898C115.575 43.6011 115.666 43.6011 115.757 43.6011C116.858 43.6011 117.924 43.1032 118.424 42.8203C118.401 43.2503 118.356 43.7255 118.265 44.2461C118.004 45.6832 117.38 47.4258 116.029 49.2364C113.521 52.5859 108.21 56.7501 105.588 58.8435C104.691 59.5564 104.113 60.0317 104.056 60.1562C103.988 60.292 103.863 60.7107 103.625 61.2312C103.307 61.8988 102.819 62.7362 102.07 63.3472Z" fill="#20305C"/>
<path d="M103.125 24.4199C102.693 25.5741 100.446 28.0297 98.5281 30.0326C98.3239 30.2476 98.0969 30.406 97.8812 30.5079C97.5294 30.6663 97.1776 30.6889 96.8258 30.6323C95.3391 30.3834 93.9658 28.5389 93.9658 28.1881C93.9658 27.8939 94.6581 27.1584 95.3277 26.4907H95.3391C95.793 26.0268 96.2356 25.5968 96.474 25.3705C96.8371 25.0083 97.8359 23.6504 98.5168 22.7112C98.9027 22.1794 99.1864 21.7833 99.1864 21.7833C100.855 20.946 103.556 23.2657 103.125 24.4199Z" fill="#EBBA95"/>
<path d="M97.8812 30.4971C97.8358 30.7121 97.6542 30.9724 97.2683 31.3119C97.2683 31.3119 96.3717 31.9116 95.0326 32.4774C93.6934 33.0545 92.5812 34.1974 92.5812 34.1974L92.3996 33.9372L90.5156 31.1082C90.5156 31.1082 91.6278 29.8408 92.0931 29.6145C92.5585 29.3882 93.16 27.4532 94.2268 26.9779C94.7375 26.7516 95.0553 26.5253 95.339 26.48H95.3503C95.6568 26.4234 95.8951 26.5705 96.2582 27.1363C96.9505 28.234 96.9278 29.2637 97.4159 29.6711C97.5974 29.8182 97.7563 29.954 97.8471 30.1237C97.8925 30.2142 97.9152 30.35 97.8812 30.4971Z" fill="#FAC9A6"/>
<path d="M97.8814 30.4965C97.9155 30.3494 97.8928 30.2136 97.8247 30.1004C97.8928 30.0665 97.9495 30.0212 98.0176 29.976C98.3695 29.727 98.6532 29.3875 98.9142 29.0367C99.7994 27.8712 100.469 26.4907 101.649 25.6307C100.571 25.5062 99.7654 24.6122 99.0731 23.7862C98.8348 23.492 98.5283 23.0846 98.4943 22.6772C98.8802 22.1454 99.1639 21.7493 99.1639 21.7493C99.4022 21.6362 99.6746 21.5796 99.947 21.5796C101.422 21.5796 103.17 23.1185 103.17 24.137C103.17 24.2275 103.159 24.3293 103.125 24.4086C102.693 25.5628 100.446 28.0183 98.5283 30.0212C98.3241 30.2475 98.0971 30.3946 97.8814 30.4965Z" fill="#E49F71"/>
<path d="M92.581 34.1968L92.3994 33.9366C92.7626 33.3595 93.33 32.9408 93.8861 32.5334C94.8281 31.8431 95.7814 31.1529 96.8255 30.6323L96.8596 30.6097C97.1887 30.4513 97.5178 30.3042 97.8243 30.1118C97.881 30.225 97.915 30.3494 97.881 30.5079C97.8356 30.7229 97.654 30.9831 97.2681 31.3226C97.2681 31.3226 96.3716 31.9224 95.0324 32.4881C93.6932 33.0426 92.581 34.1968 92.581 34.1968Z" fill="#F3AC7D"/>
<path d="M103.648 14.3945C103.648 14.3945 101.537 16.4653 100.629 18.5474C99.7209 20.6295 98.3931 22.6664 98.3931 22.6664C98.3931 22.6664 100.844 24.3298 101.809 24.9975C102.774 25.6538 105.77 23.7867 105.77 23.7867C105.77 23.7867 106.894 14.2587 103.648 14.3945Z" fill="#E2EDED"/>
<path d="M105.769 23.7865C105.769 23.7865 106.098 21.0028 105.894 18.468C105.792 18.3775 105.69 18.2757 105.61 18.1625C105.304 17.7099 104.782 17.3364 104.249 17.4383C103.182 17.642 102.977 18.9433 102.921 19.8259C102.887 20.437 102.943 21.0594 102.898 21.6704C102.819 22.8473 102.376 23.9449 101.911 25.0425C102.955 25.5404 105.769 23.7865 105.769 23.7865Z" fill="#A2C0BC"/>
<path d="M91.9696 31.2548C91.9696 31.2548 93.0477 31.9564 93.2634 32.9861C93.479 34.0159 93.1499 34.4798 93.1499 34.4798C93.1499 34.4798 90.9255 35.419 90.1764 35.4983C89.4274 35.5775 89.0642 35.5322 88.5989 35.0117C88.1336 34.4911 87.9293 33.8688 88.633 32.8503C89.3366 31.8319 91.0503 30.9153 91.1638 30.9606C91.2659 31.0059 91.6064 30.9606 91.9696 31.2548Z" fill="#F7E0CB"/>
<path d="M91.9341 36.166C91.9341 36.166 92.9215 36.1208 93.0463 35.4984C93.1711 34.876 93.0917 33.62 93.1371 33.4616C93.1825 33.3031 92.581 33.0768 92.4561 33.5408C92.354 34.0047 91.9341 36.166 91.9341 36.166Z" fill="#F2C8A3"/>
<path d="M90.7432 36.1098C90.7432 36.1098 91.0723 36.687 91.5036 36.5964C91.9348 36.5059 92.3434 36.1664 92.4228 35.6346C92.5136 35.1027 92.4569 33.6543 92.4682 33.5298C92.4796 33.4167 92.4115 33.0772 92.1845 33.0546C91.9575 33.0319 91.7305 33.0206 91.5943 33.609C91.4582 34.2088 90.7432 36.1098 90.7432 36.1098Z" fill="#F5D1B1"/>
<path d="M91.0033 33.2921C91.0033 33.2921 91.3552 32.8961 91.6389 33.1903C91.9113 33.4845 91.7751 33.6769 91.7978 34.1408C91.8205 34.5934 91.48 35.3856 91.2303 35.8721C90.992 36.3587 90.8104 36.4379 90.538 36.4492C90.277 36.4719 89.2329 36.3927 89.2442 36.1777C89.2442 35.974 90.4699 34.6387 90.4699 34.6387C90.4699 34.6387 91.0147 33.7561 91.0033 33.2921Z" fill="#F7E1CD"/>
<path d="M90.7197 34.163C90.7197 34.163 90.7424 34.7627 90.5041 35.2267C90.2657 35.6906 90.2203 35.8491 89.6756 36.2112C89.1308 36.5733 88.8698 36.5846 88.5634 36.2564C88.2683 35.917 87.9732 35.3172 87.9392 35.0117C87.9051 34.7062 87.8257 33.8235 87.8257 33.8235L89.1195 32.8164C89.1195 32.8164 89.1308 34.6722 89.2216 34.808C89.3011 34.9438 89.4259 34.7967 89.4259 34.7967C89.4259 34.7967 90.2544 33.6651 90.7197 34.163Z" fill="#F6C097"/>
<path d="M92.2749 33.7896L87.4175 37.7614L85.0796 36.6412V35.6793L92.2749 33.7896Z" fill="#321918"/>
<path d="M92.2749 32.8281L87.4175 36.8L85.0796 35.6797L90.164 31.855L92.2749 32.8281Z" fill="#614D52"/>
<path d="M91.299 30.8929C91.299 30.8929 90.7315 30.7572 90.3116 30.8816C89.8917 31.0174 88.9951 31.1758 88.8703 31.4587C88.7568 31.7303 87.8375 32.5677 87.8262 32.7601C87.8148 32.9524 87.8375 33.4956 87.7468 33.8238C87.656 34.1406 87.7808 34.4574 88.2575 34.2311C88.7455 34.0048 88.9157 33.4956 88.9497 33.3938C88.9724 33.2919 88.9951 33.1448 88.9951 33.1448C88.9951 33.1448 90.2322 32.5451 90.4251 32.2169C90.4705 32.1377 92.048 32.4545 91.9799 31.7077C91.9119 30.9608 91.299 30.8929 91.299 30.8929Z" fill="#F9D6BC"/>
<path d="M121.534 13.9079C121.534 13.9079 120.104 15.7863 121.126 19.1697C122.147 22.5645 123.316 24.6014 123.316 24.6014C123.316 24.6014 120.649 34.3669 119.923 37.6938C119.196 41.0207 118.731 42.6275 118.731 42.6275C118.731 42.6275 117.108 43.7138 115.485 43.5894C113.851 43.4649 111.978 41.9599 110.367 42.0617C108.755 42.1749 105.668 42.1636 103.773 40.9301C101.877 39.6967 101.265 36.5735 101.265 36.5735C101.265 36.5735 103.194 34.5367 104.057 33.0882C104.919 31.6398 104.851 26.7627 104.579 26.31C104.318 25.8574 103.614 24.8277 103.455 22.2929C103.296 19.7469 103.637 14.4058 103.637 14.4058C103.637 14.4058 107.802 13.1271 110.594 13.3873C113.385 13.6363 116.779 12.7876 116.779 12.7876L121.534 13.9079Z" fill="#EFF8F8"/>
<path d="M120.762 17.0532C120.717 17.1098 120.671 17.1551 120.626 17.2116C119.423 18.694 119.865 20.8327 119.831 22.7451C119.809 24.0012 119.57 25.2459 119.321 26.4793C118.265 31.7412 117.198 37.0597 114.963 41.9368C114.758 42.3894 114.531 42.8534 114.327 43.306C114.724 43.4418 115.11 43.5436 115.485 43.5776C117.119 43.7021 118.731 42.6157 118.731 42.6157C118.731 42.6157 119.196 41.0202 119.922 37.682C120.649 34.3552 123.316 24.5896 123.316 24.5896C123.316 24.5896 122.147 22.5527 121.125 19.158C120.887 18.3772 120.785 17.6756 120.762 17.0532Z" fill="#C9DBD9"/>
<path d="M120.682 14.7566C120.807 14.7793 120.943 14.7906 121.068 14.8359C121.283 14.2248 121.522 13.908 121.522 13.908L116.778 12.7764C116.778 12.7764 113.384 13.6251 110.592 13.3761C107.801 13.1158 103.635 14.3945 103.635 14.3945C103.635 14.3945 103.624 14.5303 103.613 14.768C109.242 13.9306 115.166 14.0211 120.682 14.7566Z" fill="#DDEEEA"/>
<path d="M111.478 20.245C111.07 20.245 110.843 19.996 110.661 19.815L110.548 19.6905C109.923 19.0908 108.539 16.9634 108.573 15.7413C108.573 15.5715 108.573 15.3792 108.573 15.1755C108.573 14.0213 108.573 12.8218 109.299 12.3352C109.401 12.256 109.572 12.1881 109.867 12.0976C110.491 11.8939 111.648 11.6223 112.897 11.5091C113.271 11.4752 113.623 11.4639 113.964 11.4639C115.587 11.4639 116.744 11.8373 117.391 12.5841L117.539 12.7539V12.7765C117.675 12.9689 117.777 13.1726 117.845 13.3876L117.913 13.5912L117.834 13.7949C117.811 13.8515 117.198 15.2999 115.916 16.8389C115.36 17.5065 114.758 18.1063 114.1 18.6042C112.398 19.9394 111.978 20.245 111.478 20.245Z" fill="white"/>
<path d="M117.289 13.2857C117.289 13.2857 116.71 14.6888 115.473 16.1825C114.997 16.7596 114.429 17.3368 113.748 17.8573C111.32 19.7583 111.535 19.5547 110.968 19.0002C110.4 18.4457 109.152 16.4654 109.175 15.4923C109.209 14.5191 109.072 12.9349 109.651 12.5501C109.719 12.5049 109.867 12.4483 110.071 12.3804C110.673 12.188 111.785 11.9278 112.965 11.8146C114.52 11.6788 116.188 11.8033 116.96 12.6859V12.6972C117.096 12.867 117.21 13.0594 117.289 13.2857Z" fill="#F8B685"/>
<path d="M116.949 12.6972C116.926 12.9801 116.915 13.1837 116.915 13.1837C116.915 13.1837 116.688 14.0664 115.621 15.3903C115.473 15.5714 115.326 15.7298 115.178 15.8882C114.179 16.9067 113.01 17.5064 112.034 17.4838C110.922 17.4498 110.377 16.4314 110.219 15.6053C110.06 14.768 109.345 13.2743 109.345 13.2743C109.345 13.2743 109.549 13.1951 109.889 13.0593C110.582 12.7764 111.819 12.2785 112.954 11.8145C113.907 11.4185 114.792 11.0337 115.224 10.8074C116.427 10.185 116.869 11.0337 116.96 11.3166C117.005 11.509 116.971 12.2106 116.949 12.6972Z" fill="#FAC9A6"/>
<path d="M109.889 13.0709C109.923 12.8672 109.968 12.6635 110.036 12.4712L110.07 12.392C110.672 12.1996 111.784 11.9393 112.964 11.8262C111.818 12.3014 110.581 12.7993 109.889 13.0709ZM115.461 16.1828C115.359 16.0922 115.268 16.0017 115.177 15.8999C115.336 15.7415 115.484 15.5717 115.62 15.402C116.687 14.078 116.914 13.1954 116.914 13.1954C116.914 13.1954 116.925 12.9917 116.948 12.7088C117.095 12.8785 117.209 13.0709 117.277 13.2972C117.288 13.2859 116.698 14.6891 115.461 16.1828Z" fill="#EA9660"/>
<path d="M115.178 15.8998C114.837 15.549 114.519 15.1643 114.213 14.7909C113.566 14.938 112.908 15.0172 112.25 15.0172C111.852 15.0172 111.444 14.9946 111.047 14.938C110.797 14.904 110.536 14.8474 110.298 14.7569C109.991 14.6324 109.9 14.5419 109.866 14.2138C109.821 13.8403 109.821 13.4556 109.878 13.0822C110.57 12.7993 111.807 12.3014 112.942 11.8374C113.895 11.4414 114.78 11.0566 115.212 10.8303C115.518 10.6719 115.779 10.604 115.995 10.604C116.619 10.604 116.88 11.1245 116.948 11.3395C116.971 11.4074 116.982 11.5772 116.982 11.7695C116.982 12.0524 116.971 12.4145 116.948 12.6974V12.7088C116.925 12.9916 116.914 13.1953 116.914 13.1953C116.914 13.1953 116.687 14.078 115.62 15.4019C115.484 15.5717 115.336 15.7414 115.178 15.8998Z" fill="#EAA67A"/>
<path d="M123.372 21.8744C123.372 21.8744 125.801 23.006 128.842 24.6694C131.873 26.3328 132.508 26.9552 136.242 28.3584C139.987 29.7615 144.164 30.8026 144.164 30.8026C144.164 30.8026 143.993 31.3571 144.447 32.6131C144.901 33.8579 145.775 35.1592 146.206 35.5326C146.638 35.9174 147.114 36.1437 147.16 36.121C147.205 36.0984 147.353 35.94 147.353 35.94C147.353 35.94 147.489 37.3205 147.512 37.5468C147.534 37.7732 147.477 38.6219 147.625 38.8595C147.773 39.0971 147.773 39.0971 147.773 39.0971C147.773 39.0971 147.466 39.7195 147.568 39.9458C147.659 40.1721 148.192 40.5682 148.431 40.274C148.669 39.9798 148.987 39.1537 149.1 38.7803C149.214 38.4068 149.237 37.2979 149.293 36.585C149.339 35.8721 149.259 34.2087 149.18 33.9597C149.1 33.7108 147.795 30.7573 147.001 29.6936C146.206 28.6186 140.861 25.3936 140.362 25.0428C139.874 24.692 136.673 22.4062 134.415 21.5462C132.156 20.6862 128.854 18.4796 128.411 18.242C127.946 17.993 122.237 18.9096 123.372 21.8744Z" fill="#FAC9A6"/>
<path d="M143.346 30.576C142.563 30.3723 141.303 30.0215 139.862 29.5688C141.303 30.0215 142.563 30.3723 143.346 30.576Z" fill="#4D9563"/>
<path d="M128.83 24.6692L128.819 24.6582L128.83 24.6692Z" fill="#294B31"/>
<path d="M127.831 24.1262C126.98 23.6735 126.209 23.2775 125.55 22.938C126.209 23.2775 126.992 23.6735 127.831 24.1262Z" fill="#4D9563"/>
<path d="M128.161 24.3069C128.047 24.2504 127.945 24.1938 127.832 24.1372C127.945 24.1825 128.047 24.239 128.161 24.3069Z" fill="#294B31"/>
<path d="M130.487 18.2305H128.399V19.5092H130.487V18.2305Z" fill="url(#paint3_linear)"/>
<path d="M133.983 27.4415C132.042 26.5815 131.134 25.9252 128.83 24.6578H128.819C128.592 24.5333 128.376 24.4202 128.161 24.2957C128.047 24.2391 127.945 24.1826 127.831 24.126C126.992 23.6733 126.209 23.2773 125.55 22.9378C125.686 22.3833 125.868 21.8402 126.061 21.3083C126.424 20.3352 126.867 19.3846 127.525 18.5812C127.639 18.4341 127.786 18.3209 127.911 18.1851C127.99 18.1851 128.058 18.1738 128.115 18.1738C128.251 18.1738 128.342 18.1851 128.388 18.2078C128.626 18.3436 129.443 18.8641 130.464 19.4752C130.215 19.6562 129.897 19.8373 129.727 20.0749C129.488 20.4031 129.398 20.9575 129.295 21.331C129.239 21.546 128.671 23.9223 128.705 23.9223C129.193 24.0015 129.681 24.1373 130.147 24.307C130.839 24.556 131.497 24.8841 132.167 25.201C133.143 25.6762 134.13 26.1515 135.106 26.6268C135.186 26.6607 135.265 26.706 135.345 26.7399C135.333 26.7739 135.322 26.7965 135.31 26.8305C134.959 27.0002 134.482 27.2039 133.983 27.4415ZM143.993 30.7458C143.856 30.7118 143.629 30.6552 143.346 30.576C142.563 30.3723 141.303 30.0215 139.861 29.5689C139.839 29.4784 139.805 29.3878 139.782 29.3086C140.077 29.4105 140.372 29.4897 140.667 29.5689C141.802 29.8857 142.948 30.2026 144.083 30.5194C144.061 30.61 144.027 30.6779 143.993 30.7458Z" fill="#F3AC7D"/>
<path d="M126.856 24.8279C126.856 24.8279 125.869 23.9113 125.074 24.1829C124.269 24.4545 123.327 24.5903 123.327 24.5903C123.327 24.5903 120.535 21.3426 120.433 19.0681C120.331 16.805 120.387 14.157 121.534 13.8968C122.691 13.6365 126.368 16.5447 127.946 17.4386C129.512 18.3439 130.522 18.921 130.522 18.921C130.522 18.921 128.593 21.1276 128.343 22.2026C128.105 23.2889 127.798 24.3187 126.856 24.8279Z" fill="#E2EDED"/>
<path d="M127.071 24.6808C126.991 24.545 126.9 24.4092 126.719 24.3073C126.265 24.0357 125.731 24.0357 125.346 23.6171C124.755 22.9607 124.665 22.7571 123.757 22.576C123.598 22.5421 122.19 22.2705 121.578 22.146C122.383 23.5039 123.325 24.6015 123.325 24.6015C123.325 24.6015 124.279 24.4657 125.073 24.1942C125.879 23.9226 126.855 24.8392 126.855 24.8392C126.934 24.7826 127.002 24.7373 127.071 24.6808Z" fill="#A2C0BC"/>
<path d="M112.034 1.73206C112.034 1.73206 110.456 2.64864 110.036 4.52707C109.616 6.40551 109.719 6.62051 109.435 7.45788C109.151 8.29525 108.788 9.17789 108.743 10.8074C108.697 12.4369 108.493 13.4553 109.038 13.9984C109.582 14.5416 110.661 14.8698 112.794 14.4963C114.928 14.1116 116.21 12.7198 116.562 11.8032C116.903 10.8979 118.389 7.6163 118.389 7.6163C118.389 7.6163 120.046 4.87787 118.378 4.02918C116.698 3.1918 114.474 1.39258 112.034 1.73206Z" fill="#F9D6BC"/>
<path d="M112.295 5.1947C112.59 5.11549 112.896 5.12681 113.203 5.14944C114.213 5.25128 115.211 5.55681 116.085 6.06602L116.176 6.15655L116.153 6.28103C115.972 6.66576 115.62 6.99392 115.62 7.41261C115.62 7.67288 115.767 7.92182 115.779 8.18209C115.79 8.37446 115.733 8.55551 115.688 8.74788C115.529 9.30236 115.359 9.86815 115.2 10.4226C114.803 11.7692 114.394 13.1498 113.6 14.304C115.257 13.7608 116.267 12.6066 116.562 11.8145C116.902 10.9092 118.389 7.62761 118.389 7.62761C118.389 7.62761 120.046 4.88917 118.378 4.04048C116.709 3.1918 114.474 1.39257 112.045 1.73205C112.045 1.73205 110.467 2.64863 110.048 4.52707C109.9 5.20602 109.809 5.65865 109.752 6.00944C109.866 5.54549 109.889 4.96839 110.275 4.67417C110.501 4.50444 110.853 4.4818 111.035 4.69681C110.74 5.20602 110.683 5.83971 110.876 6.39418C111.251 5.89629 111.682 5.36444 112.295 5.1947Z" fill="#EDC1A0"/>
<path d="M116.425 5.52262L113.225 4.54946C113.225 4.54946 111.715 4.57209 111.182 5.46604C110.649 6.35999 110.649 6.35999 110.649 6.35999C110.649 6.35999 110.955 4.8663 111.273 4.63998C111.579 4.41367 111.579 4.41367 111.579 4.41367L110.354 4.32314C110.354 4.32314 110.036 4.53814 109.922 5.09262C109.809 5.6471 109.809 5.6471 109.809 5.6471C109.809 5.6471 109.57 4.51551 109.763 3.81393C109.956 3.11234 111.591 -0.327677 114.802 0.0344309C118.014 0.396538 118.752 1.48286 118.99 1.91286C119.229 2.34287 119.353 2.44471 119.353 2.44471C119.353 2.44471 121.669 4.06288 120.568 6.95973C119.467 9.85659 118.468 11.1805 117.799 12.1537C117.14 13.1382 117.14 13.1382 117.14 13.1382L116.698 13.24L117.299 10.0603L116.334 11.9048L115.79 12.0632C115.79 12.0632 116.641 9.91317 116.596 9.49449C116.55 9.08712 116.119 8.13658 116.232 7.37842C116.357 6.63158 116.698 5.45473 116.425 5.52262Z" fill="#A34822"/>
<path d="M117.141 13.139C117.141 13.139 117.141 13.139 117.799 12.1546C118.457 11.1701 119.468 9.84612 120.568 6.96058C121.181 5.35373 120.739 4.14293 120.228 3.38477C119.751 3.81477 119.275 4.23345 118.809 4.66346C118.526 4.91241 118.242 5.17267 117.89 5.30846C117.425 5.48952 116.959 5.52346 116.517 5.61399C116.596 5.86294 116.347 6.77952 116.244 7.4019C116.131 8.14874 116.562 9.09927 116.608 9.51796C116.653 9.92533 115.802 12.0867 115.802 12.0867L116.347 11.9282L117.311 10.0838L116.71 13.2635L117.141 13.139Z" fill="#833613"/>
<path d="M118.015 9.28007C118.015 9.28007 118.741 8.96323 119.036 9.48376C119.331 10.0156 118.673 10.638 118.253 11.0793C117.833 11.5319 117.027 12.1317 116.687 12.0072C116.347 11.894 116.483 11.3848 116.766 10.9661C117.039 10.5588 117.584 9.49508 118.015 9.28007Z" fill="#F9D6BC"/>
<path d="M121.963 65.2476C123.393 65.1119 125.028 64.8968 126.094 64.614C128.398 64.0029 135.14 62.2376 137.387 59.0579C138.022 58.1526 138.408 57.1002 138.624 56.0479C138.408 57.0889 138.034 58.1526 137.387 59.0579C135.128 62.2376 128.398 64.0029 126.094 64.614C125.028 64.8968 123.393 65.1119 121.963 65.2476Z" fill="#3D542D"/>
<path d="M120.761 61.5703C120.716 61.4458 120.58 61.129 120.398 60.7329C120.58 61.129 120.704 61.4458 120.761 61.5703ZM120.92 64.6143C120.954 64.2521 120.965 63.9127 120.965 63.5958C120.965 63.9127 120.954 64.2521 120.92 64.6143ZM120.829 65.3498C120.841 65.3045 120.841 65.2593 120.852 65.214C120.852 65.2593 120.841 65.3045 120.829 65.3498Z" fill="#902413"/>
<path d="M120.829 65.3497C120.84 65.3044 120.84 65.2591 120.851 65.2139C120.851 65.2591 120.84 65.3044 120.829 65.3497Z" fill="#841B11"/>
<path d="M120.966 63.5963C120.966 62.4082 120.784 61.6274 120.784 61.6274C120.784 61.6274 120.773 61.6047 120.761 61.5708C120.773 61.6047 120.784 61.6274 120.784 61.6274C120.784 61.6274 120.966 62.4082 120.966 63.5963Z" fill="#982315"/>
<path d="M130.612 30.5648C130.544 29.784 130.271 29.4785 130.271 29.4785C130.271 29.4785 130.544 29.7727 130.612 30.5648Z" fill="#EA9660"/>
<path d="M132.769 28.0643C133.177 27.8493 133.586 27.6343 133.994 27.4419C133.586 27.6343 133.166 27.8493 132.769 28.0643Z" fill="#4C9061"/>
<path d="M133.984 27.4418C134.483 27.2041 134.96 27.0005 135.334 26.876C134.96 27.0005 134.483 27.2041 133.984 27.4418Z" fill="#E38C59"/>
<path d="M131.815 28.5845C132.111 28.4148 132.428 28.245 132.757 28.064C132.44 28.245 132.111 28.4148 131.815 28.5845Z" fill="#E98E00"/>
<path d="M130.271 29.4784C130.328 29.4445 130.964 29.0597 131.815 28.5845C130.975 29.0597 130.328 29.4445 130.271 29.4784Z" fill="#EA9660"/>
<path d="M136.264 26.9435C136.264 26.7964 136.161 26.7285 135.991 26.7285C135.832 26.7285 135.605 26.7738 135.344 26.8643C135.605 26.7738 135.832 26.7285 135.991 26.7285C136.161 26.7398 136.264 26.7964 136.264 26.9435Z" fill="#C24C18"/>
<path d="M92.2759 32.8281V33.79L87.4185 37.7618V36.8L92.2759 32.8281Z" fill="#4A2B2D"/>
<path d="M86.0559 35.5776L85.5225 35.8832V36.6753L86.8163 37.2863L86.8503 36.5282L87.3043 36.1774L86.0559 35.5776Z" fill="#532F1C"/>
<path d="M86.8503 36.5282L85.5225 35.8832L86.0559 35.5776L87.3043 36.1774L86.8503 36.5282Z" fill="#816454"/>
<path d="M69.1802 124L77.4196 119.066V103.801L69.1802 108.746V124Z" fill="#A36C19"/>
<path d="M20.0952 80.5474V95.869L69.1799 124V108.746L20.0952 80.5474Z" fill="#774214"/>
<path d="M68.7598 110.726L78.1908 105.08V102.488L68.7598 108.135V110.726Z" fill="#E7C052"/>
<path d="M68.7597 108.135L78.1908 102.489L28.4479 73.9727L18.8579 79.5287L68.7597 108.135Z" fill="#EADD78"/>
<path d="M18.8579 79.5283L68.7597 108.135V110.726L18.8579 82.1762V79.5283Z" fill="#E69A36"/>
<path d="M73.1635 102.239L56.1739 92.3604C56.4803 91.9983 56.6619 91.5457 56.6619 90.9459C56.6619 88.0264 46.1527 81.9951 40.9662 81.9951C40.0242 81.9951 39.2638 82.0517 38.6283 82.1648L27.8921 75.9185L24.5781 77.9327L36.1428 84.6543C36.1428 85.2314 36.2677 85.8764 36.4265 86.6119C37.0621 89.5201 42.2373 93.6278 47.4124 93.6278C48.8992 93.6278 50.2951 93.6504 51.5322 93.6051L69.8495 104.253L73.1635 102.239Z" fill="#D6B252"/>
<path d="M58.7733 83.5342H37.9023V96.4795H58.7733V83.5342Z" fill="url(#paint4_linear)"/>
<path d="M58.7835 91.4782C58.7835 88.5587 48.2743 82.5273 43.0878 82.5273C37.9126 82.5273 37.9353 84.2926 38.5595 87.1442C39.195 90.0524 47.2756 95.484 52.4507 95.484C57.6259 95.4727 58.7835 94.3977 58.7835 91.4782Z" fill="#8A8584"/>
<path d="M50.8735 77.8084V91.5571L53.1093 90.55V76.8013L50.8735 77.8084Z" fill="#63646F"/>
<path d="M50.8734 77.8083L43.644 73.7007V87.4494L50.8734 91.5571V77.8083Z" fill="#424147"/>
<path d="M50.8734 77.8086L43.644 73.701L45.8798 72.6938L53.1092 76.8015L50.8734 77.8086Z" fill="#848492"/>
<path d="M28.1865 32.3188V71.4378L73.4579 97.7471V58.6282L28.1865 32.3188Z" fill="#65656D"/>
<path d="M31.2623 68.2015L65.6953 88.2532L71.1088 94.6353L30.2635 69.3783L30.2295 36.0645L31.2623 44.0534V68.2015Z" fill="#39393A"/>
<path d="M71.1096 59.5564V94.6355L31.263 44.0536L30.2529 35.7817L71.1096 59.5564Z" fill="#9398A3"/>
<path d="M73.459 58.6393V97.7469L76.2622 96.2985V57.1909L73.459 58.6393Z" fill="#9C9998"/>
<path d="M28.1865 32.3189L73.4579 58.6396L76.2612 57.1912L30.9897 30.8818L28.1865 32.3189Z" fill="#BDB9B9"/>
<path d="M65.6953 64.1054V88.2534L31.2622 68.2017V44.0537L65.6953 64.1054Z" fill="#57575D"/>
<path d="M52.8028 80.9769L42.146 74.7871V80.4111L52.8028 86.6009V80.9769Z" fill="#57575D"/>
<path d="M64.6976 57.4739L61.3155 60.201L36.166 45.6036L36.654 41.1338L64.6976 57.4739Z" fill="#737781"/>
<path d="M71.1088 59.5557L65.6953 64.1046V88.2527L71.1088 94.6348V59.5557Z" fill="#838690"/>
<path d="M52.8032 86.601L55.4249 85.2544L54.7099 82.0973L52.8032 80.9771V86.601Z" fill="#5F6068"/>
<path fill-rule="evenodd" clip-rule="evenodd" d="M108.811 9.61879C109.469 9.60747 109.685 9.4151 110.581 9.57352C111.796 9.96958 113.146 11.3614 114.338 11.6896C114.451 12.3006 114.383 13.0588 113.986 14.1338C112.794 14.643 110.241 14.9938 109.083 14.0433C108.414 13.4888 108.652 10.7391 108.811 9.61879Z" fill="#FFFBDC"/>
<path fill-rule="evenodd" clip-rule="evenodd" d="M114.338 11.69L117.754 9.4834L117.311 10.0718L114.202 12.2445L114.338 11.69Z" fill="#FFFBDC"/>
<path fill-rule="evenodd" clip-rule="evenodd" d="M114.168 13.5342C115.03 13.206 115.791 12.6742 116.483 11.9839C116.415 12.1423 116.324 12.3234 116.199 12.4592C115.53 13.0702 114.781 13.5002 114.009 13.8623C114.066 13.7605 114.111 13.6473 114.168 13.5342Z" fill="#FFFBDC"/>
</g>
<defs>
<linearGradient id="paint0_linear" x1="-3.30765" y1="78.7676" x2="168.753" y2="78.7676" gradientUnits="userSpaceOnUse">
<stop stop-color="#6F3F13"/>
<stop offset="1" stop-color="#715E1D"/>
</linearGradient>
<linearGradient id="paint1_linear" x1="-3.30919" y1="72.3642" x2="168.755" y2="72.3642" gradientUnits="userSpaceOnUse">
<stop stop-color="#6F3F13"/>
<stop offset="1" stop-color="#715E1D"/>
</linearGradient>
<linearGradient id="paint2_linear" x1="-3.30695" y1="27.3728" x2="168.753" y2="27.3728" gradientUnits="userSpaceOnUse">
<stop stop-color="#7E3F14"/>
<stop offset="1" stop-color="#8C701E"/>
</linearGradient>
<linearGradient id="paint3_linear" x1="-3.30962" y1="18.8689" x2="168.753" y2="18.8689" gradientUnits="userSpaceOnUse">
<stop stop-color="#CC4217"/>
<stop offset="1" stop-color="#E58305"/>
</linearGradient>
<linearGradient id="paint4_linear" x1="38.6258" y1="90.0032" x2="58.7818" y2="90.0032" gradientUnits="userSpaceOnUse">
<stop stop-color="#292623"/>
<stop offset="0.13" stop-color="#373431"/>
<stop offset="0.44" stop-color="#2B2825"/>
<stop offset="0.84" stop-color="#12100B"/>
<stop offset="1" stop-color="#12100B"/>
</linearGradient>
<clipPath id="clip0">
<rect width="165" height="140" fill="white"/>
</clipPath>
</defs>
</svg>
