<svg width="138" height="128" viewBox="0 0 138 128" fill="none" xmlns="http://www.w3.org/2000/svg">
<path d="M37.7316 123.832L0.849464 102.538V101.476L83.4932 96.3495V97.4107L37.7316 123.832Z" fill="#217FD5"/>
<path d="M37.7316 122.77L0.849464 101.476L46.611 75.0555L83.4932 96.3495L37.7316 122.77Z" fill="#49A7FB"/>
<path d="M8.4275 100.274L48.4152 77.1882L79.5234 95.1467L39.5358 118.235L8.4275 100.274Z" fill="white"/>
<path d="M70.8588 89.0569L71.4678 88.7032L56.9888 80.3443L56.3798 80.6955L70.8588 89.0569Z" fill="white"/>
<path d="M69.9164 89.6002L70.8589 89.0569L56.3799 80.6955L55.4349 81.2413L69.9164 89.6002Z" fill="#49A7FB"/>
<path d="M68.2082 90.5882L69.9164 89.6002L55.4349 81.2413L53.7267 82.2268L68.2082 90.5882Z" fill="white"/>
<path d="M68.2081 90.5882C63.3793 87.801 58.553 85.0139 53.7266 82.2268C53.853 81.921 54.1688 82.0474 54.1688 82.0474C58.9952 84.8345 63.3692 87.3614 68.1955 90.1485C68.1955 90.1485 67.9782 90.2673 68.2081 90.5882Z" fill="#49A7FB"/>
<path d="M57.0091 84.122C55.915 83.4902 54.8209 82.8585 53.7267 82.2268C53.7217 81.1832 55.1822 80.3417 56.9889 80.3443C58.0831 80.976 59.1772 81.6077 60.2688 82.2394C58.4621 82.2369 57.0041 83.0784 57.0091 84.122Z" fill="#82CAFC"/>
<path d="M68.2081 90.5882C67.1114 89.9565 66.0198 89.3248 64.9257 88.693C64.9207 87.6495 66.3787 86.8055 68.1854 86.808C69.2795 87.4397 70.3736 88.0714 71.4678 88.7032C69.6611 88.7006 68.2005 89.5446 68.2081 90.5882Z" fill="#82CAFC"/>
<path d="M68.6478 89.6356C63.8215 86.8484 58.9951 84.0613 54.1688 81.2741C54.7323 80.7157 55.7835 80.3417 56.9888 80.3443C61.8151 83.1314 66.6415 85.9185 71.4678 88.7032C70.2625 88.7006 69.2138 89.0771 68.6478 89.6356Z" fill="#A4E3FF"/>
<path d="M55.2555 80.6551C55.4096 80.6298 55.5739 80.6121 55.7482 80.6045L69.6637 88.8649C69.5601 88.9154 69.4641 88.971 69.3681 89.0291L55.2555 80.6551Z" fill="white"/>
<path d="M76.8197 106.745L76.7818 106.77L76.7439 106.702L76.7818 106.679L76.8197 106.745L76.7666 106.732L76.8197 106.745Z" fill="#FFA15C"/>
<path d="M76.5923 107.129L76.4533 107.127C76.3522 107.071 76.2714 106.929 76.2689 106.813L76.3345 106.684C76.5367 106.611 76.6403 106.606 76.6934 106.616C76.8273 106.641 76.8424 106.75 76.845 106.783L76.7818 106.679L76.7439 106.702L76.7818 106.77L76.8197 106.745C76.845 106.876 76.7666 106.985 76.5923 107.129Z" fill="#FFA15C"/>
<path d="M76.845 106.783C76.8424 106.821 76.8399 106.924 76.5923 107.129L76.6352 107.018C76.7995 106.892 76.845 106.823 76.845 106.783Z" fill="#217FD5"/>
<path d="M76.3346 106.684C76.4104 106.659 76.5847 106.596 76.6959 106.616C76.8374 106.644 76.845 106.77 76.845 106.783C76.845 106.823 76.7995 106.892 76.6352 107.018C76.6327 106.899 76.5493 106.76 76.4483 106.705L76.3396 106.684H76.3346Z" fill="#49A7FB"/>
<path d="M75.9606 107.67L75.7407 107.667C75.5815 107.576 75.4501 107.354 75.4476 107.17C75.4451 107.063 75.488 106.993 75.5537 106.967C75.5689 106.962 75.8645 106.864 76.3345 106.684L76.2688 106.813C76.2714 106.929 76.3522 107.071 76.4533 107.127L76.5923 107.129C76.2031 107.45 75.9732 107.66 75.9606 107.67Z" fill="#FFA15C"/>
<path d="M76.5923 107.129C76.519 107.19 76.4281 107.268 76.2891 107.384L76.1375 107.516L75.9657 107.667C75.9758 107.655 76.2082 107.447 76.5948 107.127L76.5923 107.129Z" fill="#FFA15C"/>
<path d="M75.9656 107.667C75.9732 107.66 76.2031 107.45 76.5923 107.129L76.332 107.349L76.1374 107.516L75.9656 107.667Z" fill="#FFA15C"/>
<path d="M76.3345 106.684C75.8645 106.864 75.5688 106.962 75.5537 106.967L75.776 106.892L76.0161 106.806C76.1222 106.765 76.2283 106.725 76.3345 106.684Z" fill="#FFA15C"/>
<path d="M75.5587 106.967L75.776 106.892C75.8771 106.856 75.9757 106.821 76.0742 106.783L76.3345 106.684C75.867 106.864 75.5739 106.962 75.5587 106.967Z" fill="#FFA15C"/>
<path d="M76.5948 107.127C76.2082 107.447 75.9757 107.655 75.9656 107.667L76.0263 107.493C76.0364 107.483 76.2588 107.303 76.6353 107.018L76.5948 107.127Z" fill="#217FD5"/>
<path d="M76.0112 107.483C76.0112 107.308 75.8848 107.096 75.7332 107.01C75.5816 106.927 75.4603 107 75.4603 107.177C75.4629 107.354 75.5892 107.566 75.7408 107.65C75.8924 107.736 76.0137 107.662 76.0112 107.483ZM76.0263 107.493C76.0289 107.677 75.9 107.756 75.7408 107.667C75.5816 107.576 75.4502 107.354 75.4477 107.169C75.4452 106.985 75.574 106.907 75.7332 106.995C75.8924 107.084 76.0238 107.306 76.0263 107.493Z" fill="#FFA15C"/>
<path d="M76.0111 107.483C76.0136 107.662 75.8923 107.736 75.7407 107.65C75.5891 107.566 75.4628 107.354 75.4602 107.177C75.4602 107 75.5815 106.927 75.7331 107.01C75.8847 107.096 76.0111 107.308 76.0111 107.483Z" fill="#FFA15C"/>
<path d="M75.5588 106.967C75.574 106.962 75.8671 106.864 76.3396 106.684L76.4483 106.705C76.5493 106.76 76.6327 106.899 76.6353 107.018C76.2588 107.303 76.0364 107.483 76.0263 107.493C76.0238 107.306 75.8924 107.084 75.7332 106.995L75.5588 106.967Z" fill="#49A7FB"/>
<path d="M76.0111 107.483C76.0136 107.662 75.8923 107.736 75.7407 107.65C75.5891 107.566 75.4628 107.354 75.4602 107.177C75.4602 107 75.5815 106.927 75.7331 107.01C75.8847 107.096 76.0111 107.308 76.0111 107.483Z" fill="#FFC69C"/>
<path d="M72.14 111.442C71.9151 111.629 71.574 111.64 71.1924 111.427C70.5026 111.043 69.9391 110.086 69.929 109.287C69.9239 108.83 70.1008 108.526 70.3838 108.42C71.0711 108.165 71.7584 107.907 72.4457 107.652C73.8026 107.147 73.8026 107.147 73.9972 107.086C74.5658 106.904 74.8462 106.871 74.9372 106.861C75.3112 106.816 75.5361 106.846 75.7205 106.962C75.8166 107.023 75.905 107.129 75.9454 107.202L75.9934 107.298L76.0187 107.367L76.0516 107.559L76.0111 107.483C76.0111 107.308 75.8848 107.096 75.7332 107.01C75.5816 106.927 75.4603 107 75.4603 107.177C75.4628 107.354 75.5891 107.566 75.7408 107.65C75.8924 107.736 76.0136 107.662 76.0111 107.483L76.0516 107.559C76.0541 107.715 75.9985 107.872 75.8696 108.082C75.7407 108.296 75.5057 108.559 75.3466 108.718C75.1166 108.946 75.0029 109.044 74.7603 109.252L72.14 111.442Z" fill="#FFC69C"/>
<path d="M74.7603 109.252C74.1968 109.727 73.3275 110.452 73.1582 110.593C72.8196 110.876 72.4785 111.159 72.1399 111.442C72.3193 111.293 72.4254 111.031 72.4204 110.677C72.5038 110.611 74.1109 109.381 74.9473 108.739C75.819 108.069 76.054 107.71 76.0515 107.559C76.049 107.662 76.0439 107.872 75.7407 108.271C75.5158 108.564 75.1873 108.895 74.7603 109.252Z" fill="#FC704D"/>
<path d="M70.3837 108.42L70.6566 108.319L70.922 108.221C71.0913 108.155 71.2631 108.092 71.4349 108.029C71.5638 107.981 71.6952 107.93 71.8266 107.882L72.0312 107.806C72.5493 107.614 73.0673 107.42 73.5853 107.228C74.3256 106.952 74.7224 106.892 74.9119 106.864C75.0079 106.849 75.2025 106.828 75.4122 106.854C75.5739 106.871 75.6826 106.937 75.7179 106.96C75.8797 107.058 76.0464 107.296 76.0515 107.559C76.054 107.71 75.819 108.069 74.9473 108.739C74.1109 109.381 72.5038 110.611 72.4204 110.677C72.4103 109.878 71.8443 108.921 71.1569 108.537C70.8613 108.375 70.5935 108.342 70.3837 108.42Z" fill="#FFA15C"/>
<path d="M72.044 109.451C71.905 109.168 71.9176 109.269 71.718 109.032L73.8633 107.976C74.4951 107.741 74.8337 107.682 75.0055 107.655C74.8817 107.771 74.7048 107.92 74.4622 108.107C74.0326 108.435 72.5671 109.049 72.044 109.451Z" fill="#FFC69C"/>
<path d="M72.4204 110.677C72.4305 111.473 71.8797 111.811 71.1923 111.427C70.5025 111.043 69.939 110.085 69.9289 109.287C69.9188 108.489 70.4697 108.152 71.157 108.537C71.8443 108.921 72.4103 109.878 72.4204 110.677Z" fill="#FFC69C"/>
<path d="M72.4204 110.677C72.4305 111.473 71.8797 111.811 71.1923 111.427C70.5025 111.043 69.939 110.085 69.9289 109.287C69.9188 108.489 70.4697 108.152 71.157 108.537C71.8443 108.921 72.4103 109.878 72.4204 110.677Z" fill="#217FD5"/>
<path d="M60.8575 118.295C60.6048 118.444 60.2536 118.429 59.8644 118.214C59.0811 117.775 58.4342 116.683 58.4241 115.776C58.4191 115.309 58.5808 114.98 58.8461 114.831C60.1828 114.075 61.9011 113.115 63.9554 111.973C64.6705 111.576 65.3857 111.177 66.1033 110.78C67.0635 110.247 68.0262 109.714 68.9864 109.183C69.4261 108.941 69.8658 108.698 70.3029 108.458C70.0679 108.587 69.9239 108.875 69.929 109.287C69.9391 110.085 70.5026 111.043 71.1924 111.427C71.536 111.619 71.8468 111.629 72.0692 111.493C71.6422 111.756 71.2126 112.016 70.7856 112.279C69.9542 112.787 67.9858 113.984 67.9706 113.992C66.7805 114.715 65.5928 115.437 64.4027 116.158C62.8007 117.125 61.8278 117.712 60.8575 118.295Z" fill="#217FD5"/>
<path d="M61.2643 117.358C61.277 118.267 60.6503 118.652 59.8645 118.214C59.0811 117.775 58.4343 116.683 58.4241 115.776C58.414 114.864 59.0407 114.482 59.824 114.919C60.6099 115.357 61.2542 116.448 61.2643 117.358Z" fill="#FFA15C"/>
<path d="M61.2643 117.358C61.277 118.267 60.6503 118.652 59.8645 118.214C59.0811 117.775 58.4343 116.683 58.4241 115.776C58.414 114.864 59.0407 114.482 59.824 114.919C60.6099 115.357 61.2542 116.448 61.2643 117.358Z" fill="#217FD5"/>
<path d="M59.4981 119.106C59.2429 119.256 58.8891 119.243 58.4974 119.023C57.704 118.581 57.0546 117.482 57.042 116.562C57.0369 116.094 57.2012 115.761 57.4665 115.612C57.6863 115.485 57.9062 115.362 58.126 115.238C58.2675 115.157 58.409 115.076 58.5505 114.998L58.6971 114.914L58.7703 114.871L58.8461 114.831C58.5808 114.98 58.4191 115.309 58.4242 115.776C58.4343 116.683 59.0812 117.775 59.8645 118.214C60.2536 118.429 60.6049 118.444 60.8575 118.295C60.4052 118.566 59.9504 118.836 59.4981 119.106Z" fill="#FFA15C"/>
<path d="M72.0692 111.493C71.3162 111.955 71.3162 111.955 70.3206 112.562C69.9567 112.784 69.5928 113.004 69.2315 113.226C68.8095 113.482 68.39 113.737 67.9706 113.992C65.8126 115.306 65.3401 115.592 63.6673 116.605C63.0988 116.948 61.9769 117.623 60.8574 118.295C61.1152 118.141 61.2719 117.818 61.2643 117.358C65.608 114.78 72.0793 110.881 72.4204 110.677C72.4255 111.076 72.289 111.359 72.0692 111.493Z" fill="#217FD5"/>
<path d="M58.8461 114.831C59.7305 114.331 60.8347 113.712 63.2075 112.39C64.1727 111.852 65.138 111.316 66.1032 110.78C67.0306 110.265 68.5088 109.446 69.4008 108.956C69.7015 108.789 70.0022 108.622 70.3029 108.458C70.5227 108.334 70.8234 108.352 71.157 108.537C71.8443 108.921 72.4103 109.878 72.4204 110.677C72.0793 110.881 65.608 114.78 61.2643 117.358C61.2542 116.448 60.6098 115.357 59.824 114.919C59.4424 114.707 59.0988 114.687 58.8461 114.831Z" fill="#49A7FB"/>
<path d="M60.7665 115.9C60.6502 115.698 60.5214 115.506 60.3824 115.321C60.9737 114.99 62.9472 114.053 63.8543 113.55C64.8171 113.012 65.7823 112.476 66.7476 111.94C67.6749 111.427 69.1532 110.609 70.0451 110.116L71.627 109.077C71.7078 109.148 71.7861 109.244 71.8544 109.35C70.1462 110.379 64.0186 113.962 60.7665 115.9Z" fill="#A4E3FF"/>
<path d="M60.8576 118.295C60.4053 118.566 59.9504 118.836 59.4981 119.106C59.7584 118.95 59.915 118.624 59.91 118.159C60.3219 117.916 60.7767 117.646 61.2644 117.358C61.272 117.818 61.1153 118.141 60.8576 118.295Z" fill="#FFA15C"/>
<path d="M59.9099 118.159C59.92 119.079 59.2883 119.465 58.4974 119.023C57.704 118.581 57.0545 117.482 57.0419 116.562C57.0318 115.645 57.6635 115.261 58.4544 115.7C59.2479 116.142 59.8973 117.242 59.9099 118.159Z" fill="#217FD5"/>
<path d="M59.9099 118.159C59.92 119.079 59.2883 119.465 58.4974 119.023C57.704 118.581 57.0545 117.482 57.0419 116.562C57.0318 115.645 57.6635 115.261 58.4544 115.7C59.2479 116.142 59.8973 117.242 59.9099 118.159Z" fill="#FFA15C"/>
<path d="M57.4664 115.612C57.474 115.607 58.6187 114.96 58.8461 114.831C59.0988 114.687 59.4424 114.707 59.824 114.919C60.6098 115.357 61.2542 116.448 61.2643 117.358C60.7766 117.646 60.3218 117.916 59.9099 118.159C59.8973 117.242 59.2478 116.142 58.4544 115.7C58.0703 115.485 57.7216 115.468 57.4664 115.612Z" fill="#FFA15C"/>
<path d="M47.1972 125.947C46.9774 126.068 46.6792 126.05 46.3457 125.866C45.6584 125.482 45.0923 124.524 45.0822 123.728C45.0772 123.329 45.2111 123.046 45.4335 122.909C46.6893 122.139 47.9426 121.368 49.201 120.6C49.8403 120.208 50.4796 119.816 51.1214 119.425C51.5662 119.152 52.0109 118.879 52.4582 118.609C53.0469 118.247 54.6161 117.292 55.6597 116.658L55.9857 116.463C56.1246 116.382 56.2636 116.302 56.4026 116.221C56.5668 116.127 56.7311 116.031 56.8979 115.935C57.0874 115.827 57.2769 115.718 57.4664 115.612C57.1986 115.763 57.0368 116.094 57.0419 116.562C57.0545 117.482 57.7039 118.581 58.4974 119.023C58.889 119.243 59.2403 119.256 59.4955 119.106C59.3085 119.218 59.1215 119.329 58.9345 119.44C58.7703 119.536 58.6035 119.632 58.4393 119.728C58.3003 119.809 58.1638 119.89 58.0248 119.968C57.9642 120.001 57.8151 120.087 57.6913 120.158C56.5997 120.764 55.5081 121.37 54.414 121.972C53.2996 122.588 52.1852 123.202 51.0709 123.816C50.184 124.304 49.2996 124.792 48.4152 125.28C48.0083 125.502 47.604 125.724 47.1972 125.947Z" fill="#217FD5"/>
<path d="M57.6913 120.158C57.6787 120.165 56.1196 121.032 53.7267 122.353C52.8423 122.841 51.9553 123.329 51.0709 123.816C51.0482 123.829 47.4853 125.79 47.1973 125.947C47.4348 125.818 47.5788 125.53 47.5738 125.115C47.9023 124.933 54.1158 121.461 58.1209 119.202C58.4923 118.99 59.1215 118.626 59.9099 118.159C59.915 118.624 59.7583 118.952 59.4955 119.106C59.2251 119.266 58.8537 119.485 58.4393 119.728C58.1689 119.887 57.9592 120.006 57.9491 120.011L57.6913 120.158Z" fill="#217FD5"/>
<path d="M45.4335 122.909C45.9692 122.581 46.5074 122.252 47.0431 121.921C47.9149 121.386 48.4 121.09 49.2011 120.6C50.1815 119.998 52.1095 118.818 53.1253 118.199C54.2624 117.507 55.5233 116.741 55.6597 116.658C55.8139 116.564 55.9453 116.489 56.064 116.42C56.1752 116.352 56.2889 116.286 56.4026 116.221C56.6022 116.104 56.8044 115.988 57.0065 115.875C57.1582 115.786 57.3123 115.7 57.4664 115.612C57.7191 115.468 58.0678 115.485 58.4544 115.7C59.2479 116.142 59.8973 117.242 59.9099 118.159C59.1215 118.626 58.4923 118.99 58.1209 119.202C54.1158 121.461 47.9022 124.933 47.5738 125.115C47.5636 124.317 46.9976 123.362 46.3103 122.978C45.9667 122.786 45.6559 122.773 45.4335 122.909Z" fill="#49A7FB"/>
<path d="M47.3135 123.811C47.2402 123.695 47.1644 123.581 47.0836 123.47C47.7456 123.063 49.2087 122.151 49.8934 121.732C50.8739 121.13 52.8019 119.953 53.8177 119.334C54.9522 118.641 56.2106 117.878 56.3445 117.795C56.4961 117.704 56.6225 117.631 56.7362 117.565C56.8449 117.499 56.956 117.436 57.0672 117.37C57.2668 117.254 57.4665 117.141 57.6661 117.027L59.114 116.261C59.301 116.39 59.4854 116.623 59.6168 116.873C59.2277 117.1 57.6838 117.924 57.4665 118.045C54.5681 119.68 49.4639 122.609 47.3135 123.811Z" fill="#82CAFC"/>
<path d="M47.5738 125.115C47.5839 125.914 47.0331 126.25 46.3458 125.866C45.6585 125.482 45.0924 124.524 45.0823 123.728C45.0722 122.93 45.6231 122.593 46.3104 122.978C46.9977 123.362 47.5637 124.317 47.5738 125.115Z" fill="#217FD5"/>
<path d="M47.5738 125.115C47.5839 125.914 47.0331 126.25 46.3458 125.866C45.6585 125.482 45.0924 124.524 45.0823 123.728C45.0722 122.93 45.6231 122.593 46.3104 122.978C46.9977 123.362 47.5637 124.317 47.5738 125.115Z" fill="#F4B082"/>
<path d="M43.8112 127.915C43.5889 128.044 43.2856 128.031 42.9445 127.842C42.2572 127.458 41.6912 126.5 41.6811 125.702C41.6786 125.297 41.8175 125.012 42.045 124.878L45.4461 122.902C45.2162 123.036 45.0772 123.321 45.0822 123.728C45.0923 124.524 45.6584 125.482 46.3457 125.866C46.6843 126.055 46.99 126.07 47.2098 125.939C46.189 126.533 44.8321 127.324 43.8112 127.915Z" fill="#F4B082"/>
<path d="M43.0102 126.727C43.0127 126.94 42.8687 127.028 42.6843 126.927C42.4998 126.826 42.3482 126.568 42.3457 126.356C42.3431 126.144 42.4897 126.055 42.6742 126.156C42.8586 126.26 43.0077 126.515 43.0102 126.727Z" fill="#F4B082"/>
<path d="M47.21 125.939L43.8113 127.915C44.0387 127.784 44.1802 127.498 44.1752 127.091L47.5738 125.115C47.5789 125.522 47.4399 125.808 47.21 125.939Z" fill="#FFA15C"/>
<path d="M43.0102 126.727C43.3337 126.907 43.7354 127.031 44.1751 127.091C44.1827 127.89 43.6343 128.223 42.9445 127.842C42.2572 127.458 41.6912 126.5 41.6811 125.702C41.6735 124.906 42.2218 124.569 42.9117 124.954C43.599 125.338 44.165 126.293 44.1751 127.091C43.7354 127.031 43.3337 126.907 43.0102 126.727C43.0077 126.515 42.8586 126.26 42.6741 126.156C42.4897 126.055 42.3431 126.144 42.3457 126.356C42.3482 126.568 42.4998 126.826 42.6842 126.927C42.8687 127.028 43.0127 126.94 43.0102 126.727Z" fill="#E0A273"/>
<path d="M42.0449 124.878L45.4461 122.902C45.6685 122.773 45.9717 122.788 46.3103 122.978C46.9976 123.362 47.5636 124.317 47.5737 125.115L44.1751 127.091C44.165 126.293 43.599 125.338 42.9117 124.954C42.5731 124.764 42.2673 124.749 42.0449 124.878Z" fill="#F4B082"/>
<path d="M76.0264 107.086C76.0264 107.086 76.5772 106.687 76.5899 106.783C76.6025 106.879 76.0971 107.235 76.0971 107.235L76.0264 107.086Z" fill="white"/>
<path d="M44.1751 127.288V126.508L47.3388 125.704C47.3388 125.704 53.1304 122.808 54.0375 122.285C54.9472 121.76 54.9573 121.504 54.9573 121.504C54.5757 121.285 54.5934 120.663 54.975 120.443L55.0988 120.981C55.4778 120.762 57.047 120.532 57.047 120.532V121.312C57.047 121.312 53.4765 123.41 51.4727 124.532C49.9945 125.358 47.4121 126.702 46.1537 127.354C45.7241 127.576 45.0873 127.612 44.5896 127.435L44.1751 127.288Z" fill="#FFA15C"/>
<path d="M44.1751 126.508L46.7753 125.004L47.4121 125.373C47.4121 125.373 53.1304 122.356 54.0375 121.83C54.9472 121.307 55.2908 121.108 55.2908 121.108L55.1013 120.999C54.7198 120.777 54.7172 120.42 55.0988 120.201C55.4778 119.981 56.0969 119.981 56.481 120.203L57.047 120.532C57.047 120.532 53.4765 122.629 51.4727 123.748C49.9945 124.575 47.4121 125.921 46.1537 126.573C45.7241 126.796 45.0873 126.829 44.5896 126.654L44.1751 126.508Z" fill="#FFC69C"/>
<path d="M51.4727 123.748C50.9243 124.072 50.3684 124.38 49.8125 124.688C49.2566 124.997 48.6956 125.292 48.1347 125.595C47.5712 125.889 47.0102 126.189 46.4442 126.477C46.3002 126.546 46.1637 126.626 46.0096 126.682C45.8554 126.738 45.6937 126.768 45.5345 126.783C45.2136 126.808 44.8851 126.77 44.5895 126.654C44.8952 126.74 45.2161 126.763 45.5269 126.72C45.6811 126.697 45.8352 126.662 45.9793 126.606C46.1208 126.548 46.2572 126.462 46.3962 126.386C46.9521 126.078 47.5156 125.782 48.074 125.479C48.6375 125.186 49.1985 124.888 49.7645 124.597C50.3305 124.309 50.8965 124.024 51.4727 123.748Z" fill="white"/>
<path d="M41.9615 83.6418L57.0621 92.0917L60.63 90.0323L45.5294 81.5824L41.9615 83.6418Z" fill="#A4E3FF"/>
<path d="M36.8244 86.6084L51.925 95.0557L55.4929 92.9963L40.3898 84.549L36.8244 86.6084Z" fill="#A4E3FF"/>
<path d="M60.7438 102.881L58.2296 104.332L55.167 102.563L57.6787 101.113L60.7438 102.881ZM58.2296 105.55L62.8512 102.881L57.6787 99.8946L53.0571 102.563L58.2296 105.55Z" fill="#A4E3FF"/>
<path d="M31.6874 89.5749L49.5801 99.9477L53.1481 97.8883L35.2553 87.513L31.6874 89.5749Z" fill="#A4E3FF"/>
<path d="M55.6066 105.848L53.0923 107.298L50.0298 105.527L52.5415 104.077L55.6066 105.848ZM53.0923 108.516L57.714 105.848L52.5415 102.861L47.9198 105.527L53.0923 108.516Z" fill="#A4E3FF"/>
<path d="M26.5502 92.5389L44.4429 102.912L48.0109 100.852L30.1181 90.4795L26.5502 92.5389Z" fill="#A4E3FF"/>
<path d="M50.4695 108.812L47.9578 110.262L44.8927 108.494L47.4045 107.043L50.4695 108.812ZM47.9578 111.48L52.5795 108.812L47.4045 105.825L42.7828 108.494L47.9578 111.48Z" fill="#A4E3FF"/>
<path d="M21.4156 95.5055L39.3058 105.878L42.8738 103.819L24.981 93.4461L21.4156 95.5055Z" fill="#A4E3FF"/>
<path d="M45.3325 111.779L42.8208 113.229L39.7557 111.46L42.2699 110.007L45.3325 111.779ZM42.8208 114.447L47.4424 111.779L42.2699 108.792L37.6483 111.46L42.8208 114.447Z" fill="#A4E3FF"/>
<path d="M16.2785 98.472L34.1688 108.845L37.7367 106.785L19.8465 96.4126L16.2785 98.472Z" fill="#A4E3FF"/>
<path d="M58.3383 99.0936C60.946 100.6 65.1886 100.592 67.814 99.0785C70.4394 97.5623 70.4521 95.1113 67.8443 93.6053C65.2366 92.0992 60.994 92.1068 58.3686 93.6229C55.7432 95.1391 55.7305 97.5876 58.3383 99.0936Z" fill="#FB3300"/>
<path d="M66.1487 99.0709L67.6395 98.2092L60.4051 94.0323L58.9117 94.894L66.1487 99.0709Z" fill="white"/>
<path d="M58.8942 98.2269L60.3775 99.0835L67.6599 94.8788L66.1766 94.0222L58.8942 98.2269Z" fill="white"/>
<path d="M79.7636 81.7164L119.37 104.579C119.37 104.562 128.305 97.8049 133.646 96.2863L91.5565 71.993C86.8438 73.8527 82.0327 76.6197 77.3176 80.1927L77.219 80.2482L79.7636 81.7164Z" fill="#A4E3FF"/>
<path d="M119.418 104.579L119.39 104.562C119.734 104.294 124.388 100.807 128.896 98.3634L126.844 99.6142C126.417 99.8694 125.97 100.097 125.558 100.377L124.307 101.199C123.476 101.749 122.629 102.277 121.823 102.866L119.418 104.579ZM102.745 94.9824L79.7484 81.7441L79.7636 81.7164L102.745 94.9824Z" fill="white"/>
<path d="M119.39 104.562L102.745 94.9824L79.7636 81.7164L79.7813 81.6886C83.1521 83.4675 86.5406 85.2211 89.8685 87.0784L94.8768 89.8402L99.8471 92.6602C103.17 94.5276 106.473 96.4303 109.75 98.3735L114.68 101.269C116.327 102.224 117.945 103.235 119.577 104.216C119.572 104.213 119.395 104.102 119.65 103.89L120.039 103.591L120.35 103.382L121.598 102.54C122.417 101.967 123.284 101.459 124.14 100.943L125.429 100.17C125.854 99.9073 126.311 99.695 126.751 99.455L129.401 98.0551L128.896 98.3634C124.388 100.807 119.734 104.294 119.39 104.562Z" fill="#C0ECFF"/>
<path d="M133.045 96.2863C128.317 98.1587 124.097 100.941 119.37 104.531C119.37 105.537 119.37 106.495 119.37 107.453C124.145 104.696 128.931 101.939 133.707 99.1821C133.707 98.2092 133.647 97.0191 133.647 96.0437L133.045 96.2863Z" fill="#49A7FB"/>
<path d="M79.7636 81.7164L77.2317 80.2558C77.2191 81.2312 77.2191 82.199 77.2191 83.1693L119.37 107.498C119.37 106.495 119.37 105.537 119.37 104.579L79.7636 81.7164Z" fill="#49A7FB"/>
<path d="M102.569 69.9285V87.2047C102.569 87.6318 102.852 88.0588 103.418 88.3848C104.547 89.0392 106.379 89.0392 107.511 88.3848C108.075 88.0588 108.358 87.6318 108.358 87.2047V69.9285H102.569Z" fill="#49A7FB"/>
<path d="M135.898 42.3073L63.2278 0.348709C62.8209 0.11371 62.4419 0.0379042 62.126 0.0960222L62.025 0L60.0338 1.23816L61.2164 3.44412V50.9593C61.2164 52.243 62.116 53.8021 63.2278 54.4439L135.006 95.8845L135.382 97.6129L136.954 96.6552C137.528 96.5769 137.912 96.0715 137.912 95.2376V45.7919C137.912 44.5108 137.01 42.9492 135.898 42.3073Z" fill="#A4E3FF"/>
<path d="M134.213 97.3728L61.5424 55.4167C60.4305 54.7749 59.531 53.2133 59.531 51.9322V2.48644C59.531 1.89515 59.7205 1.46811 60.0338 1.23816C60.4027 0.970317 60.9435 0.975373 61.5424 1.32408L134.213 43.2802C135.324 43.922 136.226 45.4811 136.226 46.7647V96.213C136.226 97.4941 135.324 98.0147 134.213 97.3728Z" fill="#49A7FB"/>
<path d="M135.38 46.2771V93.8352C135.35 94.5478 134.844 94.8182 134.21 94.4492L61.5424 52.4957C60.9006 52.1242 60.375 51.2196 60.375 50.4716V2.96907C60.375 2.56225 60.5317 2.28935 60.7945 2.1908C60.989 2.10236 61.2518 2.13268 61.5424 2.29946L134.21 44.2505C134.865 44.622 135.38 45.5367 135.38 46.2771Z" fill="white"/>
<path d="M106.437 48.9328C105.823 48.0307 104.087 47.3914 102.081 48.6624C100.072 49.9334 100.792 57.8223 100.901 59.7604C101.012 61.701 100.749 66.214 100.33 68.1294C100.168 68.8571 99.5465 70.8508 98.8389 73.0441L103.804 75.9096C104.972 72.933 106.245 69.5975 107.092 67.1161C109.032 61.413 108.997 52.6953 106.437 48.9328Z" fill="#82CAFC"/>
<path d="M99.4479 62.5829C100.287 67.3132 100.742 71.523 100.972 74.2747L122.826 86.8939C122.682 85.7012 122.511 84.7814 122.308 84.2938C121.106 81.4131 120.646 77.0442 120.734 74.535C120.805 72.0435 122.645 59.7377 123.016 58.7825C123.385 57.8097 123.456 57.226 121.389 54.502C121.194 54.2392 120.982 53.9916 120.77 53.7616C118.665 51.4622 115.696 50.0143 115.696 50.0143C108.446 43.1361 106.344 48.3162 103.425 49.0768C102.222 49.375 98.4928 57.2613 99.4479 62.5829Z" fill="#A4E3FF"/>
<path d="M122.826 86.8939C122.682 85.7012 122.511 84.7814 122.308 84.2938C121.106 81.4131 120.646 77.0442 120.734 74.535C120.805 72.0435 122.645 59.7377 123.016 58.7825C123.385 57.8097 123.456 57.226 121.389 54.502C121.194 54.2392 120.982 53.9916 120.77 53.7616C120.221 54.1154 119.673 54.4338 119.107 54.5728C117.922 54.8937 114.192 62.7598 115.13 68.0814C116.545 75.9677 116.878 82.4011 116.878 83.0556C116.878 83.1263 116.873 83.2603 116.858 83.4473L122.826 86.8939Z" fill="#82CAFC"/>
<path d="M105.469 51.6264C104.61 52.1444 103.135 53.562 101.987 57.4281L100.163 63.6114C100.128 63.7503 99.9988 63.8514 99.8472 63.8615L99.7234 63.8413C99.5389 63.7908 99.4328 63.5886 99.4934 63.4016L101.305 57.2361C102.475 53.2891 103.999 51.7048 105.015 51.0528C105.133 51.212 105.3 51.4116 105.469 51.6264Z" fill="#023386"/>
<path d="M100.307 64.7889C99.8269 65.37 99.2229 65.2715 98.9576 64.564C98.6923 63.8565 98.8667 62.8129 99.3442 62.2291C99.8243 61.6454 100.428 61.7465 100.694 62.4515C100.959 63.159 100.787 64.2052 100.307 64.7889Z" fill="#82CAFC"/>
<path d="M100.489 62.5299C100.726 63.159 100.565 64.1294 100.138 64.6499C99.7814 65.082 99.3746 65.0112 99.1649 64.4857C98.8515 63.7023 98.9501 62.6031 99.5161 62.3681C99.7309 62.2772 99.8294 62.0801 99.981 62.0674C100.188 62.0523 100.373 62.2216 100.489 62.5299ZM100.476 64.9279C101.007 64.281 101.194 63.159 100.901 62.3757C100.714 61.8779 100.358 61.6 99.9482 61.6303C99.6702 61.6505 99.4049 61.8097 99.175 62.0902C98.6443 62.7371 98.4573 63.8565 98.753 64.6423C98.9374 65.1376 99.2937 65.4181 99.7056 65.3877C99.981 65.365 100.246 65.2083 100.476 64.9279Z" fill="#217FD5"/>
<path d="M113.942 42.6333C113.942 42.6333 113.866 47.4798 115.082 48.5942C116.297 49.7111 116.631 51.8109 116.631 51.8109C116.631 51.8109 113.864 57.4306 109.563 55.6947C105.262 53.9612 107.88 49.6403 107.88 49.6403L108.83 45.2183L113.942 42.6333Z" fill="#FFA15C"/>
<path d="M106.132 53.8652L106.455 56.1899L104.585 58.2215L104.07 64.2405L107.862 60.5362L108.12 57.1906L110.551 54.3529L108.413 53.0162L106.132 53.8652Z" fill="#59080A"/>
<path d="M115.86 48.0661C115.501 47.7148 114.399 47.2221 114.399 47.2221C114.399 47.2221 115.718 50.6687 113.449 51.7022C111.178 52.7332 108.433 52.9909 108.433 52.9909C108.433 52.9909 109.288 53.605 109.288 55.5759C109.288 57.5494 109.914 58.2215 109.914 58.2215C109.914 58.2215 112.176 56.6726 114.114 55.5759C115.585 54.7421 116.924 52.109 117.146 51.3156C117.366 50.5222 116.322 48.5184 115.86 48.0661Z" fill="white"/>
<path d="M107.688 50.0067C107.688 50.0067 107.493 51.591 107.88 52.1065C108.269 52.622 108.433 52.9909 108.433 52.9909C108.433 52.9909 107.135 53.4003 106.437 53.9739C105.737 54.5475 105.222 55.3738 105.222 55.3738C105.222 55.3738 104.575 52.9303 104.731 51.591C104.891 50.2518 106.374 48.3112 106.374 48.3112L107.688 50.0067Z" fill="white"/>
<path d="M113.846 60.5362L113.75 60.5235C113.563 60.473 113.454 60.2759 113.507 60.0889L114.043 58.1862C114.086 57.4357 114.581 56.7585 115.135 56.0586C115.723 55.3131 116.31 54.4742 116.494 53.0263C116.674 51.6315 116.411 50.9012 116.411 50.9012L116.057 49.375C116.057 49.375 117.752 50.2468 117.186 53.1628C116.881 54.7345 116.264 55.6467 115.721 56.4527C115.317 57.0466 114.938 57.6101 114.72 58.3782L114.185 60.281C114.142 60.4351 114 60.5362 113.846 60.5362Z" fill="#023386"/>
<path d="M125.626 61.2664C125.037 59.3839 122.349 52.7281 119.337 54.4692C116.322 56.2076 116.603 60.1723 118.366 65.0213C120.464 70.7952 123.89 72.9254 122.849 75.993C122.278 77.6734 121.007 81.8275 119.974 85.2464L125.277 88.3064C127.193 84.2584 130.331 76.8875 129.631 74.1888C128.14 68.4427 128.087 69.1401 125.626 61.2664Z" fill="#A4E3FF"/>
<path d="M107.592 62.0144C108.181 61.6733 111.473 60.5362 111.473 60.5362L110.351 57.9259L112.431 59.9171C112.431 59.9171 118.801 52.7762 118.341 50.9947C117.846 49.0743 115.327 47.6946 115.327 47.6946C115.327 47.6946 116.631 49.2739 115.082 51.8437C114.334 53.087 107.178 59.0706 106.374 60.2481C105.57 61.4231 103.958 64.4452 103.958 64.4452L107.592 62.0144Z" fill="#217FD5"/>
<path d="M106.632 49.332C106.632 49.332 105.384 53.8526 105.222 55.7781C105.063 57.7035 104.07 64.2405 104.07 64.2405L102.45 58.0371L103.812 56.1293L102.081 55.5759C102.081 55.5759 102.632 49.6757 104.07 48.5714C105.505 47.4647 106.298 47.4647 106.298 47.4647L106.632 49.332Z" fill="#217FD5"/>
<path d="M113.449 34.5751C113.449 34.5751 110.035 32.4753 106.723 35.2725C103.405 38.0723 103.476 41.1677 103.534 41.6453C103.589 42.1254 104.032 41.7818 103.774 42.6333C103.516 43.4874 103.663 44.2 103.885 44.6902C104.105 45.1829 104.552 47.1488 104.459 48.1166C104.363 49.0844 105.224 50.0067 106.389 50.0067C107.554 50.0067 110.215 49.5797 111.304 48.5942C112.393 47.6138 113.78 44.8873 113.78 44.8873C113.78 44.8873 116.85 42.3832 116.224 39.2524C115.597 36.1216 113.449 34.5751 113.449 34.5751Z" fill="#CE8F64"/>
<path d="M103.918 39.1715C103.918 39.1715 105.358 34.2062 108.158 33.8171C110.958 33.433 113.035 33.3243 114.513 34.8329C115.991 36.3364 118.293 40.4804 115.607 43.452C112.921 46.4186 113.356 45.4356 113.356 45.4356C113.356 45.4356 113.28 43.8184 111.86 42.934C109.636 40.6927 112.145 39.2195 111.754 38.469C111.486 37.9611 105.591 36.3768 104.479 37.9384C104.241 38.2719 104.373 39.0982 103.918 39.1715Z" fill="#59080A"/>
<path d="M114.2 43.0427C114.215 43.0073 114.748 42.0167 115.112 42.2669C115.476 42.5145 115.665 43.0528 115.433 43.8411C115.198 44.6295 114.703 45.6226 114.212 45.6731C113.725 45.7237 113.565 45.8121 113.356 45.4356C113.143 45.0591 113.361 44.5714 113.361 44.5714L114.2 43.0427Z" fill="#FFA15C"/>
<path d="M113.992 43.1387C114.008 43.1058 114.541 42.1153 114.902 42.3629C115.266 42.6131 115.458 43.1488 115.223 43.9372C114.991 44.7256 114.495 45.7211 114.005 45.7717C113.517 45.8222 113.358 45.9081 113.146 45.5342C112.934 45.1577 113.154 44.67 113.154 44.67L113.992 43.1387Z" fill="#FFC69C"/>
<path d="M114.344 43.3282C114.344 43.3282 114.437 43.7729 114.468 43.9675C114.498 44.1621 114.513 44.4855 114.389 44.6598C114.268 44.8317 114.159 44.9479 114.159 44.9479C114.159 44.9479 114.291 44.1343 114.268 43.8336C114.245 43.5354 114.26 43.265 114.414 43.025C114.571 42.7849 114.71 42.4817 114.869 42.7243C115.029 42.9668 115.15 43.2448 115.039 43.7375C114.925 44.2303 114.713 44.766 114.473 45.0111C114.235 45.2587 113.942 45.3952 113.942 45.3952C113.942 45.3952 114.533 45.0768 114.718 44.5082C114.9 43.9372 115.064 43.073 114.925 42.9416C114.788 42.8127 114.771 42.7849 114.725 42.9972C114.682 43.2069 114.748 43.5076 114.622 43.4217L114.42 43.174L114.344 43.3282Z" fill="#FFA15C"/>
<path d="M114.109 44.2682L114.01 43.8437C113.919 43.869 113.902 43.874 113.823 44.0307C113.745 44.1924 113.727 44.2505 113.601 44.2227C113.475 44.1974 113.399 44.0812 113.485 44.2783C113.533 44.3819 113.573 44.3642 113.629 44.344C113.674 44.3288 113.73 44.3137 113.808 44.3693C113.982 44.488 113.891 44.6927 114.02 44.6902L114.086 44.301L114.109 44.2682Z" fill="#FFA15C"/>
<path d="M115.923 66.8685L115.147 66.6967C115.157 66.6537 116.123 62.1357 113.667 60.8899C113.176 60.6423 112.704 60.6094 112.224 60.7939C110.637 61.3953 109.568 64.051 109.558 64.0788L108.82 63.7882C108.868 63.6644 110.025 60.7787 111.941 60.051C112.636 59.7907 113.336 59.8362 114.025 60.1824C117.03 61.7061 115.969 66.6588 115.923 66.8685Z" fill="#023386"/>
<path d="M111.413 78.1105C111.236 78.1105 111.145 78.0726 111.107 78.0524L111.034 77.782L111.304 77.7062C111.312 77.7062 111.625 77.7921 112.545 77.4081C113.179 77.1427 114.5 71.5735 115.413 66.3429L115.643 66.1812L115.802 66.4111C115.486 68.2229 113.854 77.2918 112.699 77.7719C112.054 78.0423 111.655 78.1105 111.413 78.1105Z" fill="white"/>
<path d="M106.576 76.2204C106.462 76.2154 106.066 76.1219 105.378 75.1263C104.671 74.0953 108.206 65.5874 108.921 63.8893L109.181 63.7857L109.287 64.046C107.22 68.938 105.315 74.3354 105.707 74.9014C106.291 75.7504 106.599 75.8262 106.604 75.8262L106.783 76.0334L106.576 76.2204Z" fill="white"/>
<path d="M104.07 64.2405C104.07 64.2405 104.762 66.4414 104.706 70.818C104.704 71.0782 104.57 75.7757 104.567 76.0233L104.562 76.3493L103.837 75.9298L103.688 70.818L104.07 64.2405Z" fill="#82CAFC"/>
<path d="M90.8617 30.4109L66.9045 16.5813V9.43027L90.8617 23.2598V30.4109Z" fill="#49A7FB"/>
<path d="M90.8617 44.0635L66.9045 30.234V23.0804L90.8617 36.9125V44.0635Z" fill="#A4E3FF"/>
<path d="M90.8617 57.7136L66.9045 43.8841V36.7331L90.8617 50.5626V57.7136Z" fill="#A4E3FF"/>
<path d="M129.459 93.4865L126.776 91.9325V91.2629L129.459 92.8144V93.4865Z" fill="#FFA15C"/>
<path d="M126.379 91.6596L123.693 90.1081V89.4385L126.379 90.9925V91.6596Z" fill="#E03362"/>
<path d="M133.045 95.3084C133.045 95.9654 132.585 96.2307 132.017 95.9022C131.448 95.5737 130.988 94.7777 130.988 94.1233C130.988 93.4663 131.448 93.201 132.017 93.5295C132.585 93.8554 133.045 94.6539 133.045 95.3084Z" fill="#A4E3FF"/>
<path d="M132.59 95.0481C132.59 95.4145 132.332 95.5611 132.017 95.3791C131.698 95.1947 131.443 94.7499 131.443 94.3861C131.443 94.0171 131.698 93.8706 132.017 94.055C132.332 94.237 132.59 94.6817 132.59 95.0481Z" fill="#49A7FB"/>
<path fill-rule="evenodd" clip-rule="evenodd" d="M135.375 46.176C135.375 46.133 135.37 46.0926 135.365 46.0522C135.37 46.0547 135.372 46.0547 135.375 46.0547V46.176Z" fill="url(#paint0_linear)"/>
<path fill-rule="evenodd" clip-rule="evenodd" d="M116.878 82.9495L104.57 75.8439C104.595 74.9368 104.704 71.0555 104.706 70.818C104.754 67.0049 104.234 64.8445 104.1 64.3492L107.592 62.0144C108.014 61.7693 109.831 61.1148 110.821 60.7636C109.583 61.8855 108.858 63.6897 108.82 63.7882L108.999 63.859L108.921 63.8893C108.206 65.5874 104.671 74.0953 105.378 75.1263C106.066 76.1219 106.462 76.2154 106.576 76.2204L106.783 76.0334L106.604 75.8262C106.599 75.8262 106.291 75.7504 105.707 74.9014C105.315 74.3354 107.221 68.938 109.288 64.046L109.252 63.9575L109.558 64.0788C109.568 64.051 110.637 61.3953 112.224 60.7939C112.428 60.7156 112.631 60.6777 112.833 60.6777C113.108 60.6777 113.384 60.7484 113.667 60.8899C114.639 61.3827 115.077 62.3884 115.248 63.4269C114.968 64.9986 114.882 66.5804 115.114 67.9904C114.233 72.6828 113.113 77.1705 112.545 77.4081C111.903 77.6759 111.554 77.7163 111.403 77.7163C111.337 77.7163 111.307 77.7062 111.304 77.7062L111.034 77.782L111.107 78.0524C111.145 78.0726 111.236 78.1105 111.413 78.1105C111.655 78.1105 112.054 78.0423 112.699 77.7719C113.545 77.4182 114.652 72.4327 115.307 69.0921C116.519 76.2002 116.853 81.9311 116.878 82.9495ZM103.822 75.4118L100.926 73.7416C100.792 72.2229 100.595 70.3328 100.312 68.1976C100.193 67.2905 100.057 66.3353 99.9053 65.3473C100.11 65.2816 100.305 65.1376 100.476 64.9279C101.007 64.281 101.194 63.1591 100.901 62.3757C100.838 62.2064 100.754 62.0624 100.653 61.9462L101.987 57.4281C102.174 56.7989 102.369 56.238 102.569 55.7326L103.812 56.1293L102.45 58.0371L104.07 64.2406C103.999 64.3719 103.958 64.4452 103.958 64.4452L104.062 64.377L103.688 70.818L103.822 75.4118ZM99.3519 61.9032C99.079 59.3056 99.7815 56.2304 100.704 53.7414C101.654 51.1665 102.839 49.2234 103.425 49.0768C103.514 49.0516 103.602 49.0263 103.691 48.9934C102.806 50.315 102.334 53.4559 102.159 54.8684C101.864 55.5431 101.576 56.3289 101.305 57.2361L100.016 61.6303C100.011 61.6278 100.009 61.6278 100.006 61.6278C99.9887 61.6278 99.9684 61.6303 99.9482 61.6303C99.741 61.648 99.5363 61.7415 99.3519 61.9032ZM115.592 61.8324C115.294 61.2058 114.847 60.6499 114.187 60.2708L114.72 58.3782C114.938 57.6101 115.317 57.0466 115.721 56.4527C116.118 55.864 116.555 55.2171 116.878 54.2973C117.578 53.2664 118.129 52.2986 118.306 51.6138C119.117 52.1975 120.001 52.9227 120.77 53.7616C120.964 53.9714 121.159 54.1988 121.341 54.4388C121.159 54.1988 120.964 53.9714 120.77 53.7616C120.517 53.9234 120.264 54.08 120.012 54.2139C119.789 54.2544 119.564 54.3352 119.337 54.4692C119.291 54.4944 119.246 54.5222 119.2 54.55C119.17 54.5576 119.14 54.5677 119.107 54.5728C118.958 54.6132 118.768 54.7749 118.551 55.0352C117.912 55.6138 117.497 56.3365 117.267 57.1881C116.651 58.4667 116.029 60.1015 115.592 61.8324ZM111.385 60.3315L110.351 57.9259L112.431 59.9171C112.431 59.9171 113.138 59.1236 114.063 58.0017C114.053 58.0624 114.048 58.123 114.043 58.1862L113.535 59.9878C113.303 59.9196 113.07 59.8868 112.835 59.8868C112.537 59.8868 112.239 59.9398 111.941 60.051C111.749 60.1268 111.562 60.2203 111.385 60.3315ZM108.014 58.5677L108.12 57.1906L109.293 55.8236C109.308 56.4123 109.381 56.8722 109.472 57.226C108.951 57.7035 108.454 58.1584 108.014 58.5677ZM104.992 57.7794C105.101 56.9505 105.184 56.2354 105.222 55.7781C105.234 55.629 105.255 55.4647 105.28 55.2879C105.406 55.0983 105.74 54.6258 106.179 54.2038L106.455 56.19L104.992 57.7794ZM107.688 50.0067L107.612 49.9107C107.658 49.9031 107.701 49.8981 107.744 49.8905C107.726 49.9258 107.708 49.9638 107.688 50.0067Z" fill="url(#paint1_linear)"/>
<path fill-rule="evenodd" clip-rule="evenodd" d="M99.6601 64.9329C99.4605 64.9329 99.2811 64.7813 99.1649 64.4857C98.8515 63.7023 98.9501 62.6031 99.5161 62.3681C99.7309 62.2772 99.8294 62.0801 99.9811 62.0675C99.9886 62.0675 99.9987 62.0675 100.006 62.0675C100.203 62.0675 100.378 62.2342 100.489 62.5299C100.726 63.1591 100.565 64.1294 100.138 64.6499C99.9811 64.8394 99.8143 64.9329 99.6601 64.9329Z" fill="url(#paint2_linear)"/>
<path fill-rule="evenodd" clip-rule="evenodd" d="M99.645 65.3903C99.2584 65.3877 98.9299 65.1148 98.753 64.6423C98.4573 63.8565 98.6443 62.7371 99.175 62.0902C99.2331 62.022 99.2912 61.9588 99.3518 61.9032C99.5363 61.7415 99.741 61.648 99.9482 61.6303C99.9684 61.6303 99.9886 61.6278 100.006 61.6278C100.009 61.6278 100.011 61.6278 100.016 61.6303C100.259 61.6303 100.479 61.744 100.653 61.9461C100.754 62.0624 100.838 62.2064 100.901 62.3757C101.194 63.159 101.007 64.281 100.476 64.9279C100.304 65.1376 100.11 65.2816 99.9052 65.3473C99.8395 65.3675 99.7738 65.3827 99.7056 65.3877C99.6854 65.3877 99.6652 65.3903 99.645 65.3903ZM100.006 62.0674C99.9987 62.0674 99.9886 62.0674 99.981 62.0674C99.8294 62.0801 99.7309 62.2772 99.5161 62.3681C98.9501 62.6031 98.8515 63.7023 99.1649 64.4856C99.2811 64.7813 99.4605 64.9329 99.6601 64.9329C99.8143 64.9329 99.981 64.8394 100.138 64.6499C100.565 64.1294 100.726 63.159 100.489 62.5299C100.378 62.2342 100.203 62.0674 100.006 62.0674Z" fill="url(#paint3_linear)"/>
<path fill-rule="evenodd" clip-rule="evenodd" d="M107.453 53.375C107.974 53.135 108.433 52.9909 108.433 52.9909C108.433 52.9909 108.269 52.622 107.88 52.1065C107.493 51.5911 107.688 50.0067 107.688 50.0067C107.708 49.9637 107.726 49.9258 107.744 49.8905C108.997 49.7035 110.538 49.2865 111.304 48.5942C111.999 47.97 112.815 46.6333 113.315 45.7464C113.384 45.7995 113.459 45.8172 113.55 45.8172C113.667 45.8172 113.808 45.7894 114.005 45.7717C114.043 45.7666 114.081 45.7565 114.119 45.7413C114.207 46.4388 114.344 47.1362 114.546 47.6896C114.814 48.6675 115.2 50.9063 113.449 51.7022C111.178 52.7332 108.433 52.9909 108.433 52.9909C108.433 52.9909 108.484 53.0263 108.562 53.1097L108.413 53.0162L107.453 53.375Z" fill="#BA7647"/>
<path fill-rule="evenodd" clip-rule="evenodd" d="M106.389 50.0067C105.295 50.0067 104.469 49.193 104.451 48.291C104.449 48.2354 104.451 48.1747 104.459 48.1166C104.464 48.0661 104.466 48.0105 104.469 47.9524C104.504 46.9416 104.095 45.1551 103.885 44.6902C103.663 44.2 103.516 43.4874 103.774 42.6333C104.032 41.7818 103.589 42.1254 103.534 41.6453C103.514 41.4785 103.491 40.9782 103.617 40.2858C106.238 40.4375 108.661 40.6371 110.902 40.8695C111.061 41.7919 111.349 42.6181 111.86 42.934C112.62 43.4091 112.994 44.0888 113.179 44.6219L113.154 44.67C113.154 44.67 112.934 45.1576 113.146 45.5342C113.204 45.6352 113.257 45.7035 113.315 45.7464C112.815 46.6333 111.999 47.97 111.304 48.5942C110.538 49.2865 108.997 49.7035 107.744 49.8905C107.701 49.8981 107.658 49.9031 107.612 49.9107C107.165 49.9713 106.761 50.0042 106.45 50.0067C106.43 50.0067 106.409 50.0067 106.389 50.0067Z" fill="#CE8F64"/>
<path fill-rule="evenodd" clip-rule="evenodd" d="M113.179 44.622C112.994 44.0888 112.621 43.4091 111.86 42.934C111.349 42.6181 111.061 41.7919 110.902 40.8695C112.974 41.0843 114.89 41.3294 116.658 41.5872C116.471 42.2366 116.138 42.8658 115.607 43.452C115.572 43.4924 115.534 43.5329 115.499 43.5733C115.62 42.9289 115.433 42.4867 115.112 42.2669C115.072 42.2391 115.029 42.2265 114.986 42.2265C114.907 42.2265 114.826 42.2644 114.748 42.325C114.404 42.368 114.005 43.1109 113.993 43.1387L113.179 44.622Z" fill="url(#paint4_linear)"/>
<path fill-rule="evenodd" clip-rule="evenodd" d="M114.258 45.6681C114.657 45.3851 115.031 44.5916 115.223 43.9372C115.458 43.1488 115.266 42.6131 114.902 42.3629C114.864 42.3377 114.821 42.3225 114.776 42.3225C114.766 42.3225 114.758 42.3225 114.748 42.325C114.826 42.2644 114.907 42.2265 114.986 42.2265C115.029 42.2265 115.071 42.2391 115.112 42.2669C115.433 42.4867 115.62 42.9289 115.499 43.5733C115.481 43.6592 115.461 43.7477 115.433 43.8411C115.205 44.6043 114.733 45.567 114.258 45.6681Z" fill="#A36138"/>
<path fill-rule="evenodd" clip-rule="evenodd" d="M113.55 45.8172C113.459 45.8172 113.384 45.7995 113.315 45.7464C113.257 45.7034 113.204 45.6352 113.146 45.5342C112.934 45.1576 113.154 44.67 113.154 44.67L113.179 44.6219L113.992 43.1387C114.005 43.1109 114.404 42.368 114.748 42.325C114.758 42.3225 114.766 42.3225 114.776 42.3225C114.821 42.3225 114.864 42.3377 114.902 42.3629C115.266 42.6131 115.458 43.1488 115.223 43.9372C115.031 44.5916 114.657 45.3851 114.258 45.6681C114.21 45.6984 114.164 45.7237 114.119 45.7413C114.081 45.7565 114.043 45.7666 114.005 45.7717C113.808 45.7894 113.667 45.8172 113.55 45.8172ZM114.794 42.8405C114.821 42.8405 114.859 42.8809 114.925 42.9416C115.064 43.073 114.9 43.9372 114.718 44.5082C114.533 45.0768 113.942 45.3952 113.942 45.3952C113.942 45.3952 114.235 45.2587 114.473 45.0111C114.713 44.766 114.925 44.2303 115.039 43.7375C115.15 43.2448 115.029 42.9669 114.869 42.7243C114.829 42.6611 114.788 42.6333 114.748 42.6333C114.637 42.6333 114.531 42.8481 114.414 43.025C114.26 43.265 114.245 43.5354 114.268 43.8336C114.291 44.1343 114.159 44.9479 114.159 44.9479C114.159 44.9479 114.268 44.8317 114.389 44.6599C114.513 44.4855 114.498 44.1621 114.468 43.9675C114.437 43.7729 114.344 43.3282 114.344 43.3282L114.42 43.1741L114.622 43.4217C114.637 43.4318 114.649 43.4368 114.66 43.4368C114.735 43.4368 114.687 43.1816 114.725 42.9972C114.748 42.886 114.766 42.8405 114.794 42.8405ZM113.702 44.3314C113.732 44.3314 113.768 44.3415 113.808 44.3693C113.982 44.488 113.891 44.6902 114.018 44.6902H114.02L114.086 44.301L114.109 44.2682L114.01 43.8437C113.919 43.8689 113.902 43.874 113.823 44.0307C113.757 44.1671 113.735 44.2303 113.654 44.2303C113.639 44.2303 113.621 44.2278 113.601 44.2227C113.53 44.2075 113.474 44.1671 113.457 44.1671C113.439 44.1671 113.447 44.1924 113.485 44.2783C113.515 44.3415 113.54 44.3592 113.568 44.3592C113.588 44.3592 113.606 44.3516 113.629 44.344C113.649 44.3364 113.674 44.3314 113.702 44.3314Z" fill="#CE8F64"/>
<path fill-rule="evenodd" clip-rule="evenodd" d="M113.942 45.3952C113.942 45.3952 114.533 45.0768 114.718 44.5082C114.9 43.9372 115.064 43.073 114.925 42.9416C114.859 42.8809 114.821 42.8405 114.794 42.8405C114.766 42.8405 114.748 42.886 114.725 42.9972C114.687 43.1816 114.735 43.4368 114.66 43.4368C114.649 43.4368 114.637 43.4318 114.622 43.4217L114.42 43.174L114.344 43.3282C114.344 43.3282 114.437 43.7729 114.468 43.9675C114.498 44.1621 114.513 44.4855 114.389 44.6598C114.268 44.8317 114.159 44.9479 114.159 44.9479C114.159 44.9479 114.291 44.1343 114.268 43.8336C114.245 43.5354 114.26 43.265 114.414 43.025C114.531 42.8481 114.637 42.6333 114.748 42.6333C114.788 42.6333 114.829 42.6611 114.869 42.7243C115.029 42.9668 115.15 43.2448 115.039 43.7375C114.925 44.2303 114.713 44.766 114.473 45.0111C114.235 45.2587 113.942 45.3952 113.942 45.3952Z" fill="#A36138"/>
<path fill-rule="evenodd" clip-rule="evenodd" d="M114.018 44.6902C113.891 44.6902 113.982 44.488 113.808 44.3693C113.768 44.3415 113.732 44.3314 113.702 44.3314C113.674 44.3314 113.649 44.3364 113.629 44.344C113.606 44.3516 113.588 44.3592 113.568 44.3592C113.54 44.3592 113.515 44.3415 113.485 44.2783C113.447 44.1924 113.439 44.1671 113.457 44.1671C113.475 44.1671 113.53 44.2076 113.601 44.2227C113.621 44.2278 113.639 44.2303 113.654 44.2303C113.735 44.2303 113.758 44.1671 113.823 44.0307C113.902 43.874 113.919 43.869 114.01 43.8437L114.109 44.2682L114.086 44.301L114.02 44.6902H114.018Z" fill="#A36138"/>
<path fill-rule="evenodd" clip-rule="evenodd" d="M115.923 66.8685L115.731 66.8281C115.759 66.6638 115.784 66.5223 115.802 66.4111L115.643 66.1812L115.413 66.3429C115.39 66.4743 115.367 66.6082 115.342 66.7396L115.147 66.6967C115.155 66.6714 115.509 65.0112 115.248 63.4269C115.077 62.3884 114.639 61.3827 113.667 60.8899C113.384 60.7484 113.108 60.6777 112.833 60.6777C112.631 60.6777 112.428 60.7156 112.224 60.7939C110.637 61.3953 109.568 64.051 109.558 64.0788L109.252 63.9575L109.181 63.7857L108.999 63.859L108.82 63.7882C108.858 63.6897 109.583 61.8855 110.821 60.7636C110.998 60.6044 111.188 60.4578 111.385 60.3315C111.562 60.2203 111.749 60.1268 111.941 60.051C112.239 59.9398 112.537 59.8868 112.835 59.8868C113.07 59.8868 113.303 59.9196 113.535 59.9878C113.699 60.0358 113.864 60.1015 114.025 60.1824C114.081 60.2102 114.134 60.2405 114.187 60.2708C114.847 60.6499 115.294 61.2058 115.592 61.8324C116.565 63.8792 115.956 66.7118 115.923 66.8685Z" fill="url(#paint5_linear)"/>
<path fill-rule="evenodd" clip-rule="evenodd" d="M111.413 78.1105C111.236 78.1105 111.145 78.0726 111.107 78.0524L111.034 77.782L111.304 77.7062C111.306 77.7062 111.337 77.7163 111.402 77.7163C111.554 77.7163 111.903 77.6759 112.545 77.4081C113.113 77.1705 114.233 72.6828 115.114 67.9904C115.193 67.5735 115.269 67.1566 115.342 66.7396C115.367 66.6082 115.39 66.4743 115.413 66.3429L115.643 66.1812L115.802 66.4111C115.784 66.5223 115.759 66.6638 115.731 66.8281C115.632 67.3663 115.486 68.1648 115.306 69.0921C114.652 72.4327 113.545 77.4182 112.699 77.7719C112.054 78.0423 111.655 78.1105 111.413 78.1105Z" fill="url(#paint6_linear)"/>
<defs>
<linearGradient id="paint0_linear" x1="173.007" y1="42.5449" x2="169.151" y2="70.934" gradientUnits="userSpaceOnUse">
<stop stop-color="#54ACFB"/>
<stop offset="0.321569" stop-color="#4DA6F5"/>
<stop offset="1" stop-color="#459FEF"/>
</linearGradient>
<linearGradient id="paint1_linear" x1="123.026" y1="42.5449" x2="119.173" y2="70.9317" gradientUnits="userSpaceOnUse">
<stop stop-color="#A9E5FF"/>
<stop offset="0.321569" stop-color="#A2DFF9"/>
<stop offset="1" stop-color="#9BD8F3"/>
</linearGradient>
<linearGradient id="paint2_linear" x1="101.864" y1="42.5474" x2="98.5205" y2="70.9317" gradientUnits="userSpaceOnUse">
<stop stop-color="#89CDFC"/>
<stop offset="0.321569" stop-color="#82C7F6"/>
<stop offset="1" stop-color="#7BC0F0"/>
</linearGradient>
<linearGradient id="paint3_linear" x1="101.997" y1="42.5449" x2="98.5458" y2="70.9317" gradientUnits="userSpaceOnUse">
<stop stop-color="#2E87D7"/>
<stop offset="0.321569" stop-color="#2781D1"/>
<stop offset="1" stop-color="#207ACB"/>
</linearGradient>
<linearGradient id="paint4_linear" x1="130.185" y1="42.5449" x2="126.291" y2="70.9292" gradientUnits="userSpaceOnUse">
<stop stop-color="#631718"/>
<stop offset="0.321569" stop-color="#5C1112"/>
<stop offset="1" stop-color="#550A0C"/>
</linearGradient>
<linearGradient id="paint5_linear" x1="126.96" y1="42.5449" x2="123.279" y2="70.9317" gradientUnits="userSpaceOnUse">
<stop stop-color="#113F8D"/>
<stop offset="0.321569" stop-color="#0A3987"/>
<stop offset="1" stop-color="#033281"/>
</linearGradient>
<linearGradient id="paint6_linear" x1="129.459" y1="42.5449" x2="125.566" y2="70.9317" gradientUnits="userSpaceOnUse">
<stop stop-color="white"/>
<stop offset="0.321569" stop-color="#F8F9F9"/>
<stop offset="1" stop-color="#F1F2F3"/>
</linearGradient>
</defs>
</svg>
