<svg width="140" height="128" viewBox="0 0 140 128" fill="none" xmlns="http://www.w3.org/2000/svg">
<path d="M55.2713 92.5672L77.1185 79.9541L47.2248 62.7002L25.3805 75.3133L55.2713 92.5672Z" fill="#C1BDB4"/>
<path d="M52.2635 89.6337C52.2635 88.452 53.1009 87.0119 54.1282 86.4181C54.6894 86.0944 55.1912 86.0885 55.5326 86.3409L56.8866 87.0772L54.1995 91.5933L52.8218 90.8362L52.8069 90.8273L52.801 90.8243C52.4714 90.6284 52.2635 90.2186 52.2635 89.6337Z" fill="#403E44"/>
<path d="M57.3973 88.253C57.3973 89.4348 56.5629 90.8719 55.5326 91.4687C54.5053 92.0625 53.668 91.5874 53.668 90.4057C53.668 89.224 54.5053 87.7839 55.5326 87.1901C56.5629 86.5962 57.3973 87.0713 57.3973 88.253Z" fill="#27252A"/>
<path d="M56.6846 88.6628C56.6846 89.3932 56.1709 90.2839 55.5325 90.6492C54.8971 91.0173 54.3805 90.7234 54.3805 89.993C54.3805 89.2655 54.8971 88.3748 55.5325 88.0066C56.1709 87.6414 56.6846 87.9353 56.6846 88.6628Z" fill="#807F83"/>
<path d="M24.754 73.7634C24.754 72.5817 25.5913 71.1416 26.6187 70.5478C27.1799 70.2241 27.6816 70.2182 28.0231 70.4706L29.377 71.207L26.6899 75.7231L25.3122 74.9689L25.2974 74.957H25.2944C24.9619 74.7611 24.754 74.3483 24.754 73.7634Z" fill="#403E44"/>
<path d="M29.8877 72.3857C29.8877 73.5645 29.0534 75.0045 28.0231 75.5984C26.9958 76.1952 26.1584 75.7171 26.1584 74.5354C26.1584 73.3536 26.9958 71.9166 28.0231 71.3198C29.0534 70.7259 29.8877 71.204 29.8877 72.3857Z" fill="#27252A"/>
<path d="M29.1752 72.7955C29.1752 73.5259 28.6615 74.4137 28.0231 74.7819C27.3877 75.15 26.8711 74.8561 26.8711 74.1257C26.8711 73.3952 27.3877 72.5075 28.0231 72.1393C28.6615 71.7711 29.1752 72.0651 29.1752 72.7955Z" fill="#807F83"/>
<path d="M70.9753 78.8377C70.9753 77.656 71.8097 76.2189 72.84 75.6251C73.3982 75.3015 73.903 75.2955 74.2444 75.5449L75.5984 76.2813L72.9083 80.8004L71.5335 80.0403L71.5157 80.0343L71.5128 80.0314C71.1802 79.8354 70.9753 79.4256 70.9753 78.8377Z" fill="#403E44"/>
<path d="M76.1091 77.4601C76.1091 78.6418 75.2718 80.0789 74.2444 80.6727C73.2141 81.2695 72.3798 80.7945 72.3798 79.6127C72.3798 78.431 73.2141 76.9909 74.2444 76.3971C75.2718 75.8033 76.1091 76.2783 76.1091 77.4601Z" fill="#27252A"/>
<path d="M75.3964 77.8698C75.3964 78.6002 74.8797 79.491 74.2443 79.8562C73.6089 80.2244 73.0923 79.9304 73.0923 79.2C73.0923 78.4696 73.6089 77.5818 74.2443 77.2136C74.8797 76.8454 75.3964 77.1394 75.3964 77.8698Z" fill="#807F83"/>
<path d="M55.2713 82.2078L77.1185 69.5947L47.2248 52.3408L25.3805 64.9538L55.2713 82.2078Z" fill="#A3A2A5"/>
<path d="M30.7102 64.7252H41.04L55.5979 73.2824L55.6721 57.2161L49.6833 53.7689L30.7102 64.7252Z" fill="#646869"/>
<path d="M25.3805 64.9539V69.9807L55.2713 87.2346V82.2078L25.3805 64.9539Z" fill="#CED1D1"/>
<path d="M77.1185 69.5947V74.6215L55.2712 87.2346V82.2078L77.1185 69.5947Z" fill="#727276"/>
<path d="M30.7101 29.1217L49.6832 18.1654L48.1006 17.2539L29.1276 28.2072L30.7101 29.1217Z" fill="#A9A9AB"/>
<path d="M29.1276 28.2072V63.8107L30.7101 64.7252V29.1217L29.1276 28.2072Z" fill="#CED1D1"/>
<path d="M49.6833 18.1655V53.7689L30.7102 64.7252V29.1218L49.6833 18.1655Z" fill="#646869"/>
<path d="M48.5729 54.4251L32.2483 63.8493V29.9472L48.5729 20.523V54.4251Z" fill="#4C7898"/>
<path d="M55.8562 62.1628L74.951 51.1382L75.0074 48.7718L52.4 35.7222L31.2268 47.9464L55.8562 62.1628Z" fill="#8D8B8E"/>
<path d="M30.9685 47.9196L40.7817 48.169L55.3396 56.7292L55.4108 40.66L49.4249 37.2157L30.9685 47.9196Z" fill="#646869"/>
<path d="M54.1519 58.4513H56.8983L71.1801 50.2059L67.3558 48.368L54.1519 58.4513Z" fill="#646869"/>
<path d="M54.1519 58.4513L67.4211 50.7908V44.3685L56.3995 50.7315L54.1519 54.9032V58.4513Z" fill="#989B9B"/>
<path d="M56.3996 50.7314L67.4212 44.3685L47.786 33.0381L36.7673 39.3981L56.3996 50.7314Z" fill="#C2C4C4"/>
<path d="M58.1811 49.7041L69.2027 43.3412L49.5675 32.0078L38.5488 38.3707L58.1811 49.7041Z" fill="#646869"/>
<path d="M57.1656 44.7278H60.9721L63.9265 46.3875L67.4212 44.3685L58.1069 38.9943L57.1656 44.7278Z" fill="#646869"/>
<path d="M36.7674 39.3981L34.5167 43.5698L54.1519 54.9032L56.3996 50.7315L36.7674 39.3981Z" fill="#DDDEDE"/>
<path d="M38.1451 40.9332L36.5803 43.8341L42.967 47.5218L44.5318 44.6179L38.1451 40.9332Z" fill="#72BD73"/>
<path d="M52.4238 49.3359L51.7083 50.6602L54.624 52.3437L55.3396 51.0195L52.4238 49.3359Z" fill="#D7ACB1"/>
<path d="M38.1451 40.9332L38.6231 41.2063L37.1267 43.9825L43.0353 47.3941L42.967 47.5218L36.5803 43.8341L38.1451 40.9332Z" fill="#5D9655"/>
<path d="M34.5167 43.5698V47.118L54.1519 58.4513V54.9032L34.5167 43.5698Z" fill="#CED1D1"/>
<path d="M49.1993 47.3407L49.0093 47.305L48.8519 48.8401H49.0924L49.7308 47.6465L49.1993 47.3407Z" fill="#ADAFB0"/>
<path d="M47.9879 46.6429L47.7978 46.6102L47.6434 48.1423H47.8839L48.5193 46.9487L47.9879 46.6429Z" fill="#ADAFB0"/>
<path d="M46.7795 45.9451L46.5895 45.9095L46.4351 47.4446H46.6756L47.3139 46.251L46.7795 45.9451Z" fill="#ADAFB0"/>
<path d="M45.571 45.2474L45.381 45.2147L45.2266 46.7468H45.4671L46.1025 45.5532L45.571 45.2474Z" fill="#ADAFB0"/>
<path d="M48.4452 48.7362L48.2551 48.6976L48.0978 50.2356H48.3383L48.9767 49.042L48.4452 48.7362Z" fill="#ADAFB0"/>
<path d="M47.2367 48.0384L47.0466 47.9998L46.8893 49.5379H47.1298L47.7682 48.3442L47.2367 48.0384Z" fill="#ADAFB0"/>
<path d="M46.0282 47.3406L45.8382 47.308L45.6808 48.8401H45.9213L46.5597 47.6465L46.0282 47.3406Z" fill="#ADAFB0"/>
<path d="M44.8198 46.6429L44.6298 46.6073L44.4724 48.1423H44.7129L45.3513 46.9487L44.8198 46.6429Z" fill="#ADAFB0"/>
<path d="M48.843 47.1744L48.2046 48.368L48.7361 48.6738L49.3744 47.4802L48.843 47.1744Z" fill="#F9AF89"/>
<path d="M48.2046 48.368L48.3204 48.5343L48.8519 48.8401L48.7361 48.6738L48.2046 48.368Z" fill="#F69566"/>
<path d="M48.7361 48.6738L48.8519 48.8401L49.4903 47.6465L49.3745 47.4802L48.7361 48.6738Z" fill="#B56C47"/>
<path d="M47.6316 46.4766L46.9962 47.6702L47.5277 47.9761L48.1661 46.7824L47.6316 46.4766Z" fill="#F9AF89"/>
<path d="M46.9962 47.6702L47.112 47.8365L47.6435 48.1423L47.5277 47.9761L46.9962 47.6702Z" fill="#F69566"/>
<path d="M47.5277 47.976L47.6435 48.1423L48.2789 46.9487L48.1661 46.7824L47.5277 47.976Z" fill="#B56C47"/>
<path d="M46.4231 45.7789L45.7877 46.9725L46.3192 47.2783L46.9546 46.0847L46.4231 45.7789Z" fill="#9CA2A1"/>
<path d="M45.7877 46.9725L45.9035 47.1387L46.435 47.4446L46.3192 47.2783L45.7877 46.9725Z" fill="#636465"/>
<path d="M46.3192 47.2783L46.435 47.4446L47.0704 46.251L46.9546 46.0847L46.3192 47.2783Z" fill="#76797C"/>
<path d="M45.2147 45.0811L44.5763 46.2747L45.1107 46.5805L45.7462 45.3869L45.2147 45.0811Z" fill="#E6EFE7"/>
<path d="M44.5763 46.2747L44.6921 46.441L45.2265 46.7468L45.1107 46.5805L44.5763 46.2747Z" fill="#B2B3B3"/>
<path d="M45.1107 46.5805L45.2265 46.7468L45.8619 45.5532L45.7461 45.3869L45.1107 46.5805Z" fill="#CECECF"/>
<path d="M48.0235 48.6293L47.4089 49.7813L47.9226 50.0753L48.5372 48.9232L48.0235 48.6293Z" fill="#F9AF89"/>
<path d="M47.4089 49.7813L47.5218 49.9387L48.0354 50.2356L47.9226 50.0753L47.4089 49.7813Z" fill="#F69566"/>
<path d="M47.9226 50.0753L48.0354 50.2356L48.6471 49.0865L48.5372 48.9232L47.9226 50.0753Z" fill="#B56C47"/>
<path d="M46.8596 47.9553L46.245 49.1073L46.7557 49.4042L47.3703 48.2522L46.8596 47.9553Z" fill="#F9AF89"/>
<path d="M46.245 49.1073L46.3549 49.2676L46.8685 49.5616L46.7557 49.4042L46.245 49.1073Z" fill="#F69566"/>
<path d="M46.7556 49.4042L46.8684 49.5616L47.4831 48.4125L47.3702 48.2522L46.7556 49.4042Z" fill="#B56C47"/>
<path d="M45.6927 47.2813L45.0781 48.4333L45.5918 48.7302L46.2064 47.5782L45.6927 47.2813Z" fill="#9CA2A1"/>
<path d="M45.0781 48.4333L45.191 48.5936L45.7017 48.8906L45.5918 48.7302L45.0781 48.4333Z" fill="#636465"/>
<path d="M45.5918 48.7302L45.7017 48.8906L46.3163 47.7385L46.2064 47.5782L45.5918 48.7302Z" fill="#76797C"/>
<path d="M44.5257 46.6102L43.9111 47.7623L44.4248 48.0562L45.0394 46.9071L44.5257 46.6102Z" fill="#E6EFE7"/>
<path d="M43.9111 47.7623L44.024 47.9226L44.5376 48.2166L44.4248 48.0562L43.9111 47.7623Z" fill="#B2B3B3"/>
<path d="M44.4248 48.0562L44.5376 48.2166L45.1523 47.0675L45.0394 46.9072L44.4248 48.0562Z" fill="#CECECF"/>
<path d="M31.2268 47.9464V49.4309L55.8562 63.6444V62.1628L31.2268 47.9464Z" fill="#ADAFB0"/>
<path d="M56.0135 43.3827L74.3156 32.8184L49.6862 18.6019L31.3842 29.1663L56.0135 43.3827Z" fill="#A9A9AB"/>
<path d="M31.3842 29.1663V30.6509L56.0135 44.8673V43.3827L31.3842 29.1663Z" fill="#CED1D1"/>
<path d="M74.3156 32.8184V34.303L56.0135 44.8673V43.3827L74.3156 32.8184Z" fill="#727276"/>
<path d="M57.2547 44.4308L76.2278 33.4775L74.6452 32.563L55.6721 43.5163L57.2547 44.4308Z" fill="#A9A9AB"/>
<path d="M55.6721 43.5164V79.1198L57.2547 80.0343V44.4309L55.6721 43.5164Z" fill="#CED1D1"/>
<path d="M76.2278 33.4775V69.081L57.2548 80.0343V44.4309L76.2278 33.4775Z" fill="#535657"/>
<path d="M74.9035 69.8441L58.579 79.2713V45.3691L74.9035 35.9449V69.8441Z" fill="#4C7898"/>
<path d="M73.3269 69.8441V36.8535L74.9035 35.9449V69.8441L58.579 79.2713V78.3597L73.3269 69.8441Z" fill="#8D8B8E"/>
<path d="M74.9035 69.8441L73.3269 69.1731V36.8535L74.9035 35.9449V69.8441Z" fill="#646869"/>
<path d="M55.2713 83.1668L55.004 86.617L25.7071 69.7372L25.3805 67.0323V69.9807L55.2713 87.2346V83.1668Z" fill="#B2B6B7"/>
<path d="M55.2713 82.2078V87.2346L54.8378 82.6888L25.8882 65.8624L25.3805 69.9807V64.9539L55.2713 82.2078Z" fill="#D4D7D6"/>
<path d="M40.6985 23.7891L65.1467 37.9046V15.8376L40.6985 1.72214V23.7891Z" fill="#D0D0D0"/>
<path d="M41.3724 22.6667L64.4727 36.0043V16.2296L41.3724 2.89496V22.6667Z" fill="#4D4647"/>
<path d="M68.1278 14.1155V36.1824L65.1467 37.9046V15.8376L68.1278 14.1155Z" fill="#6C6D71"/>
<path d="M43.6825 0L68.1278 14.1155L65.1467 15.8376L40.6985 1.72212L43.6825 0Z" fill="#DBDBDB"/>
<path d="M42.1296 22.1679L63.7156 34.6296V32.4829L42.1296 20.0212V22.1679Z" fill="#92CA68"/>
<path d="M62.5932 26.9097L63.2315 23.3051L63.5819 25.1727L63.7749 25.1371L63.2256 22.2125L62.6615 25.3865L62.415 22.4025L61.9548 24.5522L61.5332 21.3989L60.684 24.4037L60.2831 20.8496L59.4933 23.5961L58.7451 19.3324L57.8187 22.9162L57.4446 19.5254L56.8419 21.4909L56.4588 18.1031L55.4582 21.4048L55.2385 18.0437L54.805 19.5254L54.3596 16.5384L53.4748 19.0117L52.9968 16.5176L52.0407 18.8098L51.6013 15.0983L50.7729 17.8745L50.6274 15.7218L50.4314 15.7367L50.6511 18.9731L51.5181 16.0663L51.9338 19.5758L52.9285 17.1975L53.4154 19.754L54.2795 17.34L54.7426 20.4428L55.1138 19.1691L55.3305 22.4975L56.3698 19.0711L56.7528 22.453L57.3526 20.4933L57.7415 23.9999L58.7095 20.2587L59.4458 24.469L60.197 21.8532L60.6008 25.4222L61.4619 22.3639L61.9132 25.6983L62.3289 23.7475L62.5932 26.9097Z" fill="#F9A24F"/>
<path d="M63.3919 30.6004L63.5849 30.5677C63.57 30.4816 63.2167 28.3943 62.2785 27.8836C62.0112 27.7411 61.7262 27.7322 61.4263 27.8658C60.687 28.1864 60.1585 28.2488 59.7665 28.0528C59.4043 27.8717 59.1519 27.4649 58.9945 26.8117C58.7748 25.8824 58.2166 25.1905 57.5396 25.0035C57.0408 24.8639 56.536 25.0213 56.1233 25.4429C55.8591 25.7131 55.5414 25.7992 55.1791 25.6953C54.4457 25.4845 53.6797 24.5136 53.5372 23.8514C53.3857 23.1477 53.1007 21.8413 51.9784 21.8413H51.9754C51.5033 21.8413 51.239 22.061 51.0252 22.2362C50.7521 22.4619 50.571 22.6103 50.0573 22.2926L49.9534 22.4589C50.5888 22.8538 50.8619 22.6252 51.1529 22.3876C51.3608 22.2154 51.5746 22.0373 51.9754 22.0373H51.9784C52.7771 22.0373 53.1037 22.7796 53.3442 23.893C53.5045 24.6234 54.3151 25.6508 55.1227 25.8824C55.5562 26.0071 55.9511 25.9031 56.2659 25.5825C56.6251 25.2113 57.0616 25.0747 57.4892 25.1935C58.0949 25.3598 58.5996 25.9982 58.8045 26.8563C58.9738 27.5718 59.2588 28.0202 59.6774 28.228C60.1288 28.4507 60.7078 28.3913 61.5035 28.0439C61.747 27.937 61.9697 27.94 62.1834 28.0558C63.0386 28.522 63.3889 30.5796 63.3919 30.6004Z" fill="#82C0D3"/>
<path d="M46.2598 21.4108L47.5454 22.1531V16.9362L46.2598 16.1939V21.4108Z" fill="#82C0D3"/>
<path d="M42.1296 19.1423L43.4153 19.8846V17.4647L42.1296 16.7224V19.1423Z" fill="#87C885"/>
<path d="M44.1873 20.2825L45.4759 21.0248V14.3234L44.1873 13.5811V20.2825Z" fill="#B8BEAB"/>
<path d="M44.7485 74.1524C44.7485 74.1524 46.3875 76.7682 46.5568 77.0681C46.726 77.371 50.2504 79.5533 50.3484 79.8116C50.4464 80.067 51.2896 81.3616 51.1204 82.3948C50.9512 83.4281 50.4672 83.8794 49.7724 84.2209C49.0746 84.5594 47.2694 84.3575 46.6993 83.9477C46.1322 83.535 44.606 82.0177 44.511 81.9257L42.1861 80.1412C42.1861 80.1412 40.1997 79.004 39.986 78.7279C39.7692 78.4517 39.4871 77.0533 39.505 76.6079C39.5198 76.1625 39.7187 74.2385 39.7187 74.2385L44.7485 74.1524Z" fill="#D07439"/>
<path d="M38.2638 77.8461C38.2638 77.8461 39.0447 81.0617 39.1397 81.2933C39.2377 81.5249 41.0519 84.8652 41.1053 85.1206C41.1558 85.3789 41.3815 87.6919 41.1588 88.164C40.9331 88.6361 38.8606 89.3012 38.1807 89.1972C37.4978 89.0933 35.2768 87.8908 34.6503 86.8011C34.0238 85.7144 34.0179 82.763 33.8991 82.6502C33.7804 82.5344 33.3172 81.5368 33.3172 81.4417L33.2697 78.7517L33.5102 76.507C33.5102 76.507 37.2513 76.2249 38.2638 77.8461Z" fill="#D07439"/>
<path d="M95.1682 29.9412C95.1682 29.4335 95.0287 29.1336 94.898 29.0534L94.7169 29.0238C94.5595 29.0238 94.3101 29.095 94.0102 29.2553L93.9805 29.2732L59.3302 49.2825C58.0504 50.0218 56.9222 51.9488 56.9222 53.4156V67.2401C56.9222 67.442 56.9429 67.5994 56.9815 67.7389L56.9934 67.7686C57.0439 67.9587 57.1211 68.0715 57.1924 68.119C57.3319 68.1992 57.6704 68.1576 58.1098 67.9082L92.7632 47.9018C94.0488 47.1625 95.1682 45.2266 95.1682 43.7568V29.9412ZM58.1098 47.1744L92.7632 27.1769C93.9419 26.4881 95.1682 26.4079 96.1183 26.9572C97.0566 27.5065 97.597 28.5843 97.597 29.9412V43.7568C97.597 44.027 97.5762 44.2972 97.5346 44.5674C97.2259 46.6934 95.7769 48.9618 93.9805 50.001L59.3302 70.0074C58.671 70.3874 57.9911 70.5775 57.3616 70.5775C56.8628 70.5775 56.3936 70.4557 55.9839 70.2182C55.5148 69.948 55.1436 69.5472 54.8942 69.0394L54.8853 69.0276C54.624 68.5198 54.4963 67.9201 54.4963 67.2401V53.4156C54.4963 51.0907 56.0848 48.3531 58.1098 47.1744Z" fill="#C4C3C5"/>
<path d="M56.9935 67.7686C57.332 69.7491 58.7394 68.5881 58.7394 68.5881C58.7394 68.5881 91.243 50.0218 93.7401 48.2433C96.2372 46.4647 95.9492 44.5674 95.9492 44.5674C95.9492 44.5674 95.9492 31.3219 95.9492 29.6028C95.9492 28.0142 94.2716 29.0742 94.0103 29.2554C94.3102 29.095 94.5596 29.0238 94.717 29.0238L94.8981 29.0535C95.0288 29.1336 95.1683 29.4335 95.1683 29.9412V43.7569C95.1683 45.2266 94.0489 47.1625 92.7633 47.9018L58.1099 67.9082C57.6705 68.1576 57.332 68.1992 57.1925 68.119C57.1212 68.0715 57.044 67.9587 56.9935 67.7686Z" fill="#B2B3B3"/>
<path d="M54.8943 69.0394C55.1437 69.5472 55.5149 69.948 55.984 70.2182C56.3937 70.4558 56.8629 70.5775 57.3617 70.5775C57.9911 70.5775 58.6711 70.3875 59.3302 70.0074L93.9806 50.0011C95.777 48.9618 97.2259 46.6934 97.5347 44.5674C96.4658 48.1008 94.141 49.3924 94.141 49.3924L61.6967 68.309C61.6967 68.309 59.1699 69.9688 57.522 70.147C55.984 70.3162 55.0041 69.179 54.8943 69.0394Z" fill="#989798"/>
<path d="M93.2027 27.1443C93.2027 27.1443 94.1677 26.5682 95.296 26.7909C96.2699 27.1561 96.5282 27.4382 96.5282 27.4382C96.5282 27.4382 95.5305 27.0166 94.815 27.3313C94.0964 27.649 58.3089 48.3947 58.3089 48.3947C58.3089 48.3947 56.0582 50.3603 55.9662 52.9376C55.8712 55.5118 55.9662 68.3268 55.9662 68.3268C55.9662 68.3268 56.0285 69.0751 56.4026 69.559C55.5149 69.1048 55.1081 68.701 54.9685 68.0923C54.829 67.4836 54.8943 53.1988 54.8943 53.1988C54.8943 53.1988 54.8795 49.6358 57.9941 47.4624C60.3517 46.058 93.2027 27.1443 93.2027 27.1443Z" fill="#E5E4E3"/>
<path d="M116.039 98.9777C116.039 96.9735 117.455 94.5299 119.204 93.5203C120.157 92.971 121.006 92.9621 121.588 93.3897L123.883 94.6397L119.323 102.306L116.986 101.021L116.959 101.006L116.95 101C116.389 100.67 116.039 99.9724 116.039 98.9777Z" fill="#403E44"/>
<path d="M124.753 96.635C124.753 98.6422 123.334 101.086 121.588 102.092C119.839 103.102 118.423 102.294 118.423 100.29C118.423 98.2859 119.839 95.8393 121.588 94.8328C123.334 93.8232 124.753 94.6308 124.753 96.635Z" fill="#27252A"/>
<path d="M68.4011 124.453C68.4011 122.446 69.8174 120.003 71.5633 118.993C72.5164 118.447 73.3686 118.435 73.9476 118.862L76.2427 120.115L71.685 127.779L69.3453 126.493L69.3186 126.478L69.3127 126.475C68.7485 126.146 68.4011 125.445 68.4011 124.453Z" fill="#403E44"/>
<path d="M77.1126 122.111C77.1126 124.115 75.6963 126.558 73.9475 127.565C72.1986 128.575 70.7853 127.767 70.7853 125.763C70.7853 123.759 72.1986 121.315 73.9475 120.305C75.6963 119.299 77.1126 120.103 77.1126 122.111Z" fill="#27252A"/>
<path d="M75.9013 122.808C75.9013 124.047 75.0283 125.558 73.9475 126.178C72.8668 126.802 71.9908 126.303 71.9908 125.065C71.9908 123.827 72.8668 122.315 73.9475 121.692C75.0283 121.068 75.9013 121.567 75.9013 122.808Z" fill="#807F83"/>
<path d="M123.542 97.3357C123.542 98.5739 122.669 100.082 121.588 100.706C120.507 101.329 119.631 100.83 119.631 99.5923C119.631 98.3512 120.507 96.8429 121.588 96.2193C122.669 95.5958 123.542 96.0946 123.542 97.3357Z" fill="#807F83"/>
<path d="M124.346 90.7382L87.9384 69.7194V63.3148L124.346 84.3367V90.7382Z" fill="#EDEDEB"/>
<path d="M98.6334 102.624L62.2252 81.605V75.2005L98.6334 96.2194V102.624Z" fill="#656267"/>
<path d="M92.1605 103.399L59.8766 84.7583V76.5337L96.2847 97.5525L92.1605 103.399Z" fill="#807F83"/>
<path d="M117.874 91.5132L85.5897 72.8727V64.648L121.998 85.6698L117.874 91.5132Z" fill="#807F83"/>
<path d="M75.8835 119.008L39.4753 97.986V91.5815L75.8835 112.6V119.008Z" fill="#EDEDEB"/>
<path d="M69.4106 119.78L37.1237 101.142L35.3154 92.8315L71.7236 113.85L69.4106 119.78Z" fill="#CED1D1"/>
<path d="M72.4747 121.549L124.346 91.5993V84.3367L72.4747 114.284V121.549Z" fill="#75787A"/>
<path d="M69.4641 121.549L66.3999 119.78V112.514L69.4641 114.284V121.549Z" fill="#CED1D1"/>
<path d="M72.4748 114.284L69.4106 112.514L121.282 82.5641L124.346 84.3367L72.4748 114.284Z" fill="#EDEDEB"/>
<path d="M90.1237 103.737L100.581 97.698V78.1697L90.1237 84.206V103.737Z" fill="#75787A"/>
<path d="M90.1236 103.737L87.0564 101.968V82.4394L90.1236 84.206V103.737Z" fill="#C4C3C5"/>
<path d="M90.1236 84.206L87.0564 82.4394L97.5168 76.4001L100.581 78.1697L90.1236 84.206Z" fill="#656267"/>
<path d="M71.9581 101.166L35.553 80.1442V73.897L71.9581 94.9188V101.166Z" fill="#C4C3C5"/>
<path fill-rule="evenodd" clip-rule="evenodd" d="M137.69 63.2792C138.676 63.2792 139.35 62.5013 139.35 61.1503V36.1409C139.35 34.2317 138.002 31.9098 136.339 30.9478L134.834 30.0778C133.637 27.171 131.499 24.4572 129.059 23.0468L111.436 12.8744C110.341 12.2419 109.305 11.942 108.387 11.942C107.351 11.942 106.466 12.328 105.819 13.0466C106.125 12.9634 106.451 12.9219 106.793 12.9219C107.71 12.9219 108.743 13.2218 109.839 13.8542L127.461 24.0296C129.902 25.437 132.04 28.1508 133.239 31.0576L134.742 31.9276C136.407 32.8896 137.755 35.2115 137.755 37.1207V62.1301C137.755 62.5755 137.678 62.9615 137.544 63.2733C137.595 63.2792 137.642 63.2792 137.69 63.2792ZM104.064 14.2164C104.453 13.7176 104.94 13.3583 105.507 13.1446L104.156 12.3666C103.669 12.0875 103.209 11.9539 102.805 11.9539C102.532 11.9539 102.282 12.0133 102.066 12.1291L100.424 13.1297C100.652 13.002 100.917 12.9338 101.208 12.9338C101.614 12.9338 102.072 13.0674 102.559 13.3465L104.064 14.2164Z" fill="url(#paint0_linear)"/>
<path d="M134.742 31.9276L133.239 31.0577C132.04 28.1508 129.902 25.437 127.461 24.0296L109.839 13.8542C107.398 12.4439 105.261 12.6903 104.064 14.2165L102.559 13.3465C100.896 12.3874 99.5479 13.1565 99.5479 15.0627V40.0721C99.5479 41.9813 100.896 44.3032 102.559 45.2652L134.742 63.8464C136.407 64.8084 137.755 64.0394 137.755 62.1302V37.1207C137.755 35.2116 136.407 32.8897 134.742 31.9276Z" fill="#CED1D1"/>
<path d="M102.559 13.3465L104.064 14.2165C105.261 12.6903 107.398 12.4439 109.839 13.8542L127.461 24.0296C129.902 25.437 132.04 28.1508 133.239 31.0577L134.742 31.9276C136.407 32.8897 137.755 35.2116 137.755 37.1207V37.869C137.755 35.9628 136.407 33.6379 134.742 32.6788L133.239 31.8089C132.04 28.8991 129.902 26.1882 127.461 24.7778L109.839 14.6025C107.398 13.1951 105.261 13.4385 104.064 14.9647L102.559 14.0947C100.896 13.1357 99.5479 13.9047 99.5479 15.8109V15.0627C99.5479 13.1565 100.896 12.3874 102.559 13.3465Z" fill="#EAEAE9"/>
<path d="M71.9581 94.9188L35.553 73.897L99.8952 36.7496L136.303 57.7684L71.9581 94.9188Z" fill="#656267"/>
<path d="M97.885 78.3419L61.4769 57.3201V50.3692L134.982 42.0436V48.9945L97.885 78.3419Z" fill="#46678A"/>
<path d="M97.8851 71.3881V78.3419L61.4769 57.3201V50.3692L97.8851 71.3881Z" fill="#548EAA"/>
<path d="M71.4356 93.6124L35.0275 72.5906V65.6368L97.5466 71.584V78.5349L71.4356 93.6124Z" fill="#46678A"/>
<path d="M71.4356 86.6586V93.6124L35.0275 72.5906V65.6368L71.4356 86.6586Z" fill="#548EAA"/>
<path d="M97.885 71.3881L61.4769 50.3692L98.5739 21.0218L134.982 42.0436L97.885 71.3881Z" fill="#74BCE8"/>
<path d="M82.9441 33.3855L63.1783 50.3692L97.597 70.72L115.504 57.4953L97.885 71.3881L61.4769 50.3692L82.9441 33.3855Z" fill="#9DD3F2"/>
<path d="M90.1237 33.9704C89.6189 34.3683 88.2709 35.3333 89.4764 35.9004C89.6159 35.9657 89.7793 35.9924 89.904 36.0904C90.1415 36.2715 90.1445 36.6308 90.0673 36.9188C89.7822 38.0056 88.7668 38.7152 87.8107 39.3031C85.658 40.6333 83.4193 41.8506 81.041 42.7236C79.6128 43.2462 78.1401 43.644 76.7297 44.2052C75.1768 44.8169 73.7041 45.6215 72.2848 46.4944C71.9196 46.7171 71.5396 46.9606 71.3258 47.3318C71.112 47.7029 71.1209 48.2403 71.4594 48.5016C71.7177 48.7005 72.071 48.6887 72.3947 48.7124C73.2706 48.7748 74.102 49.1608 74.9779 49.2083C76.9167 49.3122 78.5112 47.8128 80.1353 46.7498C82.9887 44.8881 86.4419 44.2349 89.5774 42.9047C90.091 42.685 90.6017 42.4474 91.151 42.3524C91.5548 42.2812 91.9675 42.2871 92.3743 42.3049C94.5626 42.391 96.742 42.7117 98.865 43.258C100.246 43.6143 102.671 43.9944 102.609 45.8739C102.588 46.5924 102.262 47.2664 101.932 47.9078C101.151 49.4369 100.308 50.9571 99.1381 52.2131C98.1642 53.2553 96.9944 54.0866 95.8839 54.9774C94.7705 55.8682 93.6926 56.845 92.983 58.0802C92.2734 59.3154 91.9764 60.8594 92.499 62.1836C92.7217 62.7537 93.081 63.2585 93.4402 63.7573C94.5002 65.2389 95.5662 66.7235 96.7984 68.0656C98.3572 65.8535 100.522 64.1403 102.79 62.6646C105.059 61.1919 107.458 59.9211 109.694 58.4009C109.919 58.2465 110.154 58.0802 110.284 57.8427C110.368 57.6853 110.403 57.5101 110.436 57.3349C110.626 56.3759 110.816 55.4109 111.006 54.4489C111.045 54.2559 111.083 54.057 111.178 53.8847C111.291 53.6828 111.472 53.5284 111.65 53.38C112.464 52.6941 113.271 51.9963 114.094 51.3223C114.59 50.9156 114.557 50.8799 115.115 51.07L115.626 51.3253C115.721 51.257 122.88 46.1144 124.863 44.6268C126.861 43.1274 130.95 39.7158 130.95 39.7158L124.346 35.9034L90.1237 33.9704Z" fill="#4E80A6"/>
<path d="M115.026 49.428C115.026 49.428 103.399 44.8792 99.5478 42.6078C96.1778 40.6214 86.2697 32.8243 86.2697 32.8243C86.2697 32.8243 92.2526 26.5326 94.524 24.7541C96.5965 23.1299 103.473 19.2136 103.473 19.2136C103.473 19.2136 115.139 23.7564 118.652 25.7517C122.458 27.9163 132.233 35.8173 132.233 35.8173C132.233 35.8173 127.633 41.2865 125.801 42.7948C123.361 44.805 115.026 49.428 115.026 49.428Z" fill="#B9B6C0"/>
<path d="M115.026 49.428C115.026 49.428 103.399 42.2366 99.5478 39.9652C96.1778 37.9788 86.2697 32.8243 86.2697 32.8243C86.2697 32.8243 92.2526 26.5326 94.524 24.7541C96.5965 23.1299 103.473 19.2136 103.473 19.2136C103.473 19.2136 115.139 23.7564 118.652 25.7517C122.458 27.9163 132.233 35.8173 132.233 35.8173C132.233 35.8173 125.166 38.8191 123.334 40.3304C120.893 42.3406 115.026 49.428 115.026 49.428Z" fill="#EEEEEF"/>
<path d="M71.4356 86.6586L35.0275 65.6368L61.1385 50.5622L97.5466 71.584L71.4356 86.6586Z" fill="#74BCE8"/>
<path d="M102.716 18.5841C102.716 18.5841 100.845 19.2344 99.9872 20.4814C99.4082 21.3276 99.4676 22.741 99.7793 23.3675C100.332 23.7653 102.716 22.2748 102.716 22.2748V18.5841Z" fill="#BDBFC1"/>
<path d="M136.303 57.7684V64.0156L71.9581 101.166V94.9188L136.303 57.7684Z" fill="#898C8D"/>
<path d="M38.6291 121.499L2.22095 100.477V92.2525L38.6291 113.271V121.499Z" fill="#CED1D1"/>
<path d="M38.6291 113.271L2.22095 92.2525L35.553 73.0092L71.9582 94.0281L38.6291 113.271Z" fill="#656267"/>
<path d="M38.1065 112.856L1.69836 91.8338V84.883L70.8892 86.9733V93.9271L38.1065 112.856Z" fill="#46678A"/>
<path d="M38.1065 105.902V112.856L1.69836 91.8338V84.883L38.1065 105.902Z" fill="#548EAA"/>
<path d="M38.1065 105.902L1.69836 84.883L34.4811 65.9545L70.8892 86.9733L38.1065 105.902Z" fill="#74BCE8"/>
<path d="M71.9581 94.0281V102.256L38.629 121.499V113.271L71.9581 94.0281Z" fill="#898C8D"/>
<path d="M34.4811 65.9545L3.40267 84.883L38.1065 105.035L70.8892 86.9733L38.1065 105.902L1.69836 84.883L34.4811 65.9545Z" fill="#9DD3F2"/>
<path d="M61.477 50.3692L36.7318 65.6367L71.4356 85.7886L92.5554 74.4641L71.4356 86.6586L35.0275 65.6367L61.477 50.3692Z" fill="#9DD3F2"/>
<path d="M38.6291 121.499L38.1065 113.524L2.77321 93.2502L2.22095 100.477V92.2525L38.6291 113.271V121.499Z" fill="#EAEAE9"/>
<path d="M62.1746 50.3039C62.237 50.6305 62.3647 51.0135 62.4211 51.0848C62.4834 51.159 64.7489 51.551 65.0726 51.6489C65.1735 51.6816 65.316 51.646 65.4734 51.5807C65.8149 51.4381 66.2187 51.1472 66.3968 51.067C66.6551 50.9512 68.119 49.9951 68.2377 49.8882C68.3535 49.7784 69.179 48.6026 69.5649 48.3621C69.948 48.1216 76.1506 46.3133 77.5758 45.8026C79.0069 45.289 84.5563 42.8245 85.0789 42.3198C85.4026 42.0169 87.7393 40.6303 89.1437 38.926C90.0523 37.8244 90.5719 36.5863 89.8979 35.4253C88.1817 32.4651 87.6354 33.534 87.6354 33.534C87.5493 33.727 83.725 35.8856 82.6442 36.5507C81.5604 37.2187 79.3395 38.0679 77.2818 39.7722C75.2272 41.4795 68.7959 45.093 67.9378 45.7195C67.0797 46.349 63.4455 47.6257 63.1634 47.89C62.8843 48.1572 62.1153 49.9773 62.1746 50.3039Z" fill="#CE8F64"/>
<path d="M72.7599 47.3139C74.6453 46.732 76.8069 46.0787 77.5759 45.8026C78.817 45.3572 83.152 43.4451 84.6248 42.6167C85.4739 41.043 86.6705 38.9022 86.9823 38.8013C87.2406 38.7211 87.7751 37.7977 88.2323 36.9337C88.2353 36.9277 88.2353 36.9247 88.2383 36.9218C88.0987 36.806 87.8998 36.6397 87.686 36.4497C87.3119 37.0851 86.528 38.4093 86.43 38.5934C86.2964 38.8339 84.9128 41.6695 84.6455 41.8506C84.3813 42.0288 81.041 43.8281 78.8408 44.7307C77.3562 45.3394 74.289 46.4736 72.1987 47.1833L72.7599 47.3139Z" fill="#A36138"/>
<path d="M62.1836 50.2089L62.1747 50.3039C62.1836 50.8087 62.4211 51.0848 62.4775 51.1858C62.531 51.2837 62.7834 51.3906 62.819 51.5777C62.8546 51.7677 63.2822 51.8212 63.2822 51.8212C63.2822 51.8212 63.4306 52.026 63.6118 52.121C63.7929 52.222 64.4134 52.3794 64.4134 52.3794L65.7436 52.5753C65.809 52.4981 66.4919 51.9785 66.6077 51.7202L66.6017 51.5628L66.3167 51.4856L66.3019 51.2808L66.3048 51.2778L66.2959 51.1858L65.9545 50.9007L65.8921 50.8502L65.9129 50.7552C65.9277 50.6661 65.9455 50.5325 65.9277 50.3811C65.904 50.1258 65.2686 50.3098 65.1468 50.3544C65.0221 50.4049 63.4989 50.6394 63.3386 50.5682C63.1842 50.4969 63.0714 49.8615 63.0714 49.8615L63.1842 49.2202C63.1842 49.2202 62.2845 49.7308 62.1836 50.2089Z" fill="#FCCFB8"/>
<path d="M67.2402 49.1192C67.2402 49.1192 66.5899 49.4844 65.7615 49.4072C64.9331 49.33 64.7342 49.3448 64.7342 49.3448C64.7342 49.3448 63.7722 49.9506 63.3327 50.1673C62.8873 50.3841 62.1955 50.3662 62.0292 50.2029C61.8659 50.0456 61.8867 49.7605 61.8867 49.7605C61.8867 49.7605 62.5874 49.3152 62.7983 49.045C63.0031 48.7748 63.5079 48.3086 63.7187 48.1453C63.9295 47.982 65.325 47.4119 65.5566 47.2248C65.7882 47.0318 66.6255 46.2866 67.3352 46.8982C68.0478 47.5099 68.3952 47.9612 68.2823 48.2195C68.1636 48.4778 67.2402 49.1192 67.2402 49.1192Z" fill="#CE8F64"/>
<path d="M86.145 34.9978C86.3142 35.2264 86.7388 35.4996 86.9081 35.6896L87.0565 35.8499C87.6236 36.4408 88.4491 37.094 88.4491 37.094C88.4491 37.094 91.8963 34.392 92.1635 34.3742C92.4307 34.3564 96.2669 27.9074 94.8862 27.7708C93.5026 27.6372 92.4723 27.8153 92.116 27.9489C91.7597 28.0796 88.2056 30.8884 87.6177 31.3605C86.7982 32.0137 85.4502 33.5043 85.4502 33.5043C85.4502 33.5043 85.6402 34.3208 86.145 34.9978Z" fill="#88A8D7"/>
<path d="M76.7534 46.8685L74.5681 47.5158C74.5681 47.5158 74.4196 47.9404 73.1221 48.1097C71.8275 48.2789 70.2924 48.6738 70.2924 48.6738C70.2924 48.6738 69.2799 49.2855 68.9029 49.3092C68.5258 49.333 66.0465 50.1228 65.9188 50.1109C65.7941 50.0961 52.7564 56.4887 52.4773 56.7173C52.1982 56.946 55.7286 62.1183 56.7708 63.2495C57.81 64.3838 59.2679 64.7549 59.2679 64.7549L61.2097 63.493L64.1848 62.5874L66.4117 62.4449L74.4285 59.9953C74.4285 59.9953 79.972 55.396 81.0973 54.3746C82.2226 53.3473 82.1038 51.0106 82.1395 50.0664C82.1721 49.1222 82.1217 48.466 82.0177 48.178C81.9168 47.8899 81.032 45.9243 76.7534 46.8685Z" fill="#4BAF8A"/>
<path d="M91.7745 63.7573C91.7745 63.7573 90.0672 65.4052 88.9686 66.002C87.87 66.5988 80.8152 69.3007 76.8187 70.0638C72.8222 70.8209 69.568 73.3477 69.3869 73.4635C69.2057 73.5793 65.2983 70.7764 64.0691 69.663C62.8368 68.5525 61.4562 67.3737 61.4562 67.3737C61.4562 67.3737 63.7781 64.8024 65.717 63.4574C67.6529 62.1123 72.3323 58.867 72.3323 58.867C72.3323 58.867 75.4856 53.4394 75.8092 52.8722C76.1299 52.3022 82.7749 48.4244 83.9507 48.561C85.1265 48.6976 93.0453 57.2518 91.7745 63.7573Z" fill="#59BF9B"/>
<path d="M74.5681 47.5158C77.9619 46.628 79.0486 48.4957 79.0486 48.4957C79.0486 48.4957 81.3586 50.3692 81.6734 50.7315C81.994 51.0907 83.2203 53.1602 83.832 54.1312C84.4407 55.1021 87.2495 58.8848 87.6088 59.8706C87.8998 60.6752 89.705 63.3059 90.3671 64.262C90.5186 64.4817 90.6076 64.6124 90.6076 64.6124C90.6076 64.6124 90.6403 65.1142 91.6558 64.5441C92.6742 63.974 93.0542 62.6854 93.7193 61.2513C94.3874 59.8171 96.1868 58.9056 97.6684 57.7565C99.1559 56.6075 99.539 54.0154 99.539 54.0154L103.188 49.7368C103.188 49.7368 105.032 48.947 106.139 48.4511L106.291 48.365C106.784 48.0443 107.82 47.0408 108.951 45.8145C110.849 43.7657 113.016 41.0846 113.366 39.9117C113.417 39.7395 113.426 39.6029 113.393 39.502C113.301 39.2259 113.046 38.8042 112.698 38.2906L112.678 38.2609C112.591 38.1362 112.493 38.0026 112.398 37.866L112.351 37.8007L112.309 37.7413C111.027 35.9657 109.002 33.5458 108.271 32.5304C107.995 32.1384 107.422 31.696 106.712 31.2536H106.71C104.771 30.0481 101.787 28.8397 100.759 28.6764C99.3549 28.4477 95.4979 27.4026 94.3874 27.8806C93.2799 28.3616 91.9764 31.2269 91.6231 31.598C91.2668 31.9692 89.0013 35.3867 89.0013 35.3867C89.0013 35.3867 88.648 36.1379 88.2323 36.9337C87.775 37.7977 87.2406 38.7211 86.9823 38.8013C86.4864 38.9616 83.7488 44.2764 83.7488 44.2764C83.7488 44.2764 83.6657 44.3299 83.5262 44.419C83.3688 44.5169 83.1402 44.6595 82.8729 44.8168C82.5523 45.0098 82.1811 45.2266 81.8248 45.4166L81.807 45.4285C81.6942 45.4849 81.5813 45.5413 81.4744 45.5948C81.0736 45.7967 80.7232 45.9451 80.5302 45.957L78.9209 46.058L77.1721 46.1678C77.0504 46.1767 74.7166 47.4327 74.5681 47.5158Z" fill="#629FCF"/>
<path d="M80.5302 45.957C80.7231 45.9452 81.0735 45.7967 81.4743 45.5948L80.5302 45.957Z" fill="#466E8C"/>
<path d="M82.5255 49.0539C83.0213 48.3947 83.8082 47.9404 83.9626 47.0823C83.9834 46.9636 83.9982 46.8359 84.0784 46.7438L84.3367 46.6013C84.886 46.4232 85.4531 46.3103 86.0291 46.2658C86.237 46.248 86.4864 46.2242 86.5992 46.0461C86.6586 45.9511 86.6705 45.8293 86.6556 45.7195C86.5873 45.1048 85.9697 44.514 86.2577 43.9706C86.5428 43.4243 87.5256 43.4599 87.6503 42.8572C87.7364 42.4385 87.294 42.0169 87.4454 41.6161C87.5048 41.4587 88.0066 41.3904 88.1076 41.1915C88.2293 40.9599 88.1491 40.942 87.9621 40.7075C87.6384 40.3066 87.6176 40.084 87.7186 39.5495C87.876 38.7033 88.3302 37.8096 88.2323 36.9337C87.775 37.7977 87.2405 38.7211 86.9822 38.8013C86.4864 38.9616 83.7488 44.2764 83.7488 44.2764C83.7488 44.2764 83.6657 44.3299 83.5261 44.419C83.4281 44.5318 83.3212 44.6268 83.2084 44.7099C82.8283 44.9831 82.2969 45.191 81.8248 45.4166L81.8069 45.4285C81.6941 45.4849 81.5813 45.5413 81.4744 45.5948C81.0735 45.7967 80.7232 45.9451 80.5302 45.957L78.9209 46.058C78.9209 46.058 79.5058 46.7854 80.0967 47.109C80.6846 47.4327 80.9518 47.1298 81.5753 48.0087C82.2018 48.8846 82.5255 49.0539 82.5255 49.0539Z" fill="#5A85AA"/>
<path d="M93.8322 61.0375C94.5715 59.7251 96.2609 58.8462 97.6713 57.7565C99.1589 56.6075 99.5419 54.0154 99.5419 54.0154L101.041 52.2517L99.5389 54.0154C99.5389 54.0154 99.1559 56.6075 97.6684 57.7565C96.261 58.8462 94.5715 59.7251 93.8322 61.0375Z" fill="#466E8C"/>
<path d="M93.8321 61.0375C94.5714 59.7251 96.2609 58.8462 97.6683 57.7566C99.1558 56.6075 99.5389 54.0154 99.5389 54.0154L101.041 52.2517L103.188 49.7368C103.188 49.7368 103.636 49.5438 104.224 49.2914L104.313 49.0925C104.325 49.0658 104.337 49.039 104.349 49.0153C104.257 49.0242 104.168 49.039 104.079 49.0539C104.079 49.0539 104.079 48.8015 104.076 48.4244C104.04 48.4244 104.002 48.4244 103.963 48.4244C103.574 48.4244 103.042 48.3591 102.576 48.2967C102.11 48.2314 101.709 48.1661 101.582 48.1661C101.576 48.1661 101.573 48.1661 101.57 48.1691C101.27 48.175 100.97 48.1809 100.67 48.1809C100.367 48.1809 100.064 48.175 99.7616 48.175C99.4557 48.1691 99.1499 48.1661 98.847 48.1661C98.4789 48.1661 98.1136 48.172 97.7455 48.1869C98.6184 48.3531 99.4498 48.7095 100.174 49.2231C99.6428 49.3241 99.1054 49.3953 98.565 49.4339C98.9064 49.5735 99.2479 49.713 99.5893 49.8526L99.6844 49.9268L99.5834 50.0723C99.0282 50.3781 98.4759 50.6869 97.9207 50.9928C97.9682 51.2689 98.2413 51.4411 98.4581 51.6192C98.6719 51.8004 98.8619 52.1151 98.7016 52.3467L98.4284 52.5367C97.9652 52.7475 97.4842 52.9168 96.9913 53.0415C96.7686 53.0979 96.54 53.1454 96.3114 53.1454C96.2223 53.1454 96.1302 53.1365 96.0382 53.1187C95.5275 53.0177 95.1385 52.608 94.6783 52.3556C93.942 51.9429 93.0334 51.9459 92.2673 51.5925C91.7388 51.3461 91.2994 50.9452 90.8718 50.5474C90.4235 50.1317 89.9722 49.716 89.5208 49.3003C90.8392 51.3194 92.8463 52.8812 95.1266 53.665C95.4948 53.7927 95.9105 53.9352 96.0709 54.2885C95.5097 54.3539 94.8802 54.3984 94.2567 54.3984C93.7697 54.3984 93.2858 54.3687 92.8493 54.3034C91.4122 54.0807 90.5066 53.76 90.4027 53.671C90.3047 53.5789 90.3017 53.0445 88.6152 52.3289C86.9258 51.6163 83.7131 49.8288 83.3301 49.7576C83.3182 49.7576 83.3063 49.7576 83.2974 49.7576C83.048 49.7576 84.5801 50.7404 85.5629 51.1976C86.5814 51.6668 87.9502 52.8455 88.4816 53.2553C89.0131 53.662 90.0969 54.3509 90.0969 54.3509C90.0969 54.3509 94.6605 55.396 95.4948 55.396C95.5097 55.396 95.5275 55.396 95.5423 55.396C95.5602 55.3931 95.578 55.3931 95.5988 55.3931C96.2312 55.3931 96.2253 56.1087 95.4919 56.1562C94.7377 56.2037 92.5435 56.9757 92.8137 57.0261C93.0868 57.0677 95.0435 57.516 95.0791 57.6051C95.1148 57.6912 93.3333 58.8759 93.0037 59.0957C93.0542 59.066 93.1373 59.0303 93.2264 59.0303C93.36 59.0303 93.5055 59.1135 93.5738 59.4401C93.6153 59.6271 93.5589 59.9003 93.4431 60.1972C93.5678 60.4555 93.7044 60.7406 93.8321 61.0375ZM104.073 47.8276C104.073 47.4772 104.073 47.0883 104.076 46.7142C104.079 46.1797 104.088 45.6749 104.103 45.3513C103.969 45.384 103.817 45.4077 103.651 45.4077C103.518 45.4077 103.378 45.3929 103.224 45.3632C102.312 45.191 98.5264 44.4457 97.6148 44.4457C97.5258 44.4457 97.4634 44.4516 97.4337 44.4695C97.1309 44.6446 101.902 46.5865 102.131 46.729C102.288 46.827 103.431 47.3882 104.073 47.8276Z" fill="#5A85AA"/>
<path d="M63.7899 48.5372C63.7899 48.5372 72.1511 46.9933 72.9617 47.4891C73.7723 47.982 75.7053 46.9071 75.7053 46.9071C75.7053 46.9071 75.726 45.1969 80.643 48.1958C85.5629 51.1976 86.2518 53.4779 87.4899 55.0546C88.7311 56.6312 90.7234 58.6948 90.8125 60.5416C90.8986 62.3914 91.632 64.8945 91.632 65.2092C91.632 65.5269 98.6333 70.242 98.6333 70.242L98.2295 75.2005L38.1065 110.246L37.0524 105.293L2.86229 85.5511L1.69836 88.9122V84.883L61.4769 50.3692L63.7899 48.5372Z" fill="#DDDADF"/>
<path d="M86.2637 69.6244L86.6912 70.0994C86.6912 70.0994 92.0655 74.0396 92.3119 74.2533C92.5554 74.4641 92.5554 78.5052 92.5554 78.5052L99.1796 74.7967C99.1796 74.7967 99.9575 70.8536 99.5478 69.7134C99.138 68.5733 94.3547 63.7573 94.3547 63.7573L86.2637 69.6244Z" fill="#E8E7E5"/>
<path d="M63.7899 53.95L57.4003 52.7208L59.1046 51.1649L63.6474 48.1483L72.1423 47.1684L74.3276 47.6762L63.7899 53.95Z" fill="#E8E7E5"/>
<path d="M132.984 54.3657C132.984 53.858 132.844 53.5581 132.714 53.4779L132.535 53.4483C132.372 53.4483 132.126 53.5195 131.826 53.6769L131.793 53.6977L97.1458 73.704C95.8661 74.4433 94.7377 76.3703 94.7377 77.8401V91.6646C94.7377 91.8635 94.7585 92.0239 94.7971 92.1634L94.8061 92.1931C94.8595 92.3832 94.9367 92.493 95.008 92.5435C95.1475 92.6237 95.489 92.5821 95.9254 92.3327L130.576 72.3263C131.864 71.587 132.984 69.6481 132.984 68.1813V54.3657ZM95.9254 71.5989L130.576 51.6014C131.755 50.9126 132.984 50.8324 133.931 51.3787C134.872 51.931 135.41 53.0088 135.41 54.3657V68.1813C135.41 68.4515 135.392 68.7188 135.35 68.989C135.041 71.1179 133.592 73.3833 131.793 74.4226L97.1458 94.4319C96.4866 94.809 95.8067 94.999 95.1772 94.999C94.6784 94.999 94.2092 94.8802 93.7995 94.6397C93.3274 94.3695 92.9592 93.9717 92.7098 93.461L92.6979 93.4521C92.4396 92.9414 92.309 92.3446 92.309 91.6646V77.8401C92.309 75.5123 93.9004 72.7747 95.9254 71.5989Z" fill="#C4C3C5"/>
<path d="M94.806 92.1931C95.1475 94.1706 96.5549 93.0126 96.5549 93.0126C96.5549 93.0126 129.059 74.4434 131.556 72.6648C134.053 70.8863 133.765 68.989 133.765 68.989C133.765 68.989 133.765 55.7464 133.765 54.0273C133.765 52.4387 132.084 53.4987 131.826 53.6769C132.126 53.5195 132.372 53.4483 132.535 53.4483L132.714 53.478C132.844 53.5581 132.984 53.858 132.984 54.3657V68.1814C132.984 69.6481 131.864 71.587 130.576 72.3263L95.9254 92.3327C95.4889 92.5821 95.1475 92.6237 95.0079 92.5435C94.9367 92.493 94.8595 92.3832 94.806 92.1931Z" fill="#B2B3B3"/>
<path d="M92.7097 93.461C92.9591 93.9717 93.3273 94.3695 93.7994 94.6397C94.2091 94.8802 94.6783 94.999 95.1771 94.999C95.8066 94.999 96.4865 94.809 97.1457 94.4319L131.793 74.4226C133.592 73.3833 135.041 71.1179 135.35 68.989C134.281 72.5252 131.953 73.8139 131.953 73.8139L99.5121 92.7305C99.5121 92.7305 96.9853 94.3903 95.3374 94.5714C93.7994 94.7407 92.8196 93.6005 92.7097 93.461Z" fill="#989798"/>
<path d="M131.018 51.5688C131.018 51.5688 131.98 50.9927 133.109 51.2154C134.082 51.5806 134.344 51.8597 134.344 51.8597C134.344 51.8597 133.343 51.4381 132.628 51.7558C131.909 52.0735 96.1214 72.8192 96.1214 72.8192C96.1214 72.8192 93.8738 74.7848 93.7817 77.3621C93.6867 79.9363 93.7817 92.7484 93.7817 92.7484C93.7817 92.7484 93.8441 93.4996 94.2182 93.9835C93.3274 93.5293 92.9236 93.1254 92.7841 92.5168C92.6415 91.9081 92.7098 77.6233 92.7098 77.6233C92.7098 77.6233 92.695 74.0603 95.8097 71.8839C98.1672 70.4825 131.018 51.5688 131.018 51.5688Z" fill="#E5E4E3"/>
<path d="M108.717 33.1212C108.541 32.8926 108.39 32.6937 108.271 32.5274C108.233 32.474 108.185 32.4146 108.132 32.3552C108.185 32.4146 108.233 32.474 108.271 32.5304C108.39 32.6937 108.541 32.8926 108.717 33.1212Z" fill="#C0C0C2"/>
<path d="M112.306 37.7413C111.232 36.2537 109.637 34.3089 108.717 33.1212C108.541 32.8926 108.39 32.6937 108.271 32.5304C108.233 32.474 108.185 32.4146 108.132 32.3552C108.289 32.7531 108.417 33.0826 108.441 33.2103C108.467 33.3647 108.429 33.4805 108.337 33.5607C109.474 34.7305 111.879 37.2098 112.306 37.7413Z" fill="#5A85AA"/>
<path d="M105.356 58.5582C105.664 58.7037 105.887 58.7839 105.958 58.775L106.199 58.7156C107.479 58.2435 108.592 55.3634 108.951 54.4875C109.337 53.5552 111.163 49.8437 111.163 49.8437L108.919 47.8454L108.049 47.0645L106.03 45.2622C106.03 45.2622 105.709 45.9778 105.323 46.8448C105.323 46.8448 105.062 47.4208 104.313 49.0925L104.067 49.6388C103.752 50.3455 101.712 53.9382 101.261 55.5148C101.068 56.1918 104.031 57.9466 105.356 58.5582Z" fill="#CE8F64"/>
<path d="M20.4873 79.6424C20.4873 79.6424 16.9896 83.1847 17.4112 84.3486C17.8358 85.5125 18.1179 87.4098 19.6678 88.8973C21.2207 90.3908 24.9678 93.3897 25.3241 93.7846C25.6834 94.1766 25.9566 94.9871 28.3557 95.4533C30.7548 95.9195 36.3635 96.5727 36.8238 96.445C37.281 96.3173 41.6695 94.8951 43.9706 93.0661C46.2747 91.243 54.3924 86.2102 54.3924 86.2102C54.3924 86.2102 71.9937 78.042 75.1945 76.6049C78.3953 75.1679 85.7025 70.4142 86.6971 69.1998C87.6888 67.9854 87.8699 63.1516 87.1514 61.8214C86.4358 60.4912 77.365 52.5635 77.365 52.5635C77.365 52.5635 69.8144 51.8598 69.3393 52.0914C68.8612 52.323 64.164 54.7696 63.1901 55.3367C62.2132 55.9038 45.859 67.1303 45.3186 67.6766C44.7812 68.2229 32.275 74.675 30.0897 75.3311C27.9073 75.9933 21.3038 76.5515 20.4873 79.6424Z" fill="#E9E6EB"/>
<path d="M64.7846 54.4667C64.7846 54.4667 67.6321 54.1965 68.9148 54.5528C70.2004 54.9091 74.4493 56.7055 76.2605 57.9792C78.0717 59.2501 79.7315 59.8944 80.5213 61.1295C81.3111 62.3647 85.5511 68.4248 86.2637 69.6244C86.7002 70.3607 87.392 70.0905 87.9116 69.8203C88.2412 69.6481 88.5025 69.4789 88.5916 69.559C88.8202 69.7669 91.5904 66.8482 91.5904 66.8482C91.5904 66.8482 93.5293 63.8137 94.3547 63.7573C95.1772 63.7009 93.3007 59.6925 92.8583 59.1818C92.4159 58.674 88.9033 54.1787 88.069 53.8788C87.2346 53.5819 85.4442 51.5035 85.4442 51.5035C85.4442 51.5035 82.5314 49.2588 81.51 48.5907C80.2778 47.786 77.2849 46.3935 76.6851 46.2777C76.3912 46.2183 75.346 46.7201 74.3098 47.2219C73.2379 47.7385 72.169 48.2552 71.9404 48.1572C71.492 47.9612 67.3856 51.1798 65.8654 51.839C64.654 52.3615 63.7543 53.7274 63.79 53.9501C63.8286 54.1757 63.7306 54.1817 64.7846 54.4667Z" fill="#F1F1F0"/>
<path d="M84.1081 70.2034C82.5849 71.1446 80.4589 72.4956 79.1733 73.4665C76.9969 75.1114 57.0499 83.9358 54.4964 85.3314C51.9429 86.7269 40.3809 94.325 39.0715 94.999C38.5192 95.287 37.7472 95.2573 37.1445 95.2781C35.1819 95.3494 33.2074 95.2276 31.2507 95.1089C30.443 95.0584 29.6384 95.005 28.8308 94.9545C27.8123 94.8921 27.1621 94.714 26.301 94.1023C25.3657 93.4343 24.3533 92.8761 23.2903 92.4396C24.3503 93.7727 25.7547 94.8209 27.3195 95.4919C28.1004 95.8304 28.9199 96.0709 29.7601 96.2075C30.3866 96.3114 31.0606 96.2223 31.6693 96.4153C32.2186 96.5905 32.7768 96.8399 33.2816 97.122C34.0625 97.5555 34.8493 97.9949 35.5411 98.565C35.8559 98.8263 36.1528 99.1143 36.5031 99.3222C36.8565 99.53 37.284 99.6517 37.676 99.5448C37.6166 99.1499 37.3434 98.8233 37.0792 98.5234C36.8149 98.2236 36.5358 97.9058 36.4586 97.5139C36.3012 96.736 36.9188 96.641 37.483 96.5133C38.2431 96.3381 38.9913 96.0798 39.7188 95.8007C42.3673 94.7912 49.2914 89.3605 55.7405 85.9282C62.1925 82.4928 76.118 76.4387 79.681 74.5443C80.3966 74.1643 81.0795 73.7337 81.7594 73.2884C82.3147 72.9231 83.0095 73.2052 83.4964 73.6179C83.6686 73.7664 83.823 73.9445 84.0249 74.0485C84.2417 74.1613 84.497 74.1791 84.7405 74.191C85.7292 74.2415 86.718 74.2504 87.7067 74.2177C88.2798 74.1969 88.933 74.1227 89.2685 73.6536C89.3754 73.5051 89.4377 73.3269 89.5328 73.1666C89.7851 72.742 89.9336 72.4807 90.0316 71.9967C90.1355 71.492 90.3285 70.9724 90.664 70.5745C90.9194 70.2628 91.2608 70.0341 91.5993 69.8144C93.1492 68.8108 94.7763 67.929 96.4628 67.1748C96.6291 67.0976 96.8013 67.0234 96.929 66.8927C97.0567 66.7591 97.1309 66.5602 97.0626 66.3909C97.0151 66.2722 96.9112 66.189 96.8073 66.1148C96.0471 65.5536 95.1445 65.0518 94.2063 65.1765C93.3571 65.2923 92.6682 65.8981 91.9645 66.388C90.9105 67.1243 89.7079 67.6528 88.7519 68.5169C88.4698 68.7722 88.2085 69.0543 87.8967 69.277C87.579 69.4967 87.1752 69.6392 86.7863 69.6422C86.3171 69.6422 86.1568 69.4581 85.9282 69.0929L84.6366 69.8767C83.9626 70.2865 83.1193 70.2449 82.3444 70.239C82.1543 70.239 81.9554 70.233 81.7921 70.1351C81.6288 70.0371 81.5278 69.8114 81.6288 69.6511L81.8931 69.4729C83.1579 68.9652 84.5297 68.7099 85.8925 68.7306L86.1598 68.7752C86.3914 68.888 86.4092 69.2028 86.3914 69.4611L84.1081 70.2034Z" fill="#B8BBBB"/>
<path d="M100.896 29.87C100.896 29.87 99.7022 31.3902 100.296 32.2364C100.887 33.0826 102.983 33.4271 103.737 33.5399C104.491 33.6527 107.033 33.6913 107.615 33.7151C108.194 33.7388 108.506 33.5844 108.44 33.2103C108.372 32.8362 107.416 30.7726 107.467 30.2144C107.514 29.6562 108.443 27.9459 108.185 27.1116C107.927 26.2743 103.779 24.9055 103.351 25.6003C102.921 26.2951 100.896 29.87 100.896 29.87Z" fill="#BA7647"/>
<path d="M101.472 28.8575C101.499 28.807 101.528 28.7565 101.558 28.7031C101.08 28.6556 100.661 28.6229 100.358 28.6051C100.507 28.6318 100.643 28.6556 100.759 28.6764C100.94 28.7061 101.184 28.7684 101.472 28.8575Z" fill="#ECC4B1"/>
<path d="M100.326 32.278C100.317 32.2631 100.305 32.2513 100.296 32.2364C99.7022 31.3902 100.896 29.87 100.896 29.87C100.896 29.87 101.136 29.4424 101.472 28.8575C101.184 28.7684 100.94 28.7061 100.759 28.6764C100.643 28.6556 100.507 28.6318 100.358 28.6051C100.151 28.5903 99.9962 28.5843 99.916 28.5843C99.242 28.5843 99.2004 28.9198 99.2004 28.9198C99.2004 28.9198 98.4017 30.832 98.4017 31.0428C98.4017 31.2536 99.2836 32.0939 100.13 32.2424C100.192 32.2542 100.26 32.2661 100.326 32.278Z" fill="#67869B"/>
<path d="M102.03 32.5037C102.49 32.5037 102.986 32.4354 103.512 32.2424C104.877 31.7376 106.712 30.1728 106.712 30.1728C106.611 29.3712 103.556 28.908 101.558 28.7031C101.528 28.7565 101.499 28.807 101.472 28.8575C101.136 29.4424 100.896 29.87 100.896 29.87C100.896 29.87 99.7022 31.3902 100.296 32.2364C100.305 32.2513 100.317 32.2631 100.326 32.278C100.81 32.373 101.383 32.5037 102.03 32.5037Z" fill="#A36138"/>
<path d="M99.9724 23.0973C99.9724 23.0973 99.3133 25.529 99.248 27.2155C99.1797 28.902 99.3667 30.4846 99.8567 30.8736C100.35 31.2655 101.508 31.6723 102.321 31.702C103.135 31.7317 105.37 30.9033 106.211 30.5054C107.057 30.1105 107.805 28.9674 108.251 28.3795C108.699 27.7886 109.649 27.6609 110.014 26.9958C110.385 26.3307 111.537 24.4512 111.585 23.8099C111.784 21.7582 110.02 19.3235 109.02 18.7326C107.309 17.7231 103.236 17.0253 101.831 19.1958C101.386 19.8787 100.18 22.2481 99.9724 23.0973Z" fill="#BA7647"/>
<path d="M108.919 26.7048C108.919 26.7048 109.147 26.1021 109.771 25.6775C110.397 25.2529 110.745 25.1935 111.039 25.535C111.329 25.8794 111.08 26.5445 110.914 26.9275C110.748 27.3106 108.954 28.3141 108.954 28.3141C108.954 28.3141 108.411 28.3735 108.224 28.1865C108.037 27.9964 108.437 27.4828 108.544 27.3106C108.648 27.1383 108.919 26.7048 108.919 26.7048Z" fill="#CE8F64"/>
<path d="M104.394 20.4131C104.394 20.4131 107.199 21.7255 107.648 22.4648C108.102 23.2012 108.063 23.9019 108.004 24.0207C107.948 24.1395 107.879 25.1727 107.879 25.1727C107.879 25.1727 107.71 26.6722 107.547 27.1324C107.384 27.5926 105.534 28.2993 104.429 27.7619C103.325 27.2215 103.322 26.7909 103.328 26.7286C103.337 26.6662 103.568 26.2565 104.037 26.3099C104.506 26.3604 105.48 26.6336 106.445 25.9715C106.585 25.8735 106.98 25.2202 106.656 24.665C106.332 24.1068 106.282 23.8277 104.931 23.5516C103.58 23.2754 102.962 22.8122 102.962 22.8122C102.962 22.8122 103.806 20.6388 104.394 20.4131Z" fill="#CE8F64"/>
<path d="M102.962 22.8122C102.962 22.8122 101.588 25.3004 101.279 25.8913C100.97 26.4792 100.997 26.6247 101.314 26.6929C101.629 26.7612 102.496 26.9156 102.499 26.7019C102.505 26.4851 102.449 26.0427 102.449 26.0427L103.313 23.0171C103.313 23.0171 103.212 22.3639 102.962 22.8122Z" fill="#CE8F64"/>
<path d="M96.7894 66.1029C96.8132 66.0881 96.8369 66.0703 96.8607 66.0554C97.0567 65.9277 97.2497 65.7941 97.4456 65.6635C97.5495 65.5922 97.6535 65.5209 97.7633 65.4467C99.0104 64.6005 100.225 63.7068 101.424 62.7893C101.781 62.5221 102.131 62.2489 102.484 61.9787C102.695 61.8124 102.909 61.6521 103.117 61.4888L103.402 61.2602C103.731 61.0048 104.052 60.7435 104.373 60.4793C104.052 60.7435 103.731 61.0048 103.402 61.2602L103.117 61.4888C102.909 61.6521 102.695 61.8124 102.484 61.9787C102.131 62.2489 101.781 62.5221 101.424 62.7893C100.156 63.7424 98.8441 64.7015 97.7633 65.4467C97.6535 65.5209 97.5495 65.5922 97.4456 65.6635C97.2497 65.7941 97.0567 65.9277 96.8607 66.0554C96.8369 66.0703 96.8132 66.0881 96.7894 66.1029Z" fill="#4C6D80"/>
<path d="M77.7005 73.416L77.5402 73.1577L82.6531 70.8596L82.8134 71.1179C82.8728 71.2129 82.8698 71.3495 82.7897 71.5039L82.0355 72.9024C81.8722 73.2082 81.4536 73.4665 81.1091 73.4754L78.0598 73.5675C77.8846 73.5734 77.7599 73.514 77.7005 73.416Z" fill="#D2D4D5"/>
<path d="M80.9458 73.2141C81.2932 73.2052 81.7089 72.9469 81.8751 72.6411L82.6263 71.2426C82.7896 70.9368 82.6412 70.6963 82.2967 70.7052L79.2444 70.7972C78.9 70.8091 78.4813 71.0674 78.318 71.3703L77.5668 72.7717C77.4006 73.0746 77.552 73.318 77.8964 73.3062L80.9458 73.2141Z" fill="#FEFEFE"/>
<path d="M77.5461 73.1339L77.46 72.9914L82.5373 70.7022L82.6263 70.8477C82.6887 70.9456 82.6828 71.0822 82.6026 71.2337L81.8544 72.6232C81.6911 72.9261 81.2754 73.1815 80.9339 73.1933L77.9024 73.2854C77.7302 73.2883 77.6084 73.2319 77.5461 73.1339Z" fill="#96989B"/>
<path d="M80.8449 73.0478C81.1863 73.0389 81.602 72.7806 81.7653 72.4777L82.5136 71.0882C82.6769 70.7853 82.5284 70.5448 82.184 70.5567L79.1554 70.6487C78.811 70.6576 78.3953 70.916 78.232 71.2158L77.4838 72.6084C77.3205 72.9113 77.4689 73.1488 77.8133 73.1399L80.8449 73.0478Z" fill="#BFC0C1"/>
<path d="M77.4779 72.9617L77.3442 72.745L82.3562 70.4735L82.4987 70.7022C82.5581 70.7972 82.5522 70.9338 82.472 71.0822L81.7327 72.457C81.5723 72.7568 81.1626 73.0092 80.8241 73.0181L77.8282 73.1102C77.659 73.1131 77.5372 73.0567 77.4779 72.9617Z" fill="#96989B"/>
<path d="M80.6934 72.8073C81.0319 72.7984 81.4416 72.5431 81.6019 72.2462L82.3413 70.8714C82.5016 70.5715 82.3561 70.334 82.0176 70.3459L79.0217 70.435C78.6832 70.4468 78.2735 70.6992 78.1132 70.9991L77.3738 72.3738C77.2135 72.6708 77.359 72.9083 77.6975 72.8994L80.6934 72.8073Z" fill="#5C5B61"/>
<path d="M77.3174 72.7004L77.0769 72.3115L82.0978 70.0549L82.3383 70.4439C82.3977 70.5389 82.3947 70.6725 82.3145 70.8239L81.5752 72.1957C81.4149 72.4956 81.0051 72.7479 80.6637 72.7598L77.6707 72.8489C77.4985 72.8548 77.3768 72.7984 77.3174 72.7004Z" fill="#8C8C8F"/>
<path d="M77.3027 72.7331L77.0236 72.2818L82.1009 70.0015L82.2374 70.2242C82.2968 70.3192 82.2939 70.4557 82.2137 70.6072L81.4655 71.9967C81.3022 72.2966 80.8894 72.555 80.545 72.5639L77.9856 72.6411L78.0984 72.8697L77.656 72.8816C77.4838 72.8875 77.362 72.8311 77.3027 72.7331Z" fill="#96989B"/>
<path d="M77.0027 72.2877L76.8424 72.0264L81.9553 69.7283L82.1157 69.9866C82.1751 70.0846 82.1721 70.2182 82.0889 70.3726L81.3378 71.7711C81.1715 72.0769 80.7558 72.3352 80.4084 72.3441L77.359 72.4362C77.1868 72.4421 77.0621 72.3857 77.0027 72.2877Z" fill="#D2D4D5"/>
<path d="M80.248 72.0829C80.5925 72.0739 81.0111 71.8156 81.1744 71.5098L81.9286 70.1113C82.0919 69.8055 81.9435 69.565 81.5961 69.5739L78.5467 69.666C78.1993 69.6778 77.7836 69.9361 77.6203 70.242L76.8661 71.6404C76.7028 71.9463 76.8513 72.1868 77.1987 72.1749L80.248 72.0829Z" fill="#FEFEFE"/>
<path d="M79.5176 71.9552C79.8204 71.9463 80.1857 71.7176 80.3311 71.4504L80.9903 70.2241C81.1358 69.9569 81.0051 69.7461 80.7023 69.755L78.5496 69.8174C78.2438 69.8292 77.8786 70.0549 77.7361 70.3221L77.0739 71.5484C76.9314 71.8156 77.0621 72.0294 77.3649 72.0175L79.5176 71.9552Z" fill="#D2D4D5"/>
<path d="M80.9607 71.0941C81.1299 71.0882 81.3318 70.9635 81.412 70.815C81.4922 70.6665 81.4209 70.5478 81.2516 70.5537C81.0824 70.5596 80.8805 70.6844 80.7974 70.8328C80.7172 70.9813 80.7914 71.1 80.9607 71.0941Z" fill="#D2D4D5"/>
<path d="M80.9873 71.0436C81.1239 71.0407 81.2902 70.9367 81.3555 70.815C81.4208 70.6962 81.3614 70.6012 81.2219 70.6042C81.0853 70.6072 80.922 70.7111 80.8567 70.8328C80.7913 70.9516 80.8507 71.0466 80.9873 71.0436Z" fill="#FEFEFE"/>
<path d="M80.9696 70.8269C81.0052 70.7616 81.0943 70.7051 81.1715 70.7022C81.2457 70.6992 81.2784 70.7526 81.2427 70.8209C81.2071 70.8863 81.1151 70.9427 81.0408 70.9456C80.9636 70.9486 80.931 70.8952 80.9696 70.8269ZM81.2695 70.818C81.314 70.7378 81.2754 70.6754 81.1834 70.6784C81.0913 70.6814 80.9844 70.7497 80.9399 70.8298C80.8983 70.91 80.9369 70.9724 81.029 70.9694C81.118 70.9664 81.2279 70.8981 81.2695 70.818Z" fill="#D2D4D5"/>
<path d="M79.9304 71.489L80.6192 70.2093L78.134 70.2835L77.4481 71.5632L79.9304 71.489Z" fill="#2F2F30"/>
<path d="M80.1589 70.7081L80.1767 70.7378L80.055 70.9664L80.0045 70.9991L79.9867 70.9694L80.1084 70.7408L80.1589 70.7081Z" fill="#55C2B9"/>
<path d="M79.8324 70.72L79.8502 70.7467L79.7255 70.9783L79.675 71.008L79.6572 70.9783L79.7819 70.7497L79.8324 70.72Z" fill="#55C2B9"/>
<path d="M79.675 71.008L79.6928 71.0377L79.5681 71.2663L79.5206 71.299L79.5028 71.2693L79.6246 71.0407L79.675 71.008Z" fill="#55C2B9"/>
<path d="M80.0046 70.9991L79.9542 71.0288L79.6929 71.0377L79.675 71.008L79.7255 70.9783L79.9868 70.9694L80.0046 70.9991Z" fill="#55C2B9"/>
<path d="M80.159 70.7081L80.1085 70.7408L79.8502 70.7467L79.8324 70.72L79.8799 70.6873L80.1412 70.6814L80.159 70.7081Z" fill="#55C2B9"/>
<path d="M79.8473 71.2871L79.7968 71.3198L79.5384 71.3257L79.5206 71.299L79.5681 71.2663L79.8294 71.2604L79.8473 71.2871Z" fill="#55C2B9"/>
<path d="M79.3602 70.7319L79.378 70.7616L79.2563 70.9932L79.2058 71.0229L79.188 70.9932L79.3097 70.7645L79.3602 70.7319Z" fill="#55C2B9"/>
<path d="M79.2058 71.0229L79.2236 71.0525L79.0989 71.2812L79.0485 71.3109L79.0306 71.2841L79.1553 71.0525L79.2058 71.0229Z" fill="#55C2B9"/>
<path d="M79.6898 70.723L79.6393 70.7527L79.378 70.7616L79.3602 70.7319L79.4107 70.7022L79.672 70.6933L79.6898 70.723Z" fill="#55C2B9"/>
<path d="M78.9119 70.7467L78.9297 70.7764L78.805 71.005L78.7545 71.0377L78.7367 71.008L78.8614 70.7794L78.9119 70.7467Z" fill="#55C2B9"/>
<path d="M78.5823 70.7586L78.6001 70.7853L78.4754 71.0169L78.4279 71.0466L78.4071 71.0199L78.5318 70.7883L78.5823 70.7586Z" fill="#55C2B9"/>
<path d="M78.7545 71.0377L78.7723 71.0674L78.6506 71.296L78.6001 71.3257L78.5823 71.299L78.704 71.0674L78.7545 71.0377Z" fill="#55C2B9"/>
<path d="M78.425 71.0466L78.4428 71.0763L78.3211 71.3049L78.2706 71.3376L78.2528 71.3079L78.3775 71.0793L78.425 71.0466Z" fill="#55C2B9"/>
<path d="M78.7546 71.0377L78.7041 71.0674L78.4428 71.0763L78.428 71.0466L78.4755 71.0169L78.7368 71.008L78.7546 71.0377Z" fill="#55C2B9"/>
<path d="M78.9119 70.7467L78.8614 70.7794L78.6001 70.7853L78.5823 70.7586L78.6327 70.7259L78.894 70.72L78.9119 70.7467Z" fill="#55C2B9"/>
<path d="M78.6002 71.3257L78.5497 71.3584L78.2884 71.3673L78.2706 71.3376L78.3211 71.3049L78.5824 71.299L78.6002 71.3257Z" fill="#55C2B9"/>
<path d="M78.0776 70.7734L78.0954 70.8031L77.9737 71.0318L77.9232 71.0615L77.9054 71.0347L78.0301 70.8031L78.0776 70.7734Z" fill="#55C2B9"/>
<path d="M78.2527 71.0526L78.2705 71.0822L78.1458 71.3109L78.0953 71.3435L78.0775 71.3138L78.2022 71.0822L78.2527 71.0526Z" fill="#55C2B9"/>
<path d="M78.2528 71.0525L78.2023 71.0822L77.941 71.0911L77.9232 71.0615L77.9737 71.0318L78.232 71.0229L78.2528 71.0525Z" fill="#55C2B9"/>
<path d="M78.4071 70.7616L78.3566 70.7942L78.0953 70.8031L78.0775 70.7734L78.128 70.7408L78.3893 70.7348L78.4071 70.7616Z" fill="#55C2B9"/>
<path d="M78.0954 71.3435L78.0449 71.3732L77.7836 71.3821L77.7688 71.3524L77.8163 71.3198L78.0776 71.3138L78.0954 71.3435Z" fill="#55C2B9"/>
<path d="M80.3133 70.4557L80.3074 70.4409C80.2866 70.4528 80.2658 70.4617 80.245 70.4617C80.2213 70.4646 80.2124 70.4528 80.2213 70.4379C80.2302 70.4201 80.245 70.4142 80.2658 70.4082L80.2985 70.3963C80.3193 70.3904 80.346 70.3785 80.3579 70.3548C80.3727 70.3281 80.3579 70.3103 80.3252 70.3132C80.3014 70.3132 80.2777 70.3221 80.2599 70.334L80.2658 70.3459C80.2807 70.337 80.2985 70.331 80.3133 70.331C80.3341 70.331 80.343 70.3399 80.3371 70.3548C80.3282 70.3696 80.3074 70.3756 80.2896 70.3815L80.2599 70.3934C80.2332 70.4023 80.2124 70.4142 80.1975 70.4379C80.1856 70.4617 80.1975 70.4825 80.2361 70.4825C80.2628 70.4795 80.2896 70.4706 80.3133 70.4557Z" fill="#55C2B9"/>
<path d="M80.1322 70.4023C80.0996 70.4023 80.0907 70.3934 80.1025 70.3697C80.1144 70.3459 80.1352 70.337 80.1679 70.337H80.1946L80.159 70.3993L80.1322 70.4023ZM80.2272 70.3192H80.1738C80.1322 70.3222 80.0966 70.334 80.0788 70.3697C80.061 70.4053 80.0788 70.4201 80.1204 70.4172H80.1501L80.1144 70.4825H80.1382L80.2272 70.3192Z" fill="#55C2B9"/>
<path d="M79.9007 70.4082C79.9214 70.3667 79.9571 70.3399 79.9897 70.3399C80.0224 70.3399 80.0313 70.3637 80.0105 70.4053C79.9868 70.4439 79.9511 70.4706 79.9185 70.4735C79.8858 70.4735 79.8799 70.4468 79.9007 70.4082ZM80.0343 70.4023C80.061 70.3518 80.0461 70.3221 79.9986 70.3221C79.9541 70.3251 79.9036 70.3578 79.8769 70.4082C79.8472 70.4617 79.862 70.4914 79.9095 70.4914C79.9571 70.4884 80.0046 70.4557 80.0343 70.4023Z" fill="#55C2B9"/>
<path d="M79.7937 70.4854C79.7759 70.4558 79.767 70.4379 79.7759 70.4231C79.7818 70.4112 79.7907 70.4053 79.8056 70.4023L79.8234 70.4142L79.8353 70.4082C79.8323 70.3993 79.8234 70.3934 79.8115 70.3934C79.7907 70.3934 79.7699 70.4053 79.761 70.4231C79.7521 70.4409 79.761 70.4587 79.7729 70.4825H79.7551H79.7225L79.7195 70.4943L79.7907 70.4914L79.7937 70.4854Z" fill="#55C2B9"/>
<path d="M79.0159 70.4765C79.0248 70.4617 79.0367 70.4498 79.0515 70.4498L79.0693 70.4587L79.0485 70.4973C79.0367 70.5033 79.0277 70.5062 79.0218 70.5062C79.0099 70.5062 79.004 70.4943 79.0159 70.4765ZM79.0456 70.5062L79.0426 70.5151L79.0545 70.5122L79.1109 70.4053H79.096L79.0812 70.435L79.0753 70.4498L79.0545 70.4409C79.0337 70.4409 79.0129 70.4557 79.001 70.4765C78.9862 70.5033 78.9951 70.5181 79.0159 70.5151C79.0218 70.5151 79.0337 70.5122 79.0456 70.5062Z" fill="#55C2B9"/>
<path d="M78.9297 70.4765C78.9356 70.4617 78.9475 70.4528 78.9624 70.4528C78.9743 70.4528 78.9802 70.4587 78.9743 70.4735L78.9297 70.4765ZM78.9832 70.4795C78.998 70.4557 78.9861 70.4409 78.9683 70.4409C78.9446 70.4439 78.9267 70.4557 78.9149 70.4765L78.9119 70.4854L78.9683 70.4825C78.9594 70.4973 78.9416 70.5092 78.9267 70.5092L78.9089 70.5032L78.9 70.5121C78.906 70.5151 78.9119 70.5211 78.9238 70.5181C78.9446 70.5181 78.9713 70.5032 78.9832 70.4795Z" fill="#55C2B9"/>
<path d="M78.8377 70.5033L78.8496 70.4825C78.8763 70.4854 78.8822 70.4914 78.8763 70.5003L78.8555 70.5122L78.8377 70.5033ZM78.8911 70.5003C78.9001 70.4825 78.8882 70.4765 78.8525 70.4736C78.8585 70.4647 78.8674 70.4557 78.8823 70.4557L78.903 70.4617L78.9119 70.4528C78.906 70.4498 78.8971 70.4439 78.8852 70.4439C78.8644 70.4439 78.8496 70.4587 78.8377 70.4765L78.814 70.5211H78.8258L78.8318 70.5122L78.8555 70.5211C78.8674 70.5211 78.8822 70.5122 78.8911 70.5003Z" fill="#55C2B9"/>
<path d="M78.7991 70.4973L78.8229 70.4587H78.8348L78.8407 70.4468H78.8259L78.8377 70.4261L78.8259 70.429L78.814 70.4498H78.7902L78.7843 70.4587H78.808L78.7873 70.5003L78.7665 70.5151L78.7576 70.5122L78.7487 70.5211L78.7635 70.524C78.7813 70.524 78.7932 70.5122 78.7991 70.4973Z" fill="#55C2B9"/>
<path d="M78.7545 70.4171H78.7456L78.7189 70.5478H78.7307L78.7545 70.4171Z" fill="#55C2B9"/>
<path d="M78.7099 70.4528H78.6981L78.6921 70.4617L78.6713 70.4498C78.6595 70.4528 78.6506 70.4558 78.6417 70.4647L78.6209 70.4528C78.6031 70.4528 78.5912 70.4647 78.5793 70.4825L78.5555 70.53L78.5704 70.527L78.5941 70.4825C78.6001 70.4706 78.609 70.4647 78.6179 70.4647L78.6327 70.4736L78.606 70.527H78.6209L78.6446 70.4825C78.6506 70.4676 78.6595 70.4617 78.6713 70.4617L78.6862 70.4736L78.6565 70.527L78.6713 70.524L78.7099 70.4528Z" fill="#55C2B9"/>
<path d="M78.5675 70.4557H78.5526L78.514 70.53H78.5289L78.5675 70.4557ZM78.5823 70.432L78.5764 70.4261L78.5615 70.432L78.5675 70.4409L78.5823 70.432Z" fill="#55C2B9"/>
<path d="M78.526 70.4557L78.5141 70.4587L78.5052 70.4676C78.5022 70.4617 78.4963 70.4557 78.4844 70.4557C78.4666 70.4557 78.4547 70.4676 78.4428 70.4855L78.4191 70.533H78.4339L78.4577 70.4884C78.4636 70.4736 78.4725 70.4676 78.4844 70.4676L78.4992 70.4765L78.4725 70.53H78.4844L78.526 70.4557Z" fill="#55C2B9"/>
<path d="M78.4072 70.5062L78.4309 70.4587L78.4161 70.4617L78.3923 70.5062C78.3864 70.5181 78.3775 70.524 78.3686 70.524L78.3508 70.5151L78.3805 70.4617H78.3656L78.327 70.5359H78.3389L78.3448 70.524C78.3478 70.53 78.3538 70.5359 78.3656 70.5359C78.3834 70.5359 78.3983 70.524 78.4072 70.5062Z" fill="#55C2B9"/>
<path d="M78.3062 70.5151L78.33 70.4735H78.3418L78.3478 70.4646L78.3329 70.4617L78.3418 70.4409L78.3329 70.4439L78.3211 70.4646H78.2973L78.2914 70.4735H78.3151L78.2914 70.5151L78.2736 70.53L78.2646 70.527L78.2557 70.5359L78.2706 70.5389C78.2884 70.5389 78.3003 70.527 78.3062 70.5151Z" fill="#55C2B9"/>
<path d="M78.2112 70.4973C78.2201 70.4825 78.232 70.4735 78.2438 70.4735C78.2557 70.4735 78.2646 70.4824 78.2557 70.4943L78.2112 70.4973ZM78.2676 70.5003C78.2795 70.4765 78.2706 70.4617 78.2498 70.4646C78.229 70.4646 78.2112 70.4765 78.1993 70.5003L78.1963 70.5062L78.2528 70.5032C78.2438 70.5211 78.226 70.53 78.2112 70.53L78.1934 70.527L78.1844 70.5329C78.1874 70.5389 78.1963 70.5418 78.2082 70.5418C78.229 70.5389 78.2557 70.524 78.2676 70.5003Z" fill="#55C2B9"/>
<path d="M81.6377 72.1274C81.706 72.2343 81.9079 72.0443 82.089 71.7028C82.2731 71.3614 82.3711 70.9961 82.3057 70.8922C82.2374 70.7853 82.0356 70.9754 81.8515 71.3168C81.6674 71.6583 81.5723 72.0205 81.6377 72.1274Z" fill="#5C5B61"/>
<path d="M77.2908 72.5253L77.3591 72.3946C77.4006 72.3174 77.4956 72.267 77.6292 72.264C77.9024 72.2551 78.2379 72.4362 78.3805 72.6678C78.4487 72.7777 78.4606 72.8786 78.425 72.9558L78.3448 73.1043L78.3033 73.0686C78.2587 73.0864 78.2083 73.0983 78.1459 73.1013C77.8757 73.1102 77.5402 72.9291 77.3977 72.6975C77.362 72.6411 77.3412 72.5847 77.3353 72.5342L77.2908 72.5253Z" fill="#FEFEFE"/>
<path d="M77.3264 72.8281C77.4689 73.0597 77.8044 73.2408 78.0746 73.2319C78.3477 73.226 78.4517 73.03 78.3092 72.7984C78.1666 72.5698 77.8311 72.3887 77.5579 72.3946C77.2878 72.4035 77.1838 72.5965 77.3264 72.8281Z" fill="#E8E7E8"/>
<path d="M77.4748 72.8251C77.5758 72.9855 77.8074 73.1102 77.9974 73.1042C78.1073 73.1013 78.1756 73.0567 78.1964 72.9855C78.1637 73.0271 78.1043 73.0538 78.0241 73.0538C77.8341 73.0597 77.6025 72.935 77.5016 72.7747C77.46 72.7064 77.4481 72.644 77.463 72.5906C77.4184 72.647 77.4184 72.7301 77.4748 72.8251Z" fill="#FEFEFE"/>
<path d="M77.5015 72.7747C77.6025 72.935 77.8341 73.0597 78.0241 73.0538C78.1043 73.0538 78.1636 73.0271 78.1963 72.9855C78.2112 72.935 78.2022 72.8727 78.1577 72.8044C78.0597 72.644 77.8252 72.5193 77.6381 72.5223C77.5579 72.5253 77.4985 72.552 77.4629 72.5906C77.4481 72.644 77.4599 72.7064 77.5015 72.7747Z" fill="#96989B"/>
<path d="M84.4258 69.2384L84.4287 69.2354L84.3664 70.2004L83.1282 71.0882L82.1573 70.7111C82.0623 70.619 81.5902 71.7681 81.5783 71.9195C81.5635 72.0561 82.3236 72.5074 82.3622 72.5965L82.3681 72.6054L82.5047 72.6945L82.5166 72.7034H82.5196L83.6864 73.4784C83.6864 73.4784 83.9359 73.7307 84.3812 73.7278C84.8237 73.7218 85.5838 73.7218 85.5838 73.7218C85.5838 73.7218 85.7441 73.7753 86.0588 73.7545H86.0648C86.2103 73.7426 86.3884 73.7159 86.6052 73.6624C87.2732 73.4873 87.965 73.2943 87.965 73.2943L88.0571 73.3121C88.1343 73.324 88.2531 73.3418 88.3807 73.3537C88.6153 73.3685 88.8736 73.3566 88.9389 73.2319C89.0666 72.9855 90.3137 69.9688 90.5364 69.6303C90.7531 69.2888 93.9272 67.9765 96.8607 66.0554C97.0567 65.9277 97.2497 65.7941 97.4457 65.6635C97.5496 65.5922 97.6535 65.5209 97.7633 65.4467C98.8441 64.7015 100.157 63.7424 101.424 62.7893C101.781 62.5221 102.131 62.2489 102.484 61.9787C102.695 61.8124 102.909 61.6521 103.117 61.4888L103.402 61.2602C103.731 61.0048 104.052 60.7435 104.373 60.4793C104.587 60.3041 104.791 60.1348 104.975 59.9745L105.005 59.9537C105.685 59.3658 106.133 58.9323 106.187 58.7661L106.199 58.7156C106.318 58.3326 106.267 58.1128 106.113 57.7773L106.104 57.7536C106.015 57.5606 105.896 57.3319 105.756 57.0142C105.347 56.0938 102.098 55.3337 102.098 55.3337C102.098 55.3337 101.505 55.3871 101.261 55.5148C101.018 55.6395 89.5387 65.4942 88.6984 65.803C87.8641 66.1118 84.9454 66.8749 84.9454 66.8749C84.9454 66.8749 83.3301 67.7716 83.0124 68.0151C82.6947 68.2645 81.5575 69.4967 81.5189 69.6244C81.4833 69.758 81.9317 70.2657 82.5878 70.1113C83.2173 69.9628 84.3515 69.2799 84.4258 69.2384Z" fill="#CE8F64"/>
<path d="M106.199 58.7156C107.479 58.2435 108.592 55.3634 108.951 54.4875C109.236 53.8016 110.293 51.6252 110.837 50.5117C110.664 50.3811 110.513 50.2475 110.403 50.1228C110.163 49.8437 109.106 49.4814 107.844 49.235C108.096 49.3092 108.348 49.3834 108.595 49.4755C109.106 49.6655 109.652 50.0278 109.682 50.5711C109.705 50.9601 109.459 51.3015 109.251 51.6341C108.366 53.0504 108.114 54.7755 107.348 56.263C107.241 56.4709 107.119 56.6787 106.956 56.845C106.796 57.0142 106.594 57.1449 106.433 57.3141C106.309 57.4507 106.211 57.614 106.113 57.7773C106.267 58.1128 106.318 58.3326 106.199 58.7156Z" fill="#A36138"/>
<path d="M88.5381 73.3566C88.7192 73.3566 88.8885 73.327 88.9389 73.2319C89.0666 72.9855 90.3137 69.9688 90.5334 69.6303C90.7531 69.2918 93.8737 68.0002 96.7895 66.1029C96.8132 66.0881 96.837 66.0703 96.8607 66.0554C97.0567 65.9278 97.2497 65.7941 97.4457 65.6635C97.5496 65.5922 97.6535 65.521 97.7633 65.4467C98.8441 64.7015 100.157 63.7424 101.424 62.7893C101.781 62.5221 102.131 62.2489 102.484 61.9787C102.695 61.8125 102.909 61.6521 103.117 61.4888L103.402 61.2602C103.731 61.0048 104.052 60.7436 104.373 60.4793C104.575 60.313 104.774 60.1438 104.976 59.9745L105.005 59.9538C105.685 59.3659 106.133 58.9324 106.187 58.7661L106.199 58.7156C106.318 58.3326 106.267 58.1129 106.113 57.7773C106.05 57.8902 105.985 58.003 105.911 58.1129C105.759 58.3385 105.563 58.4543 105.356 58.5582C105.183 58.6503 105.005 58.7334 104.839 58.8611C104.595 59.0452 104.367 59.2619 104.135 59.4638C102.505 60.8653 100.86 62.2519 99.1797 63.588C97.6535 64.7995 96.0798 66.1089 94.328 66.9788C90.6254 68.8168 89.9128 69.7224 89.9128 69.7224C89.9128 69.7224 89.3665 71.8305 89.1527 72.065C88.9864 72.2551 88.55 73.0389 88.3807 73.3507C88.4312 73.3566 88.4847 73.3566 88.5381 73.3566Z" fill="#A36138"/>
<path d="M104.126 45.0544C104.094 45.2563 104.079 45.957 104.076 46.7142C104.067 47.8217 104.079 49.0539 104.079 49.0539C106.211 48.6798 109.922 49.5646 110.403 50.1228C110.534 50.2712 110.727 50.4345 110.944 50.5919C111.52 51.0106 112.241 51.3877 112.241 51.3877C112.241 51.3877 112.722 49.2617 112.764 48.2463C112.802 47.2308 113.634 41.6428 113.384 40.0662C113.135 38.4925 112.594 38.347 112.594 38.347L112.58 38.3143L112.505 38.1718C112.283 37.7799 111.632 36.8624 110.382 36.7555C108.788 36.6219 105.311 38.2164 104.901 39.5555C104.486 40.8946 104.209 44.5556 104.126 45.0544Z" fill="#88A8D7"/>
<path d="M112.58 38.3143C112.523 38.1718 112.461 38.0234 112.398 37.866C112.431 37.9521 112.464 38.056 112.505 38.1718L112.58 38.3143Z" fill="#5A85AA"/>
<path d="M112.241 51.3876C112.241 51.3876 112.722 49.2617 112.764 48.2463C112.764 48.1898 112.77 48.1186 112.775 48.0384C112.876 46.821 113.432 42.8898 113.432 40.8708C113.432 40.5472 113.417 40.274 113.384 40.0662C113.135 38.4925 112.594 38.347 112.594 38.347L112.58 38.3143L112.505 38.1718C112.666 38.6795 112.85 39.4337 112.879 40.078C112.888 40.3215 112.876 40.5472 112.835 40.7431C112.648 41.6072 111.953 44.027 111.852 45.0425C111.763 45.9451 111.16 49.4458 110.943 50.5919C111.52 51.0106 112.241 51.3876 112.241 51.3876Z" fill="#718FC8"/>
<path d="M86.0647 73.7545C86.2102 73.7426 86.3883 73.7189 86.6021 73.6625C86.8218 73.6061 87.0386 73.5467 87.2375 73.4932C87.0386 73.5467 86.8218 73.6061 86.6051 73.6625C86.3943 73.7159 86.2161 73.7427 86.0736 73.7516C86.0706 73.7545 86.0677 73.7545 86.0647 73.7545Z" fill="#B4998D"/>
<path d="M86.0736 73.7515C86.2161 73.7426 86.3943 73.7159 86.6051 73.6625C86.8219 73.606 87.0386 73.5467 87.2375 73.4932C87.6473 73.3833 87.962 73.2913 87.962 73.2913L88.057 73.3121L87.8284 73.1547C87.8284 73.1547 88.0808 72.6559 87.9264 72.6559C87.9115 72.6559 87.8937 72.6589 87.87 72.6708C87.6117 72.7866 86.231 73.707 86.0736 73.7515Z" fill="#A36138"/>
<path d="M84.3723 70.1173L84.3783 70.0104L84.3723 70.1173Z" fill="#E7BEAE"/>
<path d="M84.3663 70.2004L84.3723 70.1173L84.3663 70.2004ZM84.3782 70.0104L84.4287 69.2354V69.2384L84.3782 70.0104Z" fill="#B4998D"/>
<path d="M84.3663 70.2004L85.8361 68.7128L85.5243 68.2407L84.4287 69.2354V69.2384V69.2354L84.3782 70.0103L84.3723 70.1172L84.3663 70.2004Z" fill="#A36138"/>
<path d="M85.9133 73.7605C85.9578 73.7605 86.0083 73.7575 86.0588 73.7545C86.0588 73.7545 86.0588 73.7545 86.0558 73.7545C86.0024 73.7575 85.9519 73.7605 85.9074 73.7605C85.8925 73.7605 85.8747 73.7605 85.8599 73.7575C85.8777 73.7605 85.8955 73.7605 85.9133 73.7605ZM83.725 73.5111C83.6983 73.4932 83.6864 73.4784 83.6864 73.4784L82.5195 72.7034L83.6834 73.4784C83.6834 73.4784 83.6983 73.4903 83.725 73.5111Z" fill="#B4998D"/>
<path d="M85.9074 73.7604C85.9519 73.7604 86.0024 73.7575 86.0558 73.7545C85.946 73.7367 85.5926 73.3774 85.5926 73.3774L86.8427 72.5817L84.5445 73.4427L83.9833 73.3002L85.8064 71.9403C85.6936 71.9968 83.8883 72.9113 83.7963 72.938L82.5195 72.7034L83.6864 73.4784C83.6864 73.4784 83.6983 73.4932 83.725 73.511C83.8111 73.5793 84.0368 73.7278 84.3753 73.7278C84.3782 73.7278 84.3782 73.7278 84.3812 73.7278C84.6484 73.7219 85.0285 73.7218 85.2898 73.7218C85.462 73.7218 85.5837 73.7218 85.5837 73.7218C85.5867 73.7218 85.6787 73.7545 85.8599 73.7575C85.8747 73.7604 85.8925 73.7604 85.9074 73.7604Z" fill="#A36138"/>
<path d="M35.1967 101.418L33.6884 100.551C32.4947 97.6416 30.354 94.9307 27.9133 93.5204L10.2912 83.345C7.85052 81.9376 5.71271 82.181 4.51613 83.7072L3.01076 82.8372C1.34801 81.8782 0 82.6472 0 84.5534V100.305C0 102.214 1.34801 104.539 3.01076 105.501L35.1967 124.082C36.8594 125.041 38.2074 124.272 38.2074 122.366V106.611C38.2074 104.705 36.8594 102.38 35.1967 101.418Z" fill="#CED1D1"/>
<path d="M3.01076 82.8372L4.51613 83.7072C5.71271 82.181 7.85052 81.9376 10.2912 83.345L27.9133 93.5204C30.354 94.9307 32.4947 97.6416 33.6884 100.551L35.1967 101.418C36.8594 102.38 38.2074 104.705 38.2074 106.611V107.363C38.2074 105.454 36.8594 103.129 35.1967 102.17L33.6884 101.3C32.4947 98.3898 30.354 95.679 27.9133 94.2686L10.2912 84.0932C7.85052 82.6858 5.71271 82.9293 4.51613 84.4554L3.01076 83.5855C1.34801 82.6264 0 83.3954 0 85.3046V84.5534C0 82.6472 1.34801 81.8782 3.01076 82.8372Z" fill="#EAEAE9"/>
<path d="M68.8286 45.1761L69.4492 47.5633C69.3156 46.8686 69.0008 45.4166 68.9414 45.3216L68.8286 45.1761Z" fill="#604443"/>
<path fill-rule="evenodd" clip-rule="evenodd" d="M99.2805 26.4703C100.091 25.3835 101.234 24.7719 102.253 24.083C103.12 24.0682 103.535 24.3265 103.699 24.8699C104.12 26.298 104.316 27.7411 104.465 29.2227C103.909 30.1728 102.621 31.3991 101.879 31.7762C101.267 31.9039 100.388 31.6515 99.4973 31.4407C98.8084 31.4021 98.3274 31.0517 97.9681 30.5262C98.4046 29.1752 98.8441 27.8212 99.2805 26.4703Z" fill="#9DCDDD"/>
<path fill-rule="evenodd" clip-rule="evenodd" d="M101.193 24.7778C102.086 24.8461 102.502 26.0486 102.977 27.0166C103.23 27.263 103.491 27.0938 103.402 26.6543C102.826 25.4904 102.247 24.4512 101.674 24.4631C101.513 24.567 101.353 24.6739 101.193 24.7778Z" fill="#D2D3D5"/>
<path d="M102.862 29.5432C103.269 29.7208 103.749 29.5217 103.933 29.0985C104.118 28.6753 103.938 28.1884 103.531 28.0108C103.124 27.8333 102.645 28.0324 102.46 28.4556C102.275 28.8787 102.455 29.3657 102.862 29.5432Z" fill="white"/>
<path d="M104.512 28.9881C104.444 29.0327 104.349 29.0148 104.302 28.9465C104.257 28.8753 104.275 28.7832 104.343 28.7357L104.512 28.9881ZM109.685 25.5646L109.922 25.7458L109.797 25.9031L109.664 26.0516L109.527 26.1941L109.385 26.3307L109.236 26.4584L109.085 26.5831L108.928 26.6989L108.767 26.8117L108.601 26.9186L108.435 27.0225L108.262 27.1205L108.09 27.2155L107.912 27.3076L107.734 27.3966L107.556 27.4857L107.375 27.5688L107.191 27.652L107.006 27.7351L106.825 27.8183L106.638 27.8984L106.454 27.9786L106.27 28.0617L106.089 28.1449L105.905 28.228L105.724 28.3141L105.543 28.4002L105.365 28.4893L105.189 28.5813L105.017 28.6793L104.845 28.7773L104.676 28.8783L104.512 28.9881L104.343 28.7357L104.515 28.6259L104.69 28.519L104.869 28.4151L105.047 28.3171L105.228 28.2221L105.409 28.13L105.593 28.041L105.777 27.9548L105.961 27.8687L106.148 27.7856L106.332 27.7054L106.517 27.6223L106.701 27.5421L106.885 27.459L107.066 27.3788L107.247 27.2957L107.425 27.2125L107.603 27.1264L107.775 27.0403L107.948 26.9513L108.114 26.8592L108.28 26.7642L108.441 26.6632L108.598 26.5623L108.752 26.4554L108.901 26.3455L109.043 26.2297L109.183 26.108L109.316 25.9803L109.444 25.8497L109.566 25.7101L109.685 25.5646ZM109.685 25.5646C109.735 25.4964 109.83 25.4845 109.895 25.535C109.961 25.5854 109.973 25.6804 109.922 25.7458L109.685 25.5646Z" fill="#373435"/>
<path d="M112.692 24.6175C113.093 22.9429 111.252 21.773 111.252 21.773C111.252 21.773 112.303 24.0741 110.011 24.1602C109.8 24.1691 109.625 24.2196 109.465 24.2849C109.112 24.564 108.384 25.0807 108.188 25.4221C108.565 25.7517 108.488 25.9685 109.017 26.1615C109.566 26.3634 110.234 26.4851 110.798 26.3307C111.291 26.1941 111.71 25.9358 112.075 25.6092C112.321 25.3063 112.535 24.9708 112.692 24.6175Z" fill="#BDBFC1"/>
<path d="M98.6333 28.9822C98.7165 28.9911 98.7788 29.0624 98.7699 29.1455C98.764 29.2286 98.6897 29.291 98.6066 29.2821L98.6333 28.9822ZM89.5358 30.4698L89.5922 30.1728L89.8742 30.2203L90.1622 30.253L90.4503 30.2708L90.7442 30.2797L91.0382 30.2738L91.3351 30.2619L91.632 30.2352L91.9319 30.2025L92.2318 30.161L92.5317 30.1134L92.8345 30.06L93.1344 30.0006L93.4343 29.9353L93.7342 29.867L94.0341 29.7957L94.331 29.7215L94.6249 29.6473L94.9189 29.5731L95.2099 29.4959L95.4979 29.4246L95.7829 29.3533L96.065 29.285L96.3441 29.2227L96.6173 29.1633L96.8875 29.1128L97.1517 29.0653L97.413 29.0267L97.6684 28.997L97.9178 28.9763L98.1612 28.9673H98.4017L98.6333 28.9822L98.6066 29.2821L98.3928 29.2702L98.1672 29.2672L97.9356 29.2791L97.698 29.2969L97.4516 29.3266L97.1992 29.3622L96.9409 29.4068L96.6766 29.4602L96.4094 29.5166L96.1333 29.579L95.8542 29.6473L95.5721 29.7156L95.2841 29.7898L94.9931 29.864L94.6992 29.9383L94.4052 30.0125L94.1053 30.0867L93.8025 30.158L93.4996 30.2292L93.1967 30.2946L92.8909 30.3539L92.5821 30.4104L92.2763 30.4608L91.9705 30.5024L91.6617 30.5351L91.3529 30.5618L91.0471 30.5766L90.7412 30.5796L90.4384 30.5737L90.1355 30.5529L89.8327 30.5173L89.5358 30.4698ZM81.3289 33.9496L81.2013 33.6765L81.4061 33.5755L81.6199 33.4657L81.8396 33.3469L82.0683 33.2162L82.2999 33.0797L82.5374 32.9371L82.7809 32.7887L83.0303 32.6343L83.2827 32.4769L83.541 32.3195L83.7993 32.1562L84.0636 31.9959L84.3308 31.8326L84.601 31.6723L84.8741 31.5149L85.1503 31.3575L85.4264 31.2091L85.7025 31.0636L85.9816 30.924L86.2637 30.7934L86.5428 30.6717L86.8249 30.5559L87.107 30.4549L87.3861 30.3629L87.6681 30.2827L87.9472 30.2174L88.2263 30.1669L88.5025 30.1313L88.7786 30.1134H89.0518L89.3249 30.1342L89.5922 30.1728L89.5358 30.4698L89.2923 30.4341L89.0429 30.4163H88.7875L88.5322 30.4312L88.2709 30.4638L88.0066 30.5113L87.7424 30.5737L87.4751 30.6509L87.2049 30.737L86.9318 30.8379L86.6616 30.9478L86.3884 31.0666L86.1123 31.1972L85.8391 31.3308L85.566 31.4733L85.2958 31.6218L85.0226 31.7762L84.7554 31.9306L84.4881 32.0909L84.2209 32.2513L83.9596 32.4116L83.6983 32.5749L83.443 32.7352L83.1876 32.8926L82.9412 33.047L82.6947 33.1955L82.4542 33.3409L82.2167 33.4775L81.9881 33.6082L81.7624 33.7329L81.5427 33.8457L81.3289 33.9496ZM81.3289 33.9496C81.2517 33.9823 81.1627 33.9496 81.127 33.8754C81.0944 33.7982 81.127 33.7091 81.2013 33.6765L81.3289 33.9496Z" fill="#9DCDDD"/>
<path fill-rule="evenodd" clip-rule="evenodd" d="M100.629 28.7981L99.5686 31.019C100.053 32.6224 100.908 33.2133 100.626 35.0423C100.064 36.325 99.0044 38.5578 98.8975 40.0572C98.7461 42.1268 97.799 42.9433 96.8993 44.7782C96.4034 45.7907 90.1919 41.3637 90.5393 40.3779C90.8808 39.3803 91.4835 38.0709 92.012 37.1593C92.5257 36.2834 93.4639 35.7222 94.0548 34.8938C94.6783 34.0179 94.7674 32.7145 95.6344 32.0761L98.1671 30.2144L99.0757 28.0499C99.2153 28.4477 99.8655 28.6437 100.629 28.7981Z" fill="#E6E7E8"/>
<path fill-rule="evenodd" clip-rule="evenodd" d="M98.464 29.5048C98.6155 29.8403 99.1321 30.0719 99.9546 30.2114L99.5686 31.019C98.8381 30.8617 98.2681 30.636 98.1671 30.2144L98.464 29.5048Z" fill="#197D9E"/>
<path fill-rule="evenodd" clip-rule="evenodd" d="M98.7966 33.4419C100.367 35.3481 98.0246 37.0791 98.0543 37.9699C98.0425 37.9758 96.2461 42.3257 95.2306 41.3191C94.5537 37.2543 96.6796 36.1943 98.7966 33.4419Z" fill="#D2D3D5"/>
<defs>
<linearGradient id="paint0_linear" x1="135.11" y1="10.6267" x2="103.945" y2="64.6064" gradientUnits="userSpaceOnUse">
<stop stop-color="#D7D9D9"/>
<stop offset="0.160784" stop-color="#E8E7E5"/>
<stop offset="0.301961" stop-color="#E0E2E0"/>
<stop offset="0.509804" stop-color="#C0C1C2"/>
<stop offset="0.909804" stop-color="#989A9B"/>
<stop offset="1" stop-color="#989A9B"/>
</linearGradient>
</defs>
</svg>
