<svg width="128" height="118" viewBox="0 0 138 128" fill="none" xmlns="http://www.w3.org/2000/svg">
<path d="M36.8811 123.831L0 102.536V101.476L82.6443 96.3507V97.4092L36.8811 123.831Z" fill="#217FD5"/>
<path d="M36.8811 122.771L0 101.476L45.7632 75.056L82.6443 96.3506L36.8811 122.771Z" fill="#49A7FB"/>
<path d="M7.58008 100.273L47.5674 77.1855L78.6744 95.1458L38.6871 118.233L7.58008 100.273Z" fill="white"/>
<path d="M70.0092 89.0546L70.6187 88.7035L56.139 80.3436L55.5312 80.6947L70.0092 89.0546Z" fill="white"/>
<path d="M69.0667 89.6L70.0095 89.0546L55.5314 80.6947L54.5869 81.24L69.0667 89.6Z" fill="#49A7FB"/>
<path d="M67.3577 90.5873L69.0668 89.6L54.587 81.24L52.8779 82.2273L67.3577 90.5873Z" fill="white"/>
<path d="M67.3577 90.5872C62.5317 87.7999 57.7039 85.0127 52.8779 82.2272C53.0045 81.9207 53.3199 82.0472 53.3199 82.0472C58.1459 84.8327 62.521 87.3615 67.3488 90.147C67.3488 90.147 67.1314 90.2682 67.3577 90.5872V90.5872Z" fill="#49A7FB"/>
<path d="M56.1606 84.1217C55.0664 83.4891 53.9722 82.8582 52.8779 82.2273C52.8726 81.183 54.3322 80.34 56.1392 80.3436C57.2335 80.9745 58.3277 81.6071 59.4219 82.238C57.6148 82.2344 56.1553 83.0774 56.1606 84.1217Z" fill="#82CAFC"/>
<path d="M67.3581 90.5872C66.2638 89.9545 65.1714 89.3237 64.0772 88.691C64.0718 87.6485 65.5314 86.8055 67.3385 86.8091C68.4327 87.44 69.5269 88.0708 70.6194 88.7035C68.8141 88.6999 67.3527 89.5429 67.3581 90.5872V90.5872Z" fill="#82CAFC"/>
<path d="M67.7991 89.6338C62.9731 86.8484 58.1453 84.0611 53.3193 81.2739C53.8843 80.7161 54.9339 80.3418 56.1387 80.3436C60.9664 83.1308 65.7924 85.9181 70.6184 88.7036C69.4137 88.7018 68.3641 89.076 67.7991 89.6338Z" fill="#A4E3FF"/>
<path d="M54.4062 80.6555C54.5595 80.6288 54.7253 80.6109 54.8981 80.6038L68.8147 88.864C68.7114 88.9157 68.6134 88.9709 68.5189 89.0297L54.4062 80.6555Z" fill="white"/>
<path d="M75.9712 106.746L75.9338 106.769L75.8945 106.703L75.9338 106.68L75.9712 106.746L75.9177 106.732L75.9712 106.746Z" fill="#FFA15C"/>
<path d="M75.7433 107.129L75.6043 107.127C75.5045 107.072 75.4207 106.929 75.4189 106.813L75.4867 106.685C75.6863 106.61 75.7914 106.607 75.8449 106.617C75.9785 106.642 75.9928 106.749 75.9946 106.783L75.9322 106.68L75.893 106.703L75.9322 106.769L75.9696 106.746C75.9946 106.878 75.9179 106.984 75.7433 107.129V107.129Z" fill="#FFA15C"/>
<path d="M75.9954 106.783C75.9936 106.821 75.9919 106.924 75.7441 107.129L75.7869 107.017C75.9509 106.892 75.9954 106.822 75.9954 106.783V106.783Z" fill="#217FD5"/>
<path d="M75.4863 106.685C75.5594 106.658 75.734 106.594 75.8463 106.617C75.9871 106.644 75.9942 106.769 75.9942 106.783C75.9942 106.822 75.9497 106.892 75.7857 107.017C75.784 106.899 75.7002 106.76 75.5986 106.703L75.4881 106.685H75.4863V106.685Z" fill="#49A7FB"/>
<path d="M75.1111 107.671L74.8919 107.665C74.7315 107.576 74.6014 107.353 74.5997 107.17C74.5979 107.065 74.6389 106.992 74.703 106.969C74.7191 106.963 75.0149 106.865 75.4872 106.685L75.4195 106.813C75.4212 106.929 75.505 107.072 75.6048 107.127L75.7438 107.129C75.3553 107.451 75.1236 107.658 75.1111 107.671Z" fill="#FFA15C"/>
<path d="M75.7435 107.129C75.6704 107.191 75.5778 107.268 75.4388 107.384L75.2891 107.514L75.1162 107.665C75.1269 107.655 75.3586 107.448 75.7471 107.127L75.7435 107.129V107.129Z" fill="#FFA15C"/>
<path d="M75.1162 107.665C75.1233 107.658 75.355 107.451 75.7435 107.129L75.4833 107.348L75.2891 107.514L75.1162 107.665V107.665Z" fill="#FFA15C"/>
<path d="M75.4873 106.685C75.015 106.865 74.7192 106.963 74.7031 106.969L74.9259 106.89L75.1683 106.805C75.2752 106.765 75.3803 106.726 75.4873 106.685Z" fill="#FFA15C"/>
<path d="M74.708 106.967L74.9254 106.89C75.027 106.856 75.1268 106.819 75.2248 106.783L75.4868 106.685C75.0181 106.863 74.724 106.961 74.708 106.967V106.967Z" fill="#FFA15C"/>
<path d="M75.7471 107.127C75.3586 107.448 75.1269 107.655 75.1162 107.665L75.1768 107.492C75.1875 107.482 75.4103 107.302 75.7863 107.017L75.7471 107.127Z" fill="#217FD5"/>
<path d="M75.1628 107.484C75.1611 107.307 75.0363 107.095 74.8848 107.011C74.7316 106.926 74.6104 107.001 74.6122 107.177C74.6139 107.353 74.7387 107.566 74.892 107.649C75.0434 107.735 75.1664 107.662 75.1628 107.484V107.484ZM75.1771 107.492C75.1789 107.676 75.0506 107.754 74.892 107.665C74.7316 107.576 74.6015 107.353 74.5997 107.17C74.5961 106.985 74.7244 106.906 74.883 106.995C75.0434 107.084 75.1735 107.307 75.1771 107.492Z" fill="#FFA15C"/>
<path d="M75.163 107.484C75.1666 107.662 75.0436 107.735 74.8921 107.649C74.7389 107.566 74.6141 107.354 74.6123 107.177C74.6105 107.001 74.7317 106.926 74.885 107.011C75.0365 107.095 75.1612 107.307 75.163 107.484V107.484Z" fill="#FFA15C"/>
<path d="M74.708 106.967C74.724 106.961 75.0181 106.863 75.4886 106.685L75.5991 106.703C75.7007 106.76 75.7844 106.899 75.7862 107.017C75.4102 107.302 75.1874 107.482 75.1767 107.492C75.1731 107.307 75.0431 107.084 74.8827 106.995L74.708 106.967Z" fill="#49A7FB"/>
<path d="M75.163 107.484C75.1666 107.662 75.0436 107.735 74.8921 107.649C74.7389 107.566 74.6141 107.354 74.6123 107.177C74.6105 107.001 74.7317 106.926 74.885 107.011C75.0365 107.095 75.1612 107.307 75.163 107.484V107.484Z" fill="#FFC69C"/>
<path d="M71.2908 111.444C71.0663 111.629 70.7259 111.64 70.3427 111.426C69.6548 111.043 69.0899 110.086 69.0792 109.287C69.0739 108.831 69.2521 108.526 69.5337 108.421C70.2216 108.164 70.9095 107.908 71.5974 107.651C72.9553 107.147 72.9553 107.147 73.1478 107.084C73.7181 106.904 73.9979 106.871 74.0888 106.86C74.4612 106.817 74.6894 106.846 74.8711 106.961C74.9691 107.022 75.0565 107.129 75.0975 107.202L75.1456 107.298L75.1705 107.366L75.2026 107.558L75.1634 107.484C75.1616 107.307 75.0369 107.095 74.8854 107.011C74.7321 106.926 74.6109 107.001 74.6127 107.177C74.6145 107.354 74.7393 107.566 74.8925 107.649C75.044 107.735 75.167 107.662 75.1634 107.484L75.2026 107.558C75.2044 107.715 75.1509 107.872 75.0226 108.082C74.8925 108.296 74.6573 108.558 74.4969 108.717C74.267 108.945 74.1547 109.045 73.9123 109.252L71.2908 111.444Z" fill="#FFC69C"/>
<path d="M73.9125 109.252C73.3476 109.726 72.4779 110.451 72.3086 110.592C71.97 110.877 71.6314 111.16 71.291 111.444C71.471 111.294 71.5762 111.03 71.5726 110.677C71.6564 110.611 73.2638 109.38 74.0997 108.738C74.9711 108.07 75.2046 107.71 75.2028 107.559C75.201 107.662 75.1957 107.872 74.8909 108.271C74.6682 108.565 74.3385 108.895 73.9125 109.252Z" fill="#FC704D"/>
<path d="M69.5322 108.421L69.8067 108.318L70.0722 108.22C70.2433 108.155 70.4126 108.091 70.5837 108.027C70.7156 107.979 70.8456 107.931 70.9757 107.883L71.1807 107.806C71.6993 107.614 72.2161 107.421 72.7347 107.227C73.4761 106.952 73.8717 106.892 74.0606 106.863C74.1586 106.849 74.3529 106.828 74.5632 106.853C74.7253 106.87 74.8323 106.936 74.8661 106.958C75.0301 107.058 75.1976 107.296 75.2012 107.558C75.203 107.71 74.9695 108.07 74.098 108.738C73.2622 109.38 71.6547 110.611 71.571 110.677C71.5603 109.879 70.9954 108.922 70.3057 108.537C70.0116 108.373 69.7443 108.341 69.5322 108.421V108.421Z" fill="#FFA15C"/>
<path d="M71.1943 109.451C71.0571 109.168 71.0695 109.269 70.8682 109.032L73.0139 107.975C73.6465 107.74 73.9851 107.681 74.1562 107.656C74.0314 107.77 73.8568 107.92 73.6144 108.107C73.1849 108.435 71.7182 109.05 71.1943 109.451V109.451Z" fill="#FFC69C"/>
<path d="M71.5724 110.677C71.5813 111.474 71.0324 111.811 70.3427 111.426C69.6548 111.042 69.0899 110.085 69.0792 109.287C69.0703 108.49 69.621 108.154 70.3071 108.537C70.9968 108.922 71.5617 109.879 71.5724 110.677Z" fill="#FFC69C"/>
<path d="M71.5724 110.677C71.5813 111.474 71.0324 111.811 70.3427 111.426C69.6548 111.042 69.0899 110.085 69.0792 109.287C69.0703 108.49 69.621 108.154 70.3071 108.537C70.9968 108.922 71.5617 109.879 71.5724 110.677Z" fill="#217FD5"/>
<path d="M60.0097 118.294C59.7566 118.444 59.4056 118.429 59.0153 118.214C58.2311 117.775 57.586 116.683 57.5753 115.774C57.57 115.307 57.7322 114.979 57.9959 114.829C59.3343 114.076 61.0523 113.115 63.1053 111.973C63.8217 111.575 64.5381 111.178 65.2545 110.78C66.2151 110.248 67.1774 109.715 68.138 109.184C68.5782 108.941 69.0166 108.699 69.455 108.457C69.2198 108.587 69.0754 108.875 69.079 109.287C69.0897 110.085 69.6546 111.042 70.3425 111.426C70.6882 111.618 70.9965 111.629 71.2193 111.493C70.7916 111.755 70.3639 112.017 69.9362 112.277C69.1057 112.785 67.1364 113.983 67.1222 113.994C65.9317 114.715 64.743 115.439 63.5526 116.159C61.9522 117.127 60.9792 117.711 60.0097 118.294V118.294Z" fill="#217FD5"/>
<path d="M60.416 117.358C60.4285 118.267 59.8012 118.65 59.0153 118.214C58.2312 117.775 57.586 116.683 57.5753 115.774C57.5646 114.865 58.1902 114.482 58.9761 114.92C59.7602 115.357 60.4054 116.448 60.416 117.358V117.358Z" fill="#FFA15C"/>
<path d="M60.416 117.358C60.4285 118.267 59.8012 118.65 59.0153 118.214C58.2312 117.775 57.586 116.683 57.5753 115.774C57.5646 114.865 58.1902 114.482 58.9761 114.92C59.7602 115.357 60.4054 116.448 60.416 117.358V117.358Z" fill="#217FD5"/>
<path d="M58.6486 119.105C58.3937 119.256 58.0391 119.242 57.6488 119.023C56.8557 118.581 56.2053 117.481 56.1946 116.562C56.1874 116.093 56.3514 115.762 56.6169 115.612C56.8379 115.485 57.0589 115.361 57.2781 115.238C57.4189 115.157 57.5615 115.075 57.7022 114.997L57.8484 114.915L57.9232 114.872L57.9963 114.83C57.7325 114.979 57.5704 115.307 57.5757 115.774C57.5864 116.683 58.2315 117.775 59.0157 118.214C59.406 118.429 59.757 118.444 60.0101 118.294C59.5557 118.565 59.103 118.834 58.6486 119.105V119.105Z" fill="#FFA15C"/>
<path d="M71.2184 111.493C70.4663 111.955 70.4663 111.955 69.4701 112.563C69.1065 112.784 68.7448 113.005 68.3812 113.226C67.9606 113.48 67.54 113.737 67.1212 113.994C64.9613 115.305 64.4908 115.59 62.8174 116.604C62.2471 116.947 61.128 117.624 60.0088 118.294C60.2654 118.141 60.4205 117.816 60.4151 117.358C64.7581 114.78 71.2308 110.88 71.5712 110.677C71.5766 111.075 71.4411 111.358 71.2184 111.493Z" fill="#217FD5"/>
<path d="M57.9951 114.829C58.8826 114.33 59.9857 113.71 62.3578 112.39C63.3219 111.852 64.2878 111.315 65.2537 110.78C66.1804 110.265 67.6596 109.447 68.5524 108.954C68.8518 108.788 69.153 108.622 69.4542 108.457C69.6752 108.335 69.9746 108.351 70.306 108.537C70.9957 108.922 71.5607 109.879 71.5714 110.677C71.231 110.88 64.7583 114.78 60.4152 117.358C60.4045 116.448 59.7594 115.357 58.9753 114.92C58.5921 114.707 58.2482 114.687 57.9951 114.829V114.829Z" fill="#49A7FB"/>
<path d="M59.9162 115.9C59.8021 115.697 59.672 115.505 59.5312 115.321C60.1247 114.99 62.0993 114.052 63.0028 113.548C63.967 113.012 64.9329 112.477 65.897 111.941C66.8237 111.427 68.3029 110.609 69.1939 110.118L70.7782 109.077C70.8584 109.148 70.9369 109.244 71.0046 109.349C69.2955 110.378 63.1686 113.962 59.9162 115.9V115.9Z" fill="#A4E3FF"/>
<path d="M60.01 118.294C59.5555 118.565 59.1029 118.834 58.6484 119.105C58.9086 118.95 59.0672 118.622 59.0619 118.16C59.4736 117.918 59.928 117.647 60.4163 117.358C60.4216 117.816 60.2666 118.141 60.01 118.294V118.294Z" fill="#FFA15C"/>
<path d="M59.062 118.16C59.0727 119.078 58.44 119.465 57.6487 119.023C56.8557 118.581 56.2052 117.481 56.1945 116.562C56.182 115.646 56.8147 115.259 57.6077 115.699C58.399 116.141 59.0495 117.243 59.062 118.16Z" fill="#217FD5"/>
<path d="M59.062 118.16C59.0727 119.078 58.44 119.465 57.6487 119.023C56.8557 118.581 56.2052 117.481 56.1945 116.562C56.182 115.646 56.8147 115.259 57.6077 115.699C58.399 116.141 59.0495 117.243 59.062 118.16Z" fill="#FFA15C"/>
<path d="M56.6162 115.612C56.6233 115.607 57.7692 114.958 57.9956 114.83C58.2486 114.687 58.5926 114.707 58.9757 114.92C59.7599 115.357 60.405 116.448 60.4157 117.358C59.9274 117.647 59.473 117.918 59.0613 118.16C59.0488 117.242 58.3983 116.141 57.6071 115.699C57.2204 115.485 56.8711 115.468 56.6162 115.612V115.612Z" fill="#FFA15C"/>
<path d="M46.3497 125.946C46.1287 126.068 45.8293 126.05 45.4978 125.866C44.8081 125.481 44.2432 124.524 44.2325 123.728C44.2289 123.328 44.3626 123.045 44.5836 122.91C45.84 122.138 47.0946 121.368 48.351 120.6C48.9908 120.208 49.6323 119.816 50.2721 119.424C50.7176 119.153 51.1632 118.88 51.6087 118.608C52.1986 118.248 53.7669 117.291 54.8094 116.658L55.1373 116.464C55.2763 116.382 55.4135 116.302 55.5543 116.221C55.7183 116.125 55.884 116.031 56.0498 115.934C56.2387 115.827 56.4276 115.719 56.6165 115.612C56.3509 115.763 56.187 116.093 56.1941 116.562C56.2048 117.481 56.8553 118.581 57.6483 119.023C58.0386 119.242 58.3915 119.256 58.6481 119.105C58.461 119.217 58.2721 119.328 58.0849 119.438C57.921 119.534 57.7553 119.632 57.5913 119.729C57.4523 119.809 57.3133 119.889 57.1743 119.969C57.1155 120.001 56.9676 120.087 56.8428 120.156C55.7504 120.764 54.6579 121.37 53.5655 121.972C52.4499 122.589 51.336 123.204 50.2204 123.817C49.3347 124.305 48.4508 124.792 47.5651 125.28C47.1587 125.503 46.7542 125.724 46.3497 125.946V125.946Z" fill="#217FD5"/>
<path d="M56.8428 120.156C56.8303 120.163 55.2709 121.031 52.8775 122.354C51.9918 122.842 51.1079 123.33 50.2204 123.817C50.2008 123.829 46.6347 125.791 46.3496 125.946C46.5849 125.816 46.7292 125.528 46.7256 125.114C47.0518 124.932 53.266 121.461 57.2705 119.201C57.6429 118.991 58.272 118.625 59.0615 118.16C59.0669 118.624 58.9083 118.952 58.6481 119.105C58.3772 119.265 58.0047 119.486 57.5913 119.729C57.3186 119.885 57.1101 120.007 57.1012 120.012L56.8428 120.156V120.156Z" fill="#217FD5"/>
<path d="M44.583 122.91C45.1212 122.58 45.6576 122.25 46.1941 121.921C47.0655 121.386 47.5503 121.088 48.3504 120.6C49.3324 119.998 51.2606 118.818 52.2765 118.199C53.4117 117.506 54.6734 116.74 54.8089 116.658C54.9657 116.565 55.0976 116.487 55.2134 116.419C55.3257 116.353 55.4397 116.287 55.5538 116.221C55.7534 116.105 55.9548 115.99 56.1561 115.874C56.3094 115.786 56.4627 115.699 56.6159 115.612C56.8708 115.467 57.2201 115.485 57.6068 115.699C58.3981 116.141 59.0485 117.242 59.061 118.16C58.2715 118.625 57.6424 118.991 57.27 119.201C53.2655 121.461 47.0513 124.932 46.7251 125.114C46.7144 124.317 46.1477 123.36 45.4616 122.976C45.1159 122.785 44.8058 122.772 44.583 122.91V122.91Z" fill="#49A7FB"/>
<path d="M46.4625 123.811C46.3912 123.694 46.3146 123.581 46.2344 123.471C46.8955 123.065 48.3587 122.15 49.043 121.732C50.025 121.131 51.9532 119.953 52.9672 119.335C54.1007 118.641 55.3606 117.877 55.4961 117.795C55.6458 117.704 55.7723 117.629 55.8846 117.563C55.9951 117.499 56.1056 117.435 56.2161 117.371C56.4174 117.255 56.6153 117.139 56.8166 117.027L58.2637 116.26C58.4509 116.391 58.6344 116.622 58.7681 116.873C58.3778 117.1 56.8327 117.923 56.6153 118.046C53.7175 119.68 48.6135 122.608 46.4625 123.811V123.811Z" fill="#82CAFC"/>
<path d="M46.7248 125.114C46.7337 125.913 46.183 126.249 45.4969 125.866C44.8072 125.481 44.2422 124.524 44.2316 123.728C44.2226 122.929 44.7715 122.593 45.4612 122.976C46.1473 123.361 46.7141 124.318 46.7248 125.114V125.114Z" fill="#217FD5"/>
<path d="M46.7248 125.114C46.7337 125.913 46.183 126.249 45.4969 125.866C44.8072 125.481 44.2422 124.524 44.2316 123.728C44.2226 122.929 44.7715 122.593 45.4612 122.976C46.1473 123.361 46.7141 124.318 46.7248 125.114V125.114Z" fill="#F4B082"/>
<path d="M42.9617 127.916C42.739 128.044 42.436 128.03 42.0974 127.842C41.4077 127.458 40.8428 126.501 40.8321 125.702C40.8285 125.298 40.9675 125.011 41.1956 124.877L44.5959 122.902C44.3678 123.036 44.227 123.321 44.2324 123.728C44.2431 124.524 44.808 125.481 45.4977 125.866C45.8363 126.055 46.1411 126.069 46.362 125.939C45.3409 126.533 43.9829 127.322 42.9617 127.916Z" fill="#F4B082"/>
<path d="M42.1608 126.727C42.1626 126.939 42.0183 127.028 41.8329 126.928C41.6494 126.825 41.4997 126.568 41.4961 126.356C41.4943 126.144 41.6405 126.055 41.824 126.157C42.0076 126.258 42.1573 126.515 42.1608 126.727Z" fill="#F4B082"/>
<path d="M46.3622 125.939L42.9619 127.916C43.19 127.782 43.3308 127.497 43.3255 127.09L46.7258 125.114C46.7293 125.52 46.5903 125.807 46.3622 125.939Z" fill="#FFA15C"/>
<path d="M42.1616 126.727C42.4842 126.907 42.8851 127.032 43.3253 127.09C43.3342 127.889 42.7853 128.224 42.0974 127.843C41.4078 127.458 40.8428 126.501 40.8321 125.702C40.8232 124.906 41.3739 124.569 42.0618 124.952C42.7497 125.337 43.3146 126.294 43.3253 127.09C42.8851 127.032 42.4842 126.907 42.1616 126.727C42.158 126.515 42.0083 126.258 41.8248 126.157C41.6412 126.055 41.4951 126.144 41.4969 126.356C41.5004 126.568 41.6501 126.825 41.8337 126.928C42.019 127.028 42.1634 126.939 42.1616 126.727V126.727Z" fill="#E0A273"/>
<path d="M41.1953 124.877L44.5956 122.903C44.8184 122.772 45.1231 122.788 45.4617 122.976C46.1478 123.361 46.7146 124.318 46.7253 125.114L43.325 127.091C43.3143 126.294 42.7493 125.337 42.0614 124.952C41.7228 124.763 41.4163 124.749 41.1953 124.877Z" fill="#F4B082"/>
<path d="M75.1777 107.084C75.1777 107.084 75.7302 106.687 75.7409 106.783C75.7534 106.878 75.249 107.236 75.249 107.236L75.1777 107.084V107.084Z" fill="white"/>
<path d="M43.3252 127.288V126.506L46.4903 125.704C46.4903 125.704 52.2822 122.808 53.1893 122.284C54.0982 121.758 54.1089 121.505 54.1089 121.505C53.7257 121.284 53.7453 120.662 54.1249 120.443L54.2496 120.981C54.6292 120.762 56.1993 120.53 56.1993 120.53V121.311C56.1993 121.311 52.6279 123.41 50.623 124.531C49.1456 125.356 46.5615 126.702 45.3051 127.352C44.8739 127.577 44.2376 127.611 43.7404 127.434L43.3252 127.288Z" fill="#FFA15C"/>
<path d="M43.3252 126.506L45.9271 125.004L46.5633 125.372C46.5633 125.372 52.2822 122.355 53.1893 121.83C54.0982 121.306 54.4421 121.108 54.4421 121.108L54.2532 120.997C53.87 120.776 53.8683 120.42 54.2496 120.201C54.6292 119.98 55.2494 119.982 55.6308 120.203L56.1993 120.53C56.1993 120.53 52.6279 122.628 50.623 123.749C49.1456 124.574 46.5615 125.921 45.3051 126.572C44.8739 126.795 44.2376 126.828 43.7404 126.654L43.3252 126.506V126.506Z" fill="#FFC69C"/>
<path d="M50.6228 123.749C50.0757 124.072 49.5197 124.38 48.9636 124.688C48.4076 124.995 47.8445 125.292 47.2867 125.595C46.7217 125.889 46.1604 126.189 45.5936 126.476C45.4511 126.545 45.3139 126.627 45.1588 126.682C45.0055 126.736 44.8451 126.768 44.683 126.782C44.364 126.809 44.0361 126.77 43.7402 126.654C44.045 126.741 44.3675 126.764 44.6759 126.718C44.8309 126.697 44.9859 126.661 45.1285 126.606C45.2711 126.547 45.4065 126.462 45.5473 126.387C46.1033 126.078 46.6647 125.781 47.2243 125.48C47.7874 125.186 48.3488 124.888 48.9137 124.597C49.4805 124.31 50.0472 124.024 50.6228 123.749V123.749Z" fill="white"/>
<path d="M41.1113 83.6423L56.2131 92.0914L59.7791 90.0312L44.6791 81.5822L41.1113 83.6423Z" fill="#A4E3FF"/>
<path d="M35.9756 86.6077L51.0755 95.0568L54.6434 92.9966L39.5416 84.5493L35.9756 86.6077Z" fill="#A4E3FF"/>
<path d="M59.8935 102.88L57.3807 104.331L54.3172 102.563L56.83 101.112L59.8935 102.88ZM57.3807 105.548L62.0018 102.88L56.83 99.8933L52.209 102.563L57.3807 105.548Z" fill="#A4E3FF"/>
<path d="M30.8379 89.575L48.7304 99.947L52.2983 97.8868L34.4057 87.5131L30.8379 89.575Z" fill="#A4E3FF"/>
<path d="M54.7576 105.848L52.2448 107.296L49.1795 105.529L51.6923 104.076L54.7576 105.848V105.848ZM52.2448 108.515L56.8659 105.848L51.6923 102.861L47.0713 105.529L52.2448 108.515V108.515Z" fill="#A4E3FF"/>
<path d="M25.7021 92.5387L43.5947 102.911L47.1625 100.852L29.2682 90.4804L25.7021 92.5387Z" fill="#A4E3FF"/>
<path d="M49.6189 108.813L47.1079 110.264L44.0427 108.494L46.5555 107.043L49.6189 108.813V108.813ZM47.1079 111.481L51.729 108.813L46.5555 105.824L41.9326 108.494L47.1079 111.481V111.481Z" fill="#A4E3FF"/>
<path d="M20.5654 95.5059L38.458 105.878L42.024 103.818L24.1315 93.4457L20.5654 95.5059Z" fill="#A4E3FF"/>
<path d="M44.4832 111.778L41.9704 113.229L38.9069 111.459L41.4197 110.007L44.4832 111.778V111.778ZM41.9704 114.446L46.5914 111.778L41.4197 108.792L36.7969 111.459L41.9704 114.446V114.446Z" fill="#A4E3FF"/>
<path d="M15.4277 98.4695L33.3203 108.843L36.8881 106.785L18.9955 96.4111L15.4277 98.4695Z" fill="#A4E3FF"/>
<path d="M57.4889 99.0933C60.0979 100.599 64.3394 100.592 66.9645 99.0772C69.5896 97.5606 69.6038 95.112 66.9948 93.6043C64.3857 92.1002 60.1443 92.1073 57.5174 93.6221C54.8941 95.1387 54.8799 97.5874 57.4889 99.0933Z" fill="#FB3300"/>
<path d="M65.2999 99.0719L66.7933 98.2093L59.5561 94.032L58.0645 94.8946L65.2999 99.0719Z" fill="white"/>
<path d="M58.0449 98.2254L59.5277 99.0826L66.8094 94.8786L65.3267 94.0214L58.0449 98.2254Z" fill="white"/>
<path d="M78.9152 81.7158L118.523 104.579C118.523 104.563 127.459 97.803 132.798 96.2864L90.7093 71.9907C85.9938 73.8513 81.1838 76.6189 76.4683 80.1921L76.3721 80.2473L78.9152 81.7158V81.7158Z" fill="#A4E3FF"/>
<path d="M118.571 104.579L118.544 104.563C118.886 104.294 123.541 100.806 128.05 98.3627L125.997 99.612C125.571 99.8686 125.125 100.097 124.712 100.376L123.461 101.198C122.63 101.749 121.784 102.276 120.978 102.866L118.571 104.579V104.579ZM101.899 94.982L78.9004 81.7444L78.9164 81.7159L101.899 94.982V94.982Z" fill="white"/>
<path d="M118.542 104.563L101.897 94.9819L78.915 81.7158L78.9311 81.6873C82.3046 83.4676 85.6907 85.2212 89.0197 87.0782L94.0275 89.8387L98.9996 92.6598C102.321 94.5275 105.624 96.429 108.903 98.3733L113.832 101.267C115.479 102.224 117.097 103.235 118.73 104.217C118.724 104.213 118.548 104.103 118.803 103.889L119.191 103.59L119.503 103.381L120.749 102.54C121.568 101.966 122.435 101.458 123.294 100.943L124.58 100.17C125.004 99.9059 125.462 99.6939 125.901 99.4551L128.554 98.0561L128.048 98.3626C123.54 100.806 118.885 104.294 118.542 104.563V104.563Z" fill="#C0ECFF"/>
<path d="M132.198 96.2865C127.47 98.1595 123.25 100.94 118.523 104.532C118.523 105.536 118.523 106.495 118.523 107.452C123.3 104.696 128.085 101.938 132.859 99.1806C132.859 98.2076 132.798 97.0171 132.798 96.0441L132.198 96.2865Z" fill="#49A7FB"/>
<path d="M78.9152 81.7159L76.3845 80.2545C76.3721 81.2312 76.3721 82.2006 76.3721 83.1683L118.523 107.498C118.523 106.495 118.523 105.536 118.523 104.579L78.9152 81.7159V81.7159Z" fill="#49A7FB"/>
<path d="M101.721 69.929V87.2031C101.721 87.6308 102.004 88.0585 102.569 88.3846C103.699 89.0369 105.531 89.0369 106.663 88.3846C107.227 88.0585 107.511 87.6308 107.511 87.2031V69.929H101.721Z" fill="#49A7FB"/>
<path d="M135.05 42.3059L62.3799 0.347514C61.9718 0.114056 61.594 0.0374244 61.2768 0.0944525L61.1752 0L59.1846 1.23858L60.3661 3.44307V50.9581C60.3661 52.2413 61.2679 53.8006 62.3799 54.444L134.157 95.8837L134.535 97.6142L136.106 96.6554C136.679 96.577 137.063 96.0727 137.063 95.2368V45.7917C137.063 44.5086 136.162 42.9475 135.05 42.3059V42.3059Z" fill="#A4E3FF"/>
<path d="M133.366 97.3718L60.6946 55.4152C59.5826 54.7754 58.6826 53.2125 58.6826 51.9312V2.48607C58.6826 1.89441 58.8733 1.4667 59.1852 1.23858C59.5541 0.9677 60.0941 0.974828 60.6946 1.32413L133.366 43.2789C134.478 43.9205 135.378 45.4817 135.378 46.7648V96.2117C135.378 97.4948 134.478 98.0152 133.366 97.3718Z" fill="#49A7FB"/>
<path d="M134.532 46.2748V93.8344C134.503 94.5472 133.995 94.8181 133.363 94.4492L60.6946 52.4944C60.0531 52.1237 59.5273 51.2184 59.5273 50.4699V2.96728C59.5273 2.56096 59.6824 2.28651 59.9461 2.1885C60.1404 2.10117 60.4041 2.13147 60.6946 2.29721L133.363 44.2503C134.017 44.6227 134.532 45.537 134.532 46.2748V46.2748Z" fill="white"/>
<path d="M105.587 48.9318C104.974 48.0301 103.239 47.3921 101.232 48.661C99.2252 49.9334 99.9434 57.8211 100.052 59.7601C100.164 61.7008 99.9007 66.2131 99.4801 68.1289C99.3197 68.856 98.6995 70.8484 97.9902 73.0422L102.955 75.9097C104.124 72.9335 105.399 69.5974 106.243 67.1167C108.184 61.4121 108.147 52.6939 105.587 48.9318V48.9318Z" fill="#82CAFC"/>
<path d="M98.6011 62.5812C99.4387 67.3145 99.8949 71.5221 100.125 74.2755L121.981 86.893C121.836 85.7007 121.664 84.7811 121.46 84.2946C120.257 81.4111 119.798 77.0449 119.887 74.5339C119.958 72.0425 121.797 59.7351 122.168 58.7817C122.539 57.8087 122.61 57.2259 120.541 54.5028C120.347 54.2373 120.135 53.9896 119.922 53.7597C117.818 51.4607 114.849 50.0119 114.849 50.0119C107.599 43.1346 105.496 48.3135 102.579 49.0745C101.376 49.3756 97.6458 57.2615 98.6011 62.5812V62.5812Z" fill="#A4E3FF"/>
<path d="M121.981 86.8929C121.837 85.7007 121.664 84.7811 121.461 84.2946C120.258 81.4111 119.798 77.0449 119.887 74.5339C119.958 72.0425 121.798 59.7351 122.168 58.7816C122.539 57.8086 122.61 57.2258 120.541 54.5028C120.347 54.2372 120.135 53.9895 119.923 53.7596C119.374 54.1143 118.827 54.4333 118.26 54.574C117.075 54.893 113.345 62.7594 114.282 68.0808C115.697 75.9667 116.032 82.4002 116.032 83.056C116.032 83.1255 116.025 83.2592 116.013 83.4481L121.981 86.8929V86.8929Z" fill="#82CAFC"/>
<path d="M104.62 51.6264C103.761 52.145 102.285 53.56 101.139 57.4272L99.3143 63.6112C99.2786 63.7502 99.1503 63.85 98.9988 63.8607L98.8741 63.8393C98.6887 63.7912 98.5836 63.5862 98.646 63.4009L100.457 57.2347C101.626 53.2891 103.151 51.703 104.167 51.0525C104.285 51.2111 104.452 51.4107 104.62 51.6264Z" fill="#023386"/>
<path d="M99.4578 64.7892C98.9784 65.3702 98.376 65.2704 98.1087 64.5629C97.8449 63.8571 98.0178 62.811 98.4972 62.2283C98.9766 61.6438 99.5807 61.7453 99.8463 62.4511C100.112 63.1586 99.9389 64.2047 99.4578 64.7892Z" fill="#82CAFC"/>
<path d="M99.641 62.5295C99.878 63.1586 99.7159 64.1281 99.2899 64.6485C98.9353 65.0798 98.5254 65.0103 98.3169 64.4863C98.0032 63.7022 98.1012 62.6026 98.668 62.3674C98.8836 62.2765 98.9816 62.0787 99.1331 62.068C99.3398 62.0519 99.5252 62.2212 99.641 62.5295V62.5295ZM99.6285 64.9265C100.16 64.2796 100.347 63.1586 100.053 62.3763C99.8638 61.8773 99.5091 61.601 99.0992 61.6313C98.823 61.6509 98.5575 61.8096 98.3276 62.0876C97.7947 62.7345 97.6094 63.8572 97.9052 64.6414C98.0906 65.1368 98.4452 65.4166 98.8569 65.3863C99.1313 65.3649 99.3986 65.2063 99.6285 64.9265Z" fill="#217FD5"/>
<path d="M113.095 42.6338C113.095 42.6338 113.018 47.4794 114.234 48.595C115.451 49.7106 115.782 51.8099 115.782 51.8099C115.782 51.8099 113.016 57.429 108.716 55.695C104.414 53.961 107.032 49.6375 107.032 49.6375L107.984 45.2178L113.095 42.6338Z" fill="#FFA15C"/>
<path d="M105.284 53.863L105.606 56.1886L103.738 58.2203L103.222 64.2403L107.016 60.5352L107.274 57.1884L109.705 54.353L107.565 53.0164L105.284 53.863Z" fill="#59080A"/>
<path d="M115.013 48.0659C114.655 47.713 113.552 47.2212 113.552 47.2212C113.552 47.2212 114.87 50.6696 112.602 51.7014C110.331 52.7315 107.587 52.9899 107.587 52.9899C107.587 52.9899 108.442 53.603 108.442 55.5758C108.442 57.5486 109.066 58.2205 109.066 58.2205C109.066 58.2205 111.329 56.6718 113.267 55.5758C114.739 54.74 116.077 52.1078 116.298 51.3147C116.519 50.5234 115.475 48.5185 115.013 48.0659V48.0659Z" fill="white"/>
<path d="M106.841 50.0066C106.841 50.0066 106.645 51.5891 107.032 52.1059C107.42 52.6227 107.586 52.9899 107.586 52.9899C107.586 52.9899 106.287 53.398 105.588 53.9718C104.889 54.5474 104.374 55.3726 104.374 55.3726C104.374 55.3726 103.726 52.9293 103.884 51.5891C104.041 50.2507 105.526 48.3118 105.526 48.3118L106.841 50.0066V50.0066Z" fill="white"/>
<path d="M112.999 60.5352L112.902 60.5228C112.715 60.4711 112.607 60.2751 112.66 60.0879L113.197 58.1864C113.239 57.4343 113.735 56.7589 114.289 56.0568C114.877 55.3118 115.462 54.4724 115.647 53.0254C115.825 51.63 115.563 50.9011 115.563 50.9011L115.209 49.3738C115.209 49.3738 116.905 50.247 116.338 53.1608C116.034 54.7344 115.417 55.6469 114.874 56.4524C114.471 57.0476 114.091 57.6072 113.874 58.3789L113.337 60.2786C113.295 60.4354 113.152 60.5352 112.999 60.5352Z" fill="#023386"/>
<path d="M124.778 61.266C124.19 59.3841 121.501 52.7279 118.489 54.4672C115.475 56.2066 115.753 60.17 117.518 65.0192C119.617 70.7951 123.042 72.9247 122.002 75.9935C121.431 77.6723 120.161 81.8264 119.125 85.2445L124.429 88.308C126.346 84.259 129.485 76.8881 128.783 74.1864C127.293 68.4409 127.241 69.1412 124.778 61.266V61.266Z" fill="#A4E3FF"/>
<path d="M106.745 62.0144C107.333 61.6723 110.625 60.5353 110.625 60.5353L109.504 57.9245L111.584 59.9151C111.584 59.9151 117.955 52.7759 117.493 50.9955C116.998 49.0744 114.48 47.6933 114.48 47.6933C114.48 47.6933 115.782 49.274 114.234 51.8421C113.485 53.086 106.33 59.0704 105.526 60.2466C104.722 61.4228 103.111 64.4435 103.111 64.4435L106.745 62.0144V62.0144Z" fill="#217FD5"/>
<path d="M105.784 49.331C105.784 49.331 104.537 53.8523 104.374 55.777C104.214 57.7017 103.221 64.2403 103.221 64.2403L101.601 58.0367L102.963 56.1281L101.232 55.5756C101.232 55.5756 101.783 49.675 103.221 48.5701C104.658 47.4652 105.449 47.4651 105.449 47.4651L105.784 49.331V49.331Z" fill="#217FD5"/>
<path d="M112.601 34.5732C112.601 34.5732 109.188 32.4739 105.874 35.2718C102.559 38.0715 102.628 41.1671 102.685 41.6447C102.742 42.1241 103.184 41.7801 102.928 42.6338C102.669 43.4874 102.815 44.1985 103.038 44.6904C103.257 45.1804 103.703 47.1461 103.61 48.1156C103.516 49.0851 104.377 50.0064 105.542 50.0064C106.708 50.0064 109.368 49.5787 110.457 48.595C111.546 47.6113 112.933 44.8864 112.933 44.8864C112.933 44.8864 116.003 42.3807 115.376 39.2495C114.75 36.1201 112.601 34.5732 112.601 34.5732V34.5732Z" fill="#FFC69C"/>
<path d="M109.898 37.2624C109.898 37.2624 108.636 39.1764 106.132 39.0303C103.626 38.8824 102.675 39.0374 102.675 39.0374C102.675 39.0374 104.51 34.2043 107.31 33.8176C110.11 33.4326 112.186 33.3239 113.665 34.8316C115.143 36.3357 117.447 40.481 114.761 43.45C112.076 46.4172 112.507 45.4353 112.507 45.4353C112.507 45.4353 112.432 43.8171 111.013 42.9332C109.593 42.051 109.898 37.2624 109.898 37.2624Z" fill="#59080A"/>
<path d="M113.353 43.0402C113.369 43.0081 113.902 42.0172 114.264 42.2649C114.627 42.5144 114.818 43.0509 114.584 43.8403C114.351 44.628 113.856 45.6225 113.365 45.6724C112.877 45.7223 112.719 45.8096 112.507 45.4353C112.294 45.0575 112.514 44.5692 112.514 44.5692L113.353 43.0402V43.0402Z" fill="#FFA15C"/>
<path d="M113.145 43.1382C113.161 43.1043 113.694 42.1135 114.055 42.363C114.419 42.6125 114.611 43.1489 114.376 43.9366C114.143 44.7243 113.647 45.7205 113.157 45.7704C112.669 45.8203 112.51 45.9076 112.3 45.5334C112.088 45.1556 112.305 44.6673 112.305 44.6673L113.145 43.1382Z" fill="#FFC69C"/>
<path d="M113.497 43.3288C113.497 43.3288 113.587 43.7726 113.619 43.9668C113.65 44.1611 113.664 44.4854 113.541 44.6583C113.42 44.8294 113.311 44.947 113.311 44.947C113.311 44.947 113.441 44.1326 113.42 43.8332C113.397 43.5338 113.411 43.2647 113.566 43.0241C113.723 42.7835 113.862 42.4805 114.022 42.7247C114.181 42.9671 114.302 43.2433 114.19 43.7369C114.078 44.2306 113.864 44.7634 113.625 45.0094C113.386 45.2571 113.094 45.3943 113.094 45.3943C113.094 45.3943 113.685 45.0771 113.869 44.5086C114.053 43.9365 114.215 43.0704 114.078 42.9403C113.94 42.812 113.922 42.7835 113.878 42.9956C113.833 43.2059 113.901 43.507 113.775 43.4215L113.571 43.172L113.497 43.3288V43.3288Z" fill="#FFA15C"/>
<path d="M113.26 44.268L113.162 43.8439C113.071 43.867 113.053 43.8724 112.975 44.031C112.896 44.1896 112.88 44.2502 112.752 44.2217C112.626 44.195 112.551 44.0809 112.636 44.2769C112.684 44.3821 112.725 44.3625 112.781 44.3447C112.827 44.3286 112.882 44.3126 112.961 44.3678C113.133 44.4872 113.043 44.6922 113.173 44.6904L113.239 44.3001L113.26 44.268V44.268Z" fill="#FFA15C"/>
<path d="M115.074 66.8689L114.301 66.6978C114.31 66.6533 115.276 62.1338 112.82 60.8899C112.328 60.6404 111.856 60.6101 111.377 60.7937C109.789 61.3942 108.719 64.0514 108.71 64.0781L107.973 63.7858C108.021 63.6647 109.177 60.7794 111.093 60.0505C111.788 59.7903 112.487 59.8349 113.176 60.1824C116.183 61.7043 115.121 66.6586 115.074 66.8689Z" fill="#023386"/>
<path d="M110.566 78.1106C110.39 78.1106 110.297 78.0731 110.26 78.05L110.187 77.7809L110.457 77.706C110.463 77.706 110.776 77.7898 111.698 77.4066C112.332 77.1411 113.655 71.5719 114.565 66.3414L114.795 66.181L114.955 66.4109C114.64 68.2233 113.006 77.2908 111.851 77.772C111.208 78.0411 110.808 78.1106 110.566 78.1106Z" fill="white"/>
<path d="M105.73 76.2216C105.616 76.2144 105.218 76.1218 104.532 75.1256C103.823 74.0955 107.358 65.5858 108.073 63.8893L108.333 63.7841L108.44 64.0443C106.373 68.9362 104.47 74.3343 104.858 74.901C105.444 75.7511 105.753 75.8259 105.756 75.8259L105.936 76.0345L105.73 76.2216Z" fill="white"/>
<path d="M103.222 64.2404C103.222 64.2404 103.916 66.4413 103.86 70.8164C103.857 71.0784 103.723 75.7743 103.72 76.0238L103.716 76.3482L102.991 75.9294L102.843 70.8164L103.222 64.2404Z" fill="#82CAFC"/>
<path d="M90.012 30.4101L66.0566 16.5809V9.4274L90.012 23.2585V30.4101Z" fill="#49A7FB"/>
<path d="M90.012 44.0614L66.0566 30.2321V23.0804L90.012 36.9097V44.0614Z" fill="#A4E3FF"/>
<path d="M90.012 57.7123L66.0566 43.883V36.7332L90.012 50.5625V57.7123Z" fill="#A4E3FF"/>
<path d="M128.612 93.4851L125.927 91.9328V91.2627L128.612 92.8132V93.4851Z" fill="#FFA15C"/>
<path d="M125.532 91.6584L122.845 90.1079V89.4396L125.532 90.9919V91.6584Z" fill="#E03362"/>
<path d="M132.197 95.3081C132.197 95.9639 131.737 96.2312 131.169 95.9033C130.6 95.5736 130.141 94.7788 130.141 94.123C130.141 93.4654 130.6 93.2016 131.169 93.5295C131.737 93.8557 132.197 94.6541 132.197 95.3081Z" fill="#A4E3FF"/>
<path d="M131.743 95.0461C131.743 95.4132 131.487 95.5611 131.17 95.3793C130.852 95.1958 130.596 94.7502 130.596 94.3849C130.596 94.0178 130.852 93.8699 131.17 94.0534C131.487 94.237 131.743 94.6825 131.743 95.0461Z" fill="#49A7FB"/>
<path fill-rule="evenodd" clip-rule="evenodd" d="M134.528 46.1731C134.526 46.1321 134.523 46.0929 134.518 46.0519C134.521 46.0537 134.525 46.0555 134.528 46.0555V46.1731Z" fill="url(#paint0_linear)"/>
<path fill-rule="evenodd" clip-rule="evenodd" d="M134.309 93.362C134.15 93.362 133.968 93.3068 133.779 93.1963L124.618 87.9069C126.542 83.7884 129.463 76.8007 128.782 74.1863C127.292 68.4408 127.241 69.1411 124.778 61.2659C124.325 59.8171 122.627 55.5364 120.494 54.4386C120.312 54.198 120.116 53.9717 119.922 53.7596C119.154 52.922 118.27 52.1949 117.457 51.6121C117.521 51.368 117.535 51.1595 117.493 50.9955C117.026 49.1831 114.761 47.8536 114.504 47.7075C114.064 47.4491 113.551 47.221 113.551 47.221C113.551 47.221 113.618 47.3992 113.698 47.6879C113.495 47.1337 113.36 46.4386 113.271 45.74C113.317 45.724 113.362 45.6991 113.408 45.667C113.884 45.5654 114.356 44.6048 114.584 43.8403C114.611 43.7458 114.634 43.6585 114.65 43.5712C114.686 43.532 114.723 43.491 114.761 43.45C115.29 42.8655 115.625 42.2346 115.812 41.5859C126.742 43.2041 132.14 45.5119 134.517 46.0519C134.523 46.0929 134.526 46.1321 134.528 46.1731V93.3228C134.462 93.3478 134.389 93.362 134.309 93.362V93.362ZM120.462 80.8622C120.057 78.8537 119.875 76.7437 119.875 75.1558C119.875 74.9384 119.879 74.7317 119.886 74.5339C119.907 73.8228 120.07 72.3115 120.303 70.4938C121.643 72.6484 122.627 74.1525 122.001 75.9934C121.666 76.9789 121.089 78.8181 120.462 80.8622V80.8622ZM98.128 72.6145L61.1115 51.2415C60.4681 50.8708 59.9424 49.9672 59.9424 49.2187V46.5491C61.532 45.8184 63.7615 44.9541 66.4275 44.0969L90.0122 57.7124V50.5625L74.8819 41.8265C77.6603 41.2188 80.6133 40.7073 83.6215 40.3723L90.0122 44.0613V39.9588C90.2956 39.9535 90.5789 39.9517 90.8605 39.9517C95.2213 39.9517 99.1795 40.0747 102.77 40.2849C102.644 40.9782 102.665 41.4754 102.685 41.6447C102.742 42.1241 103.184 41.7802 102.927 42.6338C102.669 43.4874 102.815 44.1985 103.038 44.6904C103.246 45.1537 103.656 46.9412 103.621 47.9517C103.571 47.9499 103.519 47.9481 103.467 47.9481C102.803 47.9481 102.04 48.1513 101.232 48.6609C100.259 49.2758 99.9262 51.4464 99.8549 53.74C98.9353 56.2279 98.2314 59.3038 98.504 61.9021C98.4434 61.9592 98.3846 62.0198 98.3276 62.0875C97.7947 62.7344 97.6094 63.8571 97.9052 64.6413C98.0817 65.1135 98.4114 65.388 98.7963 65.3898C98.8159 65.3898 98.8355 65.388 98.8569 65.3862C98.9246 65.3809 98.9923 65.3666 99.0583 65.347C99.2097 66.3343 99.3452 67.2877 99.4646 68.1966C99.2953 68.9237 98.7571 70.6577 98.128 72.6145V72.6145Z" fill="url(#paint1_linear)"/>
<path fill-rule="evenodd" clip-rule="evenodd" d="M119.257 84.8132L116.032 82.9491C116.005 81.9297 115.672 76.1984 114.458 69.0913C114.64 68.1645 114.786 67.3662 114.882 66.8279L115.075 66.8689C115.108 66.7121 115.716 63.8785 114.743 61.8309C115.183 60.1022 115.804 58.4662 116.42 57.1866C115.875 59.2094 116.397 61.9342 117.518 65.0191C118.357 67.3305 119.409 69.0574 120.303 70.4938C120.07 72.3116 119.908 73.8228 119.886 74.5339C119.879 74.7317 119.876 74.9384 119.876 75.1558C119.876 76.7437 120.057 78.8537 120.462 80.8622C120.065 82.1525 119.648 83.5229 119.257 84.8132V84.8132ZM114.267 67.9899C114.034 66.5802 114.121 64.9977 114.399 63.4241C114.661 65.0102 114.307 66.6693 114.301 66.6979L114.495 66.7406C114.421 67.1576 114.344 67.5747 114.267 67.9899V67.9899ZM117.703 55.0356C117.919 54.7754 118.11 54.6132 118.259 54.574C118.291 54.5651 118.323 54.558 118.354 54.5473C118.115 54.6952 117.899 54.8592 117.703 55.0356V55.0356ZM120.494 54.4386C120.171 54.2746 119.84 54.1802 119.501 54.1802C119.389 54.1802 119.277 54.1909 119.163 54.2123C119.418 54.0786 119.671 53.9218 119.922 53.7596C120.116 53.9717 120.312 54.198 120.494 54.4386Z" fill="url(#paint2_linear)"/>
<path fill-rule="evenodd" clip-rule="evenodd" d="M99.805 61.9466C99.6303 61.7435 99.4111 61.6312 99.167 61.6276L100.457 57.2347C100.726 56.3276 101.015 55.5434 101.311 54.868C101.257 55.3046 101.232 55.5755 101.232 55.5755L101.721 55.7306C101.521 56.2367 101.327 56.7998 101.14 57.4271L99.805 61.9466V61.9466Z" fill="url(#paint3_linear)"/>
<path fill-rule="evenodd" clip-rule="evenodd" d="M124.617 87.9069L119.257 84.8131C119.647 83.5229 120.064 82.1524 120.462 80.8622C121.089 78.8181 121.666 76.9789 122.001 75.9934C122.627 74.1525 121.643 72.6484 120.303 70.4938C119.408 69.0574 118.357 67.3305 117.517 65.0191C116.396 61.9342 115.874 59.2093 116.42 57.1866C116.648 56.3365 117.065 55.6112 117.703 55.0356C117.899 54.8592 118.114 54.6952 118.353 54.5473C118.398 54.5206 118.442 54.4938 118.489 54.4671C118.715 54.3352 118.94 54.2532 119.162 54.2123C119.276 54.1909 119.389 54.1802 119.501 54.1802C119.84 54.1802 120.171 54.2746 120.494 54.4386C122.627 55.5364 124.325 59.817 124.778 61.2659C127.241 69.1411 127.292 68.4407 128.782 74.1863C129.463 76.8007 126.542 83.7884 124.617 87.9069V87.9069Z" fill="url(#paint4_linear)"/>
<path fill-rule="evenodd" clip-rule="evenodd" d="M103.111 64.4435C103.111 64.4435 103.151 64.3704 103.222 64.2403C103.598 63.5399 104.849 61.2374 105.526 60.2466C105.731 59.9472 106.348 59.3323 107.167 58.5678C107.606 58.1561 108.103 57.7017 108.625 57.2259C110.951 55.1105 113.779 52.5995 114.234 51.8421C115.782 49.274 114.479 47.6933 114.479 47.6933C114.479 47.6933 114.488 47.6986 114.504 47.7075C114.761 47.8537 117.026 49.1831 117.493 50.9955C117.536 51.1595 117.522 51.368 117.457 51.6122C117.281 52.2983 116.73 53.266 116.032 54.2978C115.176 55.5649 114.096 56.9318 113.216 57.9993C112.289 59.122 111.584 59.9151 111.584 59.9151L109.504 57.9245L110.537 60.3321C110.34 60.4569 110.152 60.6048 109.974 60.7634C108.983 61.1127 107.167 61.7703 106.745 62.0144L103.252 64.349C103.233 64.276 103.222 64.2403 103.222 64.2403L103.213 64.3758L103.111 64.4435V64.4435Z" fill="url(#paint5_linear)"/>
<path fill-rule="evenodd" clip-rule="evenodd" d="M105.542 50.0066C104.446 50.0066 103.62 49.1922 103.603 48.2904C103.601 48.2334 103.604 48.1746 103.61 48.1158C103.615 48.0659 103.617 48.0088 103.62 47.9518C103.656 46.9413 103.246 45.1539 103.038 44.6905C102.815 44.1986 102.669 43.4876 102.927 42.6339C103.184 41.7803 102.742 42.1243 102.685 41.6449C102.665 41.4756 102.644 40.9783 102.77 40.2851C105.39 40.4366 107.814 40.6362 110.056 40.8679C110.214 41.7928 110.501 42.6161 111.013 42.9333C111.772 43.4074 112.146 44.0882 112.33 44.6228L112.305 44.6673C112.305 44.6673 112.087 45.1557 112.299 45.5335C112.356 45.635 112.41 45.7028 112.467 45.7455C111.968 46.6313 111.152 47.9678 110.457 48.5952C109.69 49.2866 108.149 49.7036 106.896 49.8908C106.851 49.8961 106.809 49.9032 106.764 49.9086C106.317 49.971 105.912 50.003 105.602 50.0066C105.581 50.0066 105.561 50.0066 105.542 50.0066V50.0066Z" fill="url(#paint6_linear)"/>
<path fill-rule="evenodd" clip-rule="evenodd" d="M112.331 44.6227C112.147 44.0881 111.773 43.4073 111.014 42.9333C110.502 42.6161 110.215 41.7927 110.057 40.8678C112.126 41.0834 114.043 41.3276 115.813 41.586C115.626 42.2347 115.291 42.8656 114.761 43.4501C114.724 43.4911 114.687 43.5321 114.651 43.5713C114.772 42.9279 114.585 42.486 114.264 42.265C114.225 42.2383 114.182 42.2258 114.138 42.2258C114.061 42.2258 113.979 42.265 113.901 42.3238C113.559 42.3666 113.158 43.1097 113.145 43.1382L112.331 44.6227V44.6227Z" fill="url(#paint7_linear)"/>
<path fill-rule="evenodd" clip-rule="evenodd" d="M113.408 45.667C113.809 45.3836 114.183 44.5906 114.376 43.9366C114.611 43.1489 114.419 42.6124 114.055 42.3629C114.016 42.3362 113.973 42.3219 113.929 42.3219C113.92 42.3219 113.909 42.3219 113.9 42.3237C113.978 42.2649 114.06 42.2257 114.137 42.2257C114.182 42.2257 114.224 42.2382 114.264 42.2649C114.584 42.4859 114.772 42.9279 114.65 43.5712C114.634 43.6585 114.611 43.7459 114.584 43.8403C114.356 44.6048 113.884 45.5654 113.408 45.667Z" fill="url(#paint8_linear)"/>
<defs>
<linearGradient id="paint0_linear" x1="96.2877" y1="42.5463" x2="100.211" y2="70.9146" gradientUnits="userSpaceOnUse">
<stop stop-color="#54ACFB"/>
<stop offset="0.321569" stop-color="#4DA6F5"/>
<stop offset="1" stop-color="#459FEF"/>
</linearGradient>
<linearGradient id="paint1_linear" x1="96.5294" y1="42.5447" x2="100.422" y2="70.9304" gradientUnits="userSpaceOnUse">
<stop stop-color="white"/>
<stop offset="0.321569" stop-color="#F8F9F9"/>
<stop offset="1" stop-color="#F1F2F3"/>
</linearGradient>
<linearGradient id="paint2_linear" x1="96.897" y1="42.5447" x2="100.73" y2="70.9304" gradientUnits="userSpaceOnUse">
<stop stop-color="#89CDFC"/>
<stop offset="0.321569" stop-color="#82C7F6"/>
<stop offset="1" stop-color="#7BC0F0"/>
</linearGradient>
<linearGradient id="paint3_linear" x1="96.5294" y1="42.5446" x2="100.422" y2="70.9303" gradientUnits="userSpaceOnUse">
<stop stop-color="#113F8D"/>
<stop offset="0.321569" stop-color="#0A3987"/>
<stop offset="1" stop-color="#033281"/>
</linearGradient>
<linearGradient id="paint4_linear" x1="98.1457" y1="42.5447" x2="101.779" y2="70.9304" gradientUnits="userSpaceOnUse">
<stop stop-color="#A9E5FF"/>
<stop offset="0.321569" stop-color="#A2DFF9"/>
<stop offset="1" stop-color="#9BD8F3"/>
</linearGradient>
<linearGradient id="paint5_linear" x1="96.5389" y1="42.5447" x2="100.426" y2="70.9304" gradientUnits="userSpaceOnUse">
<stop stop-color="#2E87D7"/>
<stop offset="0.321569" stop-color="#2781D1"/>
<stop offset="1" stop-color="#207ACB"/>
</linearGradient>
<linearGradient id="paint6_linear" x1="96.5704" y1="42.5448" x2="100.454" y2="70.9306" gradientUnits="userSpaceOnUse">
<stop stop-color="#FFC9A2"/>
<stop offset="0.321569" stop-color="#F8C39C"/>
<stop offset="1" stop-color="#F1BD95"/>
</linearGradient>
<linearGradient id="paint7_linear" x1="96.5303" y1="42.5448" x2="100.422" y2="70.9287" gradientUnits="userSpaceOnUse">
<stop stop-color="#631718"/>
<stop offset="0.321569" stop-color="#5C1112"/>
<stop offset="1" stop-color="#550A0C"/>
</linearGradient>
<linearGradient id="paint8_linear" x1="97.5683" y1="42.5447" x2="101.222" y2="70.9304" gradientUnits="userSpaceOnUse">
<stop stop-color="#FFA766"/>
<stop offset="0.321569" stop-color="#F8A160"/>
<stop offset="1" stop-color="#F19A59"/>
</linearGradient>
</defs>
</svg>
