<svg width="265" height="70" viewBox="0 0 265 70" fill="none" xmlns="http://www.w3.org/2000/svg">
<g clip-path="url(#clip0)">
<path fill-rule="evenodd" clip-rule="evenodd" d="M21.5312 44.8423L21.3242 46.912L19.967 44.6124L18.8398 42.7267L10.2826 42.8187C8.83333 41.3469 8.46528 39.9212 6.23394 38.9783C4.18663 38.1045 1.01215 38.0585 0 40.0821C1.12717 40.841 0.161024 40.3351 2.55339 39.8982C6.85504 39.0703 7.9362 42.3357 9.50043 44.0604L18.3338 44.1064L22.0833 51.6032C23.2335 48.6137 24.0386 19.7076 24.4067 13.8436C25.5569 17.0861 27.1671 50.5683 28.0872 58.272C30.0195 55.0986 30.4106 46.82 32.3429 44.4284C34.0221 43.3476 64.2717 43.9455 69.0564 44.0145C76.4175 44.0834 73.6111 42.2208 81.2943 37.3916C86.8151 33.9192 88.7934 41.1399 91.4388 44.1064C94.0612 44.3134 96.7526 44.1524 99.398 44.1294C103.447 44.0834 102.595 43.3476 104.942 41.4619C106.322 40.3581 108.622 39.1163 111.084 40.0361C113.154 40.818 113.545 42.5197 115.224 44.0145L123.621 44.1064C124.817 45.5322 125.714 47.8548 126.726 49.6025C127.324 50.6603 127.163 50.7293 128.106 51.1662L130.177 13.0158L133.282 55.9494C133.466 56.1564 134.064 56.4093 134.225 56.6163C134.685 54.3627 134.179 56.3173 134.984 55.4895L137.837 44.0834L174.941 43.9915C181.888 44.0834 178.461 42.8876 187.087 37.2766C192.332 33.8732 194.839 41.2549 197.094 43.9915C199.854 44.1984 202.937 44.0604 205.743 44.0834C210.574 44.1064 209.815 44.7273 212.483 42.1518C213.794 40.887 216.049 39.3463 218.625 39.8062C221.362 40.2891 222.076 42.4047 223.548 44.0604L232.427 44.1064C233.462 46.935 234.98 49.0276 236.292 51.5342C237.718 44.0145 236.913 18.0059 238.776 13.7976L241.997 58.341C244.527 54.6156 244.412 48.0158 246.39 43.9915L265 43.9685L264.954 42.7267H245.401L242.917 51.1892L239.305 1.1498L238.132 0.735874L237.534 3.21945L235.418 46.866C234.635 45.7392 233.83 44.4514 233.186 42.9566L224.376 42.8417C223.939 42.6807 219.89 35.069 212.805 40.2201C208.549 43.3016 211.908 43.2786 197.784 42.8417C196.036 39.8292 192.355 33.0223 187.317 35.6899C185.431 36.6787 183.499 38.2194 181.865 39.5762C179.795 41.3239 179.266 42.8187 175.424 42.8187C163.279 42.7957 149.04 42.1288 137.147 42.8876C135.674 44.9573 135.766 48.4527 134.386 50.4763L131.143 6.02497C131.051 4.30026 131.488 0.804862 130.177 0C128.29 1.19579 129.049 8.46255 128.911 10.8541L127.117 45.0033C126.772 46.1761 126.91 45.6932 126.45 46.1531L124.679 42.9106L115.753 42.8417C108.875 32.8614 103.792 42.4737 100.318 42.8647C98.2478 43.1176 94.1532 43.0256 92.0139 42.8647C87.0221 33.0913 83.1806 33.2983 76.0955 39.6682C73.8412 41.6919 73.7491 42.8187 69.5625 42.7727C63.5816 42.7267 34.9193 42.3587 31.2847 42.9566L28.8234 51.1662C28.0182 42.6577 27.3971 33.8272 26.9141 25.5946L25.3038 2.71353C25.1428 0.551905 25.6259 0.64389 24.3147 0.0459921C23.1415 0.850854 21.4852 43.3016 21.5312 44.8423Z" fill="#00873E"/>
<path d="M192.653 25.9854L192.515 26.9282H190.054V33.965H188.949V26.9282H186.373L186.511 25.9854H192.653Z" fill="black"/>
<path d="M127.463 64.2052C127.463 63.6533 127.417 63.1934 127.348 62.8484C127.279 62.5035 127.141 62.2275 126.98 62.0206C126.819 61.8136 126.612 61.6756 126.359 61.6066C126.106 61.5377 125.83 61.4917 125.485 61.4917C125.14 61.4917 124.864 61.5377 124.611 61.6066C124.358 61.6756 124.151 61.8366 123.99 62.0206C123.829 62.2275 123.691 62.5035 123.622 62.8484C123.553 63.1934 123.507 63.6533 123.507 64.2052V65.194C123.507 65.7459 123.553 66.2059 123.622 66.5508C123.691 66.8957 123.829 67.1717 123.99 67.3787C124.151 67.5856 124.358 67.7236 124.611 67.7926C124.864 67.8616 125.14 67.9076 125.485 67.9076C125.646 67.9076 125.83 67.8846 125.968 67.8846L125.163 66.5968H126.198L126.796 67.5626C127.003 67.3787 127.164 67.0797 127.279 66.7118C127.394 66.3438 127.44 65.8379 127.44 65.194V64.2052H127.463ZM122.356 64.2052C122.356 63.6533 122.402 63.1474 122.494 62.6875C122.586 62.2505 122.748 61.8596 123.001 61.5377C123.231 61.2157 123.553 60.9628 123.967 60.8018C124.381 60.6408 124.887 60.5488 125.508 60.5488C126.129 60.5488 126.635 60.6408 127.049 60.8018C127.463 60.9628 127.762 61.2157 127.992 61.5377C128.222 61.8596 128.383 62.2505 128.475 62.6875C128.567 63.1474 128.613 63.6533 128.613 64.2052V65.194C128.613 65.9529 128.521 66.5968 128.337 67.1487C128.153 67.7006 127.831 68.1145 127.371 68.4135L128.383 70.0002H127.302L126.52 68.7354C126.382 68.7814 126.198 68.8044 126.037 68.8274C125.853 68.8504 125.669 68.8504 125.485 68.8504C124.864 68.8504 124.358 68.7584 123.944 68.5975C123.53 68.4365 123.231 68.1835 123.001 67.8616C122.771 67.5396 122.609 67.1487 122.517 66.7118C122.425 66.2519 122.379 65.7459 122.379 65.194V64.2052H122.356Z" fill="black"/>
</g>
<defs>
<clipPath id="clip0">
<rect width="265" height="70" fill="white"/>
</clipPath>
</defs>
</svg>
