<svg width="230" height="85" viewBox="0 0 230 85" fill="none" xmlns="http://www.w3.org/2000/svg" xmlns:xlink="http://www.w3.org/1999/xlink">
<g clip-path="url(#clip0)">
<path d="M48.1605 65.3991C47.8766 69.5712 46.3312 72.9718 41.2061 72.0429C37.3741 71.3502 35.2767 68.3432 27.8492 67.9811C27.1238 67.9496 26.4773 67.7292 25.9095 67.3513C22.3456 65.0528 21.6202 56.8346 21.3994 50.0491C21.1471 42.1772 22.4875 37.2022 24.8057 34.0692C27.1238 30.952 34.3148 32.9042 34.3148 32.9042C38.0995 34.9037 40.8907 38.4145 42.9565 42.4291C47.4193 51.1039 48.3813 62.1402 48.1605 65.3991Z" fill="#AA4D55"/>
<path d="M48.1601 65.3992C47.8763 69.5713 46.3308 72.9719 41.2057 72.043C37.3737 71.3503 35.2763 68.3432 27.8488 67.9811C27.1234 67.9497 26.4769 67.7292 25.9092 67.3514C26.4611 67.2569 26.95 67.1782 27.2969 67.1152C29.552 66.7059 35.0556 68.847 35.6863 67.1152C36.3171 65.3834 33.2578 56.0632 34.9767 51.0567C36.6956 46.0502 37.0583 43.3108 36.9479 40.9965C36.9479 40.9965 39.4711 40.965 42.9561 42.4292C47.419 51.1039 48.3809 62.1402 48.1601 65.3992Z" fill="#721324"/>
<path d="M23.544 38.5089C24.4901 36.2575 29.9149 40.3037 28.2275 51.8123C26.5402 63.3209 27.8964 67.1309 27.8964 67.1309C27.8964 67.1309 16.8419 54.3155 23.544 38.5089Z" fill="#721324"/>
<path d="M47.4822 51.8597C47.4191 51.8282 47.356 51.8124 47.2772 51.8124C47.5137 53.8749 47.356 56.9134 44.8329 59.0703C42.1205 61.3846 38.9193 61.4318 37.8312 61.3059C37.7523 61.479 37.705 61.8412 37.847 62.5654C38.9193 66.2966 40.307 69.6185 41.6159 71.004C44.9275 74.499 48.8699 68.4377 49.5007 64.612C49.8634 62.4552 49.2011 57.4802 47.4822 51.8597Z" fill="#E49378"/>
<path d="M44.9746 59.3851C41.8522 62.0458 38.0833 61.7151 37.6259 61.542C37.6259 61.542 37.4998 61.3845 37.4682 61.1641C37.0898 58.3145 43.098 43.2951 46.0627 47.6718C46.4885 48.3016 46.8669 49.3091 47.1981 50.8205V50.8363C47.6081 52.7098 48.097 56.7244 44.9746 59.3851Z" fill="#AA4D55"/>
<path d="M44.8334 59.0703C41.711 61.731 37.9421 61.4004 37.4847 61.2272L37.469 61.2115V61.18V61.1642C36.097 55.8744 35.4189 50.1909 36.4282 48.1915C38.2417 44.5704 37.4847 39.3278 33.7789 35.628C30.073 31.9283 25.626 33.298 25.626 33.298C25.7364 32.558 35.5293 29.0787 41.5375 38.5249C43.288 41.28 44.7545 44.3343 45.9215 47.3571C46.3315 48.4119 46.71 49.4667 47.0569 50.5058V50.5215C47.4669 52.395 47.9558 56.4097 44.8334 59.0703Z" fill="#E49378"/>
<path d="M31.4769 33.9433C31.4769 33.9433 27.503 31.2039 24.5225 36.7929C21.5421 42.3819 20.4697 49.8129 20.4697 49.8129C20.4697 49.8129 21.3055 43.5941 22.0152 40.3824C22.7248 37.1707 24.1598 33.471 26.0206 32.8255C27.8972 32.1642 31.4769 33.9433 31.4769 33.9433Z" fill="#721324"/>
<path d="M33.4163 33.6914C35.6398 34.8092 38.5572 38.5877 38.431 42.9015C38.3048 47.2152 36.7121 48.2543 36.9013 50.9622C37.0906 53.6859 37.6267 57.5588 39.1879 58.9915C40.7491 60.4242 44.1869 54.7722 43.9819 50.6473C43.7611 46.5225 43.4142 44.3341 41.6007 39.9889C39.7872 35.6436 36.5859 33.2663 33.3216 32.6523C30.0573 32.0383 28.8273 32.3847 29.2058 32.6523C29.5842 32.9515 31.6185 32.794 33.4163 33.6914Z" fill="#EEAF98"/>
<path d="M28.2275 65.3991C28.2275 68.6895 27.6913 71.6651 26.5559 74.2785C24.9001 78.0728 21.967 81.064 17.6146 82.9533C10.1713 86.2122 3.65844 85.1259 1.45069 82.6699C-0.410123 80.6075 -0.220888 75.2389 0.599132 69.2406C0.741059 68.5951 0.930295 68.2645 1.10376 68.107C1.24569 68.5478 1.498 68.9414 1.82916 69.3035C4.96732 72.594 15.7853 71.8068 21.3993 69.4925C25.3417 67.8551 27.0133 66.0289 27.7071 64.8166C28.0856 64.8953 28.2117 65.1472 28.2275 65.3991Z" fill="#E49378"/>
<path d="M26.5559 74.2943C24.9001 78.0885 21.967 81.0798 17.6146 82.9691C10.1713 86.228 3.65844 85.1417 1.45069 82.6857C-0.410123 80.6233 -0.220888 75.2547 0.599132 69.2563C0.741059 68.6109 0.930295 68.2802 1.10376 68.1228C1.24569 68.5636 1.498 68.9572 1.82916 69.3193C1.54531 70.9252 1.3403 72.6885 1.3403 74.4832C1.3403 80.3241 4.63616 83.646 13.3883 82.607C22.1404 81.5521 26.5559 74.2943 26.5559 74.2943Z" fill="#AA4D55"/>
<path d="M19.3019 51.1668C19.5699 57.1179 10.2659 49.6082 7.90043 47.6087C7.55349 47.3253 7.36426 47.1522 7.36426 47.1522L7.38003 47.1207L7.42734 47.042C7.85312 46.0658 11.0859 39.0599 16.621 37.2494H16.6368C17.3622 37.0132 18.1349 36.8716 18.9392 36.8401C20.39 36.7771 22.0931 38.8867 22.2192 39.9888C22.5031 42.6022 19.0811 46.365 19.3019 51.1668Z" fill="#AA4D55"/>
<path d="M27.3447 36.1473C26.6193 36.5724 25.4366 36.5567 24.7112 36.1473C23.9858 35.7222 23.97 35.0453 24.6954 34.6202C25.4208 34.1951 26.6035 34.2108 27.3289 34.6202C28.0701 35.0453 28.0701 35.738 27.3447 36.1473Z" fill="#FEE9D5"/>
<path d="M34.1727 43.5786C33.873 44.2241 33.3053 44.4287 32.8796 44.0666C32.4538 43.6888 32.3592 42.8701 32.6588 42.2404C32.9584 41.5949 33.5261 41.3902 33.9519 41.7523C34.3619 42.1302 34.4723 42.9488 34.1727 43.5786Z" fill="#FEE9D5"/>
<path d="M33.7943 41.6421C33.4 41.4847 27.8964 37.6117 27.8964 35.3919C27.8964 33.172 27.8964 18.0581 27.8964 18.0581H24.1748V35.628C24.1748 35.628 28.6691 42.5237 33.1477 44.2241C33.8416 42.6654 33.7943 41.6421 33.7943 41.6421Z" fill="#FEE9D5"/>
<path d="M24.1585 35.6279C24.1585 35.6279 22.345 41.4845 20.0269 44.712C17.7087 47.9237 21.6827 47.5931 21.6827 47.5931C21.6827 47.5931 26.177 40.1463 26.0193 36.3364C25.8774 32.5107 24.1585 35.6279 24.1585 35.6279Z" fill="#FEE9D5"/>
<path d="M27.3447 18.8295C26.6193 19.2545 25.4366 19.2388 24.7112 18.8295C23.9858 18.4044 23.97 17.7274 24.6954 17.3181C25.4208 16.893 26.6035 16.9087 27.3289 17.3181C28.0701 17.7274 28.0701 18.4044 27.3447 18.8295Z" fill="#FEE9D5"/>
<path d="M26.9509 18.5932C26.4463 18.8766 25.6263 18.8766 25.1216 18.5932C24.617 18.294 24.617 17.8217 25.1216 17.5383C25.6263 17.255 26.4463 17.255 26.9509 17.5383C27.4398 17.8217 27.4555 18.294 26.9509 18.5932Z" fill="#FBCC9A"/>
<path d="M28.196 63.4313C28.196 63.4313 28.054 66.7217 21.3835 69.4769C15.7695 71.8069 4.90424 72.5941 1.79762 69.2879C1.21414 68.6739 0.898752 67.9182 0.946061 67.0051V66.9894C0.9776 66.8162 1.00914 66.643 1.04068 66.4698C2.20763 60.1409 4.47846 53.072 7.14352 47.5617C7.22237 47.4043 7.30122 47.2626 7.3643 47.1051L7.41161 47.0264C8.4524 45.027 9.82436 43.2007 11.3225 41.705C14.0191 38.9971 17.1099 37.3913 19.3177 37.8164C19.8696 37.9266 20.4846 38.1312 21.0996 38.5091C24.2063 40.3354 27.7387 46.1605 28.196 63.4313Z" fill="#EEAF98"/>
<path d="M28.1957 63.9823C28.1957 63.9823 28.038 67.2885 21.3832 70.0436C14.7126 72.783 0.693429 73.3655 0.945743 67.5561C1.19806 61.7309 27.0445 60.8493 28.1957 63.9823Z" fill="#AA4D55"/>
<path d="M28.1957 63.4312C28.1957 63.4312 28.0537 66.7216 21.3832 69.4767C14.7126 72.2476 0.693429 72.8302 0.945743 67.005V66.9892C0.961513 66.8161 0.993052 66.6429 1.04036 66.4697C2.77502 61.1326 27.076 60.4084 28.1957 63.4312Z" fill="#E49378"/>
<path d="M16.6053 37.2496C15.0126 37.9895 13.1675 39.3277 11.3225 41.705C10.2186 43.122 9.1305 44.9325 8.0897 47.1996C8.02662 47.3413 7.96354 47.4672 7.90047 47.6089C2.31802 59.9677 1.82916 69.3037 1.82916 69.3037L1.79762 69.2879C1.21414 68.6739 0.898752 67.9182 0.946061 67.0051V66.9893C0.9776 66.8162 1.00914 66.643 1.04068 66.4698C2.20763 60.1409 4.47846 53.0719 7.14352 47.5617C7.22237 47.4042 7.30122 47.2625 7.3643 47.1051L7.41161 47.0264C7.83739 46.0503 11.0702 39.0601 16.6053 37.2496Z" fill="#AA4D55"/>
<path d="M24.3801 45.6409C23.4812 43.1849 22.9766 41.516 21.8254 40.7446C20.69 39.9732 20.5165 38.1941 19.665 37.7376C18.8134 37.2967 16.6372 37.4857 14.666 39.2332C12.6948 40.9808 15.691 41.516 16.7633 41.4531C17.8199 41.3901 19.6334 41.6577 20.4692 43.4683C21.305 45.2788 22.0777 49.1045 23.907 49.9861C25.752 50.8835 24.3801 45.6409 24.3801 45.6409Z" fill="#FEE9D5"/>
<path d="M49.2012 49.1517L58.0164 41.2169L57.5591 46.0188L65.8066 41.028C65.8066 41.028 56.2817 50.0806 56.061 49.813C55.8244 49.5453 56.5183 45.0112 56.5183 45.0112L49.2012 49.1517Z" fill="white"/>
<path d="M46.8672 40.9649L51.945 34.1794L52.2919 37.6115L57.3698 32.9672C57.3698 32.9672 51.9608 40.6343 51.7558 40.4769C51.5508 40.3195 51.4088 37.0448 51.4088 37.0448L46.8672 40.9649Z" fill="white"/>
<path d="M49.9424 54.3942L55.0202 61.1797L55.3671 57.7476L60.445 62.392C60.445 62.392 55.036 54.7248 54.831 54.8823C54.626 55.0397 54.484 58.3144 54.484 58.3144L49.9424 54.3942Z" fill="white"/>
<path fill-rule="evenodd" clip-rule="evenodd" d="M141.328 43.8304C141.059 41.2169 140.271 38.7452 139.041 36.5568C138.599 33.4553 138.126 30.2436 138.536 28.3859C139.577 23.5368 144.734 22.5607 148.14 22.5607C148.629 22.5607 149.07 22.5764 149.465 22.6079C149.654 22.6237 149.843 22.6237 150.032 22.6237C151.278 22.6237 152.477 22.3088 152.177 21.7105C150.884 20.7659 149.575 19.8056 147.935 19.8056C147.856 19.8056 147.762 19.8056 147.667 19.8056C146.043 19.9 144.434 20.026 142.857 20.4668C139.23 21.4901 135.682 23.3007 133.206 26.2447C132.497 27.0791 132.008 28.071 131.645 29.1573C128.885 27.6144 125.684 26.7328 122.278 26.7328C115.276 26.7328 109.157 30.464 105.83 36.0373C110.387 27.7561 122.073 19.6481 129.406 18.184C132.433 17.5857 135.855 17.381 138.946 17.381C140.302 17.381 141.596 17.4283 142.778 17.4755C146.405 17.6644 149.985 19.1916 153.47 21.7578C154.684 22.6394 153.249 23.1117 151.72 23.1117C151.53 23.1117 151.325 23.096 151.136 23.096C150.742 23.0645 150.3 23.0488 149.812 23.0488C146.421 23.0488 141.249 24.0249 140.208 28.8739C139.482 32.306 141.674 40.3353 141.328 43.8304Z" fill="#EEAF98"/>
<rect x="131.105" y="19.6129" width="21.3786" height="17.4896" fill="url(#pattern0)"/>
<path d="M141.422 45.7197C141.422 56.205 132.859 64.6908 122.309 64.6908C111.743 64.6908 103.196 56.1892 103.196 45.7197C103.196 35.2344 111.759 26.7486 122.309 26.7486C132.859 26.7486 141.422 35.2344 141.422 45.7197Z" fill="#DC777F"/>
<path d="M140.523 45.7195C140.523 55.7167 132.37 63.8089 122.293 63.8089C112.232 63.8089 104.079 55.7167 104.079 45.7195C104.079 35.7222 112.248 27.63 122.309 27.63C132.37 27.63 140.523 35.7222 140.523 45.7195Z" fill="#F6BBAE"/>
<path d="M135.225 37.4699C133.474 35.7696 131.85 33.8017 129.863 32.5107C128.523 31.629 126.898 31.2197 125.306 31.4086C122.593 31.7235 120.512 30.8891 118.051 30.7631C113.258 30.527 113.242 33.9591 110.198 36.5883C108.763 37.832 106.713 38.1469 106.24 40.1621C105.783 42.0828 107.312 43.8146 106.965 45.8298C106.619 47.7978 105.31 49.1202 106.003 51.2456C106.682 53.3081 108.274 53.9221 109.567 55.2918C112.564 58.4877 111.901 61.9198 117.342 61.3688C118.225 61.2743 119.376 61.3058 120.606 61.3216C123.524 61.3846 126.914 61.4318 128.491 59.9676C129.09 59.4166 129.185 58.4562 129.831 57.8895C130.636 57.181 131.834 57.118 132.686 56.4883C134.736 54.9611 134.073 53.6544 134.562 51.4818C135.035 49.3249 136.865 47.8293 137.448 45.6409C137.842 44.1767 137.795 42.8228 137.511 41.4688C137.196 39.9574 136.36 38.572 135.225 37.4699Z" fill="#E66369"/>
<path d="M133.458 38.6034C131.928 37.1234 130.84 34.4628 129.121 33.345C127.954 32.5893 126.22 33.1718 124.848 33.3292C122.482 33.5969 120.685 32.8727 118.54 32.7782C114.377 32.5735 114.361 35.5491 111.727 37.8477C110.482 38.934 108.7 39.2016 108.29 40.9649C107.895 42.6337 109.22 44.1294 108.92 45.8927C108.621 47.6087 106.571 49.0099 107.186 50.8519C107.785 52.6467 109.267 53.3394 110.387 54.5359C112.989 57.3068 112.579 60.4555 117.31 59.9675C118.051 59.8888 119.06 59.9832 120.148 60.0777C122.892 60.2981 126.204 60.5185 127.607 58.1727C127.97 57.5745 128.207 56.866 128.774 56.3622C129.468 55.7482 130.509 55.6852 131.25 55.1342C133.032 53.8117 132.464 52.6782 132.874 50.7889C133.284 48.9154 134.877 47.6087 135.382 45.7195C135.729 44.4443 135.681 43.2792 135.445 42.0984C135.161 40.7602 134.436 39.5637 133.458 38.6034Z" fill="#E6C383"/>
<rect x="97.8623" y="21.896" width="45.4165" height="47.231" fill="url(#pattern1)"/>
<path d="M112.816 55.0399C112.768 54.9927 112.721 54.9297 112.674 54.8825C112.721 54.9454 112.784 54.9927 112.816 55.0399ZM118.398 59.1647C117.484 59.1647 116.569 59.0388 115.702 58.6295C114.203 57.9367 114.03 57.0551 113.51 56.0632C114.014 57.0551 114.188 57.9367 115.702 58.6295C116.569 59.0388 117.484 59.1647 118.398 59.1647C119.155 59.1647 119.912 59.0703 120.637 58.9758C120.937 58.9286 121.268 58.9128 121.631 58.9128C122.041 58.9128 122.467 58.9286 122.908 58.9443C123.35 58.9601 123.791 58.9758 124.201 58.9758C124.832 58.9758 125.416 58.9286 125.841 58.7869C127.876 58.0942 126.835 56.5985 127.734 55.0084C128.459 53.7174 129.737 53.7332 130.557 52.4264C131.487 50.9308 131.802 49.2462 132.906 47.6561C133.237 47.1838 133.458 46.6013 133.6 45.9401C133.963 46.3651 133.19 47.231 132.906 47.6561C131.802 49.2462 131.487 50.9151 130.557 52.4264C129.737 53.7332 128.459 53.7332 127.734 55.0084C126.835 56.5985 127.86 58.0942 125.841 58.7869C125.416 58.9286 124.832 58.9758 124.201 58.9758C123.791 58.9758 123.35 58.9601 122.908 58.9443C122.467 58.9286 122.041 58.9128 121.631 58.9128C121.268 58.9128 120.937 58.9286 120.637 58.9758C119.912 59.0703 119.155 59.1647 118.398 59.1647Z" fill="#E3B489"/>
<rect x="99.7549" y="28.3195" width="41.2534" height="42.3189" fill="url(#pattern2)"/>
<path d="M138.126 50.8519C138.126 51.2928 137.763 51.6549 137.322 51.6549C136.88 51.6549 136.518 51.2928 136.518 50.8519C136.518 50.4111 136.88 50.049 137.322 50.049C137.763 50.0333 138.126 50.3954 138.126 50.8519Z" fill="#721511"/>
<path d="M136.502 35.8482C136.502 36.289 136.139 36.6511 135.698 36.6511C135.256 36.6511 134.894 36.289 134.894 35.8482C134.894 35.4073 135.256 35.0452 135.698 35.0452C136.139 35.0452 136.502 35.4073 136.502 35.8482Z" fill="#721511"/>
<path d="M128.302 29.9443C128.302 30.3851 127.939 30.7472 127.498 30.7472C127.056 30.7472 126.693 30.3851 126.693 29.9443C126.693 29.5035 127.056 29.1414 127.498 29.1414C127.939 29.1414 128.302 29.5035 128.302 29.9443Z" fill="#721511"/>
<path d="M118.683 29.4249C118.683 29.8657 118.32 30.2278 117.878 30.2278C117.437 30.2278 117.074 29.8657 117.074 29.4249C117.074 28.984 117.437 28.6062 117.878 28.6062C118.32 28.6219 118.683 28.984 118.683 29.4249Z" fill="#721511"/>
<path d="M111.129 34.3527C111.129 34.7935 110.766 35.1556 110.325 35.1556C109.883 35.1556 109.521 34.7935 109.521 34.3527C109.521 33.9118 109.883 33.5497 110.325 33.5497C110.766 33.5497 111.129 33.9118 111.129 34.3527Z" fill="#721511"/>
<path d="M106.351 45.2944C106.351 45.7352 105.988 46.0973 105.546 46.0973C105.105 46.0973 104.742 45.7352 104.742 45.2944C104.742 44.8536 105.105 44.4915 105.546 44.4915C105.988 44.4915 106.351 44.8536 106.351 45.2944Z" fill="#721511"/>
<path d="M133.774 58.3616C133.774 58.8025 133.411 59.1646 132.969 59.1646C132.528 59.1646 132.165 58.8025 132.165 58.3616C132.165 57.9208 132.528 57.5587 132.969 57.5587C133.411 57.543 133.774 57.9051 133.774 58.3616Z" fill="#721511"/>
<path d="M123.917 62.4235C123.917 62.8644 123.554 63.2265 123.113 63.2265C122.671 63.2265 122.309 62.8644 122.309 62.4235C122.309 61.9827 122.671 61.6049 123.113 61.6049C123.554 61.6206 123.917 61.9827 123.917 62.4235Z" fill="#721511"/>
<path d="M109.946 56.6456C109.946 57.0865 109.584 57.4486 109.142 57.4486C108.701 57.4486 108.338 57.0865 108.338 56.6456C108.338 56.2048 108.701 55.827 109.142 55.827C109.584 55.827 109.946 56.1891 109.946 56.6456Z" fill="#721511"/>
<rect x="161.445" y="-0.019104" width="68.8817" height="68.3904" fill="url(#pattern3)"/>
<rect x="197.159" y="24.2188" width="19.6988" height="16.1826" fill="url(#pattern4)"/>
<path d="M206.219 48.0655C206.219 57.795 198.271 65.6983 188.463 65.6983C178.654 65.6983 170.706 57.8108 170.706 48.0655C170.706 38.3359 178.654 30.4326 188.463 30.4326C198.271 30.4483 206.219 38.3359 206.219 48.0655Z" fill="#DC777F"/>
<path d="M205.4 48.0654C205.4 57.3542 197.814 64.8797 188.463 64.8797C179.112 64.8797 171.526 57.3542 171.526 48.0654C171.526 38.7767 179.112 31.2512 188.463 31.2512C197.814 31.267 205.4 38.7924 205.4 48.0654Z" fill="#F6BBAE"/>
<path d="M196.158 35.9743C196.158 36.3837 195.827 36.73 195.401 36.73C194.991 36.73 194.645 36.3994 194.645 35.9743C194.645 35.565 194.976 35.2186 195.401 35.2186C195.811 35.2186 196.158 35.5492 196.158 35.9743Z" fill="#721511"/>
<path d="M202.814 45.515C202.814 45.9244 202.483 46.2707 202.057 46.2707C201.647 46.2707 201.3 45.9401 201.3 45.515C201.3 45.1057 201.631 44.7593 202.057 44.7593C202.483 44.7593 202.814 45.09 202.814 45.515Z" fill="#721511"/>
<path d="M198.918 59.5268C198.918 59.9362 198.587 60.2825 198.161 60.2825C197.751 60.2825 197.404 59.9519 197.404 59.5268C197.404 59.1175 197.735 58.7711 198.161 58.7711C198.587 58.7711 198.918 59.1017 198.918 59.5268Z" fill="#721511"/>
<path d="M186.744 62.093C186.744 62.5023 186.413 62.8487 185.987 62.8487C185.577 62.8487 185.23 62.5181 185.23 62.093C185.23 61.6836 185.562 61.3373 185.987 61.3373C186.413 61.3373 186.744 61.6836 186.744 62.093Z" fill="#721511"/>
<path d="M175.674 51.6391C175.674 52.0485 175.343 52.3948 174.917 52.3948C174.507 52.3948 174.16 52.0642 174.16 51.6391C174.16 51.2298 174.491 50.8834 174.917 50.8834C175.343 50.8834 175.674 51.2298 175.674 51.6391Z" fill="#721511"/>
<path d="M184.993 34.762C184.993 35.1714 184.662 35.5177 184.236 35.5177C183.826 35.5177 183.479 35.1871 183.479 34.762C183.479 34.3527 183.811 34.0063 184.236 34.0063C184.662 34.0063 184.993 34.337 184.993 34.762Z" fill="#721511"/>
<path d="M174.538 43.3422C174.538 43.7515 174.207 44.0979 173.781 44.0979C173.371 44.0979 173.024 43.7673 173.024 43.3422C173.024 42.9328 173.356 42.5865 173.781 42.5865C174.207 42.5865 174.538 42.9171 174.538 43.3422Z" fill="#721511"/>
<path d="M191.553 35.2343C191.364 35.0612 191.127 34.9195 190.859 34.8565C189.677 34.5574 188.415 34.951 187.563 35.8326C186.759 36.6985 186.964 38.3831 187.106 39.4536C187.264 40.5085 187.453 41.5633 187.5 42.6181C187.532 43.3896 187.832 44.9797 186.523 44.5861C185.703 44.3342 185.135 43.3266 184.662 42.6653C183.337 40.8391 181.587 39.2175 179.284 38.8396C178.732 38.7452 178.023 38.7294 177.471 38.8396C176.903 38.9498 176.635 39.2647 176.288 39.7213C175.941 40.1778 175.626 40.6974 175.421 41.2484C174.948 42.5237 175.326 44.3342 175.878 45.5307C176.446 46.7272 177.455 47.5931 178.701 48.0339C179.253 48.2229 179.852 48.3645 180.42 48.5062C181.508 48.7581 182.643 48.8211 183.716 49.1675C184.551 49.4351 185.308 50.238 184.772 51.1354C184.236 52.0328 182.848 52.08 181.965 52.269C180.104 52.6468 177.928 52.6783 176.446 54.0008C172.582 57.4644 178.701 59.8574 182.044 59.2277C183.29 58.9915 184.189 58.4247 184.946 57.4329C185.687 56.4568 186.538 54.7565 188.005 54.8509C190.229 54.9926 188.447 59.1332 188.494 60.3927C188.557 62.1875 190.039 63.3997 191.79 63.1636C192.61 63.0534 193.367 62.8015 193.887 62.1245C195.433 60.0936 194.881 57.5274 193.272 55.7798C192.689 55.1501 190.749 53.6229 191.947 52.6941C193.288 51.6707 194.991 52.82 195.795 53.9693C196.631 55.1343 197.025 56.7717 198.523 57.3227C200.4 58.0154 201.803 56.5355 202.434 54.9926C203.507 52.3634 202.103 50.2066 199.643 49.136C197.893 48.3803 195.984 48.3645 194.187 47.7505C193.856 47.6403 193.272 47.5144 193.036 47.231C192.357 46.4123 194.218 45.7039 194.723 45.5622C197.025 44.9482 199.816 45.3733 200.636 42.5237C201.33 40.1306 199.785 37.2968 197.073 37.5487C195.133 37.7376 193.193 44.2555 190.859 42.3977C189.819 41.579 191.553 39.2175 191.947 38.446C192.421 37.5487 192.357 35.99 191.553 35.2343Z" fill="#E66369"/>
<path d="M190.97 36.9347C190.797 36.3364 190.371 35.9586 189.488 36.1633C186.476 36.8402 188.337 41.8467 188.226 43.8304C188.195 44.5546 188.163 45.1844 187.375 45.389C186.665 45.578 185.829 45.389 185.214 45.0269C184.347 44.5231 183.842 43.7832 183.275 42.9803C182.123 41.3587 180.673 40.0519 178.575 40.3983C176.777 40.6974 175.957 43.2479 176.888 44.7121C177.377 45.4835 178.055 46.4754 178.843 46.9477C179.726 47.4672 180.736 47.5302 181.698 47.7348C183.353 48.0655 185.892 48.4748 186.302 50.5057C186.586 51.8912 184.158 52.4737 183.18 52.6784C181.429 53.0405 178.891 53.4026 177.929 55.1344C177.014 56.7874 179.222 57.6376 180.499 57.7006C182.202 57.7793 183.748 56.8032 184.883 55.5752C185.64 54.7723 186.602 53.8276 187.722 53.5757C188.936 53.3081 189.803 54.725 190.024 55.7956C190.197 56.63 190.04 57.3542 189.803 58.1414C189.567 58.9601 189.44 59.9992 189.551 60.8178C189.724 61.9356 190.67 62.3135 191.727 62.0301C193.903 61.4633 194.124 59.3694 193.209 57.6376C192.784 56.8189 192.342 56.016 191.822 55.2288C191.333 54.4731 190.797 53.9693 190.797 53.0405C190.797 52.0486 190.875 51.3559 191.995 51.2299C193.351 51.0725 194.739 51.4661 195.685 52.4894C196.269 53.1192 196.521 54.0166 197.089 54.6935C197.72 55.4492 198.287 55.7169 199.296 55.6696C201.142 55.5752 202.86 53.4026 201.662 51.6708C200.432 49.8917 198.382 49.3564 196.379 49.1518C195.37 49.0573 194.455 48.9314 193.509 48.4748C192.989 48.2386 191.774 47.6719 191.822 46.9634C191.885 46.1132 193.509 45.3261 194.187 45.1057C195.023 44.8223 195.811 44.7908 196.6 44.3342C198.066 43.4998 198.902 41.5633 198.666 39.8945C198.398 37.8951 196.064 39.0286 195.212 39.9417C194.518 40.6974 194.077 41.6578 193.32 42.3663C192.626 43.0275 191.207 43.9249 190.497 42.7756C189.977 41.9097 190.182 41.091 190.529 40.2094C190.844 39.4694 191.238 37.9108 190.97 36.9347Z" fill="#E6C383"/>
<rect x="169.393" y="25.6747" width="39.361" height="40.0519" fill="url(#pattern5)"/>
<path d="M186.933 50.7418C186.933 50.2223 186.665 49.5926 186.034 48.8054C185.718 48.4118 185.167 48.1441 184.898 47.7505C185.293 48.0182 185.671 48.3646 186.034 48.8054C186.665 49.5926 186.933 50.2223 186.933 50.7418ZM195.086 51.3244C194.754 51.2614 194.376 51.0725 194.076 51.0095C194.455 51.0882 194.786 51.1984 195.086 51.3244C195.07 51.3244 195.086 51.3244 195.086 51.3244ZM190.165 52.7885C190.165 52.6311 190.181 52.4736 190.213 52.3162C190.402 51.3086 191.348 50.915 192.405 50.852C191.459 50.8993 190.402 51.2614 190.213 52.3162C190.181 52.4736 190.165 52.6311 190.165 52.7885Z" fill="#E3B489"/>
<rect x="173.178" y="40.7884" width="28.0069" height="27.205" fill="url(#pattern6)"/>
<path d="M107.765 75C107.713 74.8991 107.667 74.7347 107.628 74.5068C107.25 74.9007 106.788 75.0977 106.241 75.0977C105.711 75.0977 105.278 74.9463 104.942 74.6436C104.607 74.3408 104.439 73.9665 104.439 73.5205C104.439 72.9574 104.648 72.526 105.064 72.2266C105.484 71.9238 106.083 71.7725 106.861 71.7725H107.589V71.4258C107.589 71.1523 107.512 70.9342 107.359 70.7715C107.206 70.6055 106.974 70.5225 106.661 70.5225C106.391 70.5225 106.17 70.5908 105.997 70.7275C105.825 70.861 105.738 71.0319 105.738 71.2402H104.552C104.552 70.9505 104.648 70.6803 104.84 70.4297C105.032 70.1758 105.292 69.9772 105.621 69.834C105.953 69.6908 106.323 69.6191 106.729 69.6191C107.348 69.6191 107.841 69.7754 108.209 70.0879C108.577 70.3971 108.766 70.8333 108.775 71.3965V73.7793C108.775 74.2546 108.842 74.6338 108.976 74.917V75H107.765ZM106.461 74.1455C106.695 74.1455 106.915 74.0885 107.12 73.9746C107.328 73.8607 107.485 73.7077 107.589 73.5156V72.5195H106.949C106.51 72.5195 106.179 72.596 105.958 72.749C105.737 72.902 105.626 73.1185 105.626 73.3984C105.626 73.6263 105.701 73.8086 105.851 73.9453C106.004 74.0788 106.207 74.1455 106.461 74.1455ZM111.78 75H110.594V67.5H111.78V75ZM115.439 73.4961L116.558 69.7168H117.783L115.952 75H114.922L113.076 69.7168H114.307L115.439 73.4961ZM121.286 75.0977C120.534 75.0977 119.924 74.8617 119.455 74.3896C118.99 73.9144 118.757 73.2829 118.757 72.4951V72.3486C118.757 71.8213 118.858 71.3509 119.06 70.9375C119.265 70.5208 119.551 70.1969 119.919 69.9658C120.287 69.7347 120.697 69.6191 121.149 69.6191C121.869 69.6191 122.424 69.8486 122.814 70.3076C123.208 70.7666 123.405 71.416 123.405 72.2559V72.7344H119.953C119.989 73.1706 120.134 73.5156 120.388 73.7695C120.645 74.0234 120.967 74.1504 121.354 74.1504C121.898 74.1504 122.341 73.9307 122.683 73.4912L123.322 74.1016C123.111 74.4173 122.827 74.6631 122.473 74.8389C122.121 75.0114 121.726 75.0977 121.286 75.0977ZM121.145 70.5713C120.819 70.5713 120.555 70.6852 120.354 70.9131C120.155 71.141 120.028 71.4583 119.973 71.8652H122.233V71.7773C122.207 71.3802 122.102 71.0807 121.916 70.8789C121.73 70.6738 121.473 70.5713 121.145 70.5713ZM121.413 67.5H122.766L121.413 68.9795H120.461L121.413 67.5ZM124.608 72.3096C124.608 71.792 124.711 71.3265 124.916 70.9131C125.121 70.4964 125.409 70.1774 125.78 69.9561C126.151 69.7314 126.578 69.6191 127.06 69.6191C127.772 69.6191 128.35 69.8486 128.793 70.3076C129.239 70.7666 129.48 71.3753 129.516 72.1338L129.521 72.4121C129.521 72.9329 129.42 73.3984 129.218 73.8086C129.019 74.2188 128.733 74.5361 128.358 74.7607C127.987 74.9854 127.558 75.0977 127.069 75.0977C126.324 75.0977 125.727 74.8503 125.277 74.3555C124.831 73.8574 124.608 73.195 124.608 72.3682V72.3096ZM125.795 72.4121C125.795 72.9557 125.907 73.3822 126.132 73.6914C126.356 73.9974 126.669 74.1504 127.069 74.1504C127.47 74.1504 127.781 73.9941 128.002 73.6816C128.227 73.3691 128.339 72.9118 128.339 72.3096C128.339 71.7757 128.223 71.3525 127.992 71.04C127.764 70.7275 127.453 70.5713 127.06 70.5713C126.672 70.5713 126.365 70.7259 126.137 71.0352C125.909 71.3411 125.795 71.8001 125.795 72.4121ZM132.286 75H131.1V67.5H132.286V75ZM133.86 72.3096C133.86 71.792 133.963 71.3265 134.168 70.9131C134.373 70.4964 134.661 70.1774 135.032 69.9561C135.403 69.7314 135.83 69.6191 136.312 69.6191C137.024 69.6191 137.602 69.8486 138.045 70.3076C138.491 70.7666 138.732 71.3753 138.768 72.1338L138.772 72.4121C138.772 72.9329 138.672 73.3984 138.47 73.8086C138.271 74.2188 137.985 74.5361 137.61 74.7607C137.239 74.9854 136.81 75.0977 136.321 75.0977C135.576 75.0977 134.979 74.8503 134.529 74.3555C134.083 73.8574 133.86 73.195 133.86 72.3682V72.3096ZM135.047 72.4121C135.047 72.9557 135.159 73.3822 135.384 73.6914C135.608 73.9974 135.921 74.1504 136.321 74.1504C136.722 74.1504 137.033 73.9941 137.254 73.6816C137.479 73.3691 137.591 72.9118 137.591 72.3096C137.591 71.7757 137.475 71.3525 137.244 71.04C137.016 70.7275 136.705 70.5713 136.312 70.5713C135.924 70.5713 135.617 70.7259 135.389 71.0352C135.161 71.3411 135.047 71.8001 135.047 72.4121ZM105.709 79.7168L105.743 80.3271C106.134 79.8551 106.646 79.6191 107.281 79.6191C108.382 79.6191 108.941 80.249 108.961 81.5088V85H107.774V81.5771C107.774 81.2419 107.701 80.9945 107.555 80.835C107.411 80.6722 107.175 80.5908 106.847 80.5908C106.368 80.5908 106.012 80.8073 105.777 81.2402V85H104.591V79.7168H105.709ZM110.452 82.3096C110.452 81.792 110.555 81.3265 110.76 80.9131C110.965 80.4964 111.253 80.1774 111.624 79.9561C111.995 79.7314 112.422 79.6191 112.903 79.6191C113.616 79.6191 114.194 79.8486 114.637 80.3076C115.083 80.7666 115.324 81.3753 115.359 82.1338L115.364 82.4121C115.364 82.9329 115.263 83.3984 115.062 83.8086C114.863 84.2188 114.576 84.5361 114.202 84.7607C113.831 84.9854 113.401 85.0977 112.913 85.0977C112.168 85.0977 111.57 84.8503 111.121 84.3555C110.675 83.8574 110.452 83.195 110.452 82.3682V82.3096ZM111.639 82.4121C111.639 82.9557 111.751 83.3822 111.976 83.6914C112.2 83.9974 112.513 84.1504 112.913 84.1504C113.313 84.1504 113.624 83.9941 113.846 83.6816C114.07 83.3691 114.183 82.9118 114.183 82.3096C114.183 81.7757 114.067 81.3525 113.836 81.04C113.608 80.7275 113.297 80.5713 112.903 80.5713C112.516 80.5713 112.208 80.7259 111.98 81.0352C111.753 81.3411 111.639 81.8001 111.639 82.4121ZM119.634 80.8008C119.478 80.7747 119.316 80.7617 119.15 80.7617C118.607 80.7617 118.241 80.9701 118.052 81.3867V85H116.865V79.7168H117.998L118.027 80.3076C118.314 79.8486 118.711 79.6191 119.219 79.6191C119.388 79.6191 119.528 79.6419 119.639 79.6875L119.634 80.8008ZM121.999 79.7168L122.033 80.2686C122.404 79.8356 122.912 79.6191 123.557 79.6191C124.263 79.6191 124.746 79.8893 125.007 80.4297C125.391 79.8893 125.931 79.6191 126.628 79.6191C127.211 79.6191 127.644 79.7803 127.927 80.1025C128.213 80.4248 128.36 80.9001 128.366 81.5283V85H127.18V81.5625C127.18 81.2272 127.106 80.9814 126.96 80.8252C126.813 80.6689 126.571 80.5908 126.232 80.5908C125.962 80.5908 125.741 80.6641 125.568 80.8105C125.399 80.9538 125.28 81.1426 125.212 81.377L125.217 85H124.03V81.5234C124.014 80.9017 123.697 80.5908 123.078 80.5908C122.603 80.5908 122.266 80.7845 122.067 81.1719V85H120.881V79.7168H121.999ZM133.241 85C133.189 84.8991 133.144 84.7347 133.104 84.5068C132.727 84.9007 132.265 85.0977 131.718 85.0977C131.187 85.0977 130.754 84.9463 130.419 84.6436C130.084 84.3408 129.916 83.9665 129.916 83.5205C129.916 82.9574 130.124 82.526 130.541 82.2266C130.961 81.9238 131.56 81.7725 132.338 81.7725H133.065V81.4258C133.065 81.1523 132.989 80.9342 132.836 80.7715C132.683 80.6055 132.45 80.5225 132.138 80.5225C131.868 80.5225 131.646 80.5908 131.474 80.7275C131.301 80.861 131.215 81.0319 131.215 81.2402H130.028C130.028 80.9505 130.124 80.6803 130.316 80.4297C130.508 80.1758 130.769 79.9772 131.098 79.834C131.43 79.6908 131.799 79.6191 132.206 79.6191C132.825 79.6191 133.318 79.7754 133.686 80.0879C134.053 80.3971 134.242 80.8333 134.252 81.3965V83.7793C134.252 84.2546 134.319 84.6338 134.452 84.917V85H133.241ZM131.938 84.1455C132.172 84.1455 132.392 84.0885 132.597 83.9746C132.805 83.8607 132.961 83.7077 133.065 83.5156V82.5195H132.426C131.986 82.5195 131.656 82.596 131.435 82.749C131.213 82.902 131.103 83.1185 131.103 83.3984C131.103 83.6263 131.177 83.8086 131.327 83.9453C131.48 84.0788 131.684 84.1455 131.938 84.1455ZM137.257 85H136.07V77.5H137.257V85Z" fill="#E66369"/>
<path d="M175.681 75C175.629 74.8991 175.583 74.7347 175.544 74.5068C175.166 74.9007 174.704 75.0977 174.157 75.0977C173.627 75.0977 173.194 74.9463 172.858 74.6436C172.523 74.3408 172.355 73.9665 172.355 73.5205C172.355 72.9574 172.564 72.526 172.98 72.2266C173.4 71.9238 173.999 71.7725 174.777 71.7725H175.505V71.4258C175.505 71.1523 175.428 70.9342 175.275 70.7715C175.122 70.6055 174.89 70.5225 174.577 70.5225C174.307 70.5225 174.086 70.5908 173.913 70.7275C173.741 70.861 173.654 71.0319 173.654 71.2402H172.468C172.468 70.9505 172.564 70.6803 172.756 70.4297C172.948 70.1758 173.208 69.9772 173.537 69.834C173.869 69.6908 174.239 69.6191 174.646 69.6191C175.264 69.6191 175.757 69.7754 176.125 70.0879C176.493 70.3971 176.682 70.8333 176.691 71.3965V73.7793C176.691 74.2546 176.758 74.6338 176.892 74.917V75H175.681ZM174.377 74.1455C174.611 74.1455 174.831 74.0885 175.036 73.9746C175.244 73.8607 175.401 73.7077 175.505 73.5156V72.5195H174.865C174.426 72.5195 174.095 72.596 173.874 72.749C173.653 72.902 173.542 73.1185 173.542 73.3984C173.542 73.6263 173.617 73.8086 173.767 73.9453C173.92 74.0788 174.123 74.1455 174.377 74.1455ZM179.696 75H178.51V67.5H179.696V75ZM183.355 73.4961L184.474 69.7168H185.699L183.868 75H182.838L180.992 69.7168H182.223L183.355 73.4961ZM189.202 75.0977C188.45 75.0977 187.84 74.8617 187.371 74.3896C186.906 73.9144 186.673 73.2829 186.673 72.4951V72.3486C186.673 71.8213 186.774 71.3509 186.976 70.9375C187.181 70.5208 187.467 70.1969 187.835 69.9658C188.203 69.7347 188.613 69.6191 189.065 69.6191C189.785 69.6191 190.34 69.8486 190.73 70.3076C191.124 70.7666 191.321 71.416 191.321 72.2559V72.7344H187.869C187.905 73.1706 188.05 73.5156 188.304 73.7695C188.561 74.0234 188.883 74.1504 189.271 74.1504C189.814 74.1504 190.257 73.9307 190.599 73.4912L191.238 74.1016C191.027 74.4173 190.743 74.6631 190.389 74.8389C190.037 75.0114 189.642 75.0977 189.202 75.0977ZM189.061 70.5713C188.735 70.5713 188.471 70.6852 188.27 70.9131C188.071 71.141 187.944 71.4583 187.889 71.8652H190.149V71.7773C190.123 71.3802 190.018 71.0807 189.832 70.8789C189.646 70.6738 189.389 70.5713 189.061 70.5713ZM189.329 67.5H190.682L189.329 68.9795H188.377L189.329 67.5ZM192.524 72.3096C192.524 71.792 192.627 71.3265 192.832 70.9131C193.037 70.4964 193.325 70.1774 193.696 69.9561C194.067 69.7314 194.494 69.6191 194.976 69.6191C195.688 69.6191 196.266 69.8486 196.709 70.3076C197.155 70.7666 197.396 71.3753 197.432 72.1338L197.437 72.4121C197.437 72.9329 197.336 73.3984 197.134 73.8086C196.935 74.2188 196.649 74.5361 196.274 74.7607C195.903 74.9854 195.474 75.0977 194.985 75.0977C194.24 75.0977 193.643 74.8503 193.193 74.3555C192.747 73.8574 192.524 73.195 192.524 72.3682V72.3096ZM193.711 72.4121C193.711 72.9557 193.823 73.3822 194.048 73.6914C194.272 73.9974 194.585 74.1504 194.985 74.1504C195.386 74.1504 195.697 73.9941 195.918 73.6816C196.143 73.3691 196.255 72.9118 196.255 72.3096C196.255 71.7757 196.139 71.3525 195.908 71.04C195.68 70.7275 195.369 70.5713 194.976 70.5713C194.588 70.5713 194.281 70.7259 194.053 71.0352C193.825 71.3411 193.711 71.8001 193.711 72.4121ZM200.202 75H199.016V67.5H200.202V75ZM201.776 72.3096C201.776 71.792 201.879 71.3265 202.084 70.9131C202.289 70.4964 202.577 70.1774 202.948 69.9561C203.319 69.7314 203.746 69.6191 204.228 69.6191C204.94 69.6191 205.518 69.8486 205.961 70.3076C206.407 70.7666 206.648 71.3753 206.684 72.1338L206.688 72.4121C206.688 72.9329 206.588 73.3984 206.386 73.8086C206.187 74.2188 205.901 74.5361 205.526 74.7607C205.155 74.9854 204.726 75.0977 204.237 75.0977C203.492 75.0977 202.895 74.8503 202.445 74.3555C201.999 73.8574 201.776 73.195 201.776 72.3682V72.3096ZM202.963 72.4121C202.963 72.9557 203.075 73.3822 203.3 73.6914C203.524 73.9974 203.837 74.1504 204.237 74.1504C204.638 74.1504 204.949 73.9941 205.17 73.6816C205.395 73.3691 205.507 72.9118 205.507 72.3096C205.507 71.7757 205.391 71.3525 205.16 71.04C204.932 70.7275 204.621 70.5713 204.228 70.5713C203.84 70.5713 203.533 70.7259 203.305 71.0352C203.077 71.3411 202.963 71.8001 202.963 72.4121ZM167.169 85H165.982V79.7168H167.169V85ZM165.909 78.3447C165.909 78.1624 165.966 78.0111 166.08 77.8906C166.197 77.7702 166.363 77.71 166.578 77.71C166.793 77.71 166.959 77.7702 167.076 77.8906C167.193 78.0111 167.252 78.1624 167.252 78.3447C167.252 78.5238 167.193 78.6735 167.076 78.7939C166.959 78.9111 166.793 78.9697 166.578 78.9697C166.363 78.9697 166.197 78.9111 166.08 78.7939C165.966 78.6735 165.909 78.5238 165.909 78.3447ZM170.066 79.7168L170.101 80.3271C170.491 79.8551 171.004 79.6191 171.639 79.6191C172.739 79.6191 173.299 80.249 173.318 81.5088V85H172.132V81.5771C172.132 81.2419 172.059 80.9945 171.912 80.835C171.769 80.6722 171.533 80.5908 171.204 80.5908C170.726 80.5908 170.369 80.8073 170.135 81.2402V85H168.948V79.7168H170.066ZM178.452 78.4424C178.12 78.3968 177.834 78.374 177.593 78.374C176.955 78.374 176.636 78.6735 176.636 79.2725V79.7168H177.71V80.5957H176.636V85H175.449V80.5957H174.644V79.7168H175.449V79.2432C175.452 78.6475 175.628 78.1917 175.977 77.876C176.328 77.557 176.823 77.3975 177.461 77.3975C177.858 77.3975 178.584 77.4756 179.639 77.6318V85H178.452V78.4424ZM184.606 85C184.554 84.8991 184.509 84.7347 184.47 84.5068C184.092 84.9007 183.63 85.0977 183.083 85.0977C182.552 85.0977 182.119 84.9463 181.784 84.6436C181.449 84.3408 181.281 83.9665 181.281 83.5205C181.281 82.9574 181.49 82.526 181.906 82.2266C182.326 81.9238 182.925 81.7725 183.703 81.7725H184.431V81.4258C184.431 81.1523 184.354 80.9342 184.201 80.7715C184.048 80.6055 183.815 80.5225 183.503 80.5225C183.233 80.5225 183.011 80.5908 182.839 80.7275C182.666 80.861 182.58 81.0319 182.58 81.2402H181.394C181.394 80.9505 181.49 80.6803 181.682 80.4297C181.874 80.1758 182.134 79.9772 182.463 79.834C182.795 79.6908 183.164 79.6191 183.571 79.6191C184.19 79.6191 184.683 79.7754 185.051 80.0879C185.419 80.3971 185.607 80.8333 185.617 81.3965V83.7793C185.617 84.2546 185.684 84.6338 185.817 84.917V85H184.606ZM183.303 84.1455C183.537 84.1455 183.757 84.0885 183.962 83.9746C184.17 83.8607 184.326 83.7077 184.431 83.5156V82.5195H183.791C183.352 82.5195 183.021 82.596 182.8 82.749C182.578 82.902 182.468 83.1185 182.468 83.3984C182.468 83.6263 182.543 83.8086 182.692 83.9453C182.845 84.0788 183.049 84.1455 183.303 84.1455ZM188.476 79.7168L188.51 80.2686C188.881 79.8356 189.389 79.6191 190.033 79.6191C190.74 79.6191 191.223 79.8893 191.483 80.4297C191.868 79.8893 192.408 79.6191 193.104 79.6191C193.687 79.6191 194.12 79.7803 194.403 80.1025C194.69 80.4248 194.836 80.9001 194.843 81.5283V85H193.656V81.5625C193.656 81.2272 193.583 80.9814 193.437 80.8252C193.29 80.6689 193.048 80.5908 192.709 80.5908C192.439 80.5908 192.217 80.6641 192.045 80.8105C191.876 80.9538 191.757 81.1426 191.688 81.377L191.693 85H190.507V81.5234C190.491 80.9017 190.173 80.5908 189.555 80.5908C189.079 80.5908 188.743 80.7845 188.544 81.1719V85H187.357V79.7168H188.476ZM199.718 85C199.666 84.8991 199.62 84.7347 199.581 84.5068C199.203 84.9007 198.741 85.0977 198.194 85.0977C197.664 85.0977 197.231 84.9463 196.896 84.6436C196.56 84.3408 196.393 83.9665 196.393 83.5205C196.393 82.9574 196.601 82.526 197.018 82.2266C197.438 81.9238 198.036 81.7725 198.814 81.7725H199.542V81.4258C199.542 81.1523 199.465 80.9342 199.312 80.7715C199.16 80.6055 198.927 80.5225 198.614 80.5225C198.344 80.5225 198.123 80.5908 197.95 80.7275C197.778 80.861 197.691 81.0319 197.691 81.2402H196.505C196.505 80.9505 196.601 80.6803 196.793 80.4297C196.985 80.1758 197.245 79.9772 197.574 79.834C197.906 79.6908 198.276 79.6191 198.683 79.6191C199.301 79.6191 199.794 79.7754 200.162 80.0879C200.53 80.3971 200.719 80.8333 200.729 81.3965V83.7793C200.729 84.2546 200.795 84.6338 200.929 84.917V85H199.718ZM198.414 84.1455C198.648 84.1455 198.868 84.0885 199.073 83.9746C199.282 83.8607 199.438 83.7077 199.542 83.5156V82.5195H198.902C198.463 82.5195 198.132 82.596 197.911 82.749C197.69 82.902 197.579 83.1185 197.579 83.3984C197.579 83.6263 197.654 83.8086 197.804 83.9453C197.957 84.0788 198.16 84.1455 198.414 84.1455ZM202.249 82.3193C202.249 81.5055 202.438 80.8529 202.815 80.3613C203.193 79.8665 203.699 79.6191 204.334 79.6191C204.894 79.6191 205.346 79.8145 205.691 80.2051V77.5H206.878V85H205.804L205.745 84.4531C205.39 84.8828 204.917 85.0977 204.324 85.0977C203.706 85.0977 203.204 84.8486 202.82 84.3506C202.439 83.8525 202.249 83.1755 202.249 82.3193ZM203.436 82.4219C203.436 82.959 203.538 83.3789 203.743 83.6816C203.951 83.9811 204.246 84.1309 204.627 84.1309C205.112 84.1309 205.467 83.9144 205.691 83.4814V81.2256C205.473 80.8024 205.122 80.5908 204.637 80.5908C204.253 80.5908 203.956 80.7438 203.748 81.0498C203.54 81.3525 203.436 81.8099 203.436 82.4219ZM208.394 82.3096C208.394 81.792 208.496 81.3265 208.701 80.9131C208.906 80.4964 209.194 80.1774 209.565 79.9561C209.937 79.7314 210.363 79.6191 210.845 79.6191C211.558 79.6191 212.135 79.8486 212.578 80.3076C213.024 80.7666 213.265 81.3753 213.301 82.1338L213.306 82.4121C213.306 82.9329 213.205 83.3984 213.003 83.8086C212.804 84.2188 212.518 84.5361 212.144 84.7607C211.772 84.9854 211.343 85.0977 210.854 85.0977C210.109 85.0977 209.512 84.8503 209.062 84.3555C208.617 83.8574 208.394 83.195 208.394 82.3682V82.3096ZM209.58 82.4121C209.58 82.9557 209.692 83.3822 209.917 83.6914C210.142 83.9974 210.454 84.1504 210.854 84.1504C211.255 84.1504 211.566 83.9941 211.787 83.6816C212.012 83.3691 212.124 82.9118 212.124 82.3096C212.124 81.7757 212.008 81.3525 211.777 81.04C211.549 80.7275 211.239 80.5713 210.845 80.5713C210.457 80.5713 210.15 80.7259 209.922 81.0352C209.694 81.3411 209.58 81.8001 209.58 82.4121Z" fill="#E66369"/>
</g>
<defs>
<pattern id="pattern0" patternContentUnits="objectBoundingBox" width="1" height="1">
<use xlink:href="#image0"/>
</pattern>
<pattern id="pattern1" patternContentUnits="objectBoundingBox" width="1" height="1">
<use xlink:href="#image1"/>
</pattern>
<pattern id="pattern2" patternContentUnits="objectBoundingBox" width="1" height="1">
<use xlink:href="#image1"/>
</pattern>
<pattern id="pattern3" patternContentUnits="objectBoundingBox" width="1" height="1">
<use xlink:href="#image1"/>
</pattern>
<pattern id="pattern4" patternContentUnits="objectBoundingBox" width="1" height="1">
<use xlink:href="#image2"/>
</pattern>
<pattern id="pattern5" patternContentUnits="objectBoundingBox" width="1" height="1">
<use xlink:href="#image1"/>
</pattern>
<pattern id="pattern6" patternContentUnits="objectBoundingBox" width="1" height="1">
<use xlink:href="#image1"/>
</pattern>
<clipPath id="clip0">
<rect width="230" height="85" fill="white"/>
</clipPath>
</defs>
</svg>
