<?xml version="1.0" encoding="UTF-8"?>
<!DOCTYPE svg PUBLIC "-//W3C//DTD SVG 1.1//EN" "http://www.w3.org/Graphics/SVG/1.1/DTD/svg11.dtd">
<!-- Creator: CorelDRAW 2018 (64 Bit Versão de avaliação) -->
<svg xmlns="http://www.w3.org/2000/svg" xml:space="preserve" width="140px" height="100px" version="1.1" style="shape-rendering:geometricPrecision; text-rendering:geometricPrecision; image-rendering:optimizeQuality; fill-rule:evenodd; clip-rule:evenodd"
viewBox="0 0 140 100"
 xmlns:xlink="http://www.w3.org/1999/xlink">
 <defs>
  <style type="text/css">
   <![CDATA[
    .fil1 {fill:#FEFEFE;fill-rule:nonzero}
    .fil0 {fill:#2FAFE5;fill-rule:nonzero}
   ]]>
  </style>
 </defs>
 <g id="Camada_x0020_1">
  <metadata id="CorelCorpID_0Corel-Layer"/>
  <polygon class="fil0" points="0,100 140,100 140,0 0,0 "/>
  <g id="_2227571886960">
   <path class="fil1" d="M98.61 40.49c1.29,0.46 2.6,0.84 3.84,1.37 3.95,1.69 7.66,3.76 10.56,7.01 0.73,0.81 1.35,1.78 1.83,2.77 1.04,2.18 0.57,4.27 -1.21,5.9 -1.56,1.44 -3.45,2.27 -5.42,2.94 -3.38,1.16 -6.88,1.77 -10.41,2.24 -1.08,0.14 -2.17,0.25 -3.27,0.29 1.19,-0.29 2.38,-0.56 3.55,-0.89 3.4,-0.93 6.74,-2.03 9.8,-3.82 1.37,-0.8 2.63,-1.74 3.6,-3.04 1.81,-2.41 0.87,-5.66 -1.1,-7.22 0.61,3.61 -0.71,6.33 -4.11,8.47 -2.95,1.86 -6.23,2.85 -9.59,3.61 -4.13,0.92 -8.31,1.48 -12.53,1.65 -4.89,0.2 -9.77,0.37 -14.66,0.31 -8.07,-0.11 -16.13,-0.61 -24.1,-1.98 -3.82,-0.66 -7.6,-1.6 -11.4,-2.41 -0.18,-0.04 -0.35,-0.11 -0.51,-0.26 1.05,0.05 2.1,0.09 3.14,0.16 8.24,0.48 16.49,0.72 24.74,0.57 5.42,-0.11 10.85,-0.39 16.27,-0.7 4.88,-0.28 9.73,-0.92 14.52,-1.88 3.6,-0.73 7.17,-1.58 10.47,-3.28 0.38,-0.19 0.75,-0.41 1.11,-0.65 2.15,-1.47 2.74,-4.04 1.42,-6.32 -1.06,-1.84 -2.75,-2.95 -4.6,-3.85 -0.65,-0.31 -1.32,-0.58 -1.98,-0.87l0.04 -0.12z"/>
   <path class="fil1" d="M70.86 49.06c-0.18,0.68 -0.35,1.33 -0.54,2.02 0.43,0 0.8,0.02 1.16,0 0.69,-0.03 0.8,0.06 0.84,0.72 0.02,0.22 0,0.43 0,0.65 0.01,0.75 0.53,1.16 1.24,0.98l0.11 -0.05c1.13,0.23 1.79,-0.55 2.52,-1.18 0.24,-0.22 0.45,-0.26 0.82,-0.09 0.41,0.19 0.96,0.18 1.43,0.13 0.86,-0.1 1.63,0.06 2.34,0.54 0.53,0.35 1.09,0.53 1.76,0.51 0.26,-0.01 0.54,0.35 0.8,0.54 -0.03,0.07 -0.06,0.14 -0.09,0.21 -2.83,0.25 -5.66,0.5 -8.46,0.74 -0.6,-1.35 -0.69,-1.38 -1.37,-0.53 -0.82,-0.37 -1.66,-0.68 -2.21,-1.51 -0.22,-0.34 -0.76,-0.47 -1.16,-0.68 -0.48,-0.24 -1,-0.41 -1.43,-0.71 -0.3,-0.22 -0.52,-0.31 -0.89,-0.22 -0.29,0.07 -0.67,0.03 -0.94,-0.1 -0.71,-0.36 -1.38,-0.8 -2.08,-1.2 -0.28,-0.15 -0.41,-0.33 -0.43,-0.68 -0.01,-0.34 -0.13,-0.69 -0.3,-0.98 -0.63,-1.06 -1.29,-2.09 -1.95,-3.13 -0.04,-0.06 -0.13,-0.09 -0.36,-0.25 0.45,1.17 0.83,2.18 1.21,3.18l-0.13 0.1c-0.15,-0.16 -0.33,-0.31 -0.46,-0.49 -0.63,-0.89 -0.88,-1.94 -1.15,-2.98 -0.06,-0.26 -0.18,-0.52 -0.35,-0.73 -0.84,-1.06 -1.03,-2.2 -0.51,-3.46 0.18,-0.45 0.37,-0.9 0.61,-1.33 0.08,-0.15 0.31,-0.22 0.53,-0.37 0,0 -0.03,-0.09 -0.08,-0.16 -0.36,-0.51 -0.49,-1.04 -0.45,-1.69 0.06,-0.9 -0.18,-1.77 -0.87,-2.46 -0.5,-0.52 -0.79,-0.56 -1.45,-0.32 -0.64,0.24 -1.32,0.39 -1.98,0.58 -0.02,-0.08 -0.05,-0.15 -0.07,-0.23 0.43,-0.13 0.86,-0.26 1.22,-0.36 0.15,-0.42 0.29,-0.8 0.42,-1.18 -2.28,0.98 -6.31,6.04 -7.71,9.72 -1.55,4.07 -1.61,8.24 -0.7,12.47 -0.14,0.02 -0.23,0.06 -0.32,0.06 -0.39,-0.01 -0.78,-0.04 -1.16,-0.05 -1.78,-6.77 -0.16,-16.04 7.63,-22.47 7.12,-5.88 17.33,-6.87 25.42,-2.07 8.27,4.9 12.26,13.45 11.05,22.06 -0.44,0.09 -0.89,0.18 -1.38,0.27 0.64,-10.54 -3.5,-18.29 -13.39,-22.41 -5.63,-2.34 -11.29,-1.81 -16.92,0.82 0.54,0.1 0.97,0.08 1.29,0.26 0.32,0.18 0.53,0.56 0.81,0.83 0.1,0.1 0.28,0.19 0.41,0.16 0.89,-0.15 1.61,0.11 2.28,0.74 0.19,0.18 0.63,0.1 0.95,0.13l0.05 -0.03c0.95,0 1.9,0 2.72,0 0.3,-0.11 0.49,-0.21 0.69,-0.25l0.2 0.23c-0.1,0.2 -0.22,0.39 -0.37,0.55 -0.42,0.45 -0.9,0.84 -1.27,1.32 -0.38,0.49 0.08,1.28 0.79,1.44 0.29,0.07 0.57,0.13 0.86,0.16 0.54,0.07 0.88,0.32 1.03,0.88 0.11,0.39 0.39,0.63 0.87,0.32 -0.16,-0.49 -0.5,-0.98 -0.01,-1.46 0.04,-0.04 -0.05,-0.25 -0.12,-0.35 -0.08,-0.11 -0.26,-0.17 -0.29,-0.28 -0.09,-0.33 -0.13,-0.67 -0.18,-1 0.26,-0.03 0.53,-0.12 0.77,-0.07 0.28,0.05 0.57,0.19 0.78,0.37 0.56,0.47 0.54,0.49 0.91,-0.04 0.85,0.48 1.71,0.94 2.54,1.44 0.14,0.08 0.26,0.38 0.22,0.53 -0.06,0.24 -0.23,0.49 -0.43,0.63 -0.19,0.14 -0.48,0.13 -0.73,0.2 -0.56,0.15 -0.95,0.47 -1.11,1.19 0.16,-0.13 0.24,-0.19 0.31,-0.26 0.68,-0.65 0.66,-0.64 1.24,0.11 0.16,0.21 0.45,0.32 0.72,0.51 -0.13,0.15 -0.31,0.36 -0.54,0.62 -0.11,-0.16 -0.2,-0.28 -0.3,-0.42 -0.44,0.29 -0.91,0.52 -0.86,1.16 0.01,0.09 -0.07,0.21 -0.15,0.29 -0.57,0.55 -0.96,1.14 -0.91,2 0.02,0.33 -0.32,0.74 -0.59,1.02 -0.8,0.86 -0.8,0.83 -0.38,1.92 0.13,0.33 0.13,0.72 0.19,1.09 -0.07,0.03 -0.15,0.05 -0.22,0.08 -0.29,-0.4 -0.58,-0.79 -0.87,-1.2 -0.25,-0.35 -1.54,-0.67 -1.88,-0.43 -0.13,0.09 -0.18,0.31 -0.28,0.49 -0.1,-0.03 -0.22,-0.05 -0.33,-0.08 -0.74,-0.16 -1.57,-0.34 -2.02,0.43 -0.56,0.96 -0.78,2.03 -0.05,2.97 0.71,0.9 1.68,0.91 2.27,-0.06 0.28,-0.46 0.61,-0.63 1.17,-0.37z"/>
   <path class="fil1" d="M43.39 53.79c-1.99,-0.39 -4,-0.71 -5.96,-1.18 -3.43,-0.82 -6.65,-2.17 -9.54,-4.19 -0.9,-0.63 -1.71,-1.43 -2.42,-2.28 -1.3,-1.56 -1.08,-3.27 0.44,-4.6 1.33,-1.15 2.92,-1.81 4.54,-2.38 3.49,-1.25 7.12,-1.91 10.77,-2.47 1.06,-0.16 2.12,-0.28 3.19,-0.42 0.32,-0.04 0.65,-0.06 0.99,0.01 -1.27,0.28 -2.54,0.55 -3.8,0.86 -2.92,0.71 -5.81,1.55 -8.5,2.95 -1.55,0.8 -3.03,1.72 -3.97,3.27 -0.52,0.85 -0.7,1.76 -0.32,2.82 0.76,-2.39 2.72,-3.36 4.72,-4.22 3.16,-1.37 6.5,-2.07 9.87,-2.68 1.68,-0.3 3.38,-0.55 5.17,-0.84 -0.1,0.23 -0.15,0.36 -0.21,0.49 -0.36,0.75 -0.81,1.48 -1.07,2.27 -0.26,0.84 -0.77,1.1 -1.58,1.24 -2.98,0.52 -5.95,1.12 -8.74,2.33 -0.69,0.3 -1.37,0.69 -1.96,1.15 -1.39,1.07 -1.49,2.53 -0.33,3.87 1.01,1.15 2.32,1.86 3.72,2.36 1.65,0.59 3.34,1.05 5.01,1.57l-0.02 0.07z"/>
   <path class="fil1" d="M88.14 63.61c-4.85,5.84 -10.95,9.11 -18.71,8.88 -7.44,-0.23 -13.21,-3.6 -17.66,-9.39l0.06 -0.16c0.57,0.06 1.15,0.09 1.72,0.18 0.16,0.02 0.3,0.22 0.43,0.36 3.25,3.66 7.15,6.26 12.02,7.12 6.96,1.23 13.17,-0.35 18.4,-5.27 0.38,-0.36 0.79,-0.71 1.11,-1.12 0.37,-0.48 0.82,-0.66 1.41,-0.66 0.38,0 0.77,-0.06 1.16,-0.1l0.06 0.16z"/>
   <path class="fil1" d="M72.94 70.52c1.43,-2.18 3.04,-4.04 3.74,-6.52 1.82,0 3.63,0 5.51,0 -0.59,0.8 -1.33,1.45 -2.11,2.08 -1.24,1.01 -2.67,1.7 -3.98,2.59 -0.72,0.48 -1.29,1.18 -1.99,1.7 -0.25,0.18 -0.69,0.1 -1.17,0.15z"/>
  </g>
 </g>
</svg>
