<svg width="100" height="100" viewBox="0 0 100 100" fill="none" xmlns="http://www.w3.org/2000/svg">
<path d="M49.5 24C35.475 24 24 35.475 24 49.5C24 63.525 35.475 75 49.5 75C63.525 75 75 63.525 75 49.5C75 35.475 63.525 24 49.5 24ZM59.7 64.8H39.3C37.8975 64.8 36.75 63.6525 36.75 62.25C36.75 60.8475 37.8975 59.7 39.3 59.7H59.7C61.1025 59.7 62.25 60.8475 62.25 62.25C62.25 63.6525 61.1025 64.8 59.7 64.8ZM43.3545 52.7895L38.535 47.97C37.5405 46.9755 37.5405 45.3945 38.535 44.4C39.5295 43.4055 41.1105 43.4055 42.105 44.4L45.165 47.46L56.895 35.73C57.8895 34.7355 59.4705 34.7355 60.465 35.73C61.4595 36.7245 61.4595 38.3055 60.465 39.3L46.9755 52.7895C45.981 53.784 44.349 53.784 43.3545 52.7895Z" fill="white"/>
</svg>
