<svg width="100" height="100" viewBox="0 0 100 100" fill="none" xmlns="http://www.w3.org/2000/svg">
<path fill-rule="evenodd" clip-rule="evenodd" d="M39.53 77.8C39.53 76.04 41.07 74.36 42.73 74.36H56.27C57.93 74.36 59.47 76.04 59.47 77.8V79.16H39.53V77.8V77.8ZM36.57 18H62.44C64.07 18.01 65.4 19.09 66.12 20.33C66.36 20.73 66.59 21.17 66.6 21.81H76.57C78.8 21.81 80.99 23.85 81 26.11V63.67C80.99 65.35 79.76 66.94 78.26 67.56C76.63 68.23 73.38 67.96 71.16 67.96C70.56 67.96 70.17 67.57 70.17 66.97C70.17 65.96 71.46 65.98 72.51 65.99C74.47 66 77.22 66.29 78.26 65.34C78.77 64.88 79.16 63.96 79.16 63.04V26.74C79.16 25.92 78.87 25.18 78.5 24.69C78.15 24.24 77.45 23.78 76.69 23.78H66.73V25.51H75.96C76.68 25.51 77.31 26.14 77.31 26.86V62.91C77.31 63.63 76.68 64.27 75.96 64.27H23.04C22.32 64.27 21.69 63.63 21.69 62.91V26.86C21.69 26.14 22.32 25.51 23.04 25.51H32.27V23.78H22.31C20.78 23.78 19.84 25.21 19.84 26.86V62.91C19.84 65.78 21.6 65.99 23.54 65.99H43.72C45.34 65.99 66.14 65.77 67.17 66.16C68.29 66.57 67.65 67.96 66.97 67.96H55.9V72.39C57.62 72.39 59.25 73.31 60.05 74.27C61.71 76.25 62.21 80.99 59.96 81H39.02C38.53 80.99 38.08 80.67 37.87 80.32C36.88 78.69 37.73 72.39 43.1 72.39V67.96H22.43C20.19 67.96 18.01 65.9 18 63.66V26.11C18.01 23.88 20.19 21.81 22.43 21.81H32.4C32.44 19.93 34.6 18.01 36.57 18V18ZM45.07 67.96H53.93V72.39H45.07V67.96ZM66.73 27.47H75.46V62.3H66.73V27.47ZM32.27 35.1V62.3H23.54V27.47H32.27C32.27 30.1 31.85 31.66 33.26 31.66C34.44 31.66 34.12 30.26 34.12 28.58C34.12 26.94 33.87 22.34 34.58 21.17C35.1 20.31 35.97 19.84 37.32 19.84H61.68C63.91 19.84 64.88 21.1 64.88 23.41V62.3H34.12V34.86C34.12 33.95 32.27 33.72 32.27 35.1V35.1Z" fill="#FEFEFE"/>
<path fill-rule="evenodd" clip-rule="evenodd" d="M39.5299 35.35C39.5299 32.88 40.7299 30.02 42.4499 28.3C46.4599 24.29 53.3899 24.44 57.0999 28.98C57.2999 29.23 57.4499 29.42 57.6399 29.67C59.9999 32.85 60.0399 37.74 57.6899 40.96C56.8299 42.15 56.3799 42.6 55.1799 43.49C52.0099 45.84 47.1099 45.88 43.8899 43.54C41.7899 42.01 40.5099 40.26 39.8299 37.63C39.6999 37.12 39.5299 35.89 39.5299 35.35V35.35ZM37.6899 34.86C37.6899 39.08 38.6699 40.81 41.0599 43.67C42.5399 45.44 46.2999 47.16 48.8799 47.16C51.1399 47.16 52.5599 47.04 54.5499 46.06C56.2499 45.22 56.2799 45.1 57.4699 44.06C59.6799 42.12 61.3099 39.04 61.3099 35.96C61.3099 33.04 60.8399 30.82 59.1699 28.51C58.9599 28.22 58.7999 28 58.5699 27.75L57.1599 26.34C56.4299 25.64 55.4399 25.08 54.5499 24.64C50.1199 22.46 44.1199 23.65 41.1199 26.96C40.0999 28.09 39.4899 28.89 38.7899 30.3C38.2199 31.46 37.6899 33.13 37.6899 34.86V34.86Z" fill="#FEFEFE"/>
<path fill-rule="evenodd" clip-rule="evenodd" d="M47.7799 39.16C46.6299 39.16 46.5799 38.77 45.7199 37.9C44.5399 36.73 44.3299 36.91 44.3299 35.84C44.3299 35.37 44.8599 35.23 45.3199 35.23C45.8999 35.23 46.4799 36.7 47.5599 36.77C48.4699 36.84 50.9099 34 51.6199 33.29C52.6999 32.21 53.0499 31.53 54.0499 31.53C54.5399 31.53 54.6699 32.01 54.6699 32.4C54.6699 33.13 52.1099 35.38 51.4999 36C50.8899 36.6 50.3799 37.11 49.7799 37.72C49.3099 38.19 48.5899 39.16 47.7799 39.16ZM47.5299 34.61C45.9899 32.31 42.3599 33.19 42.3599 36.21C42.3599 37.63 43.5999 38.5 44.3599 39.26C45.2199 40.11 45.9999 41.13 47.6499 41.13C49.5999 41.13 51.1699 39.03 52.7899 37.41C54.4499 35.75 56.6399 34.12 56.6399 32.27C56.6399 30.82 55.2899 29.57 53.8099 29.57C51.5999 29.57 49.3999 33.36 47.5299 34.61Z" fill="#FEFEFE"/>
<path fill-rule="evenodd" clip-rule="evenodd" d="M37.9302 57.62C37.9302 58.1 38.1002 58.73 38.6702 58.73H60.3302C61.3102 58.73 61.3102 56.88 60.3302 56.88H38.6702C38.3802 56.88 37.9302 57.33 37.9302 57.62Z" fill="#FEFEFE"/>
<path fill-rule="evenodd" clip-rule="evenodd" d="M37.9302 52.08C37.9302 52.56 38.1002 53.19 38.6702 53.19H60.3302C61.3102 53.19 61.3102 51.35 60.3302 51.35H38.6702C38.3802 51.35 37.9302 51.79 37.9302 52.08V52.08Z" fill="#FEFEFE"/>
</svg>
