<?xml version="1.0" encoding="UTF-8"?>
<!DOCTYPE svg PUBLIC "-//W3C//DTD SVG 1.1//EN" "http://www.w3.org/Graphics/SVG/1.1/DTD/svg11.dtd">
<!-- Creator: CorelDRAW 2018 (64 Bit Versão de avaliação) -->
<svg xmlns="http://www.w3.org/2000/svg" xml:space="preserve" width="140px" height="100px" version="1.1" style="shape-rendering:geometricPrecision; text-rendering:geometricPrecision; image-rendering:optimizeQuality; fill-rule:evenodd; clip-rule:evenodd"
viewBox="0 0 140 100"
 xmlns:xlink="http://www.w3.org/1999/xlink">
 <defs>
  <style type="text/css">
   <![CDATA[
    .fil1 {fill:#FEFEFE}
    .fil0 {fill:#2FAFE5}
   ]]>
  </style>
 </defs>
 <g id="Camada_x0020_1">
  <metadata id="CorelCorpID_0Corel-Layer"/>
  <rect class="fil0" width="140" height="100"/>
  <g id="_1570895620448">
   <path class="fil1" d="M60.03 78.3c0,-1.76 1.54,-3.44 3.2,-3.44l13.54 0c1.66,0 3.2,1.68 3.2,3.44l0 1.36 -19.94 0 0 -1.36zm-2.96 -59.8l25.87 0c1.63,0.01 2.96,1.09 3.68,2.33 0.24,0.4 0.47,0.84 0.48,1.48l9.97 0c2.23,0 4.42,2.04 4.43,4.3l0 37.56c-0.01,1.68 -1.24,3.27 -2.74,3.89 -1.63,0.67 -4.88,0.4 -7.1,0.4 -0.6,0 -0.99,-0.39 -0.99,-0.99 0,-1.01 1.29,-0.99 2.34,-0.98 1.96,0.01 4.71,0.3 5.75,-0.65 0.51,-0.46 0.9,-1.38 0.9,-2.3l0 -36.3c0,-0.82 -0.29,-1.56 -0.66,-2.05 -0.35,-0.45 -1.05,-0.91 -1.81,-0.91l-9.96 0 0 1.73 9.23 0c0.72,0 1.35,0.63 1.35,1.35l0 36.05c0,0.72 -0.63,1.36 -1.35,1.36l-52.92 0c-0.72,0 -1.35,-0.64 -1.35,-1.36l0 -36.05c0,-0.72 0.63,-1.35 1.35,-1.35l9.23 0 0 -1.73 -9.96 0c-1.53,0 -2.47,1.43 -2.47,3.08l0 36.05c0,2.87 1.76,3.08 3.7,3.08l20.18 0c1.62,0 22.42,-0.22 23.45,0.17 1.12,0.41 0.48,1.8 -0.2,1.8l-11.07 0 0 4.43c1.72,0 3.35,0.92 4.15,1.88 1.66,1.98 2.16,6.72 -0.09,6.73l-20.94 0c-0.49,-0.01 -0.94,-0.33 -1.15,-0.68 -0.99,-1.63 -0.14,-7.93 5.23,-7.93l0 -4.43 -20.67 0c-2.24,0 -4.42,-2.06 -4.43,-4.3l0 -37.55c0.01,-2.23 2.19,-4.3 4.43,-4.3l9.97 0c0.04,-1.88 2.2,-3.8 4.17,-3.81zm8.5 49.96l8.86 0 0 4.43 -8.86 0 0 -4.43zm21.66 -40.49l8.73 0 0 34.83 -8.73 0 0 -34.83zm-34.46 7.63l0 27.2 -8.73 0 0 -34.83 8.73 0c0,2.63 -0.42,4.19 0.99,4.19 1.18,0 0.86,-1.4 0.86,-3.08 0,-1.64 -0.25,-6.24 0.46,-7.41 0.52,-0.86 1.39,-1.33 2.74,-1.33l24.36 0c2.23,0 3.2,1.26 3.2,3.57l0 38.89 -30.76 0 0 -27.44c0,-0.91 -1.85,-1.14 -1.85,0.24z"/>
   <path class="fil1" d="M60.03 35.85c0,-2.47 1.2,-5.33 2.92,-7.05 4.01,-4.01 10.94,-3.86 14.65,0.68 0.2,0.25 0.35,0.44 0.54,0.69 2.36,3.18 2.4,8.07 0.05,11.29 -0.86,1.19 -1.31,1.64 -2.51,2.53 -3.17,2.35 -8.07,2.39 -11.29,0.05 -2.1,-1.53 -3.38,-3.28 -4.06,-5.91 -0.13,-0.51 -0.3,-1.74 -0.3,-2.28zm-1.84 -0.49c0,4.22 0.98,5.95 3.37,8.81 1.48,1.77 5.24,3.49 7.82,3.49 2.26,0 3.68,-0.12 5.67,-1.1 1.7,-0.84 1.73,-0.96 2.92,-2 2.21,-1.94 3.84,-5.02 3.84,-8.1 0,-2.92 -0.47,-5.14 -2.14,-7.45 -0.21,-0.29 -0.37,-0.51 -0.6,-0.76l-1.41 -1.41c-0.73,-0.7 -1.72,-1.26 -2.61,-1.7 -4.43,-2.18 -10.43,-0.99 -13.43,2.32 -1.02,1.13 -1.63,1.93 -2.33,3.34 -0.57,1.16 -1.1,2.83 -1.1,4.56z"/>
   <path class="fil1" d="M68.28 39.66c-1.15,0 -1.2,-0.39 -2.06,-1.26 -1.18,-1.17 -1.39,-0.99 -1.39,-2.06 0,-0.47 0.53,-0.61 0.99,-0.61 0.58,0 1.16,1.47 2.24,1.54 0.91,0.07 3.35,-2.77 4.06,-3.48 1.08,-1.08 1.43,-1.76 2.43,-1.76 0.49,0 0.62,0.48 0.62,0.87 0,0.73 -2.56,2.98 -3.17,3.6 -0.61,0.6 -1.12,1.11 -1.72,1.72 -0.47,0.47 -1.19,1.44 -2,1.44zm-0.25 -4.55c-1.54,-2.3 -5.17,-1.42 -5.17,1.6 0,1.42 1.24,2.29 2,3.05 0.86,0.85 1.64,1.87 3.29,1.87 1.95,0 3.52,-2.1 5.14,-3.72 1.66,-1.66 3.85,-3.29 3.85,-5.14 0,-1.45 -1.35,-2.7 -2.83,-2.7 -2.21,0 -4.41,3.79 -6.28,5.04z"/>
   <path class="fil1" d="M58.43 58.12c0,0.48 0.17,1.11 0.74,1.11l21.66 0c0.98,0 0.98,-1.85 0,-1.85l-21.66 0c-0.29,0 -0.74,0.45 -0.74,0.74z"/>
   <path class="fil1" d="M58.43 52.58c0,0.48 0.17,1.11 0.74,1.11l21.66 0c0.98,0 0.98,-1.84 0,-1.84l-21.66 0c-0.29,0 -0.74,0.44 -0.74,0.73z"/>
  </g>
 </g>
</svg>
