<?xml version="1.0" encoding="UTF-8"?>
<!DOCTYPE svg PUBLIC "-//W3C//DTD SVG 1.1//EN" "http://www.w3.org/Graphics/SVG/1.1/DTD/svg11.dtd">
<!-- Creator: CorelDRAW 2018 (64 Bit Versão de avaliação) -->
<svg xmlns="http://www.w3.org/2000/svg" xml:space="preserve" width="140px" height="100px" version="1.1" style="shape-rendering:geometricPrecision; text-rendering:geometricPrecision; image-rendering:optimizeQuality; fill-rule:evenodd; clip-rule:evenodd"
viewBox="0 0 140 100"
 xmlns:xlink="http://www.w3.org/1999/xlink">
 <defs>
  <style type="text/css">
   <![CDATA[
    .fil1 {fill:#FEFEFE;fill-rule:nonzero}
    .fil0 {fill:#2FAFE5;fill-rule:nonzero}
   ]]>
  </style>
 </defs>
 <g id="Camada_x0020_1">
  <metadata id="CorelCorpID_0Corel-Layer"/>
  <polygon class="fil0" points="0,100 140,100 140,0 0,0 "/>
  <g id="_2227223038752">
   <path class="fil1" d="M78.81 61.24c-11.14,-0.03 -20.21,-9.25 -20.07,-20.39 0.14,-11.03 9.3,-19.91 20.39,-19.78 11.08,0.14 19.84,9.17 19.74,20.36 -0.1,10.92 -9.14,19.84 -20.06,19.81zm-16.15 -1.52c-1.09,-0.46 -2.41,-1.34 -2.51,-2.64 -0.06,-0.72 1.18,-2.07 1.87,-1.75 1.17,0.54 2.01,1.79 3.02,2.77 -0.84,0.79 -1.57,1.96 -2.38,1.62zm-3.4 6.64c-3.56,3.63 -7.19,7.2 -10.77,10.81 -0.94,0.95 -1.94,1.79 -3.21,1.84 -3,-0.01 -4.9,-3.08 -3.6,-5.62 0.4,-0.77 0.96,-1.47 1.57,-2.09 4.07,-4.12 8.21,-8.16 12.23,-12.33 1.37,-1.41 2.36,-1.36 3.68,0.02 4.27,4.41 4.02,3.37 0.1,7.37zm27.25 -45.56c-8.37,-3.14 -17.88,-0.82 -23.81,5.8 -6.01,6.7 -7.23,16.37 -3.09,24.52 1.38,2.73 0.62,4.5 -2.46,5.12 -1.13,0.24 -1.91,0.75 -2.66,1.5 -4.27,4.28 -8.56,8.55 -12.81,12.86 -2.61,2.65 -2.82,5.85 -0.61,8.17 2.38,2.5 5.54,2.43 8.33,-0.3 3.7,-3.62 7.32,-7.32 11,-10.96 1.56,-1.55 2.86,-3.18 3.6,-5.37 0.99,-2.9 2.02,-3.15 4.79,-1.76 14.71,7.34 31.74,-2.98 31.66,-19.18 -0.05,-9.19 -5.56,-17.26 -13.94,-20.4z"/>
   <path class="fil1" d="M78.94 56.81c-8.52,0.05 -15.57,-6.98 -15.61,-15.58 -0.04,-8.61 6.89,-15.69 15.43,-15.75 8.46,-0.07 15.58,7.01 15.66,15.58 0.08,8.48 -7.01,15.71 -15.48,15.75zm-0.2 -32.95c-9.38,0.07 -16.98,7.75 -16.99,17.19 -0.01,9.63 7.6,17.39 17.06,17.41 9.43,0.01 17.21,-7.85 17.19,-17.35 -0.03,-9.53 -7.82,-17.32 -17.26,-17.25z"/>
   <path class="fil1" d="M84 44.16c-1.96,-0.37 -2.43,0.74 -2.17,2.43 0.26,1.78 -0.12,2.87 -2.29,2.51 -1.65,-0.27 -4.18,0.94 -3.62,-2.49 0.31,-1.95 -0.52,-2.71 -2.47,-2.48 -1.42,0.16 -3.01,0.28 -2.49,-2 0.36,-1.58 -1.42,-4.52 2.4,-3.98 2.11,0.3 2.88,-0.57 2.54,-2.6 -0.52,-3.06 1.7,-2.19 3.28,-2.35 1.88,-0.18 3.05,0.17 2.67,2.46 -0.26,1.52 -0.1,2.88 2.05,2.48 2.63,-0.5 3.27,0.78 2.71,3 0.43,2.2 -0.07,3.49 -2.61,3.02zm4.73 -3.17c-0.14,-1.14 0.39,-2.52 -0.25,-3.73 -0.82,-1.55 -2.41,-1.08 -3.77,-1.17 -0.91,-0.05 -0.88,-0.75 -0.82,-1.34 0.36,-3.06 -1.25,-3.86 -3.94,-3.59 -1.04,0.11 -2.1,0.07 -3.15,0 -2.14,-0.14 -3.13,0.82 -2.92,2.95 0.13,1.35 -0.15,2.2 -1.8,2.02 -2.64,-0.29 -3.37,1.2 -3.17,3.55 0.09,1.04 0.06,2.09 0,3.14 -0.15,2.25 0.59,3.58 3.12,3.29 1.03,-0.12 1.81,-0.07 1.91,1.4 0.24,3.64 0.32,3.64 4.04,3.62 0.88,-0.01 1.76,-0.06 2.63,0.02 2.36,0.21 3.51,-0.79 3.26,-3.19 -0.16,-1.48 0.36,-2.08 1.9,-1.87 2.34,0.33 3.19,-0.9 2.97,-3.1 -0.06,-0.61 -0.01,-1.23 -0.01,-2z"/>
  </g>
 </g>
</svg>
