<svg width="100" height="100" viewBox="0 0 100 100" fill="none" xmlns="http://www.w3.org/2000/svg">
<path d="M59.2556 60.8233C48.1156 60.7933 39.0456 51.5733 39.1856 40.4333C39.3256 29.4033 48.4856 20.5233 59.5756 20.6533C70.6556 20.7933 79.4156 29.8233 79.3156 41.0133C79.2156 51.9333 70.1756 60.8533 59.2556 60.8233V60.8233ZM43.1056 59.3033C42.0156 58.8433 40.6956 57.9633 40.5956 56.6633C40.5356 55.9433 41.7756 54.5933 42.4656 54.9133C43.6356 55.4533 44.4756 56.7033 45.4856 57.6833C44.6456 58.4733 43.9156 59.6433 43.1056 59.3033ZM39.7056 65.9433C36.1456 69.5733 32.5156 73.1433 28.9356 76.7533C27.9956 77.7033 26.9956 78.5433 25.7256 78.5933C22.7256 78.5833 20.8256 75.5133 22.1256 72.9733C22.5256 72.2033 23.0856 71.5033 23.6956 70.8833C27.7656 66.7633 31.9056 62.7233 35.9256 58.5533C37.2956 57.1433 38.2856 57.1933 39.6056 58.5733C43.8756 62.9833 43.6256 61.9433 39.7056 65.9433ZM66.9556 20.3833C58.5856 17.2433 49.0756 19.5633 43.1456 26.1833C37.1356 32.8833 35.9156 42.5533 40.0556 50.7033C41.4356 53.4333 40.6756 55.2033 37.5956 55.8233C36.4656 56.0633 35.6856 56.5733 34.9356 57.3233C30.6656 61.6033 26.3756 65.8733 22.1256 70.1833C19.5156 72.8333 19.3056 76.0333 21.5156 78.3533C23.8956 80.8533 27.0556 80.7833 29.8456 78.0533C33.5456 74.4333 37.1656 70.7333 40.8456 67.0933C42.4056 65.5433 43.7056 63.9133 44.4456 61.7233C45.4356 58.8233 46.4656 58.5733 49.2356 59.9633C63.9456 67.3033 80.9756 56.9833 80.8956 40.7833C80.8456 31.5933 75.3356 23.5233 66.9556 20.3833V20.3833Z" fill="#FEFEFE"/>
<path d="M59.3858 56.3933C50.8658 56.4433 43.8158 49.4133 43.7758 40.8133C43.7358 32.2033 50.6658 25.1233 59.2058 25.0633C67.6658 24.9933 74.7858 32.0733 74.8658 40.6433C74.9458 49.1233 67.8558 56.3533 59.3858 56.3933V56.3933ZM59.1858 23.4433C49.8058 23.5133 42.2058 31.1933 42.1958 40.6333C42.1858 50.2633 49.7958 58.0233 59.2558 58.0433C68.6858 58.0533 76.4658 50.1933 76.4458 40.6933C76.4158 31.1633 68.6258 23.3733 59.1858 23.4433V23.4433Z" fill="#FEFEFE"/>
<path d="M64.4453 43.7433C62.4853 43.3733 62.0153 44.4833 62.2753 46.1733C62.5353 47.9533 62.1553 49.0433 59.9853 48.6833C58.3353 48.4133 55.8053 49.6233 56.3653 46.1933C56.6753 44.2433 55.8453 43.4833 53.8953 43.7133C52.4753 43.8733 50.8853 43.9933 51.4053 41.7133C51.7653 40.1333 49.9853 37.1933 53.8053 37.7333C55.9153 38.0333 56.6853 37.1633 56.3453 35.1333C55.8253 32.0733 58.0453 32.9433 59.6253 32.7833C61.5053 32.6033 62.6753 32.9533 62.2953 35.2433C62.0353 36.7633 62.1953 38.1233 64.3453 37.7233C66.9753 37.2233 67.6153 38.5033 67.0553 40.7233C67.4853 42.9233 66.9853 44.2133 64.4453 43.7433ZM69.1754 40.5733C69.0354 39.4333 69.5654 38.0533 68.9254 36.8433C68.1054 35.2933 66.5153 35.7633 65.1553 35.6733C64.2453 35.6233 64.2753 34.9233 64.3353 34.3333C64.6953 31.2733 63.0853 30.4733 60.3953 30.7433C59.3553 30.8533 58.2954 30.8133 57.2454 30.7433C55.1054 30.6033 54.1153 31.5633 54.3253 33.6933C54.4553 35.0433 54.1753 35.8933 52.5253 35.7133C49.8853 35.4233 49.1554 36.9133 49.3554 39.2633C49.4454 40.3033 49.4154 41.3533 49.3554 42.4033C49.2054 44.6533 49.9453 45.9833 52.4753 45.6933C53.5053 45.5733 54.2854 45.6233 54.3854 47.0933C54.6254 50.7333 54.7054 50.7333 58.4254 50.7133C59.3054 50.7033 60.1853 50.6533 61.0553 50.7333C63.4153 50.9433 64.5654 49.9433 64.3154 47.5433C64.1554 46.0633 64.6753 45.4633 66.2153 45.6733C68.5553 46.0033 69.4053 44.7733 69.1853 42.5733C69.1253 41.9633 69.1754 41.3433 69.1754 40.5733V40.5733Z" fill="#FEFEFE"/>
</svg>
