<svg width="100" height="100" viewBox="0 0 100 100" fill="none" xmlns="http://www.w3.org/2000/svg">
<path d="M74.39 63.0413H65.6C64.34 63.0413 63.32 62.0213 63.32 60.7613C63.32 59.5013 64.34 58.4713 65.6 58.4713H74.39L74.43 42.5313L63.17 42.4913C60.32 42.4913 57.99 40.1713 57.99 37.3113V26.0913C57.99 22.6313 50.23 26.5113 50.23 33.8113C50.23 45.6913 62.1 46.6013 62.1 61.2113C62.1 67.6113 58.91 71.0413 58.45 71.2613C57.87 71.5413 59.06 66.7913 57.54 61.2113C54.8 51.1713 44.75 42.9513 44.75 35.6413C44.75 17.3713 59.75 20.1513 60.28 20.1513C61.54 20.1513 62.56 21.1713 62.56 22.4313V37.3113C62.56 37.6513 62.83 37.9213 63.17 37.9213H74.39C76.93 37.9213 79 39.9913 79 42.5313V58.4313C79 60.9713 76.93 63.0413 74.39 63.0413V63.0413Z" fill="#FEFEFE"/>
<path d="M41.09 79.4813C38.55 79.4813 37.44 77.4113 37.44 74.8813V63.9513C37.44 63.4513 37.03 63.0413 36.53 63.0413H25.61C23.07 63.0413 21 60.9713 21 58.4313V42.5313C21 39.9913 23.07 37.9213 25.61 37.9213H34.47C35.73 37.9213 36.75 38.9413 36.75 40.2113C36.75 41.4713 35.73 42.4913 34.47 42.4913H25.61L25.57 58.4313L36.53 58.4713C39.55 58.4713 42.01 60.9313 42.01 63.9513V75.8313C46.49 75.8313 49.31 74.0013 49.31 67.6113C49.31 54.8213 31.05 44.7713 42.01 29.2513C40.18 43.8613 54.8 57.1413 54.8 67.6113C54.8 79.4813 42.36 79.4813 41.09 79.4813V79.4813Z" fill="#FEFEFE"/>
</svg>
